<svg width="31" height="56" viewBox="0 0 31 56" fill="none" xmlns="http://www.w3.org/2000/svg">
<path opacity="0.4" fill-rule="evenodd" clip-rule="evenodd" d="M15.0663 36.686C23.3853 36.686 30.1323 40.6021 30.1323 45.4315C30.1323 50.261 23.3853 54.1774 15.0663 54.1774C6.74698 54.1774 0 50.2614 0 45.4315C0 40.6021 6.74698 36.686 15.0663 36.686Z" fill="#D2D2E1"/>
<path fill-rule="evenodd" clip-rule="evenodd" d="M4.52376 49.7445V11.0215L3.78613 10.5591L3.78812 49.2781L4.52376 49.7445Z" fill="#AFAFAF"/>
<path fill-rule="evenodd" clip-rule="evenodd" d="M19.9654 1.28027L4.52344 11.0214V49.7435L19.9698 39.9993L19.9654 1.28027Z" fill="#D7C792"/>
<path fill-rule="evenodd" clip-rule="evenodd" d="M19.9653 1.28049L4.52337 11.0216L3.78613 10.5588L19.2065 0.815918L19.9653 1.28049Z" fill="#E3E3E3"/>
<path fill-rule="evenodd" clip-rule="evenodd" d="M14.2764 24.0059L13.2163 24.6489L13.2167 45.1097L14.2828 44.4614L14.2764 24.0059Z" fill="#E3E3E3"/>
<path fill-rule="evenodd" clip-rule="evenodd" d="M13.2166 45.1101V24.6489L12.5117 24.207L12.5145 44.663L13.2166 45.1101Z" fill="#AFAFAF"/>
<path fill-rule="evenodd" clip-rule="evenodd" d="M16.7105 10.7798L11.2246 14.2199L11.225 25.9177L16.7165 22.4728L16.7105 10.7798Z" fill="#AFAFAF"/>
<path fill-rule="evenodd" clip-rule="evenodd" d="M22.1997 25.9687V14.27L22.3116 14.186L22.3088 25.8795L22.1997 25.9687Z" fill="#E3E3E3"/>
<path fill-rule="evenodd" clip-rule="evenodd" d="M16.7144 10.8296L22.1999 14.2701V25.968L16.708 22.5226L16.7144 10.8296Z" fill="#979797"/>
<path fill-rule="evenodd" clip-rule="evenodd" d="M16.7144 10.8297L22.1999 14.2698L22.3109 14.1858L16.8558 10.7427L16.7144 10.8297Z" fill="white"/>
<path fill-rule="evenodd" clip-rule="evenodd" d="M21.9765 47.6122C21.541 47.9486 21.8059 48.9591 22.2654 49.1288C23.308 49.5147 24.0932 49.9941 24.7812 50.2386C25.025 50.3253 25.6052 50.4049 25.8505 49.9101C25.9117 49.7194 25.5289 49.0168 25.5289 49.0168C24.3029 49.1616 22.5188 47.2846 21.9765 47.6122Z" fill="#9B9B9A"/>
<path fill-rule="evenodd" clip-rule="evenodd" d="M23.405 47.6928C22.866 47.842 22.4073 47.4272 22.227 47.4587C22.0832 47.4819 21.8842 47.6442 21.8426 47.8901C21.7727 48.3008 21.9801 48.7134 22.315 48.8962C22.6746 49.0926 23.085 49.0025 23.6943 49.2711C24.0296 49.419 24.8491 49.9417 25.1584 49.9465C25.4685 49.9518 25.7314 49.7304 25.7614 49.4785C25.739 47.9553 24.4383 47.4071 23.405 47.6928Z" fill="#3E3E3D"/>
<path fill-rule="evenodd" clip-rule="evenodd" d="M22.3984 41.2874C22.3101 41.0026 21.9489 39.902 21.8993 39.5021C20.8109 34.9037 20.5803 33.454 20.9247 30.5996C21.797 30.2772 23.8781 31.2575 24.664 30.3979C26.284 32.1722 24.2321 38.5796 24.7216 40.8075C24.3691 41.4567 23.176 42.0328 22.3984 41.2874Z" fill="#314A8D"/>
<path fill-rule="evenodd" clip-rule="evenodd" d="M25.6961 48.9535C24.952 49.7181 24.1712 49.4675 23.7209 48.3822C23.7033 46.6547 22.889 43.341 22.3471 41.1201C22.0299 39.7491 24.0418 39.0326 24.7391 40.8073C25.6018 42.7802 25.6106 48.1529 25.6961 48.9535Z" fill="#314A8D"/>
<path fill-rule="evenodd" clip-rule="evenodd" d="M17.602 49.3865C17.1665 49.7229 17.4314 50.7334 17.8909 50.9032C18.9334 51.289 19.7186 51.7684 20.4067 52.013C20.6505 52.0996 21.2307 52.1792 21.476 51.6844C21.5367 51.4937 21.1543 50.7912 21.1543 50.7912C19.9288 50.936 18.1443 49.0593 17.602 49.3865Z" fill="#9B9B9A"/>
<path fill-rule="evenodd" clip-rule="evenodd" d="M19.0305 49.4672C18.4883 49.6037 18.0327 49.2017 17.8525 49.2332C17.7087 49.2564 17.5097 49.4187 17.4681 49.6641C17.3982 50.0749 17.6056 50.4874 17.9404 50.6702C18.3001 50.8662 18.7104 50.7765 19.3198 51.0451C19.6547 51.193 20.4746 51.7157 20.7835 51.7205C21.0936 51.7258 21.3565 51.5045 21.3868 51.2525C21.3645 49.7297 20.2329 49.1645 19.0305 49.4672Z" fill="#3E3E3D"/>
<path fill-rule="evenodd" clip-rule="evenodd" d="M19.1032 42.4361C19.0492 42.1443 18.9162 41.4824 18.915 41.0821C18.3839 36.4128 18.5214 33.8686 19.2102 31.0934C20.1201 30.8808 22.7254 31.7343 23.6137 30.9814C25.4546 33.5348 21.2058 38.9815 21.6505 42.2471C21.2202 42.8446 19.7896 43.2655 19.1032 42.4361Z" fill="#4165BD"/>
<path fill-rule="evenodd" clip-rule="evenodd" d="M21.2941 50.4574C20.443 51.1276 19.804 50.6455 19.5239 49.5125C19.7693 47.7933 19.255 44.4167 19.0572 42.1441C18.9525 40.743 21.2305 40.3983 21.6493 42.2465C21.8823 43.9718 21.3316 49.6516 21.2941 50.4574Z" fill="#4165BD"/>
<path fill-rule="evenodd" clip-rule="evenodd" d="M19.188 31.1853C20.0003 31.9604 23.8667 32.6555 24.9564 30.9985C24.944 30.8056 24.9952 30.456 24.9824 30.2627C23.7472 31.2456 20.6609 31.5112 19.2855 30.6599C19.2527 30.8353 19.2204 31.0103 19.188 31.1853Z" fill="#314A8D"/>
<path fill-rule="evenodd" clip-rule="evenodd" d="M16.717 22.4727V10.7744L15.5078 10.0137L15.5102 21.7071L16.717 22.4727Z" fill="#979797"/>
<path fill-rule="evenodd" clip-rule="evenodd" d="M16.7108 10.7794L11.2253 14.2195L10.0166 13.4588L15.4717 10.0156L16.7108 10.7794Z" fill="white"/>
<path fill-rule="evenodd" clip-rule="evenodd" d="M16.7161 22.4721L11.2306 25.9122L10.0215 25.1519L15.5102 21.707L16.7161 22.4721Z" fill="white"/>
<path fill-rule="evenodd" clip-rule="evenodd" d="M11.2257 25.9185V14.2198L10.0166 13.4595L10.019 25.1525L11.2257 25.9185Z" fill="#E3E3E3"/>
<path fill-rule="evenodd" clip-rule="evenodd" d="M16.7105 10.7798L13.9709 12.4981V12.7592L16.5455 11.1446L16.5511 22.3158L13.9709 23.9348V24.1955L16.7169 22.4728L16.7105 10.7798ZM13.9705 12.4976L11.2246 14.2199V25.9177L13.9702 24.195V23.9343L11.39 25.5529L11.3896 14.3774L13.9702 12.7592L13.9705 12.4976Z" fill="#CACACA"/>
<path fill-rule="evenodd" clip-rule="evenodd" d="M26.2134 22.0244C26.5311 20.454 26.9618 17.7331 23.1954 18.8722C23.1378 18.8897 22.0138 19.4763 19.6235 20.143C19.0936 20.5498 18.7967 22.2375 19.8448 22.4505C21.1595 22.7182 25.62 24.958 26.2134 22.0244Z" fill="#CB6117"/>
<path fill-rule="evenodd" clip-rule="evenodd" d="M21.6503 20.0735C21.5021 20.1186 20.6054 20.5858 19.9509 21.5114C19.4726 22.1934 19.4981 23.7166 19.5173 23.9178C19.5769 24.5661 19.4334 27.7556 19.2852 30.6607C19.5661 31.6218 23.7217 31.4275 24.9824 30.2635C24.994 28.9704 25.6673 26.1882 25.7932 25.4655C25.9183 24.7411 26.5044 20.7796 25.6345 19.4554C25.4344 19.1501 24.7551 18.8316 24.4454 18.871C23.3397 19.0083 21.8345 20.018 21.6503 20.0735Z" fill="#CB6117"/>
<path fill-rule="evenodd" clip-rule="evenodd" d="M20.7192 20.6762C21.6467 20.3368 23.277 22.4387 24.0014 25.8814C24.3766 26.0188 24.4729 25.5761 24.8481 25.4637C24.2352 22.615 22.9134 19.8481 21.6503 20.0734C21.1416 20.2935 21.1132 20.2681 20.7192 20.6762Z" fill="#4165BD"/>
<path fill-rule="evenodd" clip-rule="evenodd" d="M24.374 18.8811C25.3234 18.8483 25.2559 20.1917 25.2511 21.0828C25.2431 22.5496 24.8595 24.2005 24.428 25.6476C24.7484 25.7849 24.8347 25.2976 25.2547 25.1848C25.7666 23.8969 25.8121 22.5443 25.9576 21.2783C26.1094 19.9572 25.6994 18.8728 24.826 18.7258C24.6645 18.6991 24.374 18.8811 24.374 18.8811Z" fill="#4165BD"/>
<path fill-rule="evenodd" clip-rule="evenodd" d="M21.3549 20.9113C24.5559 23.0435 17.8341 26.3213 16.6761 26.7482C15.8298 26.9814 15.5162 25.6445 16.3161 24.8716C17.9992 23.3484 20.1174 20.0867 21.3549 20.9113Z" fill="#DE7E32"/>
<path fill-rule="evenodd" clip-rule="evenodd" d="M20.3115 16.1123L20.5505 17.1679L21.4288 16.9037L21.1546 15.8184L20.3115 16.1123Z" fill="#C4C4C4"/>
<path d="M20.8736 16.9826L21.3331 16.8444C21.2556 16.5382 21.1785 16.2319 21.1014 15.9253C21.0267 15.9419 20.9527 15.9572 20.8736 15.9808V15.7997C20.9871 15.7656 21.0974 15.7389 21.2081 15.7109C21.3132 16.1283 21.4186 16.5456 21.5237 16.9629L20.8736 17.1585V16.9826ZM20.4141 16.2144C20.4465 16.5255 20.5016 16.8164 20.6059 17.0631L20.8736 16.9826V17.1585L20.5332 17.2604C20.4217 16.9699 20.2994 16.5377 20.2295 16.1011C20.4692 15.9432 20.6766 15.8597 20.8736 15.7997V15.9808C20.7454 16.0193 20.6023 16.081 20.4141 16.2144Z" fill="#222221"/>
<path fill-rule="evenodd" clip-rule="evenodd" d="M20.8788 17.3993C20.659 17.5462 20.649 17.779 20.6594 17.9036C20.7673 19.1959 21.5201 20.0883 21.8186 18.8008C21.9465 18.2492 22.2829 17.7654 21.7854 17.4067C21.409 17.1355 20.9271 17.3971 20.8788 17.3993Z" fill="#4D4D4D"/>
<path fill-rule="evenodd" clip-rule="evenodd" d="M20.9487 14.8325C20.8516 15.1194 20.7353 15.4069 20.6765 15.7056C20.6354 15.9143 20.6166 15.9764 20.6909 16.1623C20.8044 16.448 20.8727 16.5079 20.6785 16.738C20.4895 16.9624 20.7325 17.6908 20.8228 18.0276C20.8943 18.2931 20.9327 18.6042 21.152 18.763C21.6987 19.1593 22.3112 18.9213 22.8607 18.7065C23.4049 18.4966 24.4714 16.9804 24.6392 16.4847C24.7607 15.469 24.5217 14.5906 22.9741 13.9742C22.3032 13.7069 21.192 14.1133 20.9487 14.8325Z" fill="#ECC19A"/>
<path fill-rule="evenodd" clip-rule="evenodd" d="M21.6261 17.6619C21.6261 17.6619 21.5478 18.8876 21.8207 19.9956C22.6858 19.776 23.7579 20.3618 24.5539 19.5538C24.4028 19.2249 23.9705 18.2979 24.086 16.9059C24.1223 16.4681 21.6857 16.4116 21.6261 17.6619Z" fill="#D99E72"/>
<path fill-rule="evenodd" clip-rule="evenodd" d="M21.2493 16.314C21.2888 16.4369 21.4658 16.6206 21.1717 16.8949C20.751 17.2667 21.1977 18.2125 21.4646 17.7825C21.5921 17.5773 21.5266 16.8074 21.6117 16.7414C21.8682 16.5436 22.1375 17.2431 22.4196 17.8135C22.8612 18.7072 24.0052 18.3219 24.0839 18.2567C24.4979 17.9141 24.8603 17.4868 24.8875 16.8039C24.9186 16.0108 25.1676 15.1311 24.6509 14.4487C23.7606 13.2728 21.879 12.8271 20.6727 14.3966C20.0509 15.2046 21.0211 15.6049 21.2493 16.314Z" fill="#4D4D4D"/>
<path fill-rule="evenodd" clip-rule="evenodd" d="M22.0238 16.7238L20.2725 16.103L20.3456 16.4263L22.009 16.9464L22.1549 17.5912L22.4894 17.694L22.0238 16.7238Z" fill="#363636"/>
<path fill-rule="evenodd" clip-rule="evenodd" d="M22.1493 17.1013C22.1033 17.4626 21.8764 17.9679 21.7357 17.9377C21.3777 17.8003 21.5503 17.5387 21.5955 17.1778C21.6426 16.8174 21.5571 16.5969 21.6958 16.565C21.9571 16.5072 22.1948 16.7391 22.1493 17.1013Z" fill="#ECC19A"/>
<path fill-rule="evenodd" clip-rule="evenodd" d="M22.7881 31.2855C23.3723 29.6945 24.0248 27.8353 24.0004 25.7592C24.4292 25.5321 24.8579 25.3047 25.2871 25.0776C25.3778 26.3506 25.2711 28.5733 24.9822 30.2632C24.3441 31.1332 23.6016 31.4115 22.7881 31.2855Z" fill="#314A8D"/>
<path fill-rule="evenodd" clip-rule="evenodd" d="M6.40323 55.5544L6.35449 52.7088L13.4167 48.2871L12.9928 51.4306L6.40323 55.5544Z" fill="#D39F25"/>
<path fill-rule="evenodd" clip-rule="evenodd" d="M3.40576 50.8765L6.3539 52.7085L6.40305 55.5541L3.8541 53.9823L3.40576 50.8765Z" fill="#C18B21"/>
<path fill-rule="evenodd" clip-rule="evenodd" d="M3.68652 49.2794L6.35376 50.9216L13.1659 46.6621L10.5162 45.0151L3.68652 49.2794Z" fill="#858585"/>
<path fill-rule="evenodd" clip-rule="evenodd" d="M6.3539 52.7089L3.40576 50.8769L3.68667 49.2798L6.3539 50.922V52.7089Z" fill="#3E3E3D"/>
<path fill-rule="evenodd" clip-rule="evenodd" d="M6.35449 52.7088L13.4167 48.2871L13.167 46.6562L6.35449 50.9218V52.7088Z" fill="#585857"/>
<path fill-rule="evenodd" clip-rule="evenodd" d="M6.09131 49.1157L6.40019 48.7124V47.9958L9.78546 46.1848V47.1725L10.0332 47.3265L10.2202 45.5815L6.09131 48.0431V49.1157Z" fill="#C18B21"/>
<path fill-rule="evenodd" clip-rule="evenodd" d="M6.09082 48.0458L6.41929 48.2458L10.5078 45.6889L10.1906 45.4863L6.09082 48.0458Z" fill="#EDC52E"/>
<path fill-rule="evenodd" clip-rule="evenodd" d="M6.11312 49.7655L5.78467 49.5647L6.09075 48.0459L6.41921 48.2454L6.11312 49.7655Z" fill="#C18B21"/>
<path fill-rule="evenodd" clip-rule="evenodd" d="M6.11328 49.7651L6.90087 49.2856L6.89488 48.3031L10.0332 46.3381V47.3263L10.7425 46.8998L10.5083 45.6846L6.41937 48.2454L6.11328 49.7651Z" fill="#D39F25"/>
<path fill-rule="evenodd" clip-rule="evenodd" d="M7.29395 51.7982L7.60643 51.9911L8.40998 51.4929L8.1087 51.2969L7.29395 51.7982Z" fill="#858585"/>
<path fill-rule="evenodd" clip-rule="evenodd" d="M7.45018 53.3683L7.29395 53.2712V51.7979L7.60643 51.9908L7.45018 53.3683Z" fill="#3E3E3D"/>
<path fill-rule="evenodd" clip-rule="evenodd" d="M7.4502 53.3685L8.25417 52.865L8.4104 51.4888L7.60644 51.991L7.4502 53.3685Z" fill="#585857"/>
<path fill-rule="evenodd" clip-rule="evenodd" d="M11.582 49.0985L11.8945 49.2914L12.6977 48.7931L12.3968 48.5972L11.582 49.0985Z" fill="#858585"/>
<path fill-rule="evenodd" clip-rule="evenodd" d="M11.7378 50.6691L11.5815 50.572L11.5819 49.0986L11.8944 49.2915L11.7378 50.6691Z" fill="#3E3E3D"/>
<path fill-rule="evenodd" clip-rule="evenodd" d="M11.7378 50.6688L12.5422 50.1648L12.698 48.7891L11.8944 49.2913L11.7378 50.6688Z" fill="#585857"/>
<path fill-rule="evenodd" clip-rule="evenodd" d="M14.2764 19.8232L13.2163 20.4663L13.2167 24.3473L14.2828 23.6995L14.2764 19.8232Z" fill="#E3E3E3"/>
<path fill-rule="evenodd" clip-rule="evenodd" d="M13.2166 24.3487V20.4667L12.5117 20.0249L12.5145 23.9016L13.2166 24.3487Z" fill="#979797"/>
<path fill-rule="evenodd" clip-rule="evenodd" d="M15.7632 16.3252L15.2197 16.666V19.0868L15.7644 18.7447L15.7632 16.3252Z" fill="#E3E3E3"/>
<path fill-rule="evenodd" clip-rule="evenodd" d="M15.7633 16.3254L15.2199 16.6662L14.9697 16.5087L15.5072 16.1675L15.7633 16.3254Z" fill="white"/>
<path fill-rule="evenodd" clip-rule="evenodd" d="M15.2199 19.0866V16.6658L14.9697 16.5083L14.9701 18.9283L15.2199 19.0866Z" fill="#AFAFAF"/>
<path fill-rule="evenodd" clip-rule="evenodd" d="M15.9156 16.8101L15.3662 17.1605V18.5957L15.9164 18.2445L15.9156 16.8101Z" fill="#E3E3E3"/>
<path fill-rule="evenodd" clip-rule="evenodd" d="M15.9154 16.8099L15.366 17.1603L15.2178 17.0667L15.7636 16.7163L15.9154 16.8099Z" fill="white"/>
<path fill-rule="evenodd" clip-rule="evenodd" d="M15.366 18.5958V17.1605L15.2178 17.0669V18.5017L15.366 18.5958Z" fill="#AFAFAF"/>
<path fill-rule="evenodd" clip-rule="evenodd" d="M15.7516 17.3428L15.5298 17.4836V18.0628L15.752 17.9215L15.7516 17.3428Z" fill="#4D4D4D"/>
<path fill-rule="evenodd" clip-rule="evenodd" d="M15.1742 16.6978L14.6304 17.0385L14.6308 19.4589L15.1754 19.1173L15.1742 16.6978Z" fill="#E3E3E3"/>
<path fill-rule="evenodd" clip-rule="evenodd" d="M15.1744 16.698L14.631 17.0383L14.3809 16.8812L14.9179 16.54L15.1744 16.698Z" fill="white"/>
<path fill-rule="evenodd" clip-rule="evenodd" d="M14.631 19.4587V17.0379L14.3809 16.8809L14.3813 19.3004L14.631 19.4587Z" fill="#AFAFAF"/>
<path fill-rule="evenodd" clip-rule="evenodd" d="M15.3267 17.1826L14.7769 17.5326V18.9679L15.3271 18.617L15.3267 17.1826Z" fill="#E3E3E3"/>
<path fill-rule="evenodd" clip-rule="evenodd" d="M15.3265 17.1824L14.7767 17.5324L14.6284 17.4392L15.1742 17.0884L15.3265 17.1824Z" fill="white"/>
<path fill-rule="evenodd" clip-rule="evenodd" d="M14.7767 18.9679V17.5326L14.6284 17.4395L14.6288 18.8739L14.7767 18.9679Z" fill="#AFAFAF"/>
<path fill-rule="evenodd" clip-rule="evenodd" d="M15.1627 17.7148L14.9409 17.8561V18.4353L15.1631 18.2936L15.1627 17.7148Z" fill="#4D4D4D"/>
<path fill-rule="evenodd" clip-rule="evenodd" d="M14.5853 17.0703L14.0415 17.4111V19.8319L14.5865 19.4898L14.5853 17.0703Z" fill="#E3E3E3"/>
<path fill-rule="evenodd" clip-rule="evenodd" d="M14.5855 17.07L14.0416 17.4108L13.7915 17.2533L14.3289 16.9121L14.5855 17.07Z" fill="white"/>
<path fill-rule="evenodd" clip-rule="evenodd" d="M14.0416 19.8317V17.4109L13.7915 17.2534L13.7923 19.6734L14.0416 19.8317Z" fill="#AFAFAF"/>
<path fill-rule="evenodd" clip-rule="evenodd" d="M14.7374 17.5552L14.188 17.9056V19.3404L14.7382 18.9896L14.7374 17.5552Z" fill="#E3E3E3"/>
<path fill-rule="evenodd" clip-rule="evenodd" d="M14.7372 17.555L14.1878 17.9054L14.0396 17.8118L14.5854 17.4614L14.7372 17.555Z" fill="white"/>
<path fill-rule="evenodd" clip-rule="evenodd" d="M14.1878 19.34V17.9051L14.0396 17.8115V19.2464L14.1878 19.34Z" fill="#AFAFAF"/>
<path fill-rule="evenodd" clip-rule="evenodd" d="M14.5737 18.0874L14.3516 18.2287V18.8079L14.5737 18.6661V18.0874Z" fill="#4D4D4D"/>
<path fill-rule="evenodd" clip-rule="evenodd" d="M13.9961 17.4424L13.4526 17.7832V20.204L13.9973 19.8624L13.9961 17.4424Z" fill="#E3E3E3"/>
<path fill-rule="evenodd" clip-rule="evenodd" d="M13.9962 17.4426L13.4528 17.7834L13.2026 17.6263L13.7401 17.2847L13.9962 17.4426Z" fill="white"/>
<path fill-rule="evenodd" clip-rule="evenodd" d="M13.4528 20.2039V17.783L13.2026 17.626L13.203 20.0455L13.4528 20.2039Z" fill="#AFAFAF"/>
<path fill-rule="evenodd" clip-rule="evenodd" d="M14.1485 17.9272L13.5986 18.2776L13.599 19.7129L14.1493 19.3621L14.1485 17.9272Z" fill="#E3E3E3"/>
<path fill-rule="evenodd" clip-rule="evenodd" d="M14.1483 17.9271L13.5988 18.2775L13.4502 18.1843L13.996 17.8335L14.1483 17.9271Z" fill="white"/>
<path fill-rule="evenodd" clip-rule="evenodd" d="M13.5988 19.713V18.2777L13.4502 18.1846L13.4506 19.619L13.5988 19.713Z" fill="#AFAFAF"/>
<path fill-rule="evenodd" clip-rule="evenodd" d="M13.9845 18.46L13.7627 18.6013V19.18L13.9849 19.0387L13.9845 18.46Z" fill="#4D4D4D"/>
<path fill-rule="evenodd" clip-rule="evenodd" d="M13.4066 17.8149L12.8628 18.1557V20.5761L13.4078 20.2345L13.4066 17.8149Z" fill="#E3E3E3"/>
<path fill-rule="evenodd" clip-rule="evenodd" d="M13.4069 17.8151L12.863 18.1559L12.6133 17.9984L13.1503 17.6572L13.4069 17.8151Z" fill="white"/>
<path fill-rule="evenodd" clip-rule="evenodd" d="M12.8634 20.5769V18.156L12.6133 17.9985L12.6137 20.4181L12.8634 20.5769Z" fill="#AFAFAF"/>
<path fill-rule="evenodd" clip-rule="evenodd" d="M13.5587 18.2998L13.0093 18.6498V20.085L13.5595 19.7342L13.5587 18.2998Z" fill="#E3E3E3"/>
<path fill-rule="evenodd" clip-rule="evenodd" d="M13.5585 18.2997L13.0091 18.6496L12.8608 18.5564L13.4067 18.2061L13.5585 18.2997Z" fill="white"/>
<path fill-rule="evenodd" clip-rule="evenodd" d="M13.0091 20.0851V18.6498L12.8608 18.5566L12.8612 19.9915L13.0091 20.0851Z" fill="#AFAFAF"/>
<path fill-rule="evenodd" clip-rule="evenodd" d="M13.3951 18.832L13.1733 18.9733V19.5525L13.3951 19.4108V18.832Z" fill="#4D4D4D"/>
<path fill-rule="evenodd" clip-rule="evenodd" d="M12.8174 18.187L12.2739 18.5278V20.9486L12.819 20.6065L12.8174 18.187Z" fill="#E3E3E3"/>
<path fill-rule="evenodd" clip-rule="evenodd" d="M12.8175 18.1872L12.2741 18.528L12.0239 18.3709L12.5614 18.0293L12.8175 18.1872Z" fill="white"/>
<path fill-rule="evenodd" clip-rule="evenodd" d="M12.2741 20.949V18.5281L12.0239 18.3711L12.0243 20.7906L12.2741 20.949Z" fill="#AFAFAF"/>
<path fill-rule="evenodd" clip-rule="evenodd" d="M12.9698 18.6719L12.4204 19.0223V20.4575L12.9706 20.1063L12.9698 18.6719Z" fill="#E3E3E3"/>
<path fill-rule="evenodd" clip-rule="evenodd" d="M12.9695 18.6717L12.4201 19.0221L12.2715 18.929L12.8173 18.5781L12.9695 18.6717Z" fill="white"/>
<path fill-rule="evenodd" clip-rule="evenodd" d="M12.4201 20.4576V19.0224L12.2715 18.9292L12.2719 20.3636L12.4201 20.4576Z" fill="#AFAFAF"/>
<path fill-rule="evenodd" clip-rule="evenodd" d="M12.8058 19.2046L12.584 19.3459V19.9246L12.8062 19.7833L12.8058 19.2046Z" fill="#4D4D4D"/>
<path fill-rule="evenodd" clip-rule="evenodd" d="M12.2285 18.5605L11.6851 18.9013V21.3217L12.2297 20.9801L12.2285 18.5605Z" fill="#E3E3E3"/>
<path fill-rule="evenodd" clip-rule="evenodd" d="M12.2286 18.5603L11.6852 18.901L11.4351 18.7436L11.9721 18.4023L12.2286 18.5603Z" fill="white"/>
<path fill-rule="evenodd" clip-rule="evenodd" d="M11.6852 21.3215V18.9011L11.4351 18.7437L11.4355 21.1632L11.6852 21.3215Z" fill="#AFAFAF"/>
<path fill-rule="evenodd" clip-rule="evenodd" d="M12.3809 19.0454L11.8311 19.3954V20.8306L12.3813 20.4798L12.3809 19.0454Z" fill="#E3E3E3"/>
<path fill-rule="evenodd" clip-rule="evenodd" d="M12.3807 19.0452L11.8309 19.3952L11.6826 19.302L12.2284 18.9512L12.3807 19.0452Z" fill="white"/>
<path fill-rule="evenodd" clip-rule="evenodd" d="M11.8309 20.8307V19.3954L11.6826 19.3022L11.683 20.7366L11.8309 20.8307Z" fill="#AFAFAF"/>
<path fill-rule="evenodd" clip-rule="evenodd" d="M12.2169 19.5776L11.9951 19.7189V20.2981L12.2173 20.1564L12.2169 19.5776Z" fill="#4D4D4D"/>
<path fill-rule="evenodd" clip-rule="evenodd" d="M15.7973 13.376L15.2539 13.7167V16.1372L15.7985 15.7955L15.7973 13.376Z" fill="#E3E3E3"/>
<path fill-rule="evenodd" clip-rule="evenodd" d="M15.7975 13.3757L15.254 13.7165L15.0039 13.559L15.5413 13.2178L15.7975 13.3757Z" fill="white"/>
<path fill-rule="evenodd" clip-rule="evenodd" d="M15.254 16.1374V13.7166L15.0039 13.5591L15.0047 15.979L15.254 16.1374Z" fill="#AFAFAF"/>
<path fill-rule="evenodd" clip-rule="evenodd" d="M15.9498 13.8604L15.4004 14.2103V15.6456L15.9506 15.2948L15.9498 13.8604Z" fill="#E3E3E3"/>
<path fill-rule="evenodd" clip-rule="evenodd" d="M15.9496 13.8607L15.4002 14.2107L15.252 14.1175L15.7974 13.7671L15.9496 13.8607Z" fill="white"/>
<path fill-rule="evenodd" clip-rule="evenodd" d="M15.4002 15.6456V14.2108L15.252 14.1172V15.552L15.4002 15.6456Z" fill="#AFAFAF"/>
<path fill-rule="evenodd" clip-rule="evenodd" d="M15.7857 14.3931L15.564 14.5344V15.1135L15.7861 14.9718L15.7857 14.3931Z" fill="#4D4D4D"/>
<path fill-rule="evenodd" clip-rule="evenodd" d="M15.2085 13.748L14.665 14.0888V16.5097L15.2097 16.168L15.2085 13.748Z" fill="#E3E3E3"/>
<path fill-rule="evenodd" clip-rule="evenodd" d="M15.2086 13.7483L14.6652 14.089L14.415 13.932L14.9521 13.5903L15.2086 13.7483Z" fill="white"/>
<path fill-rule="evenodd" clip-rule="evenodd" d="M14.6652 16.5095V14.0887L14.415 13.9316L14.4154 16.3512L14.6652 16.5095Z" fill="#AFAFAF"/>
<path fill-rule="evenodd" clip-rule="evenodd" d="M15.3609 14.2329L14.811 14.5833V16.0186L15.3613 15.6677L15.3609 14.2329Z" fill="#E3E3E3"/>
<path fill-rule="evenodd" clip-rule="evenodd" d="M15.3607 14.2328L14.8108 14.5832L14.6626 14.49L15.2084 14.1392L15.3607 14.2328Z" fill="white"/>
<path fill-rule="evenodd" clip-rule="evenodd" d="M14.8108 16.0187V14.5834L14.6626 14.4902L14.663 15.9246L14.8108 16.0187Z" fill="#AFAFAF"/>
<path fill-rule="evenodd" clip-rule="evenodd" d="M15.1969 14.7656L14.9751 14.9069V15.4857L15.1973 15.3444L15.1969 14.7656Z" fill="#4D4D4D"/>
<path fill-rule="evenodd" clip-rule="evenodd" d="M14.6195 14.1206L14.0757 14.4614L14.0761 16.8818L14.6207 16.5401L14.6195 14.1206Z" fill="#E3E3E3"/>
<path fill-rule="evenodd" clip-rule="evenodd" d="M14.6197 14.1208L14.0762 14.4616L13.8257 14.3041L14.3631 13.9629L14.6197 14.1208Z" fill="white"/>
<path fill-rule="evenodd" clip-rule="evenodd" d="M14.0762 16.8821V14.4617L13.8257 14.3042L13.8265 16.7237L14.0762 16.8821Z" fill="#AFAFAF"/>
<path fill-rule="evenodd" clip-rule="evenodd" d="M14.7716 14.6055L14.2222 14.9554V16.3907L14.7724 16.0399L14.7716 14.6055Z" fill="#E3E3E3"/>
<path fill-rule="evenodd" clip-rule="evenodd" d="M14.7714 14.6053L14.222 14.9553L14.0737 14.8621L14.6196 14.5117L14.7714 14.6053Z" fill="white"/>
<path fill-rule="evenodd" clip-rule="evenodd" d="M14.222 16.3908V14.9555L14.0737 14.8623L14.0741 16.2967L14.222 16.3908Z" fill="#AFAFAF"/>
<path fill-rule="evenodd" clip-rule="evenodd" d="M14.608 15.1377L14.3862 15.279V15.8582L14.608 15.7164V15.1377Z" fill="#4D4D4D"/>
<path fill-rule="evenodd" clip-rule="evenodd" d="M14.0298 14.4937L13.4863 14.8344V17.2553L14.031 16.9132L14.0298 14.4937Z" fill="#E3E3E3"/>
<path fill-rule="evenodd" clip-rule="evenodd" d="M14.0299 14.4934L13.4865 14.8341L13.2363 14.6767L13.7734 14.3354L14.0299 14.4934Z" fill="white"/>
<path fill-rule="evenodd" clip-rule="evenodd" d="M13.4865 17.2551V14.8342L13.2363 14.6768L13.2367 17.0967L13.4865 17.2551Z" fill="#AFAFAF"/>
<path fill-rule="evenodd" clip-rule="evenodd" d="M14.1821 14.9785L13.6323 15.3289V16.7642L14.1825 16.4129L14.1821 14.9785Z" fill="#E3E3E3"/>
<path fill-rule="evenodd" clip-rule="evenodd" d="M14.182 14.9784L13.6321 15.3288L13.4839 15.2352L14.0297 14.8848L14.182 14.9784Z" fill="white"/>
<path fill-rule="evenodd" clip-rule="evenodd" d="M13.6321 16.7642V15.329L13.4839 15.2354L13.4843 16.6702L13.6321 16.7642Z" fill="#AFAFAF"/>
<path fill-rule="evenodd" clip-rule="evenodd" d="M14.0182 15.5107L13.7964 15.652V16.2312L14.0186 16.0899L14.0182 15.5107Z" fill="#4D4D4D"/>
<path fill-rule="evenodd" clip-rule="evenodd" d="M13.4408 14.8657L12.897 15.2065L12.8974 17.6269L13.442 17.2853L13.4408 14.8657Z" fill="#E3E3E3"/>
<path fill-rule="evenodd" clip-rule="evenodd" d="M13.4409 14.8659L12.8975 15.2063L12.647 15.0492L13.1844 14.708L13.4409 14.8659Z" fill="white"/>
<path fill-rule="evenodd" clip-rule="evenodd" d="M12.8975 17.6267V15.2059L12.647 15.0488L12.6478 17.4684L12.8975 17.6267Z" fill="#AFAFAF"/>
<path fill-rule="evenodd" clip-rule="evenodd" d="M13.5929 15.3506L13.0435 15.7005V17.1358L13.5937 16.785L13.5929 15.3506Z" fill="#E3E3E3"/>
<path fill-rule="evenodd" clip-rule="evenodd" d="M13.5927 15.3504L13.0433 15.7004L12.895 15.6072L13.4409 15.2563L13.5927 15.3504Z" fill="white"/>
<path fill-rule="evenodd" clip-rule="evenodd" d="M13.0433 17.1359V15.7006L12.895 15.6074L12.8954 17.0418L13.0433 17.1359Z" fill="#AFAFAF"/>
<path fill-rule="evenodd" clip-rule="evenodd" d="M13.4293 15.8828L13.2075 16.0241V16.6033L13.4297 16.4616L13.4293 15.8828Z" fill="#4D4D4D"/>
<path fill-rule="evenodd" clip-rule="evenodd" d="M12.8515 15.2378L12.3081 15.5786V17.999L12.8531 17.6573L12.8515 15.2378Z" fill="#E3E3E3"/>
<path fill-rule="evenodd" clip-rule="evenodd" d="M12.8517 15.238L12.3082 15.5788L12.0581 15.4213L12.5955 15.0801L12.8517 15.238Z" fill="white"/>
<path fill-rule="evenodd" clip-rule="evenodd" d="M12.3082 17.9992V15.5784L12.0581 15.4209L12.0589 17.8409L12.3082 17.9992Z" fill="#AFAFAF"/>
<path fill-rule="evenodd" clip-rule="evenodd" d="M13.004 15.7227L12.4546 16.0731V17.5079L13.0048 17.1571L13.004 15.7227Z" fill="#E3E3E3"/>
<path fill-rule="evenodd" clip-rule="evenodd" d="M13.0038 15.7225L12.4544 16.0729L12.3062 15.9793L12.852 15.6289L13.0038 15.7225Z" fill="white"/>
<path fill-rule="evenodd" clip-rule="evenodd" d="M12.4543 17.5079V16.0731L12.3057 15.9795L12.3061 17.4143L12.4543 17.5079Z" fill="#AFAFAF"/>
<path fill-rule="evenodd" clip-rule="evenodd" d="M12.8399 16.2549L12.6182 16.3962V16.9754L12.8403 16.8336L12.8399 16.2549Z" fill="#4D4D4D"/>
<path fill-rule="evenodd" clip-rule="evenodd" d="M12.2627 15.6104L11.7192 15.9511V18.372L12.2639 18.0303L12.2627 15.6104Z" fill="#E3E3E3"/>
<path fill-rule="evenodd" clip-rule="evenodd" d="M12.2628 15.6101L11.7194 15.9508L11.4692 15.7938L12.0063 15.4521L12.2628 15.6101Z" fill="white"/>
<path fill-rule="evenodd" clip-rule="evenodd" d="M11.7194 18.3718V15.951L11.4692 15.7939L11.4696 18.2135L11.7194 18.3718Z" fill="#AFAFAF"/>
<path fill-rule="evenodd" clip-rule="evenodd" d="M12.4151 16.0952L11.8652 16.4456V17.8809L12.4159 17.53L12.4151 16.0952Z" fill="#E3E3E3"/>
<path fill-rule="evenodd" clip-rule="evenodd" d="M12.4149 16.0951L11.865 16.4455L11.7168 16.3523L12.2626 16.0015L12.4149 16.0951Z" fill="white"/>
<path fill-rule="evenodd" clip-rule="evenodd" d="M11.865 17.8805V16.4452L11.7168 16.3521L11.7172 17.7864L11.865 17.8805Z" fill="#AFAFAF"/>
<path fill-rule="evenodd" clip-rule="evenodd" d="M12.2511 16.6279L12.0293 16.7692V17.348L12.2515 17.2067L12.2511 16.6279Z" fill="#4D4D4D"/>
<path fill-rule="evenodd" clip-rule="evenodd" d="M15.4115 18.1064C15.111 18.0579 14.6223 17.7691 14.4549 17.658C14.2395 17.515 14.1612 17.3982 13.9458 17.2551C14.1064 17.1462 14.1328 17.0159 14.4948 17.3054C14.8045 17.4065 16.0504 17.3597 15.9565 17.8186C15.8446 18.0679 15.7831 18.197 15.4115 18.1064Z" fill="#7E7E7E"/>
<path fill-rule="evenodd" clip-rule="evenodd" d="M14.6128 16.6037L14.0294 15.8579C13.892 15.682 13.693 15.8614 13.8097 16.0534L14.3183 16.8955C14.4346 17.088 14.7435 16.7853 14.6128 16.6037Z" fill="#7E7E7E"/>
<path fill-rule="evenodd" clip-rule="evenodd" d="M16.4902 17.8834C16.5865 18.0623 16.2049 18.5825 15.9476 18.3952C15.5236 18.1984 15.1212 17.8405 15.0709 17.792C14.9834 17.7084 14.5235 17.1914 14.376 17.0011C14.1762 16.7434 14.241 16.3965 14.4931 16.4674C14.5063 16.3593 14.6106 16.2351 14.742 16.2662C14.8244 16.1761 14.8611 16.0846 15.0194 16.0719C15.0869 16.0199 15.0641 15.8554 15.2563 15.9201C15.544 15.9508 15.9943 16.5964 16.1917 16.9862C16.294 17.1866 16.2485 17.4346 16.4902 17.8834Z" fill="#7E7E7E"/>
<path fill-rule="evenodd" clip-rule="evenodd" d="M20.0889 20.7507C19.5754 19.7647 17.3933 18.437 16.4231 17.3618C15.9316 17.3294 15.3398 17.8482 15.6219 18.2139C15.8533 18.6405 17.6342 21.1217 19.0959 22.3347C19.7916 22.9664 19.7232 21.4821 20.0889 20.7507Z" fill="#DE7E32"/>
<path fill-rule="evenodd" clip-rule="evenodd" d="M12.774 24.0184C12.9494 24.168 13.4501 23.3513 13.186 23.1125C12.6501 22.8294 12.6797 22.4388 12.4284 22.2835C12.3193 22.2109 11.3207 21.8592 11.0582 21.902C10.8804 21.8587 10.8516 23.217 10.9711 23.3859C11.2424 23.5438 11.9609 23.7336 12.1323 23.7214C12.5407 23.6934 12.3756 23.679 12.774 24.0184Z" fill="#7E7E7E"/>
<path fill-rule="evenodd" clip-rule="evenodd" d="M10.9898 23.0573L10.2813 23.0083C10.1015 22.9956 10.1091 23.2266 10.2865 23.2594L10.9706 23.3858C11.142 23.4173 11.1772 23.0704 10.9898 23.0573Z" fill="#7E7E7E"/>
<path fill-rule="evenodd" clip-rule="evenodd" d="M11.079 22.8565C11.0822 22.7599 11.0126 22.6776 10.9243 22.6741L10.088 22.6413C9.87623 22.633 9.86983 22.8955 10.0804 22.9217L10.9127 23.0258C11.0003 23.0368 11.0758 22.9532 11.079 22.8565Z" fill="#7E7E7E"/>
<path fill-rule="evenodd" clip-rule="evenodd" d="M11.1206 22.4915C11.1198 22.3944 11.0474 22.3069 10.9508 22.3086L10.0317 22.3274C9.80034 22.3318 9.79315 22.6148 10.0241 22.624L10.9388 22.6603C11.0355 22.6638 11.1174 22.5881 11.1206 22.4915Z" fill="#7E7E7E"/>
<path fill-rule="evenodd" clip-rule="evenodd" d="M11.0081 21.8926L10.165 21.911C9.95317 21.9154 9.94878 22.2028 10.1606 22.2111L10.9965 22.2443C11.2139 22.2526 11.2139 21.8882 11.0081 21.8926Z" fill="#7E7E7E"/>
<path fill-rule="evenodd" clip-rule="evenodd" d="M12.643 22.7825C12.6613 22.6302 12.5682 22.3992 12.4024 22.2103C12.237 22.0213 12.0252 21.8393 11.9509 21.768C11.7591 21.5838 11.7495 21.6403 11.5577 21.4565C11.4554 21.5703 11.3571 21.7593 11.7231 22.0532C11.7679 22.1486 11.7291 22.2186 12.0228 22.4084C11.9657 23.132 12.617 23.0799 12.643 22.7825Z" fill="#7E7E7E"/>
<path fill-rule="evenodd" clip-rule="evenodd" d="M16.4916 26.7558C15.6177 26.9177 13.1067 24.6548 12.3583 23.681C12.2604 23.153 12.5889 22.5117 12.9585 22.7667C13.3765 22.9583 16.0521 24.3009 17.1697 24.9995C17.8378 25.6657 17.1022 26.258 16.4916 26.7558Z" fill="#DE7E32"/>
</svg>
