<svg width="51" height="56" viewBox="0 0 51 56" fill="none" xmlns="http://www.w3.org/2000/svg">
<path d="M26.5303 53.9355V55.3632L50.8082 40.018V38.5903L26.5303 53.9355Z" fill="#DEBE97"/>
<path d="M0 37.167V38.5947L26.5301 55.3634V53.9358L0 37.167Z" fill="#CAA58B"/>
<path d="M0 37.1669L26.5301 53.9357L50.8081 38.5905L24.278 21.8218L0 37.1669Z" fill="#EFE1BC"/>
<path opacity="0.5" d="M24.278 21.8218L0 37.1669L12.3547 42.3693L32.5084 29.6307V27.0241L24.278 21.8218Z" fill="black"/>
<path d="M12.3549 14.1446L11.1191 13.3636L31.2729 0.625488L32.5086 1.40647L12.3549 14.1446Z" fill="#C3E022"/>
<path d="M12.3549 42.3695L11.1191 41.5886V13.3638L12.3549 14.1447V42.3695Z" fill="#91AD0B"/>
<path d="M26.7877 22.9688L16.8403 29.2562V30.8187L28.0235 23.7497L26.7877 22.9688Z" fill="#E8E1D2"/>
<path d="M26.7876 8.89081V22.9687L28.0234 23.7497V8.10938L26.7876 8.89081Z" fill="#C9B497"/>
<path d="M12.355 14.1444V42.3687L32.5087 29.6306V1.40625L12.355 14.1444ZM28.0234 23.7496L16.8398 30.8181V15.1782L28.0234 8.10925V23.7496Z" fill="#AFCD15"/>
<path opacity="0.5" d="M34.7549 33.373C34.5948 34.0382 34.8702 34.4114 33.3109 35.3054C31.7516 36.1995 23.3927 41.5298 22.2636 42.2342C21.1344 42.9386 20.6759 43.4812 18.5139 43.4812L18.5172 43.483C17.9425 43.483 17.4329 43.592 17.0657 43.8241C16.0482 44.4672 16.503 45.7975 18.0813 46.7948C19.6595 47.7926 21.7638 48.0796 22.7814 47.4365C23.2886 47.1161 23.4294 46.6249 23.2486 46.0896C22.7189 44.4501 23.0432 43.3784 23.953 42.8223C25.439 41.9143 33.0384 37.0986 34.1655 36.3866C35.2637 35.6926 37.7398 36.6168 39.3773 36.6628C39.4115 36.6642 39.5152 36.6655 39.5214 36.6655C40.0981 36.666 40.6102 36.5569 40.9786 36.3239C41.9962 35.6808 41.5413 34.3505 39.9631 33.3532C38.3848 32.3555 36.2805 32.068 35.2629 32.7115C34.9846 32.8877 34.8204 33.1157 34.7549 33.373Z" fill="black"/>
<path opacity="0.7" d="M28.7453 49.6867L26.9386 48.5447C26.5052 48.2707 25.7481 48.3054 25.248 48.6213L24.8454 48.876C24.3453 49.1923 24.2909 49.6705 24.724 49.9445L26.5307 51.0864C26.9641 51.3604 27.7212 51.3262 28.2213 51.0098L28.6239 50.7552C29.124 50.4393 29.1784 49.9607 28.7453 49.6867Z" fill="black"/>
<path opacity="0.5" d="M33.3572 42.4904L28.1207 45.7999C27.5065 46.1884 27.5835 46.8666 28.2928 47.315L30.6951 48.8333C31.4044 49.2817 32.4775 49.3303 33.0921 48.9419L39.4409 44.9288L35.7542 42.5985C35.045 42.1506 33.9718 42.1019 33.3572 42.4904Z" fill="black"/>
<path d="M23.6789 27.1078C23.4755 26.9302 23.4343 26.7301 23.4504 26.4755C23.4652 26.2448 23.6373 26.0649 23.8122 25.9352C23.9069 25.8649 24.0094 25.7982 24.0707 25.6918C24.1457 25.5616 24.165 25.3335 24.293 25.2691C24.4252 25.2024 24.5363 25.32 24.51 25.4728C24.4552 25.7891 24.3663 25.859 24.3387 25.9401C24.298 26.0613 24.3441 26.2173 24.3074 26.3399C24.2655 26.4809 24.1424 26.64 24.0259 26.7152L23.6789 27.1078Z" fill="#FFCEA1"/>
<path d="M25.334 26.3821C25.5349 26.3046 25.6489 26.1239 25.553 26.0054C25.6683 25.9324 25.7107 25.6701 25.5287 25.6291C25.597 25.4948 25.3546 25.3821 25.2122 25.4164C24.9932 25.4695 24.9767 25.4659 24.9121 25.4822C24.7598 25.5196 24.6124 25.6079 24.5173 25.6629C24.3831 25.7399 24.2703 25.8296 24.1707 25.9544C23.913 26.2771 23.6137 26.5552 23.5664 26.981C23.6734 27.1221 23.8015 27.2523 24.1135 27.2595C24.3424 27.2645 24.4852 27.1424 24.6581 26.9779C24.8297 26.8138 24.8973 26.7661 25.1167 26.6967C25.4122 26.6029 25.4209 26.3952 25.334 26.3821Z" fill="#FFCEA1"/>
<path d="M24.0852 27.1537C24.0737 26.9879 24.0198 26.8239 23.921 26.6819C23.8069 26.5192 23.6526 26.4111 23.4842 26.3624C23.4068 26.3394 23.3266 26.33 23.2467 26.3331C23.0845 26.339 22.9223 26.3989 22.7832 26.5147L20.6805 28.2817C20.3804 28.5323 20.2779 28.9992 20.4409 29.371C20.4652 29.4259 20.494 29.4782 20.5278 29.5264C20.7995 29.9162 21.3083 29.9915 21.6652 29.6936L23.767 27.9266C23.9946 27.7373 24.1046 27.4435 24.0852 27.1537Z" fill="#D9B9AE"/>
<path d="M21.7273 28.4486C22.0126 28.8272 21.964 29.3869 21.6182 29.6992C21.2729 30.0115 20.6583 29.8312 20.373 29.4527L18.3835 26.7005C18.0983 26.3224 18.1468 25.7623 18.4926 25.45C18.838 25.1377 19.3497 25.1908 19.6349 25.5694L21.7273 28.4486Z" fill="#D9B9AE"/>
<path d="M34.7843 20.8799C34.9098 20.9934 35.0568 21.0592 35.2075 21.0782C35.4709 21.1111 35.7434 21.0024 35.925 20.7627L37.5119 18.6699C37.7979 18.2927 37.7498 17.7334 37.4052 17.4211C37.3954 17.4121 37.3851 17.4035 37.3748 17.395C37.3044 17.3368 37.2278 17.2936 37.148 17.2643C37.141 17.2611 37.134 17.2584 37.1266 17.2562C37.0788 17.24 37.0306 17.2287 36.9812 17.2228C36.9541 17.2192 36.9273 17.2174 36.9006 17.2174C36.6639 17.2129 36.4272 17.322 36.2642 17.5378L34.6773 19.6311C34.3924 20.0074 34.4397 20.5667 34.7843 20.8799Z" fill="#D9B9AE"/>
<path opacity="0.5" d="M35.348 20.0895C35.7864 20.4491 35.7777 20.9227 35.6901 20.975C35.5423 21.0633 35.3731 21.0985 35.2076 21.0778C35.057 21.0588 34.91 20.993 34.7844 20.8795C34.5428 20.66 34.4473 20.3198 34.5099 20.0061C34.5527 19.806 34.91 19.7299 35.348 20.0895Z" fill="#1D1D1B"/>
<path d="M36.1824 17.7053C35.9934 18.1496 36.1692 18.6769 36.5751 18.8837C36.9806 19.0906 37.4626 18.8981 37.6515 18.4538L38.9655 15.3641C39.1545 14.9202 38.9787 14.3925 38.5728 14.1857C38.1673 13.9788 37.6853 14.1713 37.4964 14.6156L36.1824 17.7053Z" fill="#D9B9AE"/>
<path opacity="0.5" d="M36.6914 19.753L37.0261 19.3113C37.0261 19.3113 37.2751 15.3109 37.3126 15.1279C36.9717 15.7314 36.7902 16.8904 36.8598 17.7593C36.9269 18.5993 36.7902 19.5628 36.6914 19.753Z" fill="#1D1D1B"/>
<path d="M35.4101 20.4221C35.2862 20.1828 35.1179 20.1102 34.8939 20.0886C34.6906 20.0692 34.5082 20.222 34.3687 20.3851C34.2933 20.4734 34.2197 20.5703 34.118 20.6181C33.9932 20.6767 33.7915 20.6627 33.7162 20.7866C33.638 20.9146 33.724 21.048 33.8611 21.0435C34.1447 21.034 34.2192 20.9516 34.2937 20.9349C34.4053 20.9106 34.5341 20.9818 34.6465 20.9624C34.7758 20.9399 34.9326 20.8353 35.0162 20.7249L35.4101 20.4221Z" fill="#FFCEA1"/>
<path d="M34.5296 22.041C34.4316 22.2389 34.2575 22.3313 34.1686 22.2132C34.0879 22.3227 33.8532 22.3272 33.8446 22.1312C33.7174 22.1825 33.6557 21.9126 33.7071 21.7688C33.7866 21.548 33.7857 21.5304 33.8096 21.4651C33.8652 21.3119 33.964 21.1713 34.0261 21.0802C34.1134 20.9518 34.2085 20.8473 34.3324 20.7621C34.6522 20.5413 34.9396 20.2709 35.3171 20.2857C35.4237 20.4182 35.5183 20.5719 35.4772 20.8986C35.4471 21.1384 35.3191 21.2695 35.1499 21.4245C34.9812 21.5796 34.9293 21.6427 34.8363 21.8608C34.7099 22.1564 34.5275 22.1339 34.5296 22.041Z" fill="#FFCEA1"/>
<path d="M35.2679 34.5668C35.2675 34.5628 35.267 34.5587 35.2666 34.5551C35.2234 34.1554 35.6593 33.6119 36.1735 33.2383C36.3859 33.0842 36.2953 32.716 36.49 32.5033L37.5262 32.4375C37.7369 32.7719 37.9189 33.1464 37.96 33.7201L37.9588 33.7205C37.965 33.8305 37.8999 33.94 37.7649 34.0184L36.3357 34.8485C36.0837 34.9949 35.6832 34.9792 35.4416 34.8133C35.3383 34.7426 35.2806 34.6556 35.2683 34.5677L35.2679 34.5668Z" fill="#432918"/>
<path d="M36.0293 26.9528L38.1966 27.3615L38.2761 26.8554L38.7379 23.9221L39.18 21.1114L37.0127 20.7031L36.0293 26.9528Z" fill="#0258BF"/>
<path d="M36.0301 26.9524C36.0988 26.5229 36.5141 25.8447 36.9106 25.8005C37.2391 25.764 37.5457 25.9745 37.8042 26.1989C37.9878 26.3584 38.1027 27.1264 38.1974 27.3611C38.0372 28.5085 38.0253 29.623 38.1755 32.7316C38.1698 32.9069 38.0582 33.0781 37.8421 33.2034C37.4099 33.4544 36.7241 33.4274 36.3096 33.143C36.1025 33.0011 36.0025 32.8212 36.0082 32.6464C35.9572 32.3936 35.8304 28.2007 36.0301 26.9524Z" fill="#0258BF"/>
<path d="M38.1013 31.0066C38.0996 31.1874 37.9946 31.3654 37.7814 31.501C37.3549 31.7719 36.6679 31.7642 36.2472 31.4834C36.0439 31.3478 35.9434 31.1734 35.9385 30.9985L35.9504 31.4663C35.9558 31.6479 36.0434 31.8255 36.2559 31.9661C36.6798 32.2468 37.3718 32.255 37.8012 31.9837C38.016 31.848 38.1276 31.6768 38.1202 31.4956L38.1013 31.0066Z" fill="#FFC50C"/>
<path d="M37.1456 22.1793C37.218 22.2631 37.8355 23.122 38.7041 23.2892C39.5726 23.4564 40.801 23.1455 40.801 23.1455C40.7681 22.5709 40.8072 21.9877 40.8603 21.4871C40.8969 21.141 40.9492 20.7971 41.0089 20.4546L41.2723 18.9481L41.5543 17.337C41.5543 17.337 41.6667 16.3776 41.5469 16.0333C41.5543 15.9864 41.5074 15.7778 41.3789 15.5754C41.2501 15.3722 41.2052 15.3127 40.9887 15.1635C40.6775 14.8345 40.2943 14.5506 39.9275 14.3023C39.629 14.1004 39.3257 13.995 39.033 13.9711C38.1521 13.899 37.3749 14.5732 37.1616 15.6128C37.1612 15.6133 37.1612 15.6137 37.1612 15.6142C37.1238 15.7976 37.1036 15.9918 37.1036 16.196L36.9805 21.1153C36.9809 21.5849 36.8463 21.8336 37.1456 22.1793Z" fill="#0258BF"/>
<path d="M39.8803 18.7302C39.8828 18.7378 39.8861 18.7446 39.8906 18.7496C39.9791 18.8483 40.2257 18.8839 40.3422 18.9028C40.6661 18.9555 40.9448 18.9686 41.2729 18.9483L41.5549 17.3372C41.5549 17.3372 41.5787 17.0921 41.5796 17.0808C41.6084 16.7428 41.6397 16.1745 41.5479 16.033C41.1737 15.7951 40.9452 15.8447 40.5994 16.2237C40.2532 16.6027 39.8581 18.6554 39.8803 18.7302Z" fill="#D9B9AE"/>
<path d="M37.4813 16.5661C37.4813 16.5661 38.0963 17.1853 39.0398 17.4922C39.1443 16.9663 39.2962 16.3417 39.5584 15.8865C39.8202 15.4313 40.2792 15.0708 40.7695 15.1123C40.844 15.1186 40.9189 15.1348 40.9885 15.1641C40.6773 14.8351 40.294 14.5512 39.9273 14.3029C39.6288 14.101 39.3254 13.9956 39.0328 13.9717C38.8656 14.0361 38.7216 14.1546 38.5594 14.2326C37.3557 14.8099 37.4813 16.5661 37.4813 16.5661Z" fill="#E4C6BB"/>
<path opacity="0.5" d="M37.5942 21.7021L39.2775 18.9896L40.0452 16.0703C39.8048 16.5092 39.5907 17.2672 39.4849 17.6246C39.3577 18.0541 39.2351 18.4705 39.044 18.8707C38.9564 19.0541 38.8728 19.3299 38.767 19.5007C38.2652 20.3082 37.9433 20.7224 37.5942 21.7021Z" fill="#1D1D1B"/>
<path d="M38.9662 18.8063C38.3969 18.6102 37.7959 18.2438 37.2266 17.7067C37.2266 17.5435 37.2266 17.3804 37.2266 17.2168C37.7959 17.754 38.3969 18.1204 38.9662 18.3164C38.9662 18.4795 38.9662 18.6431 38.9662 18.8063Z" fill="#FFC50C"/>
<path opacity="0.2" d="M37.9668 22.9707C38.2368 23.717 38.3377 25.018 38.1965 27.3614L38.7864 23.6115C38.7864 23.6115 38.2961 23.4926 37.9668 22.9707Z" fill="#1D1D1B"/>
<path d="M38.5127 35.4385C38.5123 35.4349 38.5114 35.4313 38.511 35.4282C38.4546 35.0347 38.8683 34.48 39.3648 34.0906C39.5698 33.9302 39.4685 33.5697 39.6542 33.3516L40.6763 33.2461C40.8953 33.5683 41.0875 33.9315 41.1468 34.4971L41.1455 34.4976C41.1554 34.6062 41.0945 34.7166 40.9636 34.7999L39.5776 35.676C39.3331 35.8306 38.9371 35.8306 38.6926 35.676C38.588 35.6102 38.5283 35.5264 38.5131 35.4403C38.5131 35.4394 38.5127 35.4385 38.5127 35.4385Z" fill="#432918"/>
<path d="M38.5091 28.5318V23.1101C38.5091 23.1101 40.7724 22.5247 40.8012 23.1448C40.8485 24.165 40.6806 24.8374 40.667 25.4841C40.6353 26.9852 40.6847 28.0546 40.6847 28.0546C40.6847 29.5607 41.2046 31.6981 41.2606 33.4376C41.261 33.4467 41.2614 33.4557 41.2614 33.4642C41.2614 33.6377 41.1568 33.8112 40.9473 33.9437C40.5283 34.2087 39.849 34.2087 39.4304 33.9437C39.2209 33.8112 39.1163 33.6377 39.1163 33.4642C39.0373 33.2245 38.4573 28.96 38.5091 28.5318Z" fill="#0258BF"/>
<path d="M41.1313 31.9469L41.068 31.4683C41.0873 31.6476 41.0025 31.8387 40.8008 32.0041C40.3974 32.3344 39.6947 32.4259 39.2316 32.2082C39.0081 32.1032 38.8834 31.9446 38.8574 31.7725L38.9212 32.2335C38.9472 32.4169 39.0632 32.5778 39.2946 32.6864C39.7577 32.904 40.4604 32.8126 40.8638 32.4822C41.0655 32.3168 41.154 32.1312 41.1313 31.9469Z" fill="#FFC50C"/>
<path d="M35.8202 16.1377L34.8953 15.5532C34.8298 15.5118 34.771 15.5082 34.7282 15.5361C34.6866 15.5632 34.6606 15.6204 34.6606 15.7015C34.6606 15.8651 34.7656 16.0643 34.8953 16.1463L35.8202 16.7308C35.8849 16.7714 35.9429 16.7754 35.9853 16.7493C36.0281 16.7227 36.0545 16.665 36.0545 16.5825C36.0549 16.4189 35.9499 16.2197 35.8202 16.1377ZM34.9793 16.0088C34.9327 16.0381 34.8574 15.9908 34.8109 15.9025C34.7644 15.8146 34.7644 15.7191 34.8109 15.6898C34.8574 15.6605 34.9327 15.7078 34.9793 15.7961C35.0258 15.8845 35.0258 15.9796 34.9793 16.0088ZM35.3259 16.2283C35.2793 16.2576 35.204 16.2103 35.1575 16.122C35.111 16.0341 35.111 15.9385 35.1575 15.9092C35.204 15.88 35.2793 15.9273 35.3259 16.0156C35.3724 16.1035 35.3724 16.1986 35.3259 16.2283ZM35.9042 16.5938C35.8577 16.6231 35.7824 16.5758 35.7359 16.4874C35.6893 16.3996 35.6893 16.304 35.7359 16.2747C35.7824 16.2454 35.8577 16.2928 35.9042 16.3811C35.9507 16.469 35.9507 16.5645 35.9042 16.5938Z" fill="#404040"/>
<path d="M35.2049 16.0924C35.1666 16.0199 35.16 15.9423 35.1847 15.9009C35.1752 15.9013 35.1662 15.904 35.1579 15.9094C35.1114 15.9387 35.1114 16.0343 35.1579 16.1221C35.2044 16.21 35.2798 16.2578 35.3263 16.2285C35.3345 16.2235 35.3411 16.2159 35.3465 16.2073C35.3008 16.21 35.2431 16.165 35.2049 16.0924Z" fill="#303030"/>
<path d="M34.8577 15.8737C34.8194 15.8011 34.8128 15.7236 34.8375 15.6821C34.8281 15.6826 34.819 15.6853 34.8108 15.6907C34.7642 15.72 34.7642 15.8151 34.8108 15.9034C34.8573 15.9913 34.9326 16.039 34.9791 16.0097C34.9874 16.0048 34.9939 15.9971 34.9993 15.9886C34.954 15.9913 34.896 15.9462 34.8577 15.8737Z" fill="#303030"/>
<path d="M35.783 16.4581C35.7447 16.3856 35.7381 16.3081 35.7628 16.2666C35.7533 16.2671 35.7443 16.2698 35.7361 16.2752C35.6895 16.3045 35.6895 16.3995 35.7361 16.4879C35.7826 16.5757 35.8579 16.6235 35.9044 16.5942C35.9127 16.5893 35.9192 16.5821 35.9246 16.573C35.8789 16.5757 35.8213 16.5307 35.783 16.4581Z" fill="#C4B297"/>
<path d="M35.867 16.1083L34.9421 15.5238C34.8775 15.4828 34.819 15.4792 34.7766 15.5058C34.7338 15.5323 34.728 15.5364 34.728 15.5364C34.7704 15.5089 34.8297 15.5121 34.8952 15.5535L35.8201 16.138C35.9498 16.22 36.0548 16.4188 36.0548 16.5828C36.0548 16.6648 36.0284 16.7221 35.986 16.7491C35.9877 16.7478 35.9963 16.7423 36.0325 16.7198C36.0753 16.6932 36.1017 16.6355 36.1017 16.5535C36.1017 16.3895 35.9967 16.1903 35.867 16.1083Z" fill="#666666"/>
<path d="M35.8202 26.3418L34.8953 25.7573C34.8298 25.7159 34.771 25.7123 34.7282 25.7402C34.6866 25.7673 34.6606 25.8245 34.6606 25.9056C34.6606 26.0692 34.7656 26.2684 34.8953 26.3504L35.8202 26.9349C35.8849 26.9755 35.9429 26.9795 35.9853 26.9534C36.0281 26.9268 36.0545 26.8691 36.0545 26.7866C36.0549 26.623 35.9499 26.4239 35.8202 26.3418ZM34.9793 26.2134C34.9327 26.2427 34.8574 26.1954 34.8109 26.107C34.7644 26.0192 34.7644 25.9236 34.8109 25.8943C34.8574 25.865 34.9327 25.9124 34.9793 26.0007C35.0258 26.0886 35.0258 26.1841 34.9793 26.2134ZM35.3259 26.4324C35.2793 26.4617 35.204 26.4144 35.1575 26.3261C35.111 26.2382 35.111 26.1426 35.1575 26.1134C35.204 26.0841 35.2793 26.1314 35.3259 26.2197C35.3724 26.3076 35.3724 26.4031 35.3259 26.4324ZM35.9042 26.7979C35.8577 26.8272 35.7824 26.7794 35.7359 26.6915C35.6893 26.6032 35.6893 26.5081 35.7359 26.4788C35.7824 26.4495 35.8577 26.4973 35.9042 26.5852C35.9507 26.6735 35.9507 26.7686 35.9042 26.7979Z" fill="#404040"/>
<path d="M35.2049 26.296C35.1666 26.2235 35.16 26.146 35.1847 26.1045C35.1752 26.1049 35.1662 26.1077 35.1579 26.1131C35.1114 26.1424 35.1114 26.2374 35.1579 26.3258C35.2044 26.4136 35.2798 26.4614 35.3263 26.4321C35.3345 26.4272 35.3411 26.42 35.3465 26.4109C35.3008 26.4136 35.2431 26.3686 35.2049 26.296Z" fill="#303030"/>
<path d="M34.8577 26.0773C34.8194 26.0047 34.8128 25.9272 34.8375 25.8857C34.8281 25.8862 34.819 25.8889 34.8108 25.8943C34.7642 25.9236 34.7642 26.0187 34.8108 26.107C34.8573 26.1949 34.9326 26.2427 34.9791 26.2134C34.9874 26.2084 34.9939 26.2007 34.9993 26.1922C34.954 26.1949 34.896 26.1498 34.8577 26.0773Z" fill="#303030"/>
<path d="M35.783 26.6617C35.7447 26.5892 35.7381 26.5117 35.7628 26.4702C35.7533 26.4707 35.7443 26.4734 35.7361 26.4788C35.6895 26.5081 35.6895 26.6036 35.7361 26.6915C35.7826 26.7794 35.8579 26.8271 35.9044 26.7978C35.9127 26.7924 35.9192 26.7852 35.9246 26.7767C35.8789 26.7794 35.8213 26.7347 35.783 26.6617Z" fill="#C4B297"/>
<path d="M35.867 26.3124L34.9421 25.7279C34.8775 25.6869 34.819 25.6833 34.7766 25.7099C34.7338 25.7364 34.728 25.7405 34.728 25.7405C34.7704 25.713 34.8297 25.7162 34.8952 25.7576L35.8201 26.3421C35.9498 26.4241 36.0548 26.6229 36.0548 26.7869C36.0548 26.8689 36.0284 26.9266 35.986 26.9532C35.9877 26.9519 35.9963 26.9465 36.0325 26.9239C36.0753 26.8973 36.1017 26.8396 36.1017 26.7572C36.1017 26.5931 35.9967 26.3939 35.867 26.3124Z" fill="#666666"/>
<path d="M35.2998 14.7557V28.3433L35.6081 28.5385V14.561L35.2998 14.7557Z" fill="#C9C9C9"/>
<path d="M35.2999 28.3433L25.7402 34.3856V34.7754L35.6082 28.5384L35.2999 28.3433Z" fill="#F7F7F7"/>
<path d="M25.7402 27.0458L35.2999 21.0034L35.6082 21.1985L25.7402 27.4356V27.0458Z" fill="#F7F7F7"/>
<path d="M25.1855 20.4475V35.8278L36.1629 28.8896V13.5093L25.1855 20.4475ZM25.7404 20.7981L35.6084 14.5611V28.5385L25.7404 34.7755V20.7981Z" fill="#E3E3E3"/>
<path d="M35.4773 13.0757L36.1631 13.5088L25.1854 20.4475L24.5 20.0139L35.4773 13.0757Z" fill="#F7F7F7"/>
<path d="M25.1854 20.4472V35.8271L24.5 35.394V20.0137L25.1854 20.4472Z" fill="#C9C9C9"/>
<path opacity="0.6" d="M25.7405 20.7977L35.4849 14.6387V21.1204L25.7393 27.2804L25.7405 20.7977Z" fill="#3586C4"/>
<path opacity="0.6" d="M35.4847 21.9775V28.4602L25.7402 34.6192V28.1366L35.4847 21.9775Z" fill="#3586C4"/>
<path d="M25.7402 27.4358L35.6082 21.1987V21.8999L25.7402 28.137V27.4358Z" fill="#E3E3E3"/>
<path d="M24.7958 23.1055L23.8709 22.521C23.8054 22.4796 23.7466 22.4759 23.7037 22.5039C23.6622 22.5309 23.6362 22.5882 23.6362 22.6693C23.6362 22.8329 23.7412 23.0321 23.8709 23.1141L24.7958 23.6986C24.8605 23.7391 24.9185 23.7432 24.9609 23.717C25.0037 23.6905 25.0301 23.6328 25.0301 23.5503C25.0301 23.3867 24.9251 23.1875 24.7958 23.1055ZM23.9548 22.9771C23.9083 23.0064 23.833 22.959 23.7865 22.8707C23.74 22.7828 23.74 22.6873 23.7865 22.658C23.833 22.6287 23.9083 22.676 23.9548 22.7644C24.0009 22.8522 24.0009 22.9473 23.9548 22.9771ZM24.3014 23.1961C24.2549 23.2254 24.1796 23.1781 24.1331 23.0897C24.0866 23.0019 24.0866 22.9063 24.1331 22.877C24.1796 22.8477 24.2549 22.8951 24.3014 22.9834C24.348 23.0717 24.348 23.1668 24.3014 23.1961ZM24.8798 23.5616C24.8333 23.5909 24.758 23.5435 24.7114 23.4552C24.6649 23.3673 24.6649 23.2718 24.7114 23.2425C24.758 23.2132 24.8333 23.261 24.8798 23.3489C24.9263 23.4372 24.9263 23.5323 24.8798 23.5616Z" fill="#404040"/>
<path d="M24.18 23.0602C24.1417 22.9876 24.1351 22.9101 24.1598 22.8687C24.1503 22.8691 24.1413 22.8718 24.133 22.8772C24.0865 22.9065 24.0865 23.0016 24.133 23.0899C24.1795 23.1778 24.2549 23.2256 24.3014 23.1963C24.3096 23.1913 24.3162 23.1837 24.3216 23.1751C24.2763 23.1778 24.2182 23.1327 24.18 23.0602Z" fill="#303030"/>
<path d="M23.8333 22.8414C23.795 22.7689 23.7884 22.6914 23.8131 22.6499C23.8036 22.6504 23.7946 22.6531 23.7864 22.6585C23.7398 22.6878 23.7398 22.7829 23.7864 22.8712C23.8329 22.9591 23.9082 23.0068 23.9547 22.9775C23.9629 22.9726 23.9695 22.9649 23.9749 22.9563C23.9296 22.9591 23.8716 22.914 23.8333 22.8414Z" fill="#303030"/>
<path d="M24.7586 23.4259C24.7203 23.3533 24.7137 23.2758 24.7384 23.2344C24.7289 23.2348 24.7199 23.2375 24.7116 23.2429C24.6651 23.2722 24.6651 23.3673 24.7116 23.4556C24.7582 23.544 24.8335 23.5913 24.88 23.562C24.8882 23.557 24.8948 23.5494 24.9002 23.5408C24.8549 23.5435 24.7969 23.4985 24.7586 23.4259Z" fill="#303030"/>
<path d="M24.8426 23.0765L23.9177 22.492C23.853 22.451 23.7946 22.4474 23.7522 22.474C23.7098 22.5006 23.7036 22.5047 23.7036 22.5047C23.746 22.4767 23.8053 22.4803 23.8707 22.5218L24.7957 23.1063C24.9254 23.1883 25.0303 23.387 25.0303 23.5511C25.0303 23.6331 25.004 23.6908 24.9616 23.7174C24.9632 23.716 24.9719 23.7106 25.0081 23.6881C25.0509 23.6615 25.0773 23.6038 25.0773 23.5218C25.0769 23.3573 24.9719 23.1581 24.8426 23.0765Z" fill="#666666"/>
<path d="M24.8092 23.6065C24.7627 23.6358 24.6874 23.5881 24.6408 23.5002C24.5943 23.4123 24.5943 23.3168 24.6408 23.2875C24.6874 23.2582 24.7627 23.3055 24.8092 23.3938C24.8557 23.4817 24.8557 23.5772 24.8092 23.6065Z" fill="#303030"/>
<path d="M24.8794 23.3493C24.8329 23.2615 24.7575 23.2137 24.711 23.243C24.6645 23.2723 24.6406 23.2876 24.6406 23.2876C24.6871 23.2583 24.7625 23.3056 24.809 23.394C24.8555 23.4818 24.8555 23.5774 24.809 23.6067C24.809 23.6067 24.8329 23.5913 24.8794 23.5621C24.9259 23.5328 24.9259 23.4377 24.8794 23.3493Z" fill="#666666"/>
<path d="M24.7958 33.3101L23.8709 32.7256C23.8054 32.6841 23.7466 32.6805 23.7037 32.7085C23.6622 32.7355 23.6362 32.7928 23.6362 32.8739C23.6362 33.0375 23.7412 33.2366 23.8709 33.3187L24.7958 33.9032C24.8605 33.9437 24.9185 33.9478 24.9609 33.9216C25.0037 33.895 25.0301 33.8374 25.0301 33.7549C25.0301 33.5908 24.9251 33.3917 24.7958 33.3101ZM23.9548 33.1812C23.9083 33.2105 23.833 33.1632 23.7865 33.0749C23.74 32.987 23.74 32.8914 23.7865 32.8622C23.833 32.8329 23.9083 32.8802 23.9548 32.9685C24.0009 33.0564 24.0009 33.1519 23.9548 33.1812ZM24.3014 33.4002C24.2549 33.4295 24.1796 33.3822 24.1331 33.2939C24.0866 33.206 24.0866 33.1105 24.1331 33.0812C24.1796 33.0519 24.2549 33.0996 24.3014 33.1875C24.348 33.2758 24.348 33.3709 24.3014 33.4002ZM24.8798 33.7657C24.8333 33.795 24.758 33.7477 24.7114 33.6594C24.6649 33.5715 24.6649 33.4759 24.7114 33.4466C24.758 33.4174 24.8333 33.4647 24.8798 33.553C24.9263 33.6413 24.9263 33.7364 24.8798 33.7657Z" fill="#404040"/>
<path d="M24.18 33.2638C24.1417 33.1912 24.1351 33.1137 24.1598 33.0723C24.1503 33.0727 24.1413 33.0754 24.133 33.0808C24.0865 33.1101 24.0865 33.2052 24.133 33.2935C24.1795 33.3819 24.2549 33.4292 24.3014 33.3999C24.3096 33.3949 24.3162 33.3877 24.3216 33.3787C24.2763 33.3814 24.2182 33.3368 24.18 33.2638Z" fill="#303030"/>
<path d="M23.8333 33.045C23.795 32.9725 23.7884 32.895 23.8131 32.8535C23.8036 32.854 23.7946 32.8567 23.7864 32.8621C23.7398 32.8914 23.7398 32.9865 23.7864 33.0748C23.8329 33.1627 23.9082 33.2104 23.9547 33.1811C23.9629 33.1757 23.9695 33.1685 23.9749 33.16C23.9296 33.1627 23.8716 33.1176 23.8333 33.045Z" fill="#303030"/>
<path d="M24.7586 33.63C24.7203 33.5575 24.7137 33.4799 24.7384 33.4385C24.7289 33.4389 24.7199 33.4416 24.7116 33.447C24.6651 33.4763 24.6651 33.5714 24.7116 33.6597C24.7582 33.7476 24.8335 33.7954 24.88 33.7661C24.8882 33.7607 24.8948 33.7535 24.9002 33.7449C24.8549 33.7476 24.7969 33.7026 24.7586 33.63Z" fill="#303030"/>
<path d="M24.8426 33.2802L23.9177 32.6957C23.853 32.6547 23.7946 32.651 23.7522 32.6776C23.7098 32.7042 23.7036 32.7083 23.7036 32.7083C23.746 32.6803 23.8053 32.6839 23.8707 32.7254L24.7957 33.3099C24.9254 33.3919 25.0303 33.5907 25.0303 33.7547C25.0303 33.8367 25.004 33.8944 24.9616 33.921C24.9632 33.9196 24.9719 33.9142 25.0081 33.8917C25.0509 33.8651 25.0773 33.8074 25.0773 33.7249C25.0769 33.5609 24.9719 33.3622 24.8426 33.2802Z" fill="#666666"/>
<path d="M24.8092 33.8106C24.7627 33.8399 24.6874 33.7926 24.6408 33.7043C24.5943 33.6164 24.5943 33.5209 24.6408 33.4916C24.6874 33.4623 24.7627 33.5096 24.8092 33.5979C24.8557 33.6863 24.8557 33.7813 24.8092 33.8106Z" fill="#3B3B3B"/>
<path d="M24.8794 33.553C24.8329 33.4651 24.7575 33.4173 24.711 33.4466C24.6645 33.4759 24.6406 33.4912 24.6406 33.4912C24.6871 33.4619 24.7625 33.5092 24.809 33.5976C24.8555 33.6855 24.8555 33.781 24.809 33.8103C24.809 33.8103 24.8329 33.795 24.8794 33.7657C24.9259 33.7364 24.9259 33.6413 24.8794 33.553Z" fill="#666666"/>
<path d="M20.0698 44.3433C20.0698 43.8494 19.5384 43.5767 18.7493 43.8052L17.947 43.6038C17.6819 43.5371 17.4287 43.7579 17.4287 44.0558V45.2135L17.4361 45.2112C17.4254 45.3207 17.4802 45.4316 17.6123 45.5154C17.8572 45.67 18.2536 45.67 18.4986 45.5154L19.8866 44.638C20.0143 44.5573 20.0719 44.451 20.0661 44.3451L20.0698 44.3433Z" fill="black"/>
<path d="M17.9946 38.6635L20.1726 38.6955L20.1734 38.6428L20.2072 35.897L20.25 32.4148L18.0724 32.3823C18.0724 32.3823 17.8316 33.2751 17.8291 34.3913C17.8267 35.5076 18.0292 36.1705 18.0012 38.1543L17.9946 38.6635Z" fill="#0258BF"/>
<path d="M20.172 38.6438C20.1259 38.2148 19.8402 37.4829 19.457 37.3788C19.1396 37.2923 18.8119 37.4509 18.5295 37.6312C18.3291 37.7592 18.1171 38.4482 17.994 38.6636C17.9738 39.7019 17.6869 41.7506 17.3238 43.9777C17.3069 44.1503 17.3942 44.3355 17.5898 44.4919C17.9808 44.8046 18.6571 44.884 19.1001 44.6695C19.3215 44.5622 19.4426 44.4018 19.4599 44.2292C19.5426 43.9899 20.2181 39.0728 20.172 38.6438Z" fill="#0258BF"/>
<path d="M17.5527 42.5311L17.6223 42.0669C17.6034 42.2408 17.6725 42.4229 17.8685 42.5829C18.2604 42.9033 18.942 42.9921 19.3916 42.7812C19.6085 42.6793 19.7242 42.5252 19.7493 42.358L19.6867 42.8055C19.6616 42.9835 19.5554 43.1395 19.3306 43.2449C18.8811 43.4558 18.1994 43.367 17.8076 43.0466C17.6116 42.8866 17.5256 42.7095 17.5527 42.5311Z" fill="#FFC50C"/>
<path opacity="0.2" d="M19.1587 35.4888C19.7589 36.3162 19.9651 37.4802 20.1734 38.6433L20.2071 35.8975C19.8288 35.8971 19.451 35.7524 19.1587 35.4888Z" fill="#1D1D1B"/>
<path d="M22.9315 46.2794C22.9628 45.7868 22.4918 45.4272 21.594 45.6953L20.9169 45.442C20.5781 45.3569 20.2554 45.6385 20.2554 46.0189V47.0157L20.2628 47.0135C20.2521 47.123 20.3068 47.2338 20.439 47.3172C20.6835 47.4718 21.0354 47.4632 21.2894 47.328L22.7298 46.5588C22.8623 46.488 22.9265 46.3862 22.9274 46.2803L22.9315 46.2794Z" fill="black"/>
<path d="M21.9115 33.5058L19.7466 33.7676L20.3766 40.0111L22.5415 39.7493L21.9115 33.5058Z" fill="#0258BF"/>
<path d="M22.5405 39.7961C22.4631 39.3725 22.1425 39.0498 21.753 38.9795C21.4303 38.9214 21.1154 39.1084 20.8474 39.3134C20.6572 39.459 20.4782 39.7817 20.3716 40.007C20.4502 41.226 20.2547 43.8849 20.1406 45.8488C20.1509 46.0223 20.2658 46.1881 20.4831 46.3053C20.9174 46.5401 21.5962 46.4914 21.9988 46.1967C22.2001 46.0493 22.2944 45.8686 22.2841 45.6951C22.3487 45.4495 22.6183 40.2197 22.5405 39.7961Z" fill="#0258BF"/>
<path d="M20.2605 43.8824C20.2621 44.0631 20.3506 44.2411 20.5639 44.3767C20.9903 44.648 21.6778 44.6399 22.0989 44.3592C22.3022 44.2235 22.4014 44.0676 22.4121 43.877L22.3858 44.3488C22.3747 44.5363 22.3031 44.7016 22.0906 44.8422C21.6662 45.123 20.9739 45.1311 20.5445 44.8598C20.3296 44.7242 20.2234 44.5529 20.2308 44.3713L20.2605 43.8824Z" fill="#FFC50C"/>
<path d="M17.9689 33.0491C17.829 34.1955 21.8269 35.4123 21.9672 34.059C22.0191 33.561 22.5197 27.3041 22.5197 27.3041C22.3328 26.7512 21.9779 26.2942 20.6775 25.6615C19.9547 25.31 19.6176 25.2532 19.0886 25.278C18.1282 25.3222 18.0253 26.5038 18.0023 27.8418C18.001 27.908 17.9969 27.977 17.9944 28.0477C17.992 28.1158 17.9895 28.1861 17.987 28.2577C17.95 29.2893 18.2472 30.5899 17.9689 33.0491Z" fill="#0258BF"/>
<path d="M21.3923 26.7663C20.6983 27.1723 20.8156 28.1146 20.8099 28.9583C20.8041 29.8019 21.3582 29.7987 21.9773 29.5811C22.109 29.536 22.2288 29.5112 22.3428 29.4941C22.4412 28.2832 22.5203 27.3044 22.5203 27.3044C22.463 27.1354 22.3939 26.9808 22.2831 26.8217C22.051 26.6491 21.7459 26.559 21.3923 26.7663Z" fill="#D9B9AE"/>
<path d="M21.9091 26.4161C21.6165 26.1646 21.246 25.9379 20.6775 25.6617C20.2547 25.4562 19.9654 25.3584 19.6908 25.3115C19.6356 25.3431 19.5813 25.376 19.5237 25.4017C18.9642 25.65 18.7218 26.1669 18.6255 26.6838C18.5785 26.9361 18.6971 27.1912 18.9004 27.3196L19.2985 27.5711C19.6912 27.8194 20.2185 27.6842 20.47 27.271L20.6075 27.0447C20.8907 26.5819 21.2834 26.3241 21.7898 26.3827C21.8268 26.3877 21.8684 26.4026 21.9091 26.4161Z" fill="#E4C6BB"/>
<path d="M19.7999 23.6334C19.8127 23.8961 19.8263 24.1602 19.8802 24.4162C19.9341 24.6721 20.0317 24.9227 20.1947 25.116C20.3783 25.3332 20.6418 25.4635 20.9106 25.4802C20.995 25.486 21.0798 25.4802 21.1633 25.4621C21.2461 25.4441 21.3284 25.4144 21.3967 25.3594C21.5033 25.2742 21.5638 25.1404 21.6071 25.0016V25.0007C21.6169 24.9696 21.6256 24.9389 21.6338 24.9078C21.8232 24.1949 21.8528 23.4401 21.81 22.6987C21.8034 22.5892 21.7956 22.4775 21.7639 22.3729C21.6709 22.0633 21.3811 21.8587 21.0851 21.8186C20.7895 21.7785 20.4911 21.8767 20.2215 22.016C20.1474 22.0543 20.0737 22.0967 20.0144 22.1589C19.9584 22.2183 19.9181 22.2927 19.8662 22.3571C19.8024 22.4356 19.7802 23.2391 19.7999 23.6334Z" fill="#FFCEA1"/>
<path opacity="0.5" d="M20.8594 24.8614C20.859 25.0196 20.8627 25.1782 20.8664 25.3364C20.8672 25.3707 20.8681 25.4058 20.8808 25.4369C20.8878 25.4536 20.8981 25.4684 20.9105 25.4802C20.9948 25.486 21.0796 25.4802 21.1632 25.4621C21.2459 25.4441 21.3283 25.4144 21.3966 25.3594C21.5032 25.2742 21.5637 25.1404 21.607 25.0016V25.0007C21.3287 25.2949 21.15 25.0439 21.085 24.2075C21.0372 24.5996 20.8598 24.4657 20.8594 24.8614Z" fill="#1D1D1B"/>
<path d="M19.4067 23.4976V25.8752C19.4067 26.0108 19.4887 26.1465 19.6525 26.2501C19.9802 26.4574 20.5112 26.4574 20.8389 26.2501C21.0027 26.1465 21.0846 26.0108 21.0846 25.8752V23.4976H19.4067Z" fill="#FFCEA1"/>
<path d="M19.4078 25.4165C19.3996 25.503 19.4198 25.5679 19.4778 25.6279C19.7067 25.8626 20.176 26.0276 20.9132 25.8284C21.1232 25.7716 21.2047 25.9429 21.2627 26.1348C20.6909 26.448 20.192 26.4489 19.8088 26.343C19.4803 26.2525 19.2621 25.9807 19.2708 25.8189C19.2843 25.6855 19.2765 25.5251 19.4078 25.4165Z" fill="#D9B9AE"/>
<path d="M21.4634 22.9394C21.2164 23.0962 21.1048 23.391 21.0789 23.7019C21.053 24.0133 21.0949 24.3279 21.0694 24.6393C21.0439 24.9507 20.9328 25.2801 20.687 25.4387C20.5149 25.55 20.305 25.5609 20.1049 25.5577C19.8431 25.5541 19.3829 25.4185 19.2537 25.1661C18.0027 21.9056 19.8645 21.5388 20.3437 21.5036C21.1851 21.4423 22.2089 21.9994 21.8112 22.7236C21.7503 22.8349 21.5482 22.8853 21.4634 22.9394Z" fill="#2F2F2F"/>
<path d="M21.0142 23.4976C21.1068 23.5003 21.1739 23.5927 21.2019 23.6815C21.2365 23.7928 21.2344 23.9109 21.2319 24.0262C21.2286 24.1736 21.2241 24.3259 21.1578 24.4557C21.1401 24.4904 21.1159 24.5246 21.08 24.5395C21.0257 24.5616 20.9603 24.531 20.9236 24.4836C20.887 24.4363 20.8734 24.3759 20.8623 24.3173C20.831 24.1483 20.817 23.9766 20.8203 23.8054C20.8215 23.7369 20.8261 23.6666 20.8557 23.6058C20.8857 23.5454 20.9458 23.4958 21.0142 23.4976Z" fill="#FFCEA1"/>
<path d="M20.9764 27.813L21.0649 28.3493L21.5313 31.1722C21.5511 31.2912 21.5914 31.4007 21.6478 31.4957C21.7952 31.745 22.0508 31.9022 22.3287 31.9022C22.3768 31.9022 22.4258 31.8973 22.4744 31.8878C22.7098 31.8414 22.9033 31.6873 23.0202 31.4804C23.1219 31.3006 23.1655 31.0802 23.1285 30.8558L23.105 30.7139L23.0741 30.5282L22.7094 28.3214L22.5732 27.4967C22.5024 27.0676 22.1607 26.7666 21.7754 26.7666C21.7277 26.7666 21.6791 26.7711 21.6305 26.7806C21.1892 26.868 20.897 27.3304 20.9764 27.813Z" fill="#E4C6BB"/>
<path d="M25.3735 32.7745C25.5216 32.8038 25.8028 32.834 25.937 32.7272C25.9835 32.6902 26.0119 32.6402 25.9987 32.5906C25.9831 32.5302 25.9037 32.505 25.8518 32.4987C25.7513 32.4861 25.6509 32.4734 25.5505 32.4613C25.4393 32.4473 25.2578 32.4915 25.0977 32.4766C25.1586 32.624 25.2384 32.7479 25.3735 32.7745Z" fill="#FFCEA1"/>
<path d="M25.2752 33.9081C25.4049 34.0933 25.5914 34.0892 25.633 33.9563C25.7219 34.105 25.9684 34.0401 25.9479 33.8378C26.0812 33.9193 26.2146 33.7463 26.1352 33.5768C26.0557 33.4069 25.9606 33.2528 25.9265 33.1902C25.8466 33.0433 25.7247 32.9171 25.6474 32.8351C25.5391 32.7192 25.4259 32.6296 25.2868 32.5642C24.9418 32.4024 24.6203 32.1884 24.2556 32.2438C24.2259 32.2483 24.1988 32.2686 24.1836 32.297C24.123 32.4101 24.0778 32.5394 24.1 32.7323C24.13 32.9914 24.2823 33.2154 24.4878 33.3484C24.7323 33.5065 24.8479 33.63 24.9891 33.8558C25.1291 34.0793 25.2909 34.0027 25.2752 33.9081Z" fill="#FFCEA1"/>
<path d="M21.8639 31.7779L23.7603 33.247C24.1275 33.5287 24.3716 33.5904 24.6071 33.3448C24.6071 33.3448 25.5477 32.4111 24.8528 31.9122L22.7963 30.3241C22.5377 30.1254 22.2097 30.1145 21.9483 30.2669C21.8392 30.3304 21.7416 30.4228 21.6655 30.5413C21.4078 30.9419 21.4967 31.4963 21.8639 31.7779Z" fill="#E4C6BB"/>
<path d="M22.254 21.2243C22.0074 21.0828 21.7242 20.9593 21.378 21.0364C21.0318 21.1139 21.0434 21.1486 20.2456 21.5524L21.2039 23.3424L22.606 22.5939C23.037 22.3573 22.8085 21.5429 22.254 21.2243Z" fill="#186FD9"/>
<path d="M21.633 23.0855C21.4074 23.2914 21.116 23.4536 20.8019 23.5595C20.2227 23.7547 19.6756 23.743 19.2158 23.4672C18.5778 23.0846 18.6856 22.6181 18.828 22.0688C18.9943 21.4293 19.4838 20.9435 19.9642 20.8809C20.5462 20.8052 21.1588 20.8646 21.4543 21.386C21.8507 22.0855 21.9771 22.4663 21.8602 22.7506C21.7993 22.8998 21.7079 23.007 21.633 23.0855Z" fill="#0258BF"/>
<path opacity="0.1" d="M21.3104 21.8765C21.4183 22.3199 21.4475 22.6381 21.4051 22.8832C21.3565 23.1662 21.2059 23.3537 20.8613 23.5389C21.1528 23.433 21.422 23.2784 21.6332 23.0856C21.7048 23.0103 21.7916 22.9085 21.853 22.7688C21.6727 22.8927 21.5142 22.4565 21.3104 21.8765Z" fill="black"/>
<path d="M38.8146 20.226C38.9011 20.3544 39.0213 20.4617 39.1687 20.5302C39.246 20.5658 39.3251 20.5892 39.4037 20.5996C39.691 20.6383 39.9722 20.5135 40.1319 20.2701C40.1344 20.267 40.1364 20.2634 40.1385 20.2598C40.1653 20.2174 40.1887 20.1724 40.2076 20.1232L41.5508 16.6924C41.7126 16.2765 41.5097 15.783 41.098 15.591C41.0206 15.5554 40.9416 15.532 40.8634 15.5216C40.5226 15.4757 40.1916 15.6595 40.0603 15.998L38.7171 19.4288C38.6121 19.6965 38.6586 19.9952 38.8146 20.226Z" fill="#E4C6BB"/>
<path d="M36.6241 22.7997C36.5343 22.8772 36.4405 22.9547 36.331 22.9903C36.2528 23.0156 36.17 23.0183 36.0885 23.021C35.8782 23.0273 35.6682 23.0336 35.4579 23.0399C35.3941 23.0417 35.3298 23.044 35.2665 23.0359C35.122 23.0183 34.9832 22.9484 34.8766 22.8403C34.8445 22.8078 34.8136 22.7668 34.8145 22.719C34.8149 22.6947 34.8239 22.6713 34.8363 22.651C34.8964 22.5528 35.0174 22.5338 35.1216 22.5027C35.315 22.445 35.485 22.3175 35.639 22.1765C35.7929 22.0354 35.9346 21.8786 36.0955 21.7479C35.9872 21.8556 35.8687 21.9588 35.7287 22.0052C35.5884 22.0516 35.4212 22.03 35.3191 21.9151C35.3097 21.9043 35.3002 21.8916 35.2982 21.8768C35.2965 21.8646 35.3002 21.8524 35.3043 21.8407C35.3344 21.756 35.3986 21.687 35.4768 21.656C35.5353 21.6325 35.5995 21.6303 35.6579 21.6064C35.7304 21.5771 35.7884 21.5181 35.8489 21.4658C36.1017 21.249 36.431 21.1413 36.7513 21.1715C36.8126 21.1774 36.8735 21.1877 36.9311 21.2112C37.0686 21.2666 37.1736 21.3892 37.2617 21.5172C37.2815 21.546 37.3012 21.5762 37.3103 21.6109C37.3169 21.6375 37.3173 21.6654 37.3164 21.6929C37.3078 21.9236 37.2131 22.1431 37.0835 22.3252C36.9538 22.5072 36.79 22.6569 36.6241 22.7997Z" fill="#FFCEA1"/>
<path d="M36.5339 21.391C36.622 21.798 36.9945 22.1499 36.9945 22.1499C37.2288 22.3964 37.4729 22.336 37.8405 22.0566L39.9053 20.4929C39.9366 20.469 39.9987 20.4095 40.0016 20.4068C40.2865 20.1103 40.3396 19.6227 40.1078 19.2585C40.0119 19.1071 39.8802 18.9985 39.734 18.9368C39.7048 18.9246 39.676 18.9142 39.6459 18.9057C39.4253 18.8435 39.182 18.8827 38.9803 19.0368L36.9151 20.5997C36.5405 20.8313 36.4755 21.1229 36.5339 21.391Z" fill="#E4C6BB"/>
<path d="M38.4328 14.758C38.3883 14.7995 38.3323 14.9058 38.2829 14.9396C38.1911 15.0022 38.2545 14.5953 38.3163 14.4223C38.336 14.3668 38.383 14.2744 38.4077 14.2222C38.4459 14.352 38.4583 14.7341 38.4328 14.758Z" fill="#D9B9AE"/>
<path d="M40.0622 14.5587V12.186H38.3868V14.5538C38.3859 14.6078 38.3979 14.6619 38.423 14.7142C38.4613 14.7944 38.5312 14.8706 38.6321 14.9341C38.9594 15.141 39.4896 15.141 39.8168 14.9341C39.9811 14.8305 40.063 14.6948 40.0622 14.5587Z" fill="#FFCEA1"/>
<path d="M39.0239 15.3361C39.8093 15.2253 40.1201 14.8454 40.2523 14.6547C40.2955 14.5925 40.2749 14.4988 40.2552 14.4312C40.2317 14.3501 40.2012 14.2325 40.1378 14.1784C40.1288 14.1703 40.095 14.1473 40.0621 14.1396C40.0621 14.1396 40.0942 14.3542 39.9102 14.5132C39.7542 14.648 39.6023 14.7633 39.2697 14.8697C39.1499 14.908 39.0231 15.2577 39.0239 15.3361Z" fill="#D9B9AE"/>
<path d="M39.7811 12.6013C39.7679 12.8636 39.7547 13.1272 39.7008 13.3827C39.6469 13.6383 39.5493 13.8884 39.3867 14.0813C39.1467 14.3661 38.7672 14.5017 38.4198 14.4265C38.337 14.4084 38.2547 14.3787 38.1864 14.3242C38.0559 14.2201 37.9949 14.0425 37.9501 13.8731C37.8764 13.5955 37.7978 13.2904 37.7673 13.0037C37.7488 12.8293 37.8122 12.6468 37.8068 12.4711C37.7982 12.1935 37.7253 11.9992 37.741 11.7225C37.7471 11.6126 37.7554 11.5017 37.7867 11.3972C37.8793 11.0876 38.2024 10.8289 38.4976 10.7883C38.7927 10.7482 39.0903 10.8465 39.3595 10.9853C39.4336 11.0236 39.5073 11.0655 39.5662 11.1277C39.6226 11.1867 39.6629 11.2615 39.7144 11.3255C39.7782 11.4053 39.8008 12.207 39.7811 12.6013Z" fill="#FFCEA1"/>
<path opacity="0.5" d="M38.4236 14.7138C38.7703 14.7878 39.1477 14.6526 39.3869 14.3682C39.4602 14.2812 39.5203 14.1825 39.5693 14.0771C39.6289 13.9486 39.6713 13.8098 39.7014 13.6692C39.7553 13.4137 39.7685 13.1501 39.7817 12.8878C39.7878 12.7603 39.7899 12.5899 39.7874 12.4155C39.7862 12.4858 39.7845 12.5512 39.7817 12.6075C39.7685 12.8698 39.7553 13.1334 39.7014 13.3894C39.6516 13.626 39.5643 13.8581 39.4223 14.0442C39.4112 14.0591 39.3992 14.0739 39.3873 14.0879C39.1473 14.3727 38.7682 14.5084 38.4208 14.4331C38.4179 14.4326 38.3878 14.4178 38.3878 14.4178C38.3878 14.4178 38.3862 14.525 38.3882 14.5723C38.3891 14.6206 38.4014 14.6679 38.4236 14.7138Z" fill="#1D1D1B"/>
<path d="M39.6651 12.5095C39.6733 12.5249 39.8289 12.4045 39.8919 12.3676C39.7861 12.7907 39.7433 13.2324 39.7655 13.6704C39.7684 13.7308 39.7754 13.797 39.8157 13.8381C39.8433 13.866 39.8816 13.8768 39.9191 13.88C40.0755 13.8926 40.222 13.7786 40.3052 13.633C40.3883 13.4874 40.4196 13.3148 40.4464 13.1459C40.4801 12.9322 40.5098 12.7182 40.5341 12.5032C40.5839 12.0683 40.644 11.5861 40.4896 11.1819C40.3706 10.8705 40.1603 10.6145 39.8919 10.4478C39.6235 10.2811 39.2666 10.2261 38.9583 10.2261C38.6977 10.2265 38.4339 10.2824 38.2054 10.4199C37.9769 10.5569 37.7863 10.7795 37.7036 11.0503C37.6686 11.1643 37.6534 11.2896 37.6838 11.405C37.7435 11.6335 37.9617 11.7669 38.1716 11.8277C38.5236 11.9291 38.9081 11.8908 39.2374 11.7218C39.3057 11.6866 39.3732 11.6456 39.4482 11.6353C39.5231 11.6249 39.6087 11.6533 39.6433 11.7267C39.6622 11.7669 39.6634 11.8142 39.6643 11.8592C39.6667 11.998 39.6606 12.5005 39.6651 12.5095Z" fill="#A86F00"/>
<path d="M39.8977 12.1794C39.8059 12.1676 39.7273 12.2479 39.6882 12.3317C39.6392 12.4362 39.6257 12.553 39.6129 12.6679C39.5964 12.8139 39.5808 12.9653 39.6289 13.1037C39.6421 13.1406 39.6611 13.1785 39.6948 13.1987C39.7454 13.2294 39.8142 13.2096 39.8566 13.1685C39.899 13.1275 39.9208 13.0699 39.9389 13.014C39.992 12.8517 40.0287 12.6845 40.048 12.5151C40.0558 12.4475 40.0603 12.3772 40.0394 12.3123C40.0184 12.247 39.9653 12.1879 39.8977 12.1794Z" fill="#FFCEA1"/>
<path d="M37.6133 10.9029L37.5557 11.7082C38.0525 11.7668 38.6214 12.0462 39.2385 12.472C39.2418 12.472 39.2446 12.4711 39.2479 12.4707C39.6913 12.4098 40.0638 12.2075 40.3598 11.8537C40.4277 11.7726 40.4919 11.6834 40.5516 11.586C40.5928 11.038 40.4561 10.5964 40.0939 10.29C39.2772 9.77397 38.5284 9.85418 37.8381 10.4396C37.7063 10.5513 37.6261 10.7208 37.6133 10.9029Z" fill="#0258BF"/>
<path opacity="0.1" d="M39.2483 12.47C39.6917 12.4092 40.0642 12.2068 40.3602 11.8531C40.3355 11.8702 40.3112 11.8882 40.2861 11.9049C40.1589 11.9923 40.0185 12.0559 39.8724 12.0915C39.7995 12.1095 39.716 12.1181 39.6563 12.069C39.6114 12.0315 39.5904 11.9698 39.5748 11.9103C39.4957 11.6165 39.4883 11.3064 39.4809 11C39.4698 11.2195 39.4595 11.4394 39.4488 11.6589C39.4418 11.8107 39.4315 11.9721 39.3513 12.096C39.3142 12.1541 39.2619 12.2023 39.2372 12.2681C39.2117 12.3339 39.2191 12.4069 39.2483 12.47Z" fill="black"/>
<path d="M36.8371 12.574C36.8145 12.5852 36.798 12.5451 36.8153 12.5258C37.1421 12.1576 37.4731 11.7452 37.5559 11.7078C37.6209 11.6785 37.8358 11.6033 37.9062 11.6015C38.4294 11.5875 39.1913 11.9458 39.4807 12.4235C39.3288 12.5798 39.3967 12.5794 39.0188 12.8971C38.8579 13.0323 38.5706 13.1193 38.3754 12.9494C38.0506 12.6673 37.2492 12.3716 36.8371 12.574Z" fill="#186FD9"/>
<path d="M38.0524 39.1228C37.9845 38.9628 37.8767 38.8258 37.7622 38.7533C37.6655 38.6924 37.5741 38.6834 37.507 38.7262C37.4942 38.7343 37.4827 38.7442 37.472 38.756L36.2988 40.0381V43.2161L39.2256 45.066V41.888L38.0524 39.1228Z" fill="#C91716"/>
<path d="M38.268 38.9867C38.2 38.8267 38.0922 38.6897 37.9778 38.6172C37.8806 38.5559 37.788 38.5469 37.7209 38.591C37.709 38.5987 37.5068 38.7263 37.5068 38.7263C37.5739 38.6834 37.6657 38.6925 37.7621 38.7533C37.8769 38.8258 37.9848 38.9633 38.0523 39.1228L39.2255 41.8876L39.4407 41.7515L38.268 38.9867Z" fill="#FF5947"/>
<path d="M36.466 43.1099L33.3042 45.1081L33.4079 45.3528L36.711 43.2649L36.466 43.1099Z" fill="#CF2313"/>
<path d="M32.3125 42.769L33.3046 45.1079L36.4664 43.1097V40.1436L32.3125 42.769Z" fill="#DE3222"/>
<path d="M33.1609 46.3448L34.0422 43.772L33.9698 43.8499L33.0889 46.4227L33.1609 46.3448Z" fill="#91AD0B"/>
<path d="M32.8452 46.2725L33.7261 43.6997L33.8118 43.8137L32.9308 46.3865L32.8452 46.2725Z" fill="#C3E022"/>
<path d="M32.9307 46.3867L33.8116 43.814L33.9697 43.85L33.0887 46.4228L32.9307 46.3867Z" fill="#AFCD15"/>
<path d="M33.9056 43.5039L33.7985 43.622L33.7261 43.6999L33.901 43.5278L33.9056 43.5039Z" fill="#DED397"/>
<path d="M33.901 43.5278L33.7261 43.7L33.8117 43.814L33.9307 43.5603L33.901 43.5278Z" fill="#E8E2B5"/>
<path d="M33.931 43.5605L33.812 43.8143L33.9701 43.8503L33.9853 43.5714L33.931 43.5605Z" fill="#DED397"/>
<path d="M33.985 43.5713L34.0068 43.5415L34.0422 43.7722L33.9697 43.8502L33.985 43.5713Z" fill="#D9C879"/>
<path d="M33.9219 43.5543C33.8976 43.5345 33.8947 43.5124 33.9091 43.5012L33.9573 43.4539C33.9725 43.439 33.9968 43.4489 33.9993 43.471L34.0071 43.5408C34.0112 43.5598 33.9956 43.5746 33.9655 43.5719C33.9499 43.5706 33.9346 43.5643 33.9219 43.5543Z" fill="#AFCD15"/>
<path d="M36.2987 40.0376L32.23 42.6095C32.2588 42.6545 32.2847 42.7037 32.3065 42.7546L32.3127 42.769L36.4666 40.1435L36.2987 40.0376Z" fill="#59A3DE"/>
<path d="M32.3061 42.7542C32.2382 42.5943 32.1304 42.4573 32.0159 42.3847C31.92 42.3239 31.8286 42.3149 31.7615 42.3572C31.7483 42.3653 31.5454 42.4938 31.5454 42.4938C31.6125 42.451 31.7039 42.46 31.8002 42.5208C31.9151 42.5934 32.0229 42.7308 32.0904 42.8903L33.2636 45.6551L33.4789 45.519L32.3061 42.7542Z" fill="#FF5947"/>
<path d="M37.5364 42.9683C37.5364 42.9683 36.6962 45.4027 36.6905 45.4189C36.6847 45.4356 36.6888 45.4563 36.7045 45.477L36.823 45.6357C36.8543 45.6776 36.9189 45.7042 36.9679 45.6956L37.3359 45.6298C37.3602 45.6253 37.3759 45.6131 37.3816 45.5965C37.3874 45.5798 38.2276 43.1458 38.2276 43.1458L37.5364 42.9683Z" fill="#C92C2C"/>
<path d="M37.9504 42.8694L37.5824 42.9352C37.5581 42.9397 37.5424 42.9519 37.5367 42.9686C37.5309 42.9852 37.535 43.006 37.5507 43.0271L37.6692 43.1858C37.7005 43.2277 37.7651 43.2543 37.8141 43.2457L38.1821 43.1799C38.2064 43.1754 38.222 43.1632 38.2278 43.1466C38.2336 43.1299 38.2295 43.1092 38.2138 43.0884L38.0953 42.9298C38.0636 42.8874 37.9989 42.8604 37.9504 42.8694Z" fill="#AB1818"/>
<path d="M38.3879 40.502C38.3879 40.502 37.5424 42.9521 37.5367 42.9688C37.5309 42.9855 37.535 43.0062 37.5507 43.027L37.6692 43.1856C37.6881 43.2108 37.7186 43.2302 37.7511 43.2401L38.6712 40.575L38.3879 40.502Z" fill="#BAA664"/>
<path d="M38.6705 40.5747L37.7505 43.2399C37.7719 43.2466 37.7941 43.2489 37.8135 43.2453L38.1815 43.1795C38.2058 43.175 38.2214 43.1628 38.2272 43.1461C38.2329 43.1295 39.0785 40.6793 39.0785 40.6793L38.6705 40.5747Z" fill="#CFBD80"/>
<path d="M38.8014 40.403L38.4334 40.4688C38.4091 40.4733 38.3935 40.4854 38.3877 40.5021C38.382 40.5188 38.3861 40.5395 38.4017 40.5607L38.5203 40.7193C38.5516 40.7612 38.6162 40.7878 38.6652 40.7793L39.0332 40.7135C39.0575 40.709 39.0731 40.6968 39.0789 40.6801C39.0847 40.6634 39.0805 40.6427 39.0645 40.622L38.9459 40.4634C38.9151 40.421 38.85 40.3944 38.8014 40.403Z" fill="#AB1818"/>
<path d="M37.8434 40.7457L37.4741 40.2518L38.3139 39.8696L38.6831 40.3631L37.8434 40.7457Z" fill="#363636"/>
<path d="M38.6832 40.3631L38.314 39.8696L39.6185 39.6357L39.9877 40.1292L38.6832 40.3631Z" fill="#4A4A4A"/>
<path d="M38.9968 39.8513L38.6287 39.9171C38.6045 39.9216 38.5888 39.9338 38.583 39.9505C38.5773 39.9672 38.5814 39.9879 38.597 40.0086L38.7156 40.1672C38.7469 40.2092 38.8115 40.2358 38.8605 40.2272L39.2285 40.1614C39.2528 40.1569 39.2684 40.1447 39.2742 40.128C39.28 40.1114 39.2758 40.0906 39.2598 40.0699L39.1412 39.9113C39.1104 39.8694 39.0453 39.8423 38.9968 39.8513Z" fill="#CFBD80"/>
<path d="M37.8237 40.8022L37.8435 40.7454L38.6832 40.3628L39.9877 40.1289L39.7976 40.6801L38.4931 40.9139L37.8237 40.8022Z" fill="#262626"/>
<path d="M37.8238 40.8022L37.4546 40.3083L37.4743 40.2515L37.8436 40.7454L37.8238 40.8022Z" fill="#262626"/>
<path d="M37.5542 37.127L37.481 36.9756L37.6398 37.1982L37.7131 37.3496L37.6497 37.5222L37.4904 37.2996L37.5542 37.127Z" fill="#1C1C1C"/>
<path d="M37.4905 37.2998L36.4832 37.4553L32.8682 47.2633L33.8755 47.1078L35.5632 42.5287L35.3232 42.5657C35.2981 42.5697 35.2858 42.5517 35.2952 42.5265L35.5002 41.9699C35.5097 41.9442 35.5377 41.9203 35.5624 41.9167L35.802 41.8798L37.4905 37.2998ZM33.8578 45.8392C34.0422 45.8108 34.1348 45.9406 34.0652 46.1299C33.9957 46.3187 33.7898 46.4949 33.6058 46.5233C33.4218 46.5517 33.3288 46.4215 33.3984 46.2326C33.4675 46.0438 33.6733 45.8676 33.8578 45.8392ZM36.9414 38.1056C37.0225 38.2191 36.9426 38.4354 36.7631 38.5891C36.5837 38.7428 36.3725 38.7752 36.2914 38.6621C36.2103 38.549 36.2902 38.3322 36.4696 38.1786C36.6491 38.0244 36.8603 37.992 36.9414 38.1056Z" fill="#FCC901"/>
<path d="M32.8784 47.5877L33.0373 47.8103L33.7705 47.6972L33.6111 47.4746L32.8784 47.5877Z" fill="#1C1C1C"/>
<path d="M33.6108 47.4745L33.7701 47.6972L33.9706 47.5034L33.8117 47.2808L33.6108 47.4745Z" fill="#2B2B2B"/>
<path d="M33.812 47.2805L33.9709 47.5031L34.0347 47.3305L33.8754 47.1079L33.812 47.2805Z" fill="#1C1C1C"/>
<path d="M33.812 47.2805L33.6111 47.4743L32.8784 47.5874L32.8047 47.436L32.8685 47.2634L33.8754 47.1079L33.812 47.2805Z" fill="#404040"/>
<path d="M36.5468 37.2825L36.7477 37.0887L37.4808 36.9756L37.5541 37.127L37.4903 37.2996L36.4834 37.4551L36.5468 37.2825Z" fill="#404040"/>
<path d="M37.0011 38.0541C36.9052 37.9198 36.6549 37.9586 36.4425 38.1402C36.2301 38.3223 36.1354 38.5787 36.2313 38.713C36.3272 38.8473 36.5775 38.8085 36.7899 38.6269C37.0023 38.4453 37.097 38.1884 37.0011 38.0541ZM36.9414 38.1055C37.0225 38.2191 36.9426 38.4354 36.7631 38.5891C36.5837 38.7427 36.3725 38.7752 36.2914 38.6621C36.2103 38.549 36.2902 38.3322 36.4696 38.1785C36.6491 38.0244 36.8603 37.992 36.9414 38.1055Z" fill="#404040"/>
<path d="M36.969 38.2612C36.9789 38.2013 36.9707 38.1467 36.9415 38.1057C36.8604 37.9922 36.6492 38.0251 36.4697 38.1783C36.2902 38.332 36.2104 38.5483 36.2915 38.6618C36.3207 38.7029 36.3672 38.7249 36.4228 38.7285C36.4401 38.6222 36.5142 38.4987 36.6286 38.4005C36.743 38.3031 36.8707 38.254 36.969 38.2612Z" fill="#1C1C1C"/>
<path d="M36.793 38.3317C36.7765 38.3087 36.7037 38.3407 36.6304 38.4033C36.5571 38.466 36.511 38.5358 36.5279 38.5588C36.5444 38.5818 36.6172 38.5498 36.6905 38.4871C36.7634 38.4245 36.8095 38.3546 36.793 38.3317Z" fill="white"/>
<path opacity="0.6" d="M36.3066 38.6445C36.3087 38.6607 36.3124 38.6761 36.3178 38.69C36.3511 38.7175 36.396 38.7301 36.4474 38.7292L36.9636 38.2876C36.9768 38.2331 36.9764 38.1826 36.9603 38.1407C36.9492 38.1312 36.9365 38.124 36.9229 38.1182L36.3066 38.6445Z" fill="#AFCD15"/>
<path d="M34.0348 47.3302L35.6851 42.8525L35.5262 42.6299L33.8755 47.1076L34.0348 47.3302Z" fill="#FFAD0D"/>
<path d="M35.8403 41.7775L35.9992 42.0001L37.6499 37.5224L37.4906 37.2998L35.8403 41.7775Z" fill="#FFAD0D"/>
<path d="M35.8027 41.8787L35.5631 41.9156C35.538 41.9197 35.51 41.9436 35.501 41.9688L35.296 42.5254C35.2865 42.551 35.2993 42.5686 35.324 42.5646L35.564 42.5276L35.5265 42.6295L35.2544 42.6714C35.1976 42.6804 35.1688 42.6398 35.1902 42.5817L35.4269 41.94C35.4483 41.8818 35.5121 41.8273 35.5689 41.8183L35.841 41.7764L35.8027 41.8787Z" fill="#404040"/>
<path d="M35.5633 41.9158C35.5381 41.9199 35.5102 41.9438 35.5011 41.969L35.2961 42.5256C35.2866 42.5512 35.2994 42.5688 35.3241 42.5648L35.5344 42.5323L35.66 42.1912C35.6695 42.1655 35.6975 42.1416 35.7222 42.138L35.9617 42.101L35.8028 41.8784L35.5633 41.9158Z" fill="#1C1C1C"/>
<path d="M35.8027 41.8787L35.9616 42.1014L35.9991 42L35.8402 41.7773L35.8027 41.8787Z" fill="#2B2B2B"/>
<path d="M35.5259 42.6297L35.6848 42.8523L35.7222 42.7509L35.5633 42.5283L35.5259 42.6297Z" fill="#2B2B2B"/>
<path d="M35.6908 42.2021C35.6534 42.2079 35.5999 42.2751 35.5715 42.3521C35.5431 42.4292 35.5505 42.4869 35.5879 42.481C35.6254 42.4752 35.6789 42.408 35.7073 42.331C35.7357 42.2539 35.7283 42.1962 35.6908 42.2021Z" fill="white"/>
<path opacity="0.6" d="M35.7736 41.9573C35.7275 41.9371 35.6809 41.9443 35.6702 41.9731C35.6595 42.0024 35.4595 42.5445 35.4595 42.5445L35.5632 42.5288L35.627 42.6184C35.627 42.6184 35.8267 42.0768 35.8374 42.0475C35.8489 42.0177 35.8201 41.9776 35.7736 41.9573Z" fill="#AFCD15"/>
<path d="M33.8806 45.7761C33.6624 45.8099 33.4187 46.0186 33.3364 46.2421C33.2541 46.4656 33.364 46.6198 33.5822 46.586C33.8003 46.5522 34.044 46.3435 34.1264 46.12C34.2087 45.8965 34.0988 45.7423 33.8806 45.7761ZM33.8576 45.8392C34.042 45.8108 34.1346 45.9406 34.065 46.1299C33.9955 46.3187 33.7896 46.4949 33.6056 46.5233C33.4216 46.5517 33.3286 46.4215 33.3982 46.2326C33.4673 46.0438 33.6731 45.8676 33.8576 45.8392Z" fill="#404040"/>
<path d="M33.5569 46.4554C33.6265 46.2666 33.8323 46.0904 34.0163 46.062C34.0406 46.0584 34.0628 46.0575 34.0834 46.0588C34.1081 45.9097 34.0171 45.8146 33.857 45.8394C33.673 45.8678 33.4672 46.044 33.3976 46.2328C33.3371 46.3968 33.3996 46.5162 33.5375 46.5262C33.5417 46.5036 33.5474 46.4802 33.5569 46.4554Z" fill="#1C1C1C"/>
<path d="M33.8173 46.1381C33.7799 46.144 33.7263 46.2111 33.6979 46.2882C33.6695 46.3652 33.6769 46.4229 33.7144 46.4171C33.7519 46.4112 33.8054 46.3441 33.8338 46.267C33.8622 46.1899 33.8548 46.1322 33.8173 46.1381Z" fill="white"/>
<path opacity="0.6" d="M33.7924 46.4499C33.8509 46.2908 33.9567 46.0042 33.9645 45.983C33.9752 45.9537 33.9464 45.9136 33.9003 45.8929C33.8542 45.8726 33.8077 45.8798 33.797 45.9087C33.7871 45.9357 33.5953 46.4553 33.5693 46.5265C33.5809 46.526 33.5928 46.5247 33.6056 46.5229C33.6673 46.5139 33.7315 46.4878 33.7924 46.4499Z" fill="#AFCD15"/>
<path d="M37.2475 43.3944C37.2097 43.0172 36.9956 42.4458 36.9956 42.4458C36.9351 42.535 36.8519 42.6134 36.7622 42.6576C36.819 42.873 36.8849 43.0019 36.9532 43.3201C36.9931 43.5053 37.0746 43.8054 36.9293 44.3813C36.8989 44.5021 36.8606 44.6936 36.9404 44.6959C37.0203 44.6982 37.038 44.6414 37.096 44.4629C37.1541 44.2845 37.2858 43.7716 37.2475 43.3944Z" fill="#FFBB00"/>
<path d="M36.9219 44.6906C36.8676 44.6595 36.9017 44.4909 36.9297 44.381C37.075 43.805 36.9935 43.5054 36.9536 43.3197C36.8848 43.0011 36.8194 42.8726 36.7626 42.6572L36.6938 42.6834C36.7404 42.8285 36.791 42.9605 36.8433 43.2034C36.8832 43.3886 36.9647 43.6888 36.8194 44.2647C36.7955 44.3602 36.7663 44.4995 36.7947 44.5549C36.8013 44.5693 36.8564 44.6617 36.9219 44.6906Z" fill="#F09300"/>
<path d="M37.2477 43.3945C37.2213 43.1313 37.1089 42.7735 37.0435 42.5811L36.9282 42.6797C36.9019 42.7023 36.8871 42.7374 36.8945 42.7586C36.9431 42.8965 37.1028 43.3783 37.0995 43.7307C37.0974 43.9235 37.0361 44.4121 36.9126 44.6829C36.9196 44.6906 36.9286 44.6951 36.9406 44.6955C37.0204 44.6978 37.0381 44.641 37.0962 44.4625C37.1542 44.2841 37.286 43.7717 37.2477 43.3945Z" fill="#1C72D9"/>
<path d="M37.0459 42.0495C37.0459 42.0495 37.0225 42.0252 36.9352 41.9332C36.8479 41.8413 36.6594 41.9012 36.5141 42.0671C36.3688 42.2329 36.3218 42.4411 36.4091 42.5331C36.4964 42.625 36.5199 42.6493 36.5199 42.6493L37.0459 42.0495Z" fill="#BABABA"/>
<path d="M36.9416 42.5156C36.7962 42.681 36.6077 42.7409 36.5204 42.649C36.4332 42.557 36.4801 42.3484 36.6254 42.183C36.7707 42.0176 36.9593 41.9577 37.0465 42.0492C37.1334 42.1415 37.0865 42.3502 36.9416 42.5156Z" fill="#E3E3E3"/>
<path d="M36.9073 42.3099C36.8904 42.3856 36.8209 42.4649 36.7525 42.4865C36.6842 42.5081 36.6426 42.4644 36.6595 42.3887C36.6764 42.313 36.746 42.2342 36.8143 42.2121C36.8826 42.1904 36.9242 42.2341 36.9073 42.3099Z" fill="#404040"/>
<path d="M36.8555 41.3131L36.7447 41.1968L36.6719 41.2324L36.7826 41.3486L36.8555 41.3131Z" fill="#C9C9C9"/>
<path d="M36.7825 41.3487L36.6717 41.2324L36.4009 42.0648L36.5116 42.181L36.7825 41.3487Z" fill="#A6A6A6"/>
<path d="M36.8111 41.7397L36.7885 41.7506L36.7671 42.062L36.7914 42.0264L36.8111 41.7397Z" fill="#F2F2F2"/>
<path d="M36.8032 41.5861L36.8049 41.5613L36.8102 41.5586L36.8259 41.5753L36.8032 41.5861Z" fill="#A6A6A6"/>
<path d="M36.7998 41.6345L36.8015 41.6111L36.8196 41.6025L36.834 41.6179L36.7998 41.6345Z" fill="#A6A6A6"/>
<path d="M36.8066 41.5363L36.8087 41.5115L36.8136 41.5088L36.8293 41.5255L36.8066 41.5363Z" fill="#A6A6A6"/>
<path d="M36.8101 41.487L36.8117 41.4636L36.8179 41.4604L36.8323 41.4758L36.8101 41.487Z" fill="#A6A6A6"/>
<path d="M36.846 41.4463L36.855 41.3125L36.7826 41.3481L36.5117 42.1809L36.5912 42.2251C36.6402 42.1597 36.7011 42.102 36.7669 42.0619L36.7883 41.7505L36.8262 41.7321L36.834 41.618L36.7999 41.6347L36.8015 41.6113L36.8242 41.6005L36.8258 41.5757L36.8032 41.587L36.8048 41.5622L36.8274 41.5509L36.8291 41.5261L36.8065 41.5369L36.8081 41.5121L36.8307 41.5009L36.8324 41.4761L36.8097 41.4874L36.8114 41.4639L36.846 41.4463Z" fill="#E3E3E3"/>
<path d="M37.2688 41.1944L37.1581 41.0781L37.0918 41.0867L37.2021 41.2029L37.2688 41.1944Z" fill="#A6A6A6"/>
<path d="M37.0787 41.5402L37.1104 41.5362L37.1199 41.5105L37.0993 41.5132L37.1092 41.4853L37.1298 41.483L37.14 41.4551L37.1195 41.4578L37.1293 41.4303L37.1499 41.4276L37.1602 41.4001L37.1396 41.4028L37.1495 41.3748L37.1701 41.3721L37.1796 41.3465L37.1483 41.3505L37.2022 41.2027L37.0919 41.0864L37.0375 41.2342L37.0585 41.2563L37.0392 41.2586L37.0289 41.2865L37.0495 41.2838L37.0396 41.3113L37.0186 41.314L37.0087 41.3415L37.0293 41.3388L37.019 41.3667L36.9984 41.369L36.9886 41.3969L37.0091 41.3942L36.9997 41.4199L36.9684 41.424L36.9219 41.5502L37.0326 41.6664L37.0787 41.5402Z" fill="#C9C9C9"/>
<path d="M37.0673 41.6618L37.0328 41.6663L37.0081 41.6401C37.0101 41.6573 37.0072 41.678 36.999 41.701C36.9735 41.7708 36.9064 41.833 36.8492 41.8402L36.8311 41.8898L36.9418 42.0061L37.0673 41.6618Z" fill="#404040"/>
<path d="M36.9595 41.9571L36.8492 41.8408L36.8311 41.8899L36.9414 42.0067L36.9595 41.9571Z" fill="#919191"/>
<path d="M37.0148 41.647L36.8896 41.9886L36.8942 41.9935L37.0193 41.6515L37.0148 41.647Z" fill="#A6A6A6"/>
<path d="M37.0192 41.6519L37.0328 41.6663L37.0673 41.6618L36.9414 42.0065L36.894 41.9939L37.0192 41.6519Z" fill="#F2F2F2"/>
<path d="M37.1607 41.4L37.0499 41.2837L37.04 41.3112L37.1504 41.4274L37.1607 41.4Z" fill="#919191"/>
<path d="M37.1499 41.3502L37.1705 41.3719L37.18 41.3462L37.1499 41.3502Z" fill="#919191"/>
<path d="M37.1406 41.4547L37.0298 41.3384L37.0195 41.3663L37.1303 41.4826L37.1406 41.4547Z" fill="#919191"/>
<path d="M37.1206 41.5084L37.0099 41.3921L37 41.4196L37.1107 41.5358L37.1206 41.5084Z" fill="#919191"/>
<path d="M37.269 41.1938L37.2023 41.2024L37.148 41.3502L37.1793 41.3462L37.1698 41.3719L37.1492 41.3746L37.1389 41.4021L37.1595 41.3993L37.1492 41.4268L37.1286 41.4295L37.1187 41.457L37.1393 41.4543L37.129 41.4818L37.1085 41.4845L37.0986 41.512L37.1192 41.5093L37.1097 41.535L37.0784 41.539L37.0323 41.6652L37.0669 41.6607L36.9409 42.005C36.9973 42.0064 37.0397 42.0312 37.0644 42.0735L37.1776 41.9685L37.269 41.1938Z" fill="#E3E3E3"/>
<path d="M37.1494 41.3746L37.0391 41.2583L37.0288 41.2862L37.1395 41.4025L37.1494 41.3746Z" fill="#C9C9C9"/>
<path d="M37.1494 41.3749L37.0391 41.2586L37.0584 41.2563L37.1481 41.3505H37.1494L37.17 41.3722L37.1494 41.3749Z" fill="#A6A6A6"/>
<path d="M37.1294 41.4302L37.0187 41.314L37.0088 41.3415L37.1195 41.4577L37.1294 41.4302Z" fill="#C9C9C9"/>
<path d="M37.1293 41.4305L37.0186 41.3142L37.0395 41.3115L37.1499 41.4278L37.1293 41.4305Z" fill="#A6A6A6"/>
<path d="M37.1094 41.4849L36.9986 41.3687L36.9888 41.3966L37.0995 41.5129L37.1094 41.4849Z" fill="#C9C9C9"/>
<path d="M37.1098 41.4852L36.999 41.369L37.0196 41.3667L37.1303 41.483L37.1098 41.4852Z" fill="#A6A6A6"/>
<path d="M37.0791 41.5402L36.9688 41.424L37 41.4199L37.1108 41.5362L37.0791 41.5402Z" fill="#A6A6A6"/>
<path d="M35.7411 43.8718C35.9676 43.4107 36.4916 42.605 36.4916 42.605C36.5179 42.6667 36.576 42.7005 36.6583 42.6897C36.4883 42.9772 36.3504 43.1706 36.1166 43.5847C35.9807 43.8258 35.7416 44.2273 35.63 44.7929C35.6065 44.9114 35.558 45.1061 35.4649 45.1633C35.3719 45.2206 35.3789 45.1669 35.3982 45.0011C35.418 44.8353 35.5147 44.3328 35.7411 43.8718Z" fill="#FFBB00"/>
<path d="M36.371 42.7938C36.443 42.6798 36.4908 42.6064 36.492 42.6045L36.3813 42.4883C36.3813 42.4883 36.3331 42.5617 36.2603 42.6775C36.2603 42.6775 36.2862 42.7537 36.371 42.7938Z" fill="#F09300"/>
<path d="M35.7412 43.8719C35.8993 43.5501 36.2023 43.0607 36.3706 42.7939L36.4558 42.8291C36.4752 42.8372 36.4756 42.8674 36.4567 42.8971C36.334 43.0891 35.9162 43.7543 35.7495 44.159C35.6581 44.3803 35.4922 44.9017 35.5037 45.1301C35.4918 45.1437 35.479 45.1554 35.4654 45.1635C35.3724 45.2207 35.3794 45.1671 35.3987 45.0012C35.4181 44.8354 35.5148 44.3329 35.7412 43.8719Z" fill="#1C72D9"/>
<path d="M35.4115 45.1856C35.3769 45.1852 35.3843 45.1239 35.3987 45.0013C35.4181 44.8355 35.5152 44.333 35.7416 43.872C35.8997 43.5502 36.2027 43.0608 36.3711 42.794C36.2863 42.7534 36.2603 42.6777 36.2603 42.6777C36.0915 42.9441 35.789 43.4339 35.6309 43.7557C35.4045 44.2167 35.3074 44.7192 35.288 44.885C35.2781 44.9711 35.2765 45.0256 35.2839 45.0522C35.2938 45.0874 35.3695 45.1861 35.4115 45.1856Z" fill="#0258BF"/>
<path d="M33.2637 45.6559V48.8335L33.4794 48.6974L39.2251 45.0656L39.4408 44.9295V41.7515L33.2637 45.6559Z" fill="#FB4432"/>
<path d="M32.091 42.8909C32.0231 42.7309 31.9152 42.5939 31.8008 42.5213C31.7045 42.4605 31.6127 42.4515 31.546 42.4943C31.5332 42.5024 31.5213 42.5123 31.5106 42.524L30.3374 43.8061V46.9841L33.2642 48.8341V45.6561L32.091 42.8909Z" fill="#DE3222"/>
<path d="M31.9696 43.2926C31.8761 43.3516 31.7246 43.2561 31.6316 43.079C31.5382 42.9018 31.5382 42.7108 31.6316 42.6517C31.725 42.5927 31.8761 42.6882 31.9696 42.8653C32.063 43.042 32.063 43.2335 31.9696 43.2926Z" fill="#2B2B2B"/>
<path d="M39.0576 41.7812L39.2252 41.8871L33.4794 45.5189L33.4082 45.3522L39.0576 41.7812Z" fill="#FF5947"/>
<path opacity="0.5" d="M33.4082 45.3522L33.4794 45.5189V45.3071L33.4082 45.3522Z" fill="black"/>
<path d="M37.932 39.0967C37.8381 38.9191 37.6867 38.8231 37.5928 38.8822C37.5039 38.9385 32.5415 42.075 32.0327 42.3963C32.141 42.4711 32.2418 42.6027 32.306 42.7546L32.4151 43.0119C32.9359 42.683 37.8431 39.5811 37.9316 39.5252C38.0254 39.4662 38.0254 39.2742 37.932 39.0967Z" fill="#404040"/>
<path opacity="0.3" d="M32.2973 42.7348L37.9595 39.1557C37.9513 39.1359 37.9422 39.116 37.9319 39.0962C37.9027 39.0408 37.8677 38.9935 37.8307 38.9561L32.1738 42.5315C32.2216 42.591 32.2636 42.6604 32.2973 42.7348Z" fill="white"/>
<path opacity="0.8" d="M44.9411 37.8853C44.6315 37.5585 44.0692 37.3724 43.4991 37.3932C42.705 37.4247 42.074 37.8429 41.9994 38.385C41.9937 38.4238 41.9912 38.4621 41.9912 38.5004C41.9912 38.8344 42.1974 39.1345 42.5358 39.3382C42.7005 39.4373 42.7005 39.6964 42.5379 39.7992L42.3819 39.8979C42.2958 39.9524 42.2543 40.0709 42.2971 40.1809C42.3144 40.226 42.3473 40.262 42.386 40.2863L42.4601 40.3332C42.6025 40.4233 42.7779 40.4233 42.9203 40.3332L43.4023 40.0286C43.4649 39.9894 43.5361 39.9799 43.6081 39.9759C43.6394 39.974 43.6703 39.9641 43.6983 39.9461L44.6895 39.3197C45.0197 39.1111 45.2016 38.8199 45.2016 38.5004C45.2012 38.2778 45.1111 38.0651 44.9411 37.8853Z" fill="black"/>
<path d="M43.7833 36.9998C43.1173 37.0259 42.5702 37.363 42.5122 37.783C42.5085 37.8092 42.5068 37.8349 42.5068 37.8606C42.5068 38.2702 42.9588 38.6122 43.5643 38.7001C43.6232 38.7087 43.6454 38.7537 43.6026 38.7808L43.5001 38.8457L43.871 39.08L44.8359 38.4703C45.0829 38.3144 45.2356 38.0985 45.2356 37.8606C45.2352 37.3657 44.5766 36.9683 43.7833 36.9998Z" fill="#FCC901"/>
<path d="M44.8355 38.4701L43.871 39.0798L43.5001 38.8455L43.6026 38.7806C43.6454 38.7535 43.6228 38.7085 43.5643 38.6999C42.9588 38.612 42.5068 38.2695 42.5068 37.8604C42.5068 37.8604 42.5068 38.4381 42.5068 38.4633C42.5064 38.873 42.9584 39.2159 43.5643 39.3038C43.6232 39.3124 43.6454 39.3574 43.6026 39.3845L43.5001 39.4494L43.871 39.6837L44.8355 39.074C45.0825 38.918 45.2352 38.7022 45.2352 38.4642C45.2352 38.3308 45.2352 37.8604 45.2352 37.8604C45.2352 38.0987 45.0825 38.3142 44.8355 38.4701Z" fill="#FFAD0D"/>
<path d="M43.8713 37.228C44.4237 37.228 44.8716 37.511 44.8716 37.8603C44.8716 38.2095 44.4237 38.4926 43.8713 38.4926C43.3189 38.4926 42.8706 38.2095 42.8706 37.8603C42.8706 37.511 43.3189 37.228 43.8713 37.228Z" fill="#404040"/>
<path d="M45.4349 38.115L45.2356 37.9888V38.0798C45.2356 38.3177 45.0829 38.5336 44.8359 38.6895L45.4349 38.311C45.5205 38.2569 45.5205 38.169 45.4349 38.115Z" fill="#4A4A4A"/>
<path d="M45.4991 38.2134C45.4991 38.249 45.4777 38.2841 45.4349 38.3112L44.8359 38.6897V38.8542L45.4349 38.4757C45.4777 38.4486 45.4991 38.413 45.4991 38.3779C45.4991 38.3436 45.4991 38.2201 45.4991 38.2134Z" fill="#363636"/>
<path d="M45.4196 38.1812C45.3916 38.1636 45.3463 38.1636 45.3184 38.1812C45.2904 38.1987 45.2904 38.2276 45.3184 38.2451C45.3463 38.2627 45.3916 38.2627 45.4196 38.2451C45.4476 38.2276 45.4476 38.1987 45.4196 38.1812Z" fill="black"/>
<path d="M43.5 38.8452V39.4491L43.8709 39.6834V39.0795L43.5 38.8452Z" fill="#F0A103"/>
<path d="M43.7343 39.5261L43.6367 39.4644V39.0029L43.7343 39.0647V39.5261Z" fill="black"/>
<path d="M42.7783 38.6509V38.7608C42.9306 38.8893 43.1393 38.9893 43.3806 39.0484V38.9384C43.1397 38.8794 42.9306 38.7793 42.7783 38.6509Z" fill="black"/>
<path d="M43.1302 38.7192L43.1491 38.7003C42.8602 38.5863 42.6441 38.406 42.5539 38.1929L42.5193 38.1987C42.4786 38.2055 42.4526 38.2289 42.4526 38.2542C42.4526 38.2605 42.4543 38.2668 42.4576 38.2731C42.5584 38.4606 42.7507 38.6214 43.0005 38.735C43.0429 38.7544 43.1026 38.7476 43.1302 38.7192Z" fill="#404040"/>
<path d="M43.1301 38.7195C43.1021 38.7474 43.0429 38.7546 43 38.7352C42.7502 38.6217 42.5579 38.4608 42.4571 38.2733C42.4538 38.267 42.4521 38.2607 42.4521 38.2544C42.4521 38.2544 42.4521 38.6136 42.4521 38.6388C42.4521 38.6451 42.4538 38.6514 42.4571 38.6577C42.5579 38.8452 42.7502 39.0061 43 39.1197C43.0424 39.139 43.1021 39.1323 43.1301 39.1039L43.1491 39.085V38.7005L43.1301 38.7195Z" fill="#212121"/>
<path d="M42.5881 38.9478L42.6387 38.9898C42.6544 39.0028 42.6836 39.0051 42.7042 38.9952L42.7482 38.974V38.5896L42.5786 38.5454C42.5786 38.5454 42.5786 38.9208 42.5786 38.9294C42.5782 38.9361 42.5815 38.9424 42.5881 38.9478Z" fill="#303030"/>
<path d="M42.588 38.5637L42.6386 38.6056C42.6543 38.6186 42.6835 38.6209 42.7041 38.611L42.7481 38.5898C42.709 38.5619 42.6728 38.5326 42.639 38.5015L42.5966 38.5222C42.5847 38.528 42.5785 38.5366 42.5781 38.5456C42.5781 38.5519 42.5814 38.5582 42.588 38.5637Z" fill="#404040"/>
<path d="M42.9385 39.9632L43.7128 39.4738V39.0894L42.9385 39.5788V39.9632Z" fill="#FCC901"/>
<path d="M42.9385 39.5787L42.8838 39.5444V39.9288L42.9385 39.9631V39.5787Z" fill="#FFAD0D"/>
<path d="M42.9385 39.5788L43.7128 39.0894L43.6585 39.0552L42.8838 39.5446L42.9385 39.5788Z" fill="#FFDB00"/>
<path d="M42.9493 39.5854L42.6851 39.7526L42.9493 39.9194V39.5854Z" fill="#A2A3A1"/>
<path d="M42.8732 39.5376L42.5332 39.7526L42.8732 39.9675L42.9494 39.9193L42.6851 39.7526L42.9494 39.5854L42.8732 39.5376Z" fill="#E3E3E3"/>
<path d="M42.5332 39.7529V40.1369L42.8732 40.3518V39.9679L42.5332 39.7529Z" fill="#C1C2C0"/>
<path d="M42.873 39.9677V40.3516L42.9492 40.3038V39.9194L42.873 39.9677Z" fill="#A2A3A1"/>
<path d="M26.3168 46.3944L26.826 46.7162C26.9108 46.7698 27.0594 46.763 27.1578 46.7013L27.3895 46.5548C27.4879 46.4926 27.4982 46.3989 27.4134 46.3453L26.9042 46.0235C26.8194 45.9699 26.6708 45.9766 26.5724 46.0384L26.3407 46.1848C26.2423 46.2466 26.2316 46.3408 26.3168 46.3944Z" fill="#666666"/>
<path d="M27.1503 48.0601L27.0474 48.1254L27.9559 48.6995L28.0588 48.6347L27.1503 48.0601Z" fill="#E3E3E3"/>
<path d="M28.019 48.7388L28.059 48.6343L27.9561 48.6992L28.019 48.7388Z" fill="#A2A3A1"/>
<path d="M25.8104 48.907L27.2754 49.833C27.452 49.9448 27.7603 49.9308 27.9645 49.8019L28.463 49.487C28.6668 49.3581 28.689 49.1629 28.5124 49.0516L27.0474 48.1255C26.9514 48.0647 26.7835 48.0724 26.6728 48.1427L25.8375 48.6708C25.7264 48.7402 25.7144 48.8461 25.8104 48.907Z" fill="#FCC901"/>
<path d="M28.6311 49.343C28.6311 49.4286 28.5739 49.5187 28.4623 49.5895L27.9638 49.9045C27.76 50.0334 27.4513 50.0473 27.2747 49.9356L25.8097 49.0095C25.766 48.982 25.7446 48.945 25.7446 48.9067C25.7446 48.9401 25.7446 49.649 25.7446 49.6945C25.7446 49.7328 25.766 49.7697 25.8097 49.7972L27.2747 50.7233C27.4513 50.8351 27.7596 50.8211 27.9638 50.6922L28.4623 50.3772C28.5739 50.3065 28.6311 50.2163 28.6311 50.1307C28.6311 50.0613 28.6311 49.3817 28.6311 49.343Z" fill="#404040"/>
<path d="M28.6311 49.24C28.6311 49.3256 28.5739 49.4157 28.4623 49.4865L27.9638 49.8015C27.76 49.9304 27.4513 49.9443 27.2747 49.8326L25.8097 48.9065C25.766 48.879 25.7446 48.842 25.7446 48.8037C25.7446 48.8371 25.7446 48.997 25.7446 49.0426C25.7446 49.0809 25.766 49.1178 25.8097 49.1453L27.2747 50.0714C27.4513 50.1832 27.7596 50.1692 27.9638 50.0403L28.4623 49.7253C28.5739 49.6545 28.6311 49.5644 28.6311 49.4788C28.6311 49.4094 28.6311 49.2787 28.6311 49.24Z" fill="#FFAD0D"/>
<path d="M26.3014 50.0384L26.0219 49.8618C25.9606 49.823 25.9054 49.7405 25.8832 49.6545L25.707 48.9722L26.6155 49.5463L26.4393 50.0064C26.4315 50.0262 26.4204 50.0407 26.406 50.0501C26.3792 50.0673 26.3418 50.0641 26.3014 50.0384Z" fill="#C1C2C0"/>
<path d="M25.8104 48.9072L25.7075 48.9721L26.616 49.5467L26.7189 49.4814L25.8104 48.9072Z" fill="#E3E3E3"/>
<path d="M26.6158 49.5469L26.4396 50.007C26.4318 50.0268 26.4207 50.0412 26.4062 50.0507C26.4062 50.0507 26.482 50.0029 26.5092 49.9858C26.5236 49.9768 26.5351 49.9624 26.5425 49.9421L26.7187 49.4824L26.6158 49.5469Z" fill="#A2A3A1"/>
<path d="M26.2687 49.9193L26.0551 49.7846C26.0172 49.7607 25.9863 49.6958 25.9863 49.6404V49.3303C25.9863 49.2749 26.0172 49.2492 26.0551 49.2731L26.2687 49.4078C26.3066 49.4317 26.3375 49.4966 26.3375 49.552V49.8621C26.3375 49.918 26.3066 49.9437 26.2687 49.9193Z" fill="#404040"/>
<path d="M26.3021 49.5246L26.021 49.3471C26.021 49.3218 26.035 49.3101 26.0523 49.3209L26.2705 49.4588C26.2877 49.4696 26.3021 49.4994 26.3021 49.5246Z" fill="#C1C2C0"/>
<path d="M26.3021 49.6166L26.021 49.4386V49.3931L26.3021 49.5706V49.6166Z" fill="#C1C2C0"/>
<path d="M26.3021 49.7079L26.021 49.5304V49.4844L26.3021 49.6619V49.7079Z" fill="#C1C2C0"/>
<path d="M26.3021 49.8002L26.021 49.6226V49.5767L26.3021 49.7542V49.8002Z" fill="#C1C2C0"/>
<path d="M26.2705 49.8717L26.0523 49.7338C26.035 49.7229 26.021 49.6932 26.021 49.668L26.3021 49.8455C26.3021 49.8712 26.2877 49.8825 26.2705 49.8717Z" fill="#C1C2C0"/>
<path d="M25.9756 46.1582C26.4901 46.5034 26.3374 47.2556 26.3514 48.7355C26.3518 48.7643 26.3675 48.7918 26.4 48.8126L26.8318 49.0856C26.9038 49.1312 27.0298 49.1253 27.113 49.073L27.3097 48.9486C27.3554 48.9198 27.3789 48.8824 27.3785 48.8477C27.3785 48.1609 27.3418 47.0437 27.5135 47.1546L25.9756 46.1582Z" fill="url(#paint0_linear_456_13148)"/>
<path d="M27.1539 46.82C27.2103 47.2504 27.3424 47.6551 27.4346 47.9007C27.4593 47.966 27.4499 48.0192 27.4211 48.0372C27.4046 48.0476 27.382 48.0462 27.3556 48.0295L27.0469 47.8344V46.752L27.1539 46.82Z" fill="#404040"/>
<path d="M27.652 47.7638C27.5594 47.5182 27.4272 47.1135 27.3712 46.6831L27.1543 46.8201C27.2107 47.2505 27.3428 47.6552 27.435 47.9008C27.4597 47.9661 27.4503 48.0193 27.4215 48.0373C27.4215 48.0373 27.6223 47.9107 27.6388 47.8999C27.6672 47.8818 27.6763 47.8287 27.652 47.7638Z" fill="#212121"/>
<path d="M27.1911 44.8829C27.1713 44.8703 27.1516 44.8581 27.1322 44.8459C26.9655 44.7427 26.814 44.6535 26.616 44.5526C26.4744 44.4805 26.3336 44.4201 26.2389 44.3908C26.2044 44.38 26.0986 44.3475 26.015 44.3552C25.9907 44.3574 25.9541 44.361 25.9096 44.3763C25.8594 44.3939 25.8294 44.4111 25.7948 44.4322C25.7511 44.4597 25.7083 44.494 25.6672 44.5345C25.6495 44.5521 25.6318 44.5706 25.6149 44.5895C25.6149 44.5895 25.584 44.6251 25.5651 44.6512C25.5601 44.658 25.5544 44.667 25.549 44.6733C25.549 44.6733 25.5247 44.7076 25.5025 44.7432C25.4972 44.7522 25.4832 44.7747 25.4733 44.7927C25.4692 44.8004 25.4638 44.8112 25.4593 44.8184C25.4593 44.8184 25.4334 44.8662 25.4099 44.923C25.3658 45.0293 25.3379 45.1334 25.3272 45.2326C25.3127 45.3678 25.33 45.4516 25.3469 45.5093C25.358 45.5471 25.3844 45.6098 25.4222 45.6612C25.4412 45.6868 25.4675 45.7206 25.4889 45.7441C25.5046 45.7607 25.5519 45.8121 25.6087 45.863C25.7264 45.9685 25.8121 46.0374 25.9755 46.1582C26.1229 46.2673 26.2863 46.3732 26.3694 46.4264C26.3715 46.4277 27.6394 47.2344 27.6394 47.2344C27.4125 47.0933 27.4113 46.6323 27.6369 46.2051C27.7493 45.9915 27.8975 45.827 28.0452 45.7333C28.1934 45.6395 28.3416 45.617 28.4552 45.6877L27.1911 44.8829Z" fill="#FCC901"/>
<path d="M28.7802 46.1193C28.7765 46.1138 28.7716 46.1066 28.7679 46.1012C28.7605 46.0904 28.7502 46.0755 28.7428 46.0647C28.7354 46.0539 28.7251 46.039 28.7177 46.0282C28.714 46.0228 28.709 46.0156 28.7053 46.0102C28.6979 45.9994 28.6629 45.948 28.6551 45.9372C28.6514 45.9318 28.5501 45.784 28.5427 45.7732C28.5188 45.738 28.4892 45.7092 28.455 45.6875C28.3414 45.6168 28.1932 45.6393 28.045 45.733C27.8968 45.8268 27.7491 45.9913 27.6367 46.2049C27.4111 46.6321 27.4123 47.0931 27.6391 47.2342C27.6721 47.2549 27.7083 47.2675 27.7466 47.2729C27.8845 47.2923 28.0224 47.3112 28.1599 47.3306C28.1294 47.3266 28.1006 47.3162 28.0743 47.3C27.894 47.1878 27.8931 46.8209 28.0722 46.4811C28.1619 46.3112 28.2793 46.1805 28.397 46.1057C28.5147 46.0314 28.6324 46.0134 28.723 46.0697C28.7506 46.0868 28.7736 46.1098 28.793 46.1377C28.7889 46.1319 28.7839 46.1247 28.7802 46.1193Z" fill="#FFAD0D"/>
<path d="M28.397 46.1057C28.5147 46.0314 28.6325 46.0134 28.723 46.0697C28.9033 46.1823 28.9041 46.5487 28.7251 46.8881C28.6353 47.0584 28.518 47.1891 28.3999 47.2635C28.2822 47.3378 28.1644 47.3558 28.0743 47.2995C27.894 47.1873 27.8931 46.8205 28.0722 46.4807C28.1615 46.3108 28.2789 46.1801 28.397 46.1057Z" fill="#404040"/>
<path d="M29.5725 46.9926C29.5593 46.9309 29.5322 46.8921 29.5194 46.8732C29.4852 46.8236 29.4305 46.7731 29.4045 46.7488C29.3259 46.6758 29.2876 46.6402 29.2473 46.6105C29.1543 46.5415 29.1341 46.5271 29.0843 46.4951L28.7793 46.2986C28.7093 46.2549 28.6179 46.2689 28.5269 46.3266C28.4359 46.3842 28.3446 46.4856 28.2754 46.6172C28.1367 46.8804 28.1375 47.1643 28.2771 47.2513L28.5821 47.4478C28.5944 47.4554 28.5953 47.4568 28.6072 47.4644C28.8003 47.5839 28.8233 47.5816 28.9534 47.633C29.067 47.6781 29.1382 47.688 29.2065 47.6686C29.286 47.6461 29.3457 47.5888 29.3683 47.5672C29.391 47.5456 29.4152 47.5167 29.4412 47.4816C29.4671 47.446 29.4885 47.4068 29.4963 47.3923C29.505 47.3761 29.5223 47.3423 29.5396 47.2955C29.5581 47.245 29.5676 47.1995 29.5676 47.1995C29.5774 47.1476 29.5799 47.1332 29.5811 47.0782C29.5816 47.0773 29.582 47.0359 29.5725 46.9926Z" fill="#666666"/>
<path d="M29.2923 46.9089C29.3648 46.8629 29.4376 46.8521 29.4932 46.8863C29.6044 46.9557 29.6048 47.1815 29.4945 47.3906C29.4393 47.4952 29.3668 47.5758 29.2944 47.6218C29.2219 47.6678 29.1495 47.6786 29.0939 47.6439C28.9828 47.5745 28.9824 47.3487 29.0927 47.1396C29.1474 47.035 29.2199 46.9548 29.2923 46.9089Z" fill="#212121"/>
<path d="M25.624 45.6389L26.5428 46.2194C26.5436 46.1883 26.5457 46.1558 26.5494 46.1229L25.6306 45.5425C25.6269 45.5754 25.6244 45.6074 25.624 45.6389Z" fill="#404040"/>
<path d="M25.7534 45.1176L26.6722 45.6981C26.6841 45.6724 26.6965 45.6467 26.7101 45.6215L25.7913 45.041C25.7777 45.0663 25.7649 45.0919 25.7534 45.1176Z" fill="#404040"/>
<path d="M25.6899 45.2783L26.6087 45.8587C26.6178 45.8317 26.6277 45.8042 26.6384 45.7772L25.7196 45.1963C25.7085 45.2238 25.6986 45.2513 25.6899 45.2783Z" fill="#404040"/>
<path d="M25.6445 45.4506L26.5633 46.0311C26.5691 46.0022 26.5757 45.9729 26.5835 45.9432L25.6647 45.3623C25.6569 45.392 25.6499 45.4213 25.6445 45.4506Z" fill="#404040"/>
<path d="M26.1729 44.6813L26.7677 45.0571L27.0801 44.8597L26.4853 44.4839L26.1729 44.6813Z" fill="#666666"/>
<path d="M26.3462 44.7731L26.6187 44.9452L26.9027 44.7654L26.6306 44.5933L26.3462 44.7731Z" fill="#424242"/>
<path d="M26.5257 44.752C26.5257 44.7412 26.5187 44.7281 26.51 44.7227L26.4549 44.688C26.4507 44.6853 26.4466 44.6848 26.4438 44.6866C26.4409 44.6884 26.4392 44.692 26.4392 44.6974C26.4392 44.7448 26.4088 44.7637 26.3717 44.7403L26.3647 44.7358C26.3598 44.7326 26.3548 44.7321 26.3515 44.7344C26.3482 44.7366 26.3462 44.7412 26.3462 44.7475V44.7731L26.6183 44.9453V44.9196C26.6183 44.9065 26.6101 44.8912 26.5998 44.8845L26.5928 44.88C26.5557 44.8565 26.5257 44.7993 26.5257 44.752Z" fill="#3D3D3D"/>
<path d="M26.794 44.543L26.7388 44.5083C26.7347 44.5056 26.7306 44.5051 26.7277 44.5069L26.6491 44.5565L26.6487 44.5561C26.6438 44.5529 26.6388 44.5525 26.6355 44.5547C26.6322 44.557 26.3511 44.7345 26.3511 44.7345C26.3544 44.7323 26.3589 44.7327 26.3642 44.7359L26.3712 44.7404C26.4087 44.7638 26.4388 44.7449 26.4388 44.6976C26.4388 44.6922 26.4404 44.6881 26.4433 44.6868C26.4462 44.685 26.4499 44.6854 26.4544 44.6881L26.5096 44.7228C26.5182 44.7282 26.5252 44.7413 26.5252 44.7521L26.8092 44.5723C26.8096 44.5615 26.8026 44.5484 26.794 44.543Z" fill="#4D4D4D"/>
<path d="M26.8769 44.7007C26.8395 44.6773 26.8094 44.6196 26.8094 44.5728L26.5254 44.7526C26.5254 44.7999 26.5559 44.8571 26.5929 44.881L26.5999 44.8855L26.8839 44.7057L26.8769 44.7007Z" fill="#666666"/>
<path d="M26.8841 44.7051L26.6001 44.8849C26.6104 44.8912 26.6186 44.907 26.6186 44.92V44.9435L26.9027 44.7659V44.7402C26.9027 44.7272 26.8944 44.7114 26.8841 44.7051Z" fill="#4D4D4D"/>
<path d="M26.9241 45.0244C26.8714 45.0577 26.8187 45.0996 26.7681 45.1501V45.0577L27.0805 44.8604V44.9527C27.0291 44.9667 26.9764 44.991 26.9241 45.0244Z" fill="#4D4D4D"/>
<path d="M26.7677 45.1498V45.057L26.1729 44.6812V44.7735L26.7677 45.1498Z" fill="#3D3D3D"/>
<path d="M29.393 47.3281C29.3383 47.4322 29.249 47.4885 29.1942 47.4538C29.139 47.4191 29.139 47.3065 29.1942 47.2024C29.249 47.0983 29.3383 47.0419 29.393 47.0766C29.4482 47.1113 29.4482 47.224 29.393 47.3281Z" fill="black"/>
<path d="M29.3674 47.1252C29.3266 47.0996 29.2608 47.1414 29.22 47.2185C29.1793 47.2956 29.1793 47.3794 29.22 47.4051C29.2608 47.4308 30.6801 48.328 30.6801 48.328L30.8275 48.0482C30.8275 48.0482 29.4081 47.1514 29.3674 47.1252Z" fill="#E3E3E3"/>
<path opacity="0.3" d="M29.582 47.6343C29.4021 47.5207 29.6454 47.3017 29.4696 47.1904L29.3667 47.1255C29.5425 47.2363 29.2992 47.4558 29.4791 47.5694L29.582 47.6343Z" fill="black"/>
<path opacity="0.3" d="M29.8569 47.8076C29.677 47.694 29.9203 47.475 29.7445 47.3637L29.6416 47.2988C29.8174 47.4097 29.5741 47.6292 29.754 47.7427L29.8569 47.8076Z" fill="black"/>
<path opacity="0.3" d="M30.1313 47.981C29.9514 47.8674 30.1947 47.6484 30.0189 47.5371L29.916 47.4722C30.0918 47.583 29.8485 47.8025 30.0284 47.9161L30.1313 47.981Z" fill="black"/>
<path opacity="0.3" d="M30.4057 48.1543C30.2258 48.0407 30.4691 47.8217 30.2933 47.7104L30.1904 47.6455C30.3662 47.7564 30.1229 47.9758 30.3028 48.0894L30.4057 48.1543Z" fill="black"/>
<path opacity="0.3" d="M30.6801 48.3281C30.5002 48.2146 30.7435 47.9955 30.5678 47.8842L30.4648 47.8193C30.6406 47.9302 30.3973 48.1497 30.5772 48.2632L30.6801 48.3281Z" fill="black"/>
<path d="M30.8273 48.2347C30.7866 48.3117 30.7207 48.3536 30.68 48.3279C30.6392 48.3023 30.6392 48.2189 30.68 48.1414C30.7207 48.0643 30.7866 48.0224 30.8273 48.0481C30.8681 48.0738 30.8681 48.1576 30.8273 48.2347Z" fill="#C9C9C9"/>
<defs>
<linearGradient id="paint0_linear_456_13148" x1="25.9754" y1="47.6373" x2="27.5138" y2="47.6373" gradientUnits="userSpaceOnUse">
<stop offset="0.5535" stop-color="#666666"/>
<stop offset="0.6539" stop-color="#5A5A5A"/>
<stop offset="0.8583" stop-color="#474747"/>
<stop offset="1" stop-color="#404040"/>
</linearGradient>
</defs>
</svg>
