<svg width="56" height="45" viewBox="0 0 56 45" fill="none" xmlns="http://www.w3.org/2000/svg">
<path opacity="0.4" fill-rule="evenodd" clip-rule="evenodd" d="M27.8505 10.9985C43.1157 10.9985 55.4963 18.1848 55.4963 27.0466C55.4963 35.9084 43.1163 43.0947 27.8505 43.0947C12.5847 43.0947 0.204102 35.9084 0.204102 27.0466C0.204102 18.1848 12.5847 10.9985 27.8505 10.9985Z" fill="#D2D2E1"/>
<path fill-rule="evenodd" clip-rule="evenodd" d="M35.6262 7.57324H18.8608C18.9195 8.57223 20.3578 19.5208 20.3578 18.8889C20.3874 21.4531 23.4544 23.5196 27.233 23.5196C29.7544 23.5196 34.0601 22.315 34.1088 18.7006L35.6262 7.57324Z" fill="#C18B21"/>
<path fill-rule="evenodd" clip-rule="evenodd" d="M23.8398 22.9131C23.971 18.1857 28.8472 13.4295 34.8408 12.23L34.9943 12.2012L34.1082 18.7C34.0594 22.3144 29.7531 23.519 27.2323 23.519C25.9989 23.5197 24.8413 23.2997 23.8398 22.9131Z" fill="#D39F25"/>
<path d="M25.0344 13.8619C24.9553 13.8085 24.9309 13.6945 24.9797 13.6087C25.0285 13.5222 25.1319 13.4955 25.211 13.5488C29.3532 16.3619 39.3198 18.2474 34.9799 10.1018C34.9331 10.0138 34.9601 9.90054 35.0405 9.84933C35.1209 9.79812 35.2243 9.82769 35.2711 9.91569C40.1822 19.123 29.8039 17.3876 25.0344 13.8619Z" fill="#3E3E3D"/>
<path d="M25.0344 13.6119C24.9553 13.5585 24.9309 13.4453 24.9797 13.3587C25.0285 13.2722 25.1319 13.2455 25.211 13.2988C29.3532 16.1119 39.3198 17.9974 34.9799 9.85178C34.9331 9.76379 34.9601 9.65054 35.0405 9.59933C35.1209 9.54812 35.2243 9.57769 35.2711 9.66569C40.1822 18.8737 29.8039 17.1383 25.0344 13.6119Z" fill="#585857"/>
<path fill-rule="evenodd" clip-rule="evenodd" d="M28.4876 1.26493C33.748 1.65515 37.4554 4.6752 36.7662 8.00758C36.077 11.3414 31.2522 13.7282 25.9919 13.3379C20.7328 12.9477 17.0261 9.92839 17.7153 6.59385C18.4044 3.26147 23.2286 0.874708 28.4876 1.26493Z" fill="#D39F25"/>
<path fill-rule="evenodd" clip-rule="evenodd" d="M28.4876 0.950475C33.748 1.34069 37.4554 4.36075 36.7662 7.69313C36.077 11.0269 31.2522 13.4137 25.9919 13.0235C20.7328 12.6333 17.0261 9.61393 17.7153 6.28011C18.4044 2.94702 23.2286 0.560255 28.4876 0.950475Z" fill="#EDC52E"/>
<path fill-rule="evenodd" clip-rule="evenodd" d="M28.3289 1.79767C32.9198 2.13812 36.1555 4.77373 35.5539 7.68271C34.9524 10.5924 30.7416 12.6755 26.1507 12.3343C21.5604 11.9939 18.3254 9.35827 18.9276 6.44858C19.5285 3.54032 23.7393 1.45722 28.3289 1.79767Z" fill="#D39F25"/>
<path fill-rule="evenodd" clip-rule="evenodd" d="M30.4736 2.77066C31.3097 2.70069 32.0819 2.79518 32.7605 3.02527C34.492 3.97017 35.5719 5.35433 35.6239 6.87193C35.6259 6.94262 35.6253 7.01403 35.6239 7.08616C35.618 7.28307 35.5956 7.48143 35.5548 7.68122C34.9532 10.5909 30.7424 12.674 26.1515 12.3328C25.6943 12.2989 25.2508 12.2412 24.8232 12.1633C24.0273 11.2834 23.6393 10.0644 23.8363 8.67589C24.2599 5.68829 27.2327 3.04331 30.4736 2.77066Z" fill="#C18B21"/>
<path fill-rule="evenodd" clip-rule="evenodd" d="M28.3289 5.23863C31.5929 5.48099 34.1703 6.88246 35.1725 8.71743C33.9074 11.0681 30.1757 12.6326 26.1507 12.334C22.888 12.0916 20.3112 10.6894 19.3091 8.85376C20.5734 6.50378 24.3052 4.94002 28.3289 5.23863Z" fill="#8E8E8E"/>
<path fill-rule="evenodd" clip-rule="evenodd" d="M34.2878 27.1963L24.594 33.3309L19.7461 30.2604V27.0903L29.3819 21.0415L34.2891 24.0262L34.2878 27.1963Z" fill="#90452E"/>
<path fill-rule="evenodd" clip-rule="evenodd" d="M34.2891 24.0262L24.594 30.1536L19.7461 27.0903L29.4406 20.9614L34.2891 24.0262Z" fill="#B84F32"/>
<path fill-rule="evenodd" clip-rule="evenodd" d="M24.5953 30.1537V33.331L19.7461 30.2741V27.0903L24.5953 30.1537Z" fill="#60221D"/>
<path fill-rule="evenodd" clip-rule="evenodd" d="M24.4141 33.4402L14.7203 39.5741L9.87305 36.5035V33.3334L19.5089 27.2847L24.4161 30.2694L24.4141 33.4402Z" fill="#90452E"/>
<path fill-rule="evenodd" clip-rule="evenodd" d="M24.4161 30.2696L14.7203 36.3977L9.87305 33.3337L19.5675 27.2056L24.4161 30.2696Z" fill="#B84F32"/>
<path fill-rule="evenodd" clip-rule="evenodd" d="M14.7223 36.3973V39.5746L9.87305 36.5185V33.334L14.7223 36.3973Z" fill="#60221D"/>
<path fill-rule="evenodd" clip-rule="evenodd" d="M0.001317 36.6128L9.69512 42.7467L14.543 39.6761V36.5068L4.90719 30.458L0 33.442L0.001317 36.6128Z" fill="#60221D"/>
<path fill-rule="evenodd" clip-rule="evenodd" d="M0 33.4425L9.69512 39.5706L14.543 36.5073L4.84855 30.3784L0 33.4425Z" fill="#B84F32"/>
<path fill-rule="evenodd" clip-rule="evenodd" d="M9.69385 39.5699V42.7472L14.5431 39.6911V36.5073L9.69385 39.5699Z" fill="#90452E"/>
<path fill-rule="evenodd" clip-rule="evenodd" d="M29.2949 26.9927L19.6018 33.1273L14.7539 30.0567V26.8867L24.3897 20.8379L29.2969 23.8226L29.2949 26.9927Z" fill="#90452E"/>
<path fill-rule="evenodd" clip-rule="evenodd" d="M29.2969 23.8226L19.6018 29.95L14.7539 26.8866L24.4484 20.7578L29.2969 23.8226Z" fill="#B84F32"/>
<path fill-rule="evenodd" clip-rule="evenodd" d="M19.6031 29.9501V33.1274L14.7539 30.0712V26.8867L19.6031 29.9501Z" fill="#60221D"/>
<path fill-rule="evenodd" clip-rule="evenodd" d="M14.3919 30.0641L4.6988 36.198L0.015625 33.232V30.062L9.65145 24.0132L14.3939 26.894L14.3919 30.0641Z" fill="#90452E"/>
<path fill-rule="evenodd" clip-rule="evenodd" d="M14.3939 26.894L4.6988 33.0214L0.015625 30.0619L9.71009 23.9331L14.3939 26.894Z" fill="#B84F32"/>
<path fill-rule="evenodd" clip-rule="evenodd" d="M4.70012 33.0215V36.1981L0.015625 33.2458V30.062L4.70012 33.0215Z" fill="#60221D"/>
<path fill-rule="evenodd" clip-rule="evenodd" d="M19.4219 33.2368L9.72809 39.3707L4.88086 36.3002V33.1301L14.5167 27.082L19.4239 30.0667L19.4219 33.2368Z" fill="#90452E"/>
<path fill-rule="evenodd" clip-rule="evenodd" d="M19.4239 30.0667L9.72809 36.1941L4.88086 33.1301L14.5753 27.002L19.4239 30.0667Z" fill="#B84F32"/>
<path fill-rule="evenodd" clip-rule="evenodd" d="M9.73007 36.1944V39.371L4.88086 36.3149V33.1304L9.73007 36.1944Z" fill="#60221D"/>
<path fill-rule="evenodd" clip-rule="evenodd" d="M24.4141 26.6983L14.7203 32.8329L9.87305 29.7616V26.5922L19.5089 20.5435L24.4161 23.5282L24.4141 26.6983Z" fill="#90452E"/>
<path fill-rule="evenodd" clip-rule="evenodd" d="M24.4161 23.5282L14.7203 29.6555L9.87305 26.5922L19.5675 20.4634L24.4161 23.5282Z" fill="#B84F32"/>
<path fill-rule="evenodd" clip-rule="evenodd" d="M14.7223 29.6556V32.8329L9.87305 29.7761V26.5923L14.7223 29.6556Z" fill="#60221D"/>
<path fill-rule="evenodd" clip-rule="evenodd" d="M0.001317 29.8726L9.69512 36.0065L14.543 32.9359V29.7658L4.90719 23.7178L0 26.7018L0.001317 29.8726Z" fill="#60221D"/>
<path fill-rule="evenodd" clip-rule="evenodd" d="M0 26.7017L9.69512 32.8299L14.543 29.7658L4.84855 23.6377L0 26.7017Z" fill="#B84F32"/>
<path fill-rule="evenodd" clip-rule="evenodd" d="M9.69385 32.8294V36.0067L14.5431 32.9506V29.7661L9.69385 32.8294Z" fill="#90452E"/>
<path d="M52.9578 14.4487L52.9513 14.453L46.8627 18.3221C46.2355 18.7202 45.7736 16.7799 46.19 16.5152L52.3444 12.5993C52.4354 12.5358 52.5507 12.5387 52.6759 12.6217C52.9684 12.8135 53.2049 13.3689 53.2049 13.8601C53.2049 14.1761 53.1054 14.3881 52.9578 14.4487Z" fill="#D39F25"/>
<path fill-rule="evenodd" clip-rule="evenodd" d="M45.9365 17.1059C45.9365 17.5971 46.1737 18.1525 46.4662 18.345C46.7588 18.5376 46.996 18.2946 46.996 17.8034C46.996 17.3114 46.7588 16.7568 46.4662 16.5642C46.1737 16.3716 45.9365 16.6139 45.9365 17.1059Z" fill="#C18B21"/>
<path d="M46.5073 16.4551L52.3389 12.7441C52.5609 12.6027 52.6907 12.7397 52.5254 12.845L46.6727 16.5698C46.643 16.5409 46.6114 16.5157 46.5798 16.4948C46.5548 16.4775 46.531 16.4652 46.5073 16.4551Z" fill="#EDC52E"/>
<path fill-rule="evenodd" clip-rule="evenodd" d="M48.2259 23.7652L42.7244 19.5521C42.0814 19.0595 41.2585 19.2095 40.9192 19.8818L35.1541 26.5285C34.7562 26.9879 36.0798 27.9263 36.8019 27.7424L48.0671 24.8731C48.5448 24.7512 48.6673 24.1035 48.2259 23.7652Z" fill="#666666"/>
<path fill-rule="evenodd" clip-rule="evenodd" d="M48.2083 23.5889L42.7069 19.3759C42.0638 18.8832 41.3793 19.1544 40.9016 19.7055L35.1366 26.3522C34.7386 26.8109 36.0623 27.7501 36.7844 27.5661L48.0502 24.6968C48.5266 24.5749 48.6504 23.9272 48.2083 23.5889Z" fill="url(#paint0_linear_455_4875)"/>
<path d="M46.2376 17.2785C46.3562 17.1998 46.5097 17.2417 46.5815 17.3715C46.6533 17.5013 46.6151 17.6701 46.4965 17.748L45.5161 18.395L44.9587 21.5391C44.9429 21.6286 44.8902 21.7 44.8197 21.7361L43.4855 22.4292C43.1917 22.5821 43.0349 22.4206 43.3024 22.2172L44.487 21.317L45.0451 18.1714C45.0582 18.0979 45.0984 18.0293 45.1617 17.9875L46.2376 17.2785Z" fill="#666666"/>
<path fill-rule="evenodd" clip-rule="evenodd" d="M25.5337 43.9367L26.7414 44.6991V41.1957L25.5337 40.4326V43.9367Z" fill="#363636"/>
<path fill-rule="evenodd" clip-rule="evenodd" d="M26.7407 44.6992L50.6837 29.5744V26.0703L26.7414 41.1958L26.7407 44.6992Z" fill="#D39F25"/>
<path fill-rule="evenodd" clip-rule="evenodd" d="M26.7407 44.6994L26.9628 44.5595V41.0562L26.7414 41.1961L26.7407 44.6994Z" fill="#4D4D4D"/>
<path fill-rule="evenodd" clip-rule="evenodd" d="M25.5342 40.4328L26.7412 41.196L50.6842 26.0704L49.4699 25.3188L25.5342 40.4328Z" fill="#EDC52E"/>
<path fill-rule="evenodd" clip-rule="evenodd" d="M25.5337 40.4327L26.7414 41.1958L26.9628 41.0559V41.0551L25.7544 40.2935L25.5337 40.4327Z" fill="#666666"/>
<path fill-rule="evenodd" clip-rule="evenodd" d="M35.9785 33.838L37.1954 34.5888L41.0715 32.1393L39.8065 31.4209L35.9785 33.838Z" fill="#585857"/>
<path fill-rule="evenodd" clip-rule="evenodd" d="M37.2075 34.5819V35.6588C37.2075 35.7216 37.2358 35.7757 37.2859 35.8067C37.336 35.8377 37.3927 35.8377 37.4421 35.806L40.8405 33.6255C40.9881 33.531 41.0717 33.3702 41.0717 33.1834V32.1396L37.2075 34.5819Z" fill="#222221"/>
<path fill-rule="evenodd" clip-rule="evenodd" d="M37.4434 34.4339V35.2569C37.4434 35.2886 37.4572 35.3161 37.4822 35.3312C37.5073 35.3471 37.5356 35.3471 37.5606 35.3305L40.6836 33.3195C40.7811 33.2568 40.8378 33.1493 40.8378 33.0252V32.2866L37.4434 34.4339Z" fill="#7C9A3F"/>
<path fill-rule="evenodd" clip-rule="evenodd" d="M36.2241 33.6823L37.4404 34.4338L40.8408 32.2916L39.5705 31.5703L36.2241 33.6823Z" fill="#99BB57"/>
<path fill-rule="evenodd" clip-rule="evenodd" d="M50.4624 29.7143L50.6844 29.5744V26.0703L50.4624 26.211V29.7143Z" fill="#4D4D4D"/>
<path fill-rule="evenodd" clip-rule="evenodd" d="M49.2554 25.4478L50.4624 26.2109L50.6844 26.0703L49.4754 25.3086L49.2554 25.4478Z" fill="#666666"/>
<path fill-rule="evenodd" clip-rule="evenodd" d="M37.0004 34.1615L39.4355 32.5934C39.533 32.5306 39.589 32.4231 39.589 32.2991V31.5807L39.5719 31.5713L36.2295 33.6861L37.0004 34.1615Z" fill="#BDDE7B"/>
<path fill-rule="evenodd" clip-rule="evenodd" d="M39.6067 32.3901L36.8823 34.088L37.4437 34.4342V34.6924L39.9803 33.1114C40.4158 32.8394 40.0435 32.1174 39.6067 32.3901Z" fill="#DBF6A5"/>
<path fill-rule="evenodd" clip-rule="evenodd" d="M38.5882 33.1413L37.9188 33.5582C37.5189 33.807 37.789 34.3444 38.1817 34.0991L38.8636 33.6743C39.1865 33.4738 38.9117 32.94 38.5882 33.1413Z" fill="white"/>
<path fill-rule="evenodd" clip-rule="evenodd" d="M29.7028 41.2804C29.6567 42.055 29.3003 42.816 28.9076 42.9805C28.5143 43.1449 28.2323 42.6501 28.2784 41.8754C28.3245 41.1008 28.6809 40.3398 29.0743 40.1753C29.467 40.0116 29.7483 40.5064 29.7028 41.2804Z" fill="#4D4D4D"/>
<path fill-rule="evenodd" clip-rule="evenodd" d="M29.6042 41.3212C29.5647 41.9884 29.2576 42.6441 28.919 42.7862C28.5803 42.9276 28.3372 42.5013 28.3774 41.8341C28.4169 41.1669 28.724 40.5112 29.0626 40.3698C29.4013 40.2285 29.6437 40.6548 29.6042 41.3212Z" fill="#7C9A3F"/>
<path fill-rule="evenodd" clip-rule="evenodd" d="M29.1436 42.2607L29.1495 40.3457C29.1212 40.3493 29.0922 40.3572 29.0619 40.3695C28.7456 40.5015 28.4584 41.0807 28.3885 41.6988L28.3872 42.2153C28.401 42.3264 28.4248 42.4245 28.457 42.5081C28.6442 42.788 29.1429 42.7079 29.1436 42.2607Z" fill="#DBF6A5"/>
<path fill-rule="evenodd" clip-rule="evenodd" d="M49.5768 28.7157C49.5307 29.4903 49.1743 30.2513 48.7816 30.4158C48.3882 30.5802 48.1062 30.0854 48.153 29.3107C48.1991 28.5361 48.5556 27.7751 48.9483 27.6106C49.3409 27.4462 49.6229 27.941 49.5768 28.7157Z" fill="#4D4D4D"/>
<path fill-rule="evenodd" clip-rule="evenodd" d="M49.4781 28.7565C49.4386 29.4237 49.1315 30.0794 48.7929 30.2215C48.4542 30.3629 48.2118 29.9366 48.2513 29.2694C48.2908 28.6022 48.5979 27.9465 48.9365 27.8052C49.2752 27.6631 49.5176 28.0893 49.4781 28.7565Z" fill="#7C9A3F"/>
<path fill-rule="evenodd" clip-rule="evenodd" d="M48.4678 29.9879L49.3691 28.0174C49.2716 27.8169 49.1174 27.7281 48.9356 27.8046C48.5963 27.9467 48.2899 28.6023 48.2504 29.2688C48.2286 29.6323 48.2912 29.9238 48.4065 30.0918C48.4296 30.0615 48.45 30.0276 48.4678 29.9879Z" fill="#DBF6A5"/>
<defs>
<linearGradient id="paint0_linear_455_4875" x1="42.3216" y1="27.2588" x2="39.5253" y2="19.0012" gradientUnits="userSpaceOnUse">
<stop stop-color="#848484"/>
<stop offset="1" stop-color="white"/>
</linearGradient>
</defs>
</svg>
