<svg width="29" height="56" viewBox="0 0 29 56" fill="none" xmlns="http://www.w3.org/2000/svg">
<path opacity="0.4" fill-rule="evenodd" clip-rule="evenodd" d="M14.3937 33.8882C22.0639 33.8882 28.2847 37.4988 28.2847 41.9516C28.2847 46.4044 22.0639 50.0154 14.3937 50.0154C6.72322 50.0154 0.502441 46.4044 0.502441 41.9516C0.502441 37.4988 6.72322 33.8882 14.3937 33.8882Z" fill="#D2D2E1"/>
<path fill-rule="evenodd" clip-rule="evenodd" d="M6.34184 45.9281V10.2256L5.66211 9.79883L5.66358 45.4986L6.34184 45.9281Z" fill="#AFAFAF"/>
<path fill-rule="evenodd" clip-rule="evenodd" d="M20.5789 1.24414L6.34131 10.2255L6.34168 45.9277L20.583 36.9435L20.5789 1.24414Z" fill="#EFD0D0"/>
<path fill-rule="evenodd" clip-rule="evenodd" d="M20.5791 1.24426L6.34148 10.2257L5.66211 9.79893L19.8795 0.815918L20.5791 1.24426Z" fill="#E3E3E3"/>
<path fill-rule="evenodd" clip-rule="evenodd" d="M13.486 42.8885L21.3112 37.9429L11.96 41.3587L13.486 42.8885Z" fill="#E3E3E3"/>
<path fill-rule="evenodd" clip-rule="evenodd" d="M21.1286 1.54785L14.798 5.50494C13.5565 7.02994 11.4008 15.2212 11.1702 17.0225V40.9901C11.1142 43.3218 14.1419 44.0328 14.1415 41.2878L21.1286 38.0583V1.54785Z" fill="#F0CA30"/>
<path fill-rule="evenodd" clip-rule="evenodd" d="M20.2603 12.3537C20.4416 12.459 20.0028 13.2277 19.7195 13.0744C19.3002 12.6876 19.0107 12.8623 18.7966 12.6893C18.6997 12.6163 18.0528 11.8289 17.9868 11.5712C17.8866 11.4236 18.9197 10.8852 19.0943 10.9315C19.3179 11.1219 19.7346 11.712 19.7902 11.8741C19.9225 12.2609 19.8495 12.1145 20.2603 12.3537Z" fill="#7E7E7E"/>
<path fill-rule="evenodd" clip-rule="evenodd" d="M18.8494 11.073L18.5447 10.4389C18.4673 10.278 18.6475 10.1978 18.7396 10.349L19.0948 10.9318C19.1832 11.0774 18.9297 11.2408 18.8494 11.073Z" fill="#7E7E7E"/>
<path fill-rule="evenodd" clip-rule="evenodd" d="M18.7286 11.2303C18.6552 11.2699 18.5661 11.2364 18.5304 11.1565L18.1896 10.3987C18.1034 10.2067 18.3027 10.1018 18.4021 10.2857L18.796 11.0129C18.8372 11.09 18.8015 11.1908 18.7286 11.2303Z" fill="#7E7E7E"/>
<path fill-rule="evenodd" clip-rule="evenodd" d="M18.4634 11.4063C18.3887 11.4422 18.294 11.4084 18.259 11.3188L17.9267 10.4654C17.843 10.2504 18.0578 10.1371 18.1518 10.3464L18.5246 11.1752C18.564 11.2632 18.5364 11.3668 18.4634 11.4063Z" fill="#7E7E7E"/>
<path fill-rule="evenodd" clip-rule="evenodd" d="M17.961 11.5286L17.6571 10.7449C17.5804 10.5481 17.8 10.4356 17.8862 10.6275L18.227 11.3854C18.3151 11.5822 18.0351 11.7194 17.961 11.5286Z" fill="#7E7E7E"/>
<path fill-rule="evenodd" clip-rule="evenodd" d="M19.2614 12.6993C19.1512 12.7736 18.9386 12.7748 18.7309 12.6937C18.5234 12.6126 18.3035 12.4864 18.221 12.4448C18.0069 12.338 18.0471 12.3077 17.833 12.2C17.8816 12.0629 17.99 11.9011 18.354 12.1274C18.4438 12.1327 18.4833 12.0705 18.7401 12.2694C19.2743 11.9435 19.4798 12.5634 19.2614 12.6993Z" fill="#7E7E7E"/>
<path fill-rule="evenodd" clip-rule="evenodd" d="M14.7978 5.50488C13.2003 7.72119 11.4407 13.4029 11.1699 17.0745C11.6621 14.746 12.7659 10.5808 15.1514 8.77833C13.5215 7.83977 14.4293 5.90499 14.7978 5.50488Z" fill="white"/>
<path fill-rule="evenodd" clip-rule="evenodd" d="M22.4334 43.9622C22.0318 44.2724 22.2761 45.2041 22.6994 45.3606C23.6606 45.7163 24.3849 46.1584 25.019 46.3838C25.2437 46.4637 25.7787 46.5371 26.0045 46.0809C26.0609 45.9051 25.7079 45.2573 25.7079 45.2573C24.5783 45.3908 22.9333 43.6601 22.4334 43.9622Z" fill="#9B9B9A"/>
<path fill-rule="evenodd" clip-rule="evenodd" d="M23.7504 44.0367C23.2534 44.1742 22.8304 43.7919 22.6643 43.8209C22.5316 43.8423 22.3482 43.9919 22.3098 44.2182C22.2454 44.5969 22.4366 44.9773 22.7457 45.1459C23.0773 45.327 23.4556 45.2439 24.0175 45.4915C24.3266 45.6278 25.0822 46.1098 25.3674 46.1147C25.6533 46.1191 25.8957 45.9154 25.9237 45.6831C25.9023 44.2791 24.7027 43.7733 23.7504 44.0367Z" fill="#3E3E3D"/>
<path fill-rule="evenodd" clip-rule="evenodd" d="M22.8222 38.131C22.7408 37.8684 22.4078 36.8536 22.3621 36.485C21.3585 32.2447 21.1459 30.9085 21.4635 28.2768C22.2678 27.9795 24.1869 28.8834 24.9112 28.0908C26.4048 29.7267 24.5129 35.6343 24.9642 37.6885C24.6393 38.2871 23.5395 38.8182 22.8222 38.131Z" fill="#314A8D"/>
<path fill-rule="evenodd" clip-rule="evenodd" d="M25.8629 45.1993C25.1769 45.9044 24.457 45.6728 24.0418 44.6726C24.0256 43.0798 23.2748 40.0246 22.7752 37.9769C22.4827 36.7128 24.3377 36.0522 24.9805 37.6885C25.776 39.5071 25.7844 44.4612 25.8629 45.1993Z" fill="#314A8D"/>
<path fill-rule="evenodd" clip-rule="evenodd" d="M18.4002 45.598C17.9986 45.9081 18.2429 46.8398 18.6665 46.9963C19.6278 47.3521 20.3517 47.7941 20.9861 48.0196C21.2109 48.0994 21.7458 48.1728 21.972 47.7167C22.028 47.5408 21.6758 46.8931 21.6758 46.8931C20.5455 47.0266 18.9001 45.2959 18.4002 45.598Z" fill="#9B9B9A"/>
<path fill-rule="evenodd" clip-rule="evenodd" d="M19.7172 45.673C19.2172 45.7988 18.7972 45.4282 18.6311 45.4572C18.4984 45.4786 18.315 45.6282 18.2766 45.8545C18.2122 46.2332 18.4034 46.6135 18.7125 46.7821C19.0441 46.9632 19.4224 46.8801 19.9843 47.1278C20.2934 47.2641 21.049 47.7461 21.3338 47.7505C21.6197 47.7554 21.8621 47.5513 21.8901 47.319C21.8691 45.915 20.8257 45.3939 19.7172 45.673Z" fill="#3E3E3D"/>
<path fill-rule="evenodd" clip-rule="evenodd" d="M19.7844 39.1901C19.7347 38.9211 19.612 38.3104 19.6109 37.9414C19.1212 33.6362 19.248 31.2904 19.8831 28.7317C20.722 28.5357 23.1241 29.3226 23.9431 28.6284C25.6404 30.9827 21.723 36.0046 22.1331 39.0154C21.7367 39.5668 20.4173 39.9544 19.7844 39.1901Z" fill="#4165BD"/>
<path fill-rule="evenodd" clip-rule="evenodd" d="M21.8044 46.5855C21.0197 47.2034 20.4306 46.7593 20.1723 45.7147C20.3985 44.1296 19.924 41.0163 19.742 38.921C19.6455 37.6291 21.7458 37.3117 22.1319 39.0153C22.3467 40.6057 21.839 45.8425 21.8044 46.5855Z" fill="#4165BD"/>
<path fill-rule="evenodd" clip-rule="evenodd" d="M23.7052 15.7805C22.9352 16.0802 20.1183 13.5835 19.2967 12.8297C19.1309 12.3671 19.4315 11.8859 19.8044 12.0529C20.2119 12.1537 22.6939 13.0786 24.021 13.9328C24.725 14.4213 24.1871 15.2215 23.7052 15.7805Z" fill="#DE7E32"/>
<path fill-rule="evenodd" clip-rule="evenodd" d="M26.2361 20.1711C26.1035 21.4319 24.0952 21.3548 23.3473 19.2305C23.3355 19.1712 22.6646 16.7492 22.3076 14.7249C22.3776 14.0763 23.6903 13.4233 24.3063 14.2626C25.0792 15.3149 26.5375 17.3074 26.2361 20.1711Z" fill="#DE7E32"/>
<path fill-rule="evenodd" clip-rule="evenodd" d="M22.1325 18.5713C21.9958 18.6124 21.169 19.0436 20.5656 19.897C20.1246 20.5258 20.1481 21.9302 20.1662 22.1158C20.2211 22.7135 20.0888 25.6542 19.9521 28.3327C20.2111 29.2189 24.0427 29.0398 25.2051 27.9665C25.2158 26.7743 25.8366 24.2091 25.9526 23.5428C26.0679 22.8748 26.6084 19.2223 25.8063 18.0014C25.6218 17.7199 24.9955 17.4262 24.7099 17.4625C23.6901 17.5892 22.3023 18.5201 22.1325 18.5713Z" fill="#CB6117"/>
<path fill-rule="evenodd" clip-rule="evenodd" d="M21.2744 19.1272C22.1295 18.8142 23.6327 20.7523 24.3006 23.9265C24.6466 24.0531 24.7354 23.6454 25.0813 23.5413C24.5161 20.9148 23.2974 18.3637 22.1328 18.5714C21.6638 18.7743 21.6373 18.7509 21.2744 19.1272Z" fill="#4165BD"/>
<path fill-rule="evenodd" clip-rule="evenodd" d="M24.644 17.4717C25.5194 17.4415 25.4571 18.6801 25.4527 19.5017C25.4454 20.8541 25.0917 22.3763 24.6938 23.7105C24.9893 23.8371 25.0688 23.3878 25.456 23.2838C25.928 22.0964 25.97 20.8492 26.1041 19.682C26.2441 18.4639 25.8661 17.4641 25.0607 17.3286C24.9119 17.3044 24.644 17.4717 24.644 17.4717Z" fill="#4165BD"/>
<path fill-rule="evenodd" clip-rule="evenodd" d="M23.1816 28.9092C23.7203 27.4423 24.3219 25.7282 24.2994 23.8139C24.6947 23.6046 25.0901 23.3949 25.4857 23.1855C25.5694 24.3592 25.4714 26.409 25.2046 27.9666C24.6163 28.7689 23.9317 29.0254 23.1816 28.9092Z" fill="#314A8D"/>
<path fill-rule="evenodd" clip-rule="evenodd" d="M21.8604 19.3439C24.8118 21.3098 18.6142 24.3319 17.5466 24.7256C16.7662 24.9406 16.477 23.708 17.2146 22.9957C18.7664 21.5909 20.7194 18.5837 21.8604 19.3439Z" fill="#DE7E32"/>
<path fill-rule="evenodd" clip-rule="evenodd" d="M19.8623 28.8169C20.6113 29.5316 24.1761 30.1725 25.1812 28.6447C25.1694 28.4668 25.2166 28.1446 25.2051 27.9663C24.0664 28.8722 21.2207 29.1174 19.9526 28.3325C19.922 28.4943 19.8921 28.6556 19.8623 28.8169Z" fill="#314A8D"/>
<path fill-rule="evenodd" clip-rule="evenodd" d="M13.6823 23.1264C13.8687 23.2199 14.1605 22.3717 13.8776 22.2185C13.3422 22.0882 13.2932 21.7308 13.0379 21.649C12.9259 21.609 11.9618 21.5235 11.7348 21.6231C11.5668 21.6256 11.803 22.8509 11.9426 22.9751C12.2167 23.0546 12.8979 23.0586 13.0493 23.0082C13.41 22.8888 13.2593 22.9138 13.6823 23.1264Z" fill="#7E7E7E"/>
<path fill-rule="evenodd" clip-rule="evenodd" d="M11.8955 22.676L11.2504 22.7958C11.0868 22.826 11.1377 23.0313 11.3035 23.02L11.9419 22.9753C12.1011 22.964 12.0661 22.6445 11.8955 22.676Z" fill="#7E7E7E"/>
<path fill-rule="evenodd" clip-rule="evenodd" d="M11.9365 22.4751C11.9207 22.3875 11.8426 22.3303 11.7626 22.3472L11.0059 22.5106C10.8143 22.5517 10.8589 22.7893 11.0531 22.7643L11.8201 22.6654C11.9008 22.6554 11.9524 22.5626 11.9365 22.4751Z" fill="#7E7E7E"/>
<path fill-rule="evenodd" clip-rule="evenodd" d="M11.9038 22.1377C11.8843 22.051 11.8025 21.9889 11.7163 22.0131L10.8951 22.2418C10.6884 22.2995 10.7363 22.5552 10.9456 22.51L11.7738 22.3313C11.8607 22.3124 11.9193 22.2252 11.9038 22.1377Z" fill="#7E7E7E"/>
<path fill-rule="evenodd" clip-rule="evenodd" d="M11.6875 21.6265L10.9341 21.8375C10.7447 21.8903 10.7963 22.1496 10.9879 22.1081L11.7446 21.9448C11.9414 21.9024 11.871 21.5753 11.6875 21.6265Z" fill="#7E7E7E"/>
<path fill-rule="evenodd" clip-rule="evenodd" d="M13.3263 22.0482C13.3134 21.907 13.1852 21.7215 13.0003 21.59C12.8153 21.4585 12.5902 21.3439 12.5099 21.2972C12.3025 21.1762 12.3047 21.229 12.0969 21.1084C12.0269 21.2342 11.975 21.4262 12.3603 21.6057C12.4189 21.6807 12.3975 21.7525 12.6978 21.8554C12.7858 22.518 13.3606 22.3208 13.3263 22.0482Z" fill="#7E7E7E"/>
<path fill-rule="evenodd" clip-rule="evenodd" d="M17.5462 24.7253C16.7931 25.0726 14.1033 23.621 13.2441 22.9196C13.0548 22.4683 13.2257 21.8169 13.6067 21.9601C14.0189 22.0355 16.6789 22.6228 17.8166 22.9918C18.5446 23.4363 17.9986 24.1377 17.5462 24.7253Z" fill="#DE7E32"/>
<path fill-rule="evenodd" clip-rule="evenodd" d="M6.81055 32.3418C7.23497 32.6161 7.72681 32.8903 8.08418 33.5453C7.78133 37.865 7.54444 41.8193 8.08418 46.337C7.70286 46.0829 7.32154 45.8288 6.9406 45.5751C6.89712 41.1643 6.85402 36.753 6.81055 32.3418Z" fill="#D39F25"/>
<path fill-rule="evenodd" clip-rule="evenodd" d="M4.3107 33.125H7.42312V45.7925C7.52038 46.3277 6.92133 46.8097 6.0747 46.873C5.2196 46.9363 4.43523 46.5483 4.32323 46.0062C4.31991 45.9897 4.31697 45.9727 4.31476 45.9558H4.31033V45.8909C4.30997 45.8788 4.30997 45.8671 4.31033 45.8554L4.3107 33.125Z" fill="url(#paint0_linear_455_4874)"/>
<path fill-rule="evenodd" clip-rule="evenodd" d="M5.66978 32.1421C4.81468 32.2054 4.21194 32.6963 4.32394 33.238C4.43594 33.78 5.22031 34.168 6.07541 34.1043C6.93015 34.041 7.53288 33.5501 7.42088 33.0081C7.30888 32.4664 6.52488 32.0784 5.66978 32.1421Z" fill="#F0CA30"/>
<path fill-rule="evenodd" clip-rule="evenodd" d="M5.6841 32.2119C4.89015 32.2708 4.33089 32.7265 4.43479 33.2295C4.53868 33.7324 5.26705 34.093 6.06063 34.0337C6.8542 33.9748 7.41383 33.5191 7.30957 33.0161C7.20568 32.5132 6.47768 32.153 5.6841 32.2119Z" fill="#D39F25"/>
<path fill-rule="evenodd" clip-rule="evenodd" d="M5.69928 32.2851C4.96907 32.3391 4.45475 32.7582 4.55054 33.2208C4.64596 33.6834 5.31575 34.0146 6.04596 33.9605C6.7758 33.9065 7.29012 33.4874 7.19469 33.0244C7.09854 32.5622 6.42912 32.231 5.69928 32.2851Z" fill="#F0CA30"/>
<path fill-rule="evenodd" clip-rule="evenodd" d="M5.71197 32.3462C5.03518 32.3966 4.55807 32.785 4.64686 33.2137C4.73565 33.6425 5.35644 33.9498 6.03323 33.8998C6.71002 33.8498 7.18712 33.461 7.09833 33.0318C7.00954 32.6031 6.38875 32.2961 5.71197 32.3462Z" fill="#D39F25"/>
<path fill-rule="evenodd" clip-rule="evenodd" d="M5.72418 32.4073C5.10044 32.4537 4.66091 32.8115 4.7427 33.2067C4.82449 33.602 5.39665 33.8851 6.02002 33.8387C6.64375 33.7924 7.08291 33.4346 7.00112 33.0393C6.9197 32.6441 6.34791 32.3609 5.72418 32.4073Z" fill="#F0CA30"/>
<path fill-rule="evenodd" clip-rule="evenodd" d="M5.73971 32.48C5.17971 32.5216 4.78477 32.843 4.85845 33.198C4.93177 33.5529 5.44571 33.807 6.00571 33.7655C6.56571 33.7239 6.96029 33.4025 6.88697 33.0475C6.81329 32.6926 6.29971 32.4385 5.73971 32.48Z" fill="#D39F25"/>
<path fill-rule="evenodd" clip-rule="evenodd" d="M5.75155 32.5392C5.24313 32.5771 4.88466 32.8687 4.95134 33.1909C5.01803 33.5132 5.48445 33.7439 5.99287 33.7064C6.50129 33.6685 6.85976 33.3765 6.79308 33.0542C6.72639 32.7323 6.25997 32.5016 5.75155 32.5392Z" fill="#F0CA30"/>
<path fill-rule="evenodd" clip-rule="evenodd" d="M5.76322 32.5969C5.3049 32.6308 4.9818 32.8941 5.04185 33.1845C5.1019 33.4749 5.52227 33.683 5.98059 33.6492C6.4389 33.6153 6.76164 33.3519 6.70159 33.0615C6.6419 32.7711 6.22153 32.563 5.76322 32.5969Z" fill="#D39F25"/>
<path fill-rule="evenodd" clip-rule="evenodd" d="M20.7761 50.369V50.0229C20.2294 49.7043 19.4336 49.6389 18.9067 49.9741L18.0354 50.5259V50.613L18.9889 50.0189C19.1259 49.9334 19.3459 49.9531 19.4656 50.0253C19.4531 50.0346 19.4398 50.0439 19.4244 50.0535L18.0354 50.9187V52.1077L20.7761 50.369ZM18.0354 50.5259L14.9009 52.5102V52.5966L15.8544 52.0025C15.9914 51.9169 16.2114 51.9367 16.3311 52.0085C16.3186 52.0178 16.3053 52.0275 16.2898 52.0367L14.9009 52.9019V54.0957L18.0354 52.1073V50.9183L17.082 51.5124C16.9453 51.5975 16.725 51.5781 16.6052 51.5064C16.6177 51.4967 16.631 51.4874 16.6465 51.4777L18.0354 50.6126V50.5259ZM14.9009 52.5098L13.3351 53.5012C13.2132 53.5787 13.1955 53.6747 13.1273 53.7694L13.0039 53.711V54.1212C13.0039 54.3664 13.232 54.7818 13.5164 54.9742L14.9009 54.0957V52.9019L13.9474 53.496C13.8107 53.5811 13.5904 53.5617 13.4707 53.4899C13.4832 53.4803 13.4965 53.471 13.512 53.4617L14.9009 52.5966V52.5098Z" fill="#804620"/>
<path fill-rule="evenodd" clip-rule="evenodd" d="M20.7761 50.0228C20.2003 49.6759 19.4594 49.2762 18.9067 49.6284L18.0354 50.1801V50.6133L18.9889 50.0192C19.1259 49.9337 19.3459 49.9534 19.4656 50.0256C19.4531 50.0349 19.4398 50.0442 19.4244 50.0539L18.0354 50.919V51.762L20.7761 50.0228ZM18.0354 50.1801L14.9009 52.1641V52.5965L15.8544 52.0024C15.9914 51.9169 16.2114 51.9366 16.3311 52.0084C16.3186 52.0177 16.3053 52.0274 16.2898 52.0367L14.9009 52.9018V53.7496L18.0354 51.7612V50.9182L17.082 51.5123C16.9453 51.5974 16.725 51.5781 16.6052 51.5063C16.6177 51.4966 16.631 51.4873 16.6465 51.4776L18.0354 50.6125V50.1801ZM14.9009 52.1641L13.3351 53.1555C13.1144 53.2959 13.0127 53.4999 13.0039 53.7181V53.7843C13.0175 54.0945 13.211 54.4224 13.516 54.6285L14.9009 53.75V52.9022L13.9474 53.4959C13.8107 53.581 13.5904 53.5617 13.4707 53.4899C13.4832 53.4802 13.4965 53.4709 13.512 53.4616L14.9009 52.5965V52.1641Z" fill="#A16437"/>
<path fill-rule="evenodd" clip-rule="evenodd" d="M21.8189 50.6365L20.7556 50.163C20.5943 50.0912 20.5361 50.3461 20.6621 50.4308L21.6671 51.1068L21.8189 50.6365Z" fill="#E3E3E3"/>
<path fill-rule="evenodd" clip-rule="evenodd" d="M21.6328 50.8531C21.6 50.9866 21.6262 51.1048 21.691 51.1169C21.7559 51.129 21.8354 51.0306 21.8679 50.8971C21.9006 50.7636 21.8745 50.6454 21.8096 50.6333C21.7448 50.6216 21.6656 50.7196 21.6328 50.8531Z" fill="#AFAFAF"/>
<path fill-rule="evenodd" clip-rule="evenodd" d="M21.4839 50.8474L20.4207 50.3739C20.2593 50.3021 20.2011 50.557 20.3271 50.6417L21.3322 51.3177L21.4839 50.8474Z" fill="#E3E3E3"/>
<path fill-rule="evenodd" clip-rule="evenodd" d="M21.2978 51.0642C21.2651 51.1977 21.2912 51.3159 21.3561 51.328C21.4209 51.3401 21.5005 51.2417 21.5329 51.1086C21.5657 50.9751 21.5395 50.8569 21.4743 50.8448C21.4098 50.8323 21.3306 50.9307 21.2978 51.0642Z" fill="#AFAFAF"/>
<path fill-rule="evenodd" clip-rule="evenodd" d="M21.1495 51.0589L20.0862 50.5853C19.9248 50.5136 19.8666 50.7685 19.9926 50.8532L20.9977 51.5291L21.1495 51.0589Z" fill="#E3E3E3"/>
<path fill-rule="evenodd" clip-rule="evenodd" d="M20.9634 51.2761C20.9306 51.4096 20.9567 51.5278 21.0219 51.5399C21.0868 51.552 21.1664 51.4536 21.1988 51.3205C21.2316 51.187 21.2054 51.0688 21.1402 51.0567C21.0754 51.0442 20.9961 51.1426 20.9634 51.2761Z" fill="#AFAFAF"/>
<path fill-rule="evenodd" clip-rule="evenodd" d="M20.815 51.2698L19.7517 50.7963C19.5904 50.7245 19.5322 50.9794 19.6582 51.0641L20.6632 51.7397L20.815 51.2698Z" fill="#E3E3E3"/>
<path fill-rule="evenodd" clip-rule="evenodd" d="M20.6289 51.4869C20.5961 51.6204 20.6223 51.7386 20.6875 51.7507C20.7523 51.7628 20.8319 51.6644 20.8643 51.5309C20.8971 51.3974 20.8709 51.2792 20.8057 51.2671C20.7409 51.255 20.6613 51.3534 20.6289 51.4869Z" fill="#AFAFAF"/>
<path fill-rule="evenodd" clip-rule="evenodd" d="M20.48 51.4812L19.4168 51.0077C19.2554 50.9359 19.1972 51.1908 19.3232 51.2755L20.3282 51.9515L20.48 51.4812Z" fill="#E3E3E3"/>
<path fill-rule="evenodd" clip-rule="evenodd" d="M20.2934 51.6975C20.2606 51.831 20.2868 51.9491 20.352 51.9612C20.4169 51.9733 20.4961 51.8749 20.5289 51.7418C20.5616 51.6083 20.5355 51.4902 20.4703 51.4781C20.4054 51.466 20.3262 51.5644 20.2934 51.6975Z" fill="#AFAFAF"/>
<path fill-rule="evenodd" clip-rule="evenodd" d="M20.1456 51.6922L19.0823 51.2186C18.9209 51.1469 18.8627 51.4018 18.9887 51.4865L19.9938 52.1624L20.1456 51.6922Z" fill="#E3E3E3"/>
<path fill-rule="evenodd" clip-rule="evenodd" d="M19.9595 51.9094C19.9267 52.0429 19.9528 52.1611 20.0177 52.1732C20.0825 52.1853 20.1617 52.0873 20.1945 51.9538C20.2273 51.8203 20.2011 51.7021 20.1359 51.69C20.0715 51.6775 19.9923 51.7759 19.9595 51.9094Z" fill="#AFAFAF"/>
<path fill-rule="evenodd" clip-rule="evenodd" d="M19.8111 51.9036L18.7478 51.4301C18.5865 51.3583 18.5283 51.6132 18.6543 51.6979L19.6593 52.3739L19.8111 51.9036Z" fill="#E3E3E3"/>
<path fill-rule="evenodd" clip-rule="evenodd" d="M19.625 52.1202C19.5922 52.2537 19.6184 52.3719 19.6832 52.384C19.748 52.3961 19.8276 52.2977 19.86 52.1642C19.8928 52.0307 19.8667 51.9125 19.8018 51.9004C19.737 51.8883 19.6578 51.9867 19.625 52.1202Z" fill="#AFAFAF"/>
<path fill-rule="evenodd" clip-rule="evenodd" d="M19.4761 52.115L18.4129 51.6415C18.2515 51.5697 18.1933 51.8246 18.3193 51.9093L19.3243 52.5853L19.4761 52.115Z" fill="#E3E3E3"/>
<path fill-rule="evenodd" clip-rule="evenodd" d="M19.29 52.3317C19.2572 52.4653 19.2834 52.5834 19.3486 52.5955C19.4134 52.608 19.493 52.5096 19.5254 52.3761C19.5582 52.2426 19.5321 52.1244 19.4669 52.1123C19.402 52.1002 19.3228 52.1987 19.29 52.3317Z" fill="#AFAFAF"/>
<path fill-rule="evenodd" clip-rule="evenodd" d="M19.1413 52.3264L18.078 51.8529C17.9166 51.7811 17.8584 52.036 17.9841 52.1207L18.9891 52.7967L19.1413 52.3264Z" fill="#E3E3E3"/>
<path fill-rule="evenodd" clip-rule="evenodd" d="M18.9551 52.5427C18.9223 52.6762 18.9484 52.7944 19.0136 52.8065C19.0785 52.8186 19.1581 52.7202 19.1905 52.5871C19.2233 52.4535 19.1971 52.3354 19.1319 52.3233C19.0671 52.3112 18.9878 52.4092 18.9551 52.5427Z" fill="#AFAFAF"/>
<path fill-rule="evenodd" clip-rule="evenodd" d="M18.8067 52.5374L17.7434 52.0639C17.5821 51.9921 17.5239 52.247 17.6499 52.3317L18.6549 53.0077L18.8067 52.5374Z" fill="#E3E3E3"/>
<path fill-rule="evenodd" clip-rule="evenodd" d="M18.6206 52.7545C18.5878 52.888 18.614 53.0062 18.6792 53.0183C18.744 53.0304 18.8236 52.932 18.856 52.7985C18.8888 52.665 18.8626 52.5468 18.7974 52.5347C18.7326 52.5226 18.653 52.621 18.6206 52.7545Z" fill="#AFAFAF"/>
<path fill-rule="evenodd" clip-rule="evenodd" d="M18.4722 52.7488L17.409 52.2753C17.2476 52.2035 17.1894 52.4584 17.3154 52.5431L18.3204 53.2191L18.4722 52.7488Z" fill="#E3E3E3"/>
<path fill-rule="evenodd" clip-rule="evenodd" d="M18.2856 52.9661C18.2528 53.0996 18.279 53.2178 18.3442 53.2299C18.409 53.242 18.4883 53.1436 18.521 53.0105C18.5538 52.8769 18.5277 52.7588 18.4625 52.7467C18.3976 52.7342 18.3184 52.8326 18.2856 52.9661Z" fill="#AFAFAF"/>
<path fill-rule="evenodd" clip-rule="evenodd" d="M18.1376 52.9597L17.074 52.4862C16.9126 52.4144 16.8544 52.6693 16.9804 52.754L17.9855 53.43L18.1376 52.9597Z" fill="#E3E3E3"/>
<path fill-rule="evenodd" clip-rule="evenodd" d="M17.9516 53.1765C17.9189 53.31 17.945 53.4282 18.0102 53.4403C18.0751 53.4524 18.1543 53.354 18.1871 53.2209C18.2199 53.0874 18.1937 52.9692 18.1285 52.9571C18.0636 52.9446 17.9844 53.043 17.9516 53.1765Z" fill="#AFAFAF"/>
<path fill-rule="evenodd" clip-rule="evenodd" d="M17.8028 53.1712L16.7395 52.6977C16.5782 52.6259 16.5199 52.8808 16.6459 52.9655L17.651 53.6414L17.8028 53.1712Z" fill="#E3E3E3"/>
<path fill-rule="evenodd" clip-rule="evenodd" d="M17.6167 53.3883C17.5839 53.5218 17.6101 53.6396 17.6749 53.6521C17.7397 53.6642 17.8193 53.5658 17.8517 53.4323C17.8845 53.2988 17.8584 53.1806 17.7935 53.1685C17.7287 53.1564 17.6495 53.2548 17.6167 53.3883Z" fill="#AFAFAF"/>
<path fill-rule="evenodd" clip-rule="evenodd" d="M17.4678 53.3826L16.4046 52.9091C16.2432 52.8373 16.185 53.0922 16.311 53.1769L17.316 53.8529L17.4678 53.3826Z" fill="#E3E3E3"/>
<path fill-rule="evenodd" clip-rule="evenodd" d="M17.2817 53.5993C17.2489 53.7328 17.2751 53.851 17.3403 53.8631C17.4051 53.8752 17.4847 53.7768 17.5171 53.6437C17.5499 53.5102 17.5238 53.392 17.4586 53.3799C17.3937 53.3678 17.3145 53.4658 17.2817 53.5993Z" fill="#AFAFAF"/>
<path fill-rule="evenodd" clip-rule="evenodd" d="M17.1334 53.5935L16.0701 53.12C15.9087 53.0482 15.8505 53.3031 15.9765 53.3878L16.9816 54.0638L17.1334 53.5935Z" fill="#E3E3E3"/>
<path fill-rule="evenodd" clip-rule="evenodd" d="M16.9472 53.8108C16.9145 53.9443 16.9406 54.0625 17.0058 54.0746C17.0707 54.0867 17.1502 53.9883 17.1827 53.8552C17.2155 53.7217 17.1893 53.6035 17.1241 53.5914C17.0592 53.5789 16.98 53.6773 16.9472 53.8108Z" fill="#AFAFAF"/>
<path fill-rule="evenodd" clip-rule="evenodd" d="M16.7989 53.805L15.7356 53.3314C15.5743 53.2596 15.516 53.5146 15.642 53.5993L16.6471 54.2752L16.7989 53.805Z" fill="#E3E3E3"/>
<path fill-rule="evenodd" clip-rule="evenodd" d="M16.6128 54.0218C16.58 54.1553 16.6061 54.2734 16.6714 54.2855C16.7362 54.2976 16.8158 54.1992 16.8482 54.0661C16.8806 53.933 16.8548 53.8144 16.7896 53.8023C16.7248 53.7898 16.6452 53.8883 16.6128 54.0218Z" fill="#AFAFAF"/>
<path fill-rule="evenodd" clip-rule="evenodd" d="M16.4644 54.0164L15.4011 53.5429C15.2398 53.4711 15.1816 53.726 15.3076 53.8107L16.3126 54.4867L16.4644 54.0164Z" fill="#E3E3E3"/>
<path fill-rule="evenodd" clip-rule="evenodd" d="M16.2778 54.2331C16.245 54.3666 16.2712 54.4848 16.3364 54.4969C16.4012 54.509 16.4804 54.4106 16.5132 54.2775C16.546 54.144 16.5199 54.0258 16.4547 54.0137C16.3898 54.0016 16.3106 54.1 16.2778 54.2331Z" fill="#AFAFAF"/>
<path fill-rule="evenodd" clip-rule="evenodd" d="M16.1294 54.2278L15.0662 53.7543C14.9048 53.6825 14.8466 53.9374 14.9726 54.0221L15.9777 54.6981L16.1294 54.2278Z" fill="#E3E3E3"/>
<path fill-rule="evenodd" clip-rule="evenodd" d="M15.9433 54.4445C15.9106 54.578 15.9367 54.6962 16.0016 54.7083C16.0664 54.7204 16.146 54.622 16.1784 54.4889C16.2112 54.3554 16.185 54.2372 16.1198 54.2251C16.0554 54.213 15.9761 54.311 15.9433 54.4445Z" fill="#AFAFAF"/>
<path fill-rule="evenodd" clip-rule="evenodd" d="M15.795 54.4387L14.7317 53.9652C14.5703 53.8934 14.5121 54.1483 14.6381 54.233L15.6432 54.909L15.795 54.4387Z" fill="#E3E3E3"/>
<path fill-rule="evenodd" clip-rule="evenodd" d="M15.6089 54.6559C15.5761 54.7894 15.6022 54.9076 15.6671 54.9197C15.7319 54.9318 15.8115 54.8333 15.8439 54.6998C15.8767 54.5663 15.8506 54.4482 15.7857 54.4361C15.7209 54.424 15.6417 54.5224 15.6089 54.6559Z" fill="#AFAFAF"/>
<path fill-rule="evenodd" clip-rule="evenodd" d="M15.46 54.6497L14.3968 54.1762C14.2354 54.1044 14.1772 54.3593 14.3032 54.444L15.3082 55.12L15.46 54.6497Z" fill="#E3E3E3"/>
<path fill-rule="evenodd" clip-rule="evenodd" d="M15.2739 54.867C15.2411 55.0005 15.2673 55.1186 15.3325 55.1307C15.3973 55.1428 15.4769 55.0444 15.5093 54.9113C15.5421 54.7778 15.516 54.6597 15.4507 54.6476C15.3859 54.6351 15.3067 54.7335 15.2739 54.867Z" fill="#AFAFAF"/>
<path fill-rule="evenodd" clip-rule="evenodd" d="M15.1255 54.8611L14.0623 54.3876C13.9009 54.3158 13.8427 54.5707 13.9687 54.6554L14.9738 55.3314L15.1255 54.8611Z" fill="#E3E3E3"/>
<path fill-rule="evenodd" clip-rule="evenodd" d="M14.9394 55.0773C14.9066 55.2109 14.9328 55.329 14.998 55.3411C15.0629 55.3532 15.1424 55.2552 15.1749 55.1217C15.2076 54.9882 15.1815 54.87 15.1163 54.8579C15.0514 54.8458 14.9722 54.9442 14.9394 55.0773Z" fill="#AFAFAF"/>
<path fill-rule="evenodd" clip-rule="evenodd" d="M14.7911 55.0725L13.7278 54.599C13.5664 54.5272 13.5082 54.7821 13.6342 54.8668L14.6393 55.5428L14.7911 55.0725Z" fill="#E3E3E3"/>
<path fill-rule="evenodd" clip-rule="evenodd" d="M14.605 55.2892C14.5722 55.4227 14.5983 55.5409 14.6635 55.553C14.7284 55.5651 14.8076 55.4666 14.8404 55.3331C14.8732 55.1996 14.847 55.0815 14.7818 55.0694C14.717 55.0573 14.6374 55.1557 14.605 55.2892Z" fill="#AFAFAF"/>
<path fill-rule="evenodd" clip-rule="evenodd" d="M16.6466 51.2325L18.989 49.7732C19.1791 49.6546 19.5295 49.7381 19.5487 49.8833V49.9087C19.5439 49.945 19.5185 49.9846 19.4658 50.0253C19.346 49.9535 19.1261 49.9337 18.989 50.0188L16.6466 51.4781C16.6311 51.4878 16.6179 51.4971 16.6054 51.5067C16.5007 51.4438 16.4727 51.3406 16.6466 51.2325ZM17.0257 51.5402C17.0077 51.5471 16.9885 51.5527 16.969 51.5572C16.9885 51.5523 17.0073 51.5471 17.0257 51.5402ZM16.8865 51.5676C16.8706 51.5684 16.8544 51.5689 16.8386 51.568C16.8544 51.5689 16.8703 51.5689 16.8865 51.5676ZM16.8213 51.5672C16.7402 51.562 16.6628 51.5402 16.6068 51.5071C16.6625 51.5402 16.7402 51.562 16.8213 51.5672Z" fill="#804620"/>
<path fill-rule="evenodd" clip-rule="evenodd" d="M13.571 53.1793L15.8538 51.7571C16.0439 51.6385 16.3942 51.722 16.4134 51.8672V51.8926C16.4086 51.9289 16.3832 51.9685 16.3305 52.0092C16.2108 51.9374 15.9908 51.9176 15.8538 52.0031L13.571 53.4253V53.1793ZM13.5644 53.1833L13.571 53.1793V53.4249L13.5644 53.4289V53.1833ZM13.571 53.5318L13.5659 53.5306L13.5644 53.5302L13.571 53.5318ZM13.546 53.195L13.5644 53.1833V53.4289L13.546 53.4402V53.195ZM13.5644 53.5297L13.5629 53.5293L13.5618 53.5289L13.5644 53.5297ZM13.5427 53.197L13.546 53.195V53.4406L13.5427 53.4426V53.197ZM13.5117 53.2164L13.5427 53.197V53.4426L13.5117 53.462C13.4962 53.4717 13.483 53.4809 13.4705 53.4902C13.3658 53.4277 13.3382 53.3245 13.5117 53.2164ZM13.5143 53.512L13.5172 53.5132L13.5169 53.5128L13.5143 53.512Z" fill="#804620"/>
<path fill-rule="evenodd" clip-rule="evenodd" d="M20.8979 14.9186L21.1183 15.8918L21.9281 15.6486L21.6753 14.6479L20.8979 14.9186Z" fill="#C4C4C4"/>
<path d="M21.4162 15.7218L21.8398 15.5943C21.7687 15.312 21.6973 15.0297 21.6262 14.7469C21.5573 14.7623 21.4895 14.7764 21.4162 14.7982V14.6312C21.5208 14.5993 21.6221 14.5747 21.7245 14.5493C21.8214 14.9341 21.9187 15.3189 22.0156 15.7032L21.4162 15.8835V15.7218ZM20.9925 15.0136C21.0223 15.3003 21.0732 15.5685 21.1693 15.796L21.4162 15.7218V15.8835L21.1023 15.9779C20.9995 15.7105 20.8867 15.3116 20.8223 14.9091C21.0433 14.7635 21.2342 14.686 21.4162 14.6312V14.7982C21.2975 14.8337 21.1656 14.8905 20.9925 15.0136Z" fill="#222221"/>
<path fill-rule="evenodd" clip-rule="evenodd" d="M21.4215 16.1056C21.2189 16.2411 21.2097 16.4557 21.2192 16.5706C21.3187 17.7621 22.0128 18.5849 22.288 17.3978C22.4059 16.8892 22.7161 16.4432 22.2575 16.1124C21.9104 15.8624 21.4657 16.1036 21.4215 16.1056Z" fill="#4D4D4D"/>
<path fill-rule="evenodd" clip-rule="evenodd" d="M21.4852 13.7396C21.3957 14.0042 21.2885 14.2691 21.2343 14.5446C21.1964 14.737 21.1791 14.7943 21.2476 14.9657C21.3522 15.2291 21.4152 15.2843 21.2365 15.4965C21.0623 15.7034 21.2863 16.3749 21.3695 16.6855C21.4355 16.9303 21.4709 17.2171 21.6731 17.3635C22.1771 17.7289 22.7423 17.5095 23.2485 17.3115C23.7503 17.1179 24.7336 15.7199 24.8883 15.263C25.0003 14.3264 24.78 13.5165 23.3531 12.9482C22.7342 12.7018 21.7096 13.0765 21.4852 13.7396Z" fill="#ECC19A"/>
<path fill-rule="evenodd" clip-rule="evenodd" d="M22.1097 16.348C22.1097 16.348 22.0375 17.4781 22.2895 18.4994C23.0871 18.2973 24.0756 18.8373 24.8095 18.092C24.6706 17.7887 24.2716 16.934 24.378 15.6506C24.4112 15.2473 22.1646 15.1953 22.1097 16.348Z" fill="#D99E72"/>
<path fill-rule="evenodd" clip-rule="evenodd" d="M21.7627 15.1046C21.7992 15.2179 21.9624 15.3873 21.6912 15.6402C21.3033 15.983 21.7152 16.855 21.9613 16.4585C22.0784 16.2694 22.018 15.5595 22.0969 15.4986C22.3334 15.3159 22.5817 15.9612 22.8418 16.4872C23.2489 17.3116 24.3033 16.9558 24.3763 16.8958C24.758 16.5799 25.0921 16.1859 25.1172 15.5563C25.1463 14.825 25.3754 14.0139 24.8991 13.3847C24.0782 12.3006 22.3433 11.8896 21.2307 13.3367C20.6578 14.0821 21.5523 14.4512 21.7627 15.1046Z" fill="#4D4D4D"/>
<path fill-rule="evenodd" clip-rule="evenodd" d="M22.477 15.483L20.8618 14.9106L20.9292 15.2087L22.463 15.6883L22.5974 16.2828L22.9058 16.3776L22.477 15.483Z" fill="#363636"/>
<path fill-rule="evenodd" clip-rule="evenodd" d="M22.5924 15.8312C22.5501 16.1644 22.3408 16.6302 22.2111 16.6024C21.881 16.4757 22.0402 16.2345 22.0818 15.9018C22.1253 15.5695 22.0464 15.3662 22.1743 15.3367C22.4152 15.2835 22.6344 15.4973 22.5924 15.8312Z" fill="#ECC19A"/>
<path fill-rule="evenodd" clip-rule="evenodd" d="M9.08984 46.0303L9.47484 49.8857C9.47484 49.9495 9.50395 50.0039 9.55405 50.0358L12.5821 51.9504C12.7332 52.046 12.9063 52.046 13.0574 51.9504L16.0869 50.0358C16.1374 50.0039 16.1661 49.9495 16.1661 49.8857L16.5511 46.0303H9.08984Z" fill="#6AB6B6"/>
<path fill-rule="evenodd" clip-rule="evenodd" d="M9.08984 46.0303L9.47484 49.8857C9.47484 49.9495 9.50395 50.0043 9.55405 50.0358L12.4624 51.8697C12.4996 51.8931 12.5423 51.8931 12.5799 51.8697C12.6171 51.8463 12.6385 51.8056 12.6385 51.7584V46.0303H9.08984Z" fill="#399694"/>
<path fill-rule="evenodd" clip-rule="evenodd" d="M16.8627 46.318L13.1136 48.6875C12.9265 48.8057 12.7124 48.8057 12.5253 48.6875L8.77769 46.318C8.71543 46.2784 8.67969 46.2107 8.67969 46.132C8.67969 46.0534 8.71543 45.9856 8.77769 45.9461L12.526 43.5769C12.7132 43.4587 12.9272 43.4587 13.114 43.5769L16.8623 45.9461C16.9246 45.9856 16.9603 46.053 16.9603 46.132C16.9607 46.2107 16.9249 46.2784 16.8627 46.318Z" fill="#92DEDE"/>
<path fill-rule="evenodd" clip-rule="evenodd" d="M16.8627 46.2159L13.1136 48.5855C12.9265 48.7037 12.7124 48.7037 12.5253 48.5855L8.77769 46.2159C8.71543 46.1764 8.67969 46.1086 8.67969 46.03C8.67969 45.9513 8.71543 45.8836 8.77769 45.844L12.526 43.4749C12.7132 43.3567 12.9272 43.3567 13.114 43.4749L16.8623 45.844C16.9246 45.8836 16.9603 45.9509 16.9603 46.03C16.9607 46.109 16.9249 46.1764 16.8627 46.2159Z" fill="#BBEFEF"/>
<path fill-rule="evenodd" clip-rule="evenodd" d="M16.4627 46.1974L13.0846 48.3322C12.9163 48.4387 12.7232 48.4387 12.5548 48.3322L9.17826 46.1974C9.12226 46.1619 9.08984 46.101 9.08984 46.03C9.08984 45.959 9.12226 45.8981 9.17826 45.8626L12.5556 43.7278C12.7239 43.6213 12.917 43.6213 13.0854 43.7278L16.4623 45.8622C16.5183 45.8977 16.5507 45.9586 16.5507 46.0296C16.5511 46.101 16.5187 46.1619 16.4627 46.1974Z" fill="#92DEDE"/>
<path fill-rule="evenodd" clip-rule="evenodd" d="M12.8989 48.4052V44.1097C12.8989 43.8826 13.0503 43.7076 13.2331 43.8213L16.4623 45.8626C16.5187 45.8981 16.5507 45.959 16.5507 46.03C16.5507 46.1009 16.5187 46.1618 16.4623 46.1977L13.0842 48.3326C13.0249 48.3701 12.9627 48.3939 12.8989 48.4052Z" fill="#6AB6B6"/>
<path fill-rule="evenodd" clip-rule="evenodd" d="M10.5049 47.0363L12.5555 45.74C12.7239 45.6335 12.9169 45.6335 13.0853 45.74L15.1356 47.0359L13.0846 48.3322C12.9162 48.4387 12.7231 48.4387 12.5548 48.3322L10.5049 47.0363Z" fill="#E383BE"/>
<path d="M12.3069 51.0513C12.1765 51.0513 12.0383 50.9977 11.9278 50.9279L8.18023 48.5587C8.09624 48.5055 8.04834 48.4143 8.04834 48.3086C8.04834 48.2151 8.09697 48.1554 8.14008 48.1025L8.16255 48.0747L9.12339 46.8341C9.14771 46.803 9.19044 46.7994 9.21844 46.8256C9.24681 46.8522 9.2505 46.8986 9.22618 46.9296L8.24066 48.201C8.20418 48.2457 8.18355 48.2727 8.18355 48.3082C8.18355 48.3607 8.20639 48.4038 8.24802 48.43L11.9952 50.7992C12.1676 50.9081 12.3898 50.9553 12.4981 50.8153L15.0001 47.5855C15.0244 47.5544 15.0671 47.5504 15.0951 47.577C15.1235 47.6036 15.1272 47.65 15.1029 47.6811L12.6013 50.9109C12.5235 51.0126 12.4182 51.0513 12.3069 51.0513Z" fill="#CACACA"/>
<path fill-rule="evenodd" clip-rule="evenodd" d="M11.7895 54.1294C11.3643 54.402 10.906 54.7392 10.2093 54.7622C6.90899 52.3712 3.86842 50.2211 0 48.54C0.388315 48.2988 0.776262 48.0576 1.16458 47.8164C4.7062 49.921 8.24783 52.0252 11.7895 54.1294Z" fill="#D39F25"/>
<path fill-rule="evenodd" clip-rule="evenodd" d="M12.3799 51.3576L10.8661 54.335L0.756237 48.1732C0.281711 48.0059 0.188501 47.1984 0.549921 46.3579C0.915394 45.5092 1.60655 44.9478 2.0936 45.1043C2.10871 45.1091 2.12345 45.1144 2.13781 45.1208L2.14002 45.1164L2.1916 45.1479C2.20118 45.1535 2.21076 45.1591 2.21997 45.1652L12.3799 51.3576Z" fill="url(#paint1_linear_455_4874)"/>
<path fill-rule="evenodd" clip-rule="evenodd" d="M12.5036 53.135C12.8687 52.286 12.7703 51.4712 12.2833 51.3147C11.7962 51.1583 11.105 51.7197 10.7399 52.5687C10.3748 53.4173 10.4736 54.2324 10.9603 54.3889C11.4473 54.545 12.1385 53.9836 12.5036 53.135Z" fill="#F0CA30"/>
<path fill-rule="evenodd" clip-rule="evenodd" d="M12.4411 53.1151C12.78 52.327 12.6886 51.5704 12.2366 51.4252C11.7845 51.28 11.1427 51.8011 10.8038 52.5892C10.4649 53.3769 10.5562 54.1335 11.0086 54.2791C11.4603 54.4243 12.1017 53.9028 12.4411 53.1151Z" fill="#D39F25"/>
<path fill-rule="evenodd" clip-rule="evenodd" d="M12.3751 53.0939C12.6872 52.3691 12.6028 51.6734 12.1872 51.5399C11.7713 51.4064 11.1814 51.8855 10.8694 52.6103C10.5577 53.3347 10.6417 54.0309 11.0576 54.1644C11.4732 54.2975 12.0634 53.8183 12.3751 53.0939Z" fill="#F0CA30"/>
<path fill-rule="evenodd" clip-rule="evenodd" d="M12.3201 53.0761C12.6093 52.4041 12.5312 51.7588 12.1458 51.635C11.7601 51.5111 11.2133 51.9556 10.9241 52.6276C10.6349 53.2995 10.713 53.9444 11.0988 54.0683C11.4841 54.1921 12.0312 53.748 12.3201 53.0761Z" fill="#D39F25"/>
<path fill-rule="evenodd" clip-rule="evenodd" d="M12.2649 53.0588C12.5313 52.4397 12.4594 51.8451 12.1043 51.731C11.7491 51.6169 11.2451 52.0263 10.9787 52.6454C10.7124 53.2641 10.7842 53.8586 11.1394 53.9727C11.4945 54.0873 11.9985 53.6779 12.2649 53.0588Z" fill="#F0CA30"/>
<path fill-rule="evenodd" clip-rule="evenodd" d="M12.1998 53.0375C12.4389 52.4817 12.3744 51.9477 12.0557 51.8452C11.7367 51.7428 11.2839 52.1106 11.0448 52.6664C10.8057 53.2222 10.8701 53.7562 11.1892 53.8587C11.5075 53.9611 11.9603 53.5933 12.1998 53.0375Z" fill="#D39F25"/>
<path fill-rule="evenodd" clip-rule="evenodd" d="M12.1462 53.0205C12.3636 52.5155 12.3046 52.0307 12.0154 51.938C11.7258 51.8448 11.3147 52.1787 11.0973 52.6837C10.8803 53.1883 10.9389 53.6731 11.2285 53.7663C11.5181 53.859 11.9292 53.5251 12.1462 53.0205Z" fill="#F0CA30"/>
<path fill-rule="evenodd" clip-rule="evenodd" d="M12.0948 53.0039C12.2904 52.5489 12.2377 52.1121 11.9769 52.0282C11.7157 51.9443 11.3454 52.2452 11.1494 52.7001C10.9538 53.1551 11.0065 53.5919 11.2677 53.6758C11.5285 53.7597 11.8988 53.4588 12.0948 53.0039Z" fill="#D39F25"/>
<defs>
<linearGradient id="paint0_linear_455_4874" x1="4.31052" y1="40.0019" x2="7.43373" y2="40.0019" gradientUnits="userSpaceOnUse">
<stop stop-color="#848484"/>
<stop offset="1" stop-color="white"/>
</linearGradient>
<linearGradient id="paint1_linear_455_4874" x1="5.31938" y1="51.0728" x2="7.20628" y2="48.0875" gradientUnits="userSpaceOnUse">
<stop stop-color="#848484"/>
<stop offset="1" stop-color="white"/>
</linearGradient>
</defs>
</svg>
