<svg width="40" height="56" viewBox="0 0 40 56" fill="none" xmlns="http://www.w3.org/2000/svg">
<path opacity="0.4" fill-rule="evenodd" clip-rule="evenodd" d="M19.6039 32.7471C30.4286 32.7471 39.2073 37.8429 39.2073 44.1267C39.2073 50.4104 30.4286 55.5063 19.6039 55.5063C8.77911 55.5063 0 50.4104 0 44.1267C0 37.8424 8.77863 32.7471 19.6039 32.7471Z" fill="#D2D2E1"/>
<path fill-rule="evenodd" clip-rule="evenodd" d="M20.7291 39.4936C20.7291 39.4936 20.335 41.2286 21.1053 40.8525C21.4327 40.6927 21.4031 41.4949 21.3607 41.7597C21.3033 42.1166 20.8479 42.4016 20.3856 42.6371C19.8435 42.8485 19.2173 43.5251 19.0202 43.6812C18.4801 44.1089 17.2923 44.0775 16.7361 43.8617C16.4121 43.736 16.2038 43.5155 16.2637 43.2369C16.3026 43.141 16.2773 43.1032 16.4053 42.9977C16.5352 42.8906 17.3921 42.1709 17.7512 41.9573C18.6689 41.4108 19.0392 40.3257 19.1185 40.0779C19.1998 39.8302 19.4635 39.0749 19.4635 39.0749C19.4635 39.0749 19.8781 38.9193 20.7291 39.4936Z" fill="#929292"/>
<path fill-rule="evenodd" clip-rule="evenodd" d="M20.914 39.2699C20.8283 40.0807 21.4623 39.9337 21.3003 41.3603C21.2405 41.8876 20.3271 42.187 19.967 42.4091C19.4561 42.7245 19.3617 42.9605 19.1359 43.2535C18.9282 43.5236 18.6226 43.6456 18.2265 43.7047C17.3049 43.8421 16.2183 43.6956 16.3371 42.8257C16.3828 42.4901 17.5818 41.9169 17.9949 41.649C18.9676 41.0545 18.9764 39.6764 19.0557 39.4287C19.1369 39.181 19.462 39.0744 19.462 39.0744C19.462 39.0744 20.0634 38.6951 20.914 39.2699Z" fill="#3E3E3D"/>
<path fill-rule="evenodd" clip-rule="evenodd" d="M16.4916 39.2979H9.57031C9.59464 39.7102 10.1883 44.2302 10.1883 43.9691C10.2004 45.0276 11.4666 45.881 13.0266 45.881C14.0674 45.881 15.8449 45.3835 15.8654 43.8914L16.4916 39.2979Z" fill="#345B88"/>
<path fill-rule="evenodd" clip-rule="evenodd" d="M11.6265 45.63C11.6805 43.6787 13.6935 41.7152 16.1678 41.2198L16.2311 41.2075L15.8652 43.8908C15.8447 45.3829 14.0672 45.8804 13.0264 45.8804C12.5174 45.8809 12.0396 45.7898 11.6265 45.63Z" fill="#487AB1"/>
<path d="M12.1194 41.8942C12.0868 41.8724 12.0765 41.825 12.097 41.7898C12.1169 41.7541 12.1597 41.7429 12.1923 41.7648C13.9022 42.9261 18.0169 43.7049 16.2252 40.3419C16.2058 40.3057 16.2169 40.2588 16.25 40.2375C16.2831 40.2162 16.326 40.2285 16.3454 40.2647C18.3726 44.0661 14.0886 43.3496 12.1194 41.8942Z" fill="#7E7E7E"/>
<path d="M12.1194 41.7912C12.0868 41.7693 12.0765 41.7224 12.097 41.6867C12.1169 41.6511 12.1597 41.6399 12.1923 41.6622C13.9022 42.8235 18.0169 43.6018 16.2252 40.2394C16.2058 40.2032 16.2169 40.1563 16.25 40.135C16.2831 40.1137 16.326 40.1259 16.3454 40.1622C18.3726 43.963 14.0886 43.2465 12.1194 41.7912Z" fill="#CACACA"/>
<path fill-rule="evenodd" clip-rule="evenodd" d="M13.545 36.6936C15.7167 36.8545 17.247 38.1015 16.9624 39.4775C16.6777 40.8535 14.6861 41.839 12.5144 41.6781C10.3432 41.5172 8.81289 40.2707 9.09755 38.8942C9.38221 37.5177 11.3738 36.5322 13.545 36.6936Z" fill="#639DD7"/>
<path fill-rule="evenodd" clip-rule="evenodd" d="M13.545 36.5636C15.7167 36.725 17.247 37.9715 16.9624 39.347C16.6777 40.7235 14.6861 41.7084 12.5144 41.5476C10.3432 41.3867 8.81289 40.1402 9.09755 38.7637C9.38221 37.3877 11.3738 36.4027 13.545 36.5636Z" fill="#77B3EC"/>
<path fill-rule="evenodd" clip-rule="evenodd" d="M13.4792 36.913C15.3745 37.0536 16.7102 38.142 16.462 39.3427C16.2139 40.5439 14.4753 41.4037 12.58 41.2631C10.6852 41.1224 9.34949 40.0346 9.59814 38.8334C9.8463 37.6327 11.5844 36.7724 13.4792 36.913Z" fill="#639DD7"/>
<path fill-rule="evenodd" clip-rule="evenodd" d="M14.3649 37.3154C14.7099 37.2867 15.0286 37.3256 15.3089 37.4204C16.0237 37.8103 16.4694 38.3819 16.4908 39.0084V39.0089C16.4918 39.0382 16.4913 39.0675 16.4908 39.0973C16.4884 39.1788 16.4791 39.2609 16.4621 39.3434C16.2139 40.5441 14.4753 41.4045 12.5801 41.2638C12.3913 41.25 12.2083 41.226 12.0317 41.194C11.7032 40.8307 11.5431 40.3279 11.6244 39.7541C11.7996 38.5199 13.0268 37.4278 14.3649 37.3154Z" fill="#487AB1"/>
<path fill-rule="evenodd" clip-rule="evenodd" d="M13.4793 38.3339C14.8266 38.434 15.8908 39.0125 16.3044 39.77C15.7823 40.7406 14.2418 41.3862 12.58 41.2632C11.2332 41.163 10.1695 40.5845 9.75537 39.8265C10.2775 38.8564 11.818 38.2108 13.4793 38.3339Z" fill="#ECDFDF"/>
<path fill-rule="evenodd" clip-rule="evenodd" d="M12.4119 38.6925C13.4085 38.7666 14.1106 39.3387 13.9802 39.9699C13.8498 40.6017 12.9355 41.0535 11.939 40.9799C10.9424 40.9059 10.2403 40.3338 10.3712 39.7025C10.5016 39.0707 11.4159 38.6185 12.4119 38.6925Z" fill="#D9C4C4"/>
<path fill-rule="evenodd" clip-rule="evenodd" d="M12.3459 39.0111C13.0651 39.0643 13.5717 39.4772 13.4773 39.9326C13.3829 40.3881 12.7235 40.7146 12.0048 40.6614C11.2861 40.6081 10.7796 40.1953 10.8735 39.7398C10.9679 39.2843 11.6272 38.9578 12.3459 39.0111Z" fill="#ECDFDF"/>
<path fill-rule="evenodd" clip-rule="evenodd" d="M12.271 39.3748C12.6729 39.4046 12.9566 39.6353 12.9036 39.8904C12.851 40.1451 12.4822 40.3278 12.0798 40.298C11.6778 40.2681 11.3946 40.0375 11.4472 39.7823C11.5002 39.5271 11.8691 39.3449 12.271 39.3748Z" fill="#D9C4C4"/>
<path fill-rule="evenodd" clip-rule="evenodd" d="M17.0439 21.1195L18.02 21.8829C18.0862 21.9458 18.1378 22.0411 18.1305 22.1317L17.9646 24.2827L16.4196 25.077L15.3511 22.4438V22.0214C15.3511 21.9441 15.3895 21.8781 15.4528 21.8456L16.8668 21.119C16.9247 21.0892 16.986 21.0892 17.0439 21.1195Z" fill="#585857"/>
<path fill-rule="evenodd" clip-rule="evenodd" d="M18.1264 22.1973L17.9599 24.4006C17.9536 24.4858 17.9093 24.5561 17.8388 24.5923L16.4457 25.3083C16.3873 25.3386 16.323 25.3317 16.271 25.2907L15.563 24.7292L16.5294 22.9388C16.5522 22.8957 16.5819 22.8653 16.6233 22.8445L18.0285 22.1222C18.0519 22.1105 18.0767 22.1126 18.0976 22.1286C18.1176 22.1446 18.1283 22.1696 18.1264 22.1973Z" fill="#3E3E3D"/>
<path fill-rule="evenodd" clip-rule="evenodd" d="M16.6133 25.2224L16.4449 25.3087C16.3861 25.3391 16.3223 25.3322 16.2703 25.2911L15.3516 22.0209C15.3511 21.9442 15.389 21.8781 15.4523 21.8456L15.644 21.7471L16.7126 22.6132C16.7427 22.6378 16.7612 22.6734 16.7753 22.7086H16.7758L16.7778 22.7139L16.7787 22.7166L16.7797 22.7203V22.7209L16.7807 22.724V22.7246L16.7826 22.732L16.7831 22.7336V22.7342C16.7924 22.7667 16.7963 22.8013 16.7938 22.838C16.7413 23.636 16.6727 24.442 16.6133 25.2224Z" fill="#EDC52E"/>
<path fill-rule="evenodd" clip-rule="evenodd" d="M16.6136 25.2225L16.4452 25.3088C16.3863 25.3392 16.3226 25.3323 16.2705 25.2912L15.7139 23.3096L16.7907 22.7646C16.7946 22.7886 16.7965 22.8126 16.7946 22.8387C16.7416 23.6361 16.6729 24.4421 16.6136 25.2225Z" fill="#C18B21"/>
<path fill-rule="evenodd" clip-rule="evenodd" d="M16.2559 25.2758L15.1543 24.4075L15.345 22.0066C15.347 21.9805 15.3596 21.9586 15.3806 21.9458C15.401 21.9331 15.4244 21.932 15.4453 21.9437L16.472 22.7539C16.5255 22.796 16.543 22.8685 16.5377 22.9415L16.3659 25.2193C16.364 25.2475 16.3489 25.271 16.3255 25.2832C16.3022 25.295 16.2769 25.2923 16.2559 25.2758Z" fill="#D39F25"/>
<path fill-rule="evenodd" clip-rule="evenodd" d="M15.6546 21.8419C15.7529 21.5468 14.6863 21.0136 14.5228 21.4637C14.2985 22.2617 13.7608 22.5499 13.6854 22.95C13.103 25.6076 15.5899 23.8902 15.7179 23.7389C15.752 23.4965 15.8084 23.0565 15.4576 22.6575C15.3199 22.5003 15.4313 22.5115 15.6546 21.8419Z" fill="#D99E72"/>
<path fill-rule="evenodd" clip-rule="evenodd" d="M12.7424 28.7763L11.8923 39.7191C11.8699 39.7788 11.9964 39.8118 12.0339 39.6983L12.8806 28.82C12.8908 28.6889 12.7492 28.657 12.7424 28.7763Z" fill="#858585"/>
<path fill-rule="evenodd" clip-rule="evenodd" d="M12.7594 28.8154L11.9152 39.6863C11.9123 39.7215 11.9507 39.7316 11.9541 39.681L12.7964 28.841C12.7877 28.8437 12.7648 28.825 12.7594 28.8154Z" fill="#C4C4C4"/>
<path fill-rule="evenodd" clip-rule="evenodd" d="M13.1926 28.8713C13.1609 29.0055 12.9371 29.0673 12.7507 29.0241C12.5644 28.981 12.4631 28.8798 12.4471 28.77L12.4466 28.7663C12.4461 28.7605 12.4451 28.7546 12.4451 28.7482L12.3984 28.1399C12.4228 27.7015 13.4597 27.7579 13.3458 28.2203L13.1926 28.8713Z" fill="#858585"/>
<path fill-rule="evenodd" clip-rule="evenodd" d="M12.7971 27.9059L12.6959 29.0092C12.6409 28.9959 12.547 28.95 12.5173 28.9L12.4434 28.0519C12.5027 27.9576 12.64 27.9022 12.7971 27.9059Z" fill="#C4C4C4"/>
<path fill-rule="evenodd" clip-rule="evenodd" d="M13.088 28.991L13.306 28.1477C13.285 28.0992 13.249 28.0571 13.2028 28.022L12.9673 29.032C13.0121 29.024 13.0529 29.0101 13.088 28.991Z" fill="#585857"/>
<path fill-rule="evenodd" clip-rule="evenodd" d="M28.1013 43.3632C28.1013 43.3632 27.9018 45.1382 28.6248 44.6625C28.9324 44.4601 28.9917 45.2607 28.9786 45.5287C28.9611 45.8909 28.5407 46.234 28.1076 46.5291C27.5928 46.8109 27.0458 47.5657 26.8677 47.7463C26.3787 48.2428 25.1963 48.369 24.6207 48.2279C24.2849 48.1458 24.0538 47.9546 24.0825 47.6701C24.1107 47.5694 24.081 47.5353 24.1964 47.4139C24.3136 47.2903 25.0844 46.4625 25.4167 46.2025C26.2673 45.5388 26.515 44.4126 26.5661 44.1559C26.6196 43.8991 26.7972 43.1144 26.7972 43.1144C26.7972 43.1144 27.1928 42.9056 28.1013 43.3632Z" fill="#929292"/>
<path fill-rule="evenodd" clip-rule="evenodd" d="M28.2598 43.1165C28.2642 43.9326 28.8778 43.703 28.8744 45.1403C28.8734 45.6714 28 46.0901 27.6672 46.358C27.1952 46.7384 27.1275 46.9855 26.9358 47.3062C26.7592 47.6019 26.4696 47.7638 26.0828 47.8746C25.1831 48.133 24.0887 48.1319 24.1097 47.2524C24.1179 46.9131 25.2449 46.1854 25.6254 45.8647C26.6239 45.1328 26.2692 43.7472 26.3208 43.4905C26.3743 43.2337 26.7971 43.1144 26.7971 43.1144C26.7971 43.1144 27.3518 42.6589 28.2598 43.1165Z" fill="#3E3E3D"/>
<path fill-rule="evenodd" clip-rule="evenodd" d="M25.5451 22.0156C24.6313 24.1645 21.8085 31.7923 22.0883 33.4911C21.156 34.1106 19.2953 34.7584 19.2783 33.2897C19.2135 28.3153 19.3259 23.0836 20.2407 18.5322C20.2407 18.5322 23.0026 18.8593 25.0857 19.6115C25.0473 20.084 25.622 21.835 25.5451 22.0156Z" fill="#314A8D"/>
<path fill-rule="evenodd" clip-rule="evenodd" d="M22.0216 31.9661C21.1511 28.8945 20.0903 30.2684 19.2641 31.7445C19.3054 34.1113 19.2329 39.0819 18.8179 40.5431C18.8198 41.5356 21.3355 41.7667 21.3861 41.3507C21.8683 37.0694 22.3141 35.8404 22.0216 31.9661Z" fill="#314A8D"/>
<path fill-rule="evenodd" clip-rule="evenodd" d="M27.1715 35.3865C27.4664 38.0426 24.903 38.6594 24.122 36.4503C22.9615 33.1673 22.0559 24.5908 21.8501 20.0527C24.5551 19.578 26.374 19.5232 27.1871 19.0054C27.8133 22.7993 26.4883 31.0061 27.1715 35.3865Z" fill="#4165BD"/>
<path fill-rule="evenodd" clip-rule="evenodd" d="M26.6256 34.3418C24.8393 31.7881 24.432 34.7531 24.1221 36.4503C24.9809 38.5987 26.2811 43.2279 26.2845 44.802C27.065 45.7262 28.8153 45.3826 28.8571 44.7386C28.4761 41.6186 28.8552 38.6647 26.6256 34.3418Z" fill="#4165BD"/>
<path fill-rule="evenodd" clip-rule="evenodd" d="M18.562 4.97039C21.3628 4.25391 19.4836 14.8132 19.1089 15.7401C18.4048 17.0596 16.781 16.4097 16.8068 14.8904C16.8818 13.0654 15.675 5.11103 18.562 4.97039Z" fill="#CB6117"/>
<path fill-rule="evenodd" clip-rule="evenodd" d="M19.1004 15.4396C19.3782 16.6648 16.6543 21.2577 15.5478 22.3253C14.9313 22.516 14.1099 21.7979 14.3756 21.2476C14.5615 20.635 16.0884 16.5465 16.8066 14.8903C17.3414 14.3092 18.4503 14.6213 19.1004 15.4396Z" fill="#DE7E32"/>
<path fill-rule="evenodd" clip-rule="evenodd" d="M22.0593 5.49577C22.2447 5.48991 24.6509 6.11158 25.7706 6.81635C26.5491 7.40978 26.1127 9.3371 26.1564 9.57469C26.3034 10.3444 26.592 14.0355 26.6752 15.11C26.7584 16.1839 27.4255 18.2439 26.7331 18.897C24.3984 18.9007 20.6565 19.3407 20.0701 17.8587C20.0079 15.6336 18.9714 14.7323 18.0678 11.1707C17.8503 10.3135 16.6523 7.48755 17.5778 6.02688C17.8138 5.65346 18.3802 5.30134 18.751 5.22357C20.0726 4.94443 21.8287 5.5043 22.0593 5.49577Z" fill="#CB6117"/>
<path fill-rule="evenodd" clip-rule="evenodd" d="M20.0946 5.76257C18.7141 5.67734 18.1039 8.19597 19.3034 12.4864C18.9136 12.7745 18.9506 12.5673 18.4071 12.5615C17.4315 9.00673 16.9687 6.56536 18.6869 5.53564C19.4649 5.62194 19.3457 5.41578 20.0946 5.76257Z" fill="#4165BD"/>
<path fill-rule="evenodd" clip-rule="evenodd" d="M27.3644 18.9097C24.7153 20.3693 20.6537 20.8929 20.21 18.6849C20.226 18.434 20.0397 17.8198 20.0562 17.5688C21.6313 18.8473 25.4861 19.3342 27.2403 18.2262C27.2816 18.4542 27.323 18.6822 27.3644 18.9097Z" fill="#314A8D"/>
<path fill-rule="evenodd" clip-rule="evenodd" d="M24.9854 7.03122C27.3979 5.31699 29.1662 16.1154 29.101 17.1265C28.8475 18.6292 27.1887 18.2542 26.742 16.8154C25.7517 15.303 22.313 8.2362 24.9854 7.03122Z" fill="#DE7E32"/>
<path fill-rule="evenodd" clip-rule="evenodd" d="M25.6566 6.74769C24.389 6.63209 23.2888 8.39801 23.3443 12.9947C22.9088 13.2952 22.3215 13.2786 21.8154 13.2627C21.8977 10.027 22.5657 6.25547 24.226 6.11377C24.5379 6.1713 25.0435 6.36467 25.6566 6.74769Z" fill="#4165BD"/>
<path fill-rule="evenodd" clip-rule="evenodd" d="M25.6279 18.8014C23.9847 17.3487 23.6173 14.7369 23.394 11.1161C21.2627 11.8901 19.3183 11.5439 17.7441 9.84082C18.3198 12.2976 18.7621 14.4151 19.928 17.4116C20.7464 18.4999 22.3493 19.8509 25.6279 18.8014Z" fill="#314A8D"/>
<path fill-rule="evenodd" clip-rule="evenodd" d="M29.0545 16.878C29.5017 18.0414 27.2872 23.6753 26.3447 24.917C25.7627 25.2095 24.6109 24.5393 24.7963 23.9507C24.8937 23.3141 26.1466 18.3818 26.6225 16.6244C27.1947 15.4988 28.2969 16.1791 29.0545 16.878Z" fill="#DE7E32"/>
<path fill-rule="evenodd" clip-rule="evenodd" d="M22.1235 12.5595C20.9119 12.6628 19.7781 12.4689 18.7373 11.9165L18.9986 13.228C20.0784 13.8561 21.1523 13.9956 22.3654 13.8918L22.1235 12.5595Z" fill="#4165BD"/>
<path fill-rule="evenodd" clip-rule="evenodd" d="M20.7529 4.0791C21.0594 4.67093 21.4711 5.47532 22.0083 5.81572C22.2477 6.27704 22.0623 6.88486 21.6589 7.46018C20.7899 8.70031 19.6785 8.5325 19.5554 7.67538C19.4595 7.38559 19.6726 6.93439 19.6225 6.62329C19.5651 6.2781 20.0999 6.00856 19.9432 5.70652L20.7529 4.0791Z" fill="#D99E72"/>
<path fill-rule="evenodd" clip-rule="evenodd" d="M16.314 3.56148C16.4897 3.91253 16.5388 4.30939 16.6322 4.69401C16.6678 5.03227 16.9403 5.05571 17.0653 5.3178C17.1145 5.42061 17.0639 5.62143 17.1213 5.76952C17.2833 6.18983 17.659 6.78486 17.9465 7.11621C18.1358 7.37616 18.3728 7.77941 18.9285 7.83534C19.7771 7.94082 20.1231 6.88714 20.6442 6.28412C21.1615 5.68749 20.4778 4.98379 20.4048 4.29979C20.0554 1.05936 16.0814 1.38538 16.314 3.56148Z" fill="#ECC19A"/>
<path fill-rule="evenodd" clip-rule="evenodd" d="M21.1162 3.21533L21.1255 3.28192C21.1225 3.25955 21.1191 3.23717 21.1162 3.21533Z" fill="#262424"/>
<path fill-rule="evenodd" clip-rule="evenodd" d="M19.153 3.92489C19.3744 3.9185 19.4275 3.91476 19.5992 4.1369C19.7447 4.32441 19.8926 4.26049 20.061 4.71382C20.097 4.77668 20.6104 3.60739 20.823 4.20615C21.0585 4.8699 21.5563 5.3994 21.7733 5.63166C22.2736 5.1469 21.3627 3.66226 21.2118 3.24676C20.9992 2.1968 20.2639 1.24486 19.7043 1.0957C18.5837 1.84522 18.3385 1.97999 18.2275 2.93885C18.3098 3.34957 18.8679 3.93288 19.153 3.92489Z" fill="#643F42"/>
<path fill-rule="evenodd" clip-rule="evenodd" d="M20.8052 4.0078C20.902 4.44568 20.8373 4.83722 20.6621 4.8825C20.4869 4.92884 20.3054 4.57779 20.1142 4.2651C19.8042 3.83201 20.0709 3.36004 20.3147 3.30304C20.4913 3.26149 20.7093 3.57258 20.8052 4.0078Z" fill="#ECC19A"/>
<path fill-rule="evenodd" clip-rule="evenodd" d="M18.5049 6.34268C18.739 6.36984 18.9808 6.47105 19.2567 6.61329C19.7058 6.84448 19.7029 6.12373 19.7501 5.51059C19.7793 5.13077 20.1793 5.02742 19.9798 4.52988L20.1151 4.26514C20.5608 4.84312 20.8406 5.26449 20.97 5.615C21.0532 5.8398 21.1014 6.07099 21.1189 6.30059V6.7065C21.0313 7.84329 20.2192 8.83732 19.1555 8.73984C18.9667 8.72226 18.7312 8.54167 18.5049 8.2945V7.15184C18.7536 7.19552 19.1521 7.07034 18.8703 6.94835C18.7798 6.90893 18.6528 6.86952 18.5049 6.86899V6.34268ZM17.6928 6.81198C17.7006 6.6543 17.6796 6.53179 18.0096 6.40713C18.1769 6.34108 18.339 6.32297 18.5049 6.34268V6.86792C18.4319 6.86738 18.3546 6.87645 18.2723 6.89882C17.7604 7.03839 18.2524 7.3857 18.3799 7.10231C18.411 7.12681 18.4548 7.14226 18.5049 7.15078V8.29343C18.0748 7.82305 17.6777 7.10976 17.6928 6.81198Z" fill="#643F42"/>
<path fill-rule="evenodd" clip-rule="evenodd" d="M19.7037 1.0958C19.2443 0.313796 17.3841 1.02921 16.4435 2.20915C15.9812 2.61827 15.6659 2.71309 15.2158 2.54476C15.3248 3.66556 15.7881 4.39962 17.0114 4.12155C16.9418 3.34487 17.9223 3.41892 18.3514 2.76263C18.748 2.26189 19.3071 1.59601 19.7037 1.0958Z" fill="#643F42"/>
<path fill-rule="evenodd" clip-rule="evenodd" d="M13.5087 23.6914C13.7923 23.2119 14.8074 22.7309 15.7295 22.3159C15.8132 22.3548 15.9874 22.4795 16.0409 22.5769C16.0711 22.8689 16.0326 23.3201 15.9772 23.7063C15.1899 24.019 13.786 25.0705 13.6006 25.0172C13.3281 24.9389 13.2946 24.0531 13.5087 23.6914Z" fill="#585857"/>
<path fill-rule="evenodd" clip-rule="evenodd" d="M13.7311 24.0194C14.027 23.5192 15.0702 23.0126 16.039 22.5747L16.041 22.5774C16.0711 22.8693 16.0327 23.3205 15.9777 23.7067C15.1909 24.0194 13.7885 25.0694 13.6017 25.0177C13.5511 24.6863 13.5934 24.2522 13.7311 24.0194Z" fill="#3E3E3D"/>
<path fill-rule="evenodd" clip-rule="evenodd" d="M13.5508 28.1522C13.4953 28.3892 13.1007 28.4979 12.7732 28.4212C12.4453 28.345 12.2662 28.1666 12.239 27.9737H12.2385L12.238 27.9673C12.2365 27.9567 12.2355 27.946 12.2355 27.9359L12.1533 26.8652C12.1961 26.0933 14.0223 26.1929 13.8214 27.0069L13.5508 28.1522Z" fill="#858585"/>
<path fill-rule="evenodd" clip-rule="evenodd" d="M12.8543 26.4524L12.6757 28.3947C12.5789 28.3713 12.4134 28.2903 12.3609 28.2024L12.231 26.7081C12.3356 26.5435 12.5774 26.4461 12.8543 26.4524Z" fill="#C4C4C4"/>
<path fill-rule="evenodd" clip-rule="evenodd" d="M13.3664 28.3634L13.7499 26.8788C13.7134 26.793 13.6496 26.7195 13.5684 26.6577L13.1538 28.4359C13.2336 28.422 13.3056 28.3975 13.3664 28.3634Z" fill="#585857"/>
<path fill-rule="evenodd" clip-rule="evenodd" d="M12.168 26.625L12.4185 23.3696C12.5621 23.1097 13.0302 22.8689 13.3489 22.895C13.6234 23.0463 13.9489 23.2397 14.1065 23.4128L14.4048 23.8491L14.235 26.0902L13.7903 27.0964L13.7615 27.1577C13.5971 27.3649 13.2224 27.4592 12.837 27.3692C12.3762 27.2616 12.0755 26.9334 12.1645 26.6357L12.168 26.625Z" fill="#D39F25"/>
<path fill-rule="evenodd" clip-rule="evenodd" d="M14.1089 23.416L14.4262 23.62L14.2374 26.0412L13.8374 26.9926L14.1089 23.416Z" fill="#C18B21"/>
<path fill-rule="evenodd" clip-rule="evenodd" d="M12.1519 26.7898L12.1635 26.639L12.1645 26.6358L12.1679 26.6251L12.4253 23.2819C12.6248 23.1461 12.9372 22.9346 13.2229 22.8978L13.2389 22.8962L13.255 22.8952L13.271 22.8941L13.2871 22.8936H13.3027H13.3182L13.3333 22.8941L13.3484 22.8952L13.3503 22.8962L13.0136 27.3981C12.9552 27.3928 12.8964 27.3826 12.837 27.3693C12.455 27.2804 12.183 27.0396 12.1519 26.7898Z" fill="#C18B21"/>
<path fill-rule="evenodd" clip-rule="evenodd" d="M12.4253 23.2823C12.7061 23.5247 12.9863 23.7676 13.2671 24.01C13.814 23.7559 13.9629 23.7016 14.4257 23.6201C14.0491 23.3154 13.8486 23.1524 13.472 22.8477C13.0579 22.9031 12.8131 22.9435 12.4253 23.2823Z" fill="#EDC52E"/>
<path fill-rule="evenodd" clip-rule="evenodd" d="M13.2393 25.4504L13.9215 25.0615C13.9541 25.0429 13.9502 25.1063 13.9239 25.1212L13.2417 25.51C13.2087 25.5287 13.213 25.4658 13.2393 25.4504Z" fill="#222221"/>
<path fill-rule="evenodd" clip-rule="evenodd" d="M13.2525 25.3122L13.9347 24.9233C13.9673 24.9047 13.9634 24.9681 13.9371 24.983L13.2549 25.3713C13.2218 25.3905 13.2262 25.3271 13.2525 25.3122Z" fill="#222221"/>
<path fill-rule="evenodd" clip-rule="evenodd" d="M13.2654 25.1735L13.9476 24.7852C13.9802 24.7665 13.9763 24.8294 13.95 24.8443L13.2678 25.2332C13.2347 25.2518 13.2386 25.1884 13.2654 25.1735Z" fill="#222221"/>
<path fill-rule="evenodd" clip-rule="evenodd" d="M13.2786 25.0353L13.9608 24.647C13.9934 24.6283 13.9895 24.6917 13.9628 24.7066L13.2806 25.095C13.248 25.1131 13.2519 25.0502 13.2786 25.0353Z" fill="#222221"/>
<path fill-rule="evenodd" clip-rule="evenodd" d="M13.2918 24.8966L13.974 24.5083C14.0066 24.4897 14.0027 24.5525 13.976 24.5674L13.2937 24.9563C13.2611 24.9744 13.265 24.9116 13.2918 24.8966Z" fill="#222221"/>
<path fill-rule="evenodd" clip-rule="evenodd" d="M13.305 24.7575L13.9872 24.3691C14.0198 24.3505 14.0159 24.4134 13.9891 24.4288L13.3069 24.8177C13.2743 24.8358 13.2782 24.7729 13.305 24.7575Z" fill="#222221"/>
<path fill-rule="evenodd" clip-rule="evenodd" d="M13.3182 24.6194L14.0004 24.2305C14.033 24.2118 14.0291 24.2747 14.0023 24.2901L13.3201 24.679C13.2875 24.6971 13.2914 24.6343 13.3182 24.6194Z" fill="#222221"/>
<path fill-rule="evenodd" clip-rule="evenodd" d="M15.724 24.2291C15.6145 24.228 15.5148 24.1481 15.5187 24.0394L15.5396 23.4343C15.5483 23.1733 15.8101 23.1925 15.8427 23.4508L15.9162 24.024C15.9298 24.1316 15.8335 24.2302 15.724 24.2291Z" fill="#D99E72"/>
<path fill-rule="evenodd" clip-rule="evenodd" d="M15.322 24.3646C15.2048 24.363 15.0997 24.2681 15.1021 24.1403L15.1172 23.3508C15.123 23.044 15.4291 23.0344 15.4563 23.3402L15.5274 24.1238C15.5381 24.2511 15.4388 24.3662 15.322 24.3646Z" fill="#D99E72"/>
<path fill-rule="evenodd" clip-rule="evenodd" d="M14.9185 24.4985C14.8012 24.4969 14.6859 24.3914 14.6976 24.2519L14.7755 23.3425C14.8037 23.0091 15.1389 22.9968 15.1346 23.3319L15.1229 24.2353C15.1209 24.376 15.0353 24.5001 14.9185 24.4985Z" fill="#D99E72"/>
<path fill-rule="evenodd" clip-rule="evenodd" d="M14.373 22.43C14.0299 22.7193 13.99 22.9489 13.9866 23.3329C13.9832 23.717 13.972 23.8278 14.0431 23.9296C14.1973 24.1496 14.6095 24.2939 14.8966 24.3872C14.9749 23.9402 14.7866 23.8065 14.4976 23.766C14.5764 23.6914 14.6245 23.7016 14.5428 23.4246C15.7043 22.3634 14.788 21.8893 14.373 22.43Z" fill="#ECC19A"/>
<path fill-rule="evenodd" clip-rule="evenodd" d="M14.5106 25.2301C14.4011 25.229 14.3053 25.1486 14.314 25.0404L14.3617 24.4353C14.3822 24.1743 14.643 24.1934 14.6639 24.4518L14.7116 25.025C14.7208 25.1326 14.6196 25.2317 14.5106 25.2301Z" fill="#D99E72"/>
<path fill-rule="evenodd" clip-rule="evenodd" d="M26.0709 24.6523C26.1979 24.3748 25.1415 23.8937 24.9347 24.3146C24.7449 25.1174 24.2919 25.1744 24.177 25.5568C24.1211 25.7241 23.9678 27.1773 24.0826 27.5257C24.0778 27.7798 25.5054 27.5454 25.6684 27.3403C25.8811 26.9152 25.9482 25.836 25.8923 25.6048C25.758 25.0524 25.7828 25.2814 26.0709 24.6523Z" fill="#ECC19A"/>
<path fill-rule="evenodd" clip-rule="evenodd" d="M25.3448 27.4693L25.5575 28.4308C25.6115 28.6748 25.865 28.5784 25.8343 28.3296L25.7166 27.3702C25.6874 27.131 25.2884 27.2152 25.3448 27.4693Z" fill="#D99E72"/>
<path fill-rule="evenodd" clip-rule="evenodd" d="M25.1319 27.2642C25.0205 27.2839 24.9446 27.3995 24.9626 27.5209L25.1329 28.6726C25.1762 28.964 25.4774 28.9075 25.455 28.6135L25.367 27.4495C25.3572 27.3265 25.2429 27.2444 25.1319 27.2642Z" fill="#D99E72"/>
<path fill-rule="evenodd" clip-rule="evenodd" d="M24.7397 27.2937C24.6292 27.3192 24.547 27.4396 24.5733 27.5712L24.8229 28.8236C24.8857 29.1389 25.2107 29.0782 25.1635 28.7602L24.9772 27.4998C24.9577 27.3666 24.8506 27.2739 24.7397 27.2937Z" fill="#D99E72"/>
<path fill-rule="evenodd" clip-rule="evenodd" d="M24.0848 27.5961L24.315 28.7451C24.3729 29.0339 24.7018 28.9683 24.6585 28.6764L24.4882 27.5247C24.4444 27.2253 24.0284 27.3159 24.0848 27.5961Z" fill="#D99E72"/>
<path fill-rule="evenodd" clip-rule="evenodd" d="M24.6935 25.1389C24.5149 25.1517 24.2745 25.3365 24.1003 25.6103C23.9261 25.8836 23.7709 26.2182 23.7081 26.3375C23.5456 26.6454 23.6122 26.6443 23.4502 26.9528C23.6054 27.0646 23.8458 27.152 24.0901 26.5783C24.1874 26.4936 24.2769 26.5287 24.421 26.0802C25.2608 25.9785 25.0389 25.1006 24.6935 25.1389Z" fill="#ECC19A"/>
</svg>
