<svg width="57" height="56" viewBox="0 0 57 56" fill="none" xmlns="http://www.w3.org/2000/svg">
<path fill-rule="evenodd" clip-rule="evenodd" d="M0 40.3913L22.4792 54.6225L56.5367 33.0986L34.0523 18.8687L0 40.3913Z" fill="#BBEFEF"/>
<path fill-rule="evenodd" clip-rule="evenodd" d="M12.376 48.2286L12.3742 47.8444L9.11377 45.7837L9.11493 46.1678L12.376 48.2286Z" fill="#552610"/>
<path fill-rule="evenodd" clip-rule="evenodd" d="M9.11377 45.7833L12.3742 47.8441L23.3896 40.8815L20.1314 38.8169L9.11377 45.7833Z" fill="#874322"/>
<path fill-rule="evenodd" clip-rule="evenodd" d="M12.3758 48.2288L12.374 47.844L23.3894 40.8813L23.3905 41.2661L12.3758 48.2288Z" fill="#703317"/>
<path fill-rule="evenodd" clip-rule="evenodd" d="M56.5372 33.0977L22.4785 54.6216L22.4803 55.0299L56.5325 33.506L56.5372 33.0977Z" fill="#88BBBB"/>
<path fill-rule="evenodd" clip-rule="evenodd" d="M0 40.3911L22.4786 54.6223L22.4798 55.03L0.0145209 40.8306L0 40.3911Z" fill="#74A8A8"/>
<path fill-rule="evenodd" clip-rule="evenodd" d="M27.7388 4.98768C24.609 4.18692 26.7093 15.9859 27.1276 17.0214C27.9148 18.4957 29.6978 17.265 29.6694 15.5674C29.5863 13.5289 30.9655 5.14478 27.7388 4.98768Z" fill="#CB6117"/>
<path fill-rule="evenodd" clip-rule="evenodd" d="M27.1279 17.0216C27.315 18.4171 31.9094 21.9025 33.467 22.4921C34.1781 22.4037 34.9246 21.0331 34.4366 20.5879C34.0073 20.0409 31.0536 16.9466 29.6697 15.5677C28.5281 14.8547 27.4829 15.8736 27.1279 17.0216Z" fill="#DE7E32"/>
<path fill-rule="evenodd" clip-rule="evenodd" d="M33.323 21.8031C33.0546 21.6187 33.8092 20.4891 34.2299 20.76C34.8358 21.4069 35.2994 21.1741 35.6114 21.4667C35.7532 21.5913 36.6688 22.8824 36.7438 23.2876C36.8832 23.5274 35.3947 24.2086 35.1304 24.1157C34.7022 23.8448 34.0672 22.8557 33.9981 22.5988C33.8337 21.9869 33.9312 22.2216 33.323 21.8031Z" fill="#D99E72"/>
<path fill-rule="evenodd" clip-rule="evenodd" d="M35.507 24.0352L35.8132 25.089C35.891 25.3568 35.597 25.4249 35.4948 25.1679L35.0997 24.177C35.001 23.9289 35.4268 23.7566 35.507 24.0352Z" fill="#D99E72"/>
<path fill-rule="evenodd" clip-rule="evenodd" d="M35.6021 23.7037C35.7188 23.6522 35.8525 23.7139 35.9001 23.8417L36.3469 25.0502C36.4602 25.3561 36.1424 25.4935 36.0082 25.1978L35.4766 24.0294C35.4202 23.906 35.4859 23.7552 35.6021 23.7037Z" fill="#D99E72"/>
<path fill-rule="evenodd" clip-rule="evenodd" d="M35.9928 23.4829C36.1119 23.4371 36.2542 23.5008 36.2984 23.6426L36.7225 24.9973C36.8294 25.3382 36.4872 25.4871 36.3634 25.1525L35.8748 23.8302C35.8231 23.6909 35.876 23.5351 35.9928 23.4829Z" fill="#D99E72"/>
<path fill-rule="evenodd" clip-rule="evenodd" d="M36.7786 23.3571L37.1661 24.6012C37.2637 24.9135 36.9145 25.0598 36.8012 24.7539L36.3545 23.5454C36.2389 23.2305 36.6839 23.0537 36.7786 23.3571Z" fill="#D99E72"/>
<path fill-rule="evenodd" clip-rule="evenodd" d="M23.2659 26.2046C29.2663 26.2046 34.1331 29.0292 34.1331 32.5127C34.1331 35.9963 29.2668 38.8209 23.2659 38.8209C17.2894 38.8209 12.4388 36.0186 12.3999 32.5547L22.4165 26.2237C22.6966 26.2109 22.9801 26.2046 23.2659 26.2046Z" fill="#88BBBB"/>
<path fill-rule="evenodd" clip-rule="evenodd" d="M19.0108 26.9701C19.0108 26.9701 17.186 26.9498 17.7745 26.1433C18.0243 25.8004 17.2237 25.6103 16.9501 25.5861C16.5812 25.5537 16.1722 26.0129 15.8097 26.4944C15.4483 27.0763 14.6047 27.6284 14.395 27.8179C13.8204 28.3376 13.5183 29.7527 13.5758 30.4708C13.6095 30.89 13.7687 31.1984 14.0603 31.2061C14.1661 31.187 14.1963 31.2277 14.3363 31.1056C14.4786 30.9816 15.4297 30.1693 15.7417 29.8049C16.5388 28.8718 17.7147 28.7383 17.9813 28.7135C18.2492 28.6867 19.0689 28.5869 19.0689 28.5869C19.0689 28.5869 19.3397 28.1391 19.0108 26.9701Z" fill="#979796"/>
<path fill-rule="evenodd" clip-rule="evenodd" d="M19.2845 26.8142C18.4595 26.6883 18.7825 25.9785 17.3283 25.7698C16.7909 25.6929 16.2384 26.6902 15.9183 27.0534C15.4634 27.5698 15.2037 27.6156 14.851 27.8C14.5257 27.9705 14.3194 28.2974 14.1504 28.7496C13.7565 29.8023 13.5955 31.1297 14.4879 31.2333C14.8324 31.2734 15.7353 30.0147 16.1158 29.6013C16.9756 28.6167 18.3398 28.9932 18.607 28.9684C18.8749 28.9417 19.0712 28.5868 19.0712 28.5868C19.0712 28.5868 19.6127 27.9826 19.2845 26.8142Z" fill="#3E3E3D"/>
<path fill-rule="evenodd" clip-rule="evenodd" d="M23.8305 5.57454C23.623 5.56754 20.9343 6.26273 19.6834 7.05013C18.8131 7.71351 19.3012 9.86712 19.2523 10.1323C19.0885 10.9923 18.7655 15.1169 18.6731 16.3178C18.5802 17.5179 17.8348 19.8197 18.6086 20.5493C19.1362 24.1708 24.8687 21.967 26.0544 19.3891C26.1236 16.9029 27.282 15.8954 28.2918 11.9158C28.5346 10.9585 29.8738 7.80002 28.8391 6.16796C28.5759 5.75073 27.9426 5.35701 27.5278 5.26988C26.0509 4.95886 24.0884 5.58471 23.8305 5.57454Z" fill="#CB6117"/>
<path fill-rule="evenodd" clip-rule="evenodd" d="M24.2197 24.2543C23.469 24.9291 22.8201 26.0332 23.817 28.0895C26.0695 29.9315 27.9065 32.5443 30.8765 34.4473C29.6042 31.7817 29.341 30.7112 28.0692 28.0456C26.3176 25.0283 25.1794 24.2345 24.2197 24.2543Z" fill="#314A8D"/>
<path fill-rule="evenodd" clip-rule="evenodd" d="M30.4539 34.1509C31.2824 35.0477 33.3373 34.5014 33.1537 33.2548C32.2323 26.9854 29.0968 22.7952 26.2779 18.6369C22.9971 20.765 24.4356 19.1203 23.6274 18.5059C22.5346 20.1939 22.7856 22.7138 23.201 23.3181C23.9197 24.3643 24.0126 24.4209 25.4145 26.6458C26.8815 29.2802 28.8301 32.393 30.4539 34.1509Z" fill="#4165BD"/>
<path fill-rule="evenodd" clip-rule="evenodd" d="M17.9946 25.9399C17.2439 26.5264 16.448 27.0854 17.445 29.2594C19.9159 31.2985 21.9894 35.5504 24.34 37.8611C23.0682 35.046 23.3047 33.5399 22.033 30.7242C20.2819 27.5001 19.0002 26.4386 17.9946 25.9399Z" fill="#314A8D"/>
<path fill-rule="evenodd" clip-rule="evenodd" d="M26.0269 5.87293C27.5699 5.77752 28.2514 8.59195 26.9105 13.3864C27.3457 13.7082 27.305 13.4767 27.9121 13.4703C29.002 9.49829 29.5197 6.77036 27.5996 5.61914C26.7304 5.71582 26.8635 5.48559 26.0269 5.87293Z" fill="#4165BD"/>
<path fill-rule="evenodd" clip-rule="evenodd" d="M24.2229 37.6974C24.5825 38.4588 27.1202 38.6801 27.2283 37.2649C27.3171 32.8687 26.3643 29.8755 24.4512 24.6664C25.946 24.2587 24.6458 21.9411 24.7591 19.147C21.4783 21.5461 19.3572 20.676 18.0633 20.1932C17.0792 24.6734 22.2208 33.4589 24.2229 37.6974Z" fill="#4165BD"/>
<path fill-rule="evenodd" clip-rule="evenodd" d="M18.0625 20.1941C21.0824 21.8249 25.8308 21.5209 26.3368 19.0531C26.3182 18.7726 26.3926 18.2644 26.3745 17.9839C24.5787 19.4124 20.204 20.6686 18.2043 19.4309C18.1566 19.6853 18.1096 19.9397 18.0625 20.1941Z" fill="#314A8D"/>
<path fill-rule="evenodd" clip-rule="evenodd" d="M19.8115 6.97366C21.2285 6.84455 22.4573 8.81816 22.3951 13.9541C22.8814 14.2899 23.5379 14.2715 24.1032 14.2537C24.0114 10.6378 23.2648 6.42414 21.4098 6.26514C21.0612 6.33001 20.4965 6.54562 19.8115 6.97366Z" fill="#4165BD"/>
<path fill-rule="evenodd" clip-rule="evenodd" d="M19.4902 19.8995C21.3267 18.2764 22.0907 15.9002 22.3399 11.8544C24.7214 12.7188 26.8942 12.3327 28.6528 10.4297C28.0097 13.1754 27.6443 15.3812 26.3417 18.7299C25.4267 19.946 23.1539 21.073 19.4902 19.8995Z" fill="#314A8D"/>
<path fill-rule="evenodd" clip-rule="evenodd" d="M18.7266 19.2927C18.7219 20.7034 23.3936 25.6422 24.8535 26.4805C25.5687 26.5085 26.4937 25.2759 26.0719 24.7556C25.7221 24.1444 22.6191 19.8588 21.4386 18.27C20.4062 17.3783 19.2338 18.2159 18.7266 19.2927Z" fill="#DE7E32"/>
<path fill-rule="evenodd" clip-rule="evenodd" d="M23.7593 13.4681C25.113 13.5832 26.3801 13.367 27.5432 12.75L27.2516 14.216C26.0455 14.9176 24.8452 15.0741 23.4897 14.9577L23.7593 13.4681Z" fill="#4165BD"/>
<path fill-rule="evenodd" clip-rule="evenodd" d="M25.2907 3.9917C24.9479 4.65317 24.4883 5.55188 23.8882 5.93223C23.6209 6.44805 23.8283 7.12733 24.2786 7.76973C25.2494 9.15564 26.4915 8.968 26.6292 8.01014C26.7361 7.68576 26.4985 7.18266 26.5543 6.83412C26.6182 6.44805 26.0209 6.14721 26.1958 5.80948L25.2907 3.9917Z" fill="#D99E72"/>
<path fill-rule="evenodd" clip-rule="evenodd" d="M30.2508 3.41366C30.055 3.80545 29.9998 4.2494 29.8953 4.67935C29.8558 5.05779 29.5513 5.08324 29.4113 5.37645C29.3567 5.49157 29.413 5.71546 29.3491 5.88146C29.1679 6.35085 28.7484 7.01614 28.4265 7.38631C28.2151 7.67698 27.9507 8.12729 27.3291 8.18962C26.3803 8.30792 25.994 7.12999 25.4118 6.45643C24.8338 5.78987 25.5978 5.00374 25.6791 4.23923C26.0701 0.617669 30.5105 0.982112 30.2508 3.41366Z" fill="#ECC19A"/>
<path fill-rule="evenodd" clip-rule="evenodd" d="M24.885 3.02686L24.8745 3.10127C24.8774 3.07583 24.8815 3.05102 24.885 3.02686Z" fill="#262424"/>
<path fill-rule="evenodd" clip-rule="evenodd" d="M27.079 3.81943C26.8315 3.81243 26.7728 3.8086 26.5805 4.05602C26.4178 4.26591 26.2528 4.19468 26.0646 4.70096C26.0245 4.77092 25.4505 3.46452 25.2129 4.13362C24.9497 4.87587 24.3931 5.46738 24.1508 5.72624C23.5919 5.18434 24.6098 3.52557 24.7783 3.06127C25.0159 1.88779 25.8374 0.824355 26.4626 0.657715C27.7151 1.49537 27.9888 1.64548 28.1125 2.71719C28.0213 3.1764 27.3973 3.82833 27.079 3.81943Z" fill="#643F42"/>
<path fill-rule="evenodd" clip-rule="evenodd" d="M25.2318 3.91124C25.1237 4.40035 25.1963 4.83795 25.3916 4.8882C25.5873 4.94035 25.7901 4.54727 26.0033 4.19809C26.3502 3.71407 26.0515 3.1868 25.7796 3.12319C25.5827 3.0774 25.3387 3.42468 25.2318 3.91124Z" fill="#ECC19A"/>
<path fill-rule="evenodd" clip-rule="evenodd" d="M28.7111 7.04546C28.7023 6.86928 28.7256 6.73253 28.3572 6.5926C28.1702 6.51882 27.9889 6.49847 27.8036 6.52073V7.10715C27.8849 7.10715 27.9726 7.1167 28.0638 7.14214C28.6361 7.29797 28.0859 7.68659 27.9436 7.36984C27.9087 7.39719 27.8593 7.41436 27.8036 7.4239V8.70041C28.2835 8.17441 28.7273 7.37811 28.7111 7.04546ZM27.8036 6.52073C27.5421 6.55126 27.272 6.66448 26.9635 6.82349C26.4621 7.08235 26.465 6.27651 26.4121 5.59087C26.3796 5.16663 25.9328 5.0515 26.1553 4.49497L26.0043 4.19922C25.5064 4.84543 25.1938 5.3161 25.0486 5.70789C24.9562 5.95785 24.9022 6.21417 24.8818 6.46985V6.9297C24.9806 8.19922 25.8881 9.30909 27.0762 9.19969C27.2871 9.17998 27.5497 8.97836 27.8024 8.70169V7.42516C27.5247 7.47414 27.0797 7.33423 27.3946 7.19748C27.4957 7.1536 27.6368 7.1097 27.8024 7.10843V6.52073H27.8036Z" fill="#643F42"/>
<path fill-rule="evenodd" clip-rule="evenodd" d="M26.4629 0.658265C26.9759 -0.215642 29.0546 0.58384 30.1062 1.9017C30.6233 2.359 30.9753 2.4646 31.4785 2.27633C31.3565 3.52931 30.8394 4.34915 29.4718 4.03877C29.5496 3.17122 28.4539 3.25327 27.974 2.51993C27.5307 1.96086 26.9062 1.2167 26.4629 0.658265Z" fill="#643F42"/>
<path fill-rule="evenodd" clip-rule="evenodd" d="M40.472 34.7097L40.4709 34.3249L37.2104 32.2642L37.2116 32.6483L40.472 34.7097Z" fill="#552610"/>
<path fill-rule="evenodd" clip-rule="evenodd" d="M37.2104 32.2646L40.4709 34.3253L49.7752 28.444L46.5166 26.3794L37.2104 32.2646Z" fill="#874322"/>
<path fill-rule="evenodd" clip-rule="evenodd" d="M40.4719 34.7102L40.4707 34.3247L49.775 28.4434L49.7762 28.8288L40.4719 34.7102Z" fill="#703317"/>
<path fill-rule="evenodd" clip-rule="evenodd" d="M15.7279 50.3517L15.7268 49.9669L12.4663 47.9067L12.4675 48.2909L15.7279 50.3517Z" fill="#552610"/>
<path fill-rule="evenodd" clip-rule="evenodd" d="M12.4658 47.906L15.7269 49.9667L40.4161 34.3605L37.1579 32.2959L12.4658 47.906Z" fill="#874322"/>
<path fill-rule="evenodd" clip-rule="evenodd" d="M15.7282 50.3516L15.7271 49.9668L40.4163 34.3599L40.4174 34.7453L15.7282 50.3516Z" fill="#703317"/>
<path fill-rule="evenodd" clip-rule="evenodd" d="M30.1723 45.466L30.1706 45.0812L26.9102 43.0205L26.9113 43.4053L30.1723 45.466Z" fill="#552610"/>
<path fill-rule="evenodd" clip-rule="evenodd" d="M26.9102 43.0205L30.1706 45.0812L53.1215 30.5733L49.8634 28.5088L26.9102 43.0205Z" fill="#874322"/>
<path fill-rule="evenodd" clip-rule="evenodd" d="M30.1716 45.4659L30.1704 45.0805L53.1213 30.5732L53.1225 30.958L30.1716 45.4659Z" fill="#703317"/>
<path fill-rule="evenodd" clip-rule="evenodd" d="M19.0897 52.4802L19.0886 52.0954L15.8281 50.0347L15.8287 50.4195L19.0897 52.4802Z" fill="#552610"/>
<path fill-rule="evenodd" clip-rule="evenodd" d="M15.8281 50.0348L19.088 52.0955L30.1033 45.1329L26.8452 43.0684L15.8281 50.0348Z" fill="#874322"/>
<path fill-rule="evenodd" clip-rule="evenodd" d="M19.0896 52.4802L19.0879 52.0954L30.1032 45.1328L30.1044 45.5176L19.0896 52.4802Z" fill="#703317"/>
<path fill-rule="evenodd" clip-rule="evenodd" d="M47.2231 38.9908L47.2214 38.606L43.9609 36.5459L43.9621 36.9301L47.2231 38.9908Z" fill="#552610"/>
<path fill-rule="evenodd" clip-rule="evenodd" d="M43.9609 36.5449L47.2214 38.6057L56.5356 32.7135L53.2775 30.6489L43.9609 36.5449Z" fill="#874322"/>
<path fill-rule="evenodd" clip-rule="evenodd" d="M47.2229 38.9909L47.2212 38.6061L56.5354 32.7139L56.5366 33.0987L47.2229 38.9909Z" fill="#703317"/>
<path fill-rule="evenodd" clip-rule="evenodd" d="M22.479 54.6326L22.4772 54.2477L19.2168 52.187L19.218 52.5712L22.479 54.6326Z" fill="#552610"/>
<path fill-rule="evenodd" clip-rule="evenodd" d="M19.2168 52.1868L22.4772 54.2475L47.1665 38.6406L43.9083 36.5767L19.2168 52.1868Z" fill="#874322"/>
<path fill-rule="evenodd" clip-rule="evenodd" d="M22.4788 54.6324L22.4771 54.2469L47.1663 38.6406L47.168 39.0254L22.4788 54.6324Z" fill="#703317"/>
<path fill-rule="evenodd" clip-rule="evenodd" d="M26.704 25.8684C26.8847 25.7756 27.2112 25.8137 27.5168 25.9778C27.8224 26.1419 28.1396 26.3773 28.2598 26.4568C28.5707 26.6616 28.505 26.7004 28.8158 26.9058C28.7194 27.1068 28.5277 27.3345 28.0048 26.9185C27.8677 26.8937 27.798 26.9809 27.4354 26.6272C26.5634 27.0254 26.3467 26.0351 26.704 25.8684Z" fill="#ECC19A"/>
<path fill-rule="evenodd" clip-rule="evenodd" d="M21.4316 35.7628L21.4299 35.3786L18.1694 33.3179L18.1706 33.702L21.4316 35.7628Z" fill="#552610"/>
<path fill-rule="evenodd" clip-rule="evenodd" d="M18.1694 33.3171L21.4299 35.3779L46.1191 19.7716L42.861 17.707L18.1694 33.3171Z" fill="#874322"/>
<path fill-rule="evenodd" clip-rule="evenodd" d="M21.4309 35.7632L21.4297 35.3778L46.1195 19.7715L46.1207 20.1563L21.4309 35.7632Z" fill="#703317"/>
<path fill-rule="evenodd" clip-rule="evenodd" d="M34.8962 21.3948C35.0734 21.2944 35.4011 21.3179 35.7125 21.4686C36.0239 21.6194 36.3492 21.8407 36.4724 21.9145C36.7908 22.1059 36.7263 22.1473 37.0441 22.3393C36.9552 22.5448 36.778 22.7248 36.2412 22.3311C36.1029 22.312 35.989 22.3311 35.7619 22.1829C34.9055 22.6192 34.5459 21.5774 34.8962 21.3948Z" fill="#ECC19A"/>
<path fill-rule="evenodd" clip-rule="evenodd" d="M25.2317 26.1264C24.9708 25.9305 25.7656 24.8346 26.1757 25.1234C26.7579 25.7963 27.114 25.6653 27.415 25.9712C27.5521 26.1016 28.4201 27.4322 28.4799 27.8405C28.61 28.086 27.0983 28.7017 26.8381 28.598C26.4203 28.3086 25.8213 27.2929 25.7621 27.0334C25.6197 26.4145 25.8243 26.571 25.2317 26.1264Z" fill="#ECC19A"/>
<path fill-rule="evenodd" clip-rule="evenodd" d="M27.2176 28.5336L27.4849 29.6002C27.5528 29.8705 27.2571 29.9265 27.1642 29.6651L26.8051 28.6576C26.7156 28.4058 27.1473 28.2512 27.2176 28.5336Z" fill="#D99E72"/>
<path fill-rule="evenodd" clip-rule="evenodd" d="M27.325 28.2065C27.4435 28.1601 27.5748 28.2281 27.6178 28.3572L28.0204 29.5848C28.1227 29.8952 27.7996 30.0186 27.6765 29.7171L27.1879 28.5264C27.1356 28.4005 27.2064 28.2529 27.325 28.2065Z" fill="#D99E72"/>
<path fill-rule="evenodd" clip-rule="evenodd" d="M27.7233 28.0032C27.8441 27.9625 27.9836 28.0318 28.0231 28.1762L28.3972 29.5488C28.4914 29.8942 28.1439 30.0277 28.033 29.6881L27.5926 28.3454C27.5461 28.2036 27.6048 28.0497 27.7233 28.0032Z" fill="#D99E72"/>
<path fill-rule="evenodd" clip-rule="evenodd" d="M28.513 27.9108L28.8552 29.1708C28.9412 29.4869 28.5874 29.6179 28.4851 29.3075L28.0825 28.0806C27.9779 27.7613 28.4294 27.6042 28.513 27.9108Z" fill="#D99E72"/>
<path fill-rule="evenodd" clip-rule="evenodd" d="M20.2356 7.16811C17.1477 6.19053 18.4526 18.3654 18.8215 19.4238C19.5373 20.9407 21.3859 19.9657 21.4377 18.2688C21.8821 16.2405 23.4502 7.50839 20.2356 7.16811Z" fill="#DE7E32"/>
<path d="M10.9633 36.8047C10.9185 36.8047 10.875 36.7799 10.85 36.7341C10.8134 36.6661 10.8337 36.5783 10.8959 36.5382L11.8725 35.9066C12.3925 35.5034 12.6417 34.9399 12.5302 34.4062C12.4296 33.9248 12.0491 33.5673 11.5373 33.4732C10.9191 33.3593 9.76528 33.7766 9.36034 36.0656C9.34698 36.1439 9.27784 36.1916 9.20696 36.1795C9.13609 36.1642 9.0896 36.0892 9.10355 36.0116C9.54625 33.5056 10.8686 33.0604 11.5808 33.1908C12.1996 33.3046 12.6609 33.746 12.7858 34.3426C12.9217 34.9939 12.6336 35.6681 12.0154 36.1477L11.0295 36.785C11.0086 36.7983 10.9859 36.8047 10.9633 36.8047Z" fill="#3E3E3D"/>
<path d="M10.5995 37.1037C10.5355 37.1037 10.474 37.0681 10.4385 37.0039C10.3856 36.9066 10.4147 36.7813 10.503 36.7234L11.2234 36.2534C11.3123 36.1955 11.4268 36.2279 11.4796 36.3246C11.5325 36.4213 11.5034 36.5472 11.4151 36.6051L10.6947 37.0751C10.6651 37.0942 10.632 37.1037 10.5995 37.1037Z" fill="#585857"/>
<path fill-rule="evenodd" clip-rule="evenodd" d="M4.26349 37.6328L4.26872 38.2612L1.68977 39.9518L1.67988 40.072L1.56253 39.9995C1.45795 39.9353 1.44284 39.4868 1.61365 39.3704L4.26349 37.6328Z" fill="#858585"/>
<path fill-rule="evenodd" clip-rule="evenodd" d="M4.37923 37.704L1.73171 39.4416L1.61377 39.3691L4.26186 37.6309L4.37923 37.704Z" fill="#585857"/>
<path fill-rule="evenodd" clip-rule="evenodd" d="M4.37935 37.7041L1.73183 39.4424C1.52849 39.5759 1.58427 40.1681 1.73881 40.0663L4.38457 38.3319L4.37935 37.7041Z" fill="#C4C4C4"/>
<path fill-rule="evenodd" clip-rule="evenodd" d="M3.88464 38.9621L1.3202 37.3828L0.975098 37.4197L3.66328 39.0753L3.88464 38.9621Z" fill="#3E3E3D"/>
<path fill-rule="evenodd" clip-rule="evenodd" d="M4.25226 36.6152L4.25749 37.2436L1.67853 38.9342L1.66865 39.0544L1.5513 38.9819C1.44672 38.9177 1.43161 38.4693 1.60242 38.3529L4.25226 36.6152Z" fill="#858585"/>
<path fill-rule="evenodd" clip-rule="evenodd" d="M4.36789 36.6864L1.72096 38.4241L1.60303 38.3516L4.25112 36.6133L4.36789 36.6864Z" fill="#585857"/>
<path fill-rule="evenodd" clip-rule="evenodd" d="M4.36802 36.686L1.72109 38.4243C1.51775 38.5579 1.57353 39.15 1.72807 39.0489L4.37384 37.3144L4.36802 36.686Z" fill="#C4C4C4"/>
<path fill-rule="evenodd" clip-rule="evenodd" d="M7.87354 39.4348L8.92103 38.7491C9.00295 38.6957 9.09707 38.6951 9.17957 38.7466L9.58916 39.0029L8.41732 39.77L7.87354 39.4348Z" fill="#3E3E3D"/>
<path fill-rule="evenodd" clip-rule="evenodd" d="M6.85645 39.6785L6.86284 38.491L10.6618 36.0264V37.2056L6.85645 39.6785Z" fill="#EDC52E"/>
<path fill-rule="evenodd" clip-rule="evenodd" d="M7.53857 41.1142C8.22645 40.6588 9.84506 39.4796 10.4487 38.6763C10.6991 38.343 10.6544 38.0606 10.3604 37.7738C10.2407 37.6567 10.0089 37.5531 9.75733 37.4971L10.5515 36.9736C10.9013 37.1708 11.1621 37.6637 11.5119 37.5562L11.5183 38.1681C11.5223 38.5644 11.4276 38.8805 11.2063 39.1953C10.5573 40.1201 9.303 41.2853 7.53857 42.0428V41.1142Z" fill="#EDC52E"/>
<path fill-rule="evenodd" clip-rule="evenodd" d="M2.87305 38.1099L3.70443 38.6416L5.24692 37.6481L4.21685 37.2544L2.87305 38.1099Z" fill="#585857"/>
<path fill-rule="evenodd" clip-rule="evenodd" d="M3.70849 39.8278L3.70443 38.6416L2.87305 38.1099L2.87363 39.1332L3.70849 39.8278Z" fill="#858585"/>
<path fill-rule="evenodd" clip-rule="evenodd" d="M9.74707 36.8013L9.74939 37.4907C10.2688 37.6179 10.3995 37.7585 10.6697 38.1878L11.124 37.6491C10.6883 37.2032 10.245 36.8121 9.74707 36.8013Z" fill="#B2761C"/>
<path fill-rule="evenodd" clip-rule="evenodd" d="M8.94335 35.2651L10.6648 36.0271C9.56965 36.7369 8.4745 37.4467 7.37994 38.1559C6.93782 38.4427 7.77791 39.0832 8.30951 39.4375L9.32215 38.741C9.45287 38.6514 9.70908 38.6196 9.8427 38.5305C10.0594 38.3861 10.2628 38.21 10.437 37.9778C10.6874 37.6445 10.6427 37.3628 10.3487 37.0753C10.2291 36.9582 9.99724 36.8546 9.7451 36.7986L10.5393 36.2751C11.7309 36.9462 11.6728 37.815 11.1935 38.4974C10.5445 39.4222 9.30182 40.3572 7.53797 41.1147C6.63455 41.2197 4.32748 39.4986 3.47461 38.6386C4.05384 38.2557 4.50643 37.9581 5.08683 37.5765C5.13621 37.544 5.74158 37.3647 5.79097 37.3322C6.84021 36.6421 7.8912 35.954 8.94335 35.2651Z" fill="#D39F25"/>
<path fill-rule="evenodd" clip-rule="evenodd" d="M8.14985 40.8349L8.15915 41.7495C7.95988 41.8525 7.75247 41.9511 7.53809 42.0433V41.1147C7.67403 41.0244 7.84659 40.9061 8.04063 40.7681L8.14985 40.8349Z" fill="#858585"/>
<path fill-rule="evenodd" clip-rule="evenodd" d="M4.00383 38.2896L8.15027 40.835C7.9539 40.9304 7.74997 41.0239 7.5385 41.1148C6.67226 41.2153 4.39774 39.7149 3.46004 38.8327C3.43216 38.8066 3.41937 38.771 3.42228 38.7316C3.42518 38.6922 3.44378 38.6591 3.47515 38.6387L4.00383 38.2896Z" fill="#3E3E3D"/>
<path fill-rule="evenodd" clip-rule="evenodd" d="M3.42432 38.7705L3.43187 39.8874C3.43245 39.9904 3.48009 40.0788 3.56201 40.1297L6.02652 41.653C6.64874 42.0372 7.24076 42.186 7.53764 42.0429C7.53764 41.7331 7.53764 41.424 7.53764 41.1143C7.23727 41.0717 6.68011 40.7778 6.01083 40.365L3.42432 38.7705Z" fill="#585857"/>
<path fill-rule="evenodd" clip-rule="evenodd" d="M9.01111 39.2369C9.21736 39.2489 9.36434 39.3653 9.33878 39.4957C9.3138 39.6268 9.12556 39.7234 8.91931 39.7113C8.71306 39.6993 8.56666 39.5829 8.59164 39.4525C8.61721 39.3214 8.80486 39.2248 9.01111 39.2369Z" fill="#B2761C"/>
<path fill-rule="evenodd" clip-rule="evenodd" d="M8.99879 39.2967C9.14984 39.3056 9.25732 39.3902 9.23931 39.4862C9.22072 39.5822 9.08303 39.6528 8.93197 39.6439C8.78092 39.635 8.67344 39.5504 8.69203 39.4538C8.71004 39.3584 8.84773 39.2878 8.99879 39.2967Z" fill="#585857"/>
<path fill-rule="evenodd" clip-rule="evenodd" d="M9.00074 39.2267C9.1518 39.2356 9.25985 39.3202 9.24126 39.4163C9.22267 39.5123 9.08498 39.5829 8.93393 39.574C8.78287 39.5651 8.67539 39.4799 8.69399 39.3838C8.712 39.2891 8.84969 39.2185 9.00074 39.2267Z" fill="#3E3E3D"/>
<path fill-rule="evenodd" clip-rule="evenodd" d="M6.6958 37.0987L8.12153 36.1587L9.11267 36.7642L7.67185 37.6992L6.6958 37.0987Z" fill="#E3E3E3"/>
</svg>
