<svg width="54" height="55" viewBox="0 0 54 55" fill="none" xmlns="http://www.w3.org/2000/svg">
<path d="M26.229 53.218V54.839L53.7945 37.4159V35.7949L26.229 53.218Z" fill="#DEBE97"/>
<path d="M0 36.6396V38.2606L26.2288 54.8389V53.2179L0 36.6396Z" fill="#CAA58B"/>
<path d="M0 36.6399L26.2288 53.2182L53.7943 35.7951L27.5655 19.2168L0 36.6399Z" fill="#EFE1BC"/>
<path opacity="0.8" d="M36.2997 41.0773L32.3867 38.6044C31.8833 38.2861 31.9464 37.7309 32.5279 37.3635L33.9337 36.4753C34.5147 36.1079 35.3939 36.068 35.8968 36.3863L41.0969 39.6727L38.6997 41.1878L36.2997 41.0773Z" fill="black"/>
<path d="M34.7779 33.2341C34.8335 33.1031 34.9218 32.9911 35.0157 32.9312C35.0947 32.881 35.17 32.8739 35.2251 32.9092C35.2354 32.9158 35.2452 32.924 35.2537 32.9332L36.2141 33.9832V36.5861L33.8169 38.1012V35.4983L34.7779 33.2341Z" fill="#DE3222"/>
<path d="M34.6011 33.1227C34.6567 32.9917 34.745 32.8796 34.839 32.8198C34.9189 32.7696 34.9941 32.7624 35.0493 32.7983C35.0591 32.8049 35.2245 32.9088 35.2245 32.9088C35.1699 32.8735 35.0946 32.8812 35.0152 32.9308C34.9212 32.9901 34.8329 33.1027 34.7772 33.2337L33.8163 35.4984L33.6396 35.3868L34.6011 33.1227Z" fill="#FB4432"/>
<path d="M36.0765 36.4995L38.6658 38.1364L38.5812 38.3364L35.8755 36.6264L36.0765 36.4995Z" fill="#CF2313"/>
<path d="M39.4788 36.2204L38.666 38.1361L36.0767 36.4992V34.0703L39.4788 36.2204Z" fill="#C91716"/>
<path d="M38.7837 39.1491L38.062 37.042L38.1214 37.106L38.8425 39.213L38.7837 39.1491Z" fill="#91AD0B"/>
<path d="M39.0422 39.09L38.3211 36.9829L38.2505 37.076L38.9721 39.1831L39.0422 39.09Z" fill="#C3E022"/>
<path d="M38.9722 39.1832L38.2506 37.0762L38.1216 37.1058L38.8427 39.2129L38.9722 39.1832Z" fill="#AFCD15"/>
<path d="M38.1738 36.8223L38.2617 36.919L38.3211 36.9829L38.1776 36.8417L38.1738 36.8223Z" fill="#DED397"/>
<path d="M38.1776 36.8418L38.3211 36.983L38.2505 37.0761L38.1533 36.8684L38.1776 36.8418Z" fill="#E8E2B5"/>
<path d="M38.1533 36.8682L38.2505 37.0759L38.1215 37.1056L38.1084 36.8769L38.1533 36.8682Z" fill="#DED397"/>
<path d="M38.1083 36.8771L38.0905 36.853L38.062 37.0418L38.1214 37.1058L38.1083 36.8771Z" fill="#D9C879"/>
<path d="M38.1605 36.8631C38.1806 36.8472 38.1829 36.8288 38.1712 36.8196L38.132 36.7812C38.1194 36.7689 38.0992 36.7771 38.0974 36.7956L38.0908 36.8529C38.0876 36.8682 38.1002 36.8805 38.125 36.8784C38.1376 36.8769 38.1502 36.8718 38.1605 36.8631Z" fill="#AFCD15"/>
<path d="M36.2141 33.9834L39.5465 36.09C39.5227 36.1268 39.5017 36.1672 39.4839 36.2092L39.4788 36.2209L36.0767 34.0704L36.2141 33.9834Z" fill="#59A3DE"/>
<path d="M39.4839 36.2087C39.5395 36.0777 39.6279 35.9651 39.7218 35.9057C39.8003 35.8561 39.8751 35.8484 39.9302 35.8832C39.941 35.8899 40.1074 35.9953 40.1074 35.9953C40.0527 35.9605 39.9775 35.9677 39.8985 36.0178C39.8045 36.0772 39.7162 36.1897 39.6605 36.3207L38.6996 38.5854L38.5229 38.4738L39.4839 36.2087Z" fill="#DE3222"/>
<path d="M35.2002 36.3843C35.2002 36.3843 35.8882 38.3783 35.8929 38.3916C35.8976 38.4054 35.8943 38.4223 35.8812 38.4392L35.784 38.5691C35.7583 38.6034 35.7055 38.6254 35.6653 38.6183L35.3638 38.564C35.3437 38.5604 35.3311 38.5502 35.3265 38.5369C35.3218 38.5231 34.6338 36.5296 34.6338 36.5296L35.2002 36.3843Z" fill="#C92C2C"/>
<path d="M34.8615 36.3031L35.1629 36.3574C35.1825 36.3609 35.1956 36.3712 35.2003 36.3845C35.205 36.3983 35.2017 36.4152 35.1886 36.4321L35.0914 36.562C35.0657 36.5963 35.0124 36.6183 34.9727 36.6111L34.6712 36.5569C34.6511 36.5533 34.6385 36.5431 34.6339 36.5298C34.6292 36.5165 34.6324 36.4991 34.6455 36.4822L34.7427 36.3522C34.7684 36.318 34.8217 36.2959 34.8615 36.3031Z" fill="#AB1818"/>
<path d="M34.5033 34.3643C34.5033 34.3643 35.196 36.3711 35.2006 36.3849C35.2053 36.3982 35.2021 36.4156 35.189 36.4324L35.0917 36.5624C35.0763 36.5829 35.0511 36.5987 35.0249 36.6069L34.2715 34.4241L34.5033 34.3643Z" fill="#BAA664"/>
<path d="M34.2717 34.4238L35.0251 36.6066C35.0074 36.6123 34.9896 36.6138 34.9737 36.6112L34.6722 36.557C34.6521 36.5534 34.6395 36.5432 34.6348 36.5299C34.6302 36.5166 33.9375 34.5098 33.9375 34.5098L34.2717 34.4238Z" fill="#CFBD80"/>
<path d="M34.1647 34.2831L34.4662 34.3373C34.4863 34.3409 34.4989 34.3511 34.5035 34.3644C34.5082 34.3777 34.505 34.3952 34.4919 34.412L34.3946 34.542C34.3689 34.5763 34.3161 34.5983 34.2759 34.5911L33.9745 34.5369C33.9544 34.5333 33.9417 34.5231 33.9371 34.5098C33.9324 34.4965 33.9357 34.4791 33.9488 34.4622L34.046 34.3322C34.0717 34.2979 34.1245 34.2759 34.1647 34.2831Z" fill="#AB1818"/>
<path d="M34.9487 34.5631L35.2511 34.1584L34.5632 33.8452L34.2607 34.25L34.9487 34.5631Z" fill="#363636"/>
<path d="M34.2608 34.2504L34.5632 33.8457L33.4953 33.6543L33.1929 34.0585L34.2608 34.2504Z" fill="#4A4A4A"/>
<path d="M34.0045 33.8305L34.306 33.8847C34.3261 33.8883 34.3387 33.8985 34.3434 33.9118C34.3481 33.9256 34.3448 33.9425 34.3317 33.9599L34.2345 34.0899C34.2088 34.1242 34.156 34.1462 34.1158 34.139L33.8143 34.0848C33.7942 34.0812 33.7816 34.0709 33.7769 34.0576C33.7722 34.0443 33.7755 34.0269 33.7886 34.0101L33.8858 33.8801C33.911 33.8453 33.9643 33.8233 34.0045 33.8305Z" fill="#CFBD80"/>
<path d="M34.9652 34.6097L34.9488 34.5631L34.2608 34.25L33.1929 34.0581L33.3485 34.5094L34.4169 34.7013L34.9652 34.6097Z" fill="#262626"/>
<path d="M34.9651 34.61L35.2675 34.2053L35.2511 34.1587L34.9487 34.5634L34.9651 34.61Z" fill="#262626"/>
<path d="M35.1851 31.5994L35.2454 31.4756L35.115 31.6577L35.0552 31.7821L35.1071 31.9233L35.2375 31.7406L35.1851 31.5994Z" fill="#1C1C1C"/>
<path d="M36.6199 35.4918L36.8162 35.522C36.8367 35.5251 36.8596 35.5445 36.8671 35.5655L37.0354 36.0214C37.0428 36.0424 37.033 36.0567 37.0125 36.0536L36.8162 36.0234L38.1987 39.774L39.0236 39.9014L36.0627 31.8681L35.2378 31.7407L36.6199 35.4918ZM38.5894 39.0572C38.6464 39.2117 38.5702 39.3181 38.4197 39.2951C38.2688 39.2716 38.1005 39.1278 38.0435 38.9727C37.9865 38.8182 38.0627 38.7118 38.2132 38.7348C38.3637 38.7584 38.5324 38.9026 38.5894 39.0572ZM36.0735 32.4606C36.2207 32.5865 36.2857 32.7636 36.2193 32.8567C36.1529 32.9498 35.98 32.9227 35.8328 32.7968C35.686 32.6709 35.6206 32.4939 35.687 32.4008C35.7538 32.3082 35.9267 32.3348 36.0735 32.4606Z" fill="#FCC901"/>
<path d="M39.0152 40.1668L38.8848 40.349L38.2842 40.2564L38.4146 40.0742L39.0152 40.1668Z" fill="#1C1C1C"/>
<path d="M38.4146 40.0741L38.2842 40.2563L38.1201 40.0977L38.2501 39.9155L38.4146 40.0741Z" fill="#2B2B2B"/>
<path d="M38.2502 39.9157L38.1202 40.0978L38.0679 39.9566L38.1983 39.7739L38.2502 39.9157Z" fill="#1C1C1C"/>
<path d="M38.2501 39.9157L38.4146 40.0743L39.0153 40.1669L39.0751 40.0426L39.0232 39.9013L38.1982 39.7739L38.2501 39.9157Z" fill="#404040"/>
<path d="M36.01 31.7268L35.8459 31.5682L35.2453 31.4756L35.1851 31.5994L35.2374 31.7406L36.0623 31.868L36.01 31.7268Z" fill="#404040"/>
<path d="M35.8116 32.8277C35.9854 32.9766 36.1906 33.0083 36.2691 32.8983C36.3477 32.7883 36.2705 32.5785 36.0962 32.4291C35.9223 32.2802 35.7172 32.2485 35.6386 32.3585C35.5601 32.4685 35.6372 32.6788 35.8116 32.8277ZM36.0738 32.4603C36.221 32.5862 36.286 32.7633 36.2196 32.8564C36.1532 32.9495 35.9803 32.9224 35.8331 32.7965C35.6863 32.6706 35.6209 32.4936 35.6872 32.4005C35.7541 32.3079 35.927 32.3345 36.0738 32.4603Z" fill="#404040"/>
<path d="M35.6648 32.528C35.6569 32.4789 35.6634 32.4339 35.6877 32.4006C35.7541 32.3075 35.927 32.3346 36.0738 32.4605C36.221 32.5864 36.286 32.7634 36.2196 32.8565C36.1958 32.8903 36.1574 32.9082 36.1121 32.9113C36.0976 32.8243 36.0373 32.723 35.9434 32.6426C35.8499 32.5623 35.7457 32.5224 35.6648 32.528Z" fill="#1C1C1C"/>
<path d="M35.8094 32.5858C35.8229 32.5668 35.8823 32.5929 35.9426 32.6446C36.0029 32.6963 36.0403 32.7531 36.0267 32.772C36.0132 32.7909 35.9533 32.7648 35.8935 32.7132C35.8337 32.6615 35.7958 32.6047 35.8094 32.5858Z" fill="white"/>
<path opacity="0.6" d="M36.2077 32.842C36.2063 32.8553 36.203 32.8675 36.1988 32.8793C36.1717 32.9018 36.1348 32.9121 36.0927 32.9115L35.6702 32.5498C35.6594 32.5053 35.6599 32.4638 35.673 32.4295C35.6823 32.4219 35.6926 32.4157 35.7038 32.4111L36.2077 32.842Z" fill="#AFCD15"/>
<path d="M38.068 39.9563L36.7163 36.2886L36.8467 36.1064L38.1984 39.7736L38.068 39.9563Z" fill="#FFAD0D"/>
<path d="M36.589 35.4084L36.4586 35.5906L35.1069 31.9234L35.2373 31.7407L36.589 35.4084Z" fill="#FFAD0D"/>
<path d="M36.6197 35.4916L36.816 35.5218C36.8366 35.5249 36.8595 35.5443 36.867 35.5653L37.0352 36.0212C37.0427 36.0422 37.0329 36.0565 37.0123 36.0534L36.816 36.0233L36.8469 36.1067L37.0698 36.141C37.1165 36.1481 37.1399 36.1154 37.1222 36.0673L36.9287 35.5418C36.9109 35.4942 36.859 35.4497 36.8123 35.442L36.5894 35.4077L36.6197 35.4916Z" fill="#404040"/>
<path d="M36.816 35.5219C36.8365 35.525 36.8595 35.5444 36.8669 35.5654L37.0352 36.0213C37.0427 36.0423 37.0328 36.0566 37.0123 36.0535L36.8398 36.0269L36.737 35.7475C36.7295 35.7266 36.7066 35.7071 36.686 35.704L36.4897 35.6738L36.6201 35.4917L36.816 35.5219Z" fill="#1C1C1C"/>
<path d="M36.6198 35.4916L36.4893 35.6738L36.4585 35.5904L36.5889 35.4082L36.6198 35.4916Z" fill="#2B2B2B"/>
<path d="M36.8463 36.1068L36.7159 36.289L36.6855 36.2061L36.8155 36.0234L36.8463 36.1068Z" fill="#2B2B2B"/>
<path d="M36.7114 35.7562C36.7422 35.7608 36.7861 35.816 36.809 35.879C36.8324 35.9419 36.8263 35.9895 36.7955 35.9849C36.7646 35.9803 36.7207 35.925 36.6978 35.8621C36.6744 35.7991 36.6805 35.7516 36.7114 35.7562Z" fill="white"/>
<path opacity="0.6" d="M36.6435 35.5559C36.6814 35.5391 36.7193 35.5452 36.7281 35.5692C36.737 35.5933 36.9006 36.0374 36.9006 36.0374L36.8155 36.0241L36.7632 36.0973C36.7632 36.0973 36.5996 35.6537 36.5907 35.6296C36.5818 35.6056 36.6057 35.5723 36.6435 35.5559Z" fill="#AFCD15"/>
<path d="M37.9925 38.9648C38.0598 39.148 38.2594 39.3189 38.4384 39.3465C38.617 39.3741 38.7071 39.2478 38.6398 39.0646C38.5725 38.8814 38.373 38.7105 38.194 38.6829C38.0154 38.6558 37.9252 38.7816 37.9925 38.9648ZM38.5894 39.0569C38.6464 39.2114 38.5702 39.3179 38.4197 39.2948C38.2687 39.2713 38.1005 39.1275 38.0435 38.9725C37.9864 38.818 38.0626 38.7115 38.2131 38.7346C38.3636 38.7581 38.5324 38.9024 38.5894 39.0569Z" fill="#404040"/>
<path d="M38.4591 39.2396C38.4021 39.0851 38.2333 38.9408 38.0828 38.9172C38.0632 38.9142 38.045 38.9136 38.0277 38.9147C38.0076 38.7924 38.0819 38.7146 38.2128 38.7346C38.3637 38.7581 38.532 38.9019 38.589 39.0569C38.6385 39.1915 38.5876 39.2892 38.474 39.2974C38.4717 39.279 38.4666 39.2595 38.4591 39.2396Z" fill="#1C1C1C"/>
<path d="M38.246 38.9793C38.2769 38.9839 38.3208 39.0392 38.3437 39.1021C38.3671 39.165 38.361 39.2126 38.3302 39.208C38.2993 39.2034 38.2554 39.1482 38.2325 39.0852C38.2091 39.0218 38.2152 38.9747 38.246 38.9793Z" fill="white"/>
<path opacity="0.6" d="M38.2661 39.2345C38.218 39.1045 38.1315 38.8697 38.1254 38.8523C38.1165 38.8282 38.1399 38.7955 38.1778 38.7786C38.2156 38.7617 38.2535 38.7679 38.2624 38.7919C38.2708 38.8139 38.4274 39.2396 38.4489 39.2979C38.4395 39.2974 38.4297 39.2964 38.4194 39.2949C38.3689 39.2872 38.3161 39.2657 38.2661 39.2345Z" fill="#AFCD15"/>
<path d="M35.4366 36.7323C35.4675 36.4232 35.6432 35.9556 35.6432 35.9556C35.6928 36.0287 35.761 36.0932 35.8344 36.129C35.7876 36.3055 35.7339 36.411 35.6778 36.6719C35.6451 36.8239 35.5782 37.0695 35.6974 37.5412C35.7222 37.64 35.754 37.7971 35.6885 37.7986C35.6231 37.8007 35.6086 37.7536 35.5609 37.6078C35.5133 37.4614 35.4058 37.0413 35.4366 36.7323Z" fill="#FFBB00"/>
<path d="M35.7033 37.7939C35.7477 37.7689 35.7197 37.6307 35.6973 37.5406C35.5785 37.0689 35.6449 36.8233 35.6776 36.6713C35.7337 36.4104 35.7875 36.3055 35.8342 36.1284L35.8903 36.1499C35.8524 36.2686 35.8108 36.3771 35.7678 36.5761C35.7351 36.7281 35.6683 36.9737 35.7875 37.4455C35.8071 37.5238 35.831 37.6379 35.8081 37.6834C35.8025 37.6947 35.7571 37.7699 35.7033 37.7939Z" fill="#F09300"/>
<path d="M35.4366 36.7321C35.4581 36.5167 35.5502 36.2235 35.604 36.0659L35.6984 36.1468C35.7199 36.1652 35.732 36.1938 35.7259 36.2112C35.6862 36.3243 35.5553 36.7188 35.5581 37.0074C35.5596 37.1655 35.61 37.5656 35.7115 37.7877C35.7058 37.7938 35.6984 37.7974 35.6885 37.7979C35.6231 37.8 35.6086 37.7529 35.5609 37.6071C35.5133 37.4613 35.4058 37.0412 35.4366 36.7321Z" fill="#1C72D9"/>
<path d="M35.6021 35.6309C35.6021 35.6309 35.6212 35.611 35.6927 35.5357C35.7642 35.4605 35.9185 35.5096 36.0377 35.6452C36.1568 35.7808 36.1951 35.9517 36.1236 36.0269C36.0521 36.1022 36.033 36.1221 36.033 36.1221L35.6021 35.6309Z" fill="#BABABA"/>
<path d="M35.6879 36.0127C35.8066 36.1483 35.9613 36.1974 36.0328 36.1222C36.1043 36.0469 36.066 35.876 35.9468 35.7405C35.8276 35.6049 35.6734 35.5557 35.6019 35.631C35.5304 35.7062 35.5687 35.8771 35.6879 36.0127Z" fill="#E3E3E3"/>
<path d="M35.716 35.8447C35.7301 35.9066 35.7866 35.9716 35.8427 35.9895C35.8988 36.0074 35.9329 35.9716 35.9189 35.9092C35.9049 35.8473 35.8483 35.7823 35.7922 35.7644C35.7361 35.7465 35.702 35.7823 35.716 35.8447Z" fill="#404040"/>
<path d="M35.7583 35.0278L35.849 34.9326L35.9084 34.9618L35.8177 35.057L35.7583 35.0278Z" fill="#C9C9C9"/>
<path d="M35.8179 35.0566L35.9086 34.9614L36.1306 35.6435L36.0399 35.7387L35.8179 35.0566Z" fill="#A6A6A6"/>
<path d="M35.7949 35.377L35.8132 35.3862L35.8309 35.641L35.8113 35.6118L35.7949 35.377Z" fill="#F2F2F2"/>
<path d="M35.8014 35.252L35.8 35.2315L35.7958 35.2295L35.7827 35.2428L35.8014 35.252Z" fill="#A6A6A6"/>
<path d="M35.8044 35.2912L35.803 35.2723L35.788 35.2651L35.7759 35.2774L35.8044 35.2912Z" fill="#A6A6A6"/>
<path d="M35.7985 35.211L35.7966 35.1905L35.7929 35.1885L35.7798 35.2018L35.7985 35.211Z" fill="#A6A6A6"/>
<path d="M35.7955 35.1699L35.7941 35.151L35.789 35.1484L35.7769 35.1607L35.7955 35.1699Z" fill="#A6A6A6"/>
<path d="M35.7663 35.1373L35.7588 35.0278L35.8182 35.057L36.0402 35.7391L35.9752 35.7749C35.935 35.7217 35.8854 35.6741 35.8312 35.6413L35.8135 35.3865L35.7826 35.3712L35.7761 35.2775L35.8041 35.2914L35.8027 35.2724L35.7845 35.2632L35.7831 35.2427L35.8013 35.252L35.7999 35.2315L35.7817 35.2223L35.7803 35.2018L35.7985 35.211L35.7971 35.1905L35.7789 35.1813L35.7775 35.1609L35.7957 35.1701L35.7943 35.1511L35.7663 35.1373Z" fill="#E3E3E3"/>
<path d="M35.4189 34.9306L35.5096 34.835L35.5643 34.8421L35.4736 34.9373L35.4189 34.9306Z" fill="#A6A6A6"/>
<path d="M35.5746 35.2143L35.5489 35.2107L35.5414 35.1897L35.5582 35.1918L35.5498 35.1692L35.533 35.1672L35.5246 35.1447L35.5414 35.1467L35.5335 35.1237L35.5166 35.1217L35.5082 35.0992L35.525 35.1012L35.5166 35.0787L35.4998 35.0766L35.4923 35.0552L35.518 35.0587L35.4736 34.9375L35.5643 34.8423L35.6087 34.9636L35.5914 34.9815L35.6073 34.9835L35.6157 35.006L35.5989 35.004L35.6068 35.0265L35.6241 35.0285L35.6321 35.0511L35.6152 35.049L35.6237 35.072L35.6405 35.0741L35.6489 35.0966L35.6321 35.0945L35.6395 35.1155L35.6652 35.1191L35.7031 35.2225L35.6124 35.3176L35.5746 35.2143Z" fill="#C9C9C9"/>
<path d="M35.584 35.3138L35.6125 35.3174L35.6326 35.2959C35.6312 35.3102 35.6335 35.3271 35.6401 35.3455C35.6611 35.4028 35.7158 35.4535 35.763 35.4596L35.778 35.5001L35.6873 35.5952L35.584 35.3138Z" fill="#404040"/>
<path d="M35.6729 35.5556L35.7631 35.4604L35.778 35.5009L35.6873 35.5961L35.6729 35.5556Z" fill="#919191"/>
<path d="M35.6273 35.3018L35.7296 35.5816L35.7263 35.5857L35.6235 35.3058L35.6273 35.3018Z" fill="#A6A6A6"/>
<path d="M35.6237 35.3057L35.6125 35.3174L35.584 35.3139L35.6873 35.5958L35.7265 35.5855L35.6237 35.3057Z" fill="#F2F2F2"/>
<path d="M35.5083 35.0991L35.599 35.0039L35.6069 35.0264L35.5167 35.1216L35.5083 35.0991Z" fill="#919191"/>
<path d="M35.5169 35.0588L35.4997 35.0767L35.4922 35.0552L35.5169 35.0588Z" fill="#919191"/>
<path d="M35.5244 35.1445L35.6151 35.0488L35.6235 35.0718L35.5328 35.167L35.5244 35.1445Z" fill="#919191"/>
<path d="M35.541 35.1879L35.6312 35.0928L35.6396 35.1153L35.5489 35.2104L35.541 35.1879Z" fill="#919191"/>
<path d="M35.4189 34.9307L35.4736 34.9378L35.518 35.0591L35.4923 35.056L35.5002 35.077L35.5171 35.0791L35.5255 35.1016L35.5087 35.0995L35.5171 35.122L35.5339 35.1241L35.5423 35.1466L35.5255 35.1445L35.5339 35.1671L35.5507 35.1691L35.5592 35.1916L35.5423 35.1896L35.5503 35.2105L35.576 35.2136L35.6138 35.317L35.5853 35.3134L35.6886 35.5953C35.6423 35.5964 35.6078 35.6168 35.5877 35.6511L35.4951 35.5652L35.4189 34.9307Z" fill="#E3E3E3"/>
<path d="M35.5166 35.0781L35.6073 34.9829L35.6157 35.0054L35.525 35.1006L35.5166 35.0781Z" fill="#C9C9C9"/>
<path d="M35.5168 35.0787L35.6075 34.9835L35.5916 34.9814L35.5182 35.0587H35.5173L35.5 35.0766L35.5168 35.0787Z" fill="#A6A6A6"/>
<path d="M35.5332 35.1235L35.6239 35.0283L35.6318 35.0508L35.5411 35.1465L35.5332 35.1235Z" fill="#C9C9C9"/>
<path d="M35.5334 35.1236L35.6241 35.0284L35.6068 35.0264L35.5166 35.1215L35.5334 35.1236Z" fill="#A6A6A6"/>
<path d="M35.5498 35.1689L35.6405 35.0737L35.6489 35.0962L35.5582 35.1914L35.5498 35.1689Z" fill="#C9C9C9"/>
<path d="M35.55 35.169L35.6407 35.0738L35.6239 35.0718L35.5332 35.167L35.55 35.169Z" fill="#A6A6A6"/>
<path d="M35.5746 35.214L35.6652 35.1188L35.6395 35.1152L35.5488 35.2104L35.5746 35.214Z" fill="#A6A6A6"/>
<path d="M36.6705 37.1236C36.485 36.746 36.0559 36.0864 36.0559 36.0864C36.0344 36.1371 35.9867 36.1647 35.9194 36.156C36.0587 36.3914 36.1718 36.55 36.363 36.8892C36.4742 37.0868 36.6701 37.4158 36.7617 37.8788C36.7808 37.9761 36.8206 38.1352 36.8967 38.1823C36.9729 38.2288 36.9673 38.1848 36.9514 38.0492C36.9355 37.9126 36.8561 37.5012 36.6705 37.1236Z" fill="#FFBB00"/>
<path d="M36.1547 36.2409C36.0958 36.1473 36.0566 36.0874 36.0557 36.0859L36.1463 35.9907C36.1463 35.9907 36.1856 36.0511 36.2454 36.1457C36.2454 36.1457 36.2244 36.2077 36.1547 36.2409Z" fill="#F09300"/>
<path d="M36.6706 37.1234C36.5411 36.8599 36.2929 36.4587 36.155 36.2407L36.0854 36.2694C36.0695 36.276 36.069 36.3006 36.0849 36.3252C36.1854 36.4822 36.5275 37.0272 36.6645 37.3587C36.7393 37.5399 36.8753 37.9671 36.8659 38.1539C36.8757 38.1651 36.886 38.1743 36.8972 38.1815C36.9734 38.2281 36.9678 38.1841 36.9519 38.0485C36.9356 37.9124 36.8561 37.501 36.6706 37.1234Z" fill="#1C72D9"/>
<path d="M36.9404 38.1999C36.969 38.1994 36.9624 38.1492 36.9507 38.0489C36.9348 37.9133 36.8554 37.5014 36.6698 37.1238C36.5404 36.8603 36.2922 36.4591 36.1543 36.2412C36.2235 36.2079 36.245 36.146 36.245 36.146C36.3833 36.3645 36.631 36.7651 36.7605 37.0286C36.946 37.4063 37.0255 37.8177 37.0414 37.9538C37.0498 38.0244 37.0512 38.0689 37.0447 38.0904C37.0367 38.119 36.9746 38.2004 36.9404 38.1999Z" fill="#0258BF"/>
<path d="M38.6996 38.5847V41.1876L38.5234 41.076L33.8168 38.1012L33.6401 37.9896V35.3867L38.6996 38.5847Z" fill="#DE3222"/>
<path d="M39.6607 36.3201C39.7163 36.1891 39.8046 36.0766 39.8986 36.0172C39.9776 35.9671 40.0528 35.9599 40.1075 35.9947C40.1178 36.0014 40.1276 36.0096 40.1365 36.0193L41.0974 37.0692V39.6721L38.7002 41.1872V38.5843L39.6607 36.3201Z" fill="#FB4432"/>
<path d="M39.7598 36.649C39.8364 36.6971 39.9603 36.6188 40.0365 36.474C40.1131 36.3292 40.1131 36.1721 40.0365 36.124C39.9598 36.0759 39.836 36.1542 39.7598 36.299C39.6836 36.4438 39.6836 36.6009 39.7598 36.649Z" fill="#404040"/>
<path d="M33.9543 35.4116L33.8169 35.4981L38.5235 38.473L38.5814 38.3358L33.9543 35.4116Z" fill="#FB4432"/>
<path opacity="0.5" d="M38.5814 38.3361L38.5234 38.4733V38.2998L38.5814 38.3361Z" fill="black"/>
<path d="M34.8758 33.2123C34.9524 33.067 35.0768 32.9882 35.1534 33.0368C35.2263 33.0829 39.2907 35.652 39.7076 35.9155C39.6188 35.9769 39.5366 36.0844 39.4837 36.2092L39.3945 36.42C38.9678 36.1504 34.9487 33.6099 34.8763 33.5638C34.7991 33.5152 34.7991 33.3582 34.8758 33.2123Z" fill="#2B2B2B"/>
<path opacity="0.3" d="M39.4909 36.1932L34.853 33.2619C34.8596 33.2455 34.867 33.2291 34.8759 33.2132C34.8997 33.1677 34.9283 33.1288 34.9586 33.0986L39.5918 36.027C39.553 36.0751 39.5185 36.1318 39.4909 36.1932Z" fill="white"/>
<path opacity="0.8" d="M31.4422 44.5672L20.1408 37.4272L14.1279 41.2234L25.4326 48.3653L31.4422 44.5672ZM17.2814 42.129L21.773 39.2903L22.3609 39.6617L17.8694 42.5005L17.2814 42.129ZM19.0098 43.2209L23.5013 40.3822L24.0893 40.7536L19.5977 43.5924L19.0098 43.2209ZM20.7377 44.3134L25.2293 41.4746L25.8173 41.8461L21.3257 44.6848L20.7377 44.3134ZM22.4656 45.4058L26.9572 42.567L27.5452 42.9385L23.0536 45.7773L22.4656 45.4058Z" fill="black"/>
<path d="M31.1782 44.7795L31.6301 44.8107L26.0449 25.4223C25.9893 25.2294 25.843 25.0657 25.7182 25.0575C25.6897 25.0554 25.6644 25.0621 25.6434 25.0754C25.5733 25.1199 25.5499 25.2427 25.5929 25.3911L31.1782 44.7795Z" fill="#C9C9C9"/>
<path d="M26.2834 25.2714C26.2278 25.0785 26.0815 24.9153 25.9567 24.9066C25.9282 24.9046 25.9029 24.9112 25.8824 24.924C25.8123 24.9685 25.6436 25.075 25.6436 25.075C25.6646 25.0617 25.6898 25.055 25.7183 25.0571C25.8431 25.0657 25.9894 25.229 26.045 25.4219L31.6303 44.8103L31.8687 44.6599L26.2834 25.2714Z" fill="#E3E3E3"/>
<path d="M26.8694 22.444C26.7732 22.3294 26.6647 22.29 26.5942 22.334C26.5731 22.3473 26.5554 22.3677 26.5427 22.3959L19.6567 37.5942L20.1087 38.1345L26.9947 22.9362C27.0508 22.8139 26.9942 22.5934 26.8694 22.444Z" fill="#C9C9C9"/>
<path d="M25.269 25.5623C25.269 25.6698 25.3378 25.7997 25.4228 25.8535C25.5074 25.9072 25.5766 25.8637 25.5766 25.7562C25.5766 25.6488 25.5079 25.5188 25.4228 25.4651C25.3378 25.4119 25.269 25.4554 25.269 25.5623Z" fill="#666666"/>
<path d="M27.2669 22.1934C27.1711 22.0793 27.0631 22.0399 26.9925 22.0829C26.971 22.0962 26.5943 22.3346 26.5943 22.3346C26.6649 22.2906 26.7733 22.33 26.8696 22.4446C26.9944 22.594 27.0505 22.814 26.9949 22.9368L20.1089 38.1351L20.5062 37.8839L27.3921 22.6856C27.4478 22.5628 27.3917 22.3423 27.2669 22.1934Z" fill="#E3E3E3"/>
<path d="M19.6719 36.5341L21.1105 37.4433V36.9434L19.6719 36.0347V36.5341Z" fill="#A14D02"/>
<path d="M20.7285 34.2045L22.1667 35.1137V34.6138L20.7285 33.7051V34.2045Z" fill="#A14D02"/>
<path d="M21.7842 31.8759L23.2223 32.7851V32.2852L21.7842 31.3765V31.8759Z" fill="#A14D02"/>
<path d="M22.8398 29.5463L24.278 30.4555V29.9556L22.8398 29.0469V29.5463Z" fill="#A14D02"/>
<path d="M24.2476 27.7953C24.2476 27.9028 24.3163 28.0327 24.4013 28.0865C24.4859 28.1402 24.5547 28.0967 24.5547 27.9892C24.5547 27.8818 24.4859 27.7518 24.4013 27.6981C24.3163 27.6449 24.2476 27.6879 24.2476 27.7953Z" fill="#A14D02"/>
<path d="M26.2822 29.081C26.2822 29.1884 26.3509 29.3184 26.436 29.3721C26.5206 29.4258 26.5897 29.3823 26.5897 29.2749C26.5897 29.1674 26.5211 29.0375 26.436 28.9837C26.3509 28.9305 26.2822 28.9735 26.2822 29.081Z" fill="#A14D02"/>
<path d="M25.4131 45.0702L30.6796 41.7412L30.845 42.3153L25.5785 45.6443L25.4131 45.0702Z" fill="#F7F7F7"/>
<path d="M25.3589 44.8824L25.4131 45.0702L30.6796 41.7412L30.3632 41.7192L25.3589 44.8824Z" fill="#E3E3E3"/>
<path d="M16.5822 39.8057L15.1436 38.897L19.6721 36.0347L21.1107 36.9434L16.5822 39.8057Z" fill="#D46D17"/>
<path d="M16.5822 40.3051L15.1436 39.3959V38.8965L16.5822 39.8052V40.3051Z" fill="#A14D02"/>
<path d="M16.582 40.3056L21.1105 37.4433V36.9434L16.582 39.8057V40.3056Z" fill="#BF5902"/>
<path d="M17.6379 37.4761L16.1997 36.5674L20.7282 33.7051L22.1664 34.6138L17.6379 37.4761Z" fill="#D46D17"/>
<path d="M17.6379 37.9765L16.1997 37.0673V36.5679L17.6379 37.4766V37.9765Z" fill="#A14D02"/>
<path d="M17.6377 37.976L22.1662 35.1137V34.6138L17.6377 37.4761V37.976Z" fill="#BF5902"/>
<path d="M18.694 35.1475L17.2559 34.2388L21.7844 31.3765L23.2225 32.2852L18.694 35.1475Z" fill="#D46D17"/>
<path d="M18.694 35.6479L17.2559 34.7387V34.2393L18.694 35.148V35.6479Z" fill="#A14D02"/>
<path d="M18.6938 35.6474L23.2224 32.7851V32.2852L18.6938 35.1475V35.6474Z" fill="#BF5902"/>
<path d="M19.7497 32.8179L18.3115 31.9092L22.84 29.0469L24.2782 29.9556L19.7497 32.8179Z" fill="#D46D17"/>
<path d="M19.7497 33.3178L18.3115 32.4086V31.9092L19.7497 32.8179V33.3178Z" fill="#A14D02"/>
<path d="M19.7495 33.3178L24.278 30.4555V29.9556L19.7495 32.8179V33.3178Z" fill="#BF5902"/>
<path d="M22.7649 32.328L19.0688 29.9917L23.5969 27.1294L27.2934 29.4657L22.7649 32.328Z" fill="#D46D17"/>
<path d="M22.7649 32.8361L19.0688 30.4998V29.9917L22.7649 32.328V32.8361Z" fill="#A14D02"/>
<path d="M22.7651 32.8362L27.2936 29.9739V29.4658L22.7651 32.3281V32.8362Z" fill="#BF5902"/>
<path opacity="0.4" d="M21.8836 28.8831C23.0305 28.1585 24.5593 27.9492 25.2983 28.4169C26.0377 28.8841 25.7072 29.8506 24.5603 30.5752C23.4138 31.3002 21.885 31.509 21.1456 31.0413C20.4066 30.5741 20.7371 29.6076 21.8836 28.8831Z" fill="black"/>
<path d="M25.8684 29.5707C25.8688 29.5671 25.8693 29.563 25.8698 29.5594C25.9109 29.1793 25.4959 28.6615 25.0065 28.3064C24.8046 28.1595 24.8906 27.809 24.705 27.6069L23.7189 27.5439C23.5183 27.8622 23.3449 28.2189 23.3062 28.7643L23.3071 28.7648C23.301 28.8697 23.3632 28.9736 23.4917 29.0483L24.8523 29.8383C25.092 29.9775 25.4729 29.9627 25.7034 29.8045C25.802 29.737 25.8567 29.6541 25.8684 29.5707Z" fill="#432918"/>
<path d="M25.1423 22.3096L23.0797 22.6985L23.004 22.217L22.5647 19.4248L22.144 16.7497L24.2066 16.3608C24.6908 17.8314 25.1423 22.3096 25.1423 22.3096Z" fill="#186FD9"/>
<path opacity="0.2" d="M23.3998 17.8315C23.2755 18.1749 23.0614 19.0273 23.0306 19.7928C22.9974 20.6115 23.0484 21.6185 23.0797 22.6991L22.4702 18.8257C22.7048 18.7812 23.0166 18.7009 23.3998 17.8315Z" fill="#1D1D1B"/>
<path d="M25.1417 22.3095C25.0762 21.9006 24.6808 21.2549 24.3037 21.2129C23.991 21.1782 23.6993 21.3782 23.453 21.5921C23.2782 21.7441 23.1688 22.4747 23.0791 22.6978C23.2315 23.7897 23.2432 24.8504 23.0997 27.8089C23.1053 27.9758 23.2114 28.1385 23.417 28.2582C23.8283 28.4972 24.4813 28.4711 24.8757 28.2009C25.073 28.0658 25.1683 27.8949 25.1627 27.7281C25.2113 27.4886 25.3319 23.4981 25.1417 22.3095Z" fill="#186FD9"/>
<path d="M23.1695 26.1835C23.1713 26.3554 23.2709 26.5248 23.4737 26.6537C23.8794 26.9116 24.5333 26.9044 24.9343 26.6368C25.1278 26.5079 25.2231 26.3416 25.2283 26.1753L25.2171 26.6204C25.2119 26.7934 25.1283 26.9623 24.9264 27.0958C24.5225 27.3629 23.864 27.3706 23.4555 27.1127C23.2513 26.9837 23.1447 26.8205 23.1517 26.6481L23.1695 26.1835Z" fill="#FF9F26"/>
<path d="M22.7791 30.3864C22.7795 30.3828 22.78 30.3798 22.7805 30.3762C22.8342 30.0016 22.4402 29.4736 21.9677 29.1031C21.7728 28.9501 21.8691 28.6073 21.6924 28.4001L20.7198 28.2998C20.5113 28.6068 20.3281 28.9522 20.272 29.4905L20.2729 29.491C20.2636 29.5943 20.3216 29.6997 20.4463 29.7785L21.7653 30.6126C21.9981 30.7594 22.3753 30.7594 22.6076 30.6126C22.7071 30.5496 22.7637 30.4703 22.7781 30.3879L22.7791 30.3864Z" fill="#432918"/>
<path d="M22.7823 23.8128C22.7823 23.8128 22.9099 19.2701 22.7823 17.8425C22.6547 16.415 20.781 15.8956 20.5702 17.6287C20.3594 19.3617 20.7155 19.6493 20.7286 20.2648C20.7585 21.6939 20.7118 23.3589 20.7118 23.3589C20.7118 24.7926 20.2168 26.827 20.1635 28.4823C20.1631 28.491 20.1626 28.4992 20.1626 28.5079C20.1626 28.6732 20.2622 28.8384 20.4617 28.9643C20.8604 29.2166 21.5068 29.2166 21.9055 28.9643C22.1046 28.8384 22.2046 28.6732 22.2046 28.5079C22.2794 28.2792 22.8318 24.2201 22.7823 23.8128Z" fill="#186FD9"/>
<path d="M20.287 27.0638L20.3473 26.6084C20.3286 26.7793 20.4094 26.9609 20.6015 27.1185C20.9857 27.4332 21.6546 27.5202 22.0953 27.313C22.308 27.2132 22.4271 27.0622 22.4514 26.898L22.3907 27.3365C22.3659 27.511 22.2556 27.664 22.0355 27.7679C21.5947 27.9751 20.9259 27.8881 20.5417 27.5734C20.3496 27.4153 20.2655 27.2388 20.287 27.0638Z" fill="#FF9F26"/>
<path d="M23.3086 7.86049C23.3712 7.26388 24.2817 7.70648 24.5696 8.05698C24.7855 8.31998 24.8009 8.6193 24.6813 8.93859C24.6416 9.04502 24.527 9.28552 24.3158 9.53112C24.105 9.77724 22.965 10.9653 23.3086 11.9145C23.3086 11.9145 21.0301 10.1584 21.3264 10.0945C21.8536 9.98138 23.2459 8.45762 23.3086 7.86049Z" fill="#D9B9AE"/>
<path d="M24.2969 4.98771C24.4278 5.00102 24.9083 5.10949 24.8872 5.57358C24.8872 5.57358 24.7624 8.55613 24.7624 8.5592C24.7171 9.47049 23.6921 9.95147 23.3266 9.1594C23.2425 8.97775 23.2098 8.76336 23.2317 8.55562L23.5589 5.43491C23.6015 5.03376 23.938 4.95138 24.2969 4.98771Z" fill="#D9B9AE"/>
<path opacity="0.2" d="M24.2544 5.67333C24.6007 5.69891 24.854 5.58685 24.8779 5.43745C24.8106 5.08797 24.4138 5.00048 24.2969 4.9882C24.0034 4.95852 23.7248 5.00815 23.6103 5.24505C23.5907 5.45689 23.8749 5.6457 24.2544 5.67333Z" fill="#1D1D1B"/>
<path d="M24.8588 3.1985C24.5167 2.70422 24.3073 2.81116 24.2419 3.0537C24.2292 3.10026 24.0628 3.62268 24.0082 3.82326C24.0362 3.67692 24.0053 3.48094 23.9455 3.35916C23.8539 3.16217 23.6782 3.07519 23.6286 3.15757C23.5833 3.2333 23.6282 3.27269 23.659 3.3699C23.7259 3.58225 23.6749 3.73525 23.6679 3.81917C23.6399 4.16864 23.5856 4.44034 23.7207 4.75809C23.7464 4.81897 23.7763 4.87781 23.8161 4.92898C23.8207 4.93512 23.8259 4.94126 23.831 4.94689C23.9137 5.15053 23.803 5.36289 24.0409 5.48825C24.2638 5.60542 24.6475 5.54504 24.6499 5.30251C24.6513 5.17868 24.6513 4.90954 24.7994 4.7893C24.9616 4.65831 25.0088 4.24232 25.0313 4.01309C25.0668 3.8207 25.0738 3.50857 24.8588 3.1985Z" fill="#FAC493"/>
<path d="M24.2518 8.03983C23.626 8.03983 23.0586 7.87917 22.6468 7.61872C22.235 7.35879 21.9794 6.99909 21.9775 6.60254L21.9766 7.04412C21.9784 7.44118 22.2341 7.80037 22.6459 8.0603C23.0576 8.32023 23.625 8.48141 24.2509 8.48141C25.5025 8.48141 26.5139 7.83773 26.5102 7.04412L26.5111 6.60254C26.5149 7.39615 25.503 8.03983 24.2518 8.03983Z" fill="#F0A103"/>
<path d="M26.4149 5.85035C26.3555 5.60321 26.2382 5.36886 26.1943 5.28085C26.1816 5.25578 26.0648 5.02757 25.8629 4.80653C25.6782 4.60442 25.5198 4.50003 25.4254 4.43812C25.231 4.31276 24.8187 4.10349 24.2424 4.104C23.8115 4.10452 23.4128 4.2181 23.0576 4.44068C22.5916 4.73285 22.3481 5.17136 22.2841 5.29876C22.2416 5.3837 22.1285 5.60986 22.0626 5.88923C22.0383 5.99208 22.0116 6.13176 21.9985 6.23717C21.9854 6.34615 21.9798 6.49302 21.9766 6.60251C21.9784 6.99906 22.2341 7.35877 22.6459 7.6187C23.0576 7.87863 23.625 8.03981 24.2509 8.03981C25.5021 8.03981 26.5139 7.39612 26.5102 6.60251C26.5041 6.2776 26.4798 6.12307 26.4149 5.85035Z" fill="#FCC901"/>
<path d="M26.0903 5.34528C26.5479 5.93473 26.5516 6.87109 26.4334 6.91765C26.418 6.91049 26.3997 6.89566 26.3895 6.88133C26.3525 6.83119 26.3142 6.7488 26.2217 6.54873C26.1249 6.33997 25.923 5.90506 25.629 5.50953C25.3261 5.10173 25.0653 4.91342 24.9097 4.80086C24.834 4.74611 24.8284 4.74098 24.8232 4.72256C24.8494 4.70619 25.6225 4.74201 26.0903 5.34528Z" fill="#FFD600"/>
<path d="M24.9107 4.20251C25.0603 4.25368 25.0659 4.25572 25.1468 4.29205C25.2991 4.36624 25.3117 4.37188 25.4024 4.42765L25.5235 4.50849C25.3136 4.35652 25.0383 4.29922 24.7041 4.33709C24.6186 4.34681 24.6135 4.34732 24.5859 4.34221C24.5429 4.30588 24.6798 4.16976 24.7233 4.16004C24.7331 4.15799 24.7471 4.15851 24.7574 4.16004C24.8037 4.17232 24.8654 4.18768 24.9107 4.20251Z" fill="#FFD600"/>
<path d="M23.1363 4.39629C23.2943 4.31084 23.2976 4.3093 23.3906 4.2699C23.5434 4.21106 23.5434 4.21107 23.6252 4.18753C23.6663 4.17679 23.7215 4.16195 23.7626 4.15274C23.8547 4.1379 23.9374 4.31442 23.9285 4.32977C23.9267 4.33284 23.922 4.33489 23.9192 4.33694C23.8916 4.34205 23.8865 4.34154 23.8014 4.33028C23.4724 4.28781 23.2017 4.33949 22.9961 4.48481C23.0386 4.4582 23.0933 4.42085 23.1363 4.39629Z" fill="#FFD600"/>
<path d="M22.6079 5.84588C22.4374 6.1227 22.3163 6.38007 22.2097 6.60726C22.091 6.85951 22.0756 6.86718 22.0415 6.88355C21.9312 6.83699 21.8943 5.36081 22.98 4.87062C23.2637 4.74271 23.6269 4.68489 23.6713 4.71304C23.6652 4.73146 23.6572 4.73811 23.5829 4.78978C23.3978 4.91873 23.0141 5.18684 22.6079 5.84588Z" fill="#FFD600"/>
<path d="M24.5382 6.50937C24.569 7.49793 24.1961 8.25572 23.8623 7.88271C23.6614 7.65808 23.5571 7.09013 23.6254 6.5892C23.7469 5.69735 24.2082 5.06543 24.2475 5.05469C24.3218 5.0905 24.5213 5.96444 24.5382 6.50937Z" fill="#FFD600"/>
<path d="M24.2454 4.85548C24.1146 4.85548 23.9977 4.82221 23.9113 4.76797C23.8248 4.71322 23.7724 4.63954 23.772 4.55665C23.7706 4.3924 23.9828 4.25681 24.2422 4.25733C24.3731 4.25733 24.4899 4.29058 24.5764 4.34482C24.6628 4.39957 24.7152 4.47325 24.7157 4.55665C24.7175 4.72039 24.5048 4.85599 24.2454 4.85548Z" fill="#2EA0C5"/>
<path d="M24.7163 4.56329C24.7116 4.72447 24.5018 4.85598 24.2461 4.85547C24.1153 4.85547 23.9984 4.8222 23.9119 4.76796C23.8255 4.71321 23.7731 4.63953 23.7727 4.55664C23.7727 4.55664 23.7722 4.6114 23.7727 4.67894C23.7731 4.76183 23.8255 4.83551 23.9119 4.89077C23.9984 4.94552 24.1153 4.97826 24.2461 4.97826C24.5055 4.97878 24.7182 4.8437 24.7163 4.67894C24.7158 4.61549 24.7158 4.57762 24.7163 4.56329Z" fill="#01739E"/>
<path d="M24.0894 0.191895C24.0894 0.191895 24.0894 4.50634 24.0894 4.55597C24.0894 4.60611 24.1534 4.64654 24.2328 4.64654C24.3118 4.64654 24.3763 4.60611 24.3763 4.55597C24.3763 4.50583 24.3763 0.191895 24.3763 0.191895H24.0894Z" fill="#C9C9C9"/>
<path d="M24.2328 0.282194C24.1539 0.282194 24.0894 0.241786 24.0894 0.191642C24.0894 0.141498 24.1534 0.101074 24.2328 0.101074C24.3118 0.101074 24.3763 0.141498 24.3763 0.191642C24.3759 0.241274 24.3118 0.282194 24.2328 0.282194Z" fill="#E3E3E3"/>
<path d="M21.1737 10.301C20.9409 10.126 20.9283 9.93872 20.8933 9.68851L19.4775 9.39941C19.6341 10.3394 19.708 10.5712 19.6005 10.8065C19.4416 11.1539 19.9847 11.3039 20.6011 11.1504C21.2181 10.9969 21.4836 10.5021 21.1737 10.301Z" fill="#FFCEA1"/>
<path d="M20.8933 9.68851L19.4775 9.39941L19.5135 9.61175C19.794 10.0636 20.5722 10.4545 21.1732 10.301C20.9409 10.1265 20.9288 9.93923 20.8933 9.68851Z" fill="#FABB7F"/>
<path d="M19.1617 7.03245C19.7614 6.58371 20.6611 6.32224 21.1079 7.10663C21.3383 7.51086 21.293 7.66231 21.3804 7.95755C21.4103 8.05784 21.5398 8.27735 21.5664 8.38122C21.7393 9.05253 21.6725 9.80367 21.2836 10.0068C20.6891 10.3174 19.265 9.82466 18.8373 8.55673C18.6471 7.99338 18.7181 7.36452 19.1617 7.03245Z" fill="#FFCEA1"/>
<path d="M20.0413 10.5385C21.1761 9.96947 21.6467 10.036 22.0576 10.2048C22.3955 10.3389 22.9297 10.6075 23.6663 12.9285C24.0673 14.1933 24.3281 15.6895 24.3249 16.7794C24.3221 17.6308 21.4687 18.5774 20.6914 17.9562C20.3638 17.6942 20.5161 16.064 20.0609 15.0504C19.2663 13.2805 18.3157 12.3293 18.6143 11.7117C18.913 11.0946 19.2472 10.937 20.0413 10.5385Z" fill="#186FD9"/>
<path d="M21.3267 10.0945C21.5776 10.1017 22.1422 10.1406 22.6036 10.9777C22.719 11.187 22.8742 11.4848 22.948 11.6301C23.0798 11.8885 23.1976 11.9371 23.3084 11.9146C23.2733 11.804 23.2182 11.6889 23.1747 11.5876C22.6975 10.4865 22.3208 10.3023 22.0642 10.2004C21.8599 10.1165 21.6286 10.0556 21.3267 10.0945Z" fill="#D9B9AE"/>
<path d="M20.3847 13.2294C20.4805 13.146 20.509 13.0002 20.4557 12.8804C20.3267 12.5913 20.0739 12.0587 19.8519 11.8023C19.5238 11.4237 18.9288 11.3101 18.6885 11.5711L18.6881 11.5716C18.6633 11.6161 18.639 11.6627 18.6147 11.7128C18.4067 12.1436 18.8059 12.7367 19.3363 13.6561C19.3363 13.6561 19.878 13.67 20.3847 13.2294Z" fill="#D9B9AE"/>
<path opacity="0.4" d="M20.2222 12.3921L18.7495 12.6106C19.0884 13.1719 19.9217 14.7207 19.925 14.7284C19.7525 14.2346 19.5394 13.3085 20.2222 12.3921Z" fill="#1D1D1B"/>
<path d="M19.0459 11.1217C19.6077 11.0337 20.1424 11.3432 20.6275 12.2755C20.6981 12.4111 20.8519 12.4659 20.9813 12.4009L22.3484 11.7162C22.4625 11.6589 22.5144 11.5111 22.4606 11.3867C22.204 10.7927 21.7366 10.063 20.8547 10.1961C20.0316 10.4601 19.2118 10.9462 19.0459 11.1217Z" fill="#D9B9AE"/>
<path d="M22.9022 12.3057L21.1436 13.1816L21.298 13.5533L23.0567 12.6774L22.9022 12.3057Z" fill="#FF9F26"/>
<path d="M19.912 8.55169C19.9088 8.37363 20.0831 8.06714 20.3486 8.05179C20.4995 8.04309 20.9328 8.01034 21.0997 7.93257C21.3119 7.8333 21.3357 7.70385 21.288 7.53346C21.2259 7.28121 21.0716 7.04736 21.0716 7.04736L20.2733 7.4649L19.7466 8.04155L19.912 8.55169Z" fill="#FABB7F"/>
<path d="M21.5861 7.63079C21.4679 7.62721 21.2178 7.57247 21.1356 7.42511C21.2884 7.47474 21.5585 7.55661 21.8535 7.40515C21.3702 7.22453 21.3683 7.0306 21.0636 6.68369C20.6284 6.20732 20.1751 6.17251 19.6427 6.32755C19.1992 6.45649 18.9879 6.69903 18.9108 6.96254C18.5827 7.11093 18.4322 7.4993 18.4635 7.94548C18.4948 8.39166 18.7379 9.12386 19.223 9.61609C19.4268 9.82281 19.5371 9.79314 19.5913 9.68313C19.6539 9.55521 19.5039 9.40734 19.395 9.19601C19.2571 8.92892 19.3198 8.77082 19.4661 8.69816C19.6123 8.6255 19.703 8.74624 19.7857 8.90128C19.8315 9.02715 20.0452 8.9453 20.0026 8.81482C19.8423 8.47916 19.8984 8.31286 19.9928 8.17266C20.0872 8.03246 20.2368 7.94138 20.4102 7.9644C20.7579 8.01148 20.9224 7.97924 21.129 7.88714C21.0346 7.87026 20.786 7.79709 20.7308 7.71164C20.9584 7.77407 21.2861 7.80015 21.5861 7.63079Z" fill="#665949"/>
<path d="M21.6968 8.43589C22.1988 8.54693 22.555 9.13381 22.3811 9.68028C22.3493 9.78005 22.2998 9.87217 22.2348 9.95096C22.2348 9.95096 21.494 11.2598 19.6936 12.8997C19.4856 13.0896 19.3351 13.3802 19.3361 13.6565C19.1655 13.3628 18.9122 12.9217 18.749 12.6112C18.5649 12.2601 18.4251 11.7403 18.6906 11.4241C18.6906 11.4241 20.921 9.05604 21.0785 8.69122C21.3954 7.95952 21.4304 8.37705 21.6968 8.43589Z" fill="#E4C6BB"/>
<path d="M23.3744 6.3637C23.1908 6.63489 22.3008 6.34068 22.5551 5.9738C22.8094 5.60693 22.4037 5.60284 22.7075 5.11777C23.0113 4.63219 23.3548 3.79867 23.6778 3.97929C24.0007 4.16042 24.154 4.44185 24.1592 4.69001C24.1643 4.93817 24.1321 5.2462 23.9605 5.5C23.789 5.7543 23.5936 6.04032 23.3744 6.3637Z" fill="#FFCEA1"/>
<path d="M22.862 5.12013C22.9148 4.81057 22.9485 4.54091 22.7952 4.51738C22.6484 4.49486 22.5498 4.9697 22.5442 5.13344C22.5376 5.3248 22.5769 5.5351 22.6358 5.67581L22.862 5.12013Z" fill="#FFCEA1"/>
<path d="M22.7231 5.77637C23.1288 5.81782 23.8733 6.27475 23.641 6.86215L22.3436 9.77359C22.2622 9.9496 22.1314 10.0949 21.972 10.1855C21.3303 10.5513 21.0489 8.75587 21.0788 8.69088C21.0788 8.69088 22.094 6.30699 22.1622 6.15042C22.3048 5.82448 22.4557 5.74823 22.7231 5.77637Z" fill="#E4C6BB"/>
<path d="M21.9436 25.5582C21.8474 25.4436 21.7389 25.4042 21.6684 25.4482C21.6473 25.4615 21.6296 25.482 21.6169 25.5101L14.731 40.7084L15.1829 41.2488L22.0689 26.0505C22.125 25.9277 22.0689 25.7076 21.9436 25.5582Z" fill="#E3E3E3"/>
<path d="M19.3228 30.9083C19.3228 31.0158 19.3915 31.1457 19.4761 31.1995C19.5607 31.2532 19.6298 31.2097 19.6298 31.1023C19.6298 30.9948 19.5611 30.8648 19.4761 30.8111C19.3915 30.7574 19.3228 30.8009 19.3228 30.9083Z" fill="#666666"/>
<path d="M22.3411 25.3067C22.2449 25.1915 22.1355 25.1526 22.0654 25.1972C22.0448 25.2105 21.669 25.4479 21.669 25.4479C21.7396 25.4039 21.848 25.4428 21.9443 25.5579C22.0691 25.7073 22.1252 25.9273 22.0696 26.0501L15.1836 41.2484L15.5809 40.9972L22.4669 25.7989C22.5225 25.6766 22.4659 25.4561 22.3411 25.3067Z" fill="#F7F7F7"/>
<path d="M20.4836 28.937C20.428 28.7441 20.2817 28.5804 20.1569 28.5722C20.1289 28.5701 20.1041 28.5763 20.0831 28.5891C20.0121 28.6331 19.9882 28.7564 20.0312 28.9058L25.6165 48.2942L26.0684 48.3254L20.4836 28.937Z" fill="#C9C9C9"/>
<path d="M20.7219 28.7861C20.6663 28.5932 20.52 28.4295 20.3952 28.4213C20.3672 28.4192 20.3424 28.4254 20.3219 28.4382C20.2508 28.4822 20.0835 28.5891 20.0835 28.5891C20.1041 28.5763 20.1288 28.5702 20.1573 28.5722C20.2821 28.5809 20.4284 28.7442 20.484 28.9371L26.0693 48.3255L26.3077 48.175L20.7219 28.7861Z" fill="#E3E3E3"/>
<path d="M20.105 28.827C20.105 28.9344 20.1737 29.0644 20.2588 29.1181C20.3434 29.1718 20.4125 29.1283 20.4125 29.0209C20.4125 28.9134 20.3438 28.7835 20.2588 28.7297C20.1737 28.6765 20.105 28.72 20.105 28.827Z" fill="#666666"/>
<path d="M21.1182 32.3446C21.1182 32.4521 21.1869 32.582 21.2719 32.6358C21.3565 32.6895 21.4257 32.646 21.4257 32.5386C21.4257 32.4311 21.357 32.3011 21.2719 32.2474C21.1869 32.1942 21.1182 32.2372 21.1182 32.3446Z" fill="#666666"/>
<path d="M22.016 31.9711C21.9561 31.8575 21.8589 31.7961 21.7986 31.8339C21.7388 31.8718 21.6304 31.9404 21.6304 31.9404L21.764 32.405C21.764 32.405 21.9557 32.2837 22.0155 32.2458C22.0758 32.208 22.0758 32.0852 22.016 31.9711Z" fill="#303030"/>
<path d="M26.9106 22.5776C26.832 22.4292 26.7054 22.3488 26.6269 22.3985C26.5488 22.4476 22.233 25.1753 22.2012 25.1958C22.247 25.2152 22.2951 25.2526 22.3409 25.3073C22.4456 25.4327 22.5022 25.6077 22.4844 25.7336C22.8167 25.5238 26.8353 22.9833 26.9106 22.9362C26.9891 22.8866 26.9891 22.7259 26.9106 22.5776Z" fill="#404040"/>
<path opacity="0.2" d="M26.9107 22.5775C26.8896 22.5376 26.8649 22.5028 26.8387 22.4741L22.3462 25.3139C22.3784 25.3533 22.4055 25.3978 22.4275 25.4434L26.9224 22.602C26.9191 22.5939 26.9149 22.5857 26.9107 22.5775Z" fill="white"/>
</svg>
