<svg width="44" height="56" viewBox="0 0 44 56" fill="none" xmlns="http://www.w3.org/2000/svg">
<path d="M12.0451 16.7057L10.5752 15.7767L34.5466 0.625488L36.0165 1.55453L12.0451 16.7057Z" fill="#EFE1BC"/>
<path opacity="0.1" d="M28.8771 26.9414L0 45.1935L12.045 50.2772L36.0164 35.1256V32.0251L28.8771 26.9414Z" fill="black"/>
<path d="M12.0451 50.2769L10.5752 49.3479V15.7764L12.0451 16.7054V50.2769Z" fill="#CAA58B"/>
<path d="M12.0449 50.2769V16.7054L36.0163 1.5542V35.1253L12.0449 50.2769Z" fill="#FFBB00"/>
<path opacity="0.1" d="M28.3698 55.2612L24.769 52.9851C24.3061 52.6926 24.3642 52.1811 24.8989 51.8434L26.1925 51.0258C26.7272 50.6877 27.536 50.6509 27.9993 50.9438L32.7846 53.9684L30.5788 55.3628L28.3698 55.2612Z" fill="black"/>
<path d="M26.9687 48.0436C27.0198 47.9232 27.1009 47.8199 27.1875 47.7652C27.2604 47.7191 27.3294 47.7123 27.3801 47.7447C27.3895 47.7507 27.3985 47.7584 27.4067 47.7669L28.2908 48.7331V51.1283L26.085 52.5227V50.1275L26.9687 48.0436Z" fill="#DE3222"/>
<path d="M26.806 47.9414C26.8571 47.821 26.9386 47.7172 27.0248 47.663C27.0981 47.6169 27.1675 47.61 27.2182 47.6433C27.2272 47.6493 27.3797 47.7454 27.3797 47.7454C27.329 47.7129 27.2599 47.7198 27.187 47.7659C27.1004 47.8205 27.0193 47.9239 26.9682 48.0443L26.0841 50.1282L25.9219 50.0257L26.806 47.9414Z" fill="#FB4432"/>
<path d="M28.1639 51.0488L30.5471 52.5551L30.4687 52.7395L27.979 51.1658L28.1639 51.0488Z" fill="#CF2313"/>
<path d="M31.2949 50.7919L30.5473 52.5548L28.1641 51.0485V48.813L31.2949 50.7919Z" fill="#C91716"/>
<path d="M30.6554 53.4866L29.9912 51.5474L30.0458 51.6063L30.7096 53.5451L30.6554 53.4866Z" fill="#91AD0B"/>
<path d="M30.8934 53.4324L30.2293 51.4932L30.1646 51.579L30.8287 53.5182L30.8934 53.4324Z" fill="#C3E022"/>
<path d="M30.829 53.5183L30.1648 51.5791L30.0459 51.6064L30.7097 53.5452L30.829 53.5183Z" fill="#AFCD15"/>
<path d="M30.0942 51.3457L30.175 51.4345L30.2296 51.4934L30.0977 51.3636L30.0942 51.3457Z" fill="#DED397"/>
<path d="M30.0978 51.3633L30.2296 51.4931L30.1649 51.5789L30.0752 51.3876L30.0978 51.3633Z" fill="#E8E2B5"/>
<path d="M30.0751 51.3877L30.1648 51.579L30.0459 51.6063L30.0342 51.3958L30.0751 51.3877Z" fill="#DED397"/>
<path d="M30.0341 51.3957L30.0177 51.3735L29.9912 51.5473L30.0458 51.6062L30.0341 51.3957Z" fill="#D9C879"/>
<path d="M30.082 51.3831C30.1004 51.3682 30.1027 51.3515 30.0918 51.343L30.0555 51.3075C30.0442 51.2964 30.0259 51.3037 30.0239 51.3208L30.0181 51.3733C30.015 51.3878 30.0267 51.3989 30.0497 51.3968C30.061 51.3959 30.0723 51.3912 30.082 51.3831Z" fill="#AFCD15"/>
<path d="M28.2904 48.7334L31.3573 50.6717C31.3355 50.7059 31.316 50.7426 31.2996 50.7815L31.2949 50.7921L28.1641 48.8132L28.2904 48.7334Z" fill="#59A3DE"/>
<path d="M31.2996 50.7816C31.3507 50.6612 31.4319 50.5575 31.5184 50.5033C31.591 50.4576 31.6596 50.4507 31.7103 50.4823C31.7201 50.4883 31.8733 50.5852 31.8733 50.5852C31.8226 50.5532 31.7536 50.56 31.6811 50.6057C31.5945 50.6604 31.5134 50.7637 31.4623 50.8841L30.5782 52.9681L30.4155 52.8656L31.2996 50.7816Z" fill="#DE3222"/>
<path d="M27.3579 50.9438C27.3579 50.9438 27.9913 52.7785 27.9956 52.7913C27.9999 52.8036 27.9968 52.8194 27.9851 52.8352L27.8957 52.9548C27.8723 52.9864 27.8232 53.0064 27.7865 53L27.5093 52.9505C27.4909 52.9471 27.4792 52.9377 27.4745 52.9253C27.4703 52.9129 26.8369 51.0783 26.8369 51.0783L27.3579 50.9438Z" fill="#C92C2C"/>
<path d="M27.0458 50.869L27.3231 50.9185C27.3414 50.9219 27.3531 50.9313 27.3574 50.9437C27.3617 50.9561 27.3586 50.9719 27.3469 50.9877L27.2576 51.1072C27.2342 51.1388 27.1851 51.1589 27.1484 51.1525L26.8711 51.1025C26.8528 51.0991 26.8411 51.0897 26.8368 51.0773C26.8325 51.065 26.8356 51.0492 26.8473 51.0334L26.9366 50.9138C26.9604 50.8827 27.0092 50.8622 27.0458 50.869Z" fill="#AB1818"/>
<path d="M26.7163 49.0845C26.7163 49.0845 27.3535 50.9315 27.3578 50.9438C27.3621 50.9562 27.359 50.972 27.3473 50.9878L27.258 51.1074C27.2439 51.1262 27.2205 51.1411 27.1963 51.1484L26.5029 49.1395L26.7163 49.0845Z" fill="#BAA664"/>
<path d="M26.5031 49.1392L27.1965 51.148C27.1802 51.1531 27.1638 51.1548 27.1489 51.1522L26.8717 51.1023C26.8533 51.0989 26.8416 51.0895 26.8373 51.0771C26.833 51.0647 26.1958 49.2177 26.1958 49.2177L26.5031 49.1392Z" fill="#CFBD80"/>
<path d="M26.4043 49.0095L26.6816 49.0594C26.6999 49.0629 26.7116 49.0718 26.7159 49.0846C26.7202 49.097 26.7171 49.1128 26.7054 49.1286L26.6161 49.2482C26.5927 49.2797 26.5435 49.2998 26.5069 49.2934L26.2296 49.2435C26.2113 49.24 26.1996 49.2306 26.1949 49.2183C26.1902 49.2059 26.1937 49.1901 26.2054 49.1743L26.2947 49.0547C26.3185 49.0231 26.3676 49.0031 26.4043 49.0095Z" fill="#AB1818"/>
<path d="M27.1266 49.2675L27.4051 48.8956L26.7721 48.6074L26.4937 48.9793L27.1266 49.2675Z" fill="#363636"/>
<path d="M26.4934 48.9789L26.7719 48.607L25.7887 48.4307L25.5103 48.8025L26.4934 48.9789Z" fill="#4A4A4A"/>
<path d="M26.2576 48.5936L26.5349 48.6431C26.5533 48.6465 26.565 48.6559 26.5693 48.6683C26.5735 48.6807 26.5704 48.6965 26.5587 48.7123L26.4694 48.8318C26.446 48.8634 26.3969 48.8835 26.3602 48.8771L26.0829 48.8271C26.0646 48.8237 26.0529 48.8143 26.0482 48.802C26.0439 48.7896 26.0471 48.7738 26.0588 48.758L26.1481 48.6384C26.1719 48.6073 26.221 48.5868 26.2576 48.5936Z" fill="#CFBD80"/>
<path d="M27.1412 49.3104L27.1264 49.2673L26.4934 48.9791L25.5103 48.8027L25.6538 49.2182L26.637 49.3945L27.1412 49.3104Z" fill="#262626"/>
<path d="M27.1413 49.3105L27.4197 48.9382L27.4049 48.8955L27.1265 49.2674L27.1413 49.3105Z" fill="#262626"/>
<path d="M27.3439 46.5398L27.3992 46.4258L27.2795 46.5936L27.2241 46.7076L27.2721 46.8378L27.3918 46.67L27.3439 46.5398Z" fill="#1C1C1C"/>
<path d="M28.6642 50.1213L28.8447 50.1491C28.8634 50.1521 28.8845 50.17 28.8915 50.1892L29.0463 50.6089C29.0534 50.6281 29.044 50.6414 29.0253 50.6388L28.8447 50.611L30.1169 54.0625L30.8758 54.1795L28.1509 46.7868L27.3916 46.6694L28.6642 50.1213ZM30.4768 53.4029C30.5291 53.545 30.4593 53.6432 30.3205 53.6219C30.1816 53.6005 30.0264 53.4678 29.9741 53.3256C29.9215 53.1834 29.9917 53.0852 30.1305 53.1066C30.2694 53.1275 30.4246 53.2603 30.4768 53.4029ZM28.1618 47.3321C28.2972 47.4478 28.3572 47.6109 28.296 47.6967C28.2348 47.7821 28.0756 47.7577 27.9403 47.6416C27.805 47.5259 27.7449 47.3624 27.8062 47.277C27.8674 47.1916 28.0265 47.2159 28.1618 47.3321Z" fill="#FCC901"/>
<path d="M30.8686 54.4238L30.7485 54.5916L30.1963 54.5062L30.316 54.3384L30.8686 54.4238Z" fill="#1C1C1C"/>
<path d="M30.316 54.3384L30.1962 54.5062L30.0449 54.3602L30.1647 54.1924L30.316 54.3384Z" fill="#2B2B2B"/>
<path d="M30.1648 54.1923L30.045 54.3601L29.9971 54.2303L30.1168 54.0625L30.1648 54.1923Z" fill="#1C1C1C"/>
<path d="M30.1647 54.1923L30.316 54.3383L30.8686 54.4237L30.924 54.3097L30.876 54.1795L30.1167 54.0625L30.1647 54.1923Z" fill="#404040"/>
<path d="M28.1031 46.6568L27.9517 46.5112L27.3991 46.4258L27.3438 46.5398L27.3917 46.67L28.151 46.787L28.1031 46.6568Z" fill="#404040"/>
<path d="M27.9202 47.6702C28.0805 47.8073 28.2689 47.8363 28.3414 47.7351C28.4136 47.6339 28.3426 47.4405 28.1823 47.3035C28.022 47.1664 27.8337 47.1374 27.7615 47.2386C27.6886 47.3398 27.76 47.5327 27.9202 47.6702ZM28.1617 47.3321C28.297 47.4478 28.357 47.6109 28.2958 47.6967C28.2346 47.7821 28.0755 47.7577 27.9401 47.6416C27.8048 47.5259 27.7447 47.3624 27.806 47.277C27.8672 47.1916 28.0263 47.2159 28.1617 47.3321Z" fill="#404040"/>
<path d="M27.7852 47.3939C27.7778 47.3487 27.784 47.3077 27.8059 47.2765C27.8671 47.1911 28.0262 47.2155 28.1616 47.3316C28.2969 47.4473 28.3569 47.6104 28.2957 47.6962C28.2735 47.727 28.2388 47.7436 28.1967 47.7466C28.1834 47.6668 28.1276 47.5733 28.0414 47.4994C27.9552 47.4251 27.8593 47.3884 27.7852 47.3939Z" fill="#1C1C1C"/>
<path d="M27.9181 47.4471C27.9306 47.4296 27.9856 47.4539 28.0405 47.5009C28.0959 47.5483 28.1303 47.6008 28.1178 47.6183C28.1053 47.6358 28.0503 47.6115 27.9953 47.5641C27.9399 47.5167 27.9056 47.4646 27.9181 47.4471Z" fill="white"/>
<path opacity="0.6" d="M28.2843 47.6831C28.2827 47.6955 28.28 47.7066 28.2761 47.7173C28.2511 47.7378 28.2172 47.7476 28.1782 47.7468L27.7894 47.4137C27.7792 47.3728 27.7796 47.3343 27.7921 47.3027C27.8007 47.2959 27.8101 47.2899 27.8206 47.2856L28.2843 47.6831Z" fill="#AFCD15"/>
<path d="M29.997 54.2303L28.7529 50.8553L28.873 50.6875L30.1167 54.0625L29.997 54.2303Z" fill="#FFAD0D"/>
<path d="M28.6358 50.0445L28.5161 50.2123L27.272 46.8377L27.3917 46.6699L28.6358 50.0445Z" fill="#FFAD0D"/>
<path d="M28.6638 50.1209L28.8444 50.1486C28.8631 50.1516 28.8842 50.1695 28.8912 50.1887L29.046 50.6084C29.053 50.6277 29.0437 50.6409 29.025 50.6383L28.8444 50.6106L28.8725 50.6874L29.0776 50.719C29.1205 50.7258 29.142 50.6955 29.126 50.6516L28.9477 50.1678C28.9314 50.1238 28.8838 50.0829 28.8409 50.076L28.6357 50.0444L28.6638 50.1209Z" fill="#404040"/>
<path d="M28.8447 50.1489C28.8634 50.1519 28.8845 50.1698 28.8915 50.189L29.0464 50.6087C29.0534 50.628 29.044 50.6412 29.0253 50.6386L28.8666 50.6143L28.7718 50.3573C28.7648 50.338 28.7437 50.3201 28.725 50.3171L28.5444 50.2894L28.6642 50.1216L28.8447 50.1489Z" fill="#1C1C1C"/>
<path d="M28.6639 50.1213L28.5442 50.2891L28.5161 50.2122L28.6358 50.0444L28.6639 50.1213Z" fill="#2B2B2B"/>
<path d="M28.8728 50.6873L28.7527 50.8551L28.7246 50.7782L28.8443 50.6108L28.8728 50.6873Z" fill="#2B2B2B"/>
<path d="M28.7486 50.3645C28.7771 50.3688 28.8172 50.4196 28.8387 50.4777C28.8601 50.5358 28.8547 50.5793 28.8262 50.575C28.7977 50.5708 28.7576 50.52 28.7361 50.4619C28.7147 50.4038 28.7205 50.3603 28.7486 50.3645Z" fill="white"/>
<path opacity="0.6" d="M28.6861 50.1801C28.7208 50.1647 28.7559 50.1703 28.7637 50.1921C28.7719 50.2143 28.9224 50.6229 28.9224 50.6229L28.8444 50.6109L28.7961 50.6784C28.7961 50.6784 28.6455 50.2698 28.6373 50.248C28.6295 50.2258 28.651 50.1955 28.6861 50.1801Z" fill="#AFCD15"/>
<path d="M29.9278 53.318C29.9898 53.4867 30.1735 53.6438 30.3381 53.6694C30.5026 53.6951 30.5853 53.5789 30.5233 53.4103C30.4613 53.2416 30.2776 53.0845 30.113 53.0593C29.9488 53.0333 29.8658 53.1494 29.9278 53.318ZM30.4769 53.403C30.5291 53.5452 30.4593 53.6434 30.3205 53.622C30.1817 53.6007 30.0264 53.4679 29.9742 53.3257C29.9215 53.1836 29.9917 53.0854 30.1306 53.1067C30.2694 53.1276 30.4246 53.2604 30.4769 53.403Z" fill="#404040"/>
<path d="M30.3571 53.5709C30.3048 53.4287 30.1496 53.2959 30.0108 53.2742C29.9925 53.2712 29.9757 53.2708 29.9601 53.272C29.9414 53.1597 30.01 53.088 30.1305 53.1064C30.2693 53.1277 30.4246 53.2605 30.4768 53.4027C30.5224 53.5265 30.4753 53.6161 30.3711 53.6238C30.3684 53.6072 30.3637 53.5892 30.3571 53.5709Z" fill="#1C1C1C"/>
<path d="M30.1608 53.3309C30.1893 53.3351 30.2295 53.3859 30.2509 53.444C30.2724 53.5021 30.2665 53.5456 30.2384 53.5413C30.21 53.5371 30.1698 53.4863 30.1483 53.4282C30.1269 53.3701 30.1323 53.3266 30.1608 53.3309Z" fill="white"/>
<path opacity="0.6" d="M30.1795 53.5661C30.1355 53.4461 30.0555 53.2301 30.0501 53.2143C30.0419 53.1921 30.0637 53.1618 30.0984 53.1464C30.1331 53.131 30.1682 53.1366 30.176 53.1584C30.1834 53.1789 30.3277 53.5704 30.3476 53.6242C30.339 53.6237 30.3297 53.6229 30.3203 53.6216C30.2735 53.6144 30.2252 53.5947 30.1795 53.5661Z" fill="#AFCD15"/>
<path d="M27.5755 51.2635C27.604 50.9791 27.7654 50.5483 27.7654 50.5483C27.811 50.6158 27.8738 50.6747 27.9417 50.708C27.8988 50.8707 27.8493 50.9672 27.7974 51.2076C27.7674 51.3472 27.7061 51.5735 27.8153 52.0072C27.8383 52.0982 27.8672 52.2425 27.8071 52.2442C27.7471 52.2459 27.7338 52.2028 27.6897 52.0687C27.6461 51.9346 27.5466 51.5478 27.5755 51.2635Z" fill="#FFBB00"/>
<path d="M27.8208 52.2408C27.8618 52.2173 27.836 52.0905 27.815 52.0072C27.7054 51.573 27.767 51.3471 27.797 51.2075C27.8489 50.9676 27.8984 50.8707 27.9413 50.708L27.9932 50.7276C27.9581 50.8369 27.9203 50.9364 27.8805 51.1196C27.8505 51.2592 27.7892 51.4855 27.8984 51.9193C27.9168 51.991 27.9386 52.0964 27.9171 52.1383C27.9121 52.149 27.8703 52.2186 27.8208 52.2408Z" fill="#F09300"/>
<path d="M27.5755 51.2635C27.5954 51.065 27.68 50.7956 27.7295 50.6504L27.8165 50.7247C27.8364 50.7418 27.8477 50.7682 27.8419 50.784C27.8052 50.8878 27.6847 51.2511 27.6874 51.5167C27.689 51.6623 27.735 52.0303 27.8282 52.2344C27.8227 52.2403 27.8161 52.2433 27.8071 52.2438C27.7471 52.2455 27.7338 52.2024 27.6897 52.0683C27.6461 51.9347 27.5466 51.5478 27.5755 51.2635Z" fill="#1C72D9"/>
<path d="M27.7271 50.2499C27.7271 50.2499 27.7446 50.2315 27.8105 50.1624C27.8764 50.0932 28.0184 50.138 28.128 50.2631C28.2375 50.3878 28.2726 50.5453 28.2071 50.6145C28.1412 50.6837 28.1237 50.702 28.1237 50.702L27.7271 50.2499Z" fill="#BABABA"/>
<path d="M27.8059 50.6012C27.9155 50.7258 28.0574 50.7711 28.1233 50.7019C28.1893 50.6327 28.1538 50.4756 28.0442 50.3505C27.9346 50.2254 27.7926 50.1806 27.7267 50.2498C27.6612 50.3189 27.6967 50.4761 27.8059 50.6012Z" fill="#E3E3E3"/>
<path d="M27.8318 50.4462C27.8447 50.5034 27.897 50.5627 27.9484 50.5794C27.9999 50.5956 28.0315 50.5627 28.0187 50.5055C28.0058 50.4483 27.9535 50.389 27.902 50.3723C27.8506 50.3561 27.8194 50.389 27.8318 50.4462Z" fill="#404040"/>
<path d="M27.8711 49.6949L27.9546 49.6074L28.0095 49.6343L27.9261 49.7218L27.8711 49.6949Z" fill="#C9C9C9"/>
<path d="M27.9263 49.7218L28.0097 49.6343L28.2137 50.2615L28.1302 50.3494L27.9263 49.7218Z" fill="#A6A6A6"/>
<path d="M27.9048 50.0161L27.9219 50.0246L27.9379 50.259L27.92 50.2326L27.9048 50.0161Z" fill="#F2F2F2"/>
<path d="M27.9103 49.9009L27.9092 49.8821L27.9053 49.8804L27.8936 49.8928L27.9103 49.9009Z" fill="#A6A6A6"/>
<path d="M27.9133 49.9375L27.9118 49.92L27.8985 49.9136L27.8872 49.9251L27.9133 49.9375Z" fill="#A6A6A6"/>
<path d="M27.9083 49.8632L27.9067 49.8444L27.9028 49.8423L27.8911 49.8551L27.9083 49.8632Z" fill="#A6A6A6"/>
<path d="M27.9053 49.8257L27.9042 49.8082L27.8995 49.8057L27.8882 49.8172L27.9053 49.8257Z" fill="#A6A6A6"/>
<path d="M27.8781 49.7956L27.8711 49.6948L27.9257 49.7217L28.1301 50.3493L28.07 50.3826C28.0333 50.3335 27.9873 50.29 27.9374 50.2597L27.921 50.0253L27.8926 50.0112L27.8867 49.9254L27.9124 49.9382L27.9113 49.9207L27.8945 49.9121L27.8933 49.8934L27.9101 49.9019L27.9089 49.8831L27.8922 49.8746L27.891 49.8558L27.9078 49.8643L27.9066 49.8455L27.8894 49.837L27.8883 49.8182L27.905 49.8268L27.9039 49.8092L27.8781 49.7956Z" fill="#E3E3E3"/>
<path d="M27.5591 49.6051L27.6425 49.5176L27.6925 49.524L27.609 49.6115L27.5591 49.6051Z" fill="#A6A6A6"/>
<path d="M27.7021 49.8659L27.6783 49.8629L27.6713 49.8437L27.6869 49.8454L27.6791 49.8245L27.6639 49.8228L27.6561 49.8019L27.6717 49.804L27.6639 49.7831L27.6483 49.7809L27.6409 49.76L27.6565 49.7622L27.6487 49.7412L27.6331 49.7395L27.626 49.7199L27.6498 49.7229L27.6089 49.6114L27.6924 49.5239L27.7333 49.6354L27.7173 49.652L27.7321 49.6537L27.7399 49.6746L27.7243 49.6725L27.7317 49.6934L27.7473 49.6956L27.7551 49.7161L27.7395 49.7144L27.7469 49.7353L27.7625 49.737L27.7703 49.7579L27.7548 49.7558L27.7618 49.7754L27.7856 49.7784L27.8203 49.8736L27.7368 49.9611L27.7021 49.8659Z" fill="#C9C9C9"/>
<path d="M27.7109 49.9581L27.7371 49.9615L27.7558 49.9419C27.7542 49.9551 27.7566 49.9705 27.7628 49.9876C27.7819 50.0401 27.8326 50.0871 27.8755 50.0926L27.8892 50.1298L27.8057 50.2173L27.7109 49.9581Z" fill="#404040"/>
<path d="M27.7925 50.1803L27.8759 50.0928L27.8896 50.1299L27.8061 50.2174L27.7925 50.1803Z" fill="#919191"/>
<path d="M27.7507 49.9468L27.8451 50.2047L27.8419 50.2081L27.7476 49.9506L27.7507 49.9468Z" fill="#A6A6A6"/>
<path d="M27.7476 49.9507L27.7371 49.9614L27.7109 49.9579L27.8061 50.2175L27.842 50.2081L27.7476 49.9507Z" fill="#F2F2F2"/>
<path d="M27.6411 49.7604L27.7246 49.6729L27.732 49.6938L27.6485 49.7813L27.6411 49.7604Z" fill="#919191"/>
<path d="M27.649 49.7232L27.633 49.7399L27.626 49.7202L27.649 49.7232Z" fill="#919191"/>
<path d="M27.6562 49.8024L27.7397 49.7148L27.7471 49.7358L27.6641 49.8233L27.6562 49.8024Z" fill="#919191"/>
<path d="M27.6709 49.8424L27.7544 49.7549L27.7618 49.7758L27.6783 49.8633L27.6709 49.8424Z" fill="#919191"/>
<path d="M27.5591 49.6055L27.6094 49.6119L27.65 49.7233L27.6262 49.7203L27.6332 49.74L27.6488 49.7421L27.6566 49.763L27.641 49.7609L27.6488 49.7818L27.6644 49.7839L27.6722 49.8049L27.6566 49.8027L27.6644 49.8236L27.68 49.8258L27.6878 49.8467L27.6722 49.8446L27.6792 49.8642L27.703 49.8672L27.7377 49.9624L27.7116 49.959L27.8063 50.2186C27.7638 50.2194 27.7318 50.2382 27.7131 50.2702L27.6277 50.1908L27.5591 49.6055Z" fill="#E3E3E3"/>
<path d="M27.6489 49.7413L27.7324 49.6538L27.7402 49.6747L27.6567 49.7623L27.6489 49.7413Z" fill="#C9C9C9"/>
<path d="M27.6489 49.7416L27.7324 49.6541L27.7175 49.6523L27.6501 49.7232H27.6493L27.6333 49.7399L27.6489 49.7416Z" fill="#A6A6A6"/>
<path d="M27.6641 49.7833L27.7475 49.6958L27.7553 49.7163L27.6719 49.8042L27.6641 49.7833Z" fill="#C9C9C9"/>
<path d="M27.664 49.7835L27.7475 49.696L27.7319 49.6938L27.6484 49.7814L27.664 49.7835Z" fill="#A6A6A6"/>
<path d="M27.6792 49.8243L27.7627 49.7368L27.7704 49.7577L27.687 49.8453L27.6792 49.8243Z" fill="#C9C9C9"/>
<path d="M27.6793 49.8246L27.7627 49.7371L27.7471 49.7354L27.6641 49.8229L27.6793 49.8246Z" fill="#A6A6A6"/>
<path d="M27.7025 49.8659L27.786 49.7784L27.7622 49.7754L27.6787 49.8629L27.7025 49.8659Z" fill="#A6A6A6"/>
<path d="M28.7105 51.6241C28.5397 51.2766 28.145 50.6694 28.145 50.6694C28.1251 50.716 28.0811 50.7412 28.019 50.7335C28.1474 50.9504 28.2511 51.0959 28.4274 51.408C28.5299 51.5899 28.7101 51.8926 28.7944 52.3187C28.8119 52.408 28.8486 52.5548 28.9188 52.598C28.989 52.6411 28.9835 52.6005 28.9691 52.4754C28.9543 52.3499 28.8813 51.9716 28.7105 51.6241Z" fill="#FFBB00"/>
<path d="M28.2358 50.8117C28.1812 50.7259 28.1453 50.6703 28.1445 50.6691L28.228 50.5815C28.228 50.5815 28.2643 50.637 28.3192 50.7241C28.3192 50.7241 28.2994 50.7814 28.2358 50.8117Z" fill="#F09300"/>
<path d="M28.7104 51.624C28.5911 51.3815 28.3629 51.0126 28.2358 50.8115L28.1718 50.838C28.157 50.844 28.157 50.8666 28.1714 50.8892C28.2639 51.034 28.579 51.5352 28.7045 51.84C28.7736 52.007 28.8984 52.4002 28.8898 52.5718C28.8988 52.5821 28.9085 52.5906 28.9186 52.597C28.9888 52.6401 28.9834 52.5996 28.969 52.4745C28.9541 52.3498 28.8812 51.9715 28.7104 51.624Z" fill="#1C72D9"/>
<path d="M28.9593 52.6142C28.9854 52.6137 28.9796 52.5676 28.969 52.475C28.9546 52.3499 28.8813 51.9712 28.7105 51.6236C28.5915 51.3811 28.363 51.0123 28.2358 50.8112C28.2998 50.7809 28.3193 50.7236 28.3193 50.7236C28.4464 50.9247 28.6746 51.2936 28.7939 51.5361C28.9647 51.8837 29.0377 52.2624 29.0525 52.3875C29.0599 52.4524 29.0615 52.4933 29.0556 52.5134C29.0478 52.5399 28.9905 52.6142 28.9593 52.6142Z" fill="#0258BF"/>
<path d="M30.578 52.9679V55.3631L30.4154 55.2606L26.0845 52.523L25.9219 52.4205V50.0249L30.578 52.9679Z" fill="#DE3222"/>
<path d="M31.4622 50.8839C31.5133 50.7635 31.5948 50.6598 31.681 50.6055C31.7536 50.5594 31.8226 50.5526 31.8733 50.585C31.8831 50.591 31.8916 50.5987 31.8998 50.6077L32.7839 51.5739V53.9691L30.5781 55.3635V52.9683L31.4622 50.8839Z" fill="#FB4432"/>
<path d="M31.5536 51.1864C31.6238 51.2308 31.7381 51.1587 31.8083 51.0254C31.8785 50.8918 31.8785 50.7479 31.8083 50.7035C31.7381 50.6591 31.6238 50.7313 31.5536 50.8645C31.4834 50.9977 31.4834 51.142 31.5536 51.1864Z" fill="#404040"/>
<path d="M26.2113 50.0479L26.085 50.1277L30.4159 52.8653L30.4693 52.7394L26.2113 50.0479Z" fill="#FB4432"/>
<path opacity="0.5" d="M30.469 52.7393L30.4155 52.8652V52.7056L30.469 52.7393Z" fill="black"/>
<path d="M27.0593 48.0238C27.1299 47.8897 27.2441 47.8176 27.3151 47.8624C27.3822 47.9047 31.1226 50.2691 31.506 50.5112C31.4241 50.5676 31.3485 50.6666 31.2997 50.7815L31.2174 50.9753C30.8247 50.7273 27.126 48.3893 27.0593 48.347C26.9887 48.3026 26.9887 48.1579 27.0593 48.0238Z" fill="#2B2B2B"/>
<path opacity="0.3" d="M31.3062 50.7662L27.0381 48.0688C27.0443 48.0538 27.0513 48.0389 27.0591 48.0239C27.081 47.9821 27.1075 47.9462 27.1352 47.9185L31.399 50.6134C31.3635 50.6578 31.3315 50.7099 31.3062 50.7662Z" fill="white"/>
<path d="M30.8299 11.5167C30.8876 11.5534 30.9812 11.4941 31.039 11.3844C31.0967 11.2746 31.0967 11.1564 31.039 11.1201C30.9812 11.0838 30.8876 11.1427 30.8299 11.2524C30.7722 11.3617 30.7722 11.4804 30.8299 11.5167Z" fill="#363636"/>
<path d="M30.7752 11.2178C30.8329 11.108 30.9265 11.0491 30.9843 11.0854C31.001 11.0961 31.0392 11.12 31.0392 11.12C30.9815 11.0837 30.8879 11.1426 30.8302 11.2524C30.7725 11.3621 30.7725 11.4803 30.8302 11.5166C30.8302 11.5166 30.7959 11.4949 30.7752 11.482C30.7175 11.4458 30.7175 11.3275 30.7752 11.2178Z" fill="#666666"/>
<path d="M30.495 11.0411C30.5145 11.0043 30.5457 10.9847 30.5649 10.9967C30.5649 10.9967 30.7017 11.0829 30.8164 11.1555C30.8016 11.1738 30.7875 11.1948 30.7755 11.2178C30.763 11.2413 30.754 11.2648 30.747 11.2883C30.6323 11.2157 30.4954 11.129 30.4954 11.129C30.4755 11.1171 30.4755 11.0774 30.495 11.0411Z" fill="#363636"/>
<path opacity="0.1" d="M33.0252 37.4941L27.4951 40.9896L37.2536 47.1603L38.2746 47.162L38.6404 47.0924L43.4209 44.0675L33.0252 37.4941ZM31.2629 42.3733L35.3964 39.7608L35.9373 40.1028L31.8038 42.7153L31.2629 42.3733ZM32.8533 43.3784L36.9868 40.7659L37.5277 41.1078L33.3942 43.7204L32.8533 43.3784ZM34.4437 44.3838L38.5772 41.7713L39.1181 42.1133L34.9846 44.7258L34.4437 44.3838ZM36.575 45.7309L36.034 45.3889L40.1676 42.7764L40.7085 43.1184L36.575 45.7309Z" fill="black"/>
<path d="M33.3432 37.9797L32.9263 37.4819L38.0754 26.1164C38.0871 26.0904 38.1034 26.0716 38.1229 26.0592C38.1877 26.0187 38.2879 26.0545 38.3768 26.1604C38.4919 26.2979 38.5437 26.5011 38.4923 26.6143L33.3432 37.9797Z" fill="#C9C9C9"/>
<path d="M38.5969 26.022C38.508 25.9157 38.4073 25.8798 38.3426 25.9208C38.3235 25.9328 38.1234 26.0596 38.1234 26.0596C38.1882 26.019 38.2884 26.0549 38.3773 26.1608C38.4924 26.2982 38.5442 26.5015 38.4928 26.6146L33.3433 37.98L33.5628 37.8413L38.7119 26.4759C38.7634 26.3627 38.7119 26.1595 38.5969 26.022Z" fill="#A1A1A1"/>
<path d="M42.8156 44.2921L43.2325 44.3211L36.8842 22.2845C36.8331 22.1065 36.6982 21.9557 36.5831 21.9481C36.5566 21.9463 36.5336 21.9519 36.5145 21.9643C36.4498 22.0053 36.4279 22.1188 36.4677 22.2559L42.8156 44.2921Z" fill="#C9C9C9"/>
<path d="M38.0585 26.688C38.0585 26.7871 37.995 26.8268 37.917 26.7777C37.8386 26.7282 37.7754 26.6082 37.7754 26.5091C37.7754 26.4101 37.839 26.3704 37.917 26.4195C37.9953 26.469 38.0585 26.5894 38.0585 26.688Z" fill="#666666"/>
<path d="M37.2506 22.0526C37.1995 21.8745 37.0645 21.7238 36.9495 21.7161C36.9234 21.7144 36.9007 21.72 36.8816 21.7319C36.8165 21.7725 36.5146 21.9638 36.5146 21.9638C36.5338 21.9518 36.5568 21.9458 36.5833 21.9475C36.6983 21.9556 36.8333 22.1064 36.8844 22.284L43.2327 44.3206L43.5989 44.0892L37.2506 22.0526Z" fill="#F7F7F7"/>
<path d="M35.4254 32.7198L32.0176 30.5658L36.1925 27.9272L39.6002 30.0808L35.4254 32.7198Z" fill="#D46D17"/>
<path opacity="0.4" d="M35.0156 29.5447C36.071 28.8778 37.4777 28.6856 38.1582 29.1156C38.8388 29.5455 38.5346 30.4349 37.4792 31.1018C36.4239 31.7686 35.0172 31.9608 34.3367 31.5308C33.6561 31.1009 33.9603 30.2116 35.0156 29.5447Z" fill="black"/>
<path d="M35.4254 33.1887L32.0176 31.0347V30.5659L35.4254 32.7199V33.1887Z" fill="#A14D02"/>
<path d="M32.908 31.2364C32.8526 31.1313 32.7629 31.075 32.7079 31.11C32.6526 31.145 32.5527 31.2078 32.5527 31.2078L32.676 31.636C32.676 31.636 32.8526 31.5246 32.908 31.4896C32.9634 31.4545 32.9634 31.341 32.908 31.2364Z" fill="#303030"/>
<path d="M35.4253 33.1883L39.6002 30.5494V30.0806L35.4253 32.7195V33.1883Z" fill="#BF5902"/>
<path d="M36.1229 35.3697L34.7969 34.5316L38.9718 31.8926L40.2977 32.7307L36.1229 35.3697Z" fill="#D46D17"/>
<path d="M36.1229 35.8305L34.7969 34.9924V34.5317L36.1229 35.3698V35.8305Z" fill="#A14D02"/>
<path d="M36.123 35.8301L40.2979 33.1911V32.7305L36.123 35.3695V35.8301Z" fill="#BF5902"/>
<path d="M37.0965 38.7476L35.7705 37.9095L39.9454 35.2705L41.2714 36.1086L37.0965 38.7476Z" fill="#D46D17"/>
<path d="M37.0965 39.2085L35.7705 38.3704V37.9097L37.0965 38.7478V39.2085Z" fill="#A14D02"/>
<path d="M37.0967 39.2085L41.2716 36.5696V36.1089L37.0967 38.7479V39.2085Z" fill="#BF5902"/>
<path d="M38.0696 42.1251L36.7437 41.287L40.9185 38.6484L42.2445 39.4865L38.0696 42.1251Z" fill="#D46D17"/>
<path d="M38.0696 42.5859L36.7437 41.7478V41.2871L38.0696 42.1252V42.5859Z" fill="#A14D02"/>
<path d="M38.0698 42.5856L42.2447 39.947V39.4863L38.0698 42.1249V42.5856Z" fill="#BF5902"/>
<path d="M39.0433 45.5035L37.7173 44.6653L41.8926 42.0264L43.2186 42.8645L39.0433 45.5035Z" fill="#D46D17"/>
<path d="M39.0433 45.9643L37.7173 45.1262V44.6655L39.0433 45.5036V45.9643Z" fill="#A14D02"/>
<path d="M39.0435 45.9644L43.2187 43.3254V42.8647L39.0435 45.5037V45.9644Z" fill="#BF5902"/>
<path d="M34.0727 36.134L33.781 35.7856L29.6501 38.3964L29.312 39.1432L34.0727 36.134Z" fill="#E3E3E3"/>
<path d="M29.3122 39.1434L34.0728 36.1343L33.9203 36.4711L29.1597 39.4803L29.3122 39.1434Z" fill="#C9C9C9"/>
<path d="M32.7095 24.9229L32.7543 25.0787C32.7543 25.0787 36.7346 22.5631 36.8067 22.5175C36.8789 22.4718 36.8789 22.3241 36.8067 22.187C36.7346 22.0504 36.6176 21.9761 36.5454 22.0218C36.4737 22.0675 32.4922 24.5839 32.4653 24.6006C32.5644 24.6437 32.6662 24.7739 32.7095 24.9229Z" fill="#404040"/>
<path opacity="0.2" d="M32.6921 24.8805L36.8354 22.2616C36.8272 22.2368 36.819 22.212 36.8061 22.1873C36.7936 22.1634 36.7784 22.1442 36.7636 22.1245L32.6211 24.743C32.65 24.784 32.6734 24.8305 32.6921 24.8805Z" fill="white"/>
<path d="M38.2743 47.1627L38.6912 47.1917L32.3428 25.1551C32.2917 24.977 32.1568 24.8268 32.0418 24.8186C32.0152 24.8169 31.9922 24.8229 31.9727 24.8349C31.9084 24.8759 31.8865 24.989 31.9259 25.1261L38.2743 47.1627Z" fill="#E3E3E3"/>
<path d="M34.4584 32.8057C34.4584 32.9043 34.3949 32.9445 34.3169 32.8954C34.2385 32.8458 34.1753 32.7259 34.1753 32.6268C34.1753 32.5278 34.2389 32.488 34.3169 32.5371C34.3949 32.5867 34.4584 32.7071 34.4584 32.8057Z" fill="#666666"/>
<path d="M32.709 24.9231C32.6579 24.7451 32.5229 24.5944 32.4079 24.5867C32.381 24.585 32.3576 24.591 32.3381 24.6038C32.2741 24.6456 31.9727 24.8348 31.9727 24.8348C31.9918 24.8224 32.0152 24.8164 32.0417 24.8185C32.1567 24.8267 32.2917 24.9774 32.3428 25.155L38.6911 47.1916L39.0573 46.9602L32.709 24.9231Z" fill="#F7F7F7"/>
<path d="M28.2157 41.2204L27.7988 40.7226L32.9483 29.3572C32.96 29.3311 32.9764 29.3123 32.9955 29.3C33.0602 29.2594 33.1609 29.2953 33.2494 29.4011C33.3644 29.5386 33.4163 29.7419 33.3652 29.855L28.2157 41.2204Z" fill="#E3E3E3"/>
<path d="M33.4694 29.2627C33.3813 29.1573 33.2815 29.121 33.2167 29.1607C33.1968 29.1727 32.9956 29.3003 32.9956 29.3003C33.0603 29.2598 33.1609 29.2956 33.2495 29.4015C33.3645 29.539 33.4164 29.7422 33.3653 29.8554L28.2158 41.2208L28.4358 41.082L33.5849 29.7166C33.6364 29.6035 33.5845 29.4002 33.4694 29.2627Z" fill="#C9C9C9"/>
<path d="M33.2978 29.6973C33.2978 29.7963 33.2342 29.8361 33.1562 29.787C33.0778 29.7374 33.0146 29.6175 33.0146 29.5184C33.0146 29.4193 33.0782 29.3796 33.1562 29.4287C33.2342 29.4783 33.2978 29.5987 33.2978 29.6973Z" fill="#666666"/>
<path d="M32.3632 31.7591C32.3632 31.8581 32.2996 31.8978 32.2216 31.8487C32.1432 31.7992 32.0801 31.6792 32.0801 31.5802C32.0801 31.4816 32.1432 31.4414 32.2216 31.491C32.3 31.5401 32.3632 31.6605 32.3632 31.7591Z" fill="#666666"/>
<path d="M31.7372 13.247L31.9209 13.1377L31.0017 13.9404C30.983 13.9566 30.9627 13.9715 30.9416 13.9839L30.8929 14.0129C30.8742 14.024 30.8523 14.0343 30.8301 14.039L31.7372 13.247Z" fill="#962121"/>
<path d="M30.6802 13.7791L31.5733 12.9995L31.7371 13.2476L30.8304 14.0396C30.7988 14.046 30.7668 14.04 30.743 14.0041L30.6666 13.888C30.6439 13.8534 30.6498 13.8056 30.6802 13.7791Z" fill="#C92C2C"/>
<path d="M31.737 13.247L31.9207 13.1377L31.7569 12.8896L31.5732 12.9994L31.737 13.247Z" fill="#B22727"/>
<path d="M32.4783 12.6005L32.6623 12.4907L32.4981 12.2427L32.3145 12.352L32.4783 12.6005Z" fill="#B7A771"/>
<path d="M32.3142 12.3516L31.5732 12.9992L31.737 13.2469L32.478 12.6L32.3142 12.3516Z" fill="#EFE1BC"/>
<path d="M31.7373 13.2473L31.921 13.138L32.6624 12.4907L32.4783 12.6005L31.7373 13.2473Z" fill="#D9CCB9"/>
<path d="M32.8901 13.0064L33.0738 12.8971L33.0957 12.8779L32.912 12.9877L32.8901 13.0064Z" fill="#303030"/>
<path d="M32.9118 12.9876L33.0955 12.8779L32.9723 12.4766L32.7886 12.5863L32.9118 12.9876Z" fill="#666666"/>
<path d="M32.347 11.9189L32.1848 12.0607C32.1625 12.0803 32.1579 12.1158 32.1746 12.141L32.3142 12.3519L32.4784 12.5999L32.5857 12.763L32.8899 13.0068L32.9117 12.9876L32.7885 12.5863L32.347 11.9189Z" fill="#363636"/>
<path d="M32.7886 12.5862L32.9723 12.4769L32.5585 11.8514C32.5426 11.8275 32.5133 11.8202 32.4895 11.8343L32.3472 11.9193L32.7886 12.5862Z" fill="#4A4A4A"/>
<path d="M32.7362 12.3761L32.7892 12.3436C32.8056 12.3334 32.8107 12.3099 32.7994 12.2933L32.6722 12.1011C32.6629 12.087 32.6453 12.0828 32.6313 12.0913L32.5782 12.1237C32.5619 12.134 32.5568 12.1575 32.5681 12.1741L32.6952 12.3663C32.7046 12.3803 32.7221 12.3846 32.7362 12.3761Z" fill="#CFBD80"/>
<path d="M33.1074 12.6759C33.1106 12.6686 33.1141 12.6614 33.1199 12.6567C33.1269 12.6507 33.1367 12.6498 33.1457 12.6498C33.2404 12.6498 33.3251 12.7254 33.3683 12.8176C33.3867 12.8561 33.3984 12.897 33.4069 12.9393C33.4066 12.8573 33.4112 12.7758 33.4011 12.6947C33.3878 12.5875 33.3719 12.5282 33.3091 12.4035C33.2755 12.3365 33.2287 12.266 33.2436 12.1913C33.2467 12.1759 33.2525 12.1606 33.2627 12.1495C33.2825 12.1273 33.3141 12.1247 33.3422 12.1264C33.4362 12.132 33.5988 12.1618 33.7291 12.2613C33.882 12.3783 34.02 12.4914 34.1101 12.9154C34.1409 13.0614 34.1343 13.2147 34.1156 13.3633C34.0965 13.5114 34.0462 13.6583 33.9518 13.7667C33.9405 13.7796 33.8738 13.8154 33.8527 13.8184C33.7587 13.8312 33.6593 13.8329 33.5739 13.7881C33.538 13.7693 33.506 13.7428 33.476 13.7142C33.3188 13.5648 33.2162 13.3488 33.1944 13.1221C33.1893 13.0674 33.1882 13.0115 33.1679 12.9615C33.1515 12.921 33.1238 12.8872 33.1074 12.8467C33.0844 12.7933 33.0848 12.7293 33.1074 12.6759Z" fill="#FFCEA1"/>
<path d="M33.351 13.6437C33.4021 13.531 33.4824 13.4328 33.5885 13.3641C33.7106 13.2851 33.8471 13.2573 33.9773 13.2753C34.0374 13.2834 34.0963 13.3013 34.1516 13.3282C34.264 13.3829 34.3623 13.4751 34.4297 13.5993C34.4297 13.5993 35.6321 15.8199 35.6325 15.8207C35.9004 16.316 35.4804 16.9483 34.966 16.8181C34.8033 16.7771 34.661 16.6627 34.576 16.5056L33.3736 14.2846C33.2636 14.0813 33.2625 13.841 33.351 13.6437Z" fill="#D9B9AE"/>
<path d="M34.8754 15.5663C34.567 15.72 34.4305 16.1183 34.5709 16.4565C34.7113 16.7942 35.1835 16.8945 35.492 16.7412L37.3944 15.7353C37.7029 15.5816 37.8394 15.1833 37.699 14.8456C37.5586 14.5079 37.1947 14.3584 36.8859 14.5121L34.8754 15.5663Z" fill="#D9B9AE"/>
<path d="M36.4019 28.9155C36.4019 28.5419 36.8039 28.3353 37.401 28.5086L38.0078 28.3562C38.2087 28.3058 38.3998 28.4728 38.3998 28.6982V29.5739L38.3943 29.5721C38.4025 29.655 38.3612 29.7391 38.261 29.8023C38.0757 29.9193 37.7758 29.9193 37.5906 29.8023L36.5407 29.1388C36.4444 29.0777 36.4007 28.997 36.405 28.9172L36.4019 28.9155Z" fill="black"/>
<path d="M37.9719 24.6192L36.3241 24.6431L36.3233 24.6034L36.298 22.5263L36.2656 19.892L37.8326 19.8677C37.8326 19.8677 38.097 20.4026 38.097 21.3876C38.097 22.2321 37.9457 22.7338 37.9668 24.2341L37.9719 24.6192Z" fill="#0258BF"/>
<path d="M36.3244 24.604C36.3592 24.2795 36.5756 23.7257 36.8654 23.6467C37.1052 23.5814 37.3532 23.7014 37.567 23.838C37.7187 23.9349 37.879 24.4562 37.9722 24.6193C37.9874 25.4049 38.2046 26.9543 38.4792 28.6395C38.492 28.7701 38.4257 28.9102 38.2779 29.0285C37.9819 29.265 37.4706 29.3252 37.1352 29.1629C36.9675 29.0818 36.8759 28.9601 36.8634 28.8295C36.801 28.648 36.2897 24.9285 36.3244 24.604Z" fill="#0258BF"/>
<path d="M38.3063 27.5443L38.2536 27.1934C38.2681 27.3253 38.2154 27.4628 38.0672 27.584C37.7708 27.8265 37.2553 27.8936 36.9152 27.7339C36.751 27.6566 36.6633 27.5405 36.6445 27.4137L36.6921 27.7522C36.7112 27.8867 36.7916 28.005 36.9616 28.0848C37.3017 28.2445 37.8176 28.1775 38.1136 27.935C38.2618 27.8137 38.327 27.6797 38.3063 27.5443Z" fill="#FFC50C"/>
<path opacity="0.2" d="M37.0907 22.2168C36.7109 22.7407 36.462 24.112 36.4597 26.0073C36.4113 25.521 36.3481 25.3139 36.3232 24.603L36.2979 22.5259C36.5837 22.5259 36.87 22.4166 37.0907 22.2168Z" fill="#1D1D1B"/>
<path d="M34.2637 30.2793C34.2637 29.9057 34.6657 29.6991 35.2628 29.872L35.7612 29.7469C36.0175 29.6825 36.2616 29.8955 36.2616 30.1833V30.9373L36.2561 30.9356C36.2643 31.0184 36.223 31.1025 36.1228 31.1657C35.9375 31.2827 35.6376 31.2827 35.4524 31.1657L34.4025 30.5022C34.3058 30.4411 34.2625 30.3605 34.2668 30.2806L34.2637 30.2793Z" fill="black"/>
<path d="M35.0205 20.7097L34.5439 25.4331L36.1818 25.6312L36.6584 20.9077L35.0205 20.7097Z" fill="#0258BF"/>
<path d="M34.5324 25.4765C34.5909 25.1559 34.8335 24.9117 35.1283 24.8587C35.3725 24.8147 35.6108 24.9565 35.8136 25.111C35.9575 25.2212 36.0928 25.465 36.1735 25.6358C36.1139 26.558 36.2621 28.5693 36.3482 30.0551C36.3404 30.1862 36.2535 30.3117 36.0893 30.4005C35.7605 30.5781 35.2473 30.541 34.9427 30.3185C34.7902 30.2071 34.7192 30.0705 34.727 29.939C34.6779 29.7533 34.4739 25.7967 34.5324 25.4765Z" fill="#0258BF"/>
<path d="M36.2581 28.5673C36.2569 28.7039 36.1899 28.8388 36.0284 28.9413C35.7059 29.1462 35.1856 29.1407 34.867 28.928C34.713 28.8256 34.6381 28.7073 34.6299 28.563L34.6498 28.9199C34.658 29.0617 34.7126 29.1868 34.8728 29.2931C35.1938 29.5057 35.7176 29.5117 36.0424 29.3063C36.2051 29.2038 36.2854 29.074 36.2796 28.937L36.2581 28.5673Z" fill="#FFC50C"/>
<path d="M37.8968 20.159C38.0029 21.0262 34.9937 22.1661 34.9664 21.1359C34.9212 19.4375 34.7484 18.6813 34.6813 17.6823C34.6072 16.7648 34.5483 16.0257 34.5483 16.0257C34.6899 15.6073 34.9582 15.2615 35.9418 14.7833C36.4886 14.5173 36.7436 14.4746 37.1438 14.493C37.8738 14.5267 37.9429 15.4993 37.9678 16.1081C37.9955 16.7746 37.9124 17.412 37.8617 18.0725C37.8087 18.7676 37.8379 19.4657 37.8968 20.159Z" fill="#0258BF"/>
<path d="M35.4018 15.6188C35.9267 15.9262 35.8382 16.6388 35.8424 17.2771C35.8467 17.9153 35.4275 17.9709 34.9595 17.806C34.86 17.7719 34.7372 17.7301 34.683 17.6818C34.6085 16.7656 34.5488 16.0252 34.5488 16.0252C34.5921 15.8976 34.651 15.7763 34.7345 15.6559C34.91 15.5261 35.1342 15.4625 35.4018 15.6188Z" fill="#E4C6BB"/>
<path opacity="0.1" d="M35.492 16.8831C35.29 16.9463 35.0529 17.068 34.9215 17.1837C34.79 17.2994 34.6633 17.4539 34.6832 17.6828L34.6021 16.6846L35.492 16.8831Z" fill="#1D1D1B"/>
<path d="M35.0186 15.3511C35.2245 15.1756 35.5123 14.9925 35.9421 14.7833C36.2618 14.6279 36.481 14.5536 36.6885 14.5186C36.7302 14.5425 36.7716 14.5672 36.8153 14.5869C37.2384 14.7747 37.4217 15.1658 37.4946 15.5569C37.5301 15.7477 37.4408 15.9407 37.2868 16.0381L36.9857 16.2285C36.6885 16.4164 36.2899 16.3143 36.0996 16.0013L35.9955 15.8301C35.7814 15.48 35.4842 15.2849 35.1012 15.3293C35.0728 15.3323 35.0462 15.3443 35.0186 15.3511Z" fill="#E4C6BB"/>
<path d="M36.6069 13.2495C36.5972 13.4481 36.587 13.6479 36.5461 13.8417C36.5051 14.0355 36.4314 14.2247 36.3082 14.3711C36.1693 14.5355 35.9701 14.6341 35.7665 14.6465C35.7025 14.6508 35.6386 14.6465 35.5754 14.6328C35.5126 14.6192 35.4502 14.5966 35.3987 14.5551C35.318 14.4911 35.2724 14.3895 35.2396 14.2845V14.284C35.2322 14.2605 35.2256 14.2371 35.2193 14.2136C35.1456 13.9361 35.1039 13.65 35.0852 13.361C35.0789 13.2645 35.1222 13.197 35.1206 13.1001C35.1195 13.0267 35.0731 12.9238 35.0742 12.8508C35.0762 12.7479 35.0801 12.645 35.0863 12.5425C35.091 12.4597 35.0972 12.3751 35.121 12.2957C35.1912 12.0613 35.4108 11.9068 35.6347 11.8765C35.8585 11.8461 36.0839 11.9204 36.2879 12.0259C36.3437 12.0549 36.3998 12.0869 36.4443 12.1339C36.4868 12.1787 36.5172 12.2351 36.5566 12.2838C36.605 12.3431 36.6217 12.9507 36.6069 13.2495Z" fill="#FFCEA1"/>
<path opacity="0.1" d="M35.8048 14.1781C35.8052 14.298 35.8025 14.4176 35.7998 14.5376C35.799 14.5632 35.7986 14.5901 35.7889 14.6136C35.7838 14.6264 35.7756 14.6375 35.7666 14.6464C35.7027 14.6507 35.6387 14.6464 35.5755 14.6328C35.5127 14.6191 35.4504 14.5965 35.3989 14.5551C35.3181 14.491 35.2725 14.3894 35.2397 14.2844V14.2839C35.4503 14.5064 35.5853 14.3168 35.6348 13.6841C35.6707 13.98 35.8048 13.8788 35.8048 14.1781Z" fill="#1D1D1B"/>
<path d="M36.9041 13.1465V14.9452C36.9041 15.0481 36.8421 15.151 36.7181 15.2296C36.47 15.3867 36.0683 15.3867 35.8203 15.2296C35.6963 15.151 35.6343 15.0481 35.6343 14.9452V13.1465H36.9041Z" fill="#FFCEA1"/>
<path opacity="0.1" d="M36.9041 14.4063C36.9041 14.5084 36.8503 14.6023 36.7645 14.6424C36.6288 14.706 36.4685 14.7398 36.3562 14.7415C36.2048 14.7436 36.0461 14.7355 35.9158 14.6514C35.7622 14.5519 35.6721 14.4102 35.6343 14.2313V13.8018H36.9037V14.4063H36.9041Z" fill="#1D1D1B"/>
<path d="M35.3482 12.7245C35.535 12.8432 35.6192 13.0661 35.6391 13.3013C35.659 13.537 35.627 13.7748 35.6461 14.0105C35.6652 14.2462 35.7592 14.4276 35.9453 14.548C36.0755 14.6321 36.2342 14.6402 36.3856 14.6381C36.5837 14.6351 36.9315 14.5326 37.0298 14.3418C37.9759 11.8753 36.5575 11.6652 36.1952 11.6388C35.5588 11.5922 34.7842 12.0136 35.0849 12.5618C35.1309 12.6455 35.2842 12.6835 35.3482 12.7245Z" fill="#2F2F2F"/>
<path d="M35.6878 13.1466C35.618 13.1496 35.5661 13.2128 35.5443 13.273C35.517 13.3485 35.517 13.4279 35.5178 13.5061C35.5186 13.6051 35.5201 13.708 35.5689 13.7947C35.5817 13.8178 35.5997 13.8408 35.6266 13.8502C35.6672 13.8643 35.7171 13.8429 35.7452 13.8105C35.7732 13.778 35.7845 13.7371 35.7931 13.6978C35.8185 13.5834 35.831 13.4672 35.8306 13.3519C35.8302 13.3058 35.8278 13.2584 35.806 13.2179C35.7845 13.1769 35.7393 13.1444 35.6878 13.1466Z" fill="#FFCEA1"/>
<path d="M35.4918 16.8831L32.7455 16.9305C32.662 16.9322 32.5821 16.9155 32.5088 16.884C32.3181 16.8011 32.1734 16.6171 32.1324 16.3913C32.1254 16.3524 32.1215 16.3118 32.1207 16.2704C32.1172 16.0723 32.1929 15.8922 32.3157 15.7666C32.4226 15.6573 32.5653 15.589 32.7229 15.586L35.0812 15.5391C35.6829 15.5391 36.0105 16.8758 35.4918 16.8831Z" fill="#E4C6BB"/>
<path d="M31.6795 13.4504C31.7099 13.3441 31.7321 13.3061 31.7711 13.2489C31.8027 13.2028 31.8425 13.1511 31.8932 13.137C31.9213 13.1293 31.9614 13.1481 31.9806 13.1716C32.004 13.2002 31.993 13.245 31.9806 13.2809C31.9568 13.3505 31.933 13.4205 31.9088 13.4901C31.8823 13.5674 31.8257 13.6686 31.807 13.7851C31.7415 13.7142 31.6518 13.5473 31.6795 13.4504Z" fill="#FFCEA1"/>
<path d="M31.1971 14.2613C31.4155 14.354 31.4666 14.2229 31.6199 14.111C31.6928 14.0577 31.747 13.9245 31.7872 13.8391C31.8352 13.7375 31.8223 13.6119 31.7794 13.5078C31.7361 13.4036 31.6655 13.3165 31.5961 13.2311C31.5489 13.1726 31.4881 13.0458 31.4397 12.9882C31.3032 12.8259 31.1706 13.045 31.109 13.0915C31.0474 13.1376 30.9737 13.2042 30.8855 13.3033C30.8313 13.3639 30.758 13.5577 30.7892 13.6837C30.811 13.7721 30.8543 13.8882 30.9054 13.9736C31.0251 14.1734 31.0782 14.211 31.1971 14.2613Z" fill="#FFCEA1"/>
<path d="M32.2178 16.6152L31.1917 14.8249C31.012 14.5103 30.9788 14.3058 31.1578 14.1205C31.1578 14.1205 31.8395 13.3797 32.1562 13.974L33.2583 15.9013V15.9017C33.3851 16.1233 33.3796 16.3948 33.2642 16.6049C33.2158 16.6929 33.1484 16.7697 33.0637 16.8278C32.7767 17.025 32.3976 16.9298 32.2178 16.6152Z" fill="#E4C6BB"/>
<path d="M34.7869 11.5309C34.9713 11.4251 35.1835 11.3324 35.4424 11.3905C35.7014 11.4485 35.6928 11.4746 36.2899 11.7769L35.5727 13.1166L34.5236 12.5565C34.2011 12.3784 34.3719 11.7692 34.7869 11.5309Z" fill="#186FD9"/>
<path d="M35.2514 12.9237C35.4202 13.0778 35.6383 13.1995 35.8734 13.2785C36.3071 13.4245 36.7731 13.3724 37.0602 13.2093C37.4357 12.9958 37.4935 12.8246 37.4116 12.3144C37.3308 11.8102 36.8593 11.3205 36.5001 11.2735C36.0645 11.2167 35.5435 11.3299 35.3224 11.7201C35.0256 12.2436 34.9936 12.46 35.0813 12.6731C35.127 12.7845 35.1956 12.8648 35.2514 12.9237Z" fill="#0258BF"/>
<path d="M36.8396 13.1858C36.8653 13.1811 36.8813 13.1768 36.9016 13.1704C36.95 13.155 36.9964 13.1337 37.0416 13.1093C37.1263 13.0641 37.2074 13.0056 37.2713 12.9292C37.2834 12.9142 37.2967 12.9001 37.3057 12.8822C37.3177 12.8574 37.3135 12.8237 37.3123 12.7964C37.3111 12.7725 37.3084 12.7486 37.3018 12.7255C37.2924 12.6922 37.2745 12.6606 37.2452 12.6452C37.191 12.6166 37.1247 12.647 37.0771 12.6777C37.065 12.6854 37.0533 12.6931 37.0412 12.6999C36.9075 12.7793 36.8053 12.9497 36.8057 13.1409C36.8053 13.1691 36.8143 13.1905 36.8396 13.1858Z" fill="#2F2F2F"/>
<path opacity="0.1" d="M35.4933 12.019C35.4126 12.3508 35.3907 12.589 35.4223 12.7726C35.4586 12.9848 35.5713 13.1248 35.8291 13.2636C35.6111 13.1842 35.4094 13.0685 35.2515 12.9242C35.1981 12.8678 35.1329 12.7914 35.0869 12.6872C35.2609 12.8529 35.3408 12.4528 35.4933 12.019Z" fill="black"/>
<path d="M18.1274 17.9122C18.1469 17.8754 18.1781 17.8558 18.1972 17.8678C18.1972 17.8678 18.3341 17.954 18.4488 18.0266C18.434 18.0449 18.4199 18.0659 18.4078 18.0889C18.3953 18.1124 18.3864 18.1359 18.3794 18.1594C18.2647 18.0868 18.1274 18.0001 18.1274 18.0001C18.1079 17.9886 18.1079 17.9489 18.1274 17.9122Z" fill="#363636"/>
<path d="M15.1626 21.1624C15.1365 21.1624 15.1108 21.1505 15.0916 21.1274C15.0577 21.0847 15.0612 21.0194 15.0998 20.9818L18.0162 18.1635C18.2085 17.9782 18.4128 17.8497 18.6074 17.7916L21.5238 16.9232C21.5733 16.9079 21.626 16.9407 21.6397 16.9954C21.6529 17.0504 21.6237 17.1072 21.5733 17.1222L18.657 17.9906C18.4897 18.0405 18.3114 18.1537 18.1406 18.3181L15.2246 21.1364C15.2071 21.1539 15.1845 21.1624 15.1626 21.1624Z" fill="#404040"/>
<path d="M18.4622 18.3885C18.52 18.4248 18.6135 18.3658 18.6713 18.2561C18.729 18.1464 18.729 18.0281 18.6713 17.9918C18.6135 17.9551 18.52 18.0145 18.4622 18.1242C18.4045 18.2339 18.4045 18.3517 18.4622 18.3885Z" fill="#363636"/>
<path d="M18.4075 18.0889C18.4653 17.9791 18.5589 17.9202 18.6166 17.9565C18.6334 17.9672 18.6716 17.9911 18.6716 17.9911C18.6139 17.9544 18.5203 18.0137 18.4625 18.1234C18.4048 18.2332 18.4048 18.3514 18.4625 18.3877C18.4625 18.3877 18.4282 18.366 18.4075 18.3531C18.3498 18.3169 18.3498 18.1986 18.4075 18.0889Z" fill="#666666"/>
<path opacity="0.5" d="M13.3154 22.2783L13.3162 31.5094L23.1316 25.3058L23.1308 16.0747L13.3154 22.2783Z" fill="black"/>
<path d="M13.7867 22.0901L13.5796 21.9595L13.5804 30.9216L13.7875 31.0522L13.7867 22.0901Z" fill="#A14D02"/>
<path d="M23.1095 15.9365L13.5796 21.9595L13.7867 22.0902L23.3162 16.0672L23.1095 15.9365Z" fill="#BF5902"/>
<path d="M13.7866 22.0904L13.7874 31.0525L23.3169 25.0295L23.3161 16.0674L13.7866 22.0904Z" fill="#D46D17"/>
<path d="M14.3169 22.4256L14.04 22.251L14.0404 30.568L14.3169 29.5493V22.4256Z" fill="#A14D02"/>
<path d="M22.3954 24.4438L14.317 29.5493L14.0405 30.568L23.0627 24.8657L22.3954 24.4438Z" fill="#BF5902"/>
<path d="M22.3949 17.3198L23.0626 16.5483L14.04 22.2507L14.3169 22.4253L22.3949 17.3198Z" fill="#914502"/>
<path d="M22.395 17.3198L22.3954 24.4435L23.0627 24.8653V16.5483L22.395 17.3198Z" fill="#A14D02"/>
<path d="M14.3169 29.549L22.3952 24.4435L22.3948 17.3198L14.3169 22.4253V29.549Z" fill="#D9CCB9"/>
<path d="M22.9752 35.4956L24.6663 44.4522L23.9982 44.0525L22.5845 36.5643L22.9752 35.4956Z" fill="#A14D02"/>
<path d="M23.9985 44.0527L24.6665 44.4524L15.0181 50.5505L15.412 49.4801L23.9985 44.0527Z" fill="#BF5902"/>
<path d="M22.5846 36.5645L23.9983 44.0527L15.4118 49.4801L13.998 41.9914L22.5846 36.5645Z" fill="#E3D6C1"/>
<path d="M13.3271 41.5942L13.9979 41.9913L15.4117 49.48L15.0178 50.5504L13.3271 41.5942Z" fill="#A14D02"/>
<path d="M13.1226 41.4727L23.0986 35.1675L24.8739 44.5715L14.8978 50.8767L13.1226 41.4727ZM24.6664 44.4524L22.9754 35.4958L13.3273 41.5939L15.0183 50.5505L24.6664 44.4524Z" fill="#D46D17"/>
<path d="M22.9752 35.4956L22.5844 36.5643L13.9979 41.9912L13.3271 41.5942L22.9752 35.4956Z" fill="#914502"/>
<path d="M13.1224 41.4728L12.9302 41.416L22.9062 35.1104L23.0985 35.1676L13.1224 41.4728Z" fill="#984902"/>
<path d="M14.8977 50.8772L14.7054 50.82L12.9302 41.416L13.1224 41.4728L14.8977 50.8772Z" fill="#A14D02"/>
<path opacity="0.2" d="M14.3329 48.8311L12.5557 49.9544L14.7053 50.8198L14.3329 48.8311Z" fill="black"/>
<path opacity="0.5" d="M12.9445 41.416L12.5557 49.9546L14.3329 48.8313L12.9445 41.416Z" fill="black"/>
</svg>
