<svg width="52" height="55" viewBox="0 0 52 55" fill="none" xmlns="http://www.w3.org/2000/svg">
<path d="M26.7417 53.4481V54.8872L51.2135 39.4195V37.9805L26.7417 53.4481Z" fill="#DEBE97"/>
<path d="M0 36.5454V37.9845L26.7419 54.8871V53.448L0 36.5454Z" fill="#CAA58B"/>
<path d="M0 36.5458L26.7419 53.4484L51.2137 37.9808L24.4718 21.0781L0 36.5458Z" fill="#EFE1BC"/>
<path opacity="0.5" d="M24.4718 21.0781L0 36.5458L12.4533 41.7896L32.7679 28.9494V26.322L24.4718 21.0781Z" fill="black"/>
<path d="M12.4531 13.7769L11.2075 12.9892L31.5221 0.149414L32.7677 0.936628L12.4531 13.7769Z" fill="#FFE138"/>
<path d="M12.4531 41.7896L11.2075 41.0024V12.9893L12.4531 13.7769V41.7896Z" fill="#F09300"/>
<path d="M12.4531 41.7895V13.7768L32.7677 0.936523V28.9492L12.4531 41.7895Z" fill="#FFBB00"/>
<path d="M22.3315 29.4526V35.5532L22.9398 35.1567L22.9402 29.8374L22.3315 29.4526Z" fill="#E08A00"/>
<path d="M29.8698 23.8111C30.0246 24.0632 29.9839 24.5393 29.749 24.9849C29.4652 25.5232 29.0051 25.8139 28.7208 25.6349C28.6681 25.6013 28.625 25.5541 28.5918 25.4955V24.6378C28.625 24.5375 29.8378 23.7589 29.8698 23.8111Z" fill="#C27800"/>
<path d="M28.5919 25.4956L22.3311 29.4526L22.9398 29.8373L29.2002 25.8799L28.5919 25.4956Z" fill="#F09300"/>
<path d="M30.3573 24.07C30.2436 23.9982 30.1013 24.0018 29.9532 24.0668C29.9868 24.3248 29.9187 24.6623 29.7486 24.9848C29.5175 25.4227 29.1698 25.6966 28.8955 25.6871L29.2001 25.8797C29.2333 25.9383 29.2764 25.9855 29.3291 26.0191C29.6129 26.1986 30.0731 25.9078 30.3573 25.3696C30.6411 24.8313 30.6411 24.2494 30.3573 24.07Z" fill="#E08A00"/>
<path d="M29.9868 24.0493L29.1274 24.5926L29.4133 24.7734L30.2727 24.2301L29.9868 24.0493Z" fill="#DBCFA5"/>
<path d="M29.1274 24.5928V25.6789L29.4133 25.8597V24.7736L29.1274 24.5928Z" fill="#C7BB95"/>
<path d="M30.2724 25.3166L29.4131 25.8599V24.7738L30.2724 24.2305V25.3166Z" fill="#E4DBB4"/>
<path d="M29.7314 25.1159C29.7314 25.1672 29.6986 25.2294 29.6579 25.2553C29.6172 25.2808 29.5845 25.2603 29.5845 25.209C29.5845 25.1577 29.6172 25.0954 29.6579 25.07C29.6986 25.0437 29.7314 25.0646 29.7314 25.1159Z" fill="#3B3B3B"/>
<path d="M30.1015 24.8818C30.1015 24.9332 30.0687 24.9954 30.028 25.0208C29.9874 25.0467 29.9546 25.0258 29.9546 24.9745C29.9546 24.9232 29.9874 24.8609 30.028 24.835C30.0687 24.8096 30.1015 24.8305 30.1015 24.8818Z" fill="#3B3B3B"/>
<path d="M29.2245 24.9715C29.1316 24.7953 28.9805 24.6999 28.8876 24.7585C28.7946 24.8171 22.1528 29.0153 22.1528 29.0153L22.4898 29.6539C22.4898 29.6539 29.1316 25.4558 29.2245 25.3972C29.3174 25.3386 29.3174 25.1478 29.2245 24.9715Z" fill="#3B3B3B"/>
<path d="M22.4896 29.2284C22.5826 29.4046 22.5826 29.5954 22.4896 29.6544C22.3967 29.713 22.2457 29.6181 22.1527 29.4414C22.0598 29.2652 22.0598 29.0744 22.1527 29.0153C22.2457 28.9567 22.3967 29.0521 22.4896 29.2284Z" fill="#2B2B2B"/>
<path d="M27.3528 25.7856L27.0947 25.6226V25.6943L27.3528 25.8574C27.4864 25.9419 27.5951 26.1481 27.5951 26.3167C27.5951 26.4311 27.5453 26.4997 27.4715 26.5056L27.3856 26.5601C27.4557 26.5947 27.5184 26.5942 27.5653 26.5638C27.6188 26.5292 27.652 26.4561 27.652 26.3525C27.6516 26.1445 27.5175 25.8901 27.3528 25.7856Z" fill="#C7BB95"/>
<path d="M27.5642 26.4473L27.4717 26.5059C27.5103 26.5027 27.5422 26.4827 27.5642 26.4473Z" fill="#8A8A8A"/>
<path d="M27.4661 25.7139L27.208 25.5508L27.0947 25.6226L27.3528 25.7856C27.5175 25.8897 27.652 26.144 27.652 26.3525C27.652 26.4561 27.6188 26.5292 27.5653 26.5638C27.5653 26.5638 27.6238 26.527 27.6777 26.4924C27.7321 26.4584 27.7653 26.3848 27.7653 26.2808C27.7653 26.0727 27.6308 25.8183 27.4661 25.7139Z" fill="#E4DBB4"/>
<path d="M24.3103 27.708L24.0522 27.5449V27.6167L24.3103 27.7798C24.4439 27.8643 24.5527 28.0705 24.5527 28.239C24.5527 28.3535 24.5029 28.4221 24.429 28.428L24.3431 28.4825C24.4132 28.517 24.4759 28.5166 24.5228 28.4861C24.5763 28.4516 24.6095 28.3785 24.6095 28.2749C24.6091 28.0669 24.4751 27.8125 24.3103 27.708Z" fill="#C7BB95"/>
<path d="M24.5217 28.3696L24.4292 28.4282C24.4678 28.425 24.4997 28.4051 24.5217 28.3696Z" fill="#8A8A8A"/>
<path d="M24.4236 27.6362L24.1655 27.4731L24.0522 27.5449L24.3103 27.708C24.4751 27.812 24.6091 28.0664 24.6091 28.2749C24.6091 28.3785 24.5759 28.4516 24.5224 28.4861C24.5224 28.4861 24.5809 28.4493 24.6348 28.4148C24.6887 28.3807 24.7224 28.3071 24.7224 28.2031C24.7228 27.9951 24.5883 27.7407 24.4236 27.6362Z" fill="#E4DBB4"/>
<path d="M30.9971 22.9277V25.7218L22.9399 30.8149V29.8373L29.2008 25.8804C29.234 25.939 29.2772 25.9862 29.3299 26.0198C29.6137 26.1992 30.0738 25.9081 30.3581 25.3702C30.6419 24.8319 30.6419 24.2501 30.3581 24.0706C30.0743 23.8912 29.6141 24.1824 29.3299 24.7202C29.2772 24.8206 29.234 24.9223 29.2008 25.0227L22.9399 28.9797V28.0208L30.9971 22.9277Z" fill="#FFBB00"/>
<path d="M22.3315 28.595V25.2481L22.9402 24.8638V28.9797L22.3315 28.595Z" fill="#E08A00"/>
<path d="M22.2334 30.1497C22.0475 30.1497 21.8965 30.0543 21.8965 29.9366C21.8965 29.819 21.8965 24.9131 21.8965 24.9131H22.5703C22.5703 24.9131 22.5703 29.819 22.5703 29.9366C22.5703 30.0543 22.4197 30.1497 22.2334 30.1497Z" fill="#3B3B3B"/>
<path d="M22.2334 25.1258C22.4193 25.1258 22.5703 25.0304 22.5703 24.9128C22.5703 24.7951 22.4193 24.6997 22.2334 24.6997C22.0475 24.6997 21.8965 24.7951 21.8965 24.9128C21.8969 25.0304 22.0475 25.1258 22.2334 25.1258Z" fill="#3B3B3B"/>
<path d="M22.3748 24.8773C22.4211 24.8773 22.4586 24.8535 22.4586 24.8241C22.4586 24.7948 22.4211 24.771 22.3748 24.771C22.3285 24.771 22.291 24.7948 22.291 24.8241C22.291 24.8535 22.3285 24.8773 22.3748 24.8773Z" fill="#FFA535"/>
<path d="M22.2628 24.7772C22.2748 24.8054 22.2483 24.8344 22.2035 24.8421C22.1586 24.8499 22.1126 24.8331 22.1006 24.8044C22.0885 24.7763 22.1151 24.7472 22.1599 24.7395C22.2047 24.7322 22.2508 24.749 22.2628 24.7772Z" fill="#FFA535"/>
<path d="M22.0619 24.8288C22.1067 24.8366 22.1332 24.8656 22.1212 24.8938C22.1092 24.922 22.0631 24.9388 22.0183 24.9315C21.9735 24.9238 21.9469 24.8947 21.959 24.8665C21.9714 24.8384 22.017 24.8216 22.0619 24.8288Z" fill="#FFA535"/>
<path d="M22.0921 25.0555C22.1384 25.0555 22.1759 25.0317 22.1759 25.0024C22.1759 24.973 22.1384 24.9492 22.0921 24.9492C22.0458 24.9492 22.0083 24.973 22.0083 25.0024C22.0083 25.0317 22.0458 25.0555 22.0921 25.0555Z" fill="#FFA535"/>
<path d="M22.2041 25.0488C22.192 25.0206 22.2186 24.9915 22.2634 24.9838C22.3082 24.9761 22.3543 24.9929 22.3663 25.0215C22.3783 25.0501 22.3518 25.0787 22.307 25.0865C22.2617 25.0937 22.2161 25.0774 22.2041 25.0488Z" fill="#FFA535"/>
<path d="M22.4045 24.9972C22.3597 24.9894 22.3331 24.9604 22.3452 24.9322C22.3572 24.904 22.4033 24.8872 22.4481 24.8949C22.4929 24.9027 22.5195 24.9317 22.5074 24.9599C22.4954 24.9881 22.4493 25.0049 22.4045 24.9972Z" fill="#FFA535"/>
<path d="M21.9417 27.2272L21.6836 27.0642L21.7404 27.0283L21.9985 27.1913C22.1321 27.2758 22.3496 27.2758 22.4832 27.1913C22.5736 27.1341 22.6027 27.0523 22.5707 26.9797V26.8711C22.633 26.9202 22.6641 26.9801 22.6637 27.0396C22.6632 27.1078 22.6222 27.1754 22.54 27.2272C22.3749 27.3317 22.1064 27.3317 21.9417 27.2272Z" fill="#F7F2D5"/>
<path d="M22.5703 27.0972V26.98C22.5873 27.0181 22.5873 27.0586 22.5703 27.0972Z" fill="#8A8A8A"/>
<path d="M21.9417 27.3707L21.6836 27.2076V27.0641L21.9417 27.2272C22.1064 27.3312 22.3749 27.3312 22.5396 27.2272C22.6218 27.1754 22.6628 27.1072 22.6632 27.0396C22.6632 27.0396 22.6632 27.1131 22.6632 27.1817C22.6632 27.2503 22.6222 27.3185 22.5396 27.3707C22.3749 27.4752 22.1064 27.4752 21.9417 27.3707Z" fill="#E4DBB4"/>
<path d="M22.2618 25.2925L21.5029 25.7717V28.9288L22.2618 28.4491V25.2925Z" fill="#FFBB00"/>
<path d="M22.2611 35.5853C22.2611 35.5853 21.896 35.6394 21.896 35.5217C21.896 35.4041 21.896 29.8809 21.896 29.8809H22.5698V35.3973L22.2611 35.5853Z" fill="#3B3B3B"/>
<path d="M21.9412 34.8078L21.6831 34.6447L21.74 34.6088L21.998 34.7719C22.1316 34.8564 22.3491 34.8564 22.4827 34.7719C22.5731 34.7147 22.6022 34.6329 22.5702 34.5602V34.4517C22.6325 34.5007 22.6636 34.5607 22.6632 34.6202C22.6628 34.6883 22.6217 34.756 22.5395 34.8078C22.3744 34.9123 22.1059 34.9123 21.9412 34.8078Z" fill="#F7F2D5"/>
<path d="M22.5698 34.6773V34.5601C22.5868 34.5987 22.5868 34.6391 22.5698 34.6773Z" fill="#8A8A8A"/>
<path d="M21.9412 34.9518L21.6831 34.7887V34.6451L21.9412 34.8082C22.1059 34.9122 22.3744 34.9122 22.5391 34.8082C22.6213 34.7564 22.6623 34.6883 22.6628 34.6206C22.6628 34.6206 22.6628 34.6942 22.6628 34.7628C22.6628 34.8314 22.6217 34.8995 22.5391 34.9518C22.3744 35.0558 22.1059 35.0558 21.9412 34.9518Z" fill="#E4DBB4"/>
<path d="M21.9412 31.6579L21.6831 31.4948L21.74 31.4589L21.998 31.622C22.1316 31.7065 22.3491 31.7065 22.4827 31.622C22.5731 31.5648 22.6022 31.483 22.5702 31.4103V31.3018C22.6325 31.3508 22.6636 31.4103 22.6632 31.4703C22.6628 31.5384 22.6217 31.6061 22.5395 31.6579C22.3744 31.7619 22.1059 31.7619 21.9412 31.6579Z" fill="#F7F2D5"/>
<path d="M22.5698 31.5274V31.4102C22.5868 31.4483 22.5868 31.4892 22.5698 31.5274Z" fill="#8A8A8A"/>
<path d="M21.9412 31.8009L21.6831 31.6378V31.4943L21.9412 31.6573C22.1059 31.7614 22.3744 31.7614 22.5391 31.6573C22.6213 31.6055 22.6623 31.5374 22.6628 31.4697C22.6628 31.4697 22.6628 31.5433 22.6628 31.6119C22.6628 31.6805 22.6217 31.7486 22.5391 31.8009C22.3744 31.9054 22.1059 31.9054 21.9412 31.8009Z" fill="#E4DBB4"/>
<path d="M22.2614 31.2437L21.5029 31.7229V36.0651L22.2614 35.5854V31.2437Z" fill="#FFBB00"/>
<path d="M15.872 33.226C15.8193 33.1924 15.7599 33.1756 15.6973 33.1733L16.001 33.3655C15.9678 33.3069 15.9246 33.2596 15.872 33.226Z" fill="#6CA66F"/>
<path d="M15.8719 33.2259C15.5881 33.0464 15.1279 33.3372 14.8437 33.8754C14.5599 34.4137 14.5599 34.9956 14.8437 35.1751C15.1275 35.3545 15.5877 35.0638 15.8719 34.5255C15.9246 34.4251 15.9678 34.3233 16.001 34.2229V33.3653C15.9678 33.3067 15.9246 33.2595 15.8719 33.2259Z" fill="#5E9160"/>
<path d="M21.6531 29.8813L15.3926 33.8383L16.0009 34.2231L22.2618 30.2661L21.6531 29.8813Z" fill="#F09300"/>
<path d="M15.3927 33.8384C15.3596 33.9388 15.3164 34.0405 15.2637 34.1409C15.0936 34.4634 14.8604 34.6969 14.6396 34.7937C14.6621 34.9663 14.7301 35.103 14.8442 35.1752C15.128 35.3547 15.5882 35.0639 15.8724 34.5257C15.9251 34.4253 15.9683 34.3235 16.0015 34.2231L15.3927 33.8384Z" fill="#E08A00"/>
<path d="M22.0624 29.4989C21.9695 29.3226 21.8185 29.2272 21.7255 29.2858C21.6326 29.3449 15.2949 33.3504 15.2949 33.3504L15.6318 33.9891C15.6318 33.9891 21.9695 29.9835 22.0624 29.9245C22.1554 29.8659 22.1554 29.6751 22.0624 29.4989Z" fill="#3B3B3B"/>
<path d="M15.6317 33.5638C15.7247 33.7401 15.7247 33.9309 15.6317 33.9899C15.5388 34.0485 15.3878 33.9536 15.2948 33.7769C15.2019 33.6006 15.2019 33.4099 15.2948 33.3508C15.3878 33.2922 15.5384 33.3871 15.6317 33.5638Z" fill="#2B2B2B"/>
<path d="M20.1902 30.313L19.9321 30.1499V30.2217L20.1902 30.3847C20.3238 30.4692 20.4325 30.6755 20.4325 30.844C20.4325 30.9585 20.3827 31.0271 20.3089 31.033L20.223 31.0875C20.2931 31.122 20.3558 31.1215 20.4027 31.0911C20.4562 31.0566 20.4894 30.9835 20.4894 30.8799C20.4894 30.6714 20.3554 30.4175 20.1902 30.313Z" fill="#C7BB95"/>
<path d="M20.4016 30.9741L20.3091 31.0327C20.3473 31.0295 20.3796 31.0091 20.4016 30.9741Z" fill="#C7BB95"/>
<path d="M20.304 30.2412L20.0459 30.0781L19.9326 30.1499L20.1907 30.313C20.3554 30.417 20.4899 30.6714 20.4899 30.8799C20.4899 30.9834 20.4567 31.0566 20.4031 31.0911C20.4031 31.0911 20.4617 31.0543 20.5156 31.0202C20.57 30.9862 20.6031 30.9126 20.6031 30.8086C20.6027 30.6001 20.4687 30.3457 20.304 30.2412Z" fill="#E4DBB4"/>
<path d="M17.1477 32.2358L16.8896 32.0728V32.1445L17.1477 32.3076C17.2813 32.3921 17.3901 32.5983 17.3901 32.7668C17.3901 32.8813 17.3403 32.9499 17.2664 32.9558L17.1805 33.0103C17.2506 33.0448 17.3133 33.0444 17.3602 33.014C17.4137 32.9794 17.4469 32.9063 17.4469 32.8027C17.4469 32.5947 17.3129 32.3403 17.1477 32.2358Z" fill="#C7BB95"/>
<path d="M17.3591 32.8975L17.2666 32.9561C17.3048 32.9529 17.3371 32.9329 17.3591 32.8975Z" fill="#8A8A8A"/>
<path d="M17.2615 32.1641L17.0034 32.001L16.8901 32.0728L17.1482 32.2358C17.313 32.3398 17.4474 32.5942 17.4474 32.8027C17.4474 32.9063 17.4142 32.9794 17.3607 33.014C17.3607 33.014 17.4192 32.9772 17.4731 32.9426C17.5275 32.9086 17.5607 32.835 17.5607 32.731C17.5602 32.5229 17.4262 32.2685 17.2615 32.1641Z" fill="#E4DBB4"/>
<mask id="mask0_456_13152" style="mask-type:luminance" maskUnits="userSpaceOnUse" x="14" y="33" width="3" height="3">
<path d="M15.8719 33.2264C15.5881 33.0469 15.1279 33.3377 14.8437 33.8759C14.5599 34.4142 14.5599 34.9961 14.8437 35.1755C15.1275 35.355 15.5877 35.0643 15.8719 34.526C16.1557 33.9877 16.1557 33.4058 15.8719 33.2264Z" fill="white"/>
</mask>
<g mask="url(#mask0_456_13152)">
<path d="M15.5014 33.2061L14.6421 33.7489L14.9284 33.9297L15.7877 33.3868L15.5014 33.2061Z" fill="#DBCFA5"/>
<path d="M14.6421 33.749V34.8351L14.9284 35.0159V33.9298L14.6421 33.749Z" fill="#949494"/>
<path d="M15.7875 34.4728L14.9282 35.0157V33.9295L15.7875 33.3867V34.4728Z" fill="#E4DBB4"/>
<path d="M15.246 34.2713C15.246 34.3226 15.2132 34.3848 15.1726 34.4103C15.1319 34.4362 15.0991 34.4153 15.0991 34.364C15.0991 34.3126 15.1319 34.2504 15.1726 34.2245C15.2132 34.1995 15.246 34.22 15.246 34.2713Z" fill="#3B3B3B"/>
<path d="M15.6161 34.0376C15.6161 34.0889 15.5833 34.1511 15.5427 34.177C15.502 34.2025 15.4692 34.182 15.4692 34.1307C15.4692 34.0794 15.502 34.0171 15.5427 33.9917C15.5833 33.9658 15.6161 33.9862 15.6161 34.0376Z" fill="#3B3B3B"/>
</g>
<path d="M14.2041 33.5418V36.3359L22.2612 31.2433V30.2658L16.0008 34.2227C15.9676 34.3231 15.9244 34.4249 15.8717 34.5253C15.5879 35.0636 15.1277 35.3543 14.8435 35.1748C14.5597 34.9954 14.5597 34.4135 14.8435 33.8752C15.1273 33.337 15.5875 33.0462 15.8717 33.2257C15.9244 33.2593 15.9676 33.3065 16.0008 33.3651L22.2612 29.4081V28.4492L14.2041 33.5418Z" fill="#FFBB00"/>
<path opacity="0.5" d="M19.8144 18.9639L19.2007 19.5757V28.5912L24.1873 25.4528V25.0554L21.2206 26.9232L19.8144 26.0343V18.9639Z" fill="black"/>
<path d="M23.8027 18.4705V23.2633L25.2093 24.1523V17.5815L23.8027 18.4705Z" fill="#DBCFA5"/>
<path d="M23.8029 23.2632L20.0117 25.6593L21.4179 26.5483L25.2091 24.1521L23.8029 23.2632ZM22.4706 24.8149C22.3391 24.898 22.1258 24.898 21.9943 24.8149C21.8627 24.7318 21.8627 24.5969 21.9943 24.5137C22.1258 24.4306 22.3391 24.4306 22.4706 24.5137C22.6021 24.5969 22.6021 24.7318 22.4706 24.8149Z" fill="#E4DBB4"/>
<path d="M22.4705 24.514C22.339 24.4309 22.1257 24.4309 21.9942 24.514C21.8755 24.589 21.8639 24.7062 21.9593 24.7893C21.9697 24.7802 21.9813 24.7716 21.9942 24.7638C22.1257 24.6807 22.339 24.6807 22.4705 24.7638C22.4834 24.772 22.495 24.7806 22.5054 24.7893C22.6008 24.7062 22.5892 24.589 22.4705 24.514Z" fill="#666666"/>
<path d="M20.0117 19.0886V25.6593L23.8029 23.2631V16.6924L20.0117 19.0886Z" fill="#C7B28D"/>
<path d="M23.5393 19.3945L20.2759 21.4568L20.6057 21.6653L23.8688 19.6026L23.5393 19.3945Z" fill="#A8A8A8"/>
<path d="M23.5442 19.7145C23.494 19.7463 23.4131 19.7463 23.3629 19.7145C23.3126 19.6827 23.3126 19.6314 23.3629 19.6C23.4131 19.5682 23.494 19.5682 23.5442 19.6C23.5944 19.6314 23.5944 19.6827 23.5442 19.7145Z" fill="black"/>
<path d="M22.9919 20.0631C22.9417 20.0949 22.8608 20.0949 22.8106 20.0631C22.7604 20.0313 22.7604 19.98 22.8106 19.9487C22.8608 19.9169 22.9417 19.9169 22.9919 19.9487C23.0417 19.9805 23.0417 20.0318 22.9919 20.0631Z" fill="black"/>
<path d="M22.4392 20.4127C22.389 20.4445 22.3081 20.4445 22.2579 20.4127C22.2077 20.3809 22.2077 20.3296 22.2579 20.2983C22.3081 20.2665 22.389 20.2665 22.4392 20.2983C22.4894 20.3296 22.4894 20.3809 22.4392 20.4127Z" fill="black"/>
<path d="M21.887 20.7619C21.8367 20.7937 21.7558 20.7937 21.7056 20.7619C21.6554 20.7301 21.6554 20.6787 21.7056 20.6474C21.7558 20.6156 21.8367 20.6156 21.887 20.6474C21.9367 20.6787 21.9367 20.7301 21.887 20.7619Z" fill="black"/>
<g opacity="0.3">
<path d="M21.1582 21.3164L21.1072 21.3491L20.7773 21.1406L20.8288 21.1079L21.1582 21.3164Z" fill="black"/>
<path d="M23.3682 19.9195L23.3168 19.9522L22.9873 19.7437L23.0383 19.7114L23.3682 19.9195Z" fill="black"/>
<path d="M22.8155 20.269L22.7644 20.3013L22.4346 20.0933L22.486 20.0605L22.8155 20.269Z" fill="black"/>
<path d="M22.2632 20.6182L22.2118 20.6504L21.8823 20.4424L21.9334 20.4097L22.2632 20.6182Z" fill="black"/>
<path d="M21.711 20.9673L21.6595 21L21.3301 20.7915L21.3811 20.7593L21.711 20.9673Z" fill="black"/>
</g>
<path d="M24.2208 20.289L20.9574 22.3518L20.606 22.1292L23.869 20.0669L24.2208 20.289Z" fill="#DBDBDB"/>
<path opacity="0.3" d="M23.7193 20.6054L23.6679 20.6381L23.3164 20.4156L23.3679 20.3833L23.7193 20.6054Z" fill="black"/>
<path opacity="0.3" d="M23.1671 20.955L22.8152 20.7329L22.7642 20.7652L23.1156 20.9873L23.1671 20.955Z" fill="black"/>
<path opacity="0.3" d="M22.6143 21.3041L22.2629 21.0815L22.2114 21.1142L22.5633 21.3364L22.6143 21.3041Z" fill="black"/>
<path opacity="0.3" d="M22.0621 21.6533L21.7106 21.4312L21.6592 21.4634L22.0106 21.686L22.0621 21.6533Z" fill="black"/>
<path opacity="0.3" d="M21.5098 22.0024L21.158 21.7803L21.1069 21.8125L21.4584 22.0347L21.5098 22.0024Z" fill="black"/>
<path d="M23.869 19.6025L20.606 21.6653V22.1291L23.869 20.0668V19.6025Z" fill="#EBEBEB"/>
<g opacity="0.3">
<path d="M21.1585 21.7797L21.1074 21.8119V21.3481L21.1585 21.3154V21.7797Z" fill="black"/>
<path d="M23.3683 20.3832L23.3169 20.4154V19.9517L23.3683 19.9189V20.3832Z" fill="black"/>
<path d="M22.8157 20.7323L22.7646 20.7646V20.3003L22.8157 20.2681V20.7323Z" fill="black"/>
<path d="M22.2634 21.081L22.2119 21.1137V20.6494L22.2634 20.6172V21.081Z" fill="black"/>
<path d="M21.7111 21.4305L21.6597 21.4628V20.999L21.7111 20.9663V21.4305Z" fill="black"/>
</g>
<path d="M20.947 21.6813C20.947 21.7444 20.9064 21.8216 20.8566 21.853C20.8064 21.8848 20.7661 21.8589 20.7661 21.7957C20.7661 21.7326 20.8068 21.6554 20.8566 21.624C20.9064 21.5922 20.947 21.6177 20.947 21.6813Z" fill="#666666"/>
<path d="M21.4998 21.3321C21.4998 21.3952 21.4591 21.4724 21.4093 21.5038C21.3591 21.5356 21.3188 21.5097 21.3188 21.4465C21.3188 21.3834 21.3595 21.3062 21.4093 21.2748C21.4591 21.243 21.4998 21.2689 21.4998 21.3321Z" fill="#666666"/>
<path d="M22.052 20.9828C22.052 21.0459 22.0113 21.1231 21.9615 21.1545C21.9113 21.1863 21.8711 21.1604 21.8711 21.0972C21.8711 21.0341 21.9118 20.9569 21.9615 20.9255C22.0113 20.8942 22.052 20.9196 22.052 20.9828Z" fill="#666666"/>
<path d="M22.6042 20.6339C22.6042 20.6971 22.5635 20.7743 22.5133 20.8056C22.4631 20.8374 22.4229 20.8115 22.4229 20.7484C22.4229 20.6852 22.4635 20.608 22.5133 20.5767C22.5639 20.5449 22.6042 20.5703 22.6042 20.6339Z" fill="#666666"/>
<path d="M23.1569 20.2847C23.1569 20.3479 23.1162 20.4251 23.0665 20.4564C23.0162 20.4882 22.9756 20.4623 22.9756 20.3992C22.9756 20.336 23.0162 20.2588 23.0665 20.2275C23.1162 20.1957 23.1569 20.2216 23.1569 20.2847Z" fill="#666666"/>
<path d="M23.7092 19.9357C23.7092 19.9988 23.6686 20.076 23.6188 20.1074C23.5686 20.1392 23.5283 20.1133 23.5283 20.0501C23.5283 19.987 23.569 19.9098 23.6188 19.8784C23.6686 19.8466 23.7092 19.8721 23.7092 19.9357Z" fill="#666666"/>
<path d="M23.869 21.7197L20.606 23.7825V24.2467L23.869 22.184V21.7197Z" fill="#EBEBEB"/>
<path d="M20.6057 22.1288V21.665L20.2759 21.4565V24.0376L20.6057 24.2461V23.7818L20.9572 24.004V22.3514L20.6057 22.1288Z" fill="#BCBCBC"/>
<path d="M24.2205 21.9421L20.957 24.0044V22.3518L24.2205 20.2891V21.9421Z" fill="#EBEBEB"/>
<path d="M24.1874 21.2608C24.1874 21.1163 24.15 20.9592 24.087 20.8115L23.8525 20.9596V21.7318L24.087 21.5837C24.15 21.5156 24.1874 21.4057 24.1874 21.2608Z" fill="#BF1518"/>
<path d="M23.953 21.4087C23.953 21.2643 23.9156 21.1071 23.8525 20.9595V21.7317C23.9156 21.6636 23.953 21.5536 23.953 21.4087Z" fill="#A00E0F"/>
<path d="M24.4095 20.9906C24.3879 20.9201 24.334 20.8629 24.2891 20.862L24.0228 20.8579L23.9194 20.9224L24.2887 21.1741C24.2887 21.1741 24.3858 21.1137 24.3929 21.1087C24.4186 21.0923 24.4265 21.0455 24.4095 20.9906Z" fill="#D52D2D"/>
<path d="M24.3062 21.0555C24.2846 20.9856 24.2306 20.9279 24.1858 20.9274L23.9194 20.9233C23.9547 21.0065 23.9817 21.0923 23.9983 21.1773L24.2647 21.1814C24.2738 21.1814 24.2821 21.1791 24.2887 21.175C24.3153 21.1582 24.3232 21.1114 24.3062 21.0555Z" fill="#A00E0F"/>
<path opacity="0.3" d="M23.7194 22.2585L23.668 22.2907V20.6382L23.7194 20.6055V22.2585Z" fill="black"/>
<path d="M23.6351 21.6104C23.6351 21.4659 23.5978 21.3088 23.5347 21.1611L23.3003 21.3092V22.0814L23.5347 21.9334C23.5978 21.8648 23.6351 21.7548 23.6351 21.6104Z" fill="#BF1518"/>
<path d="M23.4007 21.7588C23.4007 21.6144 23.3634 21.4572 23.3003 21.3096V22.0818C23.3634 22.0132 23.4007 21.9033 23.4007 21.7588Z" fill="#A00E0F"/>
<path d="M23.8567 21.3397C23.8352 21.2698 23.7812 21.2121 23.7364 21.2116L23.47 21.2075L23.3667 21.272L23.736 21.5237C23.736 21.5237 23.8331 21.4633 23.8401 21.4583C23.8663 21.4415 23.8737 21.3951 23.8567 21.3397Z" fill="#D52D2D"/>
<path d="M23.7534 21.4046C23.7318 21.3347 23.6779 21.277 23.6331 21.2766L23.3667 21.2725C23.402 21.3556 23.4289 21.4414 23.4455 21.5268L23.7119 21.5309C23.721 21.5309 23.7289 21.5287 23.736 21.5246C23.7625 21.5073 23.7708 21.4601 23.7534 21.4046Z" fill="#A00E0F"/>
<g opacity="0.3">
<path d="M21.5099 23.655L21.4585 23.6877V22.0347L21.5099 22.0024V23.655Z" fill="black"/>
<path d="M23.1672 22.6072L23.1157 22.6399V20.9868L23.1672 20.9546V22.6072Z" fill="black"/>
<path d="M22.6145 22.9568L22.5635 22.9895V21.3365L22.6145 21.3042V22.9568Z" fill="black"/>
<path d="M22.0622 23.3058L22.0107 23.3381V21.6855L22.0622 21.6528V23.3058Z" fill="black"/>
</g>
<path d="M21.3253 23.3296L21.0908 23.4777V22.7091L21.3253 22.561V23.3296Z" fill="#808080"/>
<path d="M21.8775 22.9805L21.6431 23.129V22.3605L21.8775 22.2119V22.9805Z" fill="#808080"/>
<path d="M22.4297 22.6314L22.1953 22.7795V22.0109L22.4297 21.8628V22.6314Z" fill="#808080"/>
<path d="M23.0825 21.96C23.0825 21.8155 23.0451 21.6584 22.9825 21.5107L22.748 21.6588V22.4311L22.9825 22.283C23.0451 22.2144 23.0825 22.1044 23.0825 21.96Z" fill="#BF1518"/>
<path d="M22.848 22.1079C22.848 21.9635 22.8107 21.8063 22.748 21.6587V22.4309C22.8111 22.3623 22.848 22.2524 22.848 22.1079Z" fill="#A00E0F"/>
<path d="M23.3045 21.6893C23.2825 21.6189 23.229 21.5616 23.1842 21.5607L22.9178 21.5566L22.8145 21.6211L23.1837 21.8728C23.1837 21.8728 23.2808 21.8124 23.2879 21.8074C23.3136 21.791 23.3215 21.7442 23.3045 21.6893Z" fill="#D52D2D"/>
<path d="M23.2012 21.7537C23.1796 21.6833 23.1257 21.6261 23.0808 21.6252L22.8145 21.6211C22.8497 21.7042 22.8767 21.7901 22.8933 21.875L23.1597 21.8791C23.1688 21.8791 23.1767 21.8768 23.1837 21.8727C23.2103 21.8568 23.2186 21.8096 23.2012 21.7537Z" fill="#A00E0F"/>
<path d="M21.1908 23.1592C21.1908 23.0148 21.1535 22.8576 21.0908 22.71V23.4822C21.1535 23.414 21.1908 23.3041 21.1908 23.1592Z" fill="#A00E0F"/>
<path d="M21.3253 22.5615L21.0908 22.7096C21.1539 22.8577 21.1908 23.0144 21.1908 23.1589C21.1908 23.2979 21.1564 23.4051 21.0975 23.4737L21.3248 23.3333C21.3879 23.2652 21.4248 23.1552 21.4248 23.0108C21.4248 22.8663 21.3879 22.7096 21.3253 22.5615Z" fill="#BF1518"/>
<path d="M21.5034 23.6162L21.237 23.2837C21.2204 23.3473 21.1935 23.3995 21.1582 23.4381L21.4246 23.7706C21.4599 23.8152 21.5014 23.8306 21.5279 23.8138C21.5345 23.8093 21.5404 23.8029 21.5449 23.7943C21.5665 23.752 21.5482 23.6721 21.5034 23.6162Z" fill="#A00E0F"/>
<path d="M21.6057 23.5518L21.3393 23.2192L21.2368 23.2842L21.5032 23.6167C21.548 23.6726 21.5663 23.7521 21.5447 23.7948C21.5401 23.8034 21.5343 23.8102 21.5277 23.8143C21.5277 23.8143 21.6036 23.7662 21.6298 23.7498C21.6368 23.7453 21.6426 23.7389 21.6472 23.7298C21.6688 23.6871 21.6505 23.6072 21.6057 23.5518Z" fill="#D52D2D"/>
<path d="M21.743 22.8096C21.743 22.6652 21.7056 22.508 21.6426 22.3604V23.1326C21.7061 23.064 21.743 22.9541 21.743 22.8096Z" fill="#A00E0F"/>
<path d="M21.8775 22.2119L21.6431 22.36C21.7061 22.5076 21.7435 22.6648 21.7435 22.8093C21.7435 22.9483 21.709 23.0555 21.6501 23.124L21.8775 22.9837C21.9406 22.9155 21.9779 22.8056 21.9779 22.6612C21.9779 22.5167 21.9406 22.36 21.8775 22.2119Z" fill="#BF1518"/>
<path d="M22.0552 23.2671L21.7888 22.9346C21.7722 22.9982 21.7452 23.0504 21.71 23.089L21.9763 23.4215C22.012 23.466 22.0531 23.4815 22.0792 23.4647C22.0859 23.4606 22.0917 23.4538 22.0963 23.4451C22.1187 23.4024 22.1 23.3225 22.0552 23.2671Z" fill="#A00E0F"/>
<path d="M22.1584 23.2021L21.892 22.8696L21.7896 22.9346L22.0559 23.2671C22.1007 23.323 22.119 23.4025 22.0974 23.4452C22.0929 23.4538 22.0871 23.4606 22.0804 23.4647C22.0804 23.4647 22.1563 23.4165 22.1825 23.4002C22.1895 23.3961 22.1954 23.3893 22.1999 23.3802C22.2215 23.3375 22.2028 23.258 22.1584 23.2021Z" fill="#D52D2D"/>
<path d="M22.2957 22.461C22.2957 22.3165 22.2584 22.1593 22.1953 22.0117V22.7839C22.2584 22.7154 22.2957 22.6054 22.2957 22.461Z" fill="#A00E0F"/>
<path d="M22.4297 21.8633L22.1953 22.0114C22.2584 22.1595 22.2957 22.3162 22.2957 22.4606C22.2957 22.5996 22.2613 22.7068 22.2024 22.7754L22.4297 22.6351C22.4928 22.5669 22.5302 22.457 22.5302 22.3125C22.5302 22.1681 22.4928 22.0109 22.4297 21.8633Z" fill="#BF1518"/>
<path d="M22.6084 22.918L22.342 22.5854C22.325 22.649 22.2985 22.7013 22.2632 22.7399L22.5296 23.0724C22.5653 23.1169 22.6063 23.1324 22.6329 23.1156C22.6395 23.111 22.6453 23.1047 22.6499 23.096C22.6715 23.0533 22.6528 22.9738 22.6084 22.918Z" fill="#A00E0F"/>
<path d="M22.7107 22.853L22.4443 22.5205L22.3418 22.5855L22.6082 22.918C22.6526 22.9738 22.6713 23.0533 22.6497 23.096C22.6451 23.1047 22.6393 23.1115 22.6327 23.1156C22.6327 23.1156 22.7086 23.0674 22.7347 23.0511C22.7418 23.0465 22.7476 23.0402 22.7522 23.0311C22.7737 22.9888 22.7555 22.9089 22.7107 22.853Z" fill="#D52D2D"/>
<path d="M22.4671 17.6932C22.3356 17.6101 22.1223 17.6101 21.9908 17.6932C21.8721 17.7682 21.8605 17.8854 21.9559 17.9685C21.9663 17.9594 21.9779 17.9508 21.9908 17.9426C22.1223 17.8595 22.3356 17.8595 22.4671 17.9426C22.48 17.9508 22.4916 17.9594 22.5019 17.9685C22.5974 17.8854 22.5858 17.7682 22.4671 17.6932Z" fill="#949494"/>
<path d="M23.5113 19.6725C23.5267 19.6593 23.5338 19.6412 23.5325 19.6239C23.5288 19.4281 23.4504 19.2133 23.3109 19.077C23.1761 18.938 23.0205 18.8571 22.8939 18.7554C22.6238 18.5673 22.5222 18.233 22.5251 17.8823H22.3574C22.3661 18.0722 22.3753 18.2684 22.4512 18.4533C22.5217 18.6391 22.6529 18.7954 22.7964 18.9048C22.9387 19.0166 23.0881 19.097 23.1956 19.2101C23.3051 19.32 23.3603 19.4677 23.3657 19.6353C23.3665 19.6498 23.3761 19.6639 23.3931 19.6748C23.4271 19.6971 23.4802 19.6993 23.5113 19.6725Z" fill="#3B3B3B"/>
<path d="M22.4121 17.8823C22.4192 18.0717 22.4333 18.2653 22.5063 18.4438C22.5777 18.6223 22.7063 18.7686 22.8507 18.873C22.993 18.9812 23.147 19.0656 23.2615 19.196C23.3801 19.3232 23.4229 19.5076 23.4245 19.6884C23.4449 19.6934 23.4669 19.6934 23.4859 19.6871C23.4855 19.4972 23.4366 19.2887 23.3055 19.1488C23.1801 19.0075 23.0225 18.9221 22.8851 18.8172C22.7453 18.7154 22.6287 18.5819 22.5623 18.4161C22.4947 18.2503 22.4806 18.0649 22.4735 17.8823H22.4121Z" fill="#1E5FA6"/>
<path d="M22.9596 20.0301C22.9754 20.0179 22.9833 20.0011 22.9824 19.9847C22.9791 19.7998 22.9468 19.6059 22.8692 19.4333C22.7937 19.2593 22.6854 19.1189 22.6073 18.9749C22.443 18.6901 22.3974 18.3467 22.3961 18.0015H22.2285C22.2289 18.3608 22.2787 18.7492 22.4642 19.0703C22.5526 19.2302 22.6551 19.3647 22.7181 19.5128C22.7837 19.6595 22.8119 19.8226 22.8152 19.9915C22.8161 20.0065 22.8248 20.0206 22.8414 20.032C22.875 20.0542 22.9281 20.0556 22.9596 20.0301Z" fill="#3B3B3B"/>
<path d="M22.2827 18.001C22.2831 18.3653 22.3354 18.7496 22.5238 19.0639C22.6138 19.2202 22.7192 19.361 22.7835 19.5241C22.8474 19.6872 22.8703 19.8661 22.8715 20.0451C22.8918 20.0501 22.9138 20.0501 22.9329 20.0437C22.9317 19.8589 22.9076 19.6694 22.8396 19.4964C22.7707 19.3228 22.6624 19.1784 22.5757 19.0276C22.3952 18.7264 22.345 18.3603 22.3441 18.0014L22.2827 18.001Z" fill="#BF1518"/>
<path d="M22.4079 20.3892C22.4241 20.3755 22.432 20.3578 22.432 20.3401C22.4333 19.9385 22.376 19.5356 22.3245 19.1486C22.2748 18.7607 22.2565 18.3705 22.2565 17.9775H22.0889C22.0889 18.3759 22.1075 18.7775 22.1586 19.1736C22.2113 19.5692 22.2656 19.9513 22.2648 20.3424C22.2648 20.3596 22.2735 20.3764 22.2897 20.3896C22.3225 20.4155 22.3756 20.416 22.4079 20.3892Z" fill="#3B3B3B"/>
<path d="M22.1436 17.9775C22.1436 18.3845 22.1631 18.7934 22.2166 19.1972C22.2722 19.6001 22.3245 19.9999 22.3199 20.4051C22.3398 20.411 22.3618 20.4105 22.3813 20.4037C22.3859 19.9949 22.3323 19.5869 22.2772 19.1872C22.2241 18.7866 22.205 18.3827 22.2046 17.9775H22.1436Z" fill="#549830"/>
<path d="M21.3113 21.0603C21.3287 21.0467 21.3378 21.029 21.3387 21.0113C21.3499 20.5929 21.6104 20.2536 21.8407 19.887C22.0806 19.5213 22.2241 19.058 22.2204 18.6001H22.0528C22.0536 19.0257 21.9304 19.4327 21.7013 19.7848C21.486 20.1318 21.1872 20.5111 21.171 21.0008C21.1698 21.0217 21.1768 21.0426 21.1922 21.0585C21.2237 21.0898 21.2768 21.0876 21.3113 21.0603Z" fill="#3B3B3B"/>
<path d="M22.1074 18.6001C22.1103 19.0489 21.9693 19.4827 21.7286 19.847C21.4996 20.2068 21.2112 20.5952 21.222 21.0762C21.2415 21.083 21.2635 21.0821 21.2838 21.0753C21.2738 20.6206 21.5464 20.2508 21.7805 19.8843C22.0249 19.5159 22.1738 19.0603 22.1697 18.6001H22.1074Z" fill="#1E5FA6"/>
<path d="M21.8557 20.7383C21.8723 20.7247 21.881 20.707 21.881 20.6892C21.8831 20.4835 21.9038 20.2922 21.9628 20.0996C22.0233 19.9016 22.0677 19.6854 22.0906 19.4755C22.1391 19.0535 22.1428 18.6347 22.1453 18.2163H21.9777C21.9756 18.6306 21.9711 19.0467 21.9242 19.4519C21.9014 19.6558 21.8628 19.8475 21.8026 20.0451C21.7395 20.2482 21.7142 20.4748 21.7134 20.6856C21.713 20.7042 21.7209 20.7233 21.737 20.7378C21.7694 20.766 21.8225 20.7651 21.8557 20.7383Z" fill="#3B3B3B"/>
<path d="M22.0327 18.2158C22.031 18.6423 22.0252 19.0707 21.975 19.4922C21.9518 19.7039 21.9024 19.906 21.8418 20.1109C21.7821 20.3185 21.7663 20.5397 21.7671 20.7536C21.787 20.76 21.809 20.7596 21.8289 20.7523C21.8285 20.5397 21.8435 20.3298 21.9016 20.1286C21.9617 19.9269 22.0132 19.7134 22.0368 19.4999C22.0874 19.072 22.0933 18.6432 22.0949 18.2148H22.0327V18.2158Z" fill="#FFA535"/>
<path d="M19.8145 18.9639L21.2207 19.8528L25.4073 17.2068L24.0007 16.3179L19.8145 18.9639ZM22.4671 17.9945C22.3356 18.0776 22.1223 18.0776 21.9908 17.9945C21.8592 17.9114 21.8592 17.7765 21.9908 17.6933C22.1223 17.6102 22.3356 17.6102 22.4671 17.6933C22.5986 17.7765 22.5986 17.9114 22.4671 17.9945Z" fill="#F7F2D5"/>
<path d="M21.2207 19.8525V26.9229L25.4074 24.2769V17.2065L21.2207 19.8525ZM25.2098 24.152L21.4186 26.5482V19.9775L25.2098 17.5813V24.152Z" fill="#F1E9C5"/>
<path d="M19.8145 18.9639V26.0343L21.2207 26.9232V19.8528L19.8145 18.9639Z" fill="#DBCFA5"/>
<path d="M22.7279 23.3611C22.5275 23.5473 22.374 23.7713 22.3188 24.0466C22.2603 24.32 22.2565 24.6139 22.2545 24.9055H22.1084C22.1109 24.6094 22.113 24.31 22.1769 24.0084C22.2362 23.7018 22.4221 23.432 22.6316 23.2407L22.7279 23.3611Z" fill="#3B3B3B"/>
<path d="M22.6955 23.2857C22.7216 23.3194 22.7361 23.353 22.7278 23.3612C22.7191 23.3693 22.6905 23.3493 22.6635 23.3162C22.6365 23.2835 22.622 23.2494 22.6311 23.2408C22.6403 23.2321 22.6689 23.2521 22.6955 23.2857Z" fill="#262626"/>
<path d="M22.6464 23.2604C22.6402 23.2663 22.6501 23.2895 22.6684 23.3118C22.6866 23.334 22.7061 23.3481 22.7119 23.3422C22.7182 23.3367 22.8339 23.2305 22.8339 23.2305L22.7717 23.1455C22.7717 23.1455 22.6526 23.2545 22.6464 23.2604Z" fill="#FFA535"/>
<path d="M22.8143 23.1779C22.8314 23.2015 22.8405 23.2251 22.8343 23.2306C22.828 23.236 22.8094 23.2215 22.7919 23.1979C22.7745 23.1747 22.7658 23.1511 22.772 23.1452C22.7782 23.1397 22.7973 23.1543 22.8143 23.1779Z" fill="#FF6A35"/>
<path d="M22.6457 23.292C22.4424 23.481 22.2723 23.7372 22.2171 24.0306C22.1573 24.3204 22.1548 24.6143 22.1523 24.9055H22.2059C22.2079 24.6161 22.2113 24.324 22.2689 24.0447C22.3229 23.7621 22.4814 23.5232 22.681 23.3361L22.6631 23.3165L22.6457 23.292Z" fill="#549830"/>
<path d="M23.2963 23.3957C23.0399 23.5447 22.7897 23.7164 22.6408 23.9739C22.4881 24.2288 22.4499 24.5495 22.4478 24.8633H22.3018C22.3042 24.5349 22.3424 24.1824 22.5179 23.8872C22.6914 23.5901 22.9661 23.407 23.2279 23.2544L23.2963 23.3957Z" fill="#3B3B3B"/>
<path d="M23.2828 23.3131C23.3015 23.3522 23.3077 23.3894 23.2965 23.3958C23.2853 23.4021 23.2608 23.3762 23.2417 23.3372C23.2226 23.2981 23.2164 23.2613 23.228 23.2545C23.2396 23.2477 23.2641 23.274 23.2828 23.3131Z" fill="#262626"/>
<path d="M23.2389 23.2765C23.231 23.281 23.2351 23.3065 23.248 23.3328C23.2609 23.3592 23.2779 23.3773 23.2853 23.3728C23.2932 23.3687 23.4422 23.2847 23.4422 23.2847L23.3978 23.187C23.3978 23.187 23.2467 23.2724 23.2389 23.2765Z" fill="#FFA535"/>
<path d="M23.4343 23.228C23.4464 23.2548 23.4501 23.2802 23.4422 23.2848C23.4343 23.2888 23.4181 23.2707 23.4057 23.2439C23.3932 23.2171 23.3899 23.1916 23.3978 23.1871C23.4061 23.183 23.4223 23.2012 23.4343 23.228Z" fill="#FF6A35"/>
<path d="M23.2296 23.3081C22.9732 23.4589 22.7109 23.6402 22.5499 23.9236C22.386 24.2048 22.3487 24.5428 22.3462 24.863H22.4001C22.4022 24.5478 22.4396 24.2216 22.5952 23.955C22.7474 23.6865 23.0001 23.5098 23.2545 23.3603L23.2412 23.3367L23.2296 23.3081Z" fill="#FFA535"/>
<path d="M23.6065 23.9606C23.3318 23.7508 22.9642 23.7971 22.7331 24.0583C22.499 24.3077 22.3625 24.6752 22.358 25.0349H22.2119C22.2186 24.6279 22.3646 24.23 22.6327 23.9425C22.7671 23.8012 22.9439 23.6935 23.138 23.6717C23.331 23.6504 23.5293 23.7108 23.6833 23.8244L23.6065 23.9606Z" fill="#3B3B3B"/>
<path d="M23.6691 23.9073C23.6467 23.9441 23.6189 23.9682 23.6064 23.9605C23.594 23.9532 23.6006 23.916 23.6205 23.8778C23.6404 23.8397 23.6686 23.8156 23.6832 23.8247C23.6977 23.8333 23.6915 23.8706 23.6691 23.9073Z" fill="#262626"/>
<path d="M23.6711 23.8459C23.6615 23.84 23.6425 23.8564 23.6283 23.8823C23.6142 23.9082 23.6101 23.9336 23.6188 23.9386C23.6321 23.9345 23.781 24.0699 23.781 24.0699L23.8466 23.9877C23.8466 23.9877 23.6869 23.8432 23.6711 23.8459Z" fill="#FFA535"/>
<path d="M23.8286 24.042C23.8099 24.0642 23.7888 24.077 23.7809 24.0701C23.773 24.0633 23.7809 24.0393 23.7987 24.0165C23.8166 23.9938 23.8377 23.9811 23.8464 23.9884C23.8552 23.9956 23.8473 24.0197 23.8286 24.042Z" fill="#FF6A35"/>
<path d="M23.6373 23.852C23.4875 23.7497 23.3033 23.6921 23.1232 23.7216C22.9431 23.7475 22.7796 23.8515 22.6539 23.9873C22.4029 24.2635 22.2631 24.6473 22.2568 25.0348H22.3108C22.3162 24.6642 22.4523 24.2917 22.6913 24.0296C22.924 23.7552 23.324 23.6857 23.6103 23.9024L23.6215 23.8778C23.6261 23.8683 23.6315 23.8592 23.6373 23.852Z" fill="#BF1518"/>
<path d="M21.292 23.3198C21.6189 23.3943 21.8679 23.6882 21.9899 24.0026C22.116 24.321 22.1629 24.663 22.1654 25.0019H22.0194C22.0173 24.6817 21.9716 24.3573 21.8567 24.068C21.743 23.7804 21.5331 23.5392 21.2588 23.4761L21.292 23.3198Z" fill="#3B3B3B"/>
<path d="M21.252 23.3924C21.2599 23.3492 21.2777 23.317 21.2918 23.3206C21.3059 23.3242 21.3088 23.3619 21.2985 23.4046C21.2881 23.4473 21.2702 23.4796 21.2586 23.4764C21.247 23.4732 21.2441 23.4355 21.252 23.3924Z" fill="#262626"/>
<path d="M21.2635 23.4513C21.2718 23.4536 21.2838 23.4313 21.2904 23.4023C21.2971 23.3732 21.2954 23.3478 21.2859 23.345C21.2776 23.335 21.0979 23.3164 21.0979 23.3164L21.0938 23.4254C21.0938 23.4254 21.2568 23.4418 21.2635 23.4513Z" fill="#FFA535"/>
<path d="M21.0801 23.3691C21.0806 23.3391 21.0889 23.3155 21.0984 23.3164C21.1079 23.3173 21.1142 23.3423 21.1125 23.3723C21.1109 23.4023 21.1026 23.4259 21.0943 23.425C21.086 23.4245 21.0793 23.3996 21.0801 23.3691Z" fill="#FF6A35"/>
<path d="M21.2891 23.4337C21.5737 23.5087 21.7874 23.7667 21.9011 24.0588C22.0169 24.354 22.0608 24.6797 22.0633 25.0018H22.1173C22.1148 24.6733 22.07 24.3408 21.9505 24.0351C21.8339 23.7331 21.6073 23.4564 21.3032 23.3765L21.2982 23.4037L21.2891 23.4337Z" fill="#1E5FA6"/>
<path d="M23.4928 24.8398C23.2804 24.6254 23.0153 24.4382 22.7422 24.371C22.6053 24.3383 22.4713 24.3651 22.4012 24.476C22.3219 24.5827 22.3161 24.7526 22.3057 24.9061H22.1597C22.1729 24.7326 22.1709 24.5445 22.2846 24.3792C22.3953 24.2043 22.6144 24.1716 22.7696 24.2138C23.0933 24.2965 23.3588 24.4905 23.5941 24.7249L23.4928 24.8398Z" fill="#3B3B3B"/>
<path d="M23.5615 24.8003C23.5328 24.8316 23.5025 24.8493 23.4934 24.8398C23.4843 24.8302 23.4992 24.7966 23.5266 24.7639C23.554 24.7312 23.5847 24.7135 23.5946 24.7244C23.6046 24.7349 23.5897 24.7689 23.5615 24.8003Z" fill="#262626"/>
<path d="M23.5782 24.7428C23.5712 24.7356 23.5504 24.7478 23.5317 24.7696C23.5131 24.7914 23.5027 24.8146 23.5093 24.8214C23.5214 24.8255 23.6263 24.9609 23.6189 24.96L23.7064 24.9077C23.7093 24.8977 23.5878 24.7433 23.5782 24.7428Z" fill="#FFA535"/>
<path d="M23.671 24.9489C23.6461 24.9616 23.6225 24.9666 23.6183 24.9598C23.6142 24.953 23.63 24.9348 23.6532 24.9189C23.6764 24.903 23.7001 24.898 23.7059 24.908C23.7117 24.918 23.6959 24.9366 23.671 24.9489Z" fill="#FF6A35"/>
<path d="M23.5468 24.7424C23.319 24.5212 23.0564 24.3304 22.7497 24.2596C22.6012 24.2232 22.4116 24.2596 22.317 24.414C22.217 24.5607 22.2157 24.7402 22.2041 24.906H22.258C22.2688 24.7474 22.2726 24.5744 22.3605 24.449C22.441 24.3177 22.5991 24.285 22.7406 24.3177C23.0282 24.3831 23.29 24.5707 23.5103 24.7856L23.5265 24.7642L23.5468 24.7424Z" fill="#1E5FA6"/>
<path d="M21.1504 24.5189C21.206 24.3808 21.3031 24.2477 21.4433 24.1791C21.5844 24.1105 21.7562 24.1378 21.8778 24.2282C22.1288 24.4153 22.2022 24.746 22.2056 25.0344H22.0595C22.0583 24.7751 21.984 24.4966 21.7981 24.3622C21.7085 24.2967 21.5973 24.2804 21.5014 24.3254C21.406 24.3722 21.3288 24.4698 21.2823 24.587L21.1504 24.5189Z" fill="#3B3B3B"/>
<path d="M21.2071 24.5729C21.1702 24.5552 21.1444 24.5311 21.1502 24.5188C21.156 24.5066 21.1897 24.5134 21.2258 24.5334C21.2614 24.5533 21.2872 24.5779 21.2826 24.5874C21.278 24.5969 21.244 24.5906 21.2071 24.5729Z" fill="#262626"/>
<path d="M21.2612 24.5765C21.2645 24.5697 21.2471 24.5534 21.2226 24.5397C21.1981 24.5261 21.1749 24.522 21.1712 24.5297C21.1608 24.5352 21.1147 24.6951 21.1147 24.6951L21.2106 24.7246C21.2106 24.7246 21.2521 24.5797 21.2612 24.5765Z" fill="#FFA535"/>
<path d="M21.158 24.7246C21.1315 24.7169 21.112 24.7037 21.1145 24.6955C21.117 24.6874 21.1406 24.6874 21.1668 24.696C21.1933 24.7046 21.2124 24.7178 21.2103 24.7251C21.2082 24.7323 21.1846 24.7323 21.158 24.7246Z" fill="#FF6A35"/>
<path d="M21.2504 24.5493C21.3026 24.4307 21.3856 24.323 21.496 24.2772C21.6055 24.2299 21.7325 24.2526 21.8296 24.3271C22.0296 24.4798 22.1018 24.77 22.1039 25.0349H22.1578C22.1549 24.7591 22.0831 24.4502 21.8599 24.2785C21.7516 24.1949 21.603 24.1672 21.4769 24.2227C21.3491 24.2758 21.2587 24.3962 21.2026 24.5225L21.2259 24.5338L21.2504 24.5493Z" fill="#FFA535"/>
<path d="M22.5634 24.624C22.5837 24.6913 22.553 24.7635 22.4709 24.8153C22.3394 24.8984 22.1261 24.8984 21.9945 24.8153C21.9124 24.7635 21.8817 24.6913 21.902 24.624C21.902 24.624 21.2253 25.2459 22.1336 25.3327C23.0423 25.4194 22.5634 24.624 22.5634 24.624Z" fill="#B1B1B1"/>
<path d="M21.8921 7.9541C21.8921 7.9541 21.8921 17.7264 21.8921 17.844C21.8921 17.9617 22.0427 18.0566 22.2286 18.0566C22.4145 18.0566 22.5655 17.9612 22.5655 17.844C22.5655 17.7268 22.5655 7.9541 22.5655 7.9541H21.8921Z" fill="#3B3B3B"/>
<path d="M22.2285 8.16688C22.4146 8.16688 22.5654 8.0717 22.5654 7.95429C22.5654 7.83688 22.4146 7.7417 22.2285 7.7417C22.0424 7.7417 21.8916 7.83688 21.8916 7.95429C21.8916 8.0717 22.0424 8.16688 22.2285 8.16688Z" fill="#666666"/>
<path d="M22.4289 7.90215C22.3961 7.92304 22.343 7.92304 22.3102 7.90215C22.2774 7.88125 22.2774 7.84809 22.3102 7.8272C22.343 7.8063 22.3961 7.8063 22.4289 7.8272C22.4617 7.84809 22.4617 7.88125 22.4289 7.90215Z" fill="#FFE138"/>
<path d="M22.2579 7.8182C22.2699 7.84637 22.2434 7.87544 22.1986 7.88316C22.1538 7.89088 22.1077 7.87408 22.0957 7.84546C22.0836 7.8173 22.1102 7.78822 22.155 7.7805C22.1998 7.77323 22.2459 7.79004 22.2579 7.8182Z" fill="#FFE138"/>
<path d="M22.057 7.87004C22.1018 7.87776 22.1283 7.90684 22.1163 7.935C22.1043 7.96316 22.0582 7.97997 22.0134 7.9727C21.9686 7.96498 21.942 7.93591 21.9541 7.90774C21.9661 7.87913 22.0122 7.86232 22.057 7.87004Z" fill="#FFE138"/>
<path d="M22.0275 8.00591C22.0603 7.98501 22.1134 7.98501 22.1462 8.00591C22.179 8.0268 22.179 8.05996 22.1462 8.08086C22.1134 8.10175 22.0603 8.10175 22.0275 8.08086C21.9947 8.06042 21.9947 8.0268 22.0275 8.00591Z" fill="#FFE138"/>
<path d="M22.1992 8.08978C22.1872 8.06162 22.2137 8.03255 22.2585 8.02483C22.3033 8.0171 22.3494 8.03391 22.3614 8.06253C22.3735 8.09069 22.3469 8.11976 22.3021 8.12749C22.2569 8.13475 22.2112 8.11795 22.1992 8.08978Z" fill="#FFE138"/>
<path d="M22.3996 8.03795C22.3548 8.03022 22.3283 8.00115 22.3403 7.97299C22.3523 7.94483 22.3984 7.92802 22.4432 7.93529C22.488 7.94301 22.5146 7.97208 22.5025 8.00024C22.4905 8.02841 22.4444 8.04522 22.3996 8.03795Z" fill="#FFE138"/>
<path d="M21.9366 15.7575L21.7163 15.6185L21.7732 15.5826L21.9935 15.7216C22.1271 15.8061 22.3445 15.8061 22.4781 15.7216C22.5686 15.6644 22.5976 15.5826 22.5657 15.5099V15.4014C22.6279 15.4504 22.659 15.5104 22.6586 15.5699C22.6582 15.638 22.6167 15.7057 22.535 15.7575C22.3698 15.862 22.1018 15.862 21.9366 15.7575Z" fill="#F7F2D5"/>
<path d="M22.5654 15.627V15.5098C22.582 15.5484 22.582 15.5888 22.5654 15.627Z" fill="#8A8A8A"/>
<path d="M21.9366 15.901L21.7163 15.762V15.6184L21.9366 15.7574C22.1014 15.8615 22.3698 15.8615 22.5346 15.7574C22.6163 15.7056 22.6578 15.6375 22.6582 15.5698C22.6582 15.5698 22.6582 15.6434 22.6582 15.712C22.6582 15.7806 22.6171 15.8487 22.5346 15.901C22.3698 16.0055 22.1018 16.0055 21.9366 15.901Z" fill="#DBCFA5"/>
<path d="M21.9366 11.3322L21.7163 11.1932L21.7732 11.1573L21.9935 11.2963C22.1271 11.3808 22.3445 11.3808 22.4781 11.2963C22.5686 11.2391 22.5976 11.1573 22.5657 11.0846V10.9761C22.6279 11.0251 22.659 11.0851 22.6586 11.1446C22.6582 11.2127 22.6167 11.2804 22.535 11.3322C22.3698 11.4362 22.1018 11.4362 21.9366 11.3322Z" fill="#F7F2D5"/>
<path d="M22.5654 11.2017V11.0845C22.582 11.1226 22.582 11.1631 22.5654 11.2017Z" fill="#8A8A8A"/>
<path d="M21.9366 11.4752L21.7163 11.3362V11.1926L21.9366 11.3316C22.1014 11.4357 22.3698 11.4357 22.5346 11.3316C22.6163 11.2799 22.6578 11.2117 22.6582 11.144C22.6582 11.144 22.6582 11.2176 22.6582 11.2862C22.6582 11.3548 22.6171 11.423 22.5346 11.4752C22.3698 11.5797 22.1018 11.5797 21.9366 11.4752Z" fill="#DBCFA5"/>
<path d="M31.0349 28.7897V30.1493C31.0349 30.5186 30.912 30.678 30.6133 30.678V28.4045C30.6133 28.4045 31.0349 28.37 31.0349 28.7897Z" fill="#A24D28"/>
<path d="M30.8986 28.8398V30.6087C30.8986 31.0893 30.7389 31.2964 30.3501 31.2964V28.3388C30.3501 28.3388 30.8986 28.2938 30.8986 28.8398Z" fill="#493737"/>
<path d="M25.4909 21.9729C25.3734 21.8866 25.2519 21.8357 25.1141 21.8016C25.0158 21.7771 24.8639 21.7371 24.7183 21.743C24.6564 21.7458 24.7291 21.7326 24.5199 21.7426C24.5191 21.7426 24.5183 21.743 24.5174 21.743C24.478 21.9847 24.6743 22.8532 24.6743 22.8532C24.6743 22.8532 24.7013 22.855 24.7378 22.8568C25.0071 22.8827 25.0863 22.9214 25.2776 23.024C25.4693 23.1267 25.6954 23.1476 25.8307 23.1021C26.1087 23.0081 26.0963 22.8718 26.1614 22.7169C26.0245 22.3454 25.7942 22.1955 25.4909 21.9729Z" fill="#F0B57E"/>
<path d="M24.6614 21.5355L24.3182 20.512L24.312 20.4939L24.2643 20.4425L24.2278 20.3358L24.2315 20.2036L24.2161 20.2291L24.2124 20.3612L24.2485 20.468L24.2966 20.5193L24.6402 21.545L24.6614 21.5355Z" fill="#949494"/>
<path d="M24.8611 21.6314L24.813 21.4888L24.835 21.5065L24.8761 21.6291L24.8611 21.6314Z" fill="#3B3B3B"/>
<path d="M24.6074 21.7377L24.5605 21.5982L24.6203 21.5537L24.6697 21.7L24.6074 21.7377Z" fill="#262626"/>
<path d="M24.774 21.655L24.7246 21.5083L24.813 21.4888L24.8611 21.6314L24.774 21.655Z" fill="#545454"/>
<path d="M24.7281 21.5097L24.6226 21.5522L24.6724 21.7001L24.7779 21.6576L24.7281 21.5097Z" fill="#3B3B3B"/>
<path d="M25.278 22.7666C25.2514 22.7671 25.2116 22.7762 25.1684 22.7907C25.1253 22.8052 25.0788 22.8248 25.0394 22.8466C24.9572 22.8915 24.9365 22.9261 24.9921 22.9247C25.0182 22.9247 25.058 22.9161 25.1016 22.9015C25.1448 22.887 25.1912 22.867 25.2311 22.8447C25.312 22.8002 25.3331 22.7657 25.278 22.7666Z" fill="#3F801C"/>
<path d="M24.9249 21.6374C24.9229 21.6311 24.9129 21.6274 24.8946 21.6274C24.8681 21.6279 24.8282 21.637 24.7851 21.6515C24.7565 21.6611 24.7266 21.6729 24.6984 21.686C24.6839 21.6929 24.6693 21.7001 24.6561 21.7074C24.6291 21.7224 24.6083 21.736 24.5955 21.7478C24.5818 21.7596 24.576 21.7696 24.578 21.776C24.8258 22.5146 24.7137 22.1766 24.961 22.9152C24.959 22.9089 24.9648 22.8989 24.9785 22.8871C24.9917 22.8753 25.0121 22.8616 25.039 22.8466C25.0527 22.8394 25.0668 22.8321 25.0814 22.8253C25.1096 22.8121 25.1394 22.8003 25.1681 22.7908C25.2112 22.7762 25.2511 22.7672 25.2776 22.7667C25.2959 22.7667 25.3058 22.7699 25.3079 22.7767L24.9249 21.6374Z" fill="#549830"/>
<path d="M24.7308 21.5067L24.3931 20.4665L24.4014 20.3897L24.3661 20.2811L24.296 20.1816L24.2313 20.2034L24.2275 20.3356L24.2641 20.4424L24.3118 20.4937L24.6611 21.5353L24.7246 21.508L24.7308 21.5067Z" fill="#D8D8D8"/>
<path d="M24.9201 22.3847C25.0973 22.3006 25.0583 22.0771 24.9288 22.073C25.04 21.9831 24.9832 21.7533 24.8052 21.7978C24.8002 21.5893 24.6546 21.6433 24.533 21.7242C24.4098 21.8069 24.3463 21.855 24.3243 21.9127C24.3023 21.9704 24.3073 22.1162 24.4023 22.1071C24.3542 22.1675 24.3384 22.1884 24.3542 22.2647C24.3625 22.3061 24.3836 22.3697 24.4629 22.3701C24.4152 22.4015 24.382 22.4278 24.4056 22.5155C24.4222 22.5768 24.462 22.6109 24.5122 22.6241C24.4625 22.6581 24.4878 22.7494 24.5015 22.7667C24.5504 22.8362 24.6446 22.8503 24.738 22.8566C24.6006 22.8362 24.7483 22.7667 24.7483 22.7667C25.0363 22.6622 25.0027 22.3574 24.9201 22.3847Z" fill="#FFC591"/>
<path opacity="0.3" d="M26.0661 22.8888C26.2105 22.6748 26.203 22.4836 26.1325 22.2583C26.0682 22.0538 25.9744 21.9589 25.7881 21.8885C25.6873 21.8503 25.2665 21.7377 25.1599 21.734C25.0284 21.7295 24.8574 21.6268 24.745 21.7013C24.6288 21.7786 24.6541 21.9339 24.7757 21.9912C24.874 22.0375 24.9487 22.0611 25.0076 22.0711C25.0744 22.0825 25.069 22.1838 25.1076 22.2869C25.1466 22.39 25.2657 22.767 25.2657 22.767C25.2657 22.767 25.4043 22.7543 25.1819 22.8692C25.3989 22.8043 25.6039 22.7561 25.7001 22.7852L26.0661 22.8888Z" fill="black"/>
<path d="M26.0866 22.861C26.231 22.6471 26.2235 22.4558 26.153 22.2305C26.0887 22.0261 25.9949 21.9316 25.8086 21.8608C25.7078 21.8226 25.287 21.71 25.1804 21.7063C25.0493 21.7018 24.8779 21.5996 24.7655 21.6741C24.6493 21.7513 24.6746 21.9066 24.7962 21.9639C25.048 22.0824 25.1443 22.0438 25.2157 22.0629C25.3223 22.0915 25.3916 22.2555 25.4513 22.3564C25.5202 22.4726 25.6663 22.583 25.7883 22.6203L26.0866 22.861Z" fill="#FFCEA1"/>
<path opacity="0.3" d="M24.9317 21.7059C24.9238 21.6945 24.9113 21.6881 24.8993 21.6822C24.8723 21.6686 24.8433 21.6641 24.82 21.6641C24.7968 21.6641 24.774 21.6781 24.774 21.6781C24.747 21.6936 24.7267 21.7208 24.7192 21.7517C24.7155 21.7676 24.7163 21.7876 24.7296 21.7972C24.7354 21.8012 24.7429 21.8022 24.7499 21.8035C24.7931 21.8094 24.8217 21.8126 24.8653 21.8144C24.8839 21.8153 24.92 21.8153 24.9308 21.7994C24.9383 21.789 24.9383 21.7754 24.9383 21.7622C24.9379 21.7449 24.9416 21.7199 24.9317 21.7059Z" fill="white"/>
<path opacity="0.5" d="M26.0216 39.7974C27.9448 38.5818 30.509 38.2316 31.7489 39.0151C32.9887 39.7987 32.4347 41.4195 30.5115 42.6351C28.5883 43.8506 26.0241 44.2009 24.7842 43.4173C23.544 42.6337 24.0979 41.0129 26.0216 39.7974Z" fill="black"/>
<path d="M25.8228 23.1348C25.7933 22.9626 25.8074 22.78 25.8726 22.6065C25.9477 22.407 26.078 22.2512 26.2365 22.1518C26.3095 22.1054 26.3883 22.0718 26.4705 22.0514C26.6364 22.0091 26.8165 22.0214 26.9862 22.0977L30.0194 23.4623C30.2683 23.574 30.443 23.8007 30.5127 24.0623C30.5214 24.0919 30.5281 24.1223 30.5335 24.1527C30.5434 24.2091 30.548 24.2658 30.5484 24.3235C30.548 24.3512 30.5476 24.3789 30.5455 24.4067C30.5434 24.4289 30.5409 24.4512 30.5372 24.4734C30.5273 24.5434 30.5098 24.6133 30.4841 24.6815C30.3049 25.1584 29.8069 25.3865 29.37 25.1902L28.1576 24.6442L27.6642 24.4226L26.3377 23.8257C26.0601 23.7008 25.8751 23.4346 25.8228 23.1348Z" fill="#D9B9AE"/>
<path d="M28.8982 24.4289C28.9513 24.9418 29.3737 25.3102 29.8422 25.2525C30.3106 25.1943 30.6347 24.5539 30.5816 24.041L30.1841 20.8549C30.131 20.342 29.7086 19.9736 29.2401 20.0313C28.7717 20.0895 28.4352 20.5519 28.4879 21.0648L28.8982 24.4289Z" fill="#D9B9AE"/>
<path d="M28.2661 40.0763C28.2661 39.5566 28.825 39.27 29.6549 39.5103L30.4989 39.2982C30.7781 39.2282 31.0441 39.4599 31.0441 39.7733V40.9907L31.0362 40.988C31.0474 41.1029 30.9897 41.2201 30.8507 41.3078C30.5935 41.4704 30.176 41.4704 29.9188 41.3078L28.4591 40.3852C28.325 40.3003 28.2645 40.1881 28.2703 40.0772L28.2661 40.0763Z" fill="black"/>
<path d="M30.4492 34.1033L28.1584 34.1369L28.1576 34.0815L28.1219 31.1938L28.0767 27.5316L30.3671 27.4976C30.3671 27.4976 30.6202 28.4365 30.6231 29.6107C30.626 30.785 30.4127 31.4822 30.4418 33.5686L30.4492 34.1033Z" fill="#0258BF"/>
<path d="M28.1586 34.0821C28.2072 33.6306 28.5076 32.8611 28.9105 32.7516C29.2441 32.6607 29.5889 32.8274 29.886 33.0173C30.0968 33.1518 30.3196 33.8768 30.449 34.1034C30.4702 35.1954 30.7723 37.35 31.154 39.6925C31.1719 39.8742 31.0802 40.0686 30.8743 40.2331C30.4627 40.562 29.7515 40.6455 29.286 40.4198C29.0528 40.3071 28.9254 40.1381 28.9076 39.9564C28.8209 39.7043 28.1101 34.5331 28.1586 34.0821Z" fill="#0258BF"/>
<path d="M30.9139 38.1704L30.8408 37.6821C30.8607 37.8652 30.7877 38.0564 30.5819 38.225C30.1699 38.562 29.4529 38.6556 28.9799 38.4335C28.7516 38.3263 28.6301 38.1645 28.6035 37.9883L28.6695 38.4589C28.696 38.646 28.8077 38.8105 29.0442 38.9213C29.5168 39.1434 30.2342 39.0499 30.6462 38.7128C30.8516 38.5443 30.9425 38.3585 30.9139 38.1704Z" fill="#FFC50C"/>
<path opacity="0.2" d="M29.4215 30.6772C28.7456 31.5912 28.4825 32.9744 28.1572 34.0809L28.6286 31.3014C28.9784 31.1719 29.1568 30.9666 29.4215 30.6772Z" fill="#1D1D1B"/>
<path d="M25.2939 41.9718C25.2939 41.4522 25.8529 41.1655 26.6831 41.4058L27.3761 41.2319C27.7321 41.1424 28.0719 41.4385 28.0719 41.8387V42.8871L28.064 42.8844C28.0752 42.9994 28.0176 43.1161 27.8786 43.2042C27.6213 43.3668 27.2039 43.3668 26.9466 43.2042L25.4869 42.2816C25.3525 42.1967 25.2923 42.0845 25.2981 41.9737L25.2939 41.9718Z" fill="black"/>
<path d="M25.6719 35.2406L27.949 35.5159C28.1922 32.2743 29.1473 30.2656 28.6519 29.3471C28.1565 28.4286 26.3345 28.6744 26.3345 28.6744L25.6719 35.2406Z" fill="#0258BF"/>
<path d="M25.668 35.2936C25.7493 34.848 26.0866 34.5086 26.4962 34.435C26.8356 34.3742 27.1667 34.5709 27.4489 34.7862C27.6493 34.9388 27.8372 35.2786 27.9493 35.5157C27.8667 36.7981 28.0721 39.5944 28.1924 41.6599C28.1816 41.842 28.0605 42.0169 27.8323 42.14C27.3754 42.3867 26.6617 42.3358 26.2381 42.026C26.0265 41.8711 25.9269 41.6808 25.9381 41.4986C25.87 41.2397 25.5862 35.7397 25.668 35.2936Z" fill="#0258BF"/>
<path d="M28.0667 39.5918C28.0651 39.7822 27.9721 39.9693 27.7477 40.112C27.2991 40.3972 26.5763 40.389 26.1332 40.0933C25.9191 39.9507 25.8149 39.7863 25.8037 39.5859L25.8315 40.0824C25.8431 40.2796 25.9186 40.4536 26.1419 40.6012C26.5883 40.8964 27.3161 40.9051 27.768 40.6198C27.9941 40.4772 28.1058 40.2968 28.0979 40.1061L28.0667 39.5918Z" fill="#FFC50C"/>
<path d="M30.4766 28.1977C30.6239 29.4032 26.419 30.6833 26.2713 29.2602C26.2169 28.736 25.6899 22.1557 25.6899 22.1557C25.8866 21.5743 26.2601 21.0932 27.6273 20.4282C28.3874 20.0584 28.7422 19.9989 29.2986 20.0248C30.3085 20.0711 30.4172 21.314 30.4413 22.7217C30.4426 22.7916 30.4467 22.8639 30.4496 22.9384C30.4521 23.0101 30.4546 23.0842 30.4571 23.1596C30.4961 24.2434 30.4766 26.6078 30.4766 28.1977Z" fill="#0258BF"/>
<path d="M26.8757 21.5897C27.6056 22.0167 27.4824 23.0078 27.4882 23.8954C27.494 24.7826 26.9114 24.7794 26.2604 24.55C26.1218 24.5028 25.9961 24.4764 25.8762 24.4583C25.7729 23.1845 25.6895 22.1552 25.6895 22.1552C25.7351 21.9776 25.8081 21.8123 25.9405 21.6451C26.1849 21.4638 26.504 21.3721 26.8757 21.5897Z" fill="#D9B9AE"/>
<path d="M26.332 21.2184C26.6138 20.9649 27.0258 20.7069 27.6237 20.4162C28.0685 20.1999 28.3764 20.1086 28.6652 20.0596C28.7233 20.0927 28.7805 20.1273 28.8411 20.1545C29.4295 20.4157 29.6843 20.9594 29.7859 21.5027C29.8353 21.768 29.7108 22.0365 29.4967 22.1718L29.078 22.4367C28.6648 22.6979 28.1104 22.5557 27.8461 22.121L27.7013 21.8829C27.4034 21.396 26.9905 21.1252 26.4578 21.1866C26.4183 21.1911 26.3706 21.2084 26.332 21.2184Z" fill="#E4C6BB"/>
<path d="M28.5513 18.2952C28.5376 18.5714 28.5235 18.8494 28.4667 19.1188C28.4098 19.3882 28.3073 19.6516 28.1359 19.8547C27.943 20.0832 27.6658 20.2203 27.3828 20.2376C27.2941 20.2435 27.2048 20.2376 27.1173 20.2185C27.0302 20.1994 26.9434 20.1681 26.8717 20.1104C26.7596 20.0209 26.6957 19.8801 26.6501 19.7338V19.7329C26.6397 19.7002 26.6306 19.668 26.6219 19.6353C26.5351 19.3091 26.4277 19.0075 26.3974 18.6691C26.3779 18.4528 26.4642 18.2275 26.4754 18.0018C26.487 17.7687 26.3932 17.7638 26.4368 17.3118C26.448 17.1968 26.4522 17.0792 26.4854 16.9688C26.5833 16.6431 26.8883 16.4283 27.1995 16.386C27.5107 16.3438 27.8239 16.4469 28.1077 16.5936C28.1853 16.634 28.2633 16.6781 28.3252 16.744C28.3841 16.8062 28.4268 16.8848 28.4812 16.9525C28.5484 17.0351 28.5716 17.88 28.5513 18.2952Z" fill="#FFCEA1"/>
<path opacity="0.5" d="M27.4361 19.5866C27.4365 19.7533 27.4327 19.9196 27.429 20.0863C27.4282 20.1222 27.4273 20.1594 27.4137 20.1917C27.4062 20.2094 27.3954 20.2248 27.3825 20.2371C27.2937 20.243 27.2045 20.2371 27.117 20.218C27.0298 20.199 26.9431 20.1676 26.8713 20.1099C26.7942 20.0486 26.7398 19.9627 26.6987 19.8674C26.99 20.0595 27.1991 19.8047 27.1987 18.8984C27.2493 19.3114 27.4356 19.1705 27.4361 19.5866Z" fill="#1D1D1B"/>
<path d="M28.9639 18.1523H27.1992V20.653H28.9639V18.1523Z" fill="#FFCEA1"/>
<path d="M28.71 20.2573C29.0556 20.4758 29.0556 20.8296 28.71 21.0481C28.3643 21.2666 27.8042 21.2666 27.4589 21.0481C27.1133 20.8296 27.1133 20.4758 27.4589 20.2573C27.8042 20.0392 28.3647 20.0392 28.71 20.2573Z" fill="#FFCEA1"/>
<path d="M26.8014 17.5651C27.0612 17.73 27.1786 18.0398 27.206 18.3673C27.2334 18.6948 27.189 19.0255 27.2159 19.353C27.2425 19.6805 27.3599 20.0267 27.6184 20.1938C27.7993 20.311 28.1931 20.2919 28.5217 20.2024C28.8504 20.113 29.1143 19.9767 29.1848 19.6819C29.3524 18.981 29.7329 18.3078 29.4968 17.2684C29.262 16.235 28.3031 16.0788 27.9798 16.0551C27.0948 15.9906 26.018 16.5766 26.4363 17.3384C26.4994 17.4551 26.7122 17.5083 26.8014 17.5651Z" fill="#2F2F2F"/>
<path d="M27.2734 18.1524C27.1764 18.1556 27.1054 18.2524 27.0759 18.3459C27.0394 18.4631 27.0415 18.5871 27.0444 18.7089C27.0477 18.8638 27.0523 19.0241 27.122 19.1604C27.1407 19.1972 27.166 19.2331 27.2037 19.2485C27.2606 19.2717 27.3299 19.2399 27.3685 19.1899C27.4071 19.14 27.4216 19.0764 27.4328 19.015C27.4656 18.8374 27.4805 18.6566 27.4772 18.4768C27.4759 18.405 27.4709 18.3309 27.4398 18.2669C27.4087 18.2024 27.3452 18.1501 27.2734 18.1524Z" fill="#FFCEA1"/>
<path d="M27.3135 22.6905L27.2206 23.2542L26.7301 26.2232C26.7094 26.3481 26.6667 26.463 26.6077 26.5638C26.4525 26.8259 26.1841 26.9913 25.8916 26.9913C25.8409 26.9913 25.7895 26.9863 25.738 26.9759C25.4903 26.9268 25.2866 26.7651 25.1638 26.5475C25.0567 26.3581 25.0107 26.1264 25.0501 25.8906L25.6339 22.3575C25.7082 21.9064 26.0679 21.5894 26.4729 21.5894C26.5231 21.5894 26.5741 21.5939 26.6256 21.6043C27.0895 21.697 27.3973 22.1831 27.3135 22.6905Z" fill="#E4C6BB"/>
<path d="M22.3295 24.3546C22.195 24.2569 21.9577 24.0525 21.9266 23.8613C21.9158 23.795 21.9278 23.7337 21.971 23.7059C22.0241 23.6719 22.1021 23.7168 22.1465 23.7536C22.2324 23.8254 22.3187 23.8972 22.4042 23.969C22.4996 24.0484 22.6095 24.2292 22.7432 24.3478C22.5971 24.4128 22.4515 24.4436 22.3295 24.3546Z" fill="#FFCEA1"/>
<path d="M21.4193 25.0081C21.2061 24.98 21.1135 24.8005 21.1982 24.6929C21.0347 24.6842 20.96 24.4167 21.131 24.3327C20.9978 24.2477 21.0667 24.0324 21.2422 24.021C21.4177 24.0097 21.5886 24.0215 21.6554 24.0215C21.8127 24.022 21.9753 24.0733 22.0799 24.1046C22.2272 24.1487 22.6621 24.2886 22.7853 24.3876C23.0903 24.6329 22.9538 25.5223 22.9538 25.5223C22.9538 25.5223 22.5907 25.5346 22.2712 25.4637C21.9517 25.3929 21.8588 25.2711 21.6073 25.2525C21.3583 25.2343 21.3364 25.0413 21.4193 25.0081Z" fill="#FFCEA1"/>
<path d="M25.6365 26.9663L25.5868 26.9499L22.7669 26.0069C22.413 25.8951 22.2167 25.7125 22.2503 25.3396C22.2503 25.3396 22.3482 23.8819 23.1756 24.189L26.0602 25.1547L26.1332 25.1788L26.1336 25.1792C26.4515 25.2851 26.6718 25.5758 26.7257 25.911C26.7481 26.0514 26.7415 26.1995 26.7013 26.3453C26.5643 26.8386 26.0876 27.1166 25.6365 26.9663Z" fill="#E4C6BB"/>
<path d="M27.7402 29.8852C27.6556 30.2036 27.6398 30.368 27.6398 30.368L26.1278 29.7834C26.1278 29.7834 26.1174 29.4155 26.2108 28.9276C26.2261 28.8499 26.3041 29.4164 27.7402 29.8852Z" fill="#493737"/>
<path d="M27.633 30.1241C28.974 30.3135 30.0375 29.8797 30.6163 29.2792C30.6163 29.2792 30.6151 29.1243 30.5985 28.8985C30.5815 28.6655 30.5578 28.5474 30.5578 28.5474C30.3645 29.2097 28.9213 29.8879 27.5068 29.5835C26.4927 29.365 26.2417 28.9158 26.2218 28.7341C26.1795 29.0448 26.2745 29.3187 26.2745 29.3187C26.2745 29.3187 26.6961 29.9919 27.633 30.1241Z" fill="#493737"/>
<path d="M29.3376 17.7866L29.516 17.674C30.1765 17.2565 30.0936 16.5274 29.3309 16.0455L29.2044 15.9655C28.4417 15.4836 27.2882 15.4313 26.6281 15.8488L26.4496 15.9614C25.7895 16.3789 25.8721 17.108 26.6347 17.5899L26.7613 17.6699C27.5239 18.1514 28.6774 18.2041 29.3376 17.7866Z" fill="#E6E6E6"/>
<path d="M29.9619 16.9685C29.9619 16.9685 29.9606 16.9662 29.9602 16.9653C29.9606 17.231 29.8158 17.4845 29.5158 17.6739L29.3374 17.7866C28.6772 18.204 27.5237 18.1518 26.7611 17.6698L26.6345 17.5899C26.213 17.3232 26.0001 16.9812 26.0047 16.6582L26.0034 16.6605C26.0034 16.6605 26.0034 16.7645 26.0034 16.7977C26.0026 17.1184 26.2163 17.4568 26.6341 17.7211L26.7607 17.8011C27.5233 18.2831 28.6768 18.3353 29.337 17.9178L29.5154 17.8052C29.8154 17.6158 29.9619 17.3618 29.9614 17.0956C29.9614 17.0475 29.9619 16.9685 29.9619 16.9685Z" fill="#C7C7C7"/>
<path d="M29.5838 16.0429C29.4896 15.8607 29.3821 15.7417 29.2958 15.6463C29.2112 15.5523 29.0946 15.4696 29.017 15.4151C28.505 15.0826 27.9095 15.0717 27.3838 15.3856C27.2403 15.471 26.9701 15.6699 26.7726 16.0393C26.5672 16.4231 26.5564 16.7502 26.5498 16.9455C26.5506 17.2017 26.7008 17.4583 27.0029 17.6573C27.6249 18.067 28.6552 18.0788 29.3037 17.6827C29.6373 17.4792 29.8049 17.2071 29.8045 16.9355C29.7975 16.5943 29.7315 16.3277 29.5838 16.0429Z" fill="#EBEBEB"/>
<path opacity="0.5" d="M29.4609 17.5697C29.4485 16.7284 29.1759 16.0462 28.7045 15.6051C28.4149 15.3344 28.073 15.2431 27.6875 15.2467C27.5846 15.2826 27.483 15.3266 27.3842 15.3852C27.3348 15.4148 27.2701 15.4588 27.1987 15.517C27.7066 15.4293 28.156 15.5515 28.497 15.8708C28.8995 16.2469 29.1643 17.0028 29.1759 17.7528C29.2199 17.731 29.263 17.7074 29.3041 17.6824C29.3618 17.6469 29.4128 17.6088 29.4609 17.5697Z" fill="white"/>
<path d="M27.9553 30.3526C27.8814 31.3461 27.8723 31.7576 27.8192 32.0252C27.7661 32.2927 27.6063 32.2759 26.998 32.0284C26.3898 31.7808 25.8935 31.4587 25.7375 31.0317C25.6109 30.6107 25.5528 30.081 25.6678 29.4178C25.7516 28.9354 26.0599 29.4896 26.9113 29.8334C27.6831 30.145 27.9852 29.9502 27.9553 30.3526Z" fill="#493737"/>
<path d="M27.4732 30.3723C27.4732 30.3723 27.4732 31.6019 27.4732 31.6074C27.4732 31.6128 27.4699 31.6183 27.4636 31.6224L27.4147 31.6533C27.4018 31.6614 27.3811 31.6614 27.3678 31.6533L27.2703 31.5919C27.2636 31.5878 27.2607 31.5824 27.2607 31.5774C27.2607 31.5719 27.2607 30.3423 27.2607 30.3423L27.4732 30.3723Z" fill="#C92C2C"/>
<path d="M27.3661 30.2957L27.4636 30.3571C27.4703 30.3612 27.4732 30.3666 27.4732 30.3716C27.4732 30.3771 27.4699 30.3825 27.4636 30.3866L27.4147 30.4175C27.4018 30.4257 27.3811 30.4257 27.3678 30.4175L27.2703 30.3557C27.2636 30.3516 27.2607 30.3462 27.2607 30.3407C27.2607 30.3353 27.2641 30.3303 27.2703 30.3262L27.3192 30.2953C27.3321 30.2876 27.3533 30.2876 27.3661 30.2957Z" fill="#AB1818"/>
<path d="M27.4732 29.5768C27.4732 29.5768 27.4732 30.3667 27.4732 30.3722C27.4732 30.3776 27.4699 30.3831 27.4636 30.3872L27.4147 30.4181C27.4018 30.4262 27.3811 30.4262 27.3678 30.4181L27.2703 30.3563C27.2636 30.3522 27.2607 30.3467 27.2607 30.3413C27.2607 30.3358 27.2607 29.5459 27.2607 29.5459L27.4732 29.5768Z" fill="#CFBD80"/>
<path d="M27.3661 29.5003L27.4636 29.5617C27.4703 29.5657 27.4732 29.5712 27.4732 29.5762C27.4732 29.5816 27.4699 29.5871 27.4636 29.5912L27.4147 29.6221C27.4018 29.6302 27.3811 29.6302 27.3678 29.6221L27.2703 29.5607C27.2636 29.5567 27.2607 29.5512 27.2607 29.5458C27.2607 29.5403 27.2641 29.5353 27.2703 29.5308L27.3192 29.4999C27.3321 29.4922 27.3533 29.4922 27.3661 29.5003Z" fill="#AB1818"/>
<path d="M27.6029 29.7088L27.7552 29.6125L27.5552 29.4067L27.4033 29.503L27.6029 29.7088Z" fill="#363636"/>
<path d="M27.4033 29.5028L27.5552 29.4065L27.21 29.188L27.0581 29.2843L27.4033 29.5028Z" fill="#262626"/>
<path d="M27.3647 29.3216L27.4622 29.3829C27.4684 29.387 27.4717 29.3925 27.4717 29.3975C27.4717 29.4029 27.4684 29.4084 27.4622 29.4125L27.4132 29.4434C27.4004 29.4515 27.3792 29.4515 27.3663 29.4434L27.2688 29.3816C27.2626 29.3775 27.2593 29.372 27.2593 29.367C27.2593 29.3616 27.2626 29.3561 27.2688 29.3521L27.3178 29.3212C27.3306 29.3134 27.3518 29.3134 27.3647 29.3216Z" fill="black"/>
<path d="M27.6029 29.7266V29.7084L27.4033 29.5027L27.0581 29.2842V29.4618L27.4033 29.6803L27.6029 29.7266Z" fill="#4A4A4A"/>
<path d="M27.603 29.7268L27.7553 29.6305V29.6123L27.603 29.7086V29.7268Z" fill="#262626"/>
<path d="M27.5908 30.243L27.2 30.1267C27.1477 30.1113 27.1008 30.1458 27.0975 30.2026L27.0095 31.6535C27.0062 31.7057 27.0406 31.7579 27.0883 31.7738L27.4647 31.8979C27.5174 31.9151 27.5655 31.8815 27.5697 31.8238L27.6721 30.3652C27.6763 30.3116 27.6402 30.2576 27.5908 30.243Z" fill="#A24D28"/>
<path d="M25.9312 30.6469V29.1533L25.9544 29.2083V30.7019L25.9312 30.6469Z" fill="#A00E0F"/>
<path d="M26.1045 30.6767V29.1831L26.041 29.2231V30.7167L26.1045 30.6767Z" fill="#D52D2D"/>
<path d="M26.0413 30.7166V29.223L25.9546 29.2085V30.7021L26.0413 30.7166Z" fill="#BF1518"/>
<path d="M26.048 29.0459L26.0816 29.1281L26.1048 29.1831L26.0459 29.0586L26.048 29.0459Z" fill="#DED397"/>
<path d="M26.0457 29.0586L26.1046 29.1831L26.0411 29.223L26.0249 29.069L26.0457 29.0586Z" fill="#E8E2B5"/>
<path d="M26.0251 29.0694L26.0413 29.2234L25.9546 29.2088L25.9957 29.0635L26.0251 29.0694Z" fill="#DED397"/>
<path d="M25.9955 29.063L25.9897 29.0435L25.9312 29.1534L25.9544 29.2083L25.9955 29.063Z" fill="#D9C879"/>
<path d="M26.0309 29.0682C26.0467 29.0632 26.0521 29.0523 26.0467 29.0437L26.0305 29.0096C26.0251 28.9987 26.011 28.9987 26.006 29.0096L25.9898 29.0437C25.9844 29.0528 25.9898 29.0632 26.0056 29.0682C26.0139 29.0705 26.0226 29.0705 26.0309 29.0682Z" fill="#2F2F2F"/>
<path d="M26.8824 30.016C26.3749 29.8089 26.2251 29.6885 25.9164 29.4914C25.8579 29.4541 25.7907 29.4777 25.7745 29.5418C25.7002 29.8339 25.7434 30.7033 25.8268 30.9563C25.8799 31.118 26.4815 31.4719 26.7778 31.6268C26.8355 31.6568 26.8952 31.6236 26.8998 31.5582L26.9952 30.2C27.0006 30.1232 26.9521 30.0446 26.8824 30.016Z" fill="#A24D28"/>
</svg>
