<svg width="33" height="56" viewBox="0 0 33 56" fill="none" xmlns="http://www.w3.org/2000/svg">
<path opacity="0.4" fill-rule="evenodd" clip-rule="evenodd" d="M14.6049 35.5396C22.6695 35.5396 29.2095 39.3357 29.2095 44.0172C29.2095 48.6988 22.6691 52.4953 14.6049 52.4953C6.54037 52.4953 0 48.6992 0 44.0172C0 39.3357 6.54037 35.5396 14.6049 35.5396Z" fill="#D2D2E1"/>
<path fill-rule="evenodd" clip-rule="evenodd" d="M1.53389 48.1978V10.6606L0.818848 10.2124L0.820785 47.7457L1.53389 48.1978Z" fill="#AFAFAF"/>
<path fill-rule="evenodd" clip-rule="evenodd" d="M16.5027 1.21826L1.53369 10.6606V48.1974L16.507 38.7516L16.5027 1.21826Z" fill="#EFD0D0"/>
<path fill-rule="evenodd" clip-rule="evenodd" d="M16.5026 1.21842L1.5335 10.6608L0.818848 10.2126L15.767 0.768066L16.5026 1.21842Z" fill="#E3E3E3"/>
<path fill-rule="evenodd" clip-rule="evenodd" d="M15.012 50.3361L10.9994 47.7837L10.6318 48.6645L14.656 51.2156L15.012 50.3361Z" fill="#A59828"/>
<path fill-rule="evenodd" clip-rule="evenodd" d="M3.36816 52.6515L7.88464 55.5062L11.3956 53.2871L12.2346 52.0756L14.8015 50.4676L14.659 51.2245L14.8038 51.1329L15.5355 50.0079L10.6247 48.1807C9.44139 48.9194 3.36816 52.1443 3.36816 52.6515Z" fill="#C5B945"/>
<path fill-rule="evenodd" clip-rule="evenodd" d="M3.36818 52.6515L7.88465 55.5062L7.88504 55.5058L7.81377 54.567C7.93578 48.5806 6.2849 52.2118 3.02344 51.8038L3.36818 52.6515Z" fill="#A59828"/>
<path fill-rule="evenodd" clip-rule="evenodd" d="M2.84277 51.8614L7.74117 54.89L15.7434 49.8773V49.0444L2.84393 50.965L2.84277 51.8614Z" fill="#DACF69"/>
<path fill-rule="evenodd" clip-rule="evenodd" d="M2.84277 51.8615L7.74117 54.8897L7.74156 54.8892V49.9863C5.60456 49.9863 4.60598 50.9807 2.84393 50.9646L2.84277 51.8615Z" fill="#C5B945"/>
<path fill-rule="evenodd" clip-rule="evenodd" d="M2.84375 50.9647L7.74099 54.0569L15.7432 49.0446L10.8127 45.9282L2.84375 50.9647Z" fill="#F6F0AB"/>
<path fill-rule="evenodd" clip-rule="evenodd" d="M3.25195 50.9531L7.75409 53.7994L15.3078 49.0233L10.8107 46.1787L3.25195 50.9531Z" fill="#DACF69"/>
<path fill-rule="evenodd" clip-rule="evenodd" d="M10.1392 52.2915L6.88312 50.2285L4.49512 51.7394L7.75387 53.7995L10.1392 52.2915Z" fill="#88BD2C"/>
<path fill-rule="evenodd" clip-rule="evenodd" d="M15.152 49.1551L10.859 46.4395L7.58789 48.8638L11.5861 51.3932L15.152 49.1551Z" fill="#F6F0AB"/>
<path fill-rule="evenodd" clip-rule="evenodd" d="M7.58757 48.8633L11.5858 51.3928L10.139 52.2913L6.87988 50.2342L7.58757 48.8633Z" fill="#E6DC80"/>
<path fill-rule="evenodd" clip-rule="evenodd" d="M28.5698 40.9775C29.9275 41.0785 30.8838 41.8575 30.706 42.7179C30.5282 43.5783 29.2829 44.194 27.9257 44.0935C26.5684 43.993 25.612 43.2136 25.7898 42.3532C25.9676 41.4928 27.2129 40.877 28.5698 40.9775Z" fill="#979797"/>
<path fill-rule="evenodd" clip-rule="evenodd" d="M28.5698 40.8623C29.9275 40.9632 30.8838 41.7422 30.706 42.6026C30.5282 43.463 29.2829 44.0787 27.9257 43.9782C26.5684 43.8773 25.612 43.0983 25.7898 42.2379C25.9676 41.3775 27.2129 40.7618 28.5698 40.8623Z" fill="#E3E3E3"/>
<path fill-rule="evenodd" clip-rule="evenodd" d="M30.8205 38.3822C30.8205 37.5061 29.5593 37.1562 28.2706 37.1562C27.5645 37.1562 25.6726 37.889 25.6719 38.3957C25.692 38.735 25.9004 42.2758 25.912 42.49C26.1805 44.3473 30.3243 44.2956 30.5792 42.4259L30.8205 38.3822Z" fill="#979797"/>
<path fill-rule="evenodd" clip-rule="evenodd" d="M25.8799 41.9057C26.1595 42.6046 27.1558 43.1592 28.2454 43.1592C28.9949 43.1592 30.291 42.8204 30.6094 41.9168L30.7856 38.959C29.8819 40.4046 26.6263 40.4771 25.7056 38.9955C25.752 39.8164 25.8469 41.3689 25.8799 41.9057Z" fill="#668A22"/>
<path fill-rule="evenodd" clip-rule="evenodd" d="M30.6919 40.5405C30.3603 42.2847 26.457 42.545 25.8066 40.6995L25.8841 41.9747C26.4512 43.6874 30.0171 43.5585 30.6063 41.9764L30.6919 40.5405Z" fill="#CACACA"/>
<path fill-rule="evenodd" clip-rule="evenodd" d="M28.5961 36.7456C30.065 36.8545 31.1 37.6976 30.9074 38.6284C30.7149 39.5592 29.3681 40.2253 27.8993 40.1164C26.4309 40.0074 25.3963 39.1644 25.5884 38.2336C25.7809 37.3028 27.1281 36.6366 28.5961 36.7456Z" fill="#979797"/>
<path fill-rule="evenodd" clip-rule="evenodd" d="M28.5961 36.6206C30.065 36.7295 31.1 37.5725 30.9074 38.5033C30.7149 39.4341 29.3681 40.1003 27.8993 39.9913C26.4309 39.8824 25.3963 39.0393 25.5884 38.1085C25.7809 37.1782 27.1281 36.5116 28.5961 36.6206Z" fill="#E3E3E3"/>
<path fill-rule="evenodd" clip-rule="evenodd" d="M28.4888 37.1398C29.5052 37.2153 30.2214 37.7988 30.0881 38.4425C29.9549 39.0867 29.0229 39.5476 28.0065 39.4721C26.9905 39.3967 26.2743 38.8136 26.4076 38.1694C26.5408 37.5257 27.4728 37.0648 28.4888 37.1398Z" fill="#CACACA"/>
<path fill-rule="evenodd" clip-rule="evenodd" d="M28.4893 37.2893C29.3829 37.3555 30.0445 37.8147 30.1003 38.3626C30.0976 38.3889 30.0941 38.4156 30.0883 38.4423C29.9554 39.0865 29.0235 39.5478 28.0071 39.4719C27.1135 39.4058 26.4523 38.9465 26.3965 38.3987C26.3992 38.3719 26.4031 38.3456 26.4085 38.3189C26.541 37.6752 27.4729 37.2139 28.4893 37.2893Z" fill="#979797"/>
<path fill-rule="evenodd" clip-rule="evenodd" d="M28.5967 37.9434C29.1836 37.9871 29.7007 38.1474 30.0985 38.384C30.0958 38.4035 30.0927 38.423 30.0888 38.443C29.9559 39.0871 29.024 39.5485 28.0076 39.4725C27.1233 39.4068 26.4667 38.9565 26.3989 38.4162C26.9648 38.0702 27.7608 37.8811 28.5967 37.9434Z" fill="#668A22"/>
<path fill-rule="evenodd" clip-rule="evenodd" d="M28.0842 37.9355C28.9437 38.0891 29.5154 38.6212 29.3953 39.2022L29.3911 39.2209C29.0126 39.4113 28.5207 39.5105 28.0071 39.4723C27.1228 39.4066 26.4662 38.9562 26.3984 38.416C26.8474 38.1416 27.4412 37.9657 28.0842 37.9355Z" fill="#88BD2C"/>
<path fill-rule="evenodd" clip-rule="evenodd" d="M30.0567 39.745C28.2671 40.2564 26.7941 41.8759 26.6108 43.4644C27.8713 44.2281 30.3824 43.8685 30.5792 42.4259L30.719 40.083C30.6664 39.7268 30.2934 39.6776 30.0567 39.745Z" fill="#CACACA"/>
<path fill-rule="evenodd" clip-rule="evenodd" d="M30.057 39.7448C28.5188 40.1845 27.2146 41.4423 26.7622 42.7959C27.1817 43.021 27.7023 43.1593 28.2457 43.1593C28.9953 43.1593 30.2913 42.8205 30.6097 41.9168L30.719 40.0832C30.6496 39.7138 30.2937 39.6774 30.057 39.7448Z" fill="#88BD2C"/>
<path fill-rule="evenodd" clip-rule="evenodd" d="M27.2255 41.8492C27.0074 42.1837 26.8389 42.5365 26.7305 42.8953C27.994 43.5407 30.1589 43.1781 30.6063 41.9764L30.6919 40.5405C30.4676 41.7211 28.6064 42.2215 27.2255 41.8492Z" fill="#E3E3E3"/>
<path fill-rule="evenodd" clip-rule="evenodd" d="M30.672 43.5003C31.5137 43.5627 32.1071 44.0461 31.9967 44.5795C31.8863 45.113 31.1143 45.495 30.2726 45.4327C29.4309 45.3704 28.8379 44.887 28.9483 44.3535C29.0583 43.82 29.8307 43.438 30.672 43.5003Z" fill="#979797"/>
<path fill-rule="evenodd" clip-rule="evenodd" d="M30.672 43.4291C31.5137 43.4914 32.1071 43.9749 31.9967 44.5083C31.8863 45.0418 31.1143 45.4239 30.2726 45.3611C29.4309 45.2988 28.8379 44.8153 28.9483 44.2819C29.0583 43.7484 29.8307 43.3664 30.672 43.4291Z" fill="#E3E3E3"/>
<path fill-rule="evenodd" clip-rule="evenodd" d="M32.0894 41.8193C32.0894 41.2689 31.2969 41.0488 30.487 41.0488C30.0434 41.0488 28.8543 41.5094 28.8535 41.8278C28.8659 42.0411 28.9972 44.2665 29.0046 44.401C29.1735 45.5684 31.7776 45.5357 31.938 44.3607L32.0894 41.8193Z" fill="#979797"/>
<path fill-rule="evenodd" clip-rule="evenodd" d="M28.9841 44.0339C29.16 44.4732 29.7859 44.8218 30.4708 44.8218C30.9418 44.8218 31.7564 44.6089 31.9566 44.0407L32.0674 42.1816C31.4996 43.0904 29.4532 43.1358 28.8745 42.2045C28.9036 42.721 28.9632 43.6964 28.9841 44.0339Z" fill="#D39F25"/>
<path fill-rule="evenodd" clip-rule="evenodd" d="M32.0081 43.1758C31.7997 44.272 29.3466 44.4356 28.938 43.2754L28.9868 44.0769C29.3432 45.1536 31.5843 45.0721 31.9547 44.0782L32.0081 43.1758Z" fill="#CACACA"/>
<path fill-rule="evenodd" clip-rule="evenodd" d="M30.6914 40.791C31.6145 40.8593 32.2652 41.3893 32.144 41.9741C32.0231 42.5589 31.1764 42.9778 30.2533 42.9095C29.3307 42.8413 28.6799 42.3112 28.8012 41.726C28.922 41.1417 29.7684 40.7227 30.6914 40.791Z" fill="#979797"/>
<path fill-rule="evenodd" clip-rule="evenodd" d="M30.6914 40.7124C31.6145 40.7806 32.2652 41.3107 32.144 41.8955C32.0231 42.4802 31.1764 42.8992 30.2533 42.8309C29.3307 42.7627 28.6799 42.2326 28.8012 41.6478C28.922 41.0631 29.7684 40.6441 30.6914 40.7124Z" fill="#E3E3E3"/>
<path fill-rule="evenodd" clip-rule="evenodd" d="M30.6375 40.9728C31.3336 41.0246 31.8243 41.424 31.7333 41.865C31.6419 42.3065 31.0035 42.622 30.3075 42.5707C29.6114 42.5189 29.121 42.1195 29.212 41.678C29.3031 41.237 29.9414 40.9211 30.6375 40.9728Z" fill="#CACACA"/>
<path fill-rule="evenodd" clip-rule="evenodd" d="M31.6095 42.6754C30.4847 42.9968 29.5589 44.0145 29.4438 45.0132C30.236 45.4932 31.8144 45.2672 31.938 44.3606L32.0259 42.8878C31.9926 42.6639 31.7579 42.633 31.6095 42.6754Z" fill="#CACACA"/>
<path fill-rule="evenodd" clip-rule="evenodd" d="M31.6093 42.6755C30.6429 42.9519 29.8229 43.7424 29.5386 44.593C29.8024 44.7347 30.1293 44.8212 30.4709 44.8212C30.9419 44.8212 31.7565 44.6083 31.9568 44.0401L32.0253 42.8875C31.9816 42.6564 31.7577 42.6331 31.6093 42.6755Z" fill="#F0CA30"/>
<path fill-rule="evenodd" clip-rule="evenodd" d="M29.8296 43.9985C29.6925 44.2088 29.5867 44.4306 29.5186 44.6562C30.313 45.062 31.6734 44.8339 31.9546 44.0787L32.0084 43.1763C31.8674 43.9179 30.6976 44.2322 29.8296 43.9985Z" fill="#E3E3E3"/>
<path fill-rule="evenodd" clip-rule="evenodd" d="M30.6191 41.0806C31.2373 41.1264 31.6731 41.4813 31.5921 41.8731C31.5111 42.265 30.9441 42.5457 30.3255 42.4999C29.7073 42.4541 29.2715 42.0992 29.3525 41.7073C29.4338 41.3151 30.0005 41.0348 30.6191 41.0806Z" fill="#E3E3E3"/>
<path fill-rule="evenodd" clip-rule="evenodd" d="M13.0693 40.9206V31.7576L12.5495 32.0354C11.9363 32.3632 11.4347 32.0825 11.4347 31.4112V6.9497C10.6519 7.34067 9.78497 8.11456 8.97231 8.5594C8.12519 9.02373 6.82137 9.41301 6.05442 10.0063V23.3529C6.05442 23.9563 5.60355 24.7366 5.05236 25.0873L1.53369 27.3246V12.6439V10.6606L16.5027 1.21777L16.507 38.7511L13.0693 40.9206Z" fill="#668A22"/>
<path fill-rule="evenodd" clip-rule="evenodd" d="M26.7475 26.3296C25.8922 26.4199 24.2263 30.1719 23.751 31.2906C23.7816 31.8117 24.2634 32.1234 24.5509 31.7825C24.8979 31.4878 26.8846 29.3955 27.8003 27.935C28.2717 27.1264 27.4339 26.6269 26.7475 26.3296Z" fill="#CB6117"/>
<path d="M26.2197 35.5564L26.2177 35.5538L9.08572 11.7598C8.90134 11.5037 9.59354 11.1835 9.71671 11.3531L26.87 35.173C26.8987 35.2095 26.9049 35.2612 26.8816 35.3219C26.8278 35.4635 26.6031 35.6068 26.4532 35.631C26.3033 35.6552 26.2506 35.6187 26.2197 35.5564Z" fill="#487AB1"/>
<path fill-rule="evenodd" clip-rule="evenodd" d="M9.48217 11.2755C9.29973 11.3047 9.1076 11.443 9.05376 11.5846C8.99992 11.7263 9.10373 11.8174 9.28617 11.7882C9.46861 11.7589 9.66074 11.6207 9.71496 11.479C9.76881 11.3374 9.66461 11.2462 9.48217 11.2755Z" fill="#558BC5"/>
<path d="M9.75763 11.4907L26.8157 35.1796C26.8807 35.2703 26.8381 35.3361 26.7893 35.2686L9.7251 11.5713C9.73401 11.5565 9.74175 11.5408 9.74756 11.5255C9.75182 11.5128 9.75531 11.5017 9.75763 11.4907Z" fill="#77B3EC"/>
<path fill-rule="evenodd" clip-rule="evenodd" d="M5.86867 9.98482L5.88455 10.0124L9.70109 7.55881C9.81226 7.48714 9.9091 7.0033 9.69877 6.63777C9.48844 6.27223 9.14835 6.09159 8.93918 6.2345L5.12109 8.6923L5.13775 8.72156C5.03084 8.91069 5.66609 10.0073 5.86867 9.98482Z" fill="#88BD2C"/>
<path fill-rule="evenodd" clip-rule="evenodd" d="M5.12332 9.61306C5.33365 9.97859 5.67374 10.1592 5.88252 10.0163C6.09169 9.87343 6.09053 9.46082 5.8802 9.09529C5.66987 8.72975 5.32978 8.54911 5.121 8.69202C4.91183 8.83535 4.91299 9.24752 5.12332 9.61306Z" fill="#668A22"/>
<path fill-rule="evenodd" clip-rule="evenodd" d="M5.28806 9.50062C5.40698 9.70713 5.59872 9.8089 5.71686 9.72833C5.835 9.64776 5.83422 9.41454 5.7157 9.20845C5.59717 9.00194 5.40504 8.90016 5.2869 8.98073C5.16876 9.0613 5.16954 9.29411 5.28806 9.50062Z" fill="#979797"/>
<path d="M9.37944 11.5831C9.35737 11.5831 9.33606 11.5725 9.32134 11.5522L8.17828 9.97383C8.11979 9.89242 8.02915 9.89496 7.87227 9.931L6.15516 10.3152C6.0254 10.3445 5.8294 10.389 5.70313 10.2143L5.26891 9.61253C5.24335 9.57734 5.24916 9.52646 5.28131 9.49847L5.41533 9.38227C5.44748 9.35429 5.49396 9.36065 5.51953 9.39542C5.54509 9.43062 5.53967 9.48194 5.50752 9.50992L5.4316 9.57607L5.82011 10.1142C5.87782 10.1948 5.96846 10.1918 6.12534 10.1562L7.84283 9.77198C7.9726 9.74272 8.16859 9.69861 8.29487 9.87375L9.43755 11.4517C9.46311 11.4868 9.45769 11.5382 9.42554 11.5662C9.41198 11.5768 9.39571 11.5831 9.37944 11.5831Z" fill="#666666"/>
<path fill-rule="evenodd" clip-rule="evenodd" d="M21.7847 46.9102C21.3625 47.2363 21.6193 48.2159 22.0644 48.3804C23.075 48.7545 23.8361 49.2192 24.5031 49.4563C24.7394 49.5402 25.3018 49.6174 25.5397 49.1378C25.5985 48.9529 25.2279 48.2719 25.2279 48.2719C24.0402 48.4127 22.3103 46.5931 21.7847 46.9102Z" fill="#9B9B9A"/>
<path fill-rule="evenodd" clip-rule="evenodd" d="M23.1697 46.9883C22.6472 47.1329 22.2025 46.7309 22.0278 46.7614C21.8884 46.7839 21.6955 46.9412 21.6552 47.1796C21.5874 47.5777 21.7885 47.9776 22.1131 48.1549C22.4617 48.3453 22.8595 48.2579 23.4502 48.5187C23.7748 48.662 24.5696 49.1688 24.869 49.1734C25.1696 49.1785 25.4245 48.964 25.4539 48.7197C25.4322 47.2432 24.1714 46.7114 23.1697 46.9883Z" fill="#3E3E3D"/>
<path fill-rule="evenodd" clip-rule="evenodd" d="M22.1939 40.7796C22.1083 40.5035 21.7581 39.4362 21.7101 39.049C20.6554 34.5914 20.4315 33.1861 20.7654 30.4191C21.6109 30.1066 23.6286 31.0569 24.3902 30.2236C25.9605 31.9436 23.9714 38.1547 24.4459 40.3144C24.1039 40.9437 22.9477 41.5017 22.1939 40.7796Z" fill="#314A8D"/>
<path fill-rule="evenodd" clip-rule="evenodd" d="M25.3908 48.211C24.6696 48.9522 23.9127 48.7088 23.4762 47.6572C23.4591 45.9826 22.6697 42.7704 22.1445 40.6179C21.8369 39.2885 23.7872 38.5943 24.4631 40.3147C25.2994 42.2263 25.3079 47.435 25.3908 48.211Z" fill="#314A8D"/>
<path fill-rule="evenodd" clip-rule="evenodd" d="M17.5445 48.63C17.1223 48.9561 17.3791 49.9356 17.8241 50.1002C18.8347 50.4742 19.5963 50.9389 20.2629 51.176C20.4992 51.2599 21.0616 51.3371 21.299 50.8575C21.3583 50.6726 20.9872 49.9916 20.9872 49.9916C19.7996 50.1324 18.0701 48.3128 17.5445 48.63Z" fill="#9B9B9A"/>
<path fill-rule="evenodd" clip-rule="evenodd" d="M18.929 48.7086C18.4034 48.8409 17.9618 48.4512 17.7871 48.4817C17.6477 48.5042 17.4548 48.6615 17.4145 48.8994C17.3467 49.2976 17.5477 49.6975 17.8727 49.8747C18.2213 50.0647 18.6191 49.9777 19.2099 50.2381C19.5344 50.3814 20.3293 50.8882 20.6287 50.8929C20.9293 50.8979 21.1842 50.6834 21.2136 50.4391C21.1915 48.9634 20.0946 48.4155 18.929 48.7086Z" fill="#3E3E3D"/>
<path fill-rule="evenodd" clip-rule="evenodd" d="M18.9999 41.8928C18.9476 41.61 18.8186 40.968 18.8174 40.58C18.303 36.054 18.4359 33.5873 19.1041 30.8971C19.9861 30.691 22.5116 31.5188 23.3726 30.7886C25.1572 33.2638 21.0385 38.5437 21.4696 41.7088C21.052 42.2893 19.6653 42.6968 18.9999 41.8928Z" fill="#4165BD"/>
<path fill-rule="evenodd" clip-rule="evenodd" d="M21.1235 49.6684C20.2985 50.318 19.6791 49.8512 19.408 48.7529C19.6458 47.0863 19.1469 43.8131 18.9556 41.6101C18.8537 40.2519 21.0623 39.9181 21.4683 41.7093C21.6933 43.3814 21.1596 48.8873 21.1235 49.6684Z" fill="#4165BD"/>
<path fill-rule="evenodd" clip-rule="evenodd" d="M25.1942 19.1029C24.2026 18.3273 22.8418 20.0964 23.828 22.2328C23.8617 22.285 25.4095 26.2766 26.5999 28.0088C27.1116 28.4062 28.207 27.9715 28.0439 26.8541C27.8386 25.4526 27.447 20.8648 25.1942 19.1029Z" fill="#DE7E32"/>
<path fill-rule="evenodd" clip-rule="evenodd" d="M21.4685 20.2153C21.3248 20.259 20.4556 20.7119 19.8211 21.6092C19.3574 22.2703 19.3826 23.7468 19.4008 23.9419C19.4585 24.5703 19.3195 27.6621 19.1758 30.4782C19.4481 31.4099 23.4765 31.2216 24.6982 30.0932C24.7094 28.8397 25.3621 26.1427 25.4841 25.4422C25.6054 24.74 26.1732 20.8997 25.3303 19.6161C25.1363 19.3201 24.4778 19.0114 24.1776 19.0496C23.1062 19.1823 21.6471 20.161 21.4685 20.2153Z" fill="#CB6117"/>
<path fill-rule="evenodd" clip-rule="evenodd" d="M20.5664 20.7995C21.4654 20.4704 23.0458 22.508 23.7481 25.8453C24.1114 25.9785 24.2052 25.5493 24.5689 25.4399C23.9747 22.6785 22.6933 19.9964 21.4689 20.2152C20.9758 20.4285 20.9479 20.4039 20.5664 20.7995Z" fill="#4165BD"/>
<path fill-rule="evenodd" clip-rule="evenodd" d="M24.1089 19.0588C25.0292 19.027 24.9638 20.3293 24.9591 21.1931C24.9514 22.6149 24.5795 24.2153 24.1612 25.6181C24.4718 25.7512 24.5555 25.2788 24.9626 25.1694C25.4588 23.921 25.5029 22.6098 25.6443 21.3826C25.7915 20.102 25.3941 19.0508 24.5474 18.9083C24.3909 18.8828 24.1089 19.0588 24.1089 19.0588Z" fill="#4165BD"/>
<path fill-rule="evenodd" clip-rule="evenodd" d="M22.5718 31.0837C23.1381 29.5414 23.7706 27.7392 23.747 25.7266C24.1626 25.5065 24.5782 25.286 24.9942 25.0659C25.0826 26.2999 24.9791 28.4545 24.6987 30.0922C24.0797 30.9365 23.36 31.2062 22.5718 31.0837Z" fill="#314A8D"/>
<path fill-rule="evenodd" clip-rule="evenodd" d="M19.0815 30.9866C19.869 31.738 23.617 32.4119 24.6737 30.8055C24.6613 30.6185 24.7109 30.2797 24.6989 30.0923C23.5016 31.0451 20.5097 31.3025 19.1764 30.4773C19.1447 30.6469 19.1129 30.8166 19.0815 30.9866Z" fill="#314A8D"/>
<path fill-rule="evenodd" clip-rule="evenodd" d="M21.3264 21.0506C23.8391 23.9219 16.7956 25.1568 15.6138 25.2403C14.7678 25.2276 14.7787 23.8897 15.7041 23.3842C17.6276 22.4174 20.3546 19.9405 21.3264 21.0506Z" fill="#DE7E32"/>
<path fill-rule="evenodd" clip-rule="evenodd" d="M14.9968 18.3849C14.955 18.1822 14.8919 17.9558 14.8194 17.8464C14.6839 17.6424 14.5804 17.5152 14.4782 17.2803C14.3314 17.416 14.2911 17.6119 14.5138 18.0152C14.7129 18.602 14.4468 18.6928 14.7741 18.965C14.8845 19.0566 14.9608 19.2241 14.9999 19.0613C15.0697 18.7526 15.0549 18.6682 14.9968 18.3849Z" fill="#D99E72"/>
<path fill-rule="evenodd" clip-rule="evenodd" d="M13.4089 19.0662C13.278 18.9178 13.2556 18.8592 13.2424 18.8105C13.2253 18.7473 13.2238 18.6387 13.29 18.6273C13.2269 18.5098 13.259 18.294 13.3392 18.2719C13.3071 18.1596 13.2478 18.0137 13.4043 17.8818C13.4543 17.8398 13.5592 17.7245 13.5798 17.7414C13.7684 18.1638 13.6088 18.7579 13.4089 19.0662Z" fill="#D99E72"/>
<path fill-rule="evenodd" clip-rule="evenodd" d="M14.9971 19.1586C15.1032 18.8592 15.0838 18.6374 14.9669 18.4496C14.5431 17.7189 13.9423 17.7541 13.7777 17.6994C13.5991 17.66 13.5592 17.5938 13.5422 17.8165C13.3183 18.0327 13.3873 18.1353 13.4856 18.3516C13.3907 18.3838 13.3187 18.6506 13.4415 18.8282C13.3505 18.9716 13.3733 19.0572 13.4996 19.176C13.8641 19.48 14.0856 19.5377 14.37 19.6416C14.9634 19.8591 15.0149 19.5903 14.9971 19.1586Z" fill="#ECC19A"/>
<path fill-rule="evenodd" clip-rule="evenodd" d="M13.6428 18.0328L12.9603 17.8089C12.7527 17.7406 12.8414 17.4739 13.0532 17.5244L13.7373 17.6881C13.9492 17.7389 13.8508 18.1011 13.6428 18.0328Z" fill="#ECC19A"/>
<path fill-rule="evenodd" clip-rule="evenodd" d="M15.2649 24.8908C14.5495 24.37 14.1474 20.9466 14.2094 19.7148C14.4604 19.2708 15.0813 19.0562 15.1878 19.5049C15.3668 19.9442 16.4432 22.8366 16.8089 24.1423C16.877 25.0994 15.9985 24.9832 15.2649 24.8908Z" fill="#DE7E32"/>
<path fill-rule="evenodd" clip-rule="evenodd" d="M20.2842 16.3441L20.5154 17.3673L21.3668 17.1116L21.1015 16.0596L20.2842 16.3441Z" fill="#C4C4C4"/>
<path d="M20.829 17.1879L21.2744 17.0543C21.1993 16.7575 21.1245 16.4602 21.0498 16.1633C20.9773 16.1795 20.9061 16.1939 20.829 16.2168V16.0412C20.939 16.0077 21.0455 15.9823 21.1528 15.9556C21.2547 16.3601 21.3569 16.7647 21.4588 17.1688L20.8286 17.3579L20.829 17.1879ZM20.3835 16.4432C20.4149 16.7447 20.4684 17.0267 20.5695 17.2659L20.829 17.1879L20.8286 17.3579L20.499 17.4571C20.3909 17.1756 20.2724 16.7566 20.2046 16.3338C20.437 16.1807 20.638 16.0989 20.829 16.0412V16.2168C20.7043 16.2541 20.5656 16.3143 20.3835 16.4432Z" fill="#222221"/>
<path fill-rule="evenodd" clip-rule="evenodd" d="M20.8339 17.5914C20.6208 17.7339 20.6112 17.9595 20.6212 18.0803C20.7258 19.3326 21.4556 20.1981 21.7449 18.9501C21.8689 18.4153 22.195 17.9464 21.7128 17.5986C21.3479 17.3357 20.8808 17.5897 20.8339 17.5914Z" fill="#4D4D4D"/>
<path fill-rule="evenodd" clip-rule="evenodd" d="M20.9016 15.1035C20.8075 15.3817 20.6944 15.6607 20.6378 15.9499C20.5979 16.1522 20.5797 16.2124 20.6518 16.3926C20.7618 16.67 20.8276 16.7277 20.6398 16.9511C20.4565 17.1687 20.6921 17.8747 20.78 18.2012C20.8493 18.4586 20.8865 18.7601 21.0992 18.9141C21.629 19.2983 22.2229 19.0676 22.7555 18.8594C23.283 18.6558 24.3169 17.1861 24.4795 16.7056C24.5973 15.721 24.3657 14.8695 22.8655 14.272C22.2147 14.0129 21.1375 14.4068 20.9016 15.1035Z" fill="#ECC19A"/>
<path fill-rule="evenodd" clip-rule="evenodd" d="M21.5579 17.8462C21.5579 17.8462 21.482 19.0344 21.747 20.1086C22.5856 19.8957 23.6248 20.4639 24.3964 19.6807C24.25 19.3618 23.8309 18.4632 23.9428 17.1139C23.9781 16.689 21.6156 16.6343 21.5579 17.8462Z" fill="#D99E72"/>
<path fill-rule="evenodd" clip-rule="evenodd" d="M21.193 16.5392C21.2313 16.6584 21.4029 16.8365 21.1178 17.1023C20.71 17.4628 21.143 18.3796 21.4018 17.9627C21.525 17.7639 21.4614 17.0171 21.5443 16.9535C21.793 16.7614 22.0541 17.4399 22.3275 17.9929C22.7556 18.8592 23.8641 18.486 23.9408 18.4224C24.3421 18.0904 24.6935 17.6757 24.7198 17.0141C24.7504 16.2453 24.9913 15.3926 24.4905 14.731C23.6275 13.5912 21.8035 13.1591 20.6337 14.6806C20.031 15.4642 20.9714 15.8522 21.193 16.5392Z" fill="#4D4D4D"/>
<path fill-rule="evenodd" clip-rule="evenodd" d="M21.9438 16.9372L20.2461 16.3354L20.317 16.6488L21.9295 17.153L22.0709 17.7777L22.3947 17.8777L21.9438 16.9372Z" fill="#363636"/>
<path fill-rule="evenodd" clip-rule="evenodd" d="M22.0659 17.3033C22.0213 17.6536 21.8013 18.1434 21.665 18.1141C21.3179 17.981 21.4852 17.7274 21.529 17.3775C21.5743 17.0281 21.4918 16.8144 21.6262 16.7834C21.8796 16.7275 22.11 16.9518 22.0659 17.3033Z" fill="#ECC19A"/>
</svg>
