<svg width="39" height="56" viewBox="0 0 39 56" fill="none" xmlns="http://www.w3.org/2000/svg">
<path opacity="0.1" d="M29.693 31.5156L0 50.2828L11.6888 55.2207L36.3377 39.6409V36.4529L29.693 31.5156Z" fill="black"/>
<path d="M11.689 18.2101L10.0688 17.1861L36.4959 0.482422L38.116 1.50647L11.689 18.2101Z" fill="#EFE1BC"/>
<path d="M11.689 55.2204L10.0688 54.1963V17.186L11.689 18.2101V55.2204Z" fill="#CAA58B"/>
<path d="M11.689 55.2203V18.21L38.116 1.50635V38.5166L11.689 55.2203Z" fill="#FFBB00"/>
<path d="M15.8822 47.5419V46.5729C15.8822 46.5387 15.8711 46.5145 15.854 46.5029C15.8358 46.4908 15.8107 46.4925 15.7825 46.5101L15.0157 46.9946C14.9608 47.0293 14.916 47.1142 14.916 47.1836V48.1526C14.916 48.1873 14.9271 48.2115 14.9452 48.2231C14.9633 48.2347 14.988 48.2331 15.0157 48.2154L15.7825 47.7309C15.8373 47.6962 15.8822 47.6113 15.8822 47.5419Z" fill="#F2EEEF"/>
<path d="M14.9162 47.1833V48.1522C14.9162 48.187 14.9272 48.2112 14.9454 48.2228C14.9454 48.2228 14.6836 48.0574 14.6654 48.0458C14.6473 48.0343 14.6362 48.01 14.6362 47.9753V47.0063L14.9162 47.1833Z" fill="#D6C7CA"/>
<path d="M14.7359 46.8169L15.5027 46.3325C15.5304 46.3148 15.555 46.3132 15.5732 46.3248C15.5913 46.3363 15.8541 46.5022 15.8541 46.5022C15.836 46.4901 15.8108 46.4917 15.7826 46.5094L15.0158 46.9939C14.961 47.0286 14.9162 47.1135 14.9162 47.1829L14.6362 47.006C14.6362 46.9365 14.681 46.8517 14.7359 46.8169Z" fill="#E6DFE0"/>
<path d="M15.1738 47.7897C15.2982 47.8685 15.5001 47.7407 15.6244 47.5048C15.7488 47.2689 15.7488 47.0137 15.6244 46.9354C15.5001 46.8566 15.2982 46.9845 15.1738 47.2204C15.0495 47.4563 15.0495 47.7109 15.1738 47.7897Z" fill="#D6C7CA"/>
<path opacity="0.5" d="M15.2059 47.6425C15.1686 47.6662 15.1329 47.6805 15.0997 47.6866C15.0881 47.6519 15.0815 47.6106 15.0815 47.5637C15.0815 47.341 15.224 47.071 15.4002 46.9596C15.4375 46.9359 15.4732 46.9216 15.5065 46.9155C15.518 46.9503 15.5246 46.9916 15.5246 47.0384C15.5241 47.2611 15.3816 47.5312 15.2059 47.6425Z" fill="black"/>
<path d="M15.4609 47.3188L15.5883 47.3992V47.2118L15.4609 47.1313V47.3188Z" fill="#D6C7CA"/>
<path d="M15.5059 47.1031V47.0039L15.6332 47.0838V47.1836L15.5059 47.1031Z" fill="#D6C7CA"/>
<path d="M15.4609 47.1311L15.5057 47.103L15.6331 47.1835L15.5883 47.2116L15.4609 47.1311Z" fill="#E6DFE0"/>
<path d="M15.6332 47.0839L15.5884 47.112V46.918C15.6282 46.9599 15.6513 47.0288 15.6513 47.1186C15.6513 47.2084 15.6282 47.3065 15.5884 47.3986V47.2112L15.6332 47.1831V47.0839Z" fill="#E6DFE0"/>
<path d="M15.4609 47.0318V46.9282C15.5083 46.91 15.5521 46.9078 15.5893 46.9188L15.5878 46.9182V47.1123L15.4609 47.0318Z" fill="#D6C7CA"/>
<path d="M15.3342 47.0884C15.3649 47.0691 15.3901 47.0845 15.3901 47.1237C15.3901 47.1628 15.3649 47.2102 15.3342 47.2295C15.3035 47.2488 15.2783 47.2333 15.2783 47.1942C15.2783 47.1551 15.3035 47.1077 15.3342 47.0884Z" fill="black"/>
<path d="M15.7803 47.2782V47.1784L15.7355 47.2071V47.0114C15.7264 47.002 15.7169 46.9938 15.7058 46.9871C15.5814 46.9083 15.3796 47.0362 15.2547 47.2721C15.2436 47.2931 15.2336 47.314 15.2245 47.3355V47.524L15.1797 47.5526V47.6524L15.2245 47.6243V47.8178C15.2336 47.8277 15.2436 47.8359 15.2547 47.8426C15.3791 47.9214 15.5809 47.7935 15.7058 47.5576C15.7164 47.5372 15.7264 47.5163 15.7355 47.4959V47.3079L15.7803 47.2782Z" fill="#E3DACE"/>
<path d="M15.6249 46.9349C15.5005 46.8561 15.2986 46.9839 15.1738 47.2198C15.1627 47.2408 15.1526 47.2617 15.1436 47.2832L15.2246 47.3345C15.2337 47.3135 15.2437 47.292 15.2548 47.2711C15.3792 47.0352 15.5811 46.9073 15.7059 46.9861C15.7059 46.9861 15.6354 46.9421 15.6249 46.9349Z" fill="#CCC2B9"/>
<path d="M15.0818 47.5886L15.1804 47.6509V47.5511L15.2253 47.5225V47.334L15.1442 47.2827C15.1044 47.3748 15.0813 47.4729 15.0813 47.5632C15.0808 47.5726 15.0813 47.5803 15.0818 47.5886Z" fill="#B8A89B"/>
<path d="M15.1738 47.7896C15.1935 47.8028 15.2549 47.8414 15.2549 47.8414C15.2438 47.8342 15.2337 47.8259 15.2247 47.8166C15.2247 47.8166 15.1899 47.7995 15.1738 47.7896Z" fill="#A39282"/>
<path d="M15.1737 47.7895C15.1893 47.7995 15.2064 47.8127 15.2245 47.816V47.6226L15.1797 47.6506L15.0811 47.5884C15.0861 47.6799 15.1168 47.7532 15.1737 47.7895Z" fill="#B8A89B"/>
<path d="M15.1796 47.5508L15.2244 47.5221L15.0935 47.4395C15.09 47.4565 15.087 47.4736 15.085 47.4907L15.1796 47.5508Z" fill="#E8E4D8"/>
<path d="M15.7358 47.1494V47.2062L15.7806 47.1775L15.7358 47.1494Z" fill="#CCC2B9"/>
<path d="M15.0816 47.5882L15.1803 47.6505V47.5507L15.0856 47.4912C15.0826 47.5155 15.0806 47.5397 15.0806 47.5634C15.0806 47.5722 15.0811 47.5799 15.0816 47.5882Z" fill="#CCC2B9"/>
<path d="M15.6741 47.8693L15.6313 47.8417V47.5083L15.6731 47.5353L15.6741 47.8693Z" fill="#CCC2B9"/>
<path d="M15.6731 47.535L15.6313 47.5079L15.8967 47.3398L15.939 47.3669L15.6731 47.535Z" fill="#E8DFD3"/>
<path d="M15.9392 47.3667L15.6733 47.5348L15.6743 47.8688L15.7181 47.8412L15.7171 47.5629L15.9392 47.4224V47.3667Z" fill="#B8A89B"/>
<path d="M15.7505 47.9174L15.7178 47.897L15.7168 47.563L15.7495 47.5834L15.7505 47.9174Z" fill="#CCC2B9"/>
<path d="M15.7495 47.5835L15.7168 47.5631L15.9826 47.395L16.0153 47.416L15.7495 47.5835Z" fill="#E8DFD3"/>
<path d="M16.0153 47.416L15.7495 47.5836L15.7505 47.9176L15.7943 47.89L15.7933 47.6117L16.0153 47.4717V47.416Z" fill="#B8A89B"/>
<path d="M15.8267 47.9668L15.7945 47.9458L15.7935 47.6118L15.8262 47.6328L15.8267 47.9668Z" fill="#CCC2B9"/>
<path d="M15.8262 47.6329L15.7935 47.6119L16.0593 47.4443L16.0915 47.4648L15.8262 47.6329Z" fill="#E8DFD3"/>
<path d="M16.0915 47.4644L15.8262 47.6325L15.8267 47.9665L15.8725 47.9378L15.8715 47.6617L16.0915 47.5222V47.4644Z" fill="#B8A89B"/>
<path d="M15.9129 48.0215L15.8726 47.9956L15.8716 47.6616L15.9124 47.6875L15.9129 48.0215Z" fill="#CCC2B9"/>
<path d="M15.9124 47.6877L15.8716 47.6618L16.1374 47.4937L16.1777 47.5196L15.9124 47.6877Z" fill="#E8DFD3"/>
<path d="M15.8967 47.3399L15.7356 47.0103L15.2246 47.3343L15.6314 47.508L15.8967 47.3399Z" fill="#E3DACE"/>
<path d="M15.6314 47.5081L15.2246 47.3345V47.8162L15.6319 47.8421L15.6314 47.5081Z" fill="#C2B3AA"/>
<path d="M15.3339 47.8644C15.4225 47.8644 15.6319 47.8418 15.6319 47.8418L15.2246 47.8159C15.2246 47.8159 15.2689 47.8644 15.3339 47.8644Z" fill="#A39282"/>
<path d="M15.9126 48.0217L16.1774 47.8541V47.5195L15.9121 47.6876L15.9126 48.0217Z" fill="#C2B3AA"/>
<path d="M22.9224 26.2349C23.011 26.4036 23.155 26.4945 23.2441 26.4383C23.3327 26.3821 23.3327 26.2002 23.2441 26.0315C23.1555 25.8629 23.011 25.7719 22.9224 25.8282C22.8338 25.8844 22.8338 26.0668 22.9224 26.2349Z" fill="#383838"/>
<path d="M23.2441 26.0315C23.1555 25.8628 23.011 25.7719 22.9224 25.8281C22.9224 25.8281 22.9636 25.8022 22.9964 25.7813C23.085 25.7251 23.229 25.816 23.3181 25.9847C23.4067 26.1533 23.4067 26.3352 23.3181 26.3914C23.2929 26.4074 23.2441 26.4382 23.2441 26.4382C23.3327 26.382 23.3327 26.2002 23.2441 26.0315Z" fill="#575757"/>
<path d="M22.967 25.9124C23.0314 25.8717 23.1356 25.9378 23.2001 26.0596C23.2645 26.1814 23.2645 26.3137 23.2001 26.3545C23.1356 26.3953 22.174 27.0032 22.174 27.0032L21.9409 26.5612C21.9409 26.5612 22.9025 25.9532 22.967 25.9124Z" fill="black"/>
<path opacity="0.2" d="M22.0793 26.8241L22.0078 26.689L23.1396 25.9736C23.1617 25.9979 23.1824 26.0271 23.2 26.0602C23.2076 26.0745 23.2141 26.0888 23.2196 26.1032L22.0793 26.8241Z" fill="white"/>
<path d="M21.8144 26.9356C21.9035 27.1043 22.0475 27.1952 22.1361 27.139C22.2247 27.0828 22.2247 26.9009 22.1361 26.7322C22.0475 26.5636 21.9035 26.4726 21.8144 26.5288C21.7253 26.5851 21.7253 26.7675 21.8144 26.9356Z" fill="#383838"/>
<path d="M22.1362 26.7322C22.0476 26.5635 21.9036 26.4726 21.8145 26.5288C21.8145 26.5288 21.8557 26.5029 21.8885 26.482C21.9771 26.4257 22.1216 26.5167 22.2102 26.6853C22.2988 26.854 22.2988 27.0359 22.2102 27.0921C22.185 27.1081 22.1362 27.139 22.1362 27.139C22.2248 27.0827 22.2248 26.9008 22.1362 26.7322Z" fill="#575757"/>
<path d="M24.1429 26.5853C23.8837 26.4613 23.7669 26.5103 23.3656 26.1113C23.1834 25.9299 22.9628 25.7695 22.8274 25.7629C22.6668 25.7552 22.5475 25.8103 22.4045 25.9167C22.0909 26.1499 21.9126 26.1857 21.9287 26.4679C21.9287 26.4679 21.9836 26.459 22.044 26.4971C22.1019 26.4629 22.1644 26.485 22.2218 26.5235C22.333 26.598 22.3657 26.776 22.2766 26.9391C22.2736 26.9771 22.2701 27.0113 22.2515 27.0477C22.2348 27.0802 22.1905 27.1089 22.1432 27.1353C22.2243 27.1789 22.5274 27.1607 22.6099 27.1381C22.988 27.0328 23.2835 27.1293 23.5403 27.2582C23.8459 27.4159 24.4022 26.7093 24.1429 26.5853Z" fill="#FFC996"/>
<path d="M27.2982 28.8534L23.8953 28.1474C23.4724 28.0487 23.1044 27.7285 23.1134 27.1255C23.1215 26.6046 23.272 25.8093 24.2825 26.0265L27.7438 26.716L27.7443 26.7165C28.1244 26.8113 28.4043 27.1315 28.4929 27.519C28.5302 27.6811 28.5332 27.8552 28.4969 28.0294C28.3741 28.6197 27.8374 28.9884 27.2982 28.8534Z" fill="#D9B9AE"/>
<path d="M20.067 52.3856C19.1245 52.3856 18.1191 51.97 17.6363 51.0226C17.4797 50.715 17.3861 50.3601 17.2874 49.9836C17.082 49.2015 16.869 48.3924 16.0559 47.9124C16.0071 47.8837 15.9884 47.8164 16.0151 47.7635C16.0413 47.709 16.1032 47.6891 16.1516 47.7189C17.0397 48.2425 17.2743 49.1354 17.4817 49.923C17.5769 50.2862 17.6675 50.6296 17.813 50.9151C18.3925 52.0533 19.8067 52.3536 20.8438 52.0599C22.8531 51.4883 22.7791 48.776 22.7247 46.7957C22.7167 46.5036 22.7091 46.2302 22.7096 45.9866C22.7187 38.6423 22.6824 35.2157 22.6255 30.8267C22.6245 30.7661 22.6693 30.7159 22.7247 30.7148H22.7262C22.7811 30.7148 22.8259 30.7634 22.8269 30.8234C22.8838 35.2135 22.9206 38.6412 22.9115 45.9866C22.911 46.228 22.9186 46.4992 22.9266 46.7891C22.9795 48.7275 23.0595 51.657 20.8947 52.2726C20.6354 52.3465 20.3539 52.3856 20.067 52.3856Z" fill="#2B2B2B"/>
<path d="M22.9324 30.3498C22.9324 30.2776 22.8402 30.2197 22.726 30.2197C22.6117 30.2197 22.5195 30.2782 22.5195 30.3498C22.5195 30.3564 22.6328 31.4191 22.6328 31.4191C22.6328 31.4516 22.6741 31.4775 22.7254 31.4775C22.7768 31.4775 22.8181 31.451 22.8181 31.4191C22.8191 31.4191 22.9324 30.357 22.9324 30.3498Z" fill="black"/>
<path d="M22.3049 28.5C22.2661 28.7458 22.176 28.9084 22.1126 28.9966C22.0864 29.0335 22.1171 29.1217 22.167 29.1537L22.3779 29.2871V28.5463L22.3049 28.5Z" fill="#404040"/>
<path d="M22.251 28.4697C22.396 28.559 22.3648 29.7517 22.3648 30.331C22.3648 30.3508 22.3753 30.3701 22.398 30.3845L22.6935 30.5713C22.7429 30.6027 22.829 30.5983 22.8863 30.5625L23.0208 30.4776C23.054 30.4567 23.0696 30.4297 23.0676 30.4049C23.0751 29.6079 23.0706 29.0898 23.1713 28.9884L22.251 28.4697Z" fill="#F0A103"/>
<path opacity="0.3" d="M19.6282 25.984C19.5915 26.0534 19.5326 26.0909 19.4958 26.0677C19.4591 26.0446 19.4591 25.9696 19.4958 25.9002C19.5326 25.8307 19.5915 25.7933 19.6282 25.8164C19.665 25.8396 19.6645 25.9145 19.6282 25.984Z" fill="black"/>
<path d="M19.5596 25.8247C19.5596 25.8247 19.5268 25.839 19.4956 25.8997C19.4644 25.9608 19.4684 25.9983 19.4684 25.9983L20.4023 26.5886L20.494 26.415L19.5596 25.8247Z" fill="#E3E3E3"/>
<path d="M19.7208 26.1586C19.6091 26.088 19.7601 25.9519 19.6513 25.883L19.5874 25.8428C19.6967 25.9117 19.5456 26.0478 19.6569 26.1184L19.7208 26.1586Z" fill="#BFBFBF"/>
<path d="M19.8912 26.266C19.7795 26.1955 19.9305 26.0593 19.8218 25.9904L19.7578 25.9502C19.8671 26.0191 19.716 26.1552 19.8273 26.2258L19.8912 26.266Z" fill="#BFBFBF"/>
<path d="M20.0616 26.3734C19.9499 26.3029 20.1009 26.1667 19.9922 26.0979L19.9282 26.0576C20.0375 26.1265 19.8864 26.2627 19.9977 26.3332L20.0616 26.3734Z" fill="#BFBFBF"/>
<path d="M20.232 26.4813C20.1203 26.4108 20.2713 26.2747 20.1626 26.2058L20.0986 26.1655C20.2079 26.2344 20.0568 26.3706 20.1681 26.4411L20.232 26.4813Z" fill="#BFBFBF"/>
<path d="M20.402 26.5888C20.2907 26.5182 20.4412 26.3821 20.3325 26.3132L20.2686 26.2729C20.3778 26.3418 20.2268 26.478 20.338 26.5485L20.402 26.5888Z" fill="#BFBFBF"/>
<path d="M20.4938 26.5311C20.4686 26.579 20.4274 26.605 20.4022 26.589C20.377 26.573 20.377 26.5212 20.4022 26.4732C20.4274 26.4253 20.4686 26.3994 20.4938 26.4154C20.5195 26.4314 20.5195 26.4831 20.4938 26.5311Z" fill="#C9C9C9"/>
<path d="M21.2846 26.5205C21.2745 26.5139 21.2645 26.5078 21.2549 26.5018C21.1698 26.4494 21.0928 26.4037 20.9916 26.3524C20.9196 26.3155 20.8476 26.2846 20.7993 26.2697C20.7816 26.2642 20.7278 26.2477 20.685 26.2516C20.6724 26.2527 20.6538 26.2543 20.6311 26.2626C20.5707 26.2835 20.5183 26.3254 20.4755 26.3761C20.403 26.4621 20.3472 26.5822 20.3346 26.6985C20.32 26.8369 20.3849 26.9361 20.4781 27.0199C20.538 27.0733 20.5818 27.1086 20.6648 27.1703C20.7112 27.2051 20.8219 27.274 20.8662 27.3037C20.8672 27.3048 20.8687 27.3054 20.8697 27.3065C20.984 27.3787 21.0525 27.4217 21.0525 27.4217L21.4663 26.6368C21.4673 26.6363 21.3989 26.5933 21.2846 26.5205Z" fill="#404040"/>
<path opacity="0.4" d="M21.1782 26.4556C21.1661 26.4616 21.1535 26.4688 21.1414 26.4765C21.0448 26.5377 20.9511 26.644 20.8776 26.7835C20.7935 26.9428 20.7578 27.1098 20.7699 27.2404C20.787 27.2515 21.0533 27.4206 21.0533 27.4206L21.4672 26.6358C21.4672 26.6358 21.1847 26.4594 21.1782 26.4556Z" fill="black"/>
<path d="M21.4673 27.1591C21.353 27.3757 21.1678 27.4931 21.0535 27.4209C20.9392 27.3487 20.9392 27.1144 21.0535 26.8978C21.1678 26.6812 21.353 26.5638 21.4673 26.636C21.5816 26.7082 21.5816 26.9425 21.4673 27.1591Z" fill="#404040"/>
<path d="M24.4179 28.4326C24.4002 28.3505 24.3645 28.2987 24.3469 28.2734C24.3011 28.2072 24.2286 28.1394 24.1938 28.1075C24.0886 28.0099 23.9461 27.9046 23.8927 27.865C23.7689 27.7729 23.6456 27.693 23.5791 27.65L21.8915 26.578C21.7984 26.5201 21.6765 26.5383 21.5547 26.6155C21.4328 26.6926 21.3115 26.8277 21.2194 27.0029C21.0341 27.354 21.0351 27.7327 21.2214 27.8484L22.6064 28.7281C22.6371 28.7485 22.6643 28.7656 22.685 28.7793C22.6865 28.7805 22.6885 28.7815 22.69 28.7826L22.909 28.921C22.9251 28.9314 22.9266 28.9331 22.9427 28.943C23.2005 29.1023 23.419 29.2181 23.5927 29.287C23.7447 29.347 23.8394 29.3603 23.9305 29.3344C24.0362 29.304 24.1163 29.228 24.146 29.1993C24.1762 29.1707 24.2089 29.1321 24.2432 29.0852C24.2779 29.0378 24.3061 28.986 24.3167 28.9662C24.3282 28.9447 24.3514 28.8995 24.3741 28.8372C24.3987 28.77 24.4113 28.7093 24.4113 28.7093C24.4244 28.6399 24.4274 28.6212 24.4294 28.5473C24.4299 28.5462 24.4304 28.4905 24.4179 28.4326Z" fill="#FCC901"/>
<path d="M24.0449 28.3206C24.1415 28.2594 24.2382 28.2445 24.3127 28.2908C24.4607 28.3829 24.4617 28.6844 24.3142 28.9633C24.2407 29.1027 24.144 29.2102 24.0474 29.2714C23.9507 29.3325 23.854 29.3474 23.78 29.3011C23.632 29.2085 23.631 28.9076 23.7785 28.6287C23.8515 28.4893 23.9477 28.3818 24.0449 28.3206Z" fill="#FFDB00"/>
<path d="M21.4634 26.4989C21.403 26.4906 21.3345 26.5105 21.2661 26.554C21.1694 26.6152 21.0727 26.7227 20.9992 26.8621C20.8744 27.0986 20.8557 27.351 20.9433 27.4789C21.0118 27.5787 21.0803 27.6784 21.1487 27.7782C21.0385 27.6178 21.0617 27.3003 21.2187 27.0027C21.3114 26.8274 21.4327 26.6918 21.554 26.6152C21.6401 26.5606 21.7262 26.5358 21.8022 26.5463C21.69 26.5303 21.5767 26.5143 21.4634 26.4989Z" fill="#F0A103"/>
<path d="M22.7305 28.4612L23.3935 28.8806C23.394 28.8547 23.396 28.8288 23.3991 28.8013L22.736 28.3818C22.7325 28.4094 22.731 28.4353 22.7305 28.4612Z" fill="black"/>
<path d="M22.8364 28.033L23.4995 28.4524C23.509 28.4315 23.5196 28.4105 23.5307 28.3896L22.8676 27.9707C22.8566 27.9911 22.8465 28.0121 22.8364 28.033Z" fill="black"/>
<path d="M22.7842 28.1653L23.4472 28.5848C23.4548 28.5627 23.4628 28.5401 23.4714 28.5175L22.8083 28.0986C22.7998 28.1207 22.7912 28.1427 22.7842 28.1653Z" fill="black"/>
<path d="M22.7471 28.307L23.4101 28.7264C23.4147 28.7027 23.4202 28.6785 23.4267 28.6542L22.7637 28.2354C22.7571 28.2591 22.7516 28.2833 22.7471 28.307Z" fill="black"/>
<path d="M22.2784 28.1516C22.2784 28.097 22.2844 28.0386 22.296 27.9785L22.2361 28.0165L22.228 28.1819L22.2361 28.3406L22.296 28.3026C22.2844 28.2569 22.2784 28.2061 22.2784 28.1516Z" fill="#4D4D4D"/>
<path d="M21.748 27.708L22.2359 28.0167V28.3402L21.748 28.0321V27.708Z" fill="#303030"/>
<path d="M21.8784 27.8047L22.102 27.9458V28.2407L21.8784 28.0995V27.8047Z" fill="#424242"/>
<path d="M21.9385 27.953C21.9315 27.9574 21.9199 27.9574 21.9129 27.953L21.8676 27.9244C21.864 27.9222 21.8625 27.9194 21.8625 27.9161C21.8625 27.9133 21.864 27.9106 21.8676 27.9078C21.8983 27.8886 21.8983 27.8571 21.8676 27.8378L21.862 27.834C21.858 27.8312 21.8555 27.8279 21.8555 27.824C21.8555 27.8207 21.8575 27.8175 21.862 27.8147L21.8786 27.8042L22.1022 27.9453L22.0855 27.9558C22.077 27.9613 22.0634 27.9613 22.0553 27.9558L22.0493 27.9519C22.0186 27.9337 21.9692 27.9337 21.9385 27.953Z" fill="#666666"/>
<path d="M21.868 27.9085C21.8988 27.8892 21.8988 27.8578 21.868 27.8385L21.862 27.8346C21.858 27.8319 21.856 27.8286 21.856 27.8247C21.856 27.8247 21.856 28.1163 21.856 28.1196C21.856 28.1229 21.858 28.1267 21.8625 28.129L21.863 28.1295L21.8675 28.0606L21.863 27.9162C21.8625 27.9134 21.8645 27.9107 21.868 27.9085Z" fill="#2B2B2B"/>
<path d="M21.9383 27.9534C21.9313 27.9579 21.9202 27.9579 21.9127 27.9534L21.8674 27.9248C21.8638 27.9226 21.8618 27.9198 21.8618 27.9165V28.1298V28.2114C21.8618 28.2142 21.8638 28.2169 21.8674 28.2197L21.9127 28.2483C21.9197 28.2527 21.9313 28.2527 21.9383 28.2483L21.9414 28.0929L21.9383 27.9534Z" fill="#404040"/>
<path d="M22.0492 28.2483C22.0185 28.229 21.9687 28.229 21.9385 28.2483V27.9534C21.9692 27.9341 22.019 27.9341 22.0492 27.9534L22.0548 27.9573L22.0573 28.2158L22.0548 28.2516L22.0492 28.2483Z" fill="#303030"/>
<path d="M22.0552 28.2515V27.9566C22.0637 27.9621 22.0773 27.9621 22.0854 27.9566L22.1005 27.9473L22.102 28.241L22.0854 28.2515C22.0768 28.257 22.0632 28.257 22.0552 28.2515Z" fill="#404040"/>
<path d="M22.2958 27.9786L22.2359 28.0166L21.748 27.7079L21.808 27.6699L22.2958 27.9786Z" fill="#666666"/>
<path d="M33.8014 35.9555V37.6933C33.8014 38.1651 33.6448 38.3691 33.2627 38.3691V35.4633C33.2627 35.4633 33.8014 35.4192 33.8014 35.9555Z" fill="#A24D28"/>
<path d="M33.6271 36.02V38.2809C33.6271 38.8949 33.4232 39.16 32.9258 39.16V35.3801C32.9258 35.3801 33.6271 35.3222 33.6271 36.02Z" fill="#493737"/>
<path opacity="0.1" d="M27.7879 50.7278C29.9085 49.3874 32.7364 49.001 34.1033 49.8653C35.4707 50.7295 34.8595 52.5164 32.7384 53.8568C30.6178 55.1973 27.7899 55.5836 26.423 54.7194C25.0561 53.8557 25.6668 52.0688 27.7879 50.7278Z" fill="black"/>
<path d="M30.2637 50.3821C30.2637 49.7179 30.9781 49.3514 32.0389 49.6584L33.1173 49.3872C33.4737 49.2974 33.8141 49.5939 33.8141 49.9946V51.5506L33.804 51.5473C33.8181 51.6944 33.7446 51.8438 33.5674 51.9557C33.2386 52.1635 32.7049 52.1635 32.3762 51.9557L30.5104 50.7767C30.3387 50.6681 30.2617 50.5249 30.2692 50.3827L30.2637 50.3821Z" fill="black"/>
<path d="M33.0533 42.7474L30.1252 42.7904L30.1242 42.7199L30.0789 39.0293L30.0215 34.3487L32.9491 34.3052C32.9491 34.3052 33.2723 35.5051 33.2763 37.0059C33.2799 38.5067 33.0075 39.398 33.0447 42.064L33.0533 42.7474Z" fill="#0258BF"/>
<path d="M30.1261 42.7204C30.188 42.1439 30.5721 41.16 31.0872 41.0195C31.5136 40.9032 31.9541 41.1165 32.3337 41.359C32.6031 41.531 32.888 42.4575 33.0537 42.7469C33.0804 44.143 33.4665 46.896 33.9544 49.8905C33.977 50.1226 33.8597 50.3711 33.5969 50.5817C33.0713 51.0022 32.1621 51.1086 31.5665 50.8203C31.2689 50.6759 31.1058 50.4604 31.0831 50.2278C30.9724 49.9071 30.0641 43.2974 30.1261 42.7204Z" fill="#0258BF"/>
<path d="M33.6476 47.9462L33.5544 47.3223C33.5801 47.5565 33.487 47.8007 33.2237 48.0162C32.6971 48.4472 31.7808 48.5663 31.1766 48.283C30.8846 48.1457 30.729 47.939 30.6953 47.7141L30.7794 48.3155C30.8131 48.5547 30.9561 48.7647 31.2582 48.9063C31.8623 49.1902 32.7791 49.0706 33.3052 48.6401C33.5685 48.424 33.6844 48.1865 33.6476 47.9462Z" fill="#FFC50C"/>
<path opacity="0.2" d="M31.4883 38.48C30.6812 39.5917 30.4043 41.157 30.1244 42.7201L30.0791 39.0295C30.5871 39.0284 31.0956 38.8338 31.4883 38.48Z" fill="#1D1D1B"/>
<path d="M26.4644 52.8048C26.4644 52.1407 27.1788 51.7741 28.2396 52.0811L29.1251 51.8585C29.5803 51.7438 30.0147 52.1225 30.0147 52.634V53.9739L30.0047 53.9705C30.0188 54.1177 29.9458 54.2671 29.7681 54.379C29.4393 54.5868 28.9056 54.5868 28.5769 54.379L26.7111 53.2C26.5394 53.0914 26.4623 52.9481 26.4694 52.8059L26.4644 52.8048Z" fill="black"/>
<path d="M27.8087 35.81L26.9619 44.2026L29.8725 44.5546L30.7193 36.162L27.8087 35.81Z" fill="#0258BF"/>
<path d="M26.9415 44.2696C27.0457 43.7002 27.4767 43.2664 28.0003 43.1722C28.4338 43.0939 28.8572 43.3458 29.2176 43.6209C29.4734 43.816 29.7141 44.2503 29.857 44.5534C29.7513 46.192 30.0141 49.7663 30.1677 52.4059C30.1536 52.639 29.999 52.8623 29.707 53.0199C29.123 53.3352 28.2107 53.2701 27.6695 52.8738C27.3986 52.676 27.2718 52.4329 27.2859 52.1998C27.1998 51.8691 26.8373 44.8389 26.9415 44.2696Z" fill="#0258BF"/>
<path d="M30.0076 49.7626C30.0051 50.0057 29.8863 50.2449 29.5998 50.4273C29.0264 50.7916 28.1025 50.7812 27.5361 50.4036C27.2622 50.2212 27.1293 50.0112 27.1152 49.7549L27.151 50.3893C27.1661 50.6417 27.2622 50.8638 27.5477 51.0523C28.1181 51.4299 29.0485 51.4404 29.626 51.076C29.915 50.8936 30.0574 50.6632 30.0479 50.4196L30.0076 49.7626Z" fill="#FFC50C"/>
<path d="M33.0137 28.1784C33.0636 29.5646 32.8008 31.7709 33.0908 34.977C33.2791 36.5181 27.9016 38.3766 27.7123 36.5578C27.6429 35.8881 26.9697 27.4779 26.9697 27.4779C27.221 26.7343 27.6982 26.1198 29.4457 25.2699C30.4169 24.7975 30.8761 24.7115 31.5819 24.8311C32.7484 25.0285 32.983 26.3794 33.0137 28.1784Z" fill="#0258BF"/>
<path d="M28.5692 26.8074C29.5021 27.3531 29.261 28.5678 29.269 29.7016C29.2766 30.8353 28.532 30.8315 27.6997 30.5383C27.5225 30.4782 27.3619 30.4446 27.2084 30.4209C27.076 28.7933 26.9697 27.4776 26.9697 27.4776C27.0468 27.2505 27.1203 27.0439 27.2874 26.83C27.5996 26.5985 28.0934 26.5291 28.5692 26.8074Z" fill="#D9B9AE"/>
<path d="M27.791 26.2836C28.1565 25.9612 28.6821 25.6415 29.4464 25.27C30.0148 24.9939 30.404 24.8621 30.773 24.7993C30.847 24.8418 30.9205 24.8859 30.9981 24.9206C31.7502 25.254 32.076 25.9491 32.2053 26.6441C32.2688 26.983 32.1092 27.3259 31.8358 27.4989L31.3006 27.8373C30.7725 28.1714 30.0641 27.9895 29.7258 27.4339L29.541 27.1296C29.1604 26.5074 28.6328 26.1613 27.9516 26.2395C27.9013 26.2456 27.8565 26.2605 27.791 26.2836Z" fill="#E4C6BB"/>
<path d="M30.6269 22.5434C30.6093 22.8967 30.5917 23.2517 30.5187 23.5961C30.4457 23.9406 30.3148 24.2768 30.0963 24.537C29.8496 24.8291 29.4956 25.0044 29.1336 25.0264C29.0199 25.0341 28.9061 25.0264 28.7943 25.0022C28.6831 24.9779 28.5723 24.9382 28.4802 24.8644C28.3367 24.7503 28.2581 24.5772 28.1972 24.3832C28.1363 24.1892 28.0467 24.0475 27.9017 23.3398C27.8302 22.991 27.9309 22.6454 27.9556 22.2436C27.9747 21.9327 27.9087 21.564 27.9248 21.2879C27.9334 21.1401 27.9445 20.9908 27.9868 20.8497C28.1116 20.4335 28.5018 20.1585 28.8995 20.1045C29.2973 20.0505 29.698 20.1822 30.06 20.3696C30.1592 20.4214 30.2589 20.4776 30.3379 20.562C30.4134 20.6419 30.4678 20.7422 30.5373 20.8282C30.6234 20.9334 30.6531 22.0132 30.6269 22.5434Z" fill="#FFCEA1"/>
<path opacity="0.5" d="M29.2022 24.1944C29.2027 24.4072 29.1977 24.6199 29.1932 24.8332C29.1922 24.879 29.1912 24.9264 29.1735 24.9683C29.1645 24.9909 29.1504 25.0107 29.1338 25.0267C29.02 25.0344 28.9062 25.0267 28.7944 25.0024C28.6832 24.9782 28.5724 24.9385 28.4803 24.8646C28.3816 24.7864 28.3126 24.6767 28.2598 24.5549C28.6318 24.8002 28.8992 24.475 28.8992 23.3164C28.9636 23.8422 29.2017 23.6625 29.2022 24.1944Z" fill="#1D1D1B"/>
<path d="M31.1554 22.3613H28.8999V25.5576H28.9009C28.8989 25.7416 29.0081 25.9263 29.2302 26.0668C29.6707 26.3452 30.3846 26.3452 30.8251 26.0668C31.0477 25.9263 31.1569 25.7416 31.1544 25.5576H31.1554V22.3613Z" fill="#FFCEA1"/>
<path d="M28.3912 21.6105C28.7234 21.8211 28.873 22.2174 28.9082 22.6357C28.9435 23.0541 28.8866 23.4768 28.9208 23.8957C28.955 24.3146 29.1519 24.5857 29.4822 24.7996C29.7138 24.949 30.2167 24.9253 30.6366 24.8112C31.0565 24.6971 31.3263 24.5191 31.4517 24.1509C31.6657 23.49 32.1369 22.5608 31.8353 21.2324C31.5353 19.9113 30.3093 19.7118 29.8965 19.6815C28.7652 19.5993 27.3893 20.3478 27.9234 21.3212C28.005 21.4705 28.2769 21.5383 28.3912 21.6105Z" fill="#2F2F2F"/>
<path d="M28.9942 22.3619C28.8699 22.3658 28.7797 22.4898 28.742 22.6094C28.6952 22.7588 28.6982 22.9175 28.7012 23.0729C28.7052 23.2708 28.7113 23.4758 28.8004 23.65C28.824 23.6969 28.8563 23.7426 28.9051 23.7625C28.9781 23.7922 29.0662 23.7514 29.1155 23.6875C29.1649 23.6236 29.1835 23.5425 29.1976 23.4637C29.2394 23.2366 29.2585 23.0057 29.254 22.7759C29.2525 22.6838 29.2459 22.5896 29.2062 22.5074C29.1674 22.4259 29.0863 22.3586 28.9942 22.3619Z" fill="#FFCEA1"/>
<path d="M29.0452 28.1615L28.9264 28.8824L28.2996 32.6772C28.2729 32.837 28.2185 32.9842 28.143 33.1126C27.9447 33.4471 27.6013 33.6588 27.2277 33.6588C27.1633 33.6588 27.0973 33.6522 27.0319 33.6389C26.7152 33.5767 26.4549 33.3694 26.2983 33.0911C26.1614 32.8491 26.103 32.5532 26.1528 32.2517L26.899 27.7365C26.9941 27.1594 27.4538 26.7549 27.9713 26.7549C28.0353 26.7549 28.1007 26.7609 28.1662 26.7736C28.7593 26.8916 29.1525 27.5127 29.0452 28.1615Z" fill="#E4C6BB"/>
<path d="M22.2511 28.4692C22.3654 28.5933 22.2834 28.8528 22.3715 28.9741C22.52 29.1791 22.592 29.2188 22.9112 29.2822C23.2304 29.3456 23.2817 29.5639 23.7298 29.7727C24.1779 29.9816 23.6341 31.0878 23.6341 31.0878C23.6341 31.0878 23.0275 30.7004 22.6398 30.5334C22.2522 30.3669 22.1137 30.3448 21.9093 29.9805C21.8 29.7859 21.8549 29.7088 21.8584 29.5236C21.86 29.4586 21.8308 29.3709 21.8388 29.3048C21.8469 29.2398 21.9043 29.1747 21.9179 29.1119C21.9355 29.0314 21.9118 28.9543 21.938 28.8826C22.018 28.6632 22.1152 28.4847 22.2511 28.4692Z" fill="#FFCEA1"/>
<path d="M23.4897 29.6458C23.3518 29.5587 23.4575 29.4523 23.4047 29.2699C23.3513 29.0836 23.1494 29.0142 23.1494 29.0142C23.1494 29.0142 23.1313 29.0593 23.1262 29.0792C23.1016 29.1828 23.1162 29.2864 22.9108 29.2826L22.8096 29.6215C22.8106 29.6215 23.6232 29.7301 23.4897 29.6458Z" fill="#FFCEA1"/>
<path d="M26.7185 33.5567L23.5421 31.804C23.1192 31.5769 22.8811 31.1817 22.862 30.7854C22.8428 30.3891 23.2471 29.0619 24.2264 29.65L27.7068 31.427L27.7073 31.4275C28.0859 31.638 28.3044 32.0569 28.3044 32.4924C28.3044 32.6742 28.2656 32.8594 28.1856 33.0331C27.9127 33.6217 27.2557 33.856 26.7185 33.5567Z" fill="#E4C6BB"/>
<path d="M29.5904 37.3563C29.4821 37.7637 29.462 37.9736 29.462 37.9736L27.5292 37.2268C27.5292 37.2268 27.5161 36.7567 27.6355 36.1333C27.6551 36.0335 27.7548 36.7578 29.5904 37.3563Z" fill="#493737"/>
<path d="M29.4541 37.6615C31.1684 37.9035 32.5277 37.349 33.2668 36.5818C33.2668 36.5818 33.2653 36.3839 33.2441 36.0957C33.222 35.7975 33.1918 35.6465 33.1918 35.6465C32.9446 36.4931 31.1004 37.36 29.2925 36.9709C27.9961 36.692 27.6759 36.1177 27.6502 35.8851C27.5958 36.2825 27.7177 36.6325 27.7177 36.6325C27.7177 36.6325 28.2564 37.4923 29.4541 37.6615Z" fill="#493737"/>
<path d="M31.6326 21.8938L31.8607 21.7499C32.7044 21.2164 32.5987 20.2844 31.624 19.6687L31.4624 19.5668C30.4877 18.9506 29.0136 18.8839 28.1698 19.4174L27.9417 19.5613C27.0979 20.0948 27.2037 21.0268 28.1783 21.6425L28.34 21.7444C29.3142 22.3606 30.7883 22.4273 31.6326 21.8938Z" fill="#FEA81F"/>
<path d="M32.4298 20.8479C32.4298 20.8479 32.4283 20.8452 32.4278 20.8441C32.4283 21.1836 32.2431 21.5077 31.8599 21.7497L31.6319 21.8941C30.7881 22.4276 29.3134 22.3604 28.3392 21.7447L28.1776 21.6427C27.6384 21.3021 27.3665 20.865 27.3731 20.4517L27.3716 20.4544C27.3716 20.4544 27.3716 20.5872 27.3716 20.6297C27.3701 21.0398 27.6435 21.4724 28.1781 21.8103L28.3397 21.9122C29.3144 22.5285 30.7886 22.5951 31.6324 22.0616L31.8604 21.9178C32.2441 21.6753 32.4313 21.3506 32.4303 21.0111C32.4298 20.9483 32.4298 20.8479 32.4298 20.8479Z" fill="#EB7200"/>
<path d="M31.9475 19.6652C31.8266 19.4326 31.6897 19.2805 31.5794 19.1581C31.4712 19.038 31.3222 18.9327 31.223 18.8621C30.5685 18.4372 29.8078 18.4234 29.1356 18.8241C28.9524 18.9338 28.607 19.1873 28.3548 19.6597C28.0925 20.1502 28.0784 20.5686 28.0698 20.8182C28.0708 21.1456 28.2627 21.4736 28.6488 21.7277C29.4438 22.2518 30.7603 22.2661 31.589 21.7602C32.0154 21.5 32.2299 21.1522 32.2289 20.805C32.2198 20.3696 32.1358 20.029 31.9475 19.6652Z" fill="#FF9900"/>
<path opacity="0.2" d="M31.7898 21.6163C31.7737 20.5415 31.4253 19.669 30.8231 19.1051C30.4531 18.759 30.0156 18.6422 29.5237 18.6471C29.3923 18.6934 29.2624 18.7491 29.1361 18.8246C29.0731 18.8621 28.9901 18.9183 28.8989 18.9933C29.5479 18.8814 30.1223 19.0373 30.5583 19.4452C31.0724 19.9264 31.4112 20.892 31.4258 21.8505C31.4822 21.8224 31.537 21.7926 31.5894 21.7607C31.6634 21.7149 31.7284 21.6664 31.7898 21.6163Z" fill="white"/>
<path d="M29.8659 37.954C29.7717 39.2233 29.7602 39.7497 29.6922 40.0914C29.6242 40.4332 29.4203 40.4116 28.6425 40.0953C27.8651 39.7789 27.2308 39.3672 27.0314 38.8215C26.8698 38.283 26.7953 37.6062 26.9423 36.7585C27.049 36.1417 27.4437 36.85 28.5312 37.2898C29.518 37.6889 29.9041 37.4397 29.8659 37.954Z" fill="#493737"/>
<path d="M29.2494 37.9781C29.2494 37.9781 29.2494 39.55 29.2494 39.5566C29.2494 39.5638 29.2454 39.5704 29.2368 39.5754L29.1744 39.6151C29.1578 39.6255 29.1311 39.6255 29.115 39.6151L28.9906 39.5363C28.9826 39.5313 28.9785 39.5241 28.978 39.5175C28.978 39.5109 28.978 37.939 28.978 37.939L29.2494 37.9781Z" fill="#C92C2C"/>
<path d="M29.1125 37.8809L29.2368 37.9597C29.2449 37.9647 29.2494 37.9718 29.2494 37.9785C29.2494 37.9851 29.2454 37.9922 29.2368 37.9972L29.1744 38.0369C29.1578 38.0474 29.1311 38.0474 29.115 38.0369L28.9906 37.9581C28.9826 37.9531 28.9785 37.9459 28.978 37.9393C28.978 37.9327 28.9821 37.9256 28.9906 37.9206L29.053 37.8809C29.0692 37.8704 29.0958 37.8704 29.1125 37.8809Z" fill="#AB1818"/>
<path d="M29.2494 36.962C29.2494 36.962 29.2494 37.9717 29.2494 37.9783C29.2494 37.9849 29.2454 37.9921 29.2368 37.9971L29.1744 38.0368C29.1578 38.0472 29.1311 38.0472 29.115 38.0368L28.9906 37.9579C28.9826 37.953 28.9785 37.9458 28.978 37.9392C28.978 37.9326 28.978 36.9229 28.978 36.9229L29.2494 36.962Z" fill="#CFBD80"/>
<path d="M29.1125 36.8643L29.2368 36.9431C29.2449 36.9481 29.2494 36.9552 29.2494 36.9619C29.2494 36.9685 29.2454 36.9756 29.2368 36.9806L29.1744 37.0203C29.1578 37.0308 29.1311 37.0308 29.115 37.0203L28.9906 36.9415C28.9826 36.9365 28.9785 36.9293 28.978 36.9227C28.978 36.9161 28.9821 36.909 28.9906 36.904L29.053 36.8643C29.0692 36.8538 29.0958 36.8538 29.1125 36.8643Z" fill="#AB1818"/>
<path d="M29.4149 37.1305L29.6098 37.0075L29.3545 36.7446L29.1597 36.8676L29.4149 37.1305Z" fill="#363636"/>
<path d="M29.1598 36.8676L29.3546 36.7447L28.9131 36.4658L28.7188 36.5887L29.1598 36.8676Z" fill="#262626"/>
<path d="M29.111 36.6363L29.2353 36.7151C29.2434 36.7201 29.2474 36.7272 29.2479 36.7338C29.2479 36.7404 29.2439 36.7476 29.2353 36.7526L29.1729 36.7923C29.1563 36.8027 29.1296 36.8027 29.1135 36.7923L28.9891 36.7134C28.9811 36.7085 28.9766 36.7013 28.9766 36.6947C28.9766 36.6881 28.9806 36.6809 28.9891 36.676L29.0516 36.6363C29.0677 36.6258 29.0944 36.6258 29.111 36.6363Z" fill="black"/>
<path d="M29.415 37.1544V37.1307L29.1598 36.8678L28.7188 36.5889V36.8159L29.1598 37.0949L29.415 37.1544Z" fill="#4A4A4A"/>
<path d="M29.415 37.1539L29.6099 37.031V37.0073L29.415 37.1302V37.1539Z" fill="#262626"/>
<path d="M29.4001 37.8132L28.9007 37.6644C28.8337 37.6446 28.7743 37.6887 28.7698 37.7614L28.6575 39.6155C28.6535 39.6822 28.6973 39.7495 28.7587 39.7693L29.2395 39.9281C29.3069 39.9501 29.3689 39.9071 29.3739 39.8333L29.5048 37.9692C29.5093 37.9014 29.4635 37.832 29.4001 37.8132Z" fill="#A24D28"/>
<path d="M27.2793 38.3301V36.4214L27.309 36.4914V38.4001L27.2793 38.3301Z" fill="#A00E0F"/>
<path d="M27.501 38.3677V36.459L27.4199 36.5103V38.4189L27.501 38.3677Z" fill="#D52D2D"/>
<path d="M27.4198 38.4191V36.5104L27.3091 36.4917V38.4004L27.4198 38.4191Z" fill="#BF1518"/>
<path d="M27.4278 36.2832L27.4711 36.389L27.5008 36.459L27.4258 36.2998L27.4278 36.2832Z" fill="#DED397"/>
<path d="M27.4256 36.2998L27.5006 36.4591L27.4196 36.5104L27.3989 36.3136L27.4256 36.2998Z" fill="#E8E2B5"/>
<path d="M27.3992 36.3134L27.4198 36.5102L27.3091 36.4914L27.3614 36.3057L27.3992 36.3134Z" fill="#DED397"/>
<path d="M27.3614 36.3056L27.3538 36.2803L27.2793 36.4214L27.309 36.4914L27.3614 36.3056Z" fill="#D9C879"/>
<path d="M27.4066 36.3118C27.4267 36.3058 27.4338 36.292 27.4267 36.2805L27.4061 36.2369C27.3995 36.2231 27.3814 36.2231 27.3749 36.2369L27.3542 36.2805C27.3472 36.292 27.3542 36.3058 27.3744 36.3118C27.3844 36.3152 27.3955 36.3152 27.4066 36.3118Z" fill="#2F2F2F"/>
<path d="M28.4943 37.5234C27.8458 37.2583 27.6545 37.1045 27.2598 36.8532C27.1853 36.8058 27.0992 36.8355 27.078 36.9176C26.9829 37.2913 27.0388 38.4025 27.145 38.7255C27.213 38.9322 27.9817 39.3841 28.3609 39.582C28.4349 39.6206 28.5109 39.5776 28.5169 39.4944L28.6388 37.7582C28.6453 37.6601 28.5834 37.5598 28.4943 37.5234Z" fill="#A24D28"/>
<path d="M31.1545 24.9912C31.1545 25.1103 31.0996 25.242 31.0583 25.2817C30.7346 25.5942 30.0987 25.8312 29.0853 25.5573C28.7968 25.4795 28.6845 25.7149 28.605 25.9784C29.3909 26.4088 30.0771 26.4105 30.6037 26.265C31.0548 26.1404 31.3196 25.7673 31.3433 25.5446C31.3242 25.361 31.3347 25.1406 31.1545 24.9912Z" fill="#D9B9AE"/>
</svg>
