<svg width="62" height="45" viewBox="0 0 62 45" fill="none" xmlns="http://www.w3.org/2000/svg">
<path d="M24.3887 42.6261V44.3658L61.8803 20.6689V18.9292L24.3887 42.6261Z" fill="#DEBE97"/>
<path d="M0 27.2104V28.9502L24.3886 44.3657V42.626L0 27.2104Z" fill="#CAA58B"/>
<path d="M0 27.2105L24.3886 42.6261L61.8803 18.9292L37.4917 3.51416L0 27.2105Z" fill="#EFE1BC"/>
<path opacity="0.7" d="M33.5154 19.6035L19.3213 28.5752L29.6573 35.1086L43.8514 26.1369L33.5154 19.6035Z" fill="black"/>
<path opacity="0.5" d="M15.2689 24.0761C16.0465 24.8916 16.7979 25.3771 17.8317 25.6319C18.8942 25.8938 19.9516 25.7955 21.0151 25.9603C21.9933 26.1118 22.8987 26.5935 23.8332 26.9444C24.7678 27.2953 25.8066 27.5144 26.7321 27.1366C26.839 27.0932 26.9453 27.0405 27.0306 26.9576C27.157 26.8351 27.2267 26.6566 27.2684 26.4776C27.4775 25.5693 27.0025 25.2744 26.2932 24.751C25.5834 24.2277 24.6062 23.8641 24.4477 23.8092C24.2907 23.7548 23.0507 23.2266 22.9218 23.114C22.6449 22.8729 22.3685 22.6324 22.0916 22.3913C21.7976 22.1354 21.156 21.7828 19.8337 21.7779C18.5115 21.7729 17.8879 22.41 16.1383 22.3281C15.7465 22.31 15.2198 22.2188 14.9293 22.5363C14.3936 23.1222 14.8275 23.6126 15.2689 24.0761Z" fill="black"/>
<path d="M15.4602 21.149C14.922 21.858 14.9927 22.3204 15.8003 22.9475C16.608 23.5752 16.4484 24.6379 17.7341 24.9536C18.8929 25.2381 19.0795 24.0656 18.6767 23.5725C17.851 22.562 17.3318 22.5768 17.7983 21.7081C18.2648 20.8393 16.162 20.0447 15.9674 20.3731C15.7727 20.7015 15.5927 20.9744 15.4602 21.149Z" fill="#623810"/>
<path d="M26.9745 25.0351C26.9168 24.6804 26.5205 24.3201 25.7259 23.9055C25.4119 23.7418 25.58 22.8423 25.3216 22.5441L23.9105 22.4107C23.8719 22.4068 23.7024 22.7259 23.6763 22.7698C23.5975 22.9005 23.5278 23.0378 23.4721 23.1823C23.4044 23.358 23.3573 23.5425 23.3251 23.7298C23.289 23.9379 23.2268 24.1598 23.3307 24.3569C23.4425 24.5694 23.6642 24.6046 23.8579 24.682C24.06 24.7627 24.2692 24.8435 24.4558 24.9615C24.7257 25.1318 24.8265 25.3932 25.4505 25.7501C26.0751 26.1076 26.3354 26.0302 26.6715 25.8155C26.9253 25.6524 27.0317 25.3899 26.9745 25.0351Z" fill="#623810"/>
<path d="M27.5807 15.1382L24.905 16.8285C25.2281 17.6413 23.9805 20.1987 23.2833 22.0291C22.8233 23.2641 25.5321 24.2043 26.131 22.6062C26.7922 20.8423 27.67 19.0537 27.7417 17.3815C27.7768 16.5786 27.7412 15.8883 27.5807 15.1382Z" fill="#186FD9"/>
<path d="M23.4915 3.17676C22.9026 3.22399 22.5018 3.3849 22.0528 3.66058C21.7554 3.84345 21.4479 4.01039 21.1283 4.14109C20.575 4.36735 20.111 4.64303 19.79 4.93189C18.708 5.90445 17.7885 9.06048 18.3573 15.2797C18.5374 17.2496 20.6468 17.9811 21.0185 16.1233C21.5642 13.3956 21.4133 10.1973 22.0664 10.1396C22.7195 10.0819 23.4097 12.9277 24.9051 16.8278C26.4009 17.7702 27.959 17.0228 27.5808 15.1375C27.2025 13.2522 26.7837 11.3538 25.636 8.32021C25.0029 6.64801 23.4915 3.17676 23.4915 3.17676Z" fill="#186FD9"/>
<path d="M18.3569 15.2798C16.701 18.1914 15.9847 19.2837 15.5428 20.521C15.1961 21.4914 17.6441 22.8593 18.1477 21.8368C18.6513 20.8148 21.0035 17.3024 21.0797 15.7982L18.3569 15.2798Z" fill="#186FD9"/>
<path d="M21.4893 16.7935V17.4854L31.8253 24.0182V23.3268L21.4893 16.7935Z" fill="#8C4302"/>
<path d="M31.8252 23.3266V24.018L46.0193 15.0464V14.355L31.8252 23.3266Z" fill="#B05402"/>
<path d="M35.6833 7.82227L21.4893 16.7934L31.8253 23.3268L46.0194 14.3551L35.6833 7.82227Z" fill="#D46D17"/>
<path d="M43.2608 17.4385V26.5101L42.6699 26.1367L42.4507 17.9503L43.2608 17.4385Z" fill="#422B1D"/>
<path d="M31.8252 24.0181V33.7377L32.4156 33.3648L32.6689 24.1334L43.2603 17.4386V26.5102L43.8512 26.1368L44.104 16.9053V16.2573L31.8252 24.0181Z" fill="#6B4E37"/>
<path d="M24.2476 19.8774V28.9485L24.838 28.5751L25.0572 20.3893L24.2476 19.8774Z" fill="#5C3F2D"/>
<path d="M23.4038 18.6958V19.3444L23.6571 28.5752L24.2475 28.9487V19.8776L30.9814 24.1336L31.2347 33.365L31.8251 33.7379V24.0183L23.4038 18.6958Z" fill="#422B1D"/>
<path d="M23.3959 21.5444V21.6817L20.958 20.1407V20.0034L23.3959 21.5444Z" fill="#422B1D"/>
<path d="M23.396 21.5443V21.6816L25.8615 20.1231V19.9863L23.396 21.5443Z" fill="#5C3F2D"/>
<path d="M37.9132 12.3691L26.0547 19.8647V20.0014L37.9132 12.5059V12.3691Z" fill="#5C3F2D"/>
<path d="M26.0546 19.8643V20.001L25.0659 19.3755V19.2388L26.0546 19.8643Z" fill="#422B1D"/>
<path d="M24.8721 19.3612L24.9804 19.4293L25.0657 19.3755V19.2388L24.8721 19.3612Z" fill="#5C3F2D"/>
<path d="M35.4751 10.8281L20.958 20.0035L23.3959 21.5445L25.8614 19.9865L24.8722 19.3616L25.0658 19.2391L26.0545 19.8646L37.913 12.3691L35.4751 10.8281Z" fill="#6B4E37"/>
<path d="M25.0375 19.4653C24.1476 20.3621 24.0072 20.8113 23.2612 21.4588L23.3967 21.5445L24.5775 20.7981C24.8062 20.4253 25.0766 20.0557 25.3952 19.691L25.0375 19.4653Z" fill="#805A43"/>
<path d="M27.361 17.8339C27.343 17.8065 27.2848 17.8037 27.2055 17.8257C26.8915 17.9141 25.8722 18.6653 25.1885 19.3161L25.5341 19.5347C25.9068 19.1288 26.3412 18.7302 26.8479 18.3419C27.3174 17.9838 27.3921 17.8817 27.361 17.8339Z" fill="#805A43"/>
<path d="M25.2128 18.3177C25.9356 17.8196 26.7523 17.2897 27.6176 16.7279C28.045 16.4506 28.4819 16.1672 28.9354 15.8696C29.1992 15.6966 29.4691 15.5186 29.746 15.3341C31.7721 13.9854 33.2825 12.7058 34.3896 11.5136L35.4751 10.8271C34.3765 12.1045 32.1403 13.9069 29.889 15.4055C29.6066 15.5933 29.3322 15.7746 29.0638 15.9503C28.6123 16.2463 28.1784 16.528 27.7536 16.8042C26.8933 17.3627 26.0801 17.8899 25.3653 18.3831C24.0395 19.2969 23.2183 20.1832 22.5216 20.9916L22.3716 20.8971C23.0829 20.0976 23.9081 19.2173 25.2128 18.3177Z" fill="#805A43"/>
<path d="M29.1403 16.1374C29.1769 16.1149 29.214 16.0923 29.2516 16.0698C29.516 15.9095 29.7919 15.7425 30.0813 15.5657C33.382 13.5541 35.0881 11.8978 35.839 11.0576L35.9875 11.1515C35.1819 12.0428 33.4387 13.6749 30.1992 15.6536C29.9138 15.8277 29.6414 15.9929 29.38 16.1511C29.3384 16.1764 29.2973 16.2011 29.2566 16.2258C26.3562 17.9837 24.8789 18.8788 22.9592 21.2682L22.8042 21.1704C24.7234 18.8134 26.2318 17.8996 29.1403 16.1374Z" fill="#805A43"/>
<path d="M25.606 19.8252C25.3998 20.0525 25.2082 20.2799 25.0181 20.5193L25.5016 20.214C25.5844 20.1146 25.6687 20.0169 25.755 19.9196L25.606 19.8252Z" fill="#805A43"/>
<path d="M36.1934 11.2822C35.3708 12.0719 34.3249 12.9643 30.6685 15.6514C30.3269 15.9023 30.0084 16.1379 29.7104 16.3603C27.6377 17.9062 26.5632 18.8041 25.7485 19.6712L25.8955 19.764C26.7006 18.8887 27.7495 18.004 29.8403 16.4427C30.1488 16.2121 30.4804 15.9671 30.8371 15.7046C32.1297 14.7546 32.0966 14.9138 31.2243 15.5844C30.8406 15.8793 30.4242 16.2044 30.0003 16.5437C28.7698 17.5278 27.4731 18.6295 26.7056 19.4527L27.9452 18.669C28.5888 18.0089 29.3327 17.3219 30.1493 16.6371C30.5511 16.2999 30.971 15.9627 31.4044 15.6294C33.147 14.29 34.9619 12.821 36.4091 11.4179L36.1934 11.2822Z" fill="#805A43"/>
<path d="M31.6958 16.2988L31.0342 16.7167C31.6778 16.0758 32.5315 15.3064 33.4209 14.5052C34.5651 13.4744 35.6657 12.3673 36.5074 11.481L36.7272 11.6199C35.8819 12.498 34.7437 13.5233 33.6346 14.5222C32.9374 15.1505 32.2617 15.7595 31.6958 16.2988Z" fill="#805A43"/>
<path d="M32.9849 15.4835C34.1346 14.3572 35.9154 12.7443 36.8885 11.7212L37.0385 11.8156C36.1687 12.7256 34.707 14.0145 33.6335 15.0733L32.9849 15.4835Z" fill="#805A43"/>
<path d="M34.8335 14.315C35.6787 13.5401 36.7934 12.6494 37.3206 11.9937L37.4756 12.0914C37.0045 12.6005 36.2305 13.2243 35.5619 13.8542L34.8335 14.315Z" fill="#805A43"/>
<path d="M36.1729 13.4688C36.6945 13.0135 37.1254 12.8191 37.7776 12.2837L37.913 12.3694L36.1729 13.4688Z" fill="#805A43"/>
<path d="M22.7312 19.6511C22.834 19.7077 22.2807 20.2233 21.892 20.5935L21.6768 20.4573C21.9963 20.1305 22.6283 19.5946 22.7312 19.6511Z" fill="#805A43"/>
<path d="M28.2541 15.9415C28.3579 15.8767 28.5039 15.786 28.6539 15.6921C28.9604 15.5005 29.2849 15.2973 29.3055 15.2847C30.9553 14.2418 31.1861 13.926 31.7685 13.1698L32.9724 12.4087C32.3825 13.2928 31.2994 14.1984 29.3396 15.4247C29.1525 15.5422 28.9664 15.6586 28.7818 15.7734C28.6463 15.858 28.5114 15.942 28.3775 16.0255C26.0002 17.5049 24.0449 18.8432 22.2566 20.7444C22.241 20.7609 22.2255 20.7779 22.2099 20.7955L21.9902 20.6566C23.8167 18.7323 25.9631 17.3671 28.2541 15.9415Z" fill="#805A43"/>
<path d="M24.5242 17.7494L30.0627 14.2485C29.5615 14.6961 28.9761 15.1299 28.3973 15.5297C27.9142 15.8631 27.4356 16.1723 27.0133 16.4452L26.7023 16.6462C26.5814 16.7247 26.4379 16.817 26.2769 16.9208C24.9516 17.7747 22.151 19.509 21.4698 20.3261L21.3213 20.2322C21.4241 20.1229 21.8299 19.7177 22.4886 19.1992C23.1683 18.6649 24.1063 18.0136 24.5242 17.7494Z" fill="#805A43"/>
<path d="M26.1992 20.0057L26.0547 19.9146V19.9678L26.1992 20.0595V20.0057Z" fill="#C99E4C"/>
<path d="M26.1992 20.0063V20.0601L37.7938 12.7315V12.6777L26.1992 20.0063Z" fill="#C99E4C"/>
<path d="M23.8042 21.5201V21.5733L26.0068 20.1812V20.1279L23.8042 21.5201Z" fill="#C99E4C"/>
<path d="M23.8041 21.5204V21.5737L23.6597 21.4825V21.4287L23.8041 21.5204Z" fill="#B58324"/>
<path d="M37.6493 12.5864L26.0547 19.915L26.1992 20.0062L37.7938 12.6776L37.6493 12.5864Z" fill="#E9C379"/>
<path d="M25.8623 20.0366L23.6597 21.4282L23.8041 21.5199L26.0068 20.1278L25.8623 20.0366Z" fill="#E9C379"/>
<path opacity="0.1" d="M23.1745 9.41741C21.7494 9.37403 20.5224 9.20049 20.1267 6.86051C19.9967 6.09333 20.1974 5.36019 20.3835 5.01807C19.9752 5.3926 19.7223 6.1834 19.8799 7.11423C20.2756 9.45421 21.5693 9.62775 22.9945 9.67113C23.8487 9.69694 25.5568 9.3894 25.8909 9.00719L25.8919 9.00663C24.9302 9.3213 23.9566 9.44103 23.1745 9.41741Z" fill="black"/>
<path d="M32.6571 12.1663C31.8054 11.4655 30.7545 10.6473 29.7883 10.0553C29.0524 9.60443 29.1167 8.97893 29.054 8.19088C29.054 8.19088 27.1693 6.99262 27.1362 7.73564C27.1031 8.47865 27.3178 9.77083 27.4728 10.3178C27.5877 10.7126 27.5711 10.9427 29.238 11.7868C29.9388 12.1416 30.9787 12.5781 32.3833 13.2234C32.9205 13.4705 33.3785 12.8428 32.6571 12.1663Z" fill="#FFCEA1"/>
<path d="M28.4498 2.24279C27.1064 2.18787 26.9358 3.58109 26.9002 4.63768C26.8641 5.69372 26.8094 7.30936 26.7874 7.96176C26.7653 8.61417 27.2368 8.94476 28.0314 8.97716C28.826 9.00956 29.3487 8.6883 29.3697 8.06719C29.3908 7.44554 29.4901 4.52565 29.5122 3.87324C29.5343 3.22029 29.1771 2.27244 28.4498 2.24279Z" fill="#D9B9AE"/>
<path d="M34.4753 12.5625L33.6631 12.6559L33.4961 12.7448C33.4961 12.7448 33.5698 13.7328 34.1046 13.5334C34.6388 13.3341 34.9714 13.5158 35.1133 14.0376C35.3767 13.6504 34.8129 13.1644 34.8129 13.1644L34.4753 12.5625Z" fill="#F0B47F"/>
<path d="M34.756 12.5894C34.2489 12.1797 33.2958 12.6592 32.6567 12.166L32.3828 13.2231C33.0083 13.5065 33.226 13.4434 34.0271 13.964C34.4766 14.2561 34.5423 13.6768 34.146 13.428C33.7508 13.1798 33.6554 13.0666 34.1094 13.0502C34.5544 13.0342 34.603 13.2396 34.8483 13.7108C35.1001 14.1952 35.2105 14.087 35.4397 13.7778C35.7001 13.4467 35.2682 13.004 34.756 12.5894Z" fill="#FFCEA1"/>
<path opacity="0.3" d="M33.9375 13.8129C33.9365 13.8684 33.9977 13.8986 34.0283 13.9178C34.0709 13.9447 34.1592 14.0073 34.2114 13.9771C34.2335 13.9645 34.236 13.7959 34.2244 13.7514C34.2084 13.691 34.1101 13.6218 34.0534 13.6108C33.928 13.5861 33.9385 13.7575 33.9375 13.8129Z" fill="white"/>
<path d="M29.5083 3.13331C28.9099 1.38642 26.8959 1.35622 24.006 2.87301C21.1161 4.38979 19.7306 4.51993 20.1264 6.85991C20.5222 9.19989 21.7497 9.37343 23.1743 9.41682C24.5994 9.4602 26.6581 9.02692 28.1223 7.81327C29.5876 6.60017 30.1023 4.86702 29.5083 3.13331Z" fill="#186FD9"/>
<path d="M24.6274 4.07463C25.4361 4.16799 26.0511 4.60732 26.4584 5.34814C26.7584 5.894 26.8436 6.54146 26.7102 7.14884C26.5843 7.72326 25.9708 8.42455 25.4953 8.68595C26.3109 8.52449 27.9317 7.57829 28.4378 7.01759C28.8401 6.56838 29.0613 6.20758 29.2359 5.64688C29.4556 4.94176 29.4065 4.12241 29.0719 3.46232C28.9043 3.13172 28.6655 2.8456 28.3716 2.64461C28.0847 2.44856 27.5284 2.30029 27.5284 2.30029L24.6274 4.07463Z" fill="#E4C6BB"/>
<path d="M23.0843 5.02787C24.7768 4.46937 25.621 5.25522 25.8663 6.31071C26.1116 7.3662 25.7429 8.11361 24.1317 8.56173C22.5204 9.0104 22.073 8.65235 21.8051 7.23441C21.5362 5.81647 21.3918 5.58637 23.0843 5.02787Z" fill="#D9B9AE"/>
<path d="M27.8663 3.90729C27.6922 3.8661 27.5116 3.94793 27.3677 4.06325C27.2137 4.18626 27.0878 4.32575 27.0005 4.51082L27.1199 4.49654C27.2839 4.44162 27.452 4.38066 27.5834 4.2593C27.627 4.21921 27.6661 4.17253 27.7123 4.13573C27.7494 4.10553 27.7916 4.08138 27.8242 4.04513C27.8568 4.00889 27.8798 3.95562 27.8663 3.90729Z" fill="#D9B9AE"/>
<path d="M27.2174 4.96417C27.2059 5.82031 28.1439 6.44527 28.7092 6.0614C29.1762 5.74399 29.6558 5.55068 29.9783 5.04106C30.4383 4.31506 28.3666 2.18925 28.0255 3.40399C27.7516 4.37931 27.2299 4.02894 27.2174 4.96417Z" fill="#FAC28E"/>
<path d="M27.6549 6.59686C27.6951 6.53536 27.7352 6.47385 27.7753 6.41235C27.822 6.34096 27.8696 6.26793 27.8942 6.1839C27.9434 6.01751 27.8952 5.83408 27.821 5.67922C27.7467 5.52436 27.6469 5.38431 27.5827 5.22396C27.4508 4.89611 27.3595 4.34476 27.5691 4.15749C27.4156 4.1498 27.1603 4.31015 27.0675 4.4123C26.9652 4.52543 26.9391 4.67425 26.9296 4.82637C26.91 5.14268 27.0164 5.51941 27.1598 5.79454C27.2912 6.04606 27.4628 6.27231 27.5712 6.53811C27.5787 6.55678 27.5857 6.57546 27.5927 6.59413C27.6063 6.63038 27.6243 6.57874 27.6549 6.59686Z" fill="#D9B9AE"/>
<path opacity="0.2" d="M28.6699 6.08576L27.75 3.97314L27.6381 4.09341C27.6135 4.57063 27.7715 5.67665 28.5636 6.13465C28.6479 6.10445 28.6699 6.08576 28.6699 6.08576Z" fill="black"/>
<path d="M27.7583 2.998C27.5652 3.99143 27.7302 4.38628 27.9017 4.85197C28.0482 5.24957 28.1842 5.35556 28.6181 6.00961C29.2045 6.89321 29.7763 7.30068 30.3938 6.65048C30.6998 6.33416 31.0219 5.88329 31.225 5.45934C31.2837 5.33633 31.3083 4.92721 31.358 4.79486C31.4668 4.50435 31.6248 4.25339 31.6956 3.86294C31.9093 2.68333 31.375 1.27966 29.997 0.958952C28.6191 0.638241 28.0021 1.74206 27.7583 2.998Z" fill="#FFCEA1"/>
<path d="M27.7499 4.0181C27.8888 4.03073 27.8477 2.87804 28.233 2.97853C28.5394 3.05871 28.5665 3.38053 28.5329 3.99284C28.4993 4.60516 28.8469 4.59691 28.9734 4.39097C29.1073 4.17351 29.1369 3.94505 29.2397 3.41566C29.3837 2.67264 29.8492 3.14163 30.106 3.49419C30.3634 3.84676 30.8876 4.10706 31.3506 4.12134C31.8893 4.13836 32.0182 3.5277 32.0182 2.93461C32.0182 2.41565 31.7097 1.1954 30.3614 0.715434C29.008 0.233819 28.0649 1.068 27.7865 2.07242C27.3812 3.53594 27.6109 4.00547 27.7499 4.0181Z" fill="#623B12"/>
<path d="M24.4129 15.5662C24.1691 15.3235 23.7764 15.1148 23.0972 14.6914L23.1082 15.078L23.5692 15.6052C23.5692 15.6052 23.4277 15.3866 23.6023 15.4816C23.8015 15.5898 23.9675 15.7743 24.2178 15.8996C24.4686 16.0248 24.6572 15.8084 24.4129 15.5662Z" fill="#FFCEA1"/>
<path d="M25.4216 17.3401L25.082 18.4027L25.3755 18.2111L25.7146 17.1484L25.4216 17.3401Z" fill="#BF2C1C"/>
<path d="M22.3379 16.3015L22.6313 16.1098C22.6519 16.0961 22.6785 16.0939 22.7066 16.1016L22.4131 16.2932C22.385 16.2855 22.359 16.2877 22.3379 16.3015Z" fill="#BF2C1C"/>
<path d="M22.4136 16.2932L22.707 16.1016C22.7261 16.1071 22.7467 16.1169 22.7667 16.1312L22.4738 16.3229C22.4532 16.3086 22.4326 16.2982 22.4136 16.2932Z" fill="#BF2C1C"/>
<path d="M22.5317 16.3767L22.8247 16.1851L22.9702 16.3559L22.6767 16.5475L22.5317 16.3767Z" fill="#BF2C1C"/>
<path d="M22.4731 16.323L22.7661 16.1313C22.7857 16.1456 22.8057 16.1638 22.8243 16.1857L22.5308 16.3774C22.5128 16.3549 22.4927 16.3368 22.4731 16.323Z" fill="#BF2C1C"/>
<path d="M22.6768 16.5476L22.9697 16.356C22.9988 16.39 23.0269 16.4158 23.054 16.435L22.761 16.6267C22.7339 16.6075 22.7059 16.5817 22.6768 16.5476Z" fill="#36474F"/>
<path d="M22.7612 16.6267L23.0542 16.4351C23.0833 16.4559 23.1114 16.4691 23.137 16.4763L22.844 16.6679C22.8184 16.6602 22.7903 16.647 22.7612 16.6267Z" fill="#2D3B42"/>
<path d="M22.8442 16.6672L23.1372 16.4756C23.1914 16.4904 23.2375 16.48 23.2701 16.458L22.9772 16.6497C22.9441 16.6716 22.8979 16.6821 22.8442 16.6672Z" fill="#242F35"/>
<path d="M23.945 16.4663L23.4229 16.9298L23.7163 16.7382L24.0489 16.4427C24.0093 16.4345 23.9726 16.4416 23.945 16.4663Z" fill="#13191C"/>
<path d="M23.4229 16.9304L23.7163 16.7388C23.6933 16.7596 23.6802 16.7931 23.6777 16.8332L23.3848 17.0249C23.3868 16.9848 23.3993 16.9507 23.4229 16.9304Z" fill="#242F35"/>
<path d="M23.3843 17.0247L23.6773 16.833C23.6758 16.8561 23.6778 16.8819 23.6828 16.9082L23.3899 17.0999C23.3843 17.0735 23.3828 17.0477 23.3843 17.0247Z" fill="#2D3B42"/>
<path d="M23.3896 17.1003L23.6826 16.9087C23.6916 16.9537 23.7097 17.0021 23.7373 17.0471C23.7694 17.0998 23.8045 17.1481 23.8406 17.1904C23.8898 17.2481 23.9414 17.2959 23.9936 17.3326L23.7007 17.5243C23.6485 17.487 23.5968 17.4392 23.5477 17.3821C23.511 17.3392 23.4764 17.2915 23.4443 17.2387C23.4167 17.1937 23.3982 17.1454 23.3896 17.1003Z" fill="#36474F"/>
<path d="M24.2506 17.4232C24.2195 17.4248 24.1864 17.421 24.1528 17.4116L23.8599 17.6033C23.9376 17.6247 24.0109 17.6181 24.071 17.5791C24.0806 17.5731 24.0896 17.5659 24.0981 17.5582L24.2506 17.4232Z" fill="#242F35"/>
<path d="M23.7007 17.5242L23.9936 17.3325C24.0468 17.3704 24.1005 17.3968 24.1527 17.4111L23.8597 17.6027C23.8075 17.589 23.7539 17.5621 23.7007 17.5242Z" fill="#2D3B42"/>
<path d="M23.713 15.3235C23.6312 15.2274 23.5309 15.2049 23.4908 15.2807C23.4491 15.3592 23.4848 15.5064 23.569 15.6047L24.6054 16.8326C24.7378 16.988 24.7885 17.2105 24.7323 17.3307C24.7218 17.3532 24.7077 17.3719 24.6897 17.3862L24.0345 17.9041C23.9593 17.9634 23.8379 17.9216 23.7356 17.8014L22.5312 16.3763C22.4494 16.2802 22.3491 16.2571 22.3089 16.3334C22.2673 16.412 22.3029 16.5591 22.3872 16.6574L23.8289 18.361C23.9573 18.5114 24.1063 18.5883 24.2257 18.5658L25.0814 18.4016L25.4205 17.3395L23.713 15.3235Z" fill="#DE3222"/>
<path d="M24.606 16.8329C24.7384 16.9883 24.7891 17.2107 24.7329 17.331C24.7224 17.3535 24.7083 17.3722 24.6903 17.3865L24.0352 17.9043C23.9599 17.9636 23.8385 17.9219 23.7362 17.8016L22.6772 16.5473C22.8067 16.6989 22.924 16.6912 22.9852 16.6445C23.0469 16.5979 23.5185 16.1761 23.6429 16.0602C23.7673 15.9444 23.7086 15.7681 23.5696 15.605L24.606 16.8329ZM24.3346 17.3486C24.4926 17.2085 24.4279 16.812 24.2042 16.549C24.1144 16.4435 24.0081 16.4095 23.9449 16.4661L23.4227 16.9296C23.363 16.9823 23.3725 17.1207 23.4442 17.2376C23.4763 17.2904 23.511 17.3387 23.5476 17.381C23.7332 17.599 23.9604 17.6792 24.0974 17.5567L24.3346 17.3486Z" fill="#1D262B"/>
<path d="M23.52 15.2477L23.813 15.0561C23.834 15.0424 23.8601 15.0402 23.8882 15.0478L23.5953 15.2395C23.5672 15.2318 23.5411 15.2346 23.52 15.2477Z" fill="#BF2C1C"/>
<path d="M23.5957 15.24L23.8887 15.0483C23.9077 15.0538 23.9283 15.0637 23.9483 15.078L23.6549 15.2696C23.6348 15.2548 23.6148 15.2449 23.5957 15.24Z" fill="#DE3222"/>
<path d="M23.6553 15.2698L23.9487 15.0781C23.9683 15.0924 23.9879 15.11 24.0069 15.132L23.7135 15.3236C23.6944 15.3016 23.6748 15.2835 23.6553 15.2698Z" fill="#FF5947"/>
<path d="M23.7129 15.3235L24.0063 15.1318L25.7144 17.1484L25.4214 17.34L23.7129 15.3235Z" fill="#FF5947"/>
<path d="M25.0857 17.343C25.1259 17.3902 25.1469 17.4605 25.1329 17.5055C25.1173 17.5539 25.0677 17.555 25.0215 17.5083C25.0185 17.505 25.0155 17.5017 25.0125 17.4984C24.9719 17.4506 24.9513 17.3809 24.9653 17.3358C24.9809 17.2875 25.0306 17.2864 25.0767 17.3331C25.0797 17.3364 25.0827 17.3397 25.0857 17.343Z" fill="#1D262B"/>
<path d="M24.9246 17.8535C24.9648 17.9007 24.9853 17.9705 24.9713 18.0155C24.9557 18.0633 24.9061 18.0644 24.8599 18.0183C24.8564 18.015 24.8534 18.0117 24.8504 18.0078C24.8102 17.9606 24.7897 17.8909 24.8037 17.8458C24.8193 17.798 24.8689 17.7964 24.9151 17.8436C24.9181 17.8464 24.9216 17.8502 24.9246 17.8535Z" fill="#1D262B"/>
<path d="M30.7539 23.8582C30.7409 23.8543 30.7268 23.8478 30.7128 23.8379C30.6992 23.8285 30.6862 23.8159 30.6732 23.8011C30.6395 23.7615 30.6165 23.7116 30.6074 23.6649C30.6039 23.6462 30.6024 23.6281 30.6034 23.6116C30.6044 23.5951 30.6079 23.5798 30.614 23.5671C30.62 23.5545 30.628 23.5452 30.6375 23.5386L30.5809 23.5754C30.5713 23.5814 30.5633 23.5913 30.5573 23.6039C30.5513 23.6165 30.5478 23.6319 30.5467 23.6484C30.5457 23.6649 30.5467 23.683 30.5508 23.7017C30.5598 23.7484 30.5829 23.7983 30.6165 23.8379C30.6295 23.8527 30.6426 23.8653 30.6561 23.8747C30.6702 23.8845 30.6837 23.8911 30.6967 23.895C30.7173 23.9005 30.7364 23.8988 30.7519 23.8884L30.8086 23.8516C30.7935 23.862 30.7745 23.8637 30.7539 23.8582Z" fill="#B2B3B1"/>
<path d="M31.0542 23.7232L25.59 17.3085L25.5498 17.2612L25.2132 18.3167L25.0818 18.4024L24.4478 18.5243L24.5004 18.7643L24.6584 18.6665L24.7242 18.9675L24.8817 18.8692L24.9474 19.1701L25.1049 19.0724L25.1706 19.3728L25.3281 19.275L25.3938 19.5754L25.5513 19.4777L25.617 19.778L25.7751 19.6803L25.8408 19.9807L25.9988 19.8829L26.0645 20.1833L26.2225 20.0856L26.2882 20.3865L26.4457 20.2882L26.5115 20.5892L26.6695 20.4914L26.7352 20.7918L26.8932 20.694L26.9589 20.9944L27.1169 20.8967L27.1826 21.1971L27.3401 21.0993L27.4059 21.3997L27.5498 21.3064L27.5649 21.3086L27.6291 21.6029L27.7866 21.5046L27.8523 21.8055L28.0103 21.7078L28.076 22.0082L28.234 21.9104L28.2998 22.2108L28.4578 22.1131L28.5235 22.4135L28.6815 22.3157L28.7472 22.6161L28.9052 22.5184L28.9709 22.8193L29.1284 22.721L29.1942 23.0219L29.3517 22.9236L29.4174 23.2246L29.5754 23.1268L29.6411 23.4272L29.7986 23.3295L29.8643 23.6299L30.0223 23.5321L30.0881 23.8325L30.2461 23.7348L30.3118 24.0357L30.4693 23.9374L30.535 24.2383L30.6925 24.14L30.7582 24.441L30.9132 24.3405L31.1084 23.9308C31.1319 23.8808 31.1084 23.7864 31.0542 23.7232ZM30.7763 23.8605C30.7482 23.9187 30.677 23.9088 30.6168 23.838C30.5566 23.7672 30.53 23.6623 30.5576 23.604C30.5852 23.5458 30.6569 23.5563 30.7171 23.6271C30.7778 23.6974 30.8039 23.8023 30.7763 23.8605Z" fill="#D4D4D4"/>
<path d="M25.59 17.3085L25.1962 18.5386L24.4809 18.6759L24.4478 18.5238L25.0818 18.4024L25.2132 18.3162L25.5498 17.2612L25.59 17.3085Z" fill="#B2B3B1"/>
<path d="M31.1104 23.6861L25.606 17.2241L25.5493 17.2609L31.0537 23.7229C31.0838 23.7586 31.1048 23.8036 31.1129 23.8454L31.1696 23.8086C31.1615 23.7668 31.141 23.7218 31.1104 23.6861Z" fill="#E3E3E3"/>
<path d="M31.1695 23.8086L31.1128 23.8454C31.1158 23.8619 31.1173 23.8783 31.1163 23.8932C31.1153 23.908 31.1123 23.9217 31.1068 23.9332L30.9116 24.3429L30.9683 24.3061L31.1634 23.8965C31.169 23.8849 31.172 23.8712 31.173 23.8564C31.174 23.8415 31.173 23.8256 31.1695 23.8086Z" fill="#B2B3B1"/>
<path d="M21.0355 8.50309C20.423 9.12749 19.8501 9.79472 19.8321 10.6382C19.811 11.6081 20.423 12.758 20.878 13.4587C21.7292 14.7696 21.7809 14.8805 22.0779 15.3138C22.3748 15.7471 23.3726 15.1897 23.0972 14.6856C22.6818 13.9239 22.3136 12.9227 21.8145 11.6789C21.5075 10.9145 22.3803 10.5905 22.8358 10.0918C23.2918 9.59264 22.3528 7.15984 21.0355 8.50309Z" fill="#FFCEA1"/>
<path d="M25.1458 5.26899C24.0914 4.42328 23.3063 5.34258 22.6442 6.17676C21.982 7.01094 21.4563 7.61722 21.0475 8.13233C20.6387 8.64744 20.8248 9.25536 21.4518 9.8523C22.0793 10.4492 22.6968 10.5635 23.0861 10.0731C23.4759 9.58267 24.2679 8.68588 25.0981 7.69135C25.5195 7.18722 26.3106 6.20366 25.1458 5.26899Z" fill="#E4C6BB"/>
<path d="M24.3004 16.6887C23.9653 16.206 23.8248 16.1637 23.569 15.6052C23.3152 15.3048 23.3352 14.9896 23.0965 14.6914L22.0771 15.3142C22.6485 16.2543 22.5311 16.5476 22.8652 16.9666C23.255 17.4553 23.9176 17.5004 24.1554 17.2648C24.3932 17.0292 24.3937 16.8628 24.3004 16.6887Z" fill="#FFCEA1"/>
<path d="M25.621 29.0534C25.5793 29.2308 25.7313 29.4022 25.7444 29.4131C25.7639 29.4291 25.7634 29.4609 25.7639 29.4873C25.7664 29.5867 25.8181 29.6828 25.8959 29.7338C25.944 29.7651 26.0037 29.7838 26.0323 29.836C26.0554 29.8783 26.0524 29.9348 26.08 29.9738C26.107 30.0123 26.1547 30.0227 26.1953 30.0419C26.3037 30.0941 26.3649 30.2166 26.4421 30.3149C26.5575 30.4615 26.716 30.5581 26.871 30.6515C26.9533 30.7015 27.0361 30.7514 27.1188 30.8009C27.2207 30.8624 27.3225 30.9239 27.4243 30.9854C27.5131 31.0392 27.6024 31.093 27.6962 31.1359C27.8176 31.1913 27.945 31.2281 28.0674 31.2803C28.1361 31.3099 28.2033 31.3445 28.2751 31.3643C28.4025 31.4 28.7296 31.4648 28.8605 31.4522C28.9673 31.4417 29.163 31.439 29.2598 31.3879C29.3566 31.3368 29.3155 31.2495 29.3009 31.1435C29.2944 31.0969 29.1534 30.9398 29.1379 30.8959C29.0396 30.6152 28.7837 30.445 28.5414 30.3044C28.3884 30.216 28.2324 30.1298 28.0659 30.0787C27.943 30.0408 27.8116 30.0205 27.7032 29.9464C27.633 29.898 27.5733 29.8277 27.4945 29.7981C27.3631 29.7492 27.1966 29.8228 27.0917 29.7234C27.0591 29.6926 27.0391 29.6498 27.011 29.6141C26.9698 29.5614 26.9137 29.5257 26.8585 29.4906C26.7406 29.4159 26.6222 29.3417 26.5043 29.267C26.4236 29.216 26.3413 29.1644 26.2515 29.1369C26.1231 29.0974 25.9771 29.1067 25.8688 29.0216C25.8467 29.004 25.8241 28.982 25.797 28.9815C25.7263 28.9798 25.6481 28.9392 25.621 29.0534Z" fill="#EEA56A"/>
<path d="M25.6237 29.0415C25.5966 29.1558 25.732 29.3364 25.7451 29.3474C25.7646 29.3633 25.7641 29.3952 25.7646 29.4215C25.7672 29.5209 25.8188 29.617 25.8966 29.6681C25.9447 29.6994 26.0044 29.7181 26.033 29.7703C26.0561 29.8126 26.0531 29.8691 26.0807 29.9081C26.1078 29.9465 26.1554 29.957 26.196 29.9762C26.3044 30.0284 26.3656 30.1514 26.4428 30.2491C26.5582 30.3957 26.7167 30.4924 26.8717 30.5858C26.954 30.6357 27.0368 30.6857 27.1195 30.7351C27.2214 30.7966 27.3232 30.8581 27.425 30.9197C27.5138 30.9735 27.6031 31.0273 27.6969 31.0701C27.8183 31.1256 27.9457 31.1618 28.0681 31.2146C28.1368 31.2442 28.2041 31.2788 28.2758 31.2986C28.4032 31.3343 28.7303 31.3991 28.8612 31.3864C28.968 31.376 29.1637 31.3733 29.2605 31.3222C29.3573 31.2711 29.2841 31.1327 29.2871 31.0152C29.2886 30.968 29.1536 30.8741 29.1386 30.8301C29.0403 30.5495 28.7844 30.3793 28.5422 30.2387C28.3892 30.1503 28.2332 30.0641 28.0666 30.013C27.9437 29.9751 27.8123 29.9548 27.7039 29.8806C27.6337 29.8323 27.574 29.7615 27.4953 29.7324C27.3638 29.6835 27.1973 29.7571 27.0925 29.6577C27.0599 29.6269 27.0398 29.5841 27.0117 29.5484C26.9706 29.4957 26.9144 29.46 26.8592 29.4254C26.7413 29.3507 26.6229 29.2766 26.5051 29.2019C26.4243 29.1508 26.342 29.0992 26.2522 29.0717C26.1238 29.0322 25.9778 29.0415 25.8695 28.9564C25.8474 28.9388 25.8248 28.9169 25.7978 28.9163C25.7265 28.9136 25.6508 28.9273 25.6237 29.0415Z" fill="#E9C379"/>
</svg>
