<svg width="63" height="55" viewBox="0 0 63 55" fill="none" xmlns="http://www.w3.org/2000/svg">
<path d="M30.3555 52.963V54.839L62.2577 34.6749V32.7988L30.3555 52.963Z" fill="#DEBE97"/>
<path d="M0 33.7764V35.6524L30.3552 54.8389V52.9629L0 33.7764Z" fill="#CAA58B"/>
<path d="M0 33.7765L30.3552 52.963L62.2575 32.7988L31.9023 13.6123L0 33.7765Z" fill="#EFE1BC"/>
<path opacity="0.8" d="M24.7089 30.9824C23.1862 30.0201 20.2079 30.3417 18.0572 31.7007C15.9065 33.0598 15.3976 34.9423 16.9208 35.9052C17.0701 35.9993 17.2432 36.0716 17.4184 36.1414L15.5706 36.5631C15.0633 36.6791 14.7079 37.1831 14.7263 37.7504C14.8015 40.096 16.6487 41.4734 18.4251 41.0677L26.7671 39.1627C26.7671 39.1627 26.1045 31.8642 24.7089 30.9824Z" fill="black"/>
<path d="M26.9034 16.364C26.6762 16.4381 26.4447 16.4345 26.2332 16.3664C25.8627 16.2468 25.5538 15.9312 25.4348 15.4965L24.5228 12.2674C24.3351 11.5834 24.6905 10.8639 25.3147 10.659C25.3331 10.6537 25.351 10.6478 25.3688 10.643C25.4938 10.6087 25.6187 10.598 25.741 10.6093C25.7518 10.6093 25.7626 10.6105 25.774 10.6122C25.8464 10.6199 25.9168 10.6353 25.986 10.6578C26.0239 10.6697 26.0612 10.6845 26.0969 10.7011C26.4166 10.8426 26.6768 11.1363 26.7839 11.5271L27.6959 14.7569C27.8825 15.4391 27.5282 16.1591 26.9034 16.364Z" fill="#D9B9AE"/>
<path opacity="0.5" d="M26.5381 14.897C25.7636 15.106 25.5174 15.8593 25.8355 16.1406C25.9539 16.2424 26.0892 16.3194 26.2336 16.3656C26.4451 16.4337 26.6766 16.4372 26.9038 16.3632C27.2489 16.2495 27.5118 15.9789 27.6465 15.6443C27.8742 15.0616 27.3127 14.688 26.5381 14.897Z" fill="#1D1D1B"/>
<path d="M26.8073 11.8017C26.8295 12.5147 26.32 13.1128 25.6687 13.1371C25.0174 13.1613 24.4711 12.6035 24.4489 11.8905L24.2937 6.92985C24.2715 6.21687 24.781 5.61879 25.4323 5.59451C26.0836 5.57023 26.6299 6.12806 26.6521 6.84163L26.8073 11.8017Z" fill="#D9B9AE"/>
<path d="M25.3425 33.949C25.3431 33.9431 25.3441 33.9377 25.3447 33.9318C25.408 33.3497 24.7724 32.558 24.0237 32.0138C23.7143 31.7893 23.8463 31.2528 23.5623 30.9431L22.0532 30.8472C21.7465 31.3345 21.4809 31.8799 21.4214 32.7149L21.423 32.7155C21.4138 32.876 21.5085 33.0353 21.7059 33.1495L23.7879 34.3588C24.1552 34.5719 24.7383 34.5489 25.0904 34.3073C25.2408 34.2042 25.3247 34.0775 25.343 33.9502L25.3425 33.949Z" fill="#0D1421"/>
<path d="M24.2331 22.8586L21.0768 23.4537L20.9611 22.717L20.2887 18.4445L19.645 14.3514L22.8013 13.7568L24.2331 22.8586Z" fill="#0258BF"/>
<path d="M24.2329 22.8589C24.1328 22.233 23.5281 21.2452 22.9504 21.1812C22.4722 21.1285 22.0254 21.4341 21.649 21.7616C21.3817 21.9937 21.2141 23.1123 21.0767 23.454C21.3098 25.1251 21.3276 26.7483 21.1086 31.2755C21.1172 31.5307 21.2795 31.78 21.5938 31.963C22.2229 32.3284 23.2225 32.2893 23.8262 31.8753C24.128 31.6687 24.2735 31.4069 24.2654 31.1517C24.3389 30.7846 24.5239 24.6775 24.2329 22.8589Z" fill="#0258BF"/>
<path d="M21.216 28.7633C21.2187 29.0268 21.3713 29.2856 21.6818 29.4828C22.3027 29.8778 23.3034 29.8659 23.9163 29.4573C24.2127 29.2602 24.3588 29.0055 24.3663 28.7515L24.349 29.4331C24.3409 29.6972 24.2132 29.9565 23.9044 30.1608C23.2867 30.5694 22.2789 30.5813 21.6536 30.1863C21.341 29.9891 21.1782 29.7392 21.189 29.4751L21.216 28.7633Z" fill="#FFC50C"/>
<path opacity="0.2" d="M21.4116 17.0596C21.0184 18.1468 20.8712 20.0418 21.0768 23.4545L20.2173 17.9928C20.2173 17.9928 20.9318 17.8193 21.4116 17.0596Z" fill="#1D1D1B"/>
<path d="M20.6161 35.2176C20.6171 35.2123 20.6177 35.2075 20.6182 35.2022C20.7004 34.6296 20.0978 33.8212 19.3746 33.2539C19.0761 33.02 19.2237 32.4948 18.9533 32.178L17.2721 31.9263C17.0703 33.0413 16.8951 33.0994 16.8166 33.5358C16.7382 33.9722 16.8556 34.1653 17.0471 34.2861L19.0658 35.5622C19.4217 35.7873 19.9989 35.7873 20.3548 35.5622C20.5068 35.4657 20.5939 35.3443 20.6161 35.2188V35.2176Z" fill="#0D1421"/>
<path d="M20.6215 25.159V17.2624C20.6215 17.2624 19.2573 14.6769 17.4236 14.2056C16.6128 15.9501 17.4593 19.7785 17.4788 20.7207C17.5248 22.9076 17.4528 24.465 17.4528 24.465C17.4528 26.6584 16.6955 29.7721 16.6139 32.3048C16.6133 32.3178 16.6128 32.3309 16.6128 32.3439C16.6128 32.5968 16.7653 32.8496 17.0704 33.0421C17.6806 33.4276 18.6699 33.4276 19.2801 33.0421C19.5851 32.849 19.7377 32.5968 19.7377 32.3439C19.8524 31.9933 20.6973 25.782 20.6215 25.159Z" fill="#0258BF"/>
<path d="M16.8027 30.1325L16.8953 29.4355C16.8666 29.6973 16.9905 29.9756 17.2847 30.216C17.8727 30.6975 18.8956 30.8301 19.5701 30.5133C19.8957 30.3605 20.0775 30.1296 20.1153 29.8785L20.0223 30.5494C19.9844 30.8165 19.8157 31.051 19.4787 31.2091C18.8042 31.5259 17.7807 31.3927 17.1933 30.9118C16.899 30.6714 16.7703 30.4008 16.8027 30.1325Z" fill="#FFC50C"/>
<path d="M22.5142 28.2518L22.353 28.382V28.1499L22.5142 28.2518Z" fill="#C9C9C9"/>
<path d="M29.0366 30.8472C29.0366 30.8472 29.0366 35.8132 29.0366 37.0603C29.0366 38.3074 27.4372 39.3188 25.4639 39.3188C23.4906 39.3188 21.8911 38.308 21.8911 37.0603C21.8911 35.8126 21.8911 30.8472 21.8911 30.8472H29.0366Z" fill="#FCC901"/>
<path opacity="0.4" d="M26.398 30.8472H22.4888V38.3092C23.1292 38.9173 24.2213 39.3188 25.4633 39.3188C25.7889 39.3188 26.0978 39.2827 26.398 39.2312V30.8472Z" fill="black"/>
<path opacity="0.6" d="M22.4894 30.8472H21.8911C21.8911 30.8472 21.8911 35.8132 21.8911 37.0603C21.8911 37.5222 22.1123 37.9515 22.4894 38.3092V30.8472Z" fill="black"/>
<path opacity="0.8" d="M29.0366 30.8472V31.5146C28.4779 32.417 27.0893 33.056 25.4639 33.056C23.8384 33.056 22.4499 32.4164 21.8911 31.5146V30.8472H29.0366Z" fill="black"/>
<path d="M21.627 30.3156C21.627 31.6551 23.3449 32.7405 25.4637 32.7405C27.5825 32.7405 29.3004 31.6551 29.3004 30.3156C29.3004 30.2806 29.3004 29.801 29.3004 29.801C29.3004 29.801 27.5278 27.7876 25.4637 27.7876C23.5121 27.7876 21.627 29.801 21.627 29.801C21.627 29.801 21.627 30.2102 21.627 30.3156Z" fill="#E3E3E3"/>
<path d="M23.0114 28.3484C22.9221 28.3958 22.835 28.445 22.7507 28.4982C22.6668 28.551 22.5884 28.6066 22.5137 28.6629L22.3525 28.561L22.8496 28.2466L23.0114 28.3484Z" fill="#B1B1B1"/>
<path d="M28.5743 31.4531L28.0767 31.7676V32.1791L28.5743 31.8647V31.4531Z" fill="#C9C9C9"/>
<path d="M21.627 29.8019C21.627 31.1414 23.3449 32.2269 25.4637 32.2269C27.5825 32.2269 29.3004 31.1414 29.3004 29.8019C29.3004 28.4624 27.5825 27.377 25.4637 27.377C23.3449 27.377 21.627 28.4624 21.627 29.8019Z" fill="#F7F7F7"/>
<path d="M23.0114 27.9368C22.9221 27.9836 22.835 28.0334 22.7507 28.0866C22.6668 28.1399 22.5884 28.195 22.5137 28.2513L22.3525 28.1494L22.8496 27.835L23.0114 27.9368Z" fill="#F7F7F7"/>
<path d="M28.4132 31.3516C28.3385 31.4078 28.2601 31.4629 28.1762 31.5162C28.0924 31.5695 28.0053 31.6186 27.9155 31.666L28.0767 31.7679L28.5738 31.4534L28.4132 31.3516Z" fill="#F7F7F7"/>
<path d="M25.4634 27.5942C27.3923 27.5942 28.9561 28.5826 28.9561 29.8019C28.9561 31.0212 27.3923 32.0095 25.4634 32.0095C23.5345 32.0095 21.9707 31.0212 21.9707 29.8019C21.9707 28.5826 23.5345 27.5942 25.4634 27.5942Z" fill="#BFB9B4"/>
<path d="M25.4635 28.9365C27.0219 28.9365 28.3417 29.582 28.7912 30.4726C28.3417 31.3633 27.0219 32.0087 25.4635 32.0087C23.9051 32.0087 22.5852 31.3633 22.1357 30.4726C22.5852 29.582 23.9051 28.9365 25.4635 28.9365Z" fill="#AB9981"/>
<g opacity="0.2">
<path d="M25.4635 29.2214C23.9895 29.2214 22.7286 29.7987 22.2163 30.6147C22.1871 30.568 22.1601 30.5206 22.1357 30.4726C22.5852 29.582 23.9051 28.9365 25.4635 28.9365C27.0219 28.9365 28.3417 29.582 28.7912 30.4726C28.7668 30.5206 28.7398 30.568 28.7106 30.6147C28.1984 29.7987 26.9375 29.2214 25.4635 29.2214Z" fill="black"/>
</g>
<path opacity="0.2" d="M23.2484 30.364C23.3642 30.1597 23.5535 29.9749 23.7888 29.8132C24.0203 29.6516 24.307 29.5041 24.6754 29.4094C25.041 29.3152 25.503 29.2986 25.8876 29.3821C26.2878 29.4686 26.5962 29.6285 26.8098 29.8257C27.0159 30.0205 27.1219 30.2929 26.964 30.5322C26.8136 30.7518 26.5556 30.9325 26.1975 31.0373C25.8519 31.1486 25.3607 31.1456 25.0534 30.9934C24.7522 30.8448 24.6391 30.6026 24.7619 30.4119C24.7673 30.4042 24.7808 30.3983 24.796 30.3989C24.8149 30.3995 24.8295 30.409 24.829 30.4196C24.8155 30.6056 24.9848 30.7761 25.2303 30.8454C25.4689 30.9212 25.7475 30.894 25.9552 30.8004C26.164 30.7086 26.3333 30.5659 26.3922 30.4244C26.4496 30.2965 26.3857 30.1603 26.2359 30.0365C25.9411 29.7807 25.4067 29.6628 24.9307 29.7706C24.4444 29.8778 23.9787 30.1656 23.7634 30.4711C23.5324 30.7826 23.6162 31.1415 24.0322 31.3861C24.4373 31.6425 25.0443 31.7828 25.6528 31.7425C26.2516 31.7041 26.8672 31.5205 27.2231 31.222C27.5909 30.9236 27.7894 30.5387 27.6607 30.1662C27.6574 30.1561 27.6677 30.146 27.685 30.1431C27.7034 30.1401 27.7218 30.1466 27.7272 30.1567C27.9068 30.5357 27.7526 30.952 27.3962 31.2878C27.0348 31.636 26.3955 31.8651 25.6982 31.9391C24.9918 32.009 24.2296 31.8622 23.7152 31.5667C23.4529 31.4204 23.2371 31.225 23.1656 31.0059C23.0856 30.7909 23.1273 30.5659 23.2484 30.364Z" fill="white"/>
<path d="M29.3176 33.5016C29.4372 33.5016 29.5199 33.4441 29.5648 33.3666C29.7558 33.042 29.3311 32.4179 28.4586 31.7381L28.3899 31.6942C28.3288 31.6564 28.2488 31.6783 28.2141 31.7464C28.1784 31.8139 28.1995 31.8997 28.2612 31.9388L28.3191 31.9755C29.2884 32.7317 29.3728 33.1664 29.3474 33.2144C29.3209 33.2576 29.2576 33.2523 29.0358 33.1404L29.0363 33.4181C29.1456 33.4767 29.2392 33.5016 29.3176 33.5016Z" fill="#4F4F4F"/>
<path d="M28.0767 31.7679V32.1794L27.916 32.0776V31.666L28.0767 31.7679Z" fill="#E3E3E3"/>
<path d="M25.5984 30.622C25.5984 30.6705 25.5357 30.7102 25.4589 30.7102C25.3815 30.7102 25.3193 30.6705 25.3193 30.622C25.3193 30.5734 25.3193 22.9355 25.3193 22.9355H25.5984C25.5984 22.9355 25.5984 30.5728 25.5984 30.622Z" fill="#E3E3E3"/>
<path d="M25.4589 23.0232C25.536 23.0232 25.5984 22.9837 25.5984 22.9349C25.5984 22.8862 25.536 22.8467 25.4589 22.8467C25.3818 22.8467 25.3193 22.8862 25.3193 22.9349C25.3193 22.9837 25.3818 23.0232 25.4589 23.0232Z" fill="#C9C9C9"/>
<path d="M27.5171 16.8609C27.6734 17.1575 27.9271 17.318 28.0834 17.2191C28.2397 17.1202 28.2397 16.7999 28.0834 16.5032C27.9271 16.2065 27.6734 16.046 27.5171 16.1449C27.3602 16.2432 27.3602 16.5642 27.5171 16.8609Z" fill="#383838"/>
<path d="M28.0834 16.503C27.9271 16.2063 27.6734 16.0458 27.5171 16.1447C27.5171 16.1447 27.5896 16.0985 27.6474 16.0624C27.8038 15.9635 28.0575 16.124 28.2138 16.4207C28.3701 16.7174 28.3701 17.0377 28.2138 17.1366C28.1694 17.1645 28.0834 17.2189 28.0834 17.2189C28.2398 17.12 28.2398 16.7997 28.0834 16.503Z" fill="#575757"/>
<path d="M27.5947 16.2922C27.7083 16.2205 27.8917 16.3366 28.0053 16.5516C28.1189 16.7665 28.1189 16.9986 28.0053 17.0703C27.8917 17.1419 26.4198 18.0723 26.4198 18.0723L26.0093 17.2935C26.0093 17.2935 27.4811 16.3638 27.5947 16.2922Z" fill="black"/>
<path opacity="0.2" d="M26.2534 17.7568L26.1279 17.5187L27.8994 16.3989C27.9384 16.441 27.9746 16.4925 28.006 16.5517C28.019 16.5766 28.0309 16.602 28.0406 16.6269L26.2534 17.7568Z" fill="white"/>
<path d="M26.0093 17.8133C26.1229 18.0283 26.3063 18.1444 26.4199 18.0727C26.5335 18.0011 26.5335 17.7689 26.4199 17.554C26.3063 17.339 26.1229 17.223 26.0093 17.2946C25.8957 17.3663 25.8963 17.5984 26.0093 17.8133Z" fill="black"/>
<path d="M25.7867 17.9546C25.943 18.2513 26.1967 18.4118 26.353 18.3129C26.5093 18.214 26.5093 17.8936 26.353 17.5969C26.1967 17.3002 25.943 17.1398 25.7867 17.2387C25.6304 17.3376 25.6304 17.6579 25.7867 17.9546Z" fill="#383838"/>
<path d="M26.3534 17.5967C26.1971 17.3 25.9434 17.1396 25.7871 17.2385C25.7871 17.2385 25.8596 17.1923 25.9175 17.1561C26.0738 17.0573 26.3275 17.2177 26.4838 17.5144C26.6401 17.8111 26.6401 18.1315 26.4838 18.2304C26.4395 18.2582 26.3534 18.3127 26.3534 18.3127C26.5098 18.2138 26.5098 17.8934 26.3534 17.5967Z" fill="#575757"/>
<path d="M26.058 22.0178C26.058 22.0362 26.058 22.0551 26.058 22.0735C26.0569 22.2292 26.0531 22.3696 26.0385 22.5466C26.0282 22.6734 26.0114 22.7953 25.9936 22.8729C25.9871 22.9013 25.9671 22.9884 25.9314 23.0441C25.9211 23.06 25.9054 23.0849 25.8795 23.1104C25.8502 23.1394 25.8291 23.1542 25.8043 23.1708C25.7718 23.1915 25.7356 23.2087 25.6966 23.2229C25.6799 23.2288 25.6626 23.2341 25.6447 23.2389C25.6447 23.2389 25.6122 23.2472 25.5901 23.2513C25.5841 23.2525 25.5765 23.2531 25.5711 23.2543C25.5711 23.2543 25.5419 23.259 25.5127 23.2614C25.5057 23.262 25.4868 23.2632 25.4727 23.2632C25.4667 23.2632 25.4586 23.2632 25.4521 23.2632C25.4521 23.2632 25.4143 23.2638 25.3721 23.259C25.2931 23.2507 25.2217 23.2312 25.1595 23.2022C25.0746 23.1619 25.0318 23.1187 25.0043 23.0855C24.9859 23.0636 24.9588 23.0216 24.9431 22.976C24.935 22.9529 24.9247 22.9221 24.9193 22.8978C24.915 22.8806 24.9026 22.8279 24.8939 22.7687C24.8755 22.6467 24.8669 22.5602 24.8566 22.4004C24.8506 22.3109 24.8512 22.1072 24.8501 22.0237C24.8501 22.0214 24.8501 22.019 24.8501 22.0166C24.8501 21.8058 24.8501 21.6797 24.8501 21.6797H26.0596C26.058 21.6809 26.058 21.807 26.058 22.0178Z" fill="#404040"/>
<path d="M26.0581 22.018C26.0581 22.0364 26.0581 22.0553 26.0581 22.0737C26.0581 22.0855 26.0581 22.0974 26.0576 22.1092C26.0414 22.1216 26.0241 22.1335 26.0062 22.1447C25.8645 22.2342 25.6703 22.2892 25.455 22.2892C25.2094 22.2892 24.9909 22.2176 24.8492 22.105C24.8492 22.0737 24.8486 22.0458 24.8486 22.0257C24.8486 22.0233 24.8486 22.021 24.8486 22.0186C24.8486 21.8078 24.8486 21.6816 24.8486 21.6816H26.0581C26.0581 21.6816 26.0581 21.8072 26.0581 22.018Z" fill="black"/>
<path d="M25.4534 21.2988C25.1196 21.2988 24.8486 21.47 24.8486 21.6814C24.8486 21.8922 25.1191 22.0633 25.4534 22.0633C25.7871 22.0633 26.0581 21.8922 26.0581 21.6814C26.0581 21.47 25.7871 21.2988 25.4534 21.2988Z" fill="#404040"/>
<path d="M27.3958 15.5418C27.3726 15.9066 28.4036 17.091 27.9324 17.6855C27.5484 18.1705 26.9393 18.3008 26.7013 18.3008C26.4638 18.3008 26.5271 17.9964 26.4844 17.4854C26.4417 16.9743 26.1815 17.0235 26.0517 16.9986C25.9213 16.9737 26.1755 16.4656 26.0874 15.8178C25.9786 15.0124 27.4489 14.7152 27.3958 15.5418Z" fill="#FFCEA1"/>
<path d="M26.1377 16.5031C26.2194 16.5878 26.2535 16.6755 26.2697 16.7175C26.313 16.8294 26.3379 16.9792 26.3498 17.0509C26.3855 17.2676 26.4033 17.5418 26.4103 17.6449C26.426 17.8835 26.4287 18.1133 26.4298 18.2364L26.4358 21.1363C26.4347 21.3081 26.3243 21.4632 26.1469 21.5751C25.9695 21.6876 25.7245 21.7569 25.454 21.7569C24.9131 21.7569 24.4765 21.4792 24.4787 21.1363L24.4744 18.796C24.4733 18.7386 24.4733 18.6883 24.4728 18.6498C24.4728 18.6468 24.4728 18.6439 24.4728 18.6403V18.2358C24.4728 18.2056 24.4717 18.2027 24.4717 18.1731C24.4755 17.6999 24.502 17.3121 24.549 17.0213C24.5907 16.7672 24.6442 16.6263 24.7411 16.5185C24.853 16.3942 24.9996 16.3391 25.0542 16.3184C25.1094 16.2976 25.1776 16.2805 25.2571 16.2669C25.3371 16.2532 25.4177 16.2526 25.4486 16.2521C25.4821 16.2515 25.5514 16.2532 25.6401 16.2669C25.7358 16.2817 25.8153 16.3089 25.8153 16.3089C25.9051 16.3415 25.9295 16.3509 26.0155 16.4025C26.0155 16.4042 26.0798 16.4433 26.1377 16.5031Z" fill="#FCC901"/>
<path d="M25.9939 17.1015C26.1356 17.012 26.2233 16.8889 26.2238 16.7527C26.2254 16.4803 25.8776 16.2588 25.4476 16.2588C25.2323 16.2588 25.0381 16.3139 24.8964 16.4033C24.7547 16.4927 24.6676 16.6159 24.6665 16.7521C24.6649 17.0245 25.0127 17.246 25.4427 17.246C25.658 17.246 25.8527 17.1909 25.9939 17.1015Z" fill="#FFDB00"/>
<path d="M26.2141 21.7863C26.1795 21.8763 26.1064 21.9562 26.0064 22.0196C25.8647 22.109 25.6705 22.1641 25.4552 22.1641C25.0906 22.1641 24.7855 22.0054 24.7017 21.791C24.6362 21.6234 24.5708 21.4552 24.5059 21.2876C24.6108 21.5571 24.9943 21.7572 25.453 21.7572C25.7235 21.7572 25.9685 21.688 26.1459 21.5755C26.272 21.4961 26.3639 21.3948 26.4072 21.2817C26.3434 21.4499 26.2785 21.6181 26.2141 21.7863Z" fill="#F0A103"/>
<path d="M24.4439 18.7979C24.6002 19.0946 24.8539 19.255 25.0102 19.1562C25.1666 19.0573 25.1666 18.7369 25.0102 18.4402C24.8539 18.1435 24.6002 17.983 24.4439 18.0819C24.2876 18.1808 24.2876 18.5018 24.4439 18.7979Z" fill="#383838"/>
<path d="M25.0107 18.44C24.8544 18.1433 24.6007 17.9828 24.4443 18.0817C24.4443 18.0817 24.5174 18.0355 24.5747 17.9994C24.731 17.9005 24.9847 18.061 25.141 18.3577C25.2974 18.6543 25.2974 18.9747 25.141 19.0736C25.0967 19.1014 25.0107 19.1559 25.0107 19.1559C25.167 19.057 25.167 18.7367 25.0107 18.44Z" fill="#575757"/>
<path d="M24.5215 18.2297C24.6351 18.158 24.8184 18.2741 24.932 18.4891C25.0456 18.704 25.0456 18.9362 24.932 19.0078C24.8184 19.0795 23.3466 20.0098 23.3466 20.0098L22.936 19.231C22.936 19.231 24.4084 18.3013 24.5215 18.2297Z" fill="black"/>
<path opacity="0.2" d="M23.1807 19.6943L23.0552 19.4562L24.8261 18.3364C24.8651 18.3785 24.9013 18.43 24.9322 18.4892C24.9451 18.5141 24.957 18.5395 24.9673 18.5644L23.1807 19.6943Z" fill="white"/>
<path d="M22.9368 19.7509C23.0503 19.9658 23.2337 20.0819 23.3473 20.0102C23.4609 19.9386 23.4609 19.7064 23.3473 19.4915C23.2337 19.2765 23.0503 19.1605 22.9368 19.2321C22.8232 19.3038 22.8232 19.5359 22.9368 19.7509Z" fill="black"/>
<path d="M22.7139 19.8916C22.8702 20.1883 23.1239 20.3488 23.2803 20.2499C23.4366 20.151 23.4366 19.8306 23.2803 19.534C23.1239 19.2373 22.8702 19.0768 22.7139 19.1757C22.5576 19.2746 22.5576 19.5949 22.7139 19.8916Z" fill="#383838"/>
<path d="M23.2802 19.5333C23.1239 19.2366 22.8702 19.0761 22.7139 19.175C22.7139 19.175 22.7869 19.1288 22.8442 19.0927C23.0006 18.9938 23.2542 19.1543 23.4106 19.4509C23.5669 19.7476 23.5669 20.068 23.4106 20.1669C23.3662 20.1947 23.2802 20.2492 23.2802 20.2492C23.4365 20.1509 23.4365 19.8299 23.2802 19.5333Z" fill="#575757"/>
<path d="M26.3123 18.6914V20.5899C26.2863 20.619 26.2571 20.6468 26.2241 20.6734V18.7749C26.2571 18.7489 26.2863 18.721 26.3123 18.6914Z" fill="black"/>
<path d="M26.1389 18.8345V20.733C26.1114 20.7502 26.0816 20.7662 26.0508 20.781V18.8824C26.0816 18.8676 26.1114 18.8516 26.1389 18.8345Z" fill="black"/>
<path d="M25.9661 18.9199V20.8184C25.9374 20.8297 25.9082 20.8397 25.8779 20.8486V18.9501C25.9082 18.9412 25.938 18.9306 25.9661 18.9199Z" fill="black"/>
<path d="M25.7928 18.9731V20.8717C25.7641 20.8782 25.7349 20.8841 25.7046 20.8894V18.9909C25.7349 18.9856 25.7641 18.9797 25.7928 18.9731Z" fill="black"/>
<path d="M21.1559 6.17195C20.6187 6.51186 20.179 6.9021 19.8192 7.71575C19.234 9.03867 18.6687 11.09 17.4241 14.2054C16.6322 16.188 18.6076 17.4724 20.107 17.219C21.6064 16.9655 22.8516 16.7524 23.3201 15.7397C25.2182 11.6336 26.8874 10.3829 27.1146 7.90169C27.3348 5.49568 25.692 5.0936 24.1872 5.15164C22.79 5.20493 21.6892 5.83441 21.1559 6.17195Z" fill="#0252B0"/>
<path d="M22.238 6.35814C21.8508 6.11357 21.4343 6.04489 21.001 6.27288C21.0518 6.23853 21.1032 6.20476 21.1557 6.1716C21.689 5.83406 22.7898 5.20458 24.1864 5.15069C24.3119 5.14595 24.438 5.14419 24.564 5.14655C25.721 5.32361 26.2825 5.97559 26.5216 6.72055C26.7131 7.31746 26.6216 8.55749 26.1738 9.59143C25.437 10.0516 23.4508 10.4779 22.8861 10.3328C23.2896 8.55334 23.2896 7.02256 22.238 6.35814Z" fill="#E4C6BB"/>
<path d="M22.6597 11.6745C23.5241 11.8012 24.9158 11.5395 25.5303 11.125C25.6753 10.8626 25.8192 10.6785 25.962 10.4043C25.0262 10.9183 23.8767 11.0894 22.9274 11.0865C22.8344 11.3393 22.8019 11.4915 22.6597 11.6745Z" fill="#FFC50C"/>
<path d="M22.3194 9.37587C22.5352 8.40707 22.6045 7.38438 21.634 6.74957C20.7821 6.19233 20.0984 6.86918 19.571 8.31824C19.1031 9.60503 18.8873 10.2345 18.8873 10.2345C18.6011 11.0559 20.9601 12.5855 21.4523 11.5355C21.9629 10.4453 22.1652 10.0705 22.3194 9.37587Z" fill="#D9B9AE"/>
<path d="M21.9561 13.6975C21.7792 13.8266 21.5656 13.9071 21.333 13.9207C21.2107 13.9272 21.0923 13.916 20.9798 13.8876C20.5687 13.7833 20.2409 13.46 20.1327 13.0396C20.131 13.0337 20.13 13.0277 20.1283 13.0218C20.111 12.9496 20.0997 12.8744 20.0959 12.7974L19.8579 8.0061C19.826 7.34819 20.3279 6.78383 20.9787 6.74594C21.1009 6.73942 21.2194 6.75067 21.3319 6.7791C21.8193 6.90227 22.1887 7.33456 22.2147 7.86929L22.4527 12.6606C22.4738 13.0834 22.2742 13.4671 21.9561 13.6975Z" fill="#E4C6BB"/>
<path d="M22.8519 17.6617C22.5571 17.1969 23.706 16.7279 23.8591 16.9938C24.0116 17.2596 24.1187 17.5066 24.3908 17.8027C24.6867 18.1248 24.8511 18.3114 24.936 18.4636C24.9998 18.5778 25.1167 18.9829 24.9869 19.3945C24.976 19.4294 24.9198 19.5496 24.8971 19.5709C24.6266 19.8244 24.3475 20.0245 24.004 20.1572C23.8385 20.2211 23.5881 20.2318 23.4842 20.0855C23.3641 19.9162 23.6741 19.9037 23.6924 19.6568C23.7108 19.4098 23.535 19.2269 23.449 19.141C23.0006 18.6909 23.1467 18.1272 22.8519 17.6617Z" fill="#FFCEA1"/>
<path d="M23.8205 17.1983C23.4386 17.6413 22.7419 17.726 22.7419 17.726C22.2248 17.7751 22.0506 17.5122 21.7726 16.8667L20.2082 13.2479C20.1844 13.1929 20.1455 13.0685 20.1438 13.0626C19.9816 12.4615 20.239 11.8042 20.7735 11.5294C20.9952 11.4145 21.2338 11.3826 21.4588 11.4216C21.5037 11.4293 21.547 11.4394 21.5903 11.453C21.9099 11.5502 22.1907 11.7941 22.3427 12.1489L23.8648 15.8961C24.1845 16.4871 24.0731 16.907 23.8205 17.1983Z" fill="#E4C6BB"/>
<path d="M23.6409 4.59596C23.7378 5.02707 23.5057 5.27992 23.4219 5.52212C23.3656 5.68497 23.3288 5.90586 23.4906 6.21971C23.8936 6.99902 24.6287 7.23884 25.0727 6.92144C25.2285 6.80952 25.2691 6.66562 25.3129 6.52823C25.4124 6.21379 25.5147 5.72169 25.5147 5.72169C25.5147 5.72169 23.5447 4.16486 23.6409 4.59596Z" fill="#FFCEA1"/>
<path d="M23.5929 5.14648C23.3744 6.25977 24.1944 6.49369 24.2398 6.74537C24.3004 7.08172 24.2285 7.46129 24.0797 7.35115C23.6134 7.00591 23.2337 6.7039 23.1894 5.96309C23.1639 5.52903 23.4966 5.17965 23.5929 5.14648Z" fill="#D9B9AE"/>
<path opacity="0.5" d="M24.1244 5.95679C23.7192 5.54878 23.6376 5.29886 23.6138 5.08923C23.6608 4.95126 23.6852 4.79197 23.6408 4.59596C23.544 4.16486 25.5146 5.72169 25.5146 5.72169C25.5146 5.72169 25.4123 6.21438 25.3128 6.52823C25.2971 6.57738 25.2847 6.61468 25.2614 6.67745C24.9953 6.61409 24.5295 6.36479 24.1244 5.95679Z" fill="#1D1D1B"/>
<path d="M25.1592 6.745C25.1338 7.03576 25.0895 7.16841 25.0191 7.26612C24.9494 7.36383 25.4291 7.27203 25.4594 6.83026C25.4897 6.3885 25.3756 6.14453 25.3756 6.14453C25.3756 6.14453 25.3437 6.47497 25.1592 6.745Z" fill="#D9B9AE"/>
<path d="M27.3823 3.72727C27.4678 3.05397 27.4678 2.14499 26.6478 1.60729C25.607 0.925108 24.4608 0.839821 23.8436 2.10056C23.194 3.42704 23.4428 4.53383 23.8436 5.17338C24.2445 5.81293 24.7729 6.18659 25.2068 6.42405C25.6406 6.66151 26.1442 6.43411 26.3129 6.17829C26.5531 5.8147 26.6856 5.6921 26.8766 5.10704C26.9155 4.98801 26.9501 4.71976 27.0091 4.58534C27.0621 4.46513 27.319 4.22589 27.3823 3.72727Z" fill="#FFCEA1"/>
<path d="M27.1214 1.44314C27.0932 1.41235 27.0651 1.38214 27.0364 1.35313C26.6816 0.994859 25.6706 0.312682 24.8149 0.8184C24.1225 0.859852 23.8391 1.23588 23.6573 1.53493C23.4869 1.81384 23.3155 2.19165 23.2527 2.51971C23.1846 2.87383 23.1921 3.14683 23.1921 3.50806C23.1921 4.12155 23.5302 4.79721 23.6984 4.74451C23.8667 4.6918 23.8456 3.38961 23.9392 3.45594C24.0322 3.52226 24.2556 3.58089 24.287 4.16359C24.3075 4.54022 24.4822 4.6172 24.638 4.26781C24.7938 3.91843 24.876 3.81835 25.5884 4.00725C26.5534 4.26307 27.295 4.13991 27.5893 3.80888C27.8835 3.47785 27.658 2.56531 27.4887 2.04479C27.4145 1.81798 27.2761 1.61369 27.1214 1.44314Z" fill="#944F01"/>
<path d="M23.9526 3.44323C23.1997 3.31532 23.5383 4.56718 23.8417 4.82478C24.1446 5.08237 24.262 4.66962 24.255 4.26753C24.248 3.86545 24.2193 3.48823 23.9526 3.44323Z" fill="#FFCEA1"/>
<path d="M27.6756 1.5646L27.7611 2.75784C27.0249 2.8443 26.181 3.25881 25.2674 3.88947C25.2626 3.88888 25.2582 3.8877 25.2534 3.8877C24.5962 3.79769 24.0439 3.49746 23.6052 2.97338C23.5046 2.85376 23.3088 2.56063 23.2336 2.36344C23.2255 1.55157 23.497 0.950511 23.9611 0.576848C25.1717 -0.188243 26.3201 0.01073 27.3429 0.878267C27.5377 1.04348 27.6561 1.29516 27.6756 1.5646Z" fill="#0258BF"/>
<path opacity="0.1" d="M25.2527 3.8877C24.5955 3.79769 24.0432 3.49745 23.6045 2.97337C23.6413 2.99884 23.6775 3.02549 23.7143 3.05036C23.9025 3.17945 24.1108 3.27421 24.3277 3.32691C24.4359 3.35356 24.5597 3.36599 24.6485 3.29315C24.715 3.23749 24.7464 3.14629 24.7696 3.05746C24.8865 2.62221 24.8978 2.16269 24.9087 1.7085C24.9249 2.0336 24.9406 2.35929 24.9562 2.68499C24.9665 2.91001 24.9817 3.14867 25.1012 3.33284C25.1564 3.4193 25.2337 3.49095 25.2705 3.58807C25.3068 3.68578 25.2954 3.79354 25.2527 3.8877Z" fill="black"/>
<path d="M28.8256 4.04116C28.8591 4.05775 28.884 3.99853 28.858 3.96951C28.3739 3.42352 27.8833 2.81299 27.7605 2.75733C27.6642 2.71351 27.3456 2.60218 27.2412 2.59922C26.4656 2.57849 25.3361 3.10968 24.9077 3.81733C25.1327 4.04887 25.0327 4.04828 25.592 4.51905C25.8305 4.7198 26.2562 4.84829 26.5456 4.59662C27.0276 4.17973 28.2154 3.74152 28.8256 4.04116Z" fill="#186FD9"/>
<path d="M22.7139 19.8911C22.8702 20.1878 23.1239 20.3483 23.2803 20.2494C23.4366 20.1505 23.4366 19.8301 23.2803 19.5335C23.1239 19.2368 22.8702 19.0763 22.7139 19.1752C22.5576 19.2741 22.5576 19.5944 22.7139 19.8911Z" fill="#383838"/>
<path d="M23.2802 19.5328C23.1239 19.2361 22.8702 19.0756 22.7139 19.1745C22.7139 19.1745 22.7869 19.1283 22.8442 19.0922C23.0006 18.9933 23.2542 19.1538 23.4106 19.4505C23.5669 19.7471 23.5669 20.0675 23.4106 20.1664C23.3662 20.1942 23.2802 20.2487 23.2802 20.2487C23.4365 20.1504 23.4365 19.8295 23.2802 19.5328Z" fill="#575757"/>
<path opacity="0.8" d="M47.1945 33.5705L39.4193 28.656C39.0504 28.4227 38.4825 28.3771 38.027 28.5382C37.2026 28.8307 36.203 29.26 35.2175 29.883C34.6149 30.2638 33.7987 30.8554 33.0754 31.6749C32.8266 31.9568 32.9142 32.3109 33.2756 32.5395L41.0507 37.454C41.4121 37.6825 41.9719 37.7376 42.4182 37.5807C43.7142 37.1235 44.65 36.6077 45.2526 36.227C46.2381 35.604 46.9181 34.9722 47.3806 34.451C47.6359 34.1626 47.5639 33.8038 47.1945 33.5705Z" fill="black"/>
<path opacity="0.8" d="M45.0172 36.3716C44.5931 36.6262 44.0392 36.9235 43.3501 37.2178L45.1405 37.9533L46.6746 37.0526L45.0172 36.3716Z" fill="black"/>
<path d="M38.8747 27.1249C39.2793 26.9816 39.7834 27.0219 40.1118 27.2297L47.0209 31.597C47.3487 31.8043 47.4131 32.1229 47.1864 32.3787C46.7753 32.8418 46.1711 33.4032 45.2954 33.9568C44.7599 34.2956 43.9285 34.7539 42.7763 35.1601C42.3798 35.2999 41.8822 35.2508 41.5614 35.0476L34.6523 30.6809C34.331 30.4778 34.2531 30.1634 34.4743 29.9129C35.1169 29.1845 35.8423 28.6592 36.3778 28.3205C37.2536 27.7668 38.1423 27.3849 38.8747 27.1249Z" fill="#EAB066"/>
<path d="M34.4044 30.0112C34.2773 30.2416 34.3725 30.5033 34.6522 30.6804L41.5613 35.0471C41.8826 35.2502 42.3802 35.2994 42.7762 35.1596C43.9283 34.7534 44.7597 34.295 45.2953 33.9563C46.171 33.4026 46.7757 32.8412 47.1863 32.3781C47.3459 32.1981 47.3583 31.9879 47.2393 31.8061C47.6926 32.4516 47.5677 33.6803 47.2096 34.128C47.2096 34.128 47.195 34.1464 47.1863 34.1559C46.7752 34.6189 46.171 35.1803 45.2953 35.734C44.7597 36.0727 43.9283 36.5311 42.7762 36.9373C42.3797 37.0771 41.8821 37.0279 41.5613 36.8248L34.6522 32.4581C34.5607 32.4001 34.4904 32.3337 34.4396 32.2621C34.0885 31.8233 33.9792 30.6626 34.4044 30.0112Z" fill="#E69D4C"/>
<path d="M34.6522 30.6807L41.5613 35.0474C41.7593 35.5276 41.7463 36.3762 41.5613 36.8251L34.6522 32.4584C34.3331 31.7401 34.26 31.0087 34.6522 30.6807Z" fill="#E0933C"/>
<path opacity="0.51" d="M46.3125 31.1496C46.0799 31.0028 45.4508 31.1828 45.1257 31.4564L44.8271 30.2104L46.3125 31.1496Z" fill="black"/>
<path d="M40.3334 28.4268L45.1265 31.4563C45.1265 31.4563 44.2264 32.0846 43.3295 32.5424C42.556 32.9368 41.339 33.8499 41.339 33.8499L36.5459 30.8203C36.6103 30.863 37.4265 30.1145 37.532 30.0298C37.8706 29.7603 38.2087 29.4773 38.5814 29.2665C39.145 28.9485 39.7519 28.7045 40.3334 28.4268Z" fill="#96816B"/>
<path d="M42.3587 27.6678L46.6498 30.3852C45.4706 30.2023 45.1266 31.4559 45.1266 31.4559L40.3335 28.4263C40.3335 28.4263 40.6305 27.9467 41.0978 27.6476C41.4851 27.4001 41.9698 27.4214 42.3587 27.6678Z" fill="#FAC075"/>
<path opacity="0.25" d="M35.4033 31.4159C35.6662 31.0837 36.5457 30.8208 36.5457 30.8208L41.3388 33.8504C40.575 34.2442 40.3316 34.4266 40.3067 34.9252C40.2818 35.4238 40.1152 35.2017 39.4943 34.8221C38.7381 34.359 35.5374 32.3149 35.3979 32.2521C35.2583 32.1887 35.141 31.7481 35.4033 31.4159Z" fill="black"/>
<path d="M36.5457 30.8207L41.3383 33.8544C39.9946 33.8503 39.9357 35.0015 39.9357 35.0015L35.022 31.8961C35.022 31.8961 35.1107 30.7597 36.5457 30.8207Z" fill="#FAC075"/>
<path d="M43.3291 32.542C42.5556 32.9364 41.3385 33.8495 41.3385 33.8495C41.3385 33.8495 38 31.7396 36.8965 31.042C36.8976 31.0408 36.8981 31.039 36.8986 31.0379C37.0041 30.9022 37.1583 30.8259 37.3049 30.7471C37.71 30.5298 37.954 30.4303 38.0979 30.2284C38.2418 30.0264 38.5912 29.7493 38.6902 29.6859C38.7978 29.6172 38.9211 29.5841 39.0304 29.5183C39.1954 29.4189 39.3193 29.2513 39.4826 29.1488C39.6103 29.0689 40.0728 28.9522 40.2934 28.8948C40.5141 28.8379 40.8576 29.0914 41.2628 29.3584C41.4164 29.4597 41.5597 29.5799 41.6896 29.7155C41.8031 29.8352 41.9081 29.9678 42.0433 30.0572C42.1759 30.1455 42.5891 30.3089 42.7346 30.3663C43.268 30.5772 43.44 30.8957 43.9576 31.148C44.22 31.2759 44.4861 31.3849 44.69 31.617C44.7101 31.6401 44.7311 31.6703 44.7522 31.704C44.4077 31.9309 43.8684 32.2672 43.3291 32.542Z" fill="#AB9981"/>
<path d="M39.0643 30.3711C39.0995 30.2663 39.2001 30.2017 39.2942 30.1455C39.3543 30.11 39.4138 30.0738 39.4738 30.0383C39.5393 29.9992 39.6047 29.9601 39.6756 29.9329C39.8384 29.8701 40.0185 29.8749 40.1911 29.8986C40.3652 29.9228 40.5367 29.9655 40.7022 30.0265C40.8299 30.0738 40.9678 30.1467 41.0062 30.2793C41.0235 30.3385 41.0176 30.4019 41.0262 30.4629C41.0517 30.6441 41.2004 30.7868 41.367 30.8549C41.5228 30.9183 41.6775 30.9011 41.8371 30.9325C41.9653 30.958 42.0989 31.0243 42.2233 31.0711C42.5186 31.1818 42.8107 31.3121 43.0644 31.5051C43.1899 31.6011 43.3111 31.7225 43.3392 31.88C43.3663 32.0316 43.2959 32.192 43.1769 32.2868C43.0579 32.3815 42.8978 32.4135 42.7491 32.3898C42.3877 32.3324 42.1086 31.98 41.743 31.9723C41.5861 31.9688 41.4254 32.031 41.2756 31.9842C41.0555 31.9155 40.9619 31.6526 40.785 31.5022C40.653 31.3903 40.4685 31.3364 40.3771 31.1883C40.3566 31.1546 40.3414 31.1173 40.3166 31.087C40.2387 30.9929 40.0986 31.0006 39.9801 30.9763C39.6788 30.9153 39.4716 30.6204 39.1795 30.5221C39.133 30.5061 39.0773 30.4896 39.0611 30.4422C39.0524 30.4203 39.0562 30.3942 39.0643 30.3711Z" fill="#A18C76"/>
<path d="M46.9471 36.6123L46.6172 37.0825L46.6962 37.0351L47.0256 36.5649L46.9471 36.6123Z" fill="#DE3222"/>
<path d="M46.9478 36.6116L46.6168 37.0823L45.7632 34.7942L46.1781 34.5425L46.9478 36.6116Z" fill="#BB3325"/>
<path d="M45.2189 37.9057L45.6057 37.4267L44.8359 35.3576L45.7636 34.7944L46.6172 37.0826L45.2189 37.9057Z" fill="#DE3222"/>
<path d="M46.2151 34.3882L47.0254 36.565L46.9481 36.6118L46.1784 34.5427L44.8358 35.3576L45.6055 37.4266L45.5271 37.474L44.7168 35.2972L46.2151 34.3882Z" fill="#FB4432"/>
<path d="M45.5269 37.4741L45.1401 37.9538L45.2186 37.9058L45.6053 37.4268L45.5269 37.4741Z" fill="#DE3222"/>
<path d="M45.527 37.4742L45.1402 37.9539L44.1807 35.3815L44.7167 35.2974L45.527 37.4742Z" fill="#BB3325"/>
<path d="M44.7167 35.2972L44.1807 35.3813L45.679 34.4723L46.215 34.3882L44.7167 35.2972Z" fill="#C73628"/>
<path d="M45.0447 34.9986L44.7413 35.0412L43.5562 31.8654L43.8596 31.8228L45.0447 34.9986Z" fill="#BAA561"/>
<path d="M43.8596 31.8228L43.5562 31.8655L43.9656 31.6174L44.2691 31.5747L43.8596 31.8228Z" fill="#E3CE8D"/>
<path d="M44.2688 31.5747L45.4535 34.7505L45.0445 34.9987L43.8594 31.8228L44.2688 31.5747Z" fill="#D4C07F"/>
</svg>
