<svg width="56" height="56" viewBox="0 0 56 56" fill="none" xmlns="http://www.w3.org/2000/svg">
<path d="M11.0463 28.896C11.0463 28.896 17.5138 24.8083 17.5936 24.7578C17.6734 24.7074 17.6734 24.5435 17.5936 24.3921C17.5138 24.2407 17.3839 24.1588 17.3041 24.2092C17.2243 24.2597 10.7568 28.3474 10.7568 28.3474L11.0463 28.896Z" fill="#E8DFD3"/>
<path opacity="0.1" d="M17.5934 24.7578C17.6593 24.716 17.6707 24.5966 17.6276 24.4707L11.2939 28.4743C11.3267 28.5579 11.3415 28.6403 11.3391 28.7114C11.7311 28.4629 17.5384 24.7925 17.5934 24.7578Z" fill="black"/>
<path d="M11.0461 28.53C11.1259 28.6814 11.1259 28.8453 11.0461 28.8958C10.9663 28.9463 10.8364 28.8643 10.7566 28.7129C10.6768 28.5615 10.6768 28.3977 10.7566 28.3472C10.8364 28.2962 10.9658 28.3781 11.0461 28.53Z" fill="#D5CACC"/>
<path d="M11.0764 28.5107C11.1855 28.7175 11.1855 28.9416 11.0764 29.0105C10.9674 29.0794 10.7904 28.9676 10.6814 28.7604C10.5723 28.5536 10.5723 28.3295 10.6814 28.2606C10.7904 28.1917 10.9674 28.3034 11.0764 28.5107Z" fill="#B4ACA6"/>
<path opacity="0.1" d="M11.3385 28.7107C11.3414 28.6174 11.3152 28.5045 11.2577 28.396C11.2002 28.2869 11.1243 28.2055 11.049 28.1621C11.049 28.1621 11.0078 28.1881 10.9731 28.2098C11.0485 28.2538 11.1243 28.3352 11.1818 28.4437C11.2393 28.5528 11.2656 28.6657 11.2626 28.7585C11.2973 28.7368 11.2993 28.7357 11.3385 28.7107Z" fill="black"/>
<path d="M11.0767 28.5104C11.1857 28.7172 11.1857 28.9413 11.0767 29.0102C11.0767 29.0102 11.2001 28.9321 11.212 28.925C11.3211 28.8561 11.3211 28.6325 11.212 28.4252C11.103 28.2185 10.926 28.1062 10.8165 28.1751C10.8041 28.1827 10.6812 28.2603 10.6812 28.2603C10.7907 28.1913 10.9677 28.3031 11.0767 28.5104Z" fill="#E8DFD3"/>
<path d="M8.21085 30.6874C8.21085 30.6874 10.944 28.9602 11.0238 28.9092C11.1036 28.8587 11.1036 28.6949 11.0238 28.5435C10.944 28.3921 10.8141 28.3101 10.7343 28.3606C10.6545 28.4111 7.92139 30.1383 7.92139 30.1383L8.21085 30.6874Z" fill="#E8DFD3"/>
<path opacity="0.1" d="M11.0577 28.623L8.10547 30.4892L8.21055 30.6883C8.21055 30.6883 10.9437 28.9611 11.0235 28.9101C11.0899 28.8683 11.1008 28.7489 11.0577 28.623Z" fill="black"/>
<path d="M8.21064 30.3218C8.29044 30.4732 8.29044 30.6371 8.21064 30.6875C8.13084 30.738 8.00098 30.656 7.92118 30.5046C7.84138 30.3532 7.84138 30.1894 7.92118 30.1389C8.00098 30.0885 8.13084 30.1704 8.21064 30.3218Z" fill="#B4ACA6"/>
<path d="M8.19281 30.3335C8.26319 30.4664 8.26319 30.6102 8.19281 30.6547C8.12242 30.6992 8.00892 30.6271 7.93853 30.4941C7.86815 30.3612 7.86815 30.2174 7.93853 30.1729C8.00892 30.1284 8.12292 30.2 8.19281 30.3335Z" fill="#828282"/>
<path d="M26.5054 53.506V55.2202L55.6601 36.7928V35.0786L26.5054 53.506Z" fill="#DEBE97"/>
<path d="M0 36.7534V38.4676L26.5054 55.2205V53.5063L0 36.7534Z" fill="#CAA58B"/>
<path d="M0 36.7532L26.5054 53.506L55.6601 35.0786L29.1547 18.3252L0 36.7532Z" fill="#EFE1BC"/>
<path d="M34.1349 11.6064L33.9579 11.7182L28.2939 15.2975L28.2944 25.5126L34.1349 21.8211V11.6064Z" fill="#E8DFD3"/>
<path d="M23.3091 12.1465V22.3616L28.2945 25.5127L28.295 15.2976L23.3091 12.1465Z" fill="#CCC2B9"/>
<path d="M28.3451 14.7032L23.3091 11.5195V12.1463L28.3451 15.3299C28.412 15.3723 28.4729 15.3766 28.5176 15.3495C28.5637 15.3212 28.5924 15.2599 28.5924 15.172C28.5924 14.9995 28.4819 14.79 28.3451 14.7032Z" fill="#422B1D"/>
<path d="M34.1855 11.0122L34.1345 10.9802L29.1495 7.8291L23.3091 11.5201L28.294 14.6712L28.3451 14.7032C28.4819 14.7895 28.5924 14.9995 28.5924 15.1721L34.4329 11.4805C34.4329 11.3085 34.3223 11.0985 34.1855 11.0122Z" fill="#6B4E37"/>
<path opacity="0.1" d="M28.4316 14.7785C28.4911 14.8441 28.5397 14.9315 28.5674 15.0205L34.4079 11.3289C34.3802 11.2399 34.3321 11.1526 34.2721 11.0869L28.4316 14.7785Z" fill="white"/>
<path d="M28.5924 15.1725C28.5924 15.2604 28.5637 15.3217 28.5176 15.3499C28.5176 15.3499 34.3149 11.6855 34.3595 11.6578C34.4046 11.6296 34.4329 11.5683 34.4329 11.4814L28.5924 15.1725Z" fill="#5C3F2D"/>
<path d="M33.9582 11.9419L28.4712 15.4094V17.167L28.5857 17.2391V15.4815L34.0722 12.0141L33.9582 11.9419Z" fill="#91AD0B"/>
<path d="M34.072 12.0137L28.5854 15.4811V17.2387L34.072 13.7707V12.0137Z" fill="#AFCD15"/>
<path d="M32.318 14.031L32.1133 13.9019L31.9016 14.0359L32.1063 14.165C32.1906 14.2182 32.1906 14.3061 32.1063 14.3593L31.2667 14.89C31.1824 14.9432 31.0441 14.9432 30.9593 14.89L30.7546 14.7609L30.543 14.8949L30.8473 15.087C30.9935 15.1792 31.2329 15.1792 31.3792 15.087L32.3185 14.4933C32.4191 14.4298 32.4691 14.3463 32.4691 14.2622C32.4691 14.1781 32.4181 14.0945 32.318 14.031Z" fill="#E8DFD3"/>
<path d="M32.1061 14.3595L32.0649 14.3856L31.9014 14.2819V14.0361L32.1061 14.1653C32.1908 14.2185 32.1908 14.3058 32.1061 14.3595Z" fill="#CCC2B9"/>
<path d="M30.8463 15.3328L30.542 15.1407V14.8949L30.8463 15.087C30.9926 15.1793 31.232 15.1793 31.3782 15.087L32.3175 14.4934C32.4181 14.4299 32.4682 14.3463 32.4682 14.2622C32.4682 14.2622 32.4682 14.4245 32.4682 14.508C32.4682 14.5916 32.4176 14.6757 32.3175 14.7392L31.3782 15.3328C31.232 15.4256 30.9931 15.4256 30.8463 15.3328Z" fill="#CCC2B9"/>
<path d="M33.9582 13.7871L28.4712 17.2546V19.0116L28.5857 19.0838V17.3267L34.0722 13.8593L33.9582 13.7871Z" fill="#91AD0B"/>
<path d="M34.072 13.8594L28.5854 17.3268V19.0839L34.072 15.6164V13.8594Z" fill="#AFCD15"/>
<path d="M32.318 15.8762L32.1133 15.7471L31.9016 15.8811L32.1063 16.0103C32.1906 16.0634 32.1906 16.1513 32.1063 16.2045L31.2667 16.7352C31.1824 16.7889 31.0441 16.7889 30.9593 16.7352L30.7546 16.6061L30.543 16.7401L30.8473 16.9322C30.9935 17.0245 31.2329 17.0245 31.3792 16.9322L32.3185 16.3385C32.4191 16.2751 32.4691 16.1915 32.4691 16.1074C32.4691 16.0233 32.4181 15.9397 32.318 15.8762Z" fill="#E8DFD3"/>
<path d="M32.1061 16.2043L32.0649 16.2303L31.9014 16.1267V15.8809L32.1061 16.01C32.1908 16.0637 32.1908 16.1511 32.1061 16.2043Z" fill="#CCC2B9"/>
<path d="M30.8463 17.1785L30.542 16.9865V16.7406L30.8463 16.9327C30.9926 17.025 31.232 17.025 31.3782 16.9327L32.3175 16.3391C32.4181 16.2756 32.4682 16.192 32.4682 16.1079C32.4682 16.1079 32.4682 16.2702 32.4682 16.3537C32.4682 16.4373 32.4176 16.5209 32.3175 16.5849L31.3782 17.1785C31.232 17.2708 30.9931 17.2708 30.8463 17.1785Z" fill="#CCC2B9"/>
<path d="M33.9582 15.6323L28.4712 19.1003L28.4717 20.8574L28.5857 20.9295V19.1725L34.0722 15.7045L33.9582 15.6323Z" fill="#91AD0B"/>
<path d="M34.072 15.7046L28.5854 19.1726V20.9296L34.072 17.4622V15.7046Z" fill="#AFCD15"/>
<path d="M32.318 17.7214L32.1133 17.5923L31.9016 17.7263L32.1063 17.8555C32.1906 17.9086 32.1906 17.9965 32.1063 18.0497L31.2667 18.5804C31.1824 18.6336 31.0441 18.6336 30.9593 18.5804L30.7546 18.4513L30.543 18.5853L30.8473 18.7774C30.9935 18.8696 31.2329 18.8696 31.3792 18.7774L32.3185 18.1838C32.4191 18.1203 32.4691 18.0367 32.4691 17.9526C32.4686 17.869 32.4181 17.7849 32.318 17.7214Z" fill="#E8DFD3"/>
<path d="M32.1061 18.0495L32.0649 18.0755L31.9014 17.9719V17.7261L32.1061 17.8552C32.1908 17.9089 32.1908 17.9963 32.1061 18.0495Z" fill="#CCC2B9"/>
<path d="M30.8463 19.0228L30.542 18.8307V18.5849L30.8463 18.777C30.9926 18.8692 31.232 18.8692 31.3782 18.777L32.3175 18.1833C32.4181 18.1198 32.4682 18.0363 32.4682 17.9521C32.4682 17.9521 32.4682 18.1144 32.4682 18.1985C32.4682 18.2821 32.4176 18.3662 32.3175 18.4297L31.3782 19.0233C31.232 19.1156 30.9931 19.1156 30.8463 19.0228Z" fill="#CCC2B9"/>
<path d="M33.9582 17.4775L28.4717 20.945V22.7021L28.5857 22.7742V21.0172L34.0722 17.5497L33.9582 17.4775Z" fill="#91AD0B"/>
<path d="M34.072 17.5493L28.5854 21.0168V22.7738L34.072 19.3064V17.5493Z" fill="#AFCD15"/>
<path d="M32.318 19.5661L32.1133 19.437L31.9016 19.571L32.1063 19.7002C32.1906 19.7539 32.1906 19.8407 32.1063 19.8944L31.2667 20.4251C31.1824 20.4783 31.0441 20.4783 30.9593 20.4251L30.7546 20.296L30.543 20.43L30.8473 20.6221C30.9935 20.7144 31.2329 20.7144 31.3792 20.6221L32.3185 20.0285C32.4191 19.965 32.4691 19.8814 32.4691 19.7973C32.4691 19.7132 32.4181 19.6296 32.318 19.5661Z" fill="#E8DFD3"/>
<path d="M32.1061 19.8947L32.0649 19.9208L31.9014 19.8171V19.5713L32.1061 19.7004C32.1908 19.7536 32.1908 19.841 32.1061 19.8947Z" fill="#CCC2B9"/>
<path d="M30.8463 20.868L30.542 20.6759V20.4301L30.8463 20.6222C30.9926 20.7144 31.232 20.7144 31.3782 20.6222L32.3175 20.0285C32.4181 19.9651 32.4682 19.8815 32.4682 19.7974C32.4682 19.7974 32.4682 19.9596 32.4682 20.0437C32.4682 20.1273 32.4176 20.2114 32.3175 20.2744L31.3782 20.868C31.232 20.9602 30.9931 20.9602 30.8463 20.868Z" fill="#CCC2B9"/>
<path d="M33.9582 19.3228L28.4717 22.7907V24.5858L28.5857 24.658V22.8629L34.0722 19.3949L33.9582 19.3228Z" fill="#91AD0B"/>
<path d="M34.072 19.395L28.5854 22.863V24.6581L34.0725 21.1901L34.072 19.395Z" fill="#AFCD15"/>
<path d="M32.318 21.4118L32.1133 21.2827L31.9016 21.4167L32.1063 21.5459C32.1906 21.5991 32.1906 21.6864 32.1063 21.7402L31.2667 22.2708C31.1824 22.3246 31.0441 22.3246 30.9593 22.2708L30.7546 22.1417L30.543 22.2757L30.8473 22.4678C30.9935 22.5601 31.2329 22.5601 31.3792 22.4678L32.3185 21.8742C32.4191 21.8107 32.4691 21.7271 32.4691 21.643C32.4686 21.5595 32.4181 21.4759 32.318 21.4118Z" fill="#E8DFD3"/>
<path d="M32.1061 21.7399L32.0649 21.766L31.9014 21.6623V21.4165L32.1061 21.5457C32.1908 21.5994 32.1908 21.6867 32.1061 21.7399Z" fill="#CCC2B9"/>
<path d="M30.8463 22.7132L30.542 22.5211V22.2753L30.8463 22.4674C30.9926 22.5596 31.232 22.5596 31.3782 22.4674L32.3175 21.8737C32.4181 21.8103 32.4682 21.7267 32.4682 21.6426C32.4682 21.6426 32.4682 21.8048 32.4682 21.8884C32.4682 21.972 32.4176 22.0555 32.3175 22.119L31.3782 22.7127C31.232 22.806 30.9931 22.806 30.8463 22.7132Z" fill="#CCC2B9"/>
<path d="M28.294 14.6094L23.3115 17.7594V20.7217L28.294 17.5722V14.6094Z" fill="#ADA097"/>
<path d="M28.294 22.8843L23.3115 26.0338V28.6623L28.294 25.5128V22.8843Z" fill="#E8DFD3"/>
<path opacity="0.9" d="M28.294 22.8843L23.3115 26.0338V26.8287L28.294 23.6792V22.8843Z" fill="black"/>
<path d="M18.3286 14.6094V25.5126L23.3116 28.662V17.7594L18.3286 14.6094Z" fill="#CCC2B9"/>
<path opacity="0.29" d="M28.294 14.9321L23.3116 18.0821L18.3286 14.9321V15.0222L23.3116 18.1722L28.294 15.0222V14.9321Z" fill="black"/>
<path d="M23.3116 11.46L18.3286 14.6094L23.3116 17.7594L28.294 14.6094L23.3116 11.46Z" fill="#FCF9F0"/>
<path d="M23.3915 12.5479C23.8212 12.5479 24.1702 12.7682 24.1702 13.04C24.1702 13.3119 23.8217 13.5322 23.3915 13.5322C22.9613 13.5322 22.6128 13.3119 22.6128 13.04C22.6128 12.7682 22.9613 12.5479 23.3915 12.5479Z" fill="#3F4042"/>
<path d="M23.3915 13.5327C22.9613 13.5327 22.6128 13.3124 22.6128 13.0405C22.6128 13.0405 22.6128 13.148 22.6128 13.1583C22.6128 13.4301 22.9613 13.6504 23.3915 13.6504C23.8212 13.6504 24.1702 13.4301 24.1702 13.1583C24.1702 13.1458 24.1702 13.0405 24.1702 13.0405C24.1702 13.3124 23.8212 13.5327 23.3915 13.5327Z" fill="black"/>
<path d="M24.2407 14.4253C24.2407 13.957 24.8415 13.5771 25.5825 13.5771C26.3235 13.5771 26.9243 13.957 26.9243 14.4253C26.9243 14.8936 26.3235 15.2734 25.5825 15.2734C24.8415 15.2734 24.2407 14.8936 24.2407 14.4253Z" fill="#3F4042"/>
<path d="M25.5825 15.2734C24.8415 15.2734 24.2407 14.8936 24.2407 14.4253C24.2407 14.4253 24.2407 14.498 24.2407 14.5431C24.2407 15.0113 24.8415 15.3912 25.5825 15.3912C26.3235 15.3912 26.9243 15.0113 26.9243 14.5431C26.9243 14.5333 26.9243 14.4253 26.9243 14.4253C26.9243 14.8936 26.3235 15.2734 25.5825 15.2734Z" fill="black"/>
<path d="M23.4235 16.7034C22.8198 16.7034 22.3301 16.3941 22.3301 16.0121C22.3301 15.6306 22.8198 15.3208 23.4235 15.3208C24.0273 15.3208 24.517 15.6301 24.517 16.0121C24.5165 16.3941 24.0273 16.7034 23.4235 16.7034Z" fill="#3F4042"/>
<path d="M23.4235 16.7035C22.8198 16.7035 22.3301 16.3942 22.3301 16.0122C22.3301 16.0122 22.3301 16.0969 22.3301 16.13C22.3301 16.5114 22.8198 16.8213 23.4235 16.8213C24.0273 16.8213 24.517 16.512 24.517 16.13C24.517 16.1202 24.517 16.0122 24.517 16.0122C24.5165 16.3942 24.0273 16.7035 23.4235 16.7035Z" fill="black"/>
<path d="M21.0563 15.2074C20.4526 15.2074 19.9629 14.8981 19.9629 14.516C19.9629 14.1346 20.4526 13.8247 21.0563 13.8247C21.6601 13.8247 22.1498 14.134 22.1498 14.516C22.1498 14.8975 21.6601 15.2074 21.0563 15.2074Z" fill="#3F4042"/>
<path d="M21.0563 15.2074C20.4526 15.2074 19.9629 14.8981 19.9629 14.5161C19.9629 14.5161 19.9629 14.6008 19.9629 14.6344C19.9629 15.0159 20.4526 15.3257 21.0563 15.3257C21.6601 15.3257 22.1498 15.0164 22.1498 14.6344C22.1498 14.6246 22.1498 14.5161 22.1498 14.5161C22.1498 14.8976 21.6601 15.2074 21.0563 15.2074Z" fill="black"/>
<path d="M28.3876 23.3261L23.6847 26.2981C23.646 26.3226 23.6114 26.3247 23.5856 26.309C23.5603 26.2933 23.5444 26.2585 23.5444 26.2097V20.2065C23.5444 20.1088 23.6069 19.99 23.6842 19.9411L28.3871 16.9691C28.4258 16.9447 28.4605 16.9425 28.4862 16.9583C28.5115 16.9746 28.5274 17.0087 28.5274 17.0576V23.0608C28.5274 23.1585 28.4649 23.2773 28.3876 23.3261Z" fill="#E8DFD3"/>
<path d="M24.0961 20.4026L23.9375 20.3027V20.0444L24.0961 20.1448V20.4026Z" fill="#458FD9"/>
<path d="M27.644 17.5615V17.777L27.8046 17.663L27.644 17.5615Z" fill="#458FD9"/>
<path d="M24.3218 19.6494V19.8388L24.4809 19.7498L24.3218 19.6494Z" fill="#458FD9"/>
<path d="M28.4347 17.2017C28.2716 17.3243 28.1065 17.4458 27.9395 17.5663L27.7779 17.4648C27.7333 17.4974 27.6887 17.5294 27.6436 17.5614L27.8042 17.6629C26.8119 18.3705 25.7526 19.039 24.6324 19.6652L24.4748 19.5643C24.4237 19.5925 24.3727 19.6207 24.3217 19.6489L24.4802 19.7493C24.3008 19.8486 24.1199 19.9469 23.937 20.044L24.0956 20.1444C25.7214 19.2805 27.2258 18.3293 28.5928 17.302L28.4347 17.2017Z" fill="#85CAFA"/>
<path d="M28.5934 17.5605C27.2263 18.5883 25.722 19.539 24.0962 20.4029V20.1446C25.722 19.2807 27.2263 18.3295 28.5934 17.3022V17.5605Z" fill="#5EA9F0"/>
<path d="M28.2527 16.811C28.2274 16.7948 28.1922 16.7975 28.1536 16.8219L23.4507 19.7939L23.6841 19.9415L28.387 16.9695C28.4257 16.9451 28.4604 16.9429 28.4862 16.9586C28.4862 16.9586 28.2785 16.8268 28.2527 16.811Z" fill="#C2B3A9"/>
<path d="M23.5445 26.2104V20.2072L23.311 20.0596V26.0628C23.311 26.1116 23.3269 26.1458 23.3522 26.1621C23.3775 26.1778 23.5856 26.3097 23.5856 26.3097C23.5604 26.2934 23.5445 26.2587 23.5445 26.2104Z" fill="#CCC2B9"/>
<path opacity="0.29" d="M23.3492 26.0867V20.0834L23.311 20.0596V26.0628C23.311 26.1116 23.3269 26.1458 23.3522 26.1621L23.3903 26.186C23.3651 26.1697 23.3492 26.1355 23.3492 26.0867Z" fill="black"/>
<path d="M23.4513 19.7939C23.374 19.8428 23.3115 19.9616 23.3115 20.0593L23.545 20.2069C23.545 20.1092 23.6074 19.9904 23.6848 19.9415L23.4513 19.7939Z" fill="#C2B3A9"/>
<path d="M28.3876 16.8953L23.6847 19.8674C23.646 19.8918 23.6114 19.8939 23.5856 19.8782C23.5603 19.8619 23.5444 19.8277 23.5444 19.7789V18.4956C23.5444 18.3979 23.6069 18.2791 23.6842 18.2302L28.3871 15.2582C28.4258 15.2338 28.4605 15.2316 28.4862 15.2473C28.5115 15.2631 28.5274 15.2978 28.5274 15.3466V16.63C28.5274 16.7277 28.4649 16.8465 28.3876 16.8953Z" fill="#E8DFD3"/>
<path d="M23.5445 19.7786V18.4953L23.311 18.3477V19.631C23.311 19.6798 23.3269 19.714 23.3522 19.7303C23.3775 19.7466 23.5856 19.8779 23.5856 19.8779C23.5604 19.8616 23.5445 19.8274 23.5445 19.7786Z" fill="#CCC2B9"/>
<path opacity="0.29" d="M23.3492 19.6558V18.3725L23.311 18.3486V19.632C23.311 19.6808 23.3269 19.715 23.3522 19.7313L23.3903 19.7552C23.3651 19.7389 23.3492 19.7047 23.3492 19.6558Z" fill="black"/>
<path d="M23.4513 18.0825C23.374 18.1314 23.3115 18.2502 23.3115 18.3479L23.545 18.4955C23.545 18.3978 23.6074 18.279 23.6848 18.2301L23.4513 18.0825Z" fill="#C2B3A9"/>
<path d="M28.2527 15.0999C28.2274 15.0841 28.1922 15.0863 28.1536 15.1107L23.4507 18.0828L23.6841 18.2304L28.387 15.2583C28.4257 15.2339 28.4604 15.2317 28.4862 15.2475C28.4862 15.2475 28.2785 15.1162 28.2527 15.0999Z" fill="#C2B3A9"/>
<path d="M23.546 18.2303L23.311 18.0821V17.7593L23.3547 17.7869C23.4602 17.8537 23.5455 18.0154 23.5455 18.1489V18.2303H23.546Z" fill="#CCC2B9"/>
<path d="M28.3381 14.637L28.2945 14.6094L23.3115 17.7588L23.3551 17.7865C23.4607 17.8533 23.546 18.0155 23.546 18.1485V18.2299L28.5289 15.0804V14.999C28.5289 14.866 28.4432 14.7038 28.3381 14.637Z" fill="#E8DFD3"/>
<path opacity="0.1" d="M19.1274 16.0548L18.9207 15.9246C18.8865 15.9028 18.8543 15.8925 18.8255 15.8931C18.8112 15.9202 18.8027 15.956 18.8027 15.9994L18.8022 24.3409C18.8022 24.4885 18.8969 24.6675 19.0134 24.7413L19.2201 24.8721C19.2543 24.8938 19.2865 24.9041 19.3153 24.9036C19.3296 24.8765 19.3381 24.8406 19.3381 24.7978L19.3386 16.4563C19.3386 16.3077 19.2439 16.1286 19.1274 16.0548Z" fill="black"/>
<path opacity="0.15" d="M18.7095 16.0575C18.7095 15.9534 18.7566 15.8931 18.8255 15.8926C18.8111 15.9197 18.8027 15.9555 18.8027 15.9984L18.8022 24.3398C18.8022 24.4874 18.8968 24.6665 19.0133 24.7403L19.22 24.8711C19.2542 24.8928 19.2864 24.9031 19.3152 24.9025C19.2805 24.9677 19.2091 24.9818 19.1268 24.9297L18.9202 24.7994C18.8037 24.7256 18.709 24.5466 18.709 24.399L18.7095 16.0575Z" fill="black"/>
<path opacity="0.1" d="M19.9907 16.5998L19.784 16.469C19.7498 16.4473 19.7176 16.437 19.6888 16.4375C19.6744 16.4647 19.666 16.5005 19.666 16.5433L19.6655 24.8848C19.6655 25.0324 19.7602 25.2114 19.8767 25.2852L20.0834 25.4155C20.1176 25.4372 20.1498 25.4475 20.1785 25.4469C20.1929 25.4198 20.2013 25.384 20.2013 25.3411L20.2018 16.9997C20.2018 16.8532 20.1072 16.6736 19.9907 16.5998Z" fill="black"/>
<path opacity="0.15" d="M19.5728 16.6029C19.5728 16.4988 19.6199 16.4385 19.6888 16.438C19.6744 16.4651 19.6659 16.5009 19.6659 16.5438L19.6655 24.8852C19.6655 25.0328 19.7601 25.2119 19.8766 25.2857L20.0833 25.4159C20.1175 25.4376 20.1497 25.4479 20.1785 25.4474C20.1438 25.5125 20.0724 25.5272 19.9901 25.4751L19.7834 25.3443C19.6669 25.2705 19.5723 25.0914 19.5723 24.9438L19.5728 16.6029Z" fill="black"/>
<path opacity="0.1" d="M20.8545 17.1457L20.6478 17.0149C20.6136 16.9932 20.5814 16.9829 20.5526 16.9834C20.5382 17.0106 20.5298 17.0464 20.5298 17.0892L20.5293 25.4307C20.5293 25.5782 20.624 25.7573 20.7405 25.8311L20.9472 25.9619C20.9814 25.9836 21.0136 25.9939 21.0423 25.9934C21.0567 25.9662 21.0651 25.9304 21.0651 25.8876L21.0656 17.5461C21.0656 17.3985 20.9709 17.2195 20.8545 17.1457Z" fill="black"/>
<path opacity="0.15" d="M20.4365 17.1489C20.4365 17.0447 20.4836 16.9844 20.5525 16.9839C20.5382 17.011 20.5297 17.0468 20.5297 17.0897L20.5292 25.4311C20.5292 25.5787 20.6239 25.7578 20.7404 25.8316L20.9471 25.9624C20.9813 25.9841 21.0135 25.9944 21.0422 25.9938C21.0075 26.059 20.9362 26.0736 20.8539 26.0215L20.6472 25.8913C20.5307 25.8175 20.436 25.6384 20.436 25.4908L20.4365 17.1489Z" fill="black"/>
<path opacity="0.1" d="M21.7177 17.6916L21.511 17.5608C21.4768 17.5391 21.4446 17.5288 21.4159 17.5293C21.4015 17.5564 21.3931 17.5923 21.3931 17.6351V25.9766C21.3931 26.1242 21.4877 26.3032 21.6042 26.377L21.8109 26.5073C21.8451 26.529 21.8773 26.5393 21.9061 26.5387C21.9205 26.5116 21.9289 26.4758 21.9289 26.4329L21.9294 18.0909C21.9289 17.9444 21.8342 17.7654 21.7177 17.6916Z" fill="black"/>
<path opacity="0.15" d="M21.2998 17.6943C21.2998 17.5901 21.3469 17.5298 21.4158 17.5293C21.4014 17.5564 21.393 17.5922 21.393 17.6351V25.9765C21.393 26.1241 21.4877 26.3032 21.6041 26.377L21.8108 26.5072C21.845 26.529 21.8773 26.5393 21.906 26.5387C21.8713 26.6038 21.7999 26.6179 21.7176 26.5664L21.511 26.4362C21.3945 26.3624 21.2998 26.1833 21.2998 26.0357V17.6943Z" fill="black"/>
<path opacity="0.1" d="M22.581 18.2375L22.3743 18.1067C22.3401 18.085 22.3079 18.0747 22.2792 18.0752C22.2648 18.1023 22.2564 18.1382 22.2564 18.181L22.2559 26.5225C22.2559 26.6701 22.3505 26.8491 22.467 26.9229L22.6737 27.0531C22.7079 27.0749 22.7401 27.0852 22.7689 27.0846C22.7833 27.0575 22.7917 27.0217 22.7917 26.9788L22.7922 18.6374C22.7922 18.4903 22.6975 18.3113 22.581 18.2375Z" fill="black"/>
<path opacity="0.15" d="M22.1631 18.2401C22.1631 18.136 22.2102 18.0757 22.2791 18.0752C22.2647 18.1023 22.2563 18.1381 22.2563 18.181L22.2558 26.5224C22.2558 26.67 22.3504 26.8491 22.4669 26.9229L22.6736 27.0531C22.7078 27.0748 22.74 27.0851 22.7688 27.0846C22.7341 27.1497 22.6627 27.1638 22.5804 27.1117L22.3737 26.9815C22.2573 26.9077 22.1626 26.7286 22.1626 26.581L22.1631 18.2401Z" fill="black"/>
<path d="M28.076 16.4858C27.9833 16.6611 27.8331 16.7561 27.7409 16.698C27.6482 16.6394 27.6482 16.4495 27.7409 16.2742C27.8336 16.0984 27.9838 16.004 28.076 16.062C28.1687 16.1206 28.1687 16.31 28.076 16.4858Z" fill="#FF5102"/>
<path d="M27.9142 16.3831C27.8359 16.5312 27.8359 16.6918 27.9142 16.7412C27.9925 16.7906 28.1194 16.7103 28.1977 16.5622C28.276 16.4135 28.276 16.2534 28.1977 16.204C28.1194 16.1546 27.992 16.2349 27.9142 16.3831Z" fill="#DEDEDE"/>
<path d="M27.9142 16.3831C27.9901 16.2388 28.112 16.159 28.1908 16.1997C28.1888 16.1981 28.1422 16.1688 28.0659 16.1205C27.9876 16.0711 27.8607 16.1514 27.7824 16.2996C27.7041 16.4477 27.7041 16.6083 27.7824 16.6577C27.8607 16.7071 27.9142 16.7413 27.9142 16.7413C27.8359 16.6924 27.8359 16.5318 27.9142 16.3831Z" fill="#B5B5B5"/>
<path d="M27.9354 16.3971C27.864 16.5327 27.864 16.6787 27.9354 16.7238C28.0067 16.7688 28.1227 16.6956 28.1941 16.5604C28.2655 16.4248 28.2655 16.2788 28.1941 16.2338C28.1227 16.1882 28.0067 16.2614 27.9354 16.3971Z" fill="#B5B5B5"/>
<path d="M28.1943 16.2337C28.1997 16.237 28.2042 16.2408 28.2086 16.2451L28.1278 16.3981C28.1244 16.4047 28.1184 16.4079 28.1125 16.4079C28.1095 16.4079 28.1065 16.4074 28.1036 16.4052C28.0951 16.3998 28.0922 16.3878 28.0971 16.3786L28.1779 16.2256C28.1834 16.2272 28.1893 16.2299 28.1943 16.2337Z" fill="#FF5102"/>
<path opacity="0.3" d="M27.8313 16.2231C27.8135 16.2459 27.7966 16.272 27.7817 16.3002C27.7693 16.3235 27.7589 16.3474 27.7505 16.3713L27.8843 16.4505C27.8923 16.4283 27.9022 16.406 27.9141 16.3838C27.9289 16.3555 27.9458 16.3295 27.9636 16.3062L27.8313 16.2231Z" fill="white"/>
<path d="M25.5384 18.0893C25.4457 18.2646 25.2955 18.3595 25.2033 18.3015C25.1106 18.2429 25.1106 18.0535 25.2033 17.8777C25.296 17.7024 25.4462 17.6074 25.5384 17.6655C25.6306 17.7241 25.6306 17.914 25.5384 18.0893Z" fill="#FF5102"/>
<path d="M25.3761 17.9874C25.2978 18.1355 25.2978 18.2961 25.3761 18.3455C25.4544 18.3949 25.5813 18.3146 25.6596 18.1664C25.7379 18.0183 25.7379 17.8577 25.6596 17.8083C25.5813 17.7584 25.4544 17.8387 25.3761 17.9874Z" fill="#DEDEDE"/>
<path d="M25.3762 17.9877C25.452 17.8433 25.5739 17.7635 25.6527 17.8048C25.6507 17.8032 25.6042 17.7733 25.5273 17.725C25.449 17.6756 25.3221 17.7559 25.2438 17.9041C25.1655 18.0522 25.1655 18.2128 25.2438 18.2622C25.3221 18.3116 25.3756 18.3458 25.3756 18.3458C25.2978 18.2964 25.2978 18.1358 25.3762 17.9877Z" fill="#B5B5B5"/>
<path d="M25.3978 18.0014C25.3264 18.1365 25.3264 18.283 25.3978 18.328C25.4691 18.3731 25.5851 18.2998 25.6565 18.1647C25.7279 18.0296 25.7279 17.8831 25.6565 17.838C25.5851 17.793 25.4691 17.8657 25.3978 18.0014Z" fill="#B5B5B5"/>
<path d="M25.6567 17.8377C25.6621 17.841 25.6666 17.8448 25.671 17.8491L25.5903 18.0021C25.5868 18.0087 25.5809 18.0119 25.5749 18.0119C25.5719 18.0119 25.569 18.0108 25.566 18.0092C25.5576 18.0038 25.5546 17.9918 25.5595 17.9826L25.6403 17.8296C25.6458 17.8318 25.6512 17.8345 25.6567 17.8377Z" fill="#FF5102"/>
<path opacity="0.3" d="M25.2937 17.8271C25.2759 17.8499 25.259 17.876 25.2441 17.9042C25.2318 17.9275 25.2213 17.9514 25.2129 17.9753L25.3462 18.0545C25.3547 18.0323 25.3641 18.01 25.376 17.9878C25.3909 17.9596 25.4077 17.9335 25.4255 17.9102L25.2937 17.8271Z" fill="white"/>
<path d="M24.3523 18.839C24.2596 19.0143 24.1095 19.1092 24.0173 19.0512C23.9246 18.9926 23.9246 18.8027 24.0173 18.6274C24.11 18.4521 24.2601 18.3572 24.3523 18.4158C24.445 18.4738 24.445 18.6637 24.3523 18.839Z" fill="#FF5102"/>
<path d="M24.1906 18.7362C24.1123 18.8843 24.1123 19.0449 24.1906 19.0943C24.2689 19.1437 24.3958 19.0634 24.4741 18.9152C24.5524 18.7671 24.5524 18.6065 24.4741 18.5571C24.3958 18.5077 24.2689 18.5875 24.1906 18.7362Z" fill="#DEDEDE"/>
<path d="M24.1906 18.7367C24.2664 18.5923 24.3883 18.5125 24.4672 18.5538C24.4652 18.5522 24.4186 18.5223 24.3423 18.474C24.264 18.4247 24.1371 18.505 24.0587 18.6531C23.9804 18.8012 23.9804 18.9619 24.0587 19.0112C24.1371 19.0606 24.1906 19.0948 24.1906 19.0948C24.1123 19.0454 24.1123 18.8848 24.1906 18.7367Z" fill="#B5B5B5"/>
<path d="M24.2122 18.7499C24.1408 18.885 24.1408 19.0315 24.2122 19.0765C24.2836 19.1216 24.3996 19.0483 24.471 18.9132C24.5424 18.7781 24.5424 18.6316 24.471 18.5865C24.3991 18.5415 24.2836 18.6147 24.2122 18.7499Z" fill="#B5B5B5"/>
<path d="M24.4706 18.5867C24.4756 18.59 24.4806 18.5938 24.485 18.5981L24.4042 18.7512C24.4008 18.7577 24.3948 18.7609 24.3889 18.7609C24.3859 18.7609 24.3829 18.7599 24.3799 18.7582C24.3715 18.7528 24.3685 18.7409 24.3735 18.7316L24.4543 18.5786C24.4603 18.5808 24.4657 18.5835 24.4706 18.5867Z" fill="#FF5102"/>
<path opacity="0.3" d="M24.1077 18.5757C24.0898 18.5985 24.073 18.6245 24.0581 18.6527C24.0457 18.6761 24.0353 18.7 24.0269 18.7238L24.1607 18.8031C24.1686 18.7808 24.1785 18.7585 24.1904 18.7363C24.2053 18.7081 24.2222 18.682 24.24 18.6587L24.1077 18.5757Z" fill="white"/>
<path d="M26.3841 17.5546C26.2914 17.7304 26.1412 17.8249 26.049 17.7668C25.9563 17.7082 25.9563 17.5188 26.049 17.343C26.1417 17.1677 26.2919 17.0728 26.3841 17.1308C26.4768 17.1894 26.4768 17.3788 26.3841 17.5546Z" fill="#FF5102"/>
<path d="M26.2223 17.4527C26.144 17.6008 26.144 17.7614 26.2223 17.8108C26.3006 17.8602 26.4275 17.7799 26.5058 17.6318C26.5842 17.4836 26.5842 17.323 26.5058 17.2736C26.4275 17.2237 26.3006 17.304 26.2223 17.4527Z" fill="#DEDEDE"/>
<path d="M26.2223 17.4529C26.2982 17.3086 26.4201 17.2288 26.4989 17.2701C26.4964 17.2684 26.4503 17.2386 26.374 17.1908C26.2957 17.1414 26.1688 17.2218 26.0905 17.3699C26.0122 17.518 26.0122 17.6787 26.0905 17.7281C26.1688 17.7774 26.2223 17.8116 26.2223 17.8116C26.144 17.7617 26.144 17.6011 26.2223 17.4529Z" fill="#B5B5B5"/>
<path d="M26.244 17.4664C26.1726 17.6015 26.1726 17.7481 26.244 17.7931C26.3153 17.8381 26.4313 17.7649 26.5027 17.6298C26.5741 17.4941 26.5741 17.3481 26.5027 17.3031C26.4308 17.2575 26.3153 17.3308 26.244 17.4664Z" fill="#B5B5B5"/>
<path d="M26.5024 17.3031C26.5078 17.3063 26.5123 17.3101 26.5168 17.3144L26.436 17.4675C26.4325 17.474 26.4266 17.4772 26.4206 17.4772C26.4176 17.4772 26.4147 17.4767 26.4117 17.4745C26.4033 17.4691 26.4003 17.4572 26.4052 17.4479L26.486 17.2949C26.492 17.2971 26.4974 17.2998 26.5024 17.3031Z" fill="#FF5102"/>
<path opacity="0.3" d="M26.1394 17.292C26.1215 17.3148 26.1047 17.3408 26.0898 17.369C26.0774 17.3924 26.067 17.4162 26.0586 17.4401L26.1924 17.5194C26.2008 17.4971 26.2102 17.4749 26.2221 17.4526C26.237 17.4244 26.2539 17.3983 26.2717 17.3756L26.1394 17.292Z" fill="white"/>
<path d="M27.2298 17.0206C27.1371 17.1958 26.9869 17.2908 26.8947 17.2322C26.802 17.1736 26.802 16.9842 26.8947 16.8084C26.9874 16.6326 27.1376 16.5381 27.2298 16.5962C27.3225 16.6554 27.3225 16.8447 27.2298 17.0206Z" fill="#FF5102"/>
<path d="M27.068 16.9182C26.9897 17.0664 26.9897 17.227 27.068 17.2764C27.1463 17.3258 27.2732 17.2455 27.3515 17.0973C27.4299 16.9486 27.4299 16.7885 27.3515 16.7392C27.2732 16.6898 27.1463 16.7701 27.068 16.9182Z" fill="#DEDEDE"/>
<path d="M27.068 16.9183C27.1439 16.7739 27.2658 16.6941 27.3446 16.7354C27.3421 16.7338 27.296 16.7045 27.2197 16.6562C27.1414 16.6068 27.0145 16.6871 26.9362 16.8352C26.8579 16.9834 26.8579 17.144 26.9362 17.1934C27.0145 17.2427 27.068 17.2769 27.068 17.2769C26.9897 17.2276 26.9897 17.0669 27.068 16.9183Z" fill="#B5B5B5"/>
<path d="M27.0897 16.9322C27.0183 17.0679 27.0183 17.2139 27.0897 17.2589C27.161 17.3039 27.277 17.2307 27.3484 17.0956C27.4198 16.9599 27.4198 16.814 27.3484 16.7689C27.277 16.7233 27.161 16.7966 27.0897 16.9322Z" fill="#B5B5B5"/>
<path d="M27.3486 16.7689C27.3541 16.7721 27.3585 16.7759 27.363 16.7803L27.2822 16.9333C27.2787 16.9398 27.2727 16.9431 27.2668 16.9431C27.2638 16.9431 27.2608 16.9425 27.2579 16.9404C27.2494 16.9349 27.2465 16.923 27.2514 16.9138L27.3322 16.7607C27.3377 16.7629 27.3431 16.7656 27.3486 16.7689Z" fill="#FF5102"/>
<path opacity="0.3" d="M26.9856 16.7583C26.9677 16.7811 26.9509 16.8071 26.936 16.8354C26.9236 16.8587 26.9132 16.8826 26.9048 16.9064L27.0386 16.9857C27.0466 16.9634 27.0565 16.9412 27.0684 16.9189C27.0832 16.8907 27.1001 16.8647 27.1179 16.8419L26.9856 16.7583Z" fill="white"/>
<path d="M27.9483 22.6503L24.1237 25.0672C23.9349 25.1866 23.7817 25.09 23.7817 24.8512V21.2649C23.7817 21.0261 23.9349 20.7358 24.1237 20.617L27.9483 18.2001C28.1372 18.0807 28.2903 18.1773 28.2903 18.4161V22.0018C28.2903 22.2406 28.1372 22.5309 27.9483 22.6503Z" fill="black"/>
<path d="M27.5987 20.393L26.4666 19.6772L24.3456 21.0176C24.1449 21.1445 24.021 21.379 24.021 21.6329V22.6542L27.5987 20.393Z" fill="#383838"/>
<path d="M24.021 22.6542V22.8512L27.5987 20.5895V20.3931L24.021 22.6542Z" fill="#5C5C5C"/>
<path opacity="0.6" d="M27.745 22.2381L24.3268 24.3984C24.1583 24.5053 24.0215 24.4185 24.0215 24.2052V21.6092C24.0215 21.396 24.1583 21.1366 24.3268 21.0302L27.745 18.87C27.9135 18.7631 28.0503 18.8499 28.0503 19.0632V21.6592C28.0503 21.8719 27.9135 22.1312 27.745 22.2381Z" fill="#2F7E9E"/>
<path d="M25.6968 23.5322L26.3754 23.1035C26.3278 22.9538 26.1939 22.9093 26.0363 23.0091C25.8777 23.109 25.7439 23.3227 25.6968 23.5322Z" fill="black"/>
<path d="M25.5576 23.2559L25.7658 23.4187L25.8233 23.296L25.5576 23.2559Z" fill="black"/>
<g opacity="0.5">
<path d="M15.1106 32.858L17.1191 32.5758L23.2361 28.684L18.0162 25.3848L10.6367 30.0303L15.1106 32.858Z" fill="black"/>
</g>
<path d="M17.1182 22.3606L12.1333 19.2095L12.1338 29.4241L17.1187 32.5752L17.1182 22.3606Z" fill="#CCC2B9"/>
<path d="M23.3115 28.6619L23.311 18.4473L17.1182 22.3608L17.1187 32.5754L23.3115 28.6619Z" fill="#E8DFD3"/>
<path d="M17.1693 21.765L12.1333 18.583V19.2098L17.1693 22.3918C17.2362 22.4341 17.2967 22.4384 17.3413 22.4119C17.3879 22.3842 17.4166 22.3223 17.4166 22.2339C17.4166 22.0613 17.3061 21.8518 17.1693 21.765Z" fill="#422B1D"/>
<path d="M23.6095 18.3224C23.6095 18.1498 23.499 17.9398 23.3622 17.8535L18.3262 14.6704L12.1333 18.5839L17.1693 21.7659L17.1708 21.767C17.3066 21.8538 17.4166 22.0628 17.4166 22.2348C17.4166 22.2348 17.4166 22.2359 17.4166 22.237L23.6095 18.3224Z" fill="#6B4E37"/>
<path d="M17.4167 22.2363C17.4162 22.3231 17.3874 22.3845 17.3413 22.4121C17.3413 22.4121 23.4906 18.5269 23.5352 18.4992C23.5808 18.471 23.6095 18.4096 23.6095 18.3223L17.4167 22.2363Z" fill="#5C3F2D"/>
<path opacity="0.1" d="M23.4487 17.9282L17.2568 21.8417C17.3163 21.9079 17.3644 21.9947 17.3917 22.0843L23.584 18.1702C23.5568 18.0812 23.5082 17.9939 23.4487 17.9282Z" fill="white"/>
<path d="M23.2484 18.855L17.3232 22.5997L17.3237 31.7757L23.2484 28.031V18.855Z" fill="#AFCD15"/>
<path d="M23.2487 18.8549L23.1342 18.7827L17.2095 22.5274V31.7035L17.3235 31.7756H17.324L17.3235 22.5996L23.2487 18.8549Z" fill="#91AD0B"/>
<path d="M18.0416 25.5575L17.8369 25.4283V25.1608L18.0416 25.2899C18.1264 25.3431 18.1953 25.2997 18.1953 25.1928V24.1314C18.1953 24.0245 18.1264 23.8937 18.0416 23.84L17.8369 23.7109V23.4434L18.1413 23.6355C18.2875 23.7277 18.4069 23.9551 18.4069 24.1396V25.3269C18.4069 25.4538 18.3658 25.5434 18.2994 25.5851C18.2335 25.6269 18.1423 25.621 18.0416 25.5575Z" fill="#E8DFD3"/>
<path d="M18.1953 25.1928V25.1412L18.0317 25.0376L17.8374 25.1608L18.0421 25.2899C18.1259 25.3431 18.1953 25.2997 18.1953 25.1928Z" fill="#CCC2B9"/>
<path d="M18.3356 23.5119L18.0312 23.3198L17.8364 23.443L18.1408 23.6351C18.287 23.7273 18.4064 23.9547 18.4064 24.1392V25.3265C18.4064 25.4535 18.3653 25.543 18.2989 25.5848C18.2989 25.5848 18.4273 25.5034 18.4937 25.4616C18.5601 25.4198 18.6007 25.3303 18.6007 25.2033V24.016C18.6017 23.8315 18.4818 23.6047 18.3356 23.5119Z" fill="#CCC2B9"/>
<path d="M22.198 17.8759L18.1082 15.2908C18.0592 15.2598 17.9794 15.2598 17.9303 15.2908L14.134 17.6903C14.0849 17.7213 14.0849 17.7717 14.134 17.8027L18.2237 20.3878C18.2728 20.4187 18.3526 20.4187 18.4017 20.3878L22.198 17.9882C22.2471 17.9573 22.2471 17.9068 22.198 17.8759ZM20.0959 19.0594C19.2032 19.6237 17.7553 19.6237 16.8626 19.0594C15.9699 18.4951 15.9699 17.5802 16.8626 17.0158C17.7553 16.4515 19.2032 16.4515 20.0959 17.0158C20.9886 17.5796 20.9886 18.4951 20.0959 19.0594Z" fill="#D5CACC"/>
<path d="M20.0956 17.0155C19.2029 16.4512 17.7551 16.4512 16.8624 17.0155C15.9697 17.5799 15.9697 18.4948 16.8624 19.0591C17.7551 19.6235 19.2029 19.6235 20.0956 19.0591C20.9883 18.4948 20.9883 17.5799 20.0956 17.0155Z" fill="#B0A1A4"/>
<path d="M16.862 19.0595C17.7547 19.6238 19.2025 19.6238 20.0952 19.0595C20.3004 18.9298 20.4561 18.7811 20.5671 18.6232C20.4561 18.4648 20.3004 18.3166 20.0952 18.1869C19.2025 17.6226 17.7547 17.6226 16.862 18.1869C16.6568 18.3166 16.5012 18.4653 16.3901 18.6232C16.5017 18.7811 16.6573 18.9298 16.862 19.0595Z" fill="#E6DFE0"/>
<path d="M17.7712 18.4227C17.6458 18.3435 17.4421 18.3435 17.3167 18.4227C17.1913 18.5019 17.1913 18.6305 17.3167 18.7098C17.4421 18.789 17.6453 18.789 17.7712 18.7098C17.8966 18.6305 17.8966 18.5025 17.7712 18.4227Z" fill="#D5CACC"/>
<path d="M17.7709 18.7102C17.6455 18.7894 17.4418 18.7894 17.3163 18.7102C17.2534 18.6706 17.2222 18.6185 17.2222 18.5664C17.2222 18.5707 17.2222 18.5935 17.2222 18.6174C17.2222 18.6695 17.2534 18.7216 17.3163 18.7612C17.4418 18.8404 17.645 18.8404 17.7709 18.7612C17.8333 18.7216 17.865 18.6695 17.865 18.618C17.865 18.6049 17.865 18.567 17.865 18.567C17.865 18.6185 17.8333 18.6706 17.7709 18.7102Z" fill="#B0A1A4"/>
<path d="M17.7139 18.4589C17.6197 18.3998 17.4675 18.3998 17.3739 18.4589C17.2797 18.5181 17.2797 18.6146 17.3739 18.6738C17.468 18.7329 17.6202 18.7329 17.7139 18.6738C17.8076 18.6146 17.8076 18.5181 17.7139 18.4589Z" fill="black"/>
<path d="M13.8816 17.6882L18.0962 20.3525C18.2157 20.4279 18.409 20.4279 18.5285 20.3525L22.4497 17.8737C22.5691 17.7983 22.5691 17.6762 22.4497 17.6008L18.235 14.9365C18.1156 14.861 17.9223 14.861 17.8028 14.9365L13.8816 17.4152C13.7621 17.4906 13.7621 17.6127 13.8816 17.6882ZM22.1979 17.7934L18.4016 20.193C18.3525 20.2239 18.2727 20.2239 18.2236 20.193L14.1339 17.6079C14.0848 17.5769 14.0848 17.5265 14.1339 17.4955L17.9302 15.096C17.9793 15.0651 18.0591 15.0651 18.1082 15.096L22.1979 17.6811C22.247 17.712 22.247 17.762 22.1979 17.7934Z" fill="#F8F4F5"/>
<path d="M22.5395 17.7393C22.5385 17.7881 22.5088 17.8364 22.4498 17.8739L18.5286 20.3526C18.4835 20.3814 18.4265 20.3955 18.368 20.4026C18.3328 20.4134 18.2927 20.4134 18.2575 20.4026C18.199 20.3955 18.142 20.3814 18.0969 20.3526L13.8822 17.6883C13.8232 17.6508 13.794 17.6025 13.793 17.5537C13.793 17.5537 13.793 17.6975 13.793 17.7469C13.793 17.7963 13.8227 17.8457 13.8827 17.8836L18.0974 20.548C18.2168 20.6234 18.4101 20.6234 18.5296 20.548L22.4508 18.0692C22.5103 18.0318 22.5405 17.9824 22.5405 17.9325C22.5395 17.8831 22.5395 17.7393 22.5395 17.7393Z" fill="#B0A1A4"/>
<path d="M17.964 15.0821C17.9521 15.0859 17.9402 15.0897 17.9303 15.0962L14.134 17.4957C14.0849 17.5267 14.0849 17.5771 14.134 17.6081L14.1994 17.6493L17.9303 15.291C17.9794 15.26 18.0592 15.26 18.1082 15.291L22.1326 17.8349L22.198 17.7936C22.2471 17.7627 22.2471 17.7122 22.198 17.6813L18.1082 15.0962C18.0983 15.0897 18.0864 15.0859 18.0745 15.0821C18.0373 15.0772 18.0012 15.0777 17.964 15.0821Z" fill="#B0A1A4"/>
<path d="M16.5795 15.7066C16.6103 15.687 16.6445 15.6697 16.6831 15.6545C17.0653 15.5052 17.5119 15.6545 17.9838 15.8932C18.0467 15.9247 17.9639 16.0056 17.8856 16.0549C17.8073 16.1049 17.6968 16.151 17.6294 16.1173C17.1575 15.8786 16.7109 15.7294 16.3287 15.8786C16.29 15.8938 16.2553 15.9117 16.2241 15.9312C16.2241 15.9312 16.5666 15.7142 16.5795 15.7066Z" fill="#FCF9F0"/>
<path d="M16.2241 15.9317C16.2553 15.9122 16.2895 15.8943 16.3287 15.8791C16.7109 15.7299 17.1575 15.8791 17.6293 16.1178C17.6968 16.152 17.8068 16.1054 17.8856 16.0554C17.9545 16.012 18.0269 15.9442 18.0006 15.9073C18.0234 15.9333 18.0289 15.9811 18.0264 16.0256C18.0234 16.0804 18.014 16.1287 17.9966 16.1547C17.9763 16.1884 17.9302 16.2264 17.8856 16.2546C17.8068 16.3045 17.6973 16.349 17.6293 16.317C17.2601 16.1439 16.9656 15.9947 16.697 16.0147C16.4283 16.0354 16.3168 16.1406 16.3168 16.3577C16.3168 16.5748 16.3594 16.68 16.5255 16.8124C16.6266 16.8933 16.6321 17.0235 16.5815 17.055C16.5646 17.0658 16.5409 17.0648 16.5126 17.0474L16.0259 16.7397C15.9862 16.7147 15.9619 16.6686 15.9619 16.6182C15.9624 16.3713 15.9783 16.0875 16.2241 15.9317Z" fill="#E8DFD3"/>
<path d="M17.8854 16.2534C17.8859 16.2789 17.8859 16.3082 17.8859 16.3315C17.8859 16.3842 17.8184 16.4271 17.7347 16.4271C17.6514 16.4271 17.5835 16.3842 17.5835 16.3315C17.5835 16.3202 17.5835 16.3077 17.5835 16.2947C17.5984 16.3017 17.6132 16.3088 17.6286 16.3158C17.697 16.3478 17.807 16.3033 17.8854 16.2534Z" fill="#CCC2B9"/>
<path d="M16.8793 16.5879L16.5249 16.812C16.626 16.8928 16.6315 17.0231 16.5809 17.0546C16.5809 17.0546 16.9189 16.8413 16.9358 16.8299C16.9854 16.7979 16.9804 16.6687 16.8793 16.5879Z" fill="#CCC2B9"/>
<path d="M16.6708 16.1334C16.6708 16.0894 16.6753 16.0504 16.6847 16.0156C16.4245 16.0384 16.3159 16.1437 16.3159 16.3575C16.3159 16.5745 16.3586 16.6798 16.5246 16.8122L16.879 16.5881C16.7135 16.4552 16.6708 16.3504 16.6708 16.1334Z" fill="#AD9E90"/>
<path opacity="0.17" d="M19.5976 17.9489V16.7779C19.0761 16.5923 18.465 16.5468 17.8984 16.6406V17.8117C18.4645 17.7178 19.0756 17.7634 19.5976 17.9489Z" fill="white"/>
<path d="M18.2354 7.1499V7.87107L23.2357 11.0319V10.3102L18.2354 7.1499Z" fill="#CCC2B9"/>
<path d="M28.4235 7.03076L23.2358 10.3099V11.0316L28.4235 7.75246V7.03076Z" fill="#CCC2B9"/>
<path d="M21.8741 7.01025L19.2138 5.32861L18.2354 7.1497L23.2357 10.31L21.8741 7.01025Z" fill="#E8DFD3"/>
<path d="M25.1048 4.96777L21.874 7.01027L23.2356 10.31L28.4233 7.03088L25.1048 4.96777Z" fill="#FCF9F0"/>
<path d="M22.4446 3.28613L19.2139 5.32862L21.8741 7.01026L25.1049 4.96777L22.4446 3.28613Z" fill="#CCC2B9"/>
<path d="M19.9399 1.70605V4.96894L21.8755 6.19204V2.92916L19.9399 1.70605Z" fill="#3E333B"/>
<path d="M21.8755 0.482422L19.9399 1.70607L21.8755 2.92918L23.8111 1.70607L21.8755 0.482422Z" fill="#7A5E72"/>
<path d="M20.4463 1.70623L21.8753 2.60971V0.802734L20.4463 1.70623Z" fill="#5C4C57"/>
<path d="M21.8755 0.802734V2.60971L23.3045 1.70623L21.8755 0.802734Z" fill="#3E333B"/>
<path d="M23.8111 1.70605V4.96894L21.8755 6.19204V2.92916L23.8111 1.70605Z" fill="#5C4C57"/>
<g opacity="0.5">
<path d="M27.2951 47.7862L29.3036 47.504L35.4206 43.6122L28.1338 39.0068L20.7935 43.6768L27.2951 47.7862Z" fill="black"/>
</g>
<path d="M29.3313 36.6707L35.4489 32.7789L30.4496 29.6196L24.3325 33.5109L29.3313 36.6707Z" fill="#FCF9F0"/>
<path d="M29.3037 47.5043L35.4208 43.6125C35.7008 40.1809 35.7102 36.5539 35.449 32.7793L29.332 36.6711C29.5932 40.4451 29.5838 44.0727 29.3037 47.5043Z" fill="#E8DFD3"/>
<path d="M29.3313 36.6705L24.3325 33.5107V44.3613L29.3036 47.5032C29.5836 44.0721 29.593 40.4446 29.3313 36.6705Z" fill="#CCC2B9"/>
<path d="M34.244 38.8595C34.244 40.2623 33.3443 41.9678 32.235 42.6689C31.1252 43.3699 30.2261 42.8018 30.2261 41.3991C30.2261 39.9964 31.1257 38.2909 32.235 37.5898C33.3443 36.8887 34.2435 37.4574 34.244 38.8595Z" fill="black"/>
<path d="M34.3409 37.2212C33.9845 36.9987 33.5141 36.9917 32.9902 37.2375C32.9962 37.2424 33.0016 37.2472 33.008 37.2521C33.0343 37.2532 33.0576 37.2608 33.0774 37.2765C33.0799 37.276 33.0824 37.276 33.0849 37.2755C33.132 37.2945 33.1776 37.3172 33.2207 37.3444C33.5602 37.556 33.7704 38.0107 33.7719 38.6597C33.7733 39.3093 33.5667 40.0272 33.2291 40.6664C32.8921 41.3056 32.4266 41.8624 31.9106 42.1891C31.3946 42.5152 30.9277 42.5472 30.5887 42.3355C30.5411 42.3057 30.496 42.2715 30.4539 42.2324C30.4534 42.2314 30.4534 42.2308 30.4529 42.2298C30.4301 42.2119 30.4107 42.1858 30.3974 42.1614C30.3879 42.1445 30.3795 42.1261 30.3721 42.1076C30.4291 42.7659 30.6774 43.2325 31.0492 43.4642C31.4735 43.729 32.0578 43.6883 32.7032 43.2808C33.3481 42.8733 33.931 42.1755 34.3523 41.3767C34.7736 40.578 35.0329 39.6782 35.0309 38.8665C35.0284 38.0552 34.7647 37.486 34.3409 37.2212Z" fill="#383838"/>
<path d="M34.3184 36.8548C33.8574 36.5672 33.2225 36.6112 32.5216 37.0539C31.8207 37.4967 31.1873 38.2553 30.7298 39.123C30.2718 39.9912 29.9902 40.9685 29.9922 41.8503C29.9947 42.7321 30.2807 43.3507 30.7411 43.6378L30.8041 43.6779C30.3525 43.386 30.073 42.7717 30.071 41.9002C30.0685 41.0184 30.3506 40.0412 30.8086 39.1729C31.2666 38.3047 31.9 37.5467 32.6004 37.1039C33.3013 36.6611 33.9367 36.6171 34.3972 36.9047L34.3184 36.8548Z" fill="#BEBFBF"/>
<path d="M30.8042 43.6782C30.8097 43.6812 30.8146 43.6847 30.8201 43.6877L30.8042 43.6782Z" fill="#AAABAB"/>
<path d="M34.6667 37.1941C34.3624 37.0042 33.9792 36.963 33.5515 37.0905C33.6907 37.0655 33.8285 37.0709 33.945 37.1431C33.9564 37.1442 33.9688 37.1458 33.9822 37.1474C34.0238 37.1534 34.0724 37.1648 34.1081 37.1773C34.1676 37.1979 34.1973 37.2153 34.2256 37.2315C34.6419 37.4915 34.9006 38.0504 34.9026 38.847C34.9046 39.6436 34.6498 40.527 34.2364 41.3117C33.8226 42.0963 33.2506 42.7811 32.6171 43.1816C31.9841 43.582 31.4097 43.6211 30.9933 43.3618C30.968 43.3455 30.9526 43.3357 30.9269 43.314C30.8971 43.289 30.8778 43.2684 30.8634 43.2537C30.855 43.2451 30.8332 43.2207 30.8054 43.1838C30.7281 43.1333 30.6533 43.066 30.5903 42.989C30.7152 43.3617 30.9195 43.6374 31.1827 43.8013C31.6312 44.0813 32.2503 44.0389 32.9328 43.6075C33.6154 43.1761 34.2325 42.4371 34.6786 41.5922C35.1242 40.7468 35.3993 39.7939 35.3968 38.9354C35.3938 38.077 35.1153 37.4741 34.6667 37.1941Z" fill="#C2C3C6"/>
<path d="M34.9442 37.4456C34.9309 37.4239 34.9115 37.3962 34.8961 37.3762C34.8699 37.3409 34.8332 37.2942 34.8054 37.26C34.7757 37.2231 34.7321 37.1776 34.6989 37.1445C34.682 37.1282 34.6602 37.1065 34.6424 37.0907C34.6077 37.0603 34.5611 37.0213 34.5249 36.9931C34.4882 36.9638 34.4357 36.9301 34.397 36.9046C33.936 36.617 33.3011 36.661 32.6002 37.1038C31.8993 37.5465 31.2659 38.3052 30.8084 39.1734C30.3504 40.0416 30.0688 41.0189 30.0708 41.9007C30.0733 42.7825 30.3593 43.4005 30.8198 43.6881C30.8703 43.7196 30.909 43.7413 30.962 43.7679C31.0017 43.788 31.0552 43.8124 31.0964 43.8281C31.1177 43.8363 31.1459 43.8471 31.1672 43.8542C31.2064 43.8666 31.2589 43.8824 31.2986 43.8927C31.3432 43.9046 31.4042 43.9166 31.4498 43.9226C31.4756 43.9258 31.5068 43.9301 31.5365 43.9334C31.4716 43.8824 31.425 43.8167 31.4166 43.7305C31.3625 43.7077 31.311 43.6811 31.2614 43.6501C30.8332 43.3826 30.567 42.808 30.565 41.9886C30.563 41.1687 30.8247 40.2608 31.2505 39.4534C31.6763 38.6465 32.2647 37.9416 32.9165 37.5297C33.5683 37.1179 34.1586 37.0772 34.5869 37.3447C34.6141 37.3615 34.6404 37.38 34.6661 37.3995C34.6721 37.3979 34.6781 37.3968 34.685 37.3962C34.7866 37.393 34.8882 37.4174 34.9626 37.4749C34.9561 37.4646 34.9497 37.4548 34.9442 37.4456Z" fill="#C2C3C6"/>
<path d="M32.9166 37.5303C33.5684 37.1184 34.1588 37.0777 34.587 37.3452C35.0153 37.6128 35.2814 38.1874 35.2834 39.0068C35.2854 39.8267 35.0237 40.7346 34.5979 41.542C34.1721 42.3489 33.5838 43.0538 32.932 43.4657C32.2802 43.8775 31.6903 43.9182 31.2616 43.6507C30.8333 43.3832 30.5671 42.8085 30.5652 41.9891C30.5632 41.1692 30.8249 40.2614 31.2507 39.4539C31.6765 38.6465 32.2653 37.9422 32.9166 37.5303ZM32.9325 43.6078C33.615 43.1764 34.2321 42.4373 34.6782 41.5925C35.1238 40.747 35.3989 39.7942 35.3964 38.9357C35.3945 38.0772 35.1154 37.4744 34.6668 37.1944C34.2183 36.9144 33.5992 36.9567 32.9166 37.3881C32.2341 37.8195 31.617 38.5586 31.1709 39.404C30.7253 40.2489 30.4502 41.2018 30.4527 42.0602C30.4546 42.9187 30.7337 43.5216 31.1823 43.8016C31.6308 44.0816 32.2499 44.0392 32.9325 43.6078Z" fill="#DFE0E0"/>
<path opacity="0.6" d="M32.9164 37.5301C32.2646 37.942 31.6762 38.6463 31.2505 39.4538C30.8247 40.2607 30.563 41.1691 30.565 41.989C30.5669 42.6754 30.7533 43.1898 31.0656 43.4959C31.4859 43.7254 32.05 43.6717 32.6701 43.2799C33.3174 42.8708 33.9018 42.1708 34.3246 41.3693C34.7474 40.5678 35.0076 39.6654 35.0056 38.8509C35.0037 38.0782 34.7657 37.5247 34.3776 37.2431C33.9752 37.0993 33.4676 37.1818 32.9164 37.5301Z" fill="#2F7E9E"/>
<path opacity="0.2" d="M29.0974 47.374V36.9467L29.0527 36.9185V47.3458L29.0974 47.374Z" fill="black"/>
<path opacity="0.2" d="M24.3325 33.9348V33.8789L29.3571 37.0544L29.3611 37.113L24.3325 33.9348Z" fill="black"/>
<path d="M35.1385 33.2527L29.8522 36.616C29.7472 36.6827 29.6867 36.8091 29.6951 36.9415C29.7169 37.2818 29.7372 37.6204 29.7546 37.9579C29.7576 38.0127 29.7853 38.0561 29.823 38.0805C29.8641 38.1066 29.9167 38.1104 29.9633 38.0811L35.2065 34.7732C35.3249 34.6983 35.3948 34.5572 35.3869 34.4074C35.369 34.0639 35.3492 33.7101 35.3274 33.3623C35.3244 33.3129 35.2991 33.2739 35.2645 33.2522C35.2278 33.2294 35.1802 33.2261 35.1385 33.2527Z" fill="black"/>
<path d="M29.7546 37.9579C29.7367 37.6204 29.7169 37.2812 29.6951 36.9415C29.6867 36.8091 29.7471 36.6827 29.8522 36.6159L35.1385 33.2527C35.1806 33.2261 35.2282 33.2293 35.2649 33.2527C35.2649 33.2527 35.202 33.2125 35.1673 33.1908C35.1301 33.1675 35.083 33.1648 35.0414 33.1914L29.7556 36.5546C29.6505 36.6214 29.59 36.7478 29.5984 36.8802C29.6202 37.2204 29.6401 37.559 29.6579 37.8966C29.6609 37.9519 29.6891 37.9959 29.7278 38.0203C29.7684 38.0458 29.8235 38.0805 29.8235 38.0805C29.7853 38.0561 29.7575 38.0122 29.7546 37.9579Z" fill="#3E333B"/>
<g opacity="0.5">
<path d="M31.8275 36.6416L31.7734 35.6969L33.2629 34.7554L33.317 35.7001L31.8275 36.6416ZM31.8027 35.7137L31.8528 36.5901L33.2882 35.6828L33.2381 34.8064L31.8027 35.7137Z" fill="white"/>
</g>
<path d="M34.5727 34.4127C34.5826 34.5842 34.4765 34.7958 34.3358 34.8848C34.195 34.9738 34.0731 34.9065 34.0631 34.735C34.0532 34.5636 34.1593 34.3519 34.3001 34.2629C34.4409 34.1739 34.5628 34.2412 34.5727 34.4127Z" fill="#FF5102"/>
<path opacity="0.5" d="M34.7524 33.8832L34.5571 34.1491L34.7554 33.9342L35.1371 33.6933C35.1485 33.6857 35.1574 33.6683 35.1564 33.6542C35.1554 33.6401 35.1455 33.6347 35.1341 33.6418L34.7524 33.8832Z" fill="white"/>
<path opacity="0.4" d="M34.7986 34.6861L34.5874 34.6769L34.7956 34.6351L35.1772 34.3942C35.1886 34.3871 35.199 34.3925 35.1995 34.4067C35.2005 34.4208 35.1916 34.4381 35.1802 34.4457L34.7986 34.6861Z" fill="white"/>
<path opacity="0.4" d="M34.8297 34.2283L34.6235 34.3808L34.8327 34.2793L35.1589 34.0731C35.1703 34.0661 35.1792 34.0487 35.1782 34.0346C35.1772 34.0205 35.1673 34.0151 35.1559 34.0221L34.8297 34.2283Z" fill="white"/>
<path opacity="0.5" d="M33.8366 34.4624L34.0478 34.4716L33.8396 34.5134L33.4579 34.7544C33.4465 34.7614 33.4361 34.756 33.4356 34.7419C33.4346 34.7278 33.4436 34.7104 33.455 34.7028L33.8366 34.4624Z" fill="white"/>
<path opacity="0.5" d="M33.8826 35.2649L34.0778 34.999L33.8796 35.2139L33.4979 35.4548C33.4865 35.4619 33.4776 35.4793 33.4786 35.4934C33.4796 35.5075 33.4895 35.5129 33.5009 35.5058L33.8826 35.2649Z" fill="white"/>
<path opacity="0.5" d="M33.8031 34.8772L34.0117 34.7676L33.8061 34.9282L33.4799 35.1344C33.4685 35.1414 33.4581 35.136 33.4576 35.1219C33.4566 35.1078 33.4655 35.0904 33.4769 35.0828L33.8031 34.8772Z" fill="white"/>
<path d="M31.5707 35.5225C31.6044 36.0217 31.6337 36.5182 31.658 37.012L31.5985 37.0495C31.5742 36.5557 31.5454 36.0591 31.5112 35.5599L31.5707 35.5225Z" fill="#3B3B3D"/>
<path d="M34.3038 34.5682C34.221 34.7251 34.221 34.8949 34.3038 34.9476C34.3866 34.9996 34.5209 34.915 34.6037 34.7582C34.6864 34.6014 34.6864 34.4315 34.6037 34.3789C34.5209 34.3262 34.3866 34.4114 34.3038 34.5682Z" fill="#DEDEDE"/>
<path d="M34.3039 34.5686C34.3842 34.4161 34.5131 34.3314 34.5964 34.3748C34.5939 34.3732 34.5448 34.3418 34.464 34.2908C34.3813 34.2387 34.2469 34.3233 34.1641 34.4801C34.0814 34.637 34.0814 34.8068 34.1641 34.8594C34.2469 34.9115 34.3039 34.9479 34.3039 34.9479C34.2212 34.8953 34.2212 34.7254 34.3039 34.5686Z" fill="#B5B5B5"/>
<path d="M34.3265 34.5827C34.2512 34.726 34.2512 34.8806 34.3265 34.9284C34.4024 34.9761 34.5243 34.8985 34.6001 34.7553C34.6755 34.612 34.6755 34.4573 34.6001 34.4096C34.5243 34.3618 34.4019 34.4395 34.3265 34.5827Z" fill="#B5B5B5"/>
<path opacity="0.3" d="M34.2161 34.3984C34.1973 34.4229 34.1795 34.45 34.1636 34.4798C34.1507 34.5048 34.1393 34.5298 34.1304 34.5547L34.2717 34.6383C34.2801 34.615 34.291 34.5911 34.3029 34.5677C34.3187 34.5379 34.3366 34.5102 34.3554 34.4858L34.2161 34.3984Z" fill="white"/>
<path d="M34.4165 34.6129L34.3377 34.563C34.3337 34.5695 34.3303 34.576 34.3268 34.5825C34.3233 34.589 34.3199 34.5961 34.3169 34.6026L34.3957 34.6525C34.3992 34.6547 34.4026 34.6558 34.4061 34.6558C34.4135 34.6558 34.4205 34.6515 34.4244 34.6444C34.4299 34.6335 34.4264 34.6194 34.4165 34.6129Z" fill="#FF5102"/>
<path opacity="0.5" d="M30.1137 37.8853C30.1048 37.729 30.202 37.5359 30.3299 37.455L30.998 37.0328C31.1259 36.952 31.2379 37.0133 31.2468 37.1696L31.2523 37.2683L31.3019 37.2369L31.2964 37.1381C31.2855 36.9482 31.1502 36.8738 30.9946 36.9721L30.3264 37.3942C30.1707 37.4925 30.0533 37.7268 30.0642 37.9168L30.0696 38.0145L30.1192 37.983L30.1137 37.8853Z" fill="white"/>
<path opacity="0.1" d="M25.228 35.4672L24.9127 35.268C24.882 35.2485 24.8528 35.2393 24.8265 35.2393C24.8136 35.2637 24.8062 35.2962 24.8062 35.3353V43.782C24.8062 43.9155 24.8914 44.0772 24.997 44.1439L25.3122 44.3431C25.3435 44.3626 25.3722 44.3719 25.3985 44.3719C25.4114 44.3474 25.4188 44.3154 25.4188 44.2758L25.4193 35.8291C25.4193 35.6961 25.3335 35.5339 25.228 35.4672Z" fill="black"/>
<path opacity="0.15" d="M24.7217 35.3885C24.7217 35.2946 24.7643 35.2398 24.8263 35.2393C24.8134 35.2637 24.8059 35.2957 24.8059 35.3353V43.782C24.8059 43.9155 24.8912 44.0772 24.9968 44.1439L25.312 44.3431C25.3427 44.3626 25.372 44.3719 25.3978 44.3719C25.3665 44.4305 25.3021 44.4435 25.2273 44.3968L24.912 44.1976C24.8065 44.1309 24.7212 43.9692 24.7212 43.8357L24.7217 35.3885Z" fill="black"/>
<path opacity="0.1" d="M26.2665 36.1229L25.9513 35.9238C25.9201 35.9042 25.8913 35.895 25.8651 35.895C25.8522 35.9194 25.8447 35.9515 25.8447 35.9911V44.4378C25.8447 44.5712 25.93 44.733 26.0356 44.7997L26.3508 44.9988C26.382 45.0184 26.4113 45.0276 26.4371 45.0276C26.4499 45.0032 26.4574 44.9706 26.4574 44.9316L26.4579 36.4849C26.4574 36.3519 26.3716 36.1897 26.2665 36.1229Z" fill="black"/>
<path opacity="0.15" d="M25.7598 36.0443C25.7598 35.9504 25.8024 35.8956 25.8643 35.895C25.8515 35.9194 25.844 35.9515 25.844 35.9911V44.4378C25.844 44.5712 25.9293 44.733 26.0349 44.7997L26.3501 44.9988C26.3813 45.0184 26.4101 45.0276 26.4359 45.0276C26.4046 45.0862 26.3402 45.0992 26.2654 45.0526L25.9501 44.8534C25.8445 44.7867 25.7593 44.625 25.7593 44.4915L25.7598 36.0443Z" fill="black"/>
<path opacity="0.1" d="M27.3041 36.7792L26.9889 36.5801C26.9577 36.5605 26.9284 36.5513 26.9027 36.5513C26.8898 36.5757 26.8823 36.6077 26.8823 36.6473V45.094C26.8823 45.2275 26.9676 45.3892 27.0732 45.456L27.3884 45.6551C27.4191 45.6747 27.4484 45.6839 27.4747 45.6833C27.4875 45.6589 27.495 45.6269 27.495 45.5873V37.1406C27.495 37.0082 27.4097 36.8459 27.3041 36.7792Z" fill="black"/>
<path opacity="0.15" d="M26.7974 36.7005C26.7974 36.6066 26.84 36.5518 26.9019 36.5513C26.8891 36.5757 26.8816 36.6077 26.8816 36.6473V45.094C26.8816 45.2275 26.9669 45.3892 27.0725 45.456L27.3877 45.6551C27.4185 45.6747 27.4477 45.6839 27.4735 45.6833C27.4417 45.7419 27.3778 45.7549 27.303 45.7083L26.9877 45.5091C26.8821 45.4424 26.7969 45.2807 26.7969 45.1472L26.7974 36.7005Z" fill="black"/>
<path opacity="0.1" d="M28.3422 37.4349L28.027 37.2358C27.9958 37.2162 27.967 37.207 27.9407 37.207C27.9279 37.2314 27.9204 37.264 27.9204 37.3031V45.7498C27.9204 45.8833 28.0057 46.045 28.1112 46.1117L28.4265 46.3109C28.4577 46.3304 28.487 46.3396 28.5127 46.3396C28.5256 46.3152 28.5331 46.2826 28.5331 46.2436V37.7969C28.5331 37.6639 28.4478 37.5017 28.3422 37.4349Z" fill="black"/>
<path opacity="0.15" d="M27.8359 37.3562C27.8359 37.2618 27.8786 37.2076 27.9405 37.207C27.9276 37.2314 27.9202 37.2635 27.9202 37.3031V45.7498C27.9202 45.8833 28.0055 46.045 28.111 46.1117L28.4263 46.3109C28.457 46.3304 28.4862 46.3396 28.5125 46.3391C28.4808 46.3977 28.4164 46.4113 28.342 46.364L28.0268 46.1649C27.9212 46.0981 27.8359 45.9359 27.8359 45.803V37.3562Z" fill="black"/>
<path opacity="0.5" d="M15.0508 43.6933L20.632 41.4805L24.1765 43.0861C24.1215 43.7259 23.9401 44.1535 22.5086 44.6451C20.9929 45.1655 20.0288 45.3593 19.258 45.6246C18.5636 45.8634 19.0895 46.6751 18.4164 46.8743C17.718 47.0805 16.8283 46.7321 16.8283 45.9165C16.8283 45.4613 16.8987 45.0716 16.287 45.1422C15.6749 45.2127 15.0731 44.7792 15.0186 44.3022C14.9685 43.8697 15.0508 43.6933 15.0508 43.6933Z" fill="black"/>
<path d="M16.4119 40.9924C16.6449 40.8052 17.553 40.778 18.065 40.6836C18.065 40.6836 21.4152 42.0527 21.4668 42.0999C20.5736 42.5161 19.0811 42.7977 17.1232 43.1504C16.4927 43.2638 16.2608 42.6691 16.1438 42.2665C15.9837 41.7141 16.0323 41.2973 16.4119 40.9924Z" fill="#004291"/>
<path opacity="0.2" d="M16.1445 42.2659C15.9844 41.7135 16.022 41.281 16.4121 40.9923C16.425 40.9831 16.4389 40.9738 16.4548 40.9646C16.6962 40.8219 17 40.861 17.2087 41.0552C17.3985 41.2321 17.5859 41.5767 17.6003 42.1004C17.6181 42.7461 17.4516 43.0912 17.1234 43.1504C16.4929 43.2638 16.261 42.6691 16.1445 42.2659Z" fill="black"/>
<path d="M16.7531 37.4189C16.3129 38.5026 16.0934 40.092 17.8089 41.1034C19.5244 42.1149 20.5806 42.3559 20.5806 42.3559C20.5806 42.3559 18.6991 42.5908 18.309 42.8795C17.9189 43.1682 17.8812 43.6012 18.0413 44.1531C18.1583 44.5557 18.3898 45.151 19.0208 45.037C19.0738 45.0273 19.1264 45.0202 19.1779 45.0088C22.2084 44.3414 24.0141 43.9794 24.2124 42.9549C24.4459 41.7481 23.1606 41.008 20.1851 38.9362C19.7653 38.9221 19.1561 39.0723 18.1003 38.6192C16.6822 38.0099 16.7531 37.4189 16.7531 37.4189Z" fill="#0258BF"/>
<path opacity="0.2" d="M18.0415 44.1531C17.8814 43.6007 17.919 43.1682 18.3091 42.8796C18.322 42.8703 18.3359 42.8611 18.3517 42.8513C18.5931 42.7086 18.897 42.7477 19.1057 42.942C19.2955 43.1189 19.4828 43.4634 19.4972 43.9871C19.5151 44.6328 19.3485 44.9779 19.0204 45.0371C18.3899 45.151 18.1584 44.5563 18.0415 44.1531Z" fill="black"/>
<path opacity="0.1" d="M16.6367 37.7373C16.4662 38.3082 16.5182 39.3256 17.35 39.2274C17.7678 40.0821 18.8276 40.1087 19.2742 39.4065C18.9034 40.3132 18.9897 40.9476 20.0593 41.4376C20.7344 41.7469 21.7143 42.2352 22.209 42.3438C20.8891 42.608 19.409 42.9814 19.3317 43.2549C19.2652 43.1208 19.1864 43.0166 19.1066 42.9423C18.8985 42.7486 18.5961 42.7095 18.3552 42.85C18.8266 42.5744 20.5817 42.3557 20.5817 42.3557C20.5817 42.3557 19.526 42.1148 17.81 41.1033C16.2551 40.1873 16.2893 38.7965 16.6367 37.7373Z" fill="black"/>
<path d="M17.2798 42.0617C17.2798 42.7151 17.1767 42.9305 16.8282 42.9126C16.6349 42.9029 16.4867 43.0678 16.4619 43.3391C16.4372 43.6099 16.3489 43.8579 16.4877 43.9214C16.6265 43.9843 16.8163 44.0299 16.7995 44.3099C16.7831 44.5899 16.6726 44.8477 16.1987 44.8515C15.6912 44.8558 15.0508 44.4608 15.0508 43.7586C15.0508 43.3766 15.0597 42.586 15.141 41.9478C15.1871 41.5859 15.3824 41.3178 15.7155 41.2939C16.0986 41.2668 16.2032 41.2272 16.6191 41.2397C17.2223 41.2581 17.2798 41.6103 17.2798 42.0617Z" fill="#0D1421"/>
<path d="M16.1987 44.8517C15.6912 44.8561 15.0508 44.461 15.0508 43.7588C15.0508 43.3768 15.0597 42.5862 15.141 41.9481C15.1821 41.6268 15.2431 41.3115 15.6059 41.3115C15.9688 41.3115 16.0109 41.7478 15.9866 42.2525C15.9524 42.9573 15.7764 43.8478 15.8919 44.1566C16.0833 44.6688 16.3261 44.798 16.6146 44.7361C16.5244 44.8061 16.3916 44.8501 16.1987 44.8517Z" fill="#1B2A45"/>
<path d="M19.1274 43.9427C19.1274 44.596 18.9867 44.7718 18.6486 44.7914C18.381 44.8071 18.3626 45.0046 18.3255 45.245C18.2883 45.4849 18.1966 45.7388 18.3354 45.8018C18.4742 45.8653 18.6635 45.9103 18.6471 46.1903C18.6308 46.4703 18.5203 46.728 18.0464 46.7318C17.5388 46.7362 16.8984 46.3412 16.8984 45.639C16.8984 45.257 16.9073 44.4663 16.9886 43.8282C17.0347 43.4662 17.23 43.1982 17.5631 43.1743C17.9463 43.1472 18.0504 43.1076 18.4667 43.12C19.0695 43.139 19.1274 43.4912 19.1274 43.9427Z" fill="#0D1421"/>
<path d="M18.0464 46.7326C17.5388 46.7369 16.8984 46.3419 16.8984 45.6397C16.8984 45.2577 16.9073 44.4671 16.9886 43.8289C17.0298 43.5077 17.0908 43.1924 17.4536 43.1924C17.8164 43.1924 17.8585 43.6287 17.8343 44.1333C17.8001 44.8382 17.6241 45.7287 17.7396 46.0375C17.9309 46.5497 18.1738 46.6788 18.4623 46.617C18.3721 46.687 18.2392 46.7309 18.0464 46.7326Z" fill="#1B2A45"/>
<path d="M21.7688 33.6096C21.4967 33.7789 20.6997 34.5907 20.3269 34.7888C19.9542 34.9868 19.6419 34.8913 19.4184 34.5565C19.177 34.1951 19.292 33.9444 19.7549 33.6606C20.2838 33.3366 20.4771 33.4208 21.2038 32.9742C21.576 32.7457 22.8043 33.0561 22.5495 33.214C22.2952 33.3725 22.0935 33.4077 21.7688 33.6096Z" fill="#FFCEA1"/>
<path d="M17.3281 30.5351C16.8785 30.9166 16.6941 31.2003 16.7184 32.6438C16.7437 34.1344 18.6431 30.5063 18.6431 30.5063C18.2252 30.3337 17.6602 30.2529 17.3281 30.5351Z" fill="#D9B9AE"/>
<path d="M19.4469 30.9283C18.8744 30.5283 18.5572 30.423 18.0119 30.4524C17.5019 30.4795 17.0142 30.8284 16.8035 31.7601C16.5428 32.9121 16.9854 34.483 16.7534 37.4198C16.7827 38.1914 18.2137 38.8144 19.324 38.9935C19.6392 39.0445 21.1218 39.5855 20.7768 39.3467C20.4278 39.1052 20.5612 38.2061 20.8695 36.9043C21.1515 35.7138 21.262 34.2644 21.1877 33.0928C21.1322 32.3706 20.812 32.2148 20.6207 32.032C19.9961 31.4367 20.0382 31.3417 19.4469 30.9283Z" fill="#0258BF"/>
<path d="M19.9147 32.127C19.2217 32.5324 19.3392 33.4728 19.3332 34.3149C19.3273 35.1571 19.8948 35.1658 20.4415 35.0768C20.787 35.0209 20.9833 34.9564 21.0973 34.8495C21.2629 33.641 21.0403 32.6637 21.0403 32.6637C20.9833 32.495 20.906 32.3354 20.795 32.177C20.5635 32.005 20.2681 31.9208 19.9147 32.127Z" fill="#D9B9AE"/>
<path d="M20.3361 31.7497C20.0596 31.575 19.7488 31.6998 19.5346 31.861C19.0504 32.2246 18.9606 33.0038 18.9334 33.5953C18.1616 33.5649 17.4315 33.147 17.0791 32.4036C17.0642 31.5555 17.3933 30.5391 18.4105 30.4604C19.1252 30.5185 19.9505 31.2733 20.3361 31.7497Z" fill="#D9B9AE"/>
<path opacity="0.3" d="M19.5171 33.0039C19.6955 34.4327 19.7134 34.692 19.8834 35.6558C19.9434 35.9965 20.1996 35.9152 20.2789 36.2429C20.4405 36.9131 20.5679 37.5935 20.6864 37.7379C20.729 37.5306 20.8123 37.1394 20.8683 36.9039C21.0418 36.1707 21.1503 35.3394 21.191 34.5352L19.5171 33.0039Z" fill="black"/>
<path d="M24.2042 34.1139C24.2909 34.0015 24.3212 33.8854 24.3514 33.7975C24.3762 33.7264 24.3772 33.6467 24.3554 33.575C24.343 33.5354 24.3192 33.4947 24.2815 33.4877C24.2354 33.4795 24.2042 33.4985 24.1898 33.5479C24.1387 33.7259 24.0545 33.7839 24.0005 33.8626C23.9405 33.9494 23.8775 34.09 23.7725 34.1958C23.8919 34.2251 24.1254 34.2159 24.2042 34.1139Z" fill="#FFCEA1"/>
<path opacity="0.3" d="M24.2307 33.492C24.2823 33.4855 24.2922 33.4941 24.2971 33.5066C24.3021 33.5191 24.312 33.5403 24.2942 33.5924C24.2917 33.6005 24.2867 33.6124 24.2808 33.6173C24.257 33.6379 24.1921 33.6341 24.1817 33.6119C24.1717 33.5896 24.1926 33.4969 24.2307 33.492Z" fill="white"/>
<path d="M24.1448 35.2759C23.8543 35.392 23.6833 34.5167 23.6982 34.3908C23.716 34.2411 23.8161 34.1157 23.9341 34.0381C24.0526 33.9605 24.2732 33.8498 24.3901 33.7701C24.6558 33.5883 24.9344 33.4765 25.1406 33.5709C25.3468 33.6648 25.4038 33.8911 25.2565 34.1814C25.1093 34.4717 24.9844 34.641 24.743 34.8786C24.5021 35.1158 24.3535 35.1923 24.1448 35.2759Z" fill="#FFCEA1"/>
<path d="M21.2353 34.8137C21.3533 34.6602 21.6185 34.9277 21.6938 35.8659C22.0215 35.6 23.0425 35.1002 23.2844 34.9136C23.6051 34.6656 23.6076 34.6081 23.7186 34.3042L24.3903 35.1605C24.1647 35.3092 23.9967 35.3195 23.6279 35.8192C23.2596 36.319 22.704 36.9393 22.074 37.4396C21.444 37.9393 20.9816 37.5589 20.8145 37.1536C20.6475 36.7482 20.3516 35.6347 20.3516 35.6347C20.3516 35.6347 20.7545 35.441 21.2353 34.8137Z" fill="#FFCEA1"/>
<path d="M20.1111 32.0687C20.1591 32.0546 20.2067 32.0453 20.2543 32.041C20.6375 32.0041 21.0013 32.2711 21.1054 32.6911L21.717 34.9121C21.8647 35.4835 20.2365 36.0511 20.0967 35.5025L19.543 33.1577C19.4251 32.6851 19.6793 32.1978 20.1111 32.0687Z" fill="#E4C6BB"/>
<path d="M18.1576 30.6091C18.4054 30.3764 18.6136 29.9053 18.5854 29.271L20.004 30.6303C19.7194 30.4919 19.7373 31.0921 19.6158 31.2972C19.3442 31.7943 17.7373 31.0036 18.1576 30.6091Z" fill="#FFCEA1"/>
<path d="M21.325 28.7003C21.265 29.1155 21.1515 29.001 21.1069 29.1838C21.0623 29.3667 21.1461 29.5235 21.0147 29.7981C20.8933 30.0521 20.6444 30.5953 20.4477 30.6609C20.2509 30.726 19.9223 30.6691 19.3869 30.2979C18.7926 29.886 18.5279 29.5632 18.5597 28.8442C18.5854 28.2554 18.5547 26.9417 19.8207 27.0432C21.0866 27.1452 21.4326 27.9553 21.325 28.7003Z" fill="#FFCEA1"/>
<path d="M18.7009 29.5617L20.3059 29.1797C20.2702 29.4195 20.23 30.0224 20.008 30.1695C19.8478 30.2753 19.5629 30.4381 19.0736 30.2406C18.7202 30.0978 18.5571 29.9367 18.5571 29.7451C18.5571 29.6393 18.7009 29.5617 18.7009 29.5617Z" fill="#F5B27F"/>
<path d="M20.5774 28.9222C20.403 28.862 20.2126 29.0422 20.2225 29.3384C20.232 29.6353 20.345 29.7454 20.4689 29.7552C20.5457 29.7612 20.5878 29.7335 20.6201 29.6467C20.6399 29.5946 20.6404 29.5295 20.6354 29.454C20.6225 29.269 20.7147 28.9694 20.5774 28.9222Z" fill="#F5B27F"/>
<path d="M21.5104 27.9602C21.6452 28.5349 21.5168 28.7346 21.3969 28.6678C21.1902 28.5528 20.9418 28.6559 20.9072 29.001C20.8715 29.3602 20.7862 29.4639 20.7163 29.4492C20.5919 29.4232 20.7247 29.0021 20.6405 28.9473C20.5716 28.9023 20.3426 28.8475 20.3015 29.1888C20.2687 29.4606 20.239 29.7358 20.0834 29.9799C19.947 30.1932 19.6923 30.1964 19.4677 30.1872C19.2724 30.1791 19.0638 30.1373 18.7515 29.9425C18.4457 29.7515 18.411 29.402 18.4348 28.7091C18.4586 28.0161 18.4591 27.2988 19.1456 27.0378C19.8519 26.3909 21.2536 26.8657 21.5104 27.9602Z" fill="#2F2F2F"/>
<path d="M20.6255 28.8858C20.451 28.8256 20.2825 28.9916 20.2924 29.2884C20.3023 29.5853 20.4307 29.7046 20.5164 29.7193C20.6027 29.7334 20.6661 29.6037 20.6533 29.4187C20.6409 29.2325 20.7628 28.933 20.6255 28.8858Z" fill="#FFCEA1"/>
<path d="M19.7143 31.1268C19.9507 31.1469 19.9819 31.3558 19.9819 31.5777C19.288 31.6884 18.7675 31.5017 18.4017 31.2472C18.088 31.0291 18.0002 30.6824 18.0067 30.5581C18.0632 30.4241 18.2372 30.2738 18.375 30.3194C18.3348 30.3812 18.3393 30.4197 18.3611 30.461C18.5351 30.786 18.8835 31.0568 19.7143 31.1268Z" fill="#E4C6BB"/>
<path d="M22.7689 32.1167C22.6881 31.9929 22.4779 32.0971 22.3917 32.14C22.2707 32.2008 22.1681 32.2735 22.0754 32.3777C21.836 32.6474 21.5619 32.8758 21.5024 33.2459C21.5902 33.3745 21.6967 33.4955 21.9699 33.5177C22.1701 33.534 22.3005 33.4342 22.4586 33.2985C22.5468 33.2231 22.6043 33.1781 22.6727 33.1439C22.7262 33.1178 22.8497 32.2409 22.7689 32.1167Z" fill="#FFCEA1"/>
<path d="M22.8324 30.5991L22.7442 30.5905L22.712 30.9893L22.4865 31.0995L22.2817 30.9481L22.314 30.5492L22.2257 30.5405C22.2089 30.5568 22.0314 30.7348 22.0726 30.9958C22.1073 31.2178 22.2743 31.3333 22.3011 31.3518L22.1167 33.6227C22.1088 33.722 22.1757 33.8094 22.2664 33.8181C22.3571 33.8268 22.4369 33.7535 22.4448 33.6542L22.6292 31.3833C22.6589 31.3708 22.8414 31.2888 22.9112 31.0767C22.9925 30.8281 22.8458 30.6181 22.8324 30.5991ZM22.2728 33.7312C22.2262 33.7269 22.192 33.6819 22.196 33.6309C22.2 33.5798 22.2411 33.5424 22.2877 33.5468C22.3343 33.5511 22.3685 33.5961 22.3645 33.6471C22.3601 33.6982 22.3194 33.7356 22.2728 33.7312Z" fill="#828282"/>
<path d="M21.5961 33.3639C21.4256 33.1978 21.3978 33.0204 21.4231 32.7984C21.4459 32.5971 21.604 32.4479 21.7632 32.3432C21.8489 32.2867 21.9421 32.233 22.0001 32.1435C22.0715 32.0333 22.0982 31.8342 22.2127 31.7843C22.3317 31.7322 22.4234 31.8413 22.3941 31.9737C22.3327 32.2477 22.2519 32.3046 22.2246 32.3746C22.184 32.4788 22.2172 32.6178 22.18 32.723C22.1374 32.8446 22.0229 32.9775 21.9173 33.0378L21.5961 33.3639Z" fill="#FFCEA1"/>
<path d="M22.5979 32.1797C22.4745 32.2226 22.4195 32.2188 22.2406 32.3159C21.9982 32.4478 22.0532 32.5932 22.13 32.5894C21.9679 32.6909 21.8956 32.8667 21.9952 32.9524C21.906 33.0354 21.9075 33.2688 22.0705 33.2731C22.0309 33.4006 22.2564 33.4565 22.3744 33.4017C22.5558 33.3181 22.5702 33.3181 22.6242 33.2932C22.7496 33.2346 22.5979 32.1797 22.5979 32.1797Z" fill="#F5B27F"/>
<path d="M22.7089 32.0994C22.5885 32.221 22.5215 32.1835 22.3421 32.2806C22.0997 32.4125 22.1225 32.5937 22.1994 32.5899C22.0373 32.6914 21.9649 32.8672 22.0645 32.953C21.9753 33.036 21.9768 33.2693 22.1399 33.2737C22.1002 33.4012 22.3228 33.4489 22.4437 33.4023C22.5671 33.3551 22.6103 33.3334 22.6638 33.3078C23.0916 33.1049 22.8298 31.9784 22.7089 32.0994Z" fill="#FFCEA1"/>
</svg>
