<svg width="35" height="56" viewBox="0 0 35 56" fill="none" xmlns="http://www.w3.org/2000/svg">
<path opacity="0.4" fill-rule="evenodd" clip-rule="evenodd" d="M15.455 37.5635C23.989 37.5635 30.9096 41.5805 30.9096 46.535C30.9096 51.4891 23.9886 55.5061 15.455 55.5061C6.92105 55.5061 0 51.4891 0 46.535C0 41.5805 6.92105 37.5635 15.455 37.5635Z" fill="#D2D2E1"/>
<path fill-rule="evenodd" clip-rule="evenodd" d="M5.61465 50.9585V11.2365L4.8584 10.7622L4.86045 50.4806L5.61465 50.9585Z" fill="#AFAFAF"/>
<path fill-rule="evenodd" clip-rule="evenodd" d="M21.4551 1.24463L5.61475 11.2366V50.9582L21.4596 40.9626L21.4551 1.24463Z" fill="#CACACA"/>
<path fill-rule="evenodd" clip-rule="evenodd" d="M21.455 1.24463L5.61465 11.2366L4.8584 10.7623L20.6766 0.768066L21.455 1.24463Z" fill="#E3E3E3"/>
<path d="M13.6247 21.5903L13.6386 29.3144H13.5259V21.6478L13.6247 21.5903Z" fill="#7E7E7E"/>
<path d="M13.7859 21.4941V29.1267L13.6289 29.229V21.5893L13.7859 21.4941Z" fill="#E3E3E3"/>
<path fill-rule="evenodd" clip-rule="evenodd" d="M34.2946 40.5767H27.0063C27.0322 41.011 27.6573 45.7708 27.6573 45.4957C27.6704 46.6104 29.0037 47.5092 30.6462 47.5092C31.7422 47.5092 33.6142 46.9855 33.6355 45.414L34.2946 40.5767Z" fill="#C18B21"/>
<path fill-rule="evenodd" clip-rule="evenodd" d="M29.1709 47.2453C29.2279 45.1901 31.3478 43.1224 33.9535 42.6009L34.0204 42.5884L33.6351 45.4141C33.6137 46.9855 31.7418 47.5092 30.6457 47.5092C30.1096 47.5092 29.6062 47.4136 29.1709 47.2453Z" fill="#D39F25"/>
<path d="M29.69 43.3104C29.6556 43.2871 29.6449 43.2377 29.6663 43.2005C29.6876 43.1628 29.7327 43.1511 29.7667 43.1745C31.5673 44.3977 35.9003 45.2171 34.0136 41.6761C33.9931 41.638 34.005 41.5886 34.0398 41.5662C34.0747 41.5437 34.1198 41.5568 34.1402 41.5949C36.2754 45.5981 31.7633 44.8433 29.69 43.3104Z" fill="#3E3E3D"/>
<path d="M29.69 43.202C29.6556 43.1787 29.6449 43.1293 29.6663 43.0921C29.6876 43.0544 29.7327 43.0427 29.7667 43.0661C31.5673 44.2893 35.9003 45.1087 34.0136 41.5677C33.9931 41.5296 34.005 41.4802 34.0398 41.4578C34.0747 41.4353 34.1198 41.4484 34.1402 41.4865C36.2754 45.4892 31.7633 44.7349 29.69 43.202Z" fill="#585857"/>
<path fill-rule="evenodd" clip-rule="evenodd" d="M31.1915 37.8341C33.4783 38.0037 35.09 39.3167 34.7903 40.7657C34.4907 42.2151 32.3933 43.2525 30.1061 43.0829C27.8197 42.9133 26.2084 41.6008 26.508 40.1509C26.8077 38.7019 28.9051 37.6645 31.1915 37.8341Z" fill="#D39F25"/>
<path fill-rule="evenodd" clip-rule="evenodd" d="M31.1915 37.6974C33.4783 37.867 35.09 39.1795 34.7903 40.629C34.4907 42.0784 32.3933 43.1158 30.1061 42.9462C27.8197 42.7766 26.2084 41.464 26.508 40.0146C26.8077 38.5652 28.9051 37.5277 31.1915 37.6974Z" fill="#EDC52E"/>
<path fill-rule="evenodd" clip-rule="evenodd" d="M31.1222 38.0657C33.118 38.2137 34.5248 39.3594 34.2633 40.6239C34.0017 41.8889 32.1712 42.7944 30.1754 42.6464C28.18 42.4983 26.7737 41.3527 27.0352 40.0877C27.2963 38.8231 29.1269 37.9176 31.1222 38.0657Z" fill="#D39F25"/>
<path fill-rule="evenodd" clip-rule="evenodd" d="M32.0547 38.4889C32.4182 38.4584 32.7539 38.4992 33.0491 38.5997C33.8016 39.0103 34.2714 39.6125 34.2939 40.2722C34.2947 40.3027 34.2943 40.3341 34.2939 40.3651C34.2915 40.4508 34.2816 40.5369 34.2636 40.624C34.0021 41.889 32.1715 42.7945 30.1757 42.6464C29.9769 42.6316 29.7843 42.6065 29.5982 42.5728C29.2518 42.1901 29.0833 41.6601 29.169 41.0566C29.3535 39.757 30.6459 38.6074 32.0547 38.4889Z" fill="#C18B21"/>
<path fill-rule="evenodd" clip-rule="evenodd" d="M31.1225 39.5617C32.5416 39.6672 33.6622 40.2766 34.0975 41.0744C33.5475 42.0962 31.9251 42.7765 30.1753 42.6468C28.757 42.5418 27.6364 41.9319 27.2007 41.1336C27.7508 40.1119 29.3731 39.432 31.1225 39.5617Z" fill="#EFD0D0"/>
<path d="M21.4239 8.91334L5.58105 18.9023L5.63527 19.0054L21.4781 9.0164L21.4239 8.91334Z" fill="#7E7E7E"/>
<path d="M21.3914 9.02287L5.55762 19.0259L5.6328 19.1685L21.4665 9.16549L21.3914 9.02287Z" fill="#E3E3E3"/>
<path d="M21.4239 16.5852L5.58105 26.5742L5.63526 26.6773L21.4781 16.6883L21.4239 16.5852Z" fill="#7E7E7E"/>
<path d="M21.3967 16.7079L5.56299 26.7129L5.63819 26.8555L21.4719 16.8505L21.3967 16.7079Z" fill="#E3E3E3"/>
<path fill-rule="evenodd" clip-rule="evenodd" d="M5.61467 27.2818C6.31231 26.7868 7.06528 26.3184 7.99943 25.8203C8.47039 25.569 10.922 24.5261 11.1966 24.1837C12.723 22.2829 13.5338 23.2005 15.3488 22.0473C15.9186 21.6852 15.8173 21.4568 16.1379 20.82C16.799 19.5075 19.8367 20.0275 21.0377 18.2743C21.1382 18.128 21.2808 17.9889 21.4566 17.8579L21.4591 40.9628L5.61426 50.9584L5.61467 27.2818Z" fill="white"/>
<path fill-rule="evenodd" clip-rule="evenodd" d="M5.61467 27.6455C6.31231 27.1506 7.06528 26.6821 7.99943 26.184C8.47039 25.9327 10.922 24.8899 11.1966 24.5475C12.7226 22.6466 13.5338 23.5643 15.3488 22.4111C15.9186 22.0489 15.8173 21.8201 16.1379 21.1838C16.799 19.8712 19.8367 20.3913 21.0377 18.6381C21.1382 18.4914 21.2808 18.3527 21.4566 18.2217L21.4591 40.9627L5.61426 50.9582L5.61467 27.6455Z" fill="#EFD0D0"/>
<path fill-rule="evenodd" clip-rule="evenodd" d="M7.29132 29.6676V29.5446L6.53467 29.0703L6.53671 29.1897L7.29132 29.6676Z" fill="#AFAFAF"/>
<path fill-rule="evenodd" clip-rule="evenodd" d="M23.1312 19.5522L7.29091 29.5447L6.53467 29.0699L22.3528 19.0757L23.1312 19.5522Z" fill="white"/>
<path fill-rule="evenodd" clip-rule="evenodd" d="M7.94571 30.2717V29.818L7.18945 29.4209L7.1915 29.6686L7.94571 30.2717Z" fill="#345B88"/>
<path fill-rule="evenodd" clip-rule="evenodd" d="M23.7861 19.8262L7.9458 29.8186V30.2714L23.7906 20.2758L23.7861 19.8262Z" fill="#487AB1"/>
<path fill-rule="evenodd" clip-rule="evenodd" d="M23.786 19.8261L7.94571 29.8181L7.18945 29.4209L23.0076 19.4263L23.786 19.8261Z" fill="#639DD7"/>
<path fill-rule="evenodd" clip-rule="evenodd" d="M22.2528 47.3304C21.806 47.6755 22.0778 48.712 22.5487 48.8861C23.6182 49.2819 24.4236 49.7737 25.1294 50.0246C25.3795 50.1134 25.9746 50.1951 26.2263 49.6876C26.289 49.4919 25.8963 48.7713 25.8963 48.7713C24.6392 48.9202 22.809 46.9947 22.2528 47.3304Z" fill="#9B9B9A"/>
<path fill-rule="evenodd" clip-rule="evenodd" d="M23.7176 47.4132C23.1647 47.5662 22.6941 47.1408 22.5093 47.1731C22.3617 47.1969 22.1576 47.3634 22.115 47.6156C22.0432 48.037 22.256 48.4601 22.5999 48.6477C22.9688 48.8492 23.3897 48.7567 24.0148 49.0327C24.3587 49.1844 25.1994 49.7206 25.5163 49.7256C25.8343 49.7309 26.1041 49.5039 26.1352 49.2454C26.1118 47.6829 24.7776 47.1202 23.7176 47.4132Z" fill="#3E3E3D"/>
<path fill-rule="evenodd" clip-rule="evenodd" d="M22.6853 40.8425C22.5948 40.5504 22.2242 39.4214 22.1734 39.0112C21.0568 34.2937 20.8203 32.807 21.1737 29.879C22.0685 29.5483 24.27 30.3964 25.0758 29.5146C26.7376 31.3347 24.5664 38.0648 25.0681 40.3502C24.707 41.0162 23.483 41.6072 22.6853 40.8425Z" fill="#314A8D"/>
<path fill-rule="evenodd" clip-rule="evenodd" d="M26.068 48.7061C25.3048 49.4905 24.5038 49.2329 24.0419 48.1201C24.0239 46.348 23.1885 42.9488 22.6327 40.6706C22.3072 39.2638 24.3706 38.5292 25.0863 40.3498C25.9713 42.3736 25.9803 47.8854 26.068 48.7061Z" fill="#314A8D"/>
<path fill-rule="evenodd" clip-rule="evenodd" d="M17.765 49.1502C17.3182 49.4953 17.59 50.5319 18.0609 50.706C19.1303 51.1018 19.9358 51.5936 20.6416 51.8444C20.8917 51.9333 21.4868 52.0149 21.7385 51.5074C21.8008 51.3118 21.4085 50.5911 21.4085 50.5911C20.1518 50.7401 18.3212 48.8145 17.765 49.1502Z" fill="#9B9B9A"/>
<path fill-rule="evenodd" clip-rule="evenodd" d="M19.2303 49.2331C18.6741 49.3731 18.2068 48.9607 18.022 48.993C17.8744 49.0168 17.6703 49.1833 17.6277 49.435C17.5559 49.8564 17.7687 50.2795 18.1126 50.4671C18.4815 50.6682 18.9024 50.5762 19.5275 50.8517C19.871 51.0034 20.7121 51.5396 21.029 51.5445C21.347 51.5499 21.6167 51.3229 21.6479 51.0644C21.6245 49.5028 20.4637 48.9226 19.2303 49.2331Z" fill="#3E3E3D"/>
<path fill-rule="evenodd" clip-rule="evenodd" d="M19.3053 42.0206C19.25 41.7213 19.1135 41.0424 19.1123 40.6318C18.5675 35.842 18.7085 33.2322 19.4152 30.3854C20.3489 30.1669 23.021 31.0428 23.9322 30.2705C25.8206 32.8898 21.4622 38.477 21.9184 41.8263C21.4774 42.4398 20.0095 42.8714 19.3053 42.0206Z" fill="#4165BD"/>
<path fill-rule="evenodd" clip-rule="evenodd" d="M21.5526 50.2489C20.6795 50.9364 20.0241 50.4423 19.7367 49.2801C19.9884 47.5166 19.4605 44.0528 19.258 41.7216C19.1506 40.2843 21.4874 39.9307 21.917 41.8266C22.1555 43.5965 21.5911 49.4224 21.5526 50.2489Z" fill="#4165BD"/>
<path fill-rule="evenodd" clip-rule="evenodd" d="M24.4093 18.1989C24.0994 16.8285 21.3896 16.8195 21.3446 19.7789C21.3499 19.8463 20.8121 24.3973 21.0527 26.676C21.3257 27.3388 22.5386 27.5833 22.9354 26.4673C23.433 25.0677 25.8485 24.5629 24.4093 18.1989Z" fill="#CB6117"/>
<path fill-rule="evenodd" clip-rule="evenodd" d="M19.6568 19.3072C19.5166 19.3866 18.7058 20.0624 18.2271 21.142C17.8778 21.9368 18.1963 23.4602 18.2545 23.6576C18.439 24.2944 18.9075 27.5298 19.317 30.4811C19.7834 31.3813 23.9184 30.2294 24.9604 28.7705C24.7239 27.4697 24.8649 24.521 24.8526 23.7667C24.839 23.0106 24.6661 18.8979 23.5385 17.7689C23.279 17.5086 22.5359 17.3453 22.2325 17.4561C21.1484 17.8483 19.831 19.2089 19.6568 19.3072Z" fill="#CB6117"/>
<path fill-rule="evenodd" clip-rule="evenodd" d="M18.8384 20.1267C19.7041 19.5721 21.7449 21.3069 23.1336 24.597C23.5366 24.6486 23.5485 24.1819 23.9034 23.9822C22.7406 21.2633 20.8821 18.7899 19.6569 19.3073C19.1888 19.6452 19.1552 19.6264 18.8384 20.1267Z" fill="#4165BD"/>
<path fill-rule="evenodd" clip-rule="evenodd" d="M22.1626 17.4819C23.1095 17.2302 23.2996 18.5948 23.4665 19.4904C23.7403 20.965 23.6722 22.7106 23.5169 24.2632C23.8649 24.3273 23.8579 23.8185 24.258 23.608C24.5244 22.1972 24.3104 20.8286 24.2133 19.5241C24.1116 18.1626 23.6276 17.3338 22.9061 17.3087C22.7438 17.3038 22.1626 17.4819 22.1626 17.4819Z" fill="#4165BD"/>
<path fill-rule="evenodd" clip-rule="evenodd" d="M22.9541 30.3019C23.2349 28.5702 23.5329 26.5532 23.1095 24.4746C23.4964 24.1479 23.8833 23.8208 24.2703 23.4941C24.606 24.7515 24.9261 27.0077 24.9605 28.7704C24.4867 29.7908 23.7948 30.2413 22.9541 30.3019Z" fill="#314A8D"/>
<path fill-rule="evenodd" clip-rule="evenodd" d="M19.3198 31.0308C20.2842 31.6222 24.3 31.4297 25.0755 29.515C25.0259 29.3242 25.0099 28.9612 24.9603 28.7705C23.9093 30.0418 20.8614 31.0196 19.3169 30.4811C19.3177 30.6642 19.3185 30.8472 19.3198 31.0308Z" fill="#314A8D"/>
<path fill-rule="evenodd" clip-rule="evenodd" d="M18.8512 20.5696C22.6333 19.8189 19.4677 28.2636 18.8447 29.4541C18.3405 30.2641 17.2686 29.4721 17.4014 28.2829C17.7453 25.8597 17.3887 20.8595 18.8512 20.5696Z" fill="#DE7E32"/>
<path fill-rule="evenodd" clip-rule="evenodd" d="M12.7259 26.3196C12.5258 26.2985 12.2971 26.2931 12.1725 26.3367C11.9401 26.4183 11.7893 26.4901 11.54 26.5251C11.6159 26.732 11.7827 26.8406 12.2266 26.7289C12.8312 26.7037 12.8267 27.0264 13.1849 26.7562C13.3059 26.6651 13.4846 26.6364 13.3481 26.5395C13.0874 26.3609 13.005 26.3488 12.7259 26.3196Z" fill="#D99E72"/>
<path fill-rule="evenodd" clip-rule="evenodd" d="M13.0444 28.3427C12.8816 28.4693 12.8226 28.4859 12.7734 28.493C12.7103 28.5029 12.6062 28.4872 12.6058 28.4096C12.4836 28.4634 12.2824 28.3925 12.2742 28.2974C12.1619 28.3162 12.0131 28.3611 11.9114 28.1614C11.879 28.0973 11.7856 27.959 11.8048 27.9384C12.2385 27.7881 12.7812 28.0645 13.0444 28.3427Z" fill="#D99E72"/>
<path fill-rule="evenodd" clip-rule="evenodd" d="M13.4295 26.5434C13.1602 26.3746 12.8987 26.3563 12.7011 26.4604C11.9358 26.8306 11.8748 27.5248 11.7965 27.7043C11.7309 27.9026 11.6612 27.938 11.8711 27.9928C12.0428 28.2836 12.1514 28.2208 12.3736 28.1422C12.3896 28.2558 12.6331 28.3805 12.8224 28.2679C12.945 28.3949 13.0302 28.3823 13.1639 28.2562C13.5119 27.8864 13.5127 27.8353 13.657 27.5261C14.4628 27.4727 14.7051 26.6892 13.4295 26.5434Z" fill="#ECC19A"/>
<path fill-rule="evenodd" clip-rule="evenodd" d="M12.0935 27.911L11.7718 28.6577C11.6738 28.8848 11.4328 28.7412 11.5148 28.5065L11.7791 27.749C11.8611 27.5143 12.1919 27.684 12.0935 27.911Z" fill="#ECC19A"/>
<path fill-rule="evenodd" clip-rule="evenodd" d="M18.5817 29.7453C17.7443 30.1326 14.75 28.5211 13.7933 27.7421C13.5822 27.24 13.7716 26.5153 14.1958 26.6742C14.6541 26.7576 17.6147 27.4074 18.8809 27.8166C19.6908 28.3094 19.0842 29.0906 18.5817 29.7453Z" fill="#DE7E32"/>
<path d="M9.57541 16.4795H9.4668V24.1461H9.57541V16.4795Z" fill="#7E7E7E"/>
<path d="M9.72535 16.4795V23.9581L9.56836 24.0604V16.4795H9.72535Z" fill="#E3E3E3"/>
<path d="M17.8396 11.2793H17.731V18.9464H17.8396V11.2793Z" fill="#7E7E7E"/>
<path d="M17.989 11.2793V18.7584L17.832 18.8607V11.2793H17.989Z" fill="#E3E3E3"/>
<path fill-rule="evenodd" clip-rule="evenodd" d="M17.4961 15.6805L17.9388 16.6852L18.77 16.2181L18.2864 15.1914L17.4961 15.6805Z" fill="#C4C4C4"/>
<path d="M18.1409 16.474L18.6627 16.1806C18.5262 15.8907 18.3897 15.6012 18.2532 15.3114C18.2159 15.3293 18.1782 15.3468 18.1405 15.3648V15.1619C18.1999 15.131 18.2594 15.1014 18.3188 15.0713C18.5045 15.4662 18.6906 15.8606 18.8762 16.2555L18.1401 16.6692V16.474H18.1409ZM17.6191 15.7597C17.7113 16.0644 17.8224 16.3439 17.9749 16.5674L18.1409 16.474V16.6692L17.9396 16.7823C17.772 16.5167 17.5662 16.1106 17.4121 15.6888C17.6757 15.4209 17.9105 15.2817 18.1413 15.1624V15.3652C17.9892 15.4384 17.8302 15.5304 17.6191 15.7597Z" fill="#222221"/>
<path fill-rule="evenodd" clip-rule="evenodd" d="M18.3134 16.8416C18.1208 17.0399 18.1556 17.2755 18.19 17.3985C18.5466 18.6706 19.4742 19.3935 19.5263 18.0325C19.5488 17.4492 19.7935 16.886 19.225 16.6406C18.795 16.4548 18.3614 16.8286 18.3134 16.8416Z" fill="#4D4D4D"/>
<path fill-rule="evenodd" clip-rule="evenodd" d="M17.8908 14.249C17.8486 14.5596 17.7867 14.875 17.7851 15.1882C17.7842 15.4072 17.7769 15.4741 17.8875 15.6433C18.0564 15.904 18.1363 15.9484 17.9859 16.2244C17.8392 16.4932 18.2232 17.1685 18.3786 17.4858C18.5016 17.7361 18.5995 18.0395 18.8508 18.1481C19.4759 18.42 20.0452 18.0399 20.5555 17.698C21.0617 17.3619 21.841 15.5939 21.9143 15.0576C21.8414 14.0099 21.4323 13.1828 19.7603 12.9203C19.0344 12.8072 17.9966 13.4714 17.8908 14.249Z" fill="#ECC19A"/>
<path fill-rule="evenodd" clip-rule="evenodd" d="M19.114 16.9335C19.114 16.9335 19.2709 18.1819 19.7579 19.2315C20.5842 18.8119 21.7733 19.1534 22.4169 18.1586C22.2025 17.8628 21.5901 17.0318 21.4385 15.6075C21.3909 15.1601 18.9336 15.6645 19.114 16.9335Z" fill="#D99E72"/>
<path fill-rule="evenodd" clip-rule="evenodd" d="M18.4767 15.6664C18.5398 15.7808 18.753 15.9244 18.5107 16.2672C18.1598 16.7371 18.7898 17.5843 18.9751 17.0911C19.0637 16.856 18.8497 16.0976 18.9227 16.0119C19.1424 15.7543 19.5473 16.3947 19.94 16.9022C20.5553 17.6978 21.6292 17.0476 21.696 16.9641C22.046 16.5248 22.3272 16.0119 22.2235 15.3204C22.1026 14.5172 22.1834 13.5762 21.5333 13.0103C20.4134 12.0348 18.4386 12.0204 17.529 13.8741C17.0601 14.829 18.1111 15.0076 18.4767 15.6664Z" fill="#4D4D4D"/>
<path fill-rule="evenodd" clip-rule="evenodd" d="M19.3328 15.9001L17.4551 15.6802L17.5908 15.988L19.3607 16.1271L19.6312 16.7405L19.9866 16.767L19.3328 15.9001Z" fill="#363636"/>
<path fill-rule="evenodd" clip-rule="evenodd" d="M19.5316 16.2505C19.555 16.6239 19.4242 17.1834 19.2771 17.1857C18.891 17.13 19.0143 16.8281 18.9902 16.4552C18.968 16.0823 18.8401 15.8808 18.9733 15.8166C19.2246 15.6981 19.5078 15.8763 19.5316 16.2505Z" fill="#ECC19A"/>
<path d="M13.6247 6.18408L13.6386 13.9086H13.5259V6.24152L13.6247 6.18408Z" fill="#7E7E7E"/>
<path d="M13.7859 6.08789V13.7204L13.6289 13.8227V6.18302L13.7859 6.08789Z" fill="#E3E3E3"/>
<path fill-rule="evenodd" clip-rule="evenodd" d="M15.7577 51.3129C15.6024 51.3936 15.4491 51.4722 15.2982 51.5516V51.2047L15.3117 51.2052C15.4741 51.2056 15.5999 51.1298 15.5925 51.0356C15.5851 50.9436 15.4544 50.8686 15.2982 50.8641V50.6263C15.5794 50.677 15.877 50.8727 15.9163 51.0611V51.1419C15.9024 51.2038 15.8532 51.2635 15.7577 51.3129ZM15.2982 51.5516C14.503 51.9685 13.7738 52.3827 13.1397 52.9633L12.3716 52.4926C13.3115 52.0358 14.105 51.3833 14.8953 50.6995C14.9941 50.6137 15.1433 50.598 15.2982 50.6259V50.8637H15.2843C15.122 50.8632 14.9965 50.9391 15.0039 51.0338C15.0113 51.1258 15.1416 51.2007 15.2982 51.2052V51.5516Z" fill="#C18B21"/>
<path fill-rule="evenodd" clip-rule="evenodd" d="M11.228 52.2527V52.1329C11.8166 51.7932 12.4696 51.6649 13.0365 52.0293L13.5685 52.3618C14.3707 52.872 14.1629 53.3656 13.5771 53.7578L11.228 52.2527Z" fill="#C18B21"/>
<path fill-rule="evenodd" clip-rule="evenodd" d="M11.2977 52.2856L13.5173 53.6435L13.5201 53.6956L12.4733 54.6644L9.91553 53.0947L11.2977 52.2856Z" fill="#666666"/>
<path fill-rule="evenodd" clip-rule="evenodd" d="M11.2947 52.2334L13.5171 53.6433L12.4698 54.6121L9.91211 53.0425L11.2947 52.2334Z" fill="url(#paint0_linear_455_4861)"/>
<path fill-rule="evenodd" clip-rule="evenodd" d="M11.228 52.1181C11.8478 51.7483 12.4417 51.5119 13.0369 51.8942L13.5689 52.2267C14.3572 52.7499 14.1633 53.2305 13.5775 53.6227L11.228 52.1181Z" fill="#EDC52E"/>
<path fill-rule="evenodd" clip-rule="evenodd" d="M15.7514 51.2054C15.596 51.2861 15.4427 51.3647 15.2919 51.4441V51.0972L15.3054 51.0977C15.4677 51.0981 15.5936 51.0223 15.5862 50.928C15.5788 50.8361 15.4485 50.7611 15.2919 50.7562V50.5184C15.5731 50.5691 15.8711 50.7647 15.9104 50.9532V51.0339C15.8961 51.0963 15.8469 51.156 15.7514 51.2054ZM15.2919 51.4441C14.4967 51.861 13.7675 52.2751 13.1334 52.8558L12.3652 52.3851C13.3051 51.9287 14.0987 51.2758 14.889 50.5919C14.9877 50.5067 15.1369 50.4905 15.2919 50.5184V50.7562H15.2783C15.116 50.7557 14.9902 50.8316 14.998 50.9263C15.0054 51.0182 15.1357 51.0932 15.2923 51.0977V51.4441H15.2919Z" fill="#EDC52E"/>
<defs>
<linearGradient id="paint0_linear_455_4861" x1="13.0371" y1="55.2643" x2="10.131" y2="51.7417" gradientUnits="userSpaceOnUse">
<stop stop-color="#848484"/>
<stop offset="1" stop-color="white"/>
</linearGradient>
</defs>
</svg>
