<svg width="48" height="55" viewBox="0 0 48 55" fill="none" xmlns="http://www.w3.org/2000/svg">
<path opacity="0.1" d="M26.6553 28.1514L0 44.9991L13.0953 50.6777L35.2225 36.6918V33.83L26.6553 28.1514Z" fill="black"/>
<path d="M41.6924 30.5796L44.2825 28.9424V30.7839L41.6924 32.4207V30.5796Z" fill="#C75123"/>
<path d="M41.5335 27.2046L44.2827 28.9423L41.6926 30.5795L38.9434 28.8418L41.5335 27.2046Z" fill="#E46F29"/>
<path d="M41.6926 30.5795V32.421L38.9434 30.6829V28.8418L41.6926 30.5795Z" fill="#9E3B16"/>
<path d="M35.9397 34.2152V36.0563L33.1904 34.3186V32.4775L35.9397 34.2152Z" fill="#9E3B16"/>
<path d="M41.4094 30.7578V32.5994L35.9395 36.0564V34.2153L41.4094 30.7578Z" fill="#C75123"/>
<path d="M38.66 29.0205L41.4096 30.7582L35.9397 34.2157L33.1904 32.478L38.66 29.0205Z" fill="#E46F29"/>
<path d="M30.1926 37.848V39.6896L27.4434 37.9519V36.1104L30.1926 37.848Z" fill="#9E3B16"/>
<path d="M35.6624 34.3911V36.2327L30.1924 39.6897V37.8481L35.6624 34.3911Z" fill="#C75123"/>
<path d="M32.9129 32.6533L35.6626 34.391L30.1926 37.848L27.4434 36.1103L32.9129 32.6533Z" fill="#E46F29"/>
<path d="M24.4455 41.4804V43.3219L21.6963 41.5838V39.7427L24.4455 41.4804Z" fill="#9E3B16"/>
<path d="M29.9153 38.0229V39.8645L24.4453 43.322V41.4805L29.9153 38.0229Z" fill="#C75123"/>
<path d="M27.1658 36.2852L29.9155 38.0228L24.4455 41.4803L21.6963 39.7427L27.1658 36.2852Z" fill="#E46F29"/>
<path d="M18.6984 45.1127V46.9542L15.9492 45.2166V43.375L18.6984 45.1127Z" fill="#9E3B16"/>
<path d="M24.1682 41.6558V43.4973L18.6982 46.9544V45.1128L24.1682 41.6558Z" fill="#C75123"/>
<path d="M21.4192 39.918L24.1684 41.6556L18.6984 45.1127L15.9492 43.375L21.4192 39.918Z" fill="#E46F29"/>
<path d="M12.9514 48.7455V50.5871L10.2021 48.8489V47.0078L12.9514 48.7455Z" fill="#9E3B16"/>
<path d="M18.4212 45.2886V47.1297L12.9512 50.5872V48.7456L18.4212 45.2886Z" fill="#C75123"/>
<path d="M15.6721 43.5503L18.4214 45.2885L12.9514 48.7455L10.2021 47.0078L15.6721 43.5503Z" fill="#E46F29"/>
<path d="M41.5335 25.2642L44.2827 27.0018L38.8132 30.4589L36.064 28.7212L41.5335 25.2642Z" fill="#E46F29"/>
<path d="M44.2825 27.002V28.843L38.813 32.3005V30.459L44.2825 27.002Z" fill="#C75123"/>
<path d="M38.8132 30.4589V32.3004L36.064 30.5628V28.7212L38.8132 30.4589Z" fill="#9E3B16"/>
<path d="M35.7864 28.8965L38.5361 30.6342L33.0661 34.0917L30.3169 32.354L35.7864 28.8965Z" fill="#E46F29"/>
<path d="M38.5359 30.6343V32.4758L33.0659 35.9329V34.0918L38.5359 30.6343Z" fill="#C75123"/>
<path d="M33.0661 34.0917V35.9327L30.3169 34.1951V32.354L33.0661 34.0917Z" fill="#9E3B16"/>
<path d="M30.0394 32.5288L32.789 34.2665L27.3191 37.7235L24.5698 35.9858L30.0394 32.5288Z" fill="#E46F29"/>
<path d="M32.7888 34.2666V36.1077L27.3188 39.5652V37.7236L32.7888 34.2666Z" fill="#C75123"/>
<path d="M27.3191 37.7235V39.5651L24.5698 37.8274V35.9858L27.3191 37.7235Z" fill="#9E3B16"/>
<path d="M24.2923 36.1611L27.042 37.8988L21.572 41.3563L18.8228 39.6187L24.2923 36.1611Z" fill="#E46F29"/>
<path d="M27.0418 37.8989V39.7405L21.5718 43.1975V41.3565L27.0418 37.8989Z" fill="#C75123"/>
<path d="M21.572 41.3563V43.1974L18.8228 41.4597V39.6187L21.572 41.3563Z" fill="#9E3B16"/>
<path d="M18.5457 39.7939L21.2949 41.5316L15.8249 44.9886L13.0757 43.251L18.5457 39.7939Z" fill="#E46F29"/>
<path d="M21.2947 41.5317V43.3733L15.8247 46.8303V44.9888L21.2947 41.5317Z" fill="#C75123"/>
<path d="M15.8249 44.9886V46.8302L13.0757 45.0925V43.251L15.8249 44.9886Z" fill="#9E3B16"/>
<path d="M12.9512 46.8081L15.5413 45.1709V47.0125L12.9512 48.6492V46.8081Z" fill="#C75123"/>
<path d="M12.7923 43.4331L15.5415 45.1708L12.9514 46.808L10.2021 45.0698L12.7923 43.4331Z" fill="#E46F29"/>
<path d="M12.9514 46.808V48.6491L10.2021 46.9114V45.0698L12.9514 46.808Z" fill="#9E3B16"/>
<path d="M41.6924 26.7076L44.2825 25.0703V26.9119L41.6924 28.5491V26.7076Z" fill="#C75123"/>
<path d="M41.5335 23.3325L44.2827 25.0702L41.6926 26.7074L38.9434 24.9698L41.5335 23.3325Z" fill="#E46F29"/>
<path d="M41.6926 26.7074V28.549L38.9434 26.8113V24.9697L41.6926 26.7074Z" fill="#9E3B16"/>
<path d="M35.9397 30.347V32.1886L33.1904 30.4509V28.6094L35.9397 30.347Z" fill="#9E3B16"/>
<path d="M41.4094 26.8901V28.7312L35.9395 32.1887V30.3472L41.4094 26.8901Z" fill="#C75123"/>
<path d="M38.66 25.1523L41.4096 26.89L35.9397 30.347L33.1904 28.6094L38.66 25.1523Z" fill="#E46F29"/>
<path d="M30.1926 33.9799V35.8209L27.4434 34.0833V32.2417L30.1926 33.9799Z" fill="#9E3B16"/>
<path d="M35.6624 30.5225V32.364L30.1924 35.8211V33.98L35.6624 30.5225Z" fill="#C75123"/>
<path d="M32.9129 28.7847L35.6626 30.5223L30.1926 33.9799L27.4434 32.2417L32.9129 28.7847Z" fill="#E46F29"/>
<path d="M24.4455 37.6112V39.4528L21.6963 37.7151V35.8735L24.4455 37.6112Z" fill="#9E3B16"/>
<path d="M29.9153 34.1543V35.9959L24.4453 39.4529V37.6113L29.9153 34.1543Z" fill="#C75123"/>
<path d="M27.1658 32.417L29.9155 34.1547L24.4455 37.6117L21.6963 35.874L27.1658 32.417Z" fill="#E46F29"/>
<path d="M18.6984 41.2445V43.0856L15.9492 41.3479V39.5068L18.6984 41.2445Z" fill="#9E3B16"/>
<path d="M24.1682 37.7871V39.6287L18.6982 43.0857V41.2446L24.1682 37.7871Z" fill="#C75123"/>
<path d="M21.4192 36.0493L24.1684 37.787L18.6984 41.2445L15.9492 39.5068L21.4192 36.0493Z" fill="#E46F29"/>
<path d="M12.9514 44.8768V46.7184L10.2021 44.9807V43.1392L12.9514 44.8768Z" fill="#9E3B16"/>
<path d="M18.4212 41.4199V43.2615L12.9512 46.7185V44.8769L18.4212 41.4199Z" fill="#C75123"/>
<path d="M15.6721 39.6821L18.4214 41.4198L12.9514 44.8768L10.2021 43.1392L15.6721 39.6821Z" fill="#E46F29"/>
<path d="M41.5335 21.4009L44.2827 23.1385L38.8132 26.5961L36.064 24.8584L41.5335 21.4009Z" fill="#E46F29"/>
<path d="M44.2825 23.1387V24.9803L38.813 28.4373V26.5962L44.2825 23.1387Z" fill="#C75123"/>
<path d="M38.8132 26.5961V28.4371L36.064 26.6995V24.8584L38.8132 26.5961Z" fill="#9E3B16"/>
<path d="M35.7864 25.0337L38.5361 26.7714L33.0661 30.2284L30.3169 28.4907L35.7864 25.0337Z" fill="#E46F29"/>
<path d="M38.5359 26.7715V28.613L33.0659 32.0701V30.2285L38.5359 26.7715Z" fill="#C75123"/>
<path d="M33.0661 30.2284V32.07L30.3169 30.3323V28.4907L33.0661 30.2284Z" fill="#9E3B16"/>
<path d="M30.0394 28.6655L32.789 30.4032L27.3191 33.8607L24.5698 32.123L30.0394 28.6655Z" fill="#E46F29"/>
<path d="M32.7888 30.4033V32.2449L27.3188 35.7024V33.8608L32.7888 30.4033Z" fill="#C75123"/>
<path d="M27.3191 33.8602V35.7018L24.5698 33.9636V32.1226L27.3191 33.8602Z" fill="#9E3B16"/>
<path d="M24.2923 32.2983L27.042 34.036L21.572 37.4935L18.8228 35.7554L24.2923 32.2983Z" fill="#E46F29"/>
<path d="M27.0418 34.0361V35.8777L21.5718 39.3347V37.4937L27.0418 34.0361Z" fill="#C75123"/>
<path d="M21.572 37.493V39.3341L18.8228 37.5965V35.7549L21.572 37.493Z" fill="#9E3B16"/>
<path d="M18.5457 35.9307L21.2949 37.6688L15.8249 41.1259L13.0757 39.3882L18.5457 35.9307Z" fill="#E46F29"/>
<path d="M21.2947 37.6689V39.51L15.8247 42.9676V41.126L21.2947 37.6689Z" fill="#C75123"/>
<path d="M15.8249 41.1258V42.9674L13.0757 41.2297V39.3882L15.8249 41.1258Z" fill="#9E3B16"/>
<path d="M12.9512 42.9448L15.5413 41.3076V43.1492L12.9512 44.7864V42.9448Z" fill="#C75123"/>
<path d="M12.7923 39.5698L15.5415 41.3075L12.9514 42.9447L10.2021 41.207L12.7923 39.5698Z" fill="#E46F29"/>
<path d="M12.9514 42.9447V44.7863L10.2021 43.0486V41.207L12.9514 42.9447Z" fill="#9E3B16"/>
<path d="M41.6924 22.836L44.2825 21.1987V23.0403L41.6924 24.677V22.836Z" fill="#C75123"/>
<path d="M41.5335 19.4609L44.2827 21.1986L41.6926 22.8358L38.9434 21.0982L41.5335 19.4609Z" fill="#E46F29"/>
<path d="M41.6926 22.8358V24.6769L38.9434 22.9392V21.0981L41.6926 22.8358Z" fill="#9E3B16"/>
<path d="M35.9397 26.4862V28.3273L33.1904 26.5896V24.7485L35.9397 26.4862Z" fill="#9E3B16"/>
<path d="M41.4094 23.0288V24.8704L35.9395 28.3274V26.4863L41.4094 23.0288Z" fill="#C75123"/>
<path d="M38.66 21.291L41.4096 23.0287L35.9397 26.4862L33.1904 24.7485L38.66 21.291Z" fill="#E46F29"/>
<path d="M30.1926 30.1185V31.9601L27.4434 30.2224V28.3809L30.1926 30.1185Z" fill="#9E3B16"/>
<path d="M35.6624 26.6616V28.5032L30.1924 31.9602V30.1186L35.6624 26.6616Z" fill="#C75123"/>
<path d="M32.9129 24.9238L35.6626 26.6615L30.1926 30.1185L27.4434 28.3809L32.9129 24.9238Z" fill="#E46F29"/>
<path d="M24.4455 33.7508V35.5919L21.6963 33.8543V32.0132L24.4455 33.7508Z" fill="#9E3B16"/>
<path d="M29.9153 30.2935V32.135L24.4453 35.5921V33.751L29.9153 30.2935Z" fill="#C75123"/>
<path d="M27.1658 28.5557L29.9155 30.2933L24.4455 33.7509L21.6963 32.0132L27.1658 28.5557Z" fill="#E46F29"/>
<path d="M18.6984 37.3832V39.2247L15.9492 37.4871V35.6455L18.6984 37.3832Z" fill="#9E3B16"/>
<path d="M24.1682 33.9263V35.7678L18.6982 39.2249V37.3833L24.1682 33.9263Z" fill="#C75123"/>
<path d="M21.4192 32.1885L24.1684 33.9261L18.6984 37.3832L15.9492 35.6455L21.4192 32.1885Z" fill="#E46F29"/>
<path d="M12.9514 41.0155V42.8571L10.2021 41.1189V39.2778L12.9514 41.0155Z" fill="#9E3B16"/>
<path d="M18.4212 37.5586V39.4002L12.9512 42.8577V41.0161L18.4212 37.5586Z" fill="#C75123"/>
<path d="M15.6721 35.8208L18.4214 37.5585L12.9514 41.016L10.2021 39.2783L15.6721 35.8208Z" fill="#E46F29"/>
<path d="M41.5335 17.5342L44.2827 19.2723L38.8132 22.7294L36.064 20.9917L41.5335 17.5342Z" fill="#E46F29"/>
<path d="M44.2825 19.2725V21.1135L38.813 24.5711V22.7295L44.2825 19.2725Z" fill="#C75123"/>
<path d="M38.8132 22.7294V24.5709L36.064 22.8333V20.9917L38.8132 22.7294Z" fill="#9E3B16"/>
<path d="M35.7864 21.167L38.5361 22.9047L33.0661 26.3622L30.3169 24.624L35.7864 21.167Z" fill="#E46F29"/>
<path d="M38.5359 22.9048V24.7463L33.0659 28.2034V26.3623L38.5359 22.9048Z" fill="#C75123"/>
<path d="M33.0661 26.3622V28.2033L30.3169 26.4656V24.624L33.0661 26.3622Z" fill="#9E3B16"/>
<path d="M30.0394 24.7993L32.789 26.537L27.3191 29.994L24.5698 28.2563L30.0394 24.7993Z" fill="#E46F29"/>
<path d="M32.7888 26.5371V28.3782L27.3188 31.8357V29.9941L32.7888 26.5371Z" fill="#C75123"/>
<path d="M27.3191 29.994V31.8356L24.5698 30.0979V28.2563L27.3191 29.994Z" fill="#9E3B16"/>
<path d="M24.2923 28.4316L27.042 30.1693L21.572 33.6268L18.8228 31.8892L24.2923 28.4316Z" fill="#E46F29"/>
<path d="M27.0418 30.1694V32.011L21.5718 35.468V33.627L27.0418 30.1694Z" fill="#C75123"/>
<path d="M21.572 33.6263V35.4674L18.8228 33.7298V31.8887L21.572 33.6263Z" fill="#9E3B16"/>
<path d="M18.5457 32.0645L21.2949 33.8021L15.8249 37.2591L13.0757 35.5215L18.5457 32.0645Z" fill="#E46F29"/>
<path d="M21.2947 33.8022V35.6433L15.8247 39.1009V37.2593L21.2947 33.8022Z" fill="#C75123"/>
<path d="M15.8249 37.2587V39.1002L13.0757 37.3626V35.521L15.8249 37.2587Z" fill="#9E3B16"/>
<path d="M12.9512 39.0786L15.5413 37.4414V39.283L12.9512 40.9197V39.0786Z" fill="#C75123"/>
<path d="M12.7923 35.7036L15.5415 37.4413L12.9514 39.0785L10.2021 37.3403L12.7923 35.7036Z" fill="#E46F29"/>
<path d="M12.9514 39.079V40.9201L10.2021 39.1824V37.3408L12.9514 39.079Z" fill="#9E3B16"/>
<path d="M41.6924 18.9634L44.2825 17.3262V19.1678L41.6924 20.805V18.9634Z" fill="#C75123"/>
<path d="M41.5335 15.5884L44.2827 17.326L41.6926 18.9633L38.9434 17.2256L41.5335 15.5884Z" fill="#E46F29"/>
<path d="M41.6926 18.9633V20.8048L38.9434 19.0671V17.2256L41.6926 18.9633Z" fill="#9E3B16"/>
<path d="M35.9397 22.6175V24.4591L33.1904 22.7215V20.8799L35.9397 22.6175Z" fill="#9E3B16"/>
<path d="M41.4094 19.1606V21.0017L35.9395 24.4593V22.6177L41.4094 19.1606Z" fill="#C75123"/>
<path d="M38.66 17.4229L41.4096 19.1605L35.9397 22.6175L33.1904 20.8799L38.66 17.4229Z" fill="#E46F29"/>
<path d="M30.1926 26.2504V28.0914L27.4434 26.3538V24.5127L30.1926 26.2504Z" fill="#9E3B16"/>
<path d="M35.6624 22.793V24.6345L30.1924 28.0916V26.2505L35.6624 22.793Z" fill="#C75123"/>
<path d="M32.9129 21.0552L35.6626 22.7928L30.1926 26.2504L27.4434 24.5127L32.9129 21.0552Z" fill="#E46F29"/>
<path d="M24.4455 29.8822V31.7238L21.6963 29.9861V28.1445L24.4455 29.8822Z" fill="#9E3B16"/>
<path d="M29.9153 26.4253V28.2664L24.4453 31.7239V29.8823L29.9153 26.4253Z" fill="#C75123"/>
<path d="M27.1658 24.6875L29.9155 26.4252L24.4455 29.8822L21.6963 28.1445L27.1658 24.6875Z" fill="#E46F29"/>
<path d="M18.6984 33.515V35.3561L15.9492 33.6184V31.7773L18.6984 33.515Z" fill="#9E3B16"/>
<path d="M24.1682 30.0576V31.8992L18.6982 35.3562V33.5151L24.1682 30.0576Z" fill="#C75123"/>
<path d="M21.4192 28.3198L24.1684 30.0575L18.6984 33.515L15.9492 31.7769L21.4192 28.3198Z" fill="#E46F29"/>
<path d="M12.9514 37.1473V38.9889L10.2021 37.2512V35.4097L12.9514 37.1473Z" fill="#9E3B16"/>
<path d="M18.4212 33.6904V35.532L12.9512 38.989V37.1475L18.4212 33.6904Z" fill="#C75123"/>
<path d="M15.6721 31.9526L18.4214 33.6903L12.9514 37.1473L10.2021 35.4097L15.6721 31.9526Z" fill="#E46F29"/>
<path d="M41.5335 13.6714L44.2827 15.4091L38.8132 18.8666L36.064 17.1289L41.5335 13.6714Z" fill="#E46F29"/>
<path d="M44.2825 15.4092V17.2508L38.813 20.7078V18.8667L44.2825 15.4092Z" fill="#C75123"/>
<path d="M38.8132 18.8666V20.7077L36.064 18.97V17.1289L38.8132 18.8666Z" fill="#9E3B16"/>
<path d="M35.7864 17.3042L38.5361 19.0419L33.0661 22.4989L30.3169 20.7612L35.7864 17.3042Z" fill="#E46F29"/>
<path d="M38.5359 19.042V20.8836L33.0659 24.3406V22.499L38.5359 19.042Z" fill="#C75123"/>
<path d="M33.0661 22.4989V24.3405L30.3169 22.6028V20.7612L33.0661 22.4989Z" fill="#9E3B16"/>
<path d="M30.0394 20.936L32.789 22.6737L27.3191 26.1312L24.5698 24.3936L30.0394 20.936Z" fill="#E46F29"/>
<path d="M32.7888 22.6738V24.5154L27.3188 27.9729V26.1314L32.7888 22.6738Z" fill="#C75123"/>
<path d="M27.3191 26.1312V27.9728L24.5698 26.2346V24.3936L27.3191 26.1312Z" fill="#9E3B16"/>
<path d="M24.2923 24.5688L27.042 26.3065L21.572 29.7636L18.8228 28.0259L24.2923 24.5688Z" fill="#E46F29"/>
<path d="M27.0418 26.3066V28.1482L21.5718 31.6052V29.7637L27.0418 26.3066Z" fill="#C75123"/>
<path d="M21.572 29.7636V31.6051L18.8228 29.8675V28.0259L21.572 29.7636Z" fill="#9E3B16"/>
<path d="M18.5457 28.2012L21.2949 29.9393L15.8249 33.3964L13.0757 31.6587L18.5457 28.2012Z" fill="#E46F29"/>
<path d="M21.2947 29.939V31.78L15.8247 35.2376V33.396L21.2947 29.939Z" fill="#C75123"/>
<path d="M15.8249 33.3959V35.2374L13.0757 33.4993V31.6582L15.8249 33.3959Z" fill="#9E3B16"/>
<path d="M12.9512 35.2154L15.5413 33.5786V35.4197L12.9512 37.0569V35.2154Z" fill="#C75123"/>
<path d="M12.7923 31.8403L15.5415 33.5785L12.9514 35.2152L10.2021 33.4776L12.7923 31.8403Z" fill="#E46F29"/>
<path d="M12.9514 35.2152V37.0568L10.2021 35.3191V33.4775L12.9514 35.2152Z" fill="#9E3B16"/>
<path d="M41.6924 15.0923L44.2825 13.4551V15.2962L41.6924 16.9334V15.0923Z" fill="#C75123"/>
<path d="M41.5335 11.7173L44.2827 13.4549L41.6926 15.0922L38.9434 13.3545L41.5335 11.7173Z" fill="#E46F29"/>
<path d="M41.6926 15.0927V16.9337L38.9434 15.1961V13.3545L41.6926 15.0927Z" fill="#9E3B16"/>
<path d="M35.9397 18.7313V20.5729L33.1904 18.8352V16.9937L35.9397 18.7313Z" fill="#9E3B16"/>
<path d="M41.4094 15.2744V17.116L35.9395 20.573V18.7314L41.4094 15.2744Z" fill="#C75123"/>
<path d="M38.66 13.5366L41.4096 15.2743L35.9397 18.7313L33.1904 16.9936L38.66 13.5366Z" fill="#E46F29"/>
<path d="M30.1926 22.3636V24.2047L27.4434 22.4671V20.626L30.1926 22.3636Z" fill="#9E3B16"/>
<path d="M35.6624 18.9062V20.7478L30.1924 24.2049V22.3638L35.6624 18.9062Z" fill="#C75123"/>
<path d="M32.9129 17.1689L35.6626 18.9066L30.1926 22.3641L27.4434 20.6265L32.9129 17.1689Z" fill="#E46F29"/>
<path d="M24.4455 25.9965V27.838L21.6963 26.1004V24.2588L24.4455 25.9965Z" fill="#9E3B16"/>
<path d="M29.9153 22.5396V24.3811L24.4453 27.8382V25.9966L29.9153 22.5396Z" fill="#C75123"/>
<path d="M27.1658 20.8018L29.9155 22.5394L24.4455 25.9964L21.6963 24.2588L27.1658 20.8018Z" fill="#E46F29"/>
<path d="M18.6984 29.6293V31.4708L15.9492 29.7327V27.8916L18.6984 29.6293Z" fill="#9E3B16"/>
<path d="M24.1682 26.1719V28.0135L18.6982 31.471V29.6294L24.1682 26.1719Z" fill="#C75123"/>
<path d="M21.4192 24.4341L24.1684 26.1717L18.6984 29.6293L15.9492 27.8916L21.4192 24.4341Z" fill="#E46F29"/>
<path d="M12.9514 33.2611V35.1027L10.2021 33.365V31.5234L12.9514 33.2611Z" fill="#9E3B16"/>
<path d="M18.4212 29.8042V31.6458L12.9512 35.1028V33.2612L18.4212 29.8042Z" fill="#C75123"/>
<path d="M15.6721 28.0664L18.4214 29.8041L12.9514 33.2611L10.2021 31.5234L15.6721 28.0664Z" fill="#E46F29"/>
<path d="M41.5335 9.77979L44.2827 11.5174L38.8132 14.975L36.064 13.2368L41.5335 9.77979Z" fill="#E46F29"/>
<path d="M44.2825 11.5176V13.3592L38.813 16.8162V14.9751L44.2825 11.5176Z" fill="#C75123"/>
<path d="M38.8132 14.9745V16.8156L36.064 15.0779V13.2363L38.8132 14.9745Z" fill="#9E3B16"/>
<path d="M35.7864 13.4121L38.5361 15.1503L33.0661 18.6073L30.3169 16.8696L35.7864 13.4121Z" fill="#E46F29"/>
<path d="M38.5359 15.1504V16.9915L33.0659 20.449V18.6074L38.5359 15.1504Z" fill="#C75123"/>
<path d="M33.0661 18.6073V20.4489L30.3169 18.7112V16.8696L33.0661 18.6073Z" fill="#9E3B16"/>
<path d="M30.0394 17.0449L32.789 18.7826L27.3191 22.2401L24.5698 20.5024L30.0394 17.0449Z" fill="#E46F29"/>
<path d="M32.7888 18.7827V20.6243L27.3188 24.0813V22.2402L32.7888 18.7827Z" fill="#C75123"/>
<path d="M27.3191 22.2401V24.0812L24.5698 22.3435V20.5024L27.3191 22.2401Z" fill="#9E3B16"/>
<path d="M24.2923 20.6772L27.042 22.4149L21.572 25.8719L18.8228 24.1343L24.2923 20.6772Z" fill="#E46F29"/>
<path d="M27.0418 22.415V24.2561L21.5718 27.7136V25.8721L27.0418 22.415Z" fill="#C75123"/>
<path d="M21.572 25.8719V27.7135L18.8228 25.9759V24.1343L21.572 25.8719Z" fill="#9E3B16"/>
<path d="M18.5457 24.3096L21.2949 26.0472L15.8249 29.5048L13.0757 27.7666L18.5457 24.3096Z" fill="#E46F29"/>
<path d="M21.2947 26.0474V27.8889L15.8247 31.346V29.5049L21.2947 26.0474Z" fill="#C75123"/>
<path d="M15.8249 29.5048V31.3458L13.0757 29.6082V27.7666L15.8249 29.5048Z" fill="#9E3B16"/>
<path d="M12.9512 31.3237L15.5413 29.6865V31.5281L12.9512 33.1653V31.3237Z" fill="#C75123"/>
<path d="M12.7923 27.9487L15.5415 29.6864L12.9514 31.3236L10.2021 29.586L12.7923 27.9487Z" fill="#E46F29"/>
<path d="M12.9514 31.3236V33.1652L10.2021 31.4275V29.5859L12.9514 31.3236Z" fill="#9E3B16"/>
<path d="M41.6924 11.2197L44.2825 9.58252V11.4241L41.6924 13.0613V11.2197Z" fill="#C75123"/>
<path d="M41.5335 7.84473L44.2827 9.58241L41.6926 11.2196L38.9434 9.48196L41.5335 7.84473Z" fill="#E46F29"/>
<path d="M41.6926 11.2201V13.0616L38.9434 11.324V9.48242L41.6926 11.2201Z" fill="#9E3B16"/>
<path d="M35.9397 14.8632V16.7042L33.1904 14.9666V13.125L35.9397 14.8632Z" fill="#9E3B16"/>
<path d="M41.4094 11.4058V13.2473L35.9395 16.7044V14.8633L41.4094 11.4058Z" fill="#C75123"/>
<path d="M38.66 9.66797L41.4096 11.4056L35.9397 14.8632L33.1904 13.125L38.66 9.66797Z" fill="#E46F29"/>
<path d="M30.1926 18.4955V20.3371L27.4434 18.5994V16.7578L30.1926 18.4955Z" fill="#9E3B16"/>
<path d="M35.6624 15.0386V16.8797L30.1924 20.3372V18.4956L35.6624 15.0386Z" fill="#C75123"/>
<path d="M32.9129 13.3008L35.6626 15.0384L30.1926 18.4955L27.4434 16.7578L32.9129 13.3008Z" fill="#E46F29"/>
<path d="M24.4455 22.1283V23.9694L21.6963 22.2317V20.3901L24.4455 22.1283Z" fill="#9E3B16"/>
<path d="M29.9153 18.6709V20.5125L24.4453 23.9695V22.1284L29.9153 18.6709Z" fill="#C75123"/>
<path d="M27.1658 16.9331L29.9155 18.6708L24.4455 22.1283L21.6963 20.3901L27.1658 16.9331Z" fill="#E46F29"/>
<path d="M18.6984 25.7596V27.6012L15.9492 25.8635V24.022L18.6984 25.7596Z" fill="#9E3B16"/>
<path d="M24.1682 22.3027V24.1443L18.6982 27.6013V25.7598L24.1682 22.3027Z" fill="#C75123"/>
<path d="M21.4192 20.5654L24.1684 22.3031L18.6984 25.7601L15.9492 24.0225L21.4192 20.5654Z" fill="#E46F29"/>
<path d="M12.9514 29.3924V31.2335L10.2021 29.4959V27.6548L12.9514 29.3924Z" fill="#9E3B16"/>
<path d="M18.4212 25.9355V27.7771L12.9512 31.2341V29.3931L18.4212 25.9355Z" fill="#C75123"/>
<path d="M15.6721 24.1978L18.4214 25.9354L12.9514 29.3929L10.2021 27.6553L15.6721 24.1978Z" fill="#E46F29"/>
<path d="M41.5335 5.91699L44.2827 7.65466L38.8132 11.1117L36.064 9.37402L41.5335 5.91699Z" fill="#E46F29"/>
<path d="M44.2825 7.65479V9.49587L38.813 12.9534V11.1118L44.2825 7.65479Z" fill="#C75123"/>
<path d="M38.8132 11.1117V12.9533L36.064 11.2156V9.37402L38.8132 11.1117Z" fill="#9E3B16"/>
<path d="M35.7864 9.54932L38.5361 11.287L33.0661 14.7445L30.3169 13.0068L35.7864 9.54932Z" fill="#E46F29"/>
<path d="M38.5359 11.2871V13.1287L33.0659 16.5857V14.7446L38.5359 11.2871Z" fill="#C75123"/>
<path d="M33.0661 14.7445V16.5856L30.3169 14.8479V13.0068L33.0661 14.7445Z" fill="#9E3B16"/>
<path d="M30.0394 13.1821L32.789 14.9198L27.3191 18.3768L24.5698 16.6392L30.0394 13.1821Z" fill="#E46F29"/>
<path d="M32.7888 14.9199V16.7615L27.3188 20.2185V18.3769L32.7888 14.9199Z" fill="#C75123"/>
<path d="M27.3191 18.3768V20.2184L24.5698 18.4807V16.6392L27.3191 18.3768Z" fill="#9E3B16"/>
<path d="M24.2923 16.814L27.042 18.5516L21.572 22.0092L18.8228 20.2715L24.2923 16.814Z" fill="#E46F29"/>
<path d="M27.0418 18.5518V20.3933L21.5718 23.8508V22.0093L27.0418 18.5518Z" fill="#C75123"/>
<path d="M21.572 22.0087V23.8502L18.8228 22.1121V20.271L21.572 22.0087Z" fill="#9E3B16"/>
<path d="M18.5457 20.4468L21.2949 22.1844L15.8249 25.6415L13.0757 23.9038L18.5457 20.4468Z" fill="#E46F29"/>
<path d="M21.2947 22.1846V24.0261L15.8247 27.4832V25.6416L21.2947 22.1846Z" fill="#C75123"/>
<path d="M15.8249 25.641V27.4826L13.0757 25.7449V23.9033L15.8249 25.641Z" fill="#9E3B16"/>
<path d="M12.9512 27.461L15.5413 25.8237V27.6653L12.9512 29.3025V27.461Z" fill="#C75123"/>
<path d="M12.7923 24.0859L15.5415 25.8236L12.9514 27.4608L10.2021 25.7232L12.7923 24.0859Z" fill="#E46F29"/>
<path d="M12.9514 27.4613V29.3029L10.2021 27.5647V25.7236L12.9514 27.4613Z" fill="#9E3B16"/>
<path d="M41.6924 7.34816L44.2825 5.71094V7.55202L41.6924 9.18924V7.34816Z" fill="#C75123"/>
<path d="M41.5335 3.97266L44.2827 5.71082L41.6926 7.34804L38.9434 5.60988L41.5335 3.97266Z" fill="#E46F29"/>
<path d="M41.6926 7.34803V9.18911L38.9434 7.45144V5.60986L41.6926 7.34803Z" fill="#9E3B16"/>
<path d="M35.9397 11.0023V12.8439L33.1904 11.1062V9.26465L35.9397 11.0023Z" fill="#9E3B16"/>
<path d="M41.4094 7.54541V9.38697L35.9395 12.844V11.0024L41.4094 7.54541Z" fill="#C75123"/>
<path d="M38.66 5.80762L41.4096 7.54528L35.9397 11.0023L33.1904 9.26464L38.66 5.80762Z" fill="#E46F29"/>
<path d="M30.1926 14.6347V16.4757L27.4434 14.7381V12.897L30.1926 14.6347Z" fill="#9E3B16"/>
<path d="M35.6624 11.1772V13.0188L30.1924 16.4758V14.6348L35.6624 11.1772Z" fill="#C75123"/>
<path d="M32.9129 9.43945L35.6626 11.1771L30.1926 14.6346L27.4434 12.897L32.9129 9.43945Z" fill="#E46F29"/>
<path d="M24.4455 18.267V20.1085L21.6963 18.3709V16.5293L24.4455 18.267Z" fill="#9E3B16"/>
<path d="M29.9153 14.8101V16.6516L24.4453 20.1087V18.2671L29.9153 14.8101Z" fill="#C75123"/>
<path d="M27.1658 13.0723L29.9155 14.8099L24.4455 18.267L21.6963 16.5293L27.1658 13.0723Z" fill="#E46F29"/>
<path d="M18.6984 21.8998V23.7409L15.9492 22.0032V20.1621L18.6984 21.8998Z" fill="#9E3B16"/>
<path d="M24.1682 18.4424V20.284L18.6982 23.741V21.8999L24.1682 18.4424Z" fill="#C75123"/>
<path d="M21.4192 16.7046L24.1684 18.4423L18.6984 21.8998L15.9492 20.1621L21.4192 16.7046Z" fill="#E46F29"/>
<path d="M12.9514 25.5316V27.3732L10.2021 25.6355V23.7939L12.9514 25.5316Z" fill="#9E3B16"/>
<path d="M18.4212 22.0747V23.9163L12.9512 27.3733V25.5317L18.4212 22.0747Z" fill="#C75123"/>
<path d="M15.6721 20.3369L18.4214 22.0746L12.9514 25.5316L10.2021 23.7939L15.6721 20.3369Z" fill="#E46F29"/>
<path d="M41.5335 2.05029L44.2827 3.78796L38.8132 7.24548L36.064 5.50732L41.5335 2.05029Z" fill="#E46F29"/>
<path d="M44.2825 3.78809V5.62966L38.813 9.08669V7.24561L44.2825 3.78809Z" fill="#C75123"/>
<path d="M38.8132 7.24549V9.08657L36.064 7.3489V5.50732L38.8132 7.24549Z" fill="#9E3B16"/>
<path d="M35.7864 5.68311L38.5361 7.42077L33.0661 10.8778L30.3169 9.14013L35.7864 5.68311Z" fill="#E46F29"/>
<path d="M38.5359 7.4209V9.26198L33.0659 12.7195V10.8779L38.5359 7.4209Z" fill="#C75123"/>
<path d="M33.0661 10.8778V12.7194L30.3169 10.9817V9.14014L33.0661 10.8778Z" fill="#9E3B16"/>
<path d="M30.0394 9.31543L32.789 11.0531L27.3191 14.5106L24.5698 12.7725L30.0394 9.31543Z" fill="#E46F29"/>
<path d="M32.7888 11.0532V12.8948L27.3188 16.3518V14.5107L32.7888 11.0532Z" fill="#C75123"/>
<path d="M27.3191 14.5106V16.3517L24.5698 14.614V12.7725L27.3191 14.5106Z" fill="#9E3B16"/>
<path d="M24.2923 12.9478L27.042 14.6854L21.572 18.1425L18.8228 16.4048L24.2923 12.9478Z" fill="#E46F29"/>
<path d="M27.0418 14.6855V16.5266L21.5718 19.9841V18.1426L27.0418 14.6855Z" fill="#C75123"/>
<path d="M21.572 18.1425V19.984L18.8228 18.2464V16.4048L21.572 18.1425Z" fill="#9E3B16"/>
<path d="M18.5457 16.5801L21.2949 18.3178L15.8249 21.7753L13.0757 20.0376L18.5457 16.5801Z" fill="#E46F29"/>
<path d="M21.2947 18.3179V20.1594L15.8247 23.6165V21.7754L21.2947 18.3179Z" fill="#C75123"/>
<path d="M15.8249 21.7753V23.6163L13.0757 21.8787V20.0376L15.8249 21.7753Z" fill="#9E3B16"/>
<path d="M12.9512 23.5943L15.5413 21.957V23.7986L12.9512 25.4358V23.5943Z" fill="#C75123"/>
<path d="M12.7923 20.2192L15.5415 21.9569L12.9514 23.5941L10.2021 21.8565L12.7923 20.2192Z" fill="#E46F29"/>
<path d="M12.9514 23.5941V25.4357L10.2021 23.698V21.8564L12.9514 23.5941Z" fill="#9E3B16"/>
<path d="M41.5335 0.101074L44.2827 1.83875L41.6926 3.47598L38.9434 1.73831L41.5335 0.101074Z" fill="#9E3B16"/>
<path d="M41.6926 3.47598L44.2827 1.83875L41.5335 0.101074L38.9434 1.73831L41.6926 3.47598ZM40.2387 2.03517L40.499 1.87042L41.4829 2.49235L41.2226 2.65712L40.2387 2.03517ZM39.8771 1.47756L40.2387 1.70615L39.9783 1.8709L39.6168 1.64232L39.8771 1.47756ZM40.3982 1.14803L41.3821 1.76998L41.1218 1.93474L40.1379 1.31279L40.3982 1.14803ZM41.2809 1.37662L41.5412 1.21185L42.5251 1.8338L42.2648 1.99857L41.2809 1.37662ZM40.9188 0.81901L41.2804 1.0476L41.0201 1.21235L40.6585 0.98376L40.9188 0.81901ZM42.4238 1.11143L42.1635 1.27618L41.1796 0.654244L41.4399 0.489478L42.4238 1.11143ZM43.4077 2.06239L42.4238 1.44044L42.6842 1.27569L43.6681 1.89763L43.4077 2.06239ZM42.8866 2.39191L42.5251 2.16332L42.7854 1.99857L43.147 2.22714L42.8866 2.39191ZM42.366 2.72094L41.3821 2.09901L41.6424 1.93424L42.6263 2.55618L42.366 2.72094ZM41.8449 3.05046L41.4833 2.82188L41.7437 2.65712L42.1052 2.88571L41.8449 3.05046Z" fill="#E46F29"/>
<path d="M40.9185 0.819336V1.14835L40.6582 0.983603L40.9185 0.819336Z" fill="#C75123"/>
<path d="M41.44 0.489746V0.819277L41.1792 0.654512L41.44 0.489746Z" fill="#C75123"/>
<path d="M42.6841 1.27637V1.6054L42.4238 1.44113L42.6841 1.27637Z" fill="#C75123"/>
<path d="M41.5411 1.2124V1.54144L41.2808 1.37667L41.5411 1.2124Z" fill="#C75123"/>
<path d="M42.7852 1.99854V2.32805L42.5249 2.16329L42.7852 1.99854Z" fill="#C75123"/>
<path d="M41.6422 1.93457V2.26359L41.3818 2.09932L41.6422 1.93457Z" fill="#C75123"/>
<path d="M40.3941 1.14795V1.47748L40.1333 1.31271L40.3941 1.14795Z" fill="#C75123"/>
<path d="M40.4995 1.87061V2.20012L40.2388 2.03536L40.4995 1.87061Z" fill="#C75123"/>
<path d="M39.877 1.47754V1.80657L39.6167 1.64181L39.877 1.47754Z" fill="#C75123"/>
<path d="M41.7437 2.65723V2.98674L41.4834 2.82199L41.7437 2.65723Z" fill="#C75123"/>
<path d="M41.6924 3.47609L44.2825 1.83887V3.68043L41.6924 5.31765V3.47609Z" fill="#C75123"/>
<path d="M41.6926 3.47595V5.31751L38.9434 3.57985V1.73828L41.6926 3.47595Z" fill="#9E3B16"/>
<path d="M38.66 1.91992L41.4096 3.6576L35.9397 7.11463L33.1904 5.37696L38.66 1.91992Z" fill="#9E3B16"/>
<path d="M41.4094 3.65771V5.49878L35.9395 8.95631V7.11474L41.4094 3.65771Z" fill="#C75123"/>
<path d="M33.1904 5.37696L35.9397 7.11463L41.4096 3.6576L38.6604 1.91992L33.1904 5.37696ZM34.4925 4.88317L35.4764 5.5051L35.2161 5.66986L34.2322 5.04793L34.4925 4.88317ZM35.3752 5.11176L35.6355 4.94699L36.6194 5.56892L36.3591 5.73369L35.3752 5.11176ZM35.0136 4.55365L35.3752 4.78223L35.1148 4.94699L34.7528 4.7184L35.0136 4.55365ZM35.5347 4.22462L36.5186 4.84655L36.2583 5.01132L35.2744 4.38938L35.5347 4.22462ZM36.4174 4.45321L36.6777 4.28844L37.6616 4.91038L37.4013 5.07514L36.4174 4.45321ZM36.0554 3.89509L36.4169 4.12368L36.1566 4.28844L35.795 4.05985L36.0554 3.89509ZM36.5765 3.56607L37.5604 4.188L37.3 4.35277L36.3161 3.73082L36.5765 3.56607ZM37.4591 3.79464L37.7195 3.62989L38.7034 4.25183L38.443 4.41659L37.4591 3.79464ZM37.0971 3.23704L37.4591 3.46563L37.1988 3.63038L36.8368 3.4018L37.0971 3.23704ZM37.6182 2.9075L38.6021 3.52945L38.3418 3.69422L37.3579 3.07227L37.6182 2.9075ZM38.5009 3.1361L38.7612 2.97133L39.7451 3.59328L39.4848 3.75804L38.5009 3.1361ZM38.1393 2.57799L38.5009 2.80658L38.2405 2.97133L37.879 2.74275L38.1393 2.57799ZM39.6439 2.8709L39.3835 3.03565L38.3996 2.41372L38.66 2.24895L39.6439 2.8709ZM40.6282 3.82187L39.6443 3.19992L39.9046 3.03517L40.8885 3.6571L40.6282 3.82187ZM40.1071 4.15138L39.7456 3.92279L40.0059 3.75804L40.3674 3.98662L40.1071 4.15138ZM39.586 4.48042L38.6021 3.85848L38.8624 3.69372L39.8463 4.31565L39.586 4.48042ZM39.0654 4.80993L38.7034 4.58136L38.9637 4.41659L39.3252 4.64518L39.0654 4.80993ZM38.5443 5.13897L37.5604 4.51703L37.8207 4.35227L38.8046 4.9742L38.5443 5.13897ZM38.0232 5.4685L37.6616 5.23991L37.9219 5.07514L38.2835 5.30373L38.0232 5.4685ZM37.5025 5.79752L36.5186 5.17558L36.7789 5.01082L37.7628 5.63277L37.5025 5.79752ZM36.9814 6.12705L36.6194 5.89846L36.8797 5.73369L37.2413 5.96228L36.9814 6.12705ZM36.4608 6.45608L35.4769 5.83413L35.7372 5.66937L36.7211 6.29131L36.4608 6.45608ZM35.5781 6.557L35.8384 6.39224L36.2 6.62083L35.9397 6.7856L35.5781 6.557ZM34.3334 5.77031L34.5937 5.60554L35.5776 6.22749L35.3173 6.39224L34.3334 5.77031ZM34.0731 5.60554L33.7115 5.37696L33.9719 5.2122L34.3334 5.44079L34.0731 5.60554Z" fill="#E46F29"/>
<path d="M35.9397 7.11462V8.95618L33.1904 7.21852V5.37695L35.9397 7.11462Z" fill="#9E3B16"/>
<path d="M38.1392 2.57812V2.90764L37.8784 2.74289L38.1392 2.57812Z" fill="#C75123"/>
<path d="M38.6597 2.24902V2.57806L38.3994 2.41379L38.6597 2.24902Z" fill="#C75123"/>
<path d="M39.9043 3.03564V3.36468L39.6436 3.20041L39.9043 3.03564Z" fill="#C75123"/>
<path d="M38.7613 2.97119V3.30072L38.501 3.13596L38.7613 2.97119Z" fill="#C75123"/>
<path d="M40.0059 3.75781V4.08733L39.7456 3.92256L40.0059 3.75781Z" fill="#C75123"/>
<path d="M38.8624 3.69434V4.02335L38.6021 3.8586L38.8624 3.69434Z" fill="#C75123"/>
<path d="M37.6138 2.90771V3.23725L37.3535 3.07248L37.6138 2.90771Z" fill="#C75123"/>
<path d="M37.7193 3.62988V3.9594L37.459 3.79463L37.7193 3.62988Z" fill="#C75123"/>
<path d="M37.0967 3.23682V3.56585L36.8364 3.40108L37.0967 3.23682Z" fill="#C75123"/>
<path d="M38.9639 4.4165V4.74602L38.7031 4.58127L38.9639 4.4165Z" fill="#C75123"/>
<path d="M37.8204 4.35254V4.68156L37.5601 4.51681L37.8204 4.35254Z" fill="#C75123"/>
<path d="M36.5763 3.56592V3.89494L36.3159 3.73067L36.5763 3.56592Z" fill="#C75123"/>
<path d="M36.0552 3.89502V4.22455L35.7949 4.05979L36.0552 3.89502Z" fill="#C75123"/>
<path d="M36.6773 4.28857V4.61809L36.417 4.45334L36.6773 4.28857Z" fill="#C75123"/>
<path d="M37.922 5.0752V5.40423L37.6616 5.23996L37.922 5.0752Z" fill="#C75123"/>
<path d="M36.7789 5.01123V5.34026L36.5186 5.1755L36.7789 5.01123Z" fill="#C75123"/>
<path d="M35.5347 4.22461V4.55364L35.2739 4.38937L35.5347 4.22461Z" fill="#C75123"/>
<path d="M35.0133 4.55371V4.88323L34.7529 4.71846L35.0133 4.55371Z" fill="#C75123"/>
<path d="M35.6358 4.94727V5.2768L35.375 5.11203L35.6358 4.94727Z" fill="#C75123"/>
<path d="M36.88 5.73389V6.06292L36.6196 5.89865L36.88 5.73389Z" fill="#C75123"/>
<path d="M35.7368 5.66992V5.99895L35.4761 5.83419L35.7368 5.66992Z" fill="#C75123"/>
<path d="M34.4923 4.8833V5.21233L34.2319 5.04757L34.4923 4.8833Z" fill="#C75123"/>
<path d="M33.9717 5.2124V5.54192L33.7109 5.37717L33.9717 5.2124Z" fill="#C75123"/>
<path d="M34.5938 5.60547V5.935L34.3335 5.77023L34.5938 5.60547Z" fill="#C75123"/>
<path d="M35.8384 6.39209V6.72112L35.5781 6.55686L35.8384 6.39209Z" fill="#C75123"/>
<path d="M32.9129 5.55225L35.6626 7.28993L30.1926 10.7474L27.4434 9.00977L32.9129 5.55225Z" fill="#9E3B16"/>
<path d="M35.6624 7.29004V9.1316L30.1924 12.5886V10.7476L35.6624 7.29004Z" fill="#C75123"/>
<path d="M27.4434 9.00976L30.1926 10.7474L35.6626 7.2904L32.9133 5.55273L27.4434 9.00976ZM28.7454 8.51548L29.7293 9.13741L29.469 9.30218L28.4851 8.68025L28.7454 8.51548ZM29.6281 8.74407L29.8884 8.57931L30.8723 9.20124L30.612 9.366L29.6281 8.74407ZM29.2665 8.18645L29.6281 8.41504L29.3678 8.5798L29.0058 8.35121L29.2665 8.18645ZM29.7876 7.85693L30.7715 8.47886L30.5112 8.64363L29.5273 8.02168L29.7876 7.85693ZM30.6703 8.08601L30.9306 7.92126L31.9145 8.54319L31.6542 8.70795L30.6703 8.08601ZM30.3083 7.5279L30.6698 7.75649L30.4095 7.92126L30.048 7.69266L30.3083 7.5279ZM30.8294 7.19887L31.8133 7.82081L31.553 7.98556L30.5691 7.36363L30.8294 7.19887ZM31.7121 7.42746L31.9724 7.26269L32.9563 7.88464L32.696 8.04939L31.7121 7.42746ZM31.35 6.86935L31.7116 7.09794L31.4513 7.26269L31.0897 7.03411L31.35 6.86935ZM31.8711 6.54032L32.855 7.16225L32.5947 7.32701L31.6108 6.70508L31.8711 6.54032ZM32.7538 6.76891L33.0141 6.60414L33.998 7.22609L33.7377 7.39084L32.7538 6.76891ZM32.3922 6.2108L32.7538 6.43938L32.4935 6.60414L32.1319 6.37555L32.3922 6.2108ZM33.8972 6.5037L33.6369 6.66847L32.653 6.04653L32.9133 5.88177L33.8972 6.5037ZM34.8811 7.45467L33.8972 6.83273L34.1576 6.66797L35.1415 7.28992L34.8811 7.45467ZM34.36 7.7837L33.9985 7.55511L34.2588 7.39036L34.6204 7.61893L34.36 7.7837ZM33.8389 8.11323L32.855 7.49128L33.1154 7.32652L34.0993 7.94846L33.8389 8.11323ZM33.3183 8.44225L32.9567 8.21366L33.2171 8.04891L33.5786 8.2775L33.3183 8.44225ZM32.7972 8.77178L31.8133 8.14983L32.0736 7.98508L33.0575 8.60701L32.7972 8.77178ZM32.2765 9.1008L31.915 8.87222L32.1753 8.70746L32.5369 8.93605L32.2765 9.1008ZM31.7554 9.43033L30.7715 8.8084L31.0319 8.64363L32.0158 9.26556L31.7554 9.43033ZM31.2343 9.75936L30.8728 9.53077L31.1331 9.366L31.4951 9.5946L31.2343 9.75936ZM30.7137 10.0889L29.7298 9.46694L29.9901 9.30218L30.974 9.92411L30.7137 10.0889ZM29.831 10.1893L30.0913 10.0246L30.4529 10.2531L30.1926 10.4179L29.831 10.1893ZM28.5863 9.40262L28.8467 9.23785L29.8306 9.8598L29.5702 10.0246L28.5863 9.40262ZM28.326 9.23835L27.9645 9.00976L28.2248 8.845L28.5863 9.07359L28.326 9.23835Z" fill="#E46F29"/>
<path d="M30.1926 10.7474V12.5885L27.4434 10.8508V9.00977L30.1926 10.7474Z" fill="#9E3B16"/>
<path d="M32.3921 6.21094V6.54045L32.1313 6.37569L32.3921 6.21094Z" fill="#C75123"/>
<path d="M32.9127 5.88184V6.21087L32.6523 6.0461L32.9127 5.88184Z" fill="#C75123"/>
<path d="M34.1573 6.66797V6.9975L33.897 6.83273L34.1573 6.66797Z" fill="#C75123"/>
<path d="M33.0142 6.604V6.93304L32.7539 6.76877L33.0142 6.604Z" fill="#C75123"/>
<path d="M34.2589 7.39062V7.71966L33.9985 7.55489L34.2589 7.39062Z" fill="#C75123"/>
<path d="M33.1158 7.32666V7.65619L32.855 7.49143L33.1158 7.32666Z" fill="#C75123"/>
<path d="M31.8668 6.54053V6.86956L31.6064 6.70479L31.8668 6.54053Z" fill="#C75123"/>
<path d="M31.9722 7.2627V7.59173L31.7119 7.42746L31.9722 7.2627Z" fill="#C75123"/>
<path d="M31.3497 6.86963V7.19915L31.0894 7.03439L31.3497 6.86963Z" fill="#C75123"/>
<path d="M33.2168 8.04932V8.37835L32.9561 8.21358L33.2168 8.04932Z" fill="#C75123"/>
<path d="M32.0733 7.98486V8.31438L31.813 8.14961L32.0733 7.98486Z" fill="#C75123"/>
<path d="M30.8292 7.19873V7.52776L30.5688 7.363L30.8292 7.19873Z" fill="#C75123"/>
<path d="M30.3082 7.52783V7.85686L30.0479 7.6926L30.3082 7.52783Z" fill="#C75123"/>
<path d="M30.9302 7.92139V8.2504L30.6699 8.08614L30.9302 7.92139Z" fill="#C75123"/>
<path d="M32.1749 8.70752V9.03704L31.9146 8.87229L32.1749 8.70752Z" fill="#C75123"/>
<path d="M31.0318 8.64355V8.97307L30.7715 8.80832L31.0318 8.64355Z" fill="#C75123"/>
<path d="M29.7876 7.85693V8.18645L29.5269 8.02168L29.7876 7.85693Z" fill="#C75123"/>
<path d="M29.2662 8.18652V8.51556L29.0059 8.35129L29.2662 8.18652Z" fill="#C75123"/>
<path d="M29.8887 8.58008V8.9091L29.6279 8.74435L29.8887 8.58008Z" fill="#C75123"/>
<path d="M31.1329 9.36621V9.69574L30.8726 9.53098L31.1329 9.36621Z" fill="#C75123"/>
<path d="M29.9898 9.30225V9.63128L29.7295 9.46701L29.9898 9.30225Z" fill="#C75123"/>
<path d="M28.7452 8.51514V8.84465L28.4849 8.6799L28.7452 8.51514Z" fill="#C75123"/>
<path d="M28.2246 8.84473V9.17376L27.9639 9.00949L28.2246 8.84473Z" fill="#C75123"/>
<path d="M28.8468 9.23828V9.56731L28.5864 9.40255L28.8468 9.23828Z" fill="#C75123"/>
<path d="M30.0914 10.0244V10.3539L29.8311 10.1892L30.0914 10.0244Z" fill="#C75123"/>
<path d="M27.1658 9.18457L29.9155 10.9222L24.4455 14.3793L21.6963 12.6416L27.1658 9.18457Z" fill="#9E3B16"/>
<path d="M29.9153 10.9224V12.7634L24.4453 16.221V14.3794L29.9153 10.9224Z" fill="#C75123"/>
<path d="M21.6963 12.6416L24.4455 14.3793L29.9151 10.9222L27.1658 9.18457L21.6963 12.6416ZM22.9984 12.1478L23.9823 12.7697L23.7219 12.9345L22.738 12.3126L22.9984 12.1478ZM23.881 12.3764L24.1414 12.2116L25.1253 12.8336L24.8649 12.9983L23.881 12.3764ZM23.5195 11.8183L23.881 12.0469L23.6207 12.2116L23.2591 11.983L23.5195 11.8183ZM24.0406 11.4893L25.0245 12.1112L24.7641 12.276L23.7802 11.654L24.0406 11.4893ZM24.9232 11.7178L25.1836 11.5531L26.1675 12.175L25.9071 12.3398L24.9232 11.7178ZM24.5612 11.1597L24.9228 11.3883L24.6625 11.5531L24.3009 11.3245L24.5612 11.1597ZM25.0823 10.8307L26.0662 11.4526L25.8059 11.6174L24.822 10.9955L25.0823 10.8307ZM25.965 11.0593L26.2253 10.8945L27.2092 11.5165L26.9489 11.6812L25.965 11.0593ZM25.6034 10.5012L25.965 10.7298L25.7047 10.8945L25.3431 10.6659L25.6034 10.5012ZM26.1241 10.1722L27.108 10.7941L26.8476 10.9589L25.8637 10.3369L26.1241 10.1722ZM27.0067 10.4007L27.2671 10.236L28.251 10.8579L27.9906 11.0227L27.0067 10.4007ZM26.6452 9.84312L27.0067 10.0717L26.7464 10.2365L26.3844 10.0079L26.6452 9.84312ZM28.1502 10.1355L27.8898 10.3003L26.9059 9.67837L27.1663 9.5136L28.1502 10.1355ZM29.1341 11.087L28.1502 10.4651L28.4105 10.3003L29.3944 10.9222L29.1341 11.087ZM28.613 11.416L28.2514 11.1874L28.5117 11.0227L28.8733 11.2513L28.613 11.416ZM28.0923 11.7455L27.1084 11.1236L27.3687 10.9589L28.3526 11.5808L28.0923 11.7455ZM27.5712 12.0746L27.2097 11.846L27.47 11.6812L27.8315 11.9098L27.5712 12.0746ZM27.0501 12.4036L26.0662 11.7817L26.3265 11.6169L27.3104 12.2388L27.0501 12.4036ZM26.5295 12.7331L26.1679 12.5045L26.4282 12.3398L26.7898 12.5684L26.5295 12.7331ZM26.0084 13.0622L25.0245 12.4402L25.2848 12.2755L26.2687 12.8974L26.0084 13.0622ZM25.4873 13.3917L25.1257 13.1631L25.386 12.9983L25.7476 13.2269L25.4873 13.3917ZM24.9666 13.7207L23.9827 13.0988L24.243 12.934L25.2269 13.5559L24.9666 13.7207ZM24.084 13.8217L24.3443 13.6569L24.7058 13.8855L24.4455 14.0502L24.084 13.8217ZM22.8393 13.035L23.0996 12.8702L24.0835 13.4921L23.8232 13.6569L22.8393 13.035ZM22.579 12.8702L22.2174 12.6416L22.4777 12.4768L22.8393 12.7054L22.579 12.8702Z" fill="#E46F29"/>
<path d="M24.4455 14.3793V16.2208L21.6963 14.4832V12.6416L24.4455 14.3793Z" fill="#9E3B16"/>
<path d="M26.6451 9.84277V10.1718L26.3843 10.007L26.6451 9.84277Z" fill="#C75123"/>
<path d="M27.1656 9.51367V9.84319L26.9053 9.67844L27.1656 9.51367Z" fill="#C75123"/>
<path d="M28.4102 10.2998V10.6288L28.1499 10.4646L28.4102 10.2998Z" fill="#C75123"/>
<path d="M27.2676 10.2358V10.5654L27.0068 10.4006L27.2676 10.2358Z" fill="#C75123"/>
<path d="M28.5118 11.0225V11.352L28.2515 11.1872L28.5118 11.0225Z" fill="#C75123"/>
<path d="M27.3687 10.9585V11.2875L27.1079 11.1228L27.3687 10.9585Z" fill="#C75123"/>
<path d="M26.1197 10.1719V10.5009L25.8594 10.3366L26.1197 10.1719Z" fill="#C75123"/>
<path d="M26.2252 10.8945V11.2241L25.9648 11.0593L26.2252 10.8945Z" fill="#C75123"/>
<path d="M25.6035 10.501V10.8305L25.3428 10.6657L25.6035 10.501Z" fill="#C75123"/>
<path d="M27.4698 11.6812V12.0107L27.209 11.8459L27.4698 11.6812Z" fill="#C75123"/>
<path d="M26.3262 11.6172V11.9462L26.0659 11.782L26.3262 11.6172Z" fill="#C75123"/>
<path d="M25.0821 10.8306V11.1596L24.8218 10.9953L25.0821 10.8306Z" fill="#C75123"/>
<path d="M24.5611 11.1597V11.4892L24.3008 11.3244L24.5611 11.1597Z" fill="#C75123"/>
<path d="M25.1837 11.5527V11.8823L24.9233 11.7175L25.1837 11.5527Z" fill="#C75123"/>
<path d="M26.4283 12.3394V12.6689L26.1675 12.5041L26.4283 12.3394Z" fill="#C75123"/>
<path d="M25.2847 12.2759V12.6049L25.0244 12.4401L25.2847 12.2759Z" fill="#C75123"/>
<path d="M24.0406 11.4893V11.8183L23.7798 11.654L24.0406 11.4893Z" fill="#C75123"/>
<path d="M23.5196 11.8184V12.1479L23.2593 11.9831L23.5196 11.8184Z" fill="#C75123"/>
<path d="M24.1416 12.2114V12.5409L23.8809 12.3762L24.1416 12.2114Z" fill="#C75123"/>
<path d="M25.3858 12.998V13.3276L25.1255 13.1628L25.3858 12.998Z" fill="#C75123"/>
<path d="M24.2427 12.9346V13.2636L23.9824 13.0988L24.2427 12.9346Z" fill="#C75123"/>
<path d="M22.9981 12.1479V12.477L22.7378 12.3127L22.9981 12.1479Z" fill="#C75123"/>
<path d="M22.4776 12.4766V12.8061L22.2173 12.6413L22.4776 12.4766Z" fill="#C75123"/>
<path d="M23.1001 12.8701V13.1996L22.8394 13.0349L23.1001 12.8701Z" fill="#C75123"/>
<path d="M24.3443 13.6567V13.9858L24.084 13.8215L24.3443 13.6567Z" fill="#C75123"/>
<path d="M21.4192 12.8169L24.1684 14.5546L18.6984 18.0121L15.9492 16.2744L21.4192 12.8169Z" fill="#9E3B16"/>
<path d="M24.1682 14.5547V16.3963L18.6982 19.8533V18.0122L24.1682 14.5547Z" fill="#C75123"/>
<path d="M15.9492 16.2744L18.6984 18.0121L24.168 14.555L21.4188 12.8174L15.9492 16.2744ZM17.2517 15.7801L18.2357 16.4021L17.9753 16.5668L16.9914 15.9449L17.2517 15.7801ZM18.1344 16.0092L18.3947 15.8444L19.3786 16.4664L19.1183 16.6311L18.1344 16.0092ZM17.7724 15.4511L18.134 15.6797L17.8736 15.8444L17.5121 15.6159L17.7724 15.4511ZM18.2935 15.1221L19.2774 15.744L19.0171 15.9088L18.0332 15.2868L18.2935 15.1221ZM19.1762 15.3507L19.4365 15.1859L20.4204 15.8078L20.1601 15.9726L19.1762 15.3507ZM18.8141 14.7925L19.1757 15.0211L18.9154 15.1859L18.5534 14.9573L18.8141 14.7925ZM19.3353 14.463L20.3192 15.0849L20.0588 15.2497L19.0749 14.6278L19.3353 14.463ZM20.2179 14.6921L20.4782 14.5273L21.4621 15.1493L21.2018 15.314L20.2179 14.6921ZM19.8564 14.134L20.2179 14.3626L19.9576 14.5273L19.596 14.2987L19.8564 14.134ZM20.377 13.805L21.3609 14.4269L21.1006 14.5917L20.1167 13.9697L20.377 13.805ZM21.2597 14.0335L21.52 13.8688L22.5039 14.4907L22.2436 14.6555L21.2597 14.0335ZM20.8981 13.4754L21.2601 13.704L20.9998 13.8688L20.6382 13.6402L20.8981 13.4754ZM22.4031 13.7683L22.1428 13.9331L21.1589 13.3112L21.4192 13.1464L22.4031 13.7683ZM23.387 14.7193L22.4031 14.0974L22.6634 13.9326L23.6473 14.5545L23.387 14.7193ZM22.8659 15.0488L22.5043 14.8203L22.7647 14.6555L23.1267 14.8841L22.8659 15.0488ZM22.3453 15.3779L21.3614 14.7559L21.6217 14.5912L22.6056 15.2131L22.3453 15.3779ZM21.8242 15.7069L21.4626 15.4783L21.7229 15.3135L22.0845 15.5421L21.8242 15.7069ZM21.303 16.0364L20.3192 15.4145L20.5795 15.2497L21.5634 15.8717L21.303 16.0364ZM20.7824 16.3654L20.4208 16.1369L20.6812 15.9721L21.0427 16.2007L20.7824 16.3654ZM20.2613 16.695L19.2774 16.073L19.5377 15.9083L20.5216 16.5302L20.2613 16.695ZM19.7402 17.024L19.3786 16.7954L19.639 16.6307L20.0005 16.8592L19.7402 17.024ZM19.2195 17.3535L18.2357 16.7316L18.496 16.5668L19.4799 17.1888L19.2195 17.3535ZM18.3369 17.454L18.5972 17.2892L18.9588 17.5178L18.6984 17.6825L18.3369 17.454ZM17.0922 16.6678L17.3525 16.503L18.3364 17.1249L18.0761 17.2897L17.0922 16.6678ZM16.8319 16.503L16.4699 16.2744L16.7302 16.1096L17.0918 16.3382L16.8319 16.503Z" fill="#E46F29"/>
<path d="M18.6984 18.0121V19.8532L15.9492 18.1155V16.2744L18.6984 18.0121Z" fill="#9E3B16"/>
<path d="M20.898 13.4751V13.8046L20.6377 13.6399L20.898 13.4751Z" fill="#C75123"/>
<path d="M21.419 13.1465V13.4755L21.1582 13.3108L21.419 13.1465Z" fill="#C75123"/>
<path d="M22.6632 13.9326V14.2621L22.4028 14.0974L22.6632 13.9326Z" fill="#C75123"/>
<path d="M21.5205 13.8687V14.1982L21.2598 14.0334L21.5205 13.8687Z" fill="#C75123"/>
<path d="M22.7647 14.6553V14.9843L22.5044 14.8195L22.7647 14.6553Z" fill="#C75123"/>
<path d="M21.6216 14.5908V14.9203L21.3608 14.7556L21.6216 14.5908Z" fill="#C75123"/>
<path d="M20.3731 13.8047V14.1337L20.1123 13.969L20.3731 13.8047Z" fill="#C75123"/>
<path d="M20.4781 14.5273V14.8564L20.2178 14.6921L20.4781 14.5273Z" fill="#C75123"/>
<path d="M19.856 14.1338V14.4628L19.5952 14.2986L19.856 14.1338Z" fill="#C75123"/>
<path d="M21.7227 15.314V15.643L21.4624 15.4782L21.7227 15.314Z" fill="#C75123"/>
<path d="M20.5792 15.2495V15.579L20.3188 15.4143L20.5792 15.2495Z" fill="#C75123"/>
<path d="M19.335 14.4629V14.7924L19.0747 14.6277L19.335 14.4629Z" fill="#C75123"/>
<path d="M18.814 14.7925V15.122L18.5537 14.9572L18.814 14.7925Z" fill="#C75123"/>
<path d="M19.4366 15.1855V15.5146L19.1763 15.3503L19.4366 15.1855Z" fill="#C75123"/>
<path d="M20.6812 15.9722V16.3012L20.4204 16.1364L20.6812 15.9722Z" fill="#C75123"/>
<path d="M19.5377 15.9082V16.2377L19.2773 16.073L19.5377 15.9082Z" fill="#C75123"/>
<path d="M18.2935 15.1221V15.4511L18.0327 15.2863L18.2935 15.1221Z" fill="#C75123"/>
<path d="M17.772 15.4512V15.7802L17.5117 15.6159L17.772 15.4512Z" fill="#C75123"/>
<path d="M18.3946 15.8442V16.1733L18.1343 16.009L18.3946 15.8442Z" fill="#C75123"/>
<path d="M19.6387 16.6304V16.9599L19.3784 16.7951L19.6387 16.6304Z" fill="#C75123"/>
<path d="M18.4957 16.5669V16.8964L18.2354 16.7316L18.4957 16.5669Z" fill="#C75123"/>
<path d="M17.2515 15.7803V16.1098L16.9907 15.945L17.2515 15.7803Z" fill="#C75123"/>
<path d="M16.7305 16.1094V16.4384L16.4702 16.2741L16.7305 16.1094Z" fill="#C75123"/>
<path d="M17.3531 16.5029V16.8319L17.0923 16.6677L17.3531 16.5029Z" fill="#C75123"/>
<path d="M18.5972 17.2891V17.6186L18.3369 17.4538L18.5972 17.2891Z" fill="#C75123"/>
<path d="M15.6721 16.4497L18.4214 18.1874L12.9514 21.6444L10.2021 19.9067L15.6721 16.4497Z" fill="#9E3B16"/>
<path d="M18.4212 18.1875V20.0291L12.9512 23.4861V21.6445L18.4212 18.1875Z" fill="#C75123"/>
<path d="M10.2021 19.9067L12.9514 21.6444L18.4209 18.1874L15.6717 16.4497L10.2021 19.9067ZM11.5047 19.4129L12.4886 20.0349L12.2283 20.1996L11.2444 19.5777L11.5047 19.4129ZM12.3873 19.6415L12.6477 19.4768L13.6316 20.0987L13.3712 20.2635L12.3873 19.6415ZM12.0253 19.0834L12.3869 19.312L12.1266 19.4768L11.765 19.2482L12.0253 19.0834ZM12.5464 18.7544L13.5303 19.3763L13.27 19.5411L12.2861 18.9192L12.5464 18.7544ZM13.4291 18.983L13.6894 18.8182L14.6733 19.4401L14.413 19.6049L13.4291 18.983ZM13.0671 18.4254L13.4291 18.6539L13.1688 18.8187L12.8072 18.5901L13.0671 18.4254ZM13.5882 18.0958L14.5721 18.7178L14.3118 18.8825L13.3279 18.2606L13.5882 18.0958ZM14.4708 18.3244L14.7312 18.1597L15.7151 18.7816L15.4547 18.9464L14.4708 18.3244ZM14.1093 17.7668L14.4708 17.9954L14.2105 18.1602L13.849 17.9316L14.1093 17.7668ZM14.6299 17.4373L15.6138 18.0592L15.3535 18.224L14.3696 17.602L14.6299 17.4373ZM15.513 17.6659L15.7734 17.5011L16.7573 18.123L16.497 18.2878L15.513 17.6659ZM15.151 17.1083L15.513 17.3368L15.2527 17.5016L14.8912 17.273L15.151 17.1083ZM16.656 17.4007L16.3957 17.5654L15.4118 16.9435L15.6721 16.7787L16.656 17.4007ZM17.6399 18.3521L16.656 17.7302L16.9164 17.5654L17.9003 18.1874L17.6399 18.3521ZM17.1188 18.6812L16.7573 18.4526L17.0176 18.2878L17.3792 18.5164L17.1188 18.6812ZM16.5982 19.0107L15.6143 18.3887L15.8746 18.224L16.8585 18.8459L16.5982 19.0107ZM16.0771 19.3397L15.7155 19.1111L15.9759 18.9464L16.3374 19.175L16.0771 19.3397ZM15.556 19.6692L14.5721 19.0473L14.8324 18.8825L15.8163 19.5045L15.556 19.6692ZM15.0353 19.9983L14.6738 19.7697L14.9341 19.6049L15.2961 19.8335L15.0353 19.9983ZM14.5142 20.3278L13.5303 19.7059L13.7907 19.5411L14.7746 20.163L14.5142 20.3278ZM13.9936 20.6568L13.632 20.4282L13.8923 20.2635L14.2539 20.4921L13.9936 20.6568ZM13.4725 20.9858L12.4886 20.3639L12.7489 20.1991L13.7328 20.8211L13.4725 20.9858ZM12.5898 21.0868L12.8501 20.922L13.2122 21.1506L12.9518 21.3154L12.5898 21.0868ZM11.3451 20.3001L11.6055 20.1353L12.5894 20.7573L12.329 20.922L11.3451 20.3001ZM11.0848 20.1353L10.7233 19.9067L10.9836 19.742L11.3451 19.9706L11.0848 20.1353Z" fill="#E46F29"/>
<path d="M12.9514 21.6439V23.4855L10.2021 21.7478V19.9062L12.9514 21.6439Z" fill="#9E3B16"/>
<path d="M15.1509 17.1084V17.4374L14.8906 17.2727L15.1509 17.1084Z" fill="#C75123"/>
<path d="M15.6719 16.7788V17.1083L15.4111 16.9436L15.6719 16.7788Z" fill="#C75123"/>
<path d="M16.9161 17.5654V17.8945L16.6558 17.7302L16.9161 17.5654Z" fill="#C75123"/>
<path d="M15.7735 17.502V17.831L15.5127 17.6662L15.7735 17.502Z" fill="#C75123"/>
<path d="M17.0177 18.2881V18.6176L16.7573 18.4528L17.0177 18.2881Z" fill="#C75123"/>
<path d="M15.8746 18.2241V18.5531L15.6143 18.3889L15.8746 18.2241Z" fill="#C75123"/>
<path d="M14.626 17.4375V17.767L14.3652 17.6023L14.626 17.4375Z" fill="#C75123"/>
<path d="M14.731 18.1597V18.4892L14.4707 18.3244L14.731 18.1597Z" fill="#C75123"/>
<path d="M14.1094 17.7671V18.0961L13.8486 17.9314L14.1094 17.7671Z" fill="#C75123"/>
<path d="M15.9757 18.9463V19.2758L15.7153 19.1111L15.9757 18.9463Z" fill="#C75123"/>
<path d="M14.8326 18.8828V19.2118L14.5718 19.0471L14.8326 18.8828Z" fill="#C75123"/>
<path d="M13.588 18.0962V18.4257L13.3276 18.2609L13.588 18.0962Z" fill="#C75123"/>
<path d="M13.067 18.4258V18.7548L12.8066 18.59L13.067 18.4258Z" fill="#C75123"/>
<path d="M13.6895 18.8184V19.1479L13.4292 18.9831L13.6895 18.8184Z" fill="#C75123"/>
<path d="M14.9341 19.605V19.9345L14.6733 19.7697L14.9341 19.605Z" fill="#C75123"/>
<path d="M13.7906 19.5415V19.8705L13.5303 19.7058L13.7906 19.5415Z" fill="#C75123"/>
<path d="M12.5465 18.7549V19.0839L12.2861 18.9196L12.5465 18.7549Z" fill="#C75123"/>
<path d="M12.0255 19.0835V19.413L11.7651 19.2482L12.0255 19.0835Z" fill="#C75123"/>
<path d="M12.6475 19.4771V19.8066L12.3872 19.6418L12.6475 19.4771Z" fill="#C75123"/>
<path d="M13.8921 20.2637V20.5927L13.6313 20.4284L13.8921 20.2637Z" fill="#C75123"/>
<path d="M12.7486 20.1997V20.5287L12.4883 20.364L12.7486 20.1997Z" fill="#C75123"/>
<path d="M11.5044 19.4131V19.7421L11.2437 19.5779L11.5044 19.4131Z" fill="#C75123"/>
<path d="M10.9835 19.7422V20.0717L10.7231 19.907L10.9835 19.7422Z" fill="#C75123"/>
<path d="M11.606 20.1357V20.4653L11.3452 20.3005L11.606 20.1357Z" fill="#C75123"/>
<path d="M12.8502 20.9224V21.2519L12.5898 21.0871L12.8502 20.9224Z" fill="#C75123"/>
<path d="M14.377 49.6838L14.5595 49.7996V20.8628L14.377 20.7476V49.6838Z" fill="#ACBABA"/>
<path d="M14.682 49.7219L14.5596 49.799V20.8623L14.682 20.7852V49.7219Z" fill="#E3E3E3"/>
<path d="M14.4963 20.668L14.682 20.7852L14.5595 20.8624L14.377 20.7471L14.4963 20.668Z" fill="#F2F2F2"/>
<path d="M28.6699 40.6501L28.8525 40.7654V11.8291L28.6699 11.7134V40.6501Z" fill="#ACBABA"/>
<path d="M28.975 40.6877L28.8525 40.7649V11.8286L28.975 11.751V40.6877Z" fill="#E3E3E3"/>
<path d="M28.7892 11.6338L28.975 11.7511L28.8525 11.8282L28.6699 11.713L28.7892 11.6338Z" fill="#F2F2F2"/>
<path d="M42.9629 31.6154L43.1455 31.7312V2.79448L42.9629 2.67871V31.6154Z" fill="#ACBABA"/>
<path d="M43.268 31.654L43.1455 31.7312V2.79446L43.268 2.71729V31.654Z" fill="#E3E3E3"/>
<path d="M43.0822 2.6001L43.268 2.71738L43.1455 2.79455L42.9629 2.67878L43.0822 2.6001Z" fill="#F2F2F2"/>
<path d="M13.0953 25.5083V50.6773L12.9512 50.5862V26.3801C13.0027 26.0916 13.0488 25.8002 13.0953 25.5083Z" fill="#CAA58B"/>
<path d="M13.5214 24.2168C13.6502 24.0451 13.883 24.0312 14.0859 24.0228C15.6442 23.956 17.1343 23.8744 18.5512 23.1609C19.7471 22.5588 20.8222 21.4663 22.1383 21.4782C23.1259 21.4871 24.1943 22.1184 25.0376 21.5558C25.4588 21.2748 25.6943 20.7607 26.0328 20.3679C26.7573 19.5277 27.908 19.2902 28.6939 18.5194C29.3678 17.8588 29.7149 16.8648 30.4073 16.2275C31.3812 15.3315 32.7854 15.3439 34.0554 15.428C34.7053 15.471 35.3851 15.5155 35.9807 15.2281C36.6768 14.8921 37.1576 14.1485 37.8573 13.8214C38.5637 13.4909 39.3686 13.6364 40.1365 13.6092C41.1502 13.573 42.1526 13.2163 42.9919 12.5929C43.3024 12.3623 43.6969 12.0867 44.0178 12.2995C44.2397 12.4464 44.5954 12.8769 44.5801 13.5201V30.7771L13.0952 50.6776V25.5086C13.1445 25.1984 13.168 24.6878 13.5214 24.2168Z" fill="#E8C69D"/>
<path opacity="0.3" d="M13.522 24.2168C13.6634 24.0575 13.8167 24.0347 14.0191 24.0258C15.5775 23.9585 17.1344 23.8739 18.5518 23.1604C19.7476 22.5583 20.8228 21.4658 22.1389 21.4777C23.1264 21.4866 24.1949 22.1179 25.0382 21.5553C25.4594 21.2743 25.6949 20.7602 26.0334 20.3674C26.7579 19.5272 27.9086 19.2897 28.6945 18.5189C29.3684 17.8583 29.7155 16.8643 30.4079 16.2271C31.3818 15.331 32.786 15.3434 34.056 15.4275C34.7059 15.4705 35.3857 15.5151 35.9813 15.2276C36.6773 14.8917 37.1582 14.148 37.8578 13.8209C38.5642 13.4904 39.3692 13.6359 40.137 13.6087C41.1508 13.5726 42.1532 13.2158 42.9925 12.5924C43.303 12.3618 43.6975 12.0862 44.0184 12.299C44.2317 12.4405 44.5693 12.8442 44.5806 13.4474V15.0742C43.5886 14.6279 42.5184 15.8228 41.4337 15.9416C38.3997 16.2736 36.9345 17.179 35.0706 18.8138C34.0904 19.6732 33.1607 20.6613 31.982 21.1427C30.5145 21.7419 28.807 21.488 27.4213 22.2851C26.4167 22.863 25.7139 23.9224 24.7471 24.573C23.7723 25.2291 22.599 25.4255 21.5496 25.9257C20.6461 26.3567 19.838 27.0108 18.912 27.3804C17.9502 27.7643 16.9017 27.8242 15.93 28.1775C14.8715 28.5624 13.931 29.308 13.2499 30.2699C13.1437 30.4198 13.0443 30.5747 12.9512 30.7345V26.3795C13.1374 25.0945 13.1961 24.5839 13.522 24.2168Z" fill="black"/>
<path opacity="0.4" d="M39.4091 34.0461L38.0176 34.9258L39.2275 9.07109L40.619 8.19336L39.4091 34.0461Z" fill="black"/>
<path opacity="0.2" d="M47.2736 37.4876L39.4091 34.0464L38.0176 34.9261L45.882 38.3673L47.2736 37.4876Z" fill="black"/>
<path d="M40.6191 8.19189L39.2275 9.07111H39.3125L39.8707 8.82323L40.8695 8.19189H40.6191Z" fill="#E3E3E3"/>
<path d="M39.3125 9.07129H39.2275L45.8821 38.3672H45.9666L39.3125 9.07129Z" fill="#B2B3B1"/>
<path d="M39.3125 9.07112L45.9666 38.3671L46.5248 38.1192L39.8707 8.82324L39.3125 9.07112Z" fill="#D4D4D4"/>
<path d="M40.8694 8.19189L39.8706 8.82323L46.5247 38.1192L47.524 37.4878L40.8694 8.19189Z" fill="#E3E3E3"/>
<path opacity="0.14" d="M17.0608 52.1688L20.6353 54.3968L24.5971 51.8927L21.0226 49.6647C20.7347 49.4826 20.323 49.4064 19.9248 49.4603C19.3572 49.537 18.5572 49.7211 17.854 50.1659C17.1508 50.6102 16.8597 51.1164 16.7381 51.4751C16.6523 51.7264 16.7725 51.9867 17.0608 52.1688Z" fill="black"/>
<path d="M24.3999 47.1274L24.512 47.2179V47.0562L24.3999 47.1274Z" fill="#C9C9C9"/>
<path d="M19.855 48.2075C19.855 48.2075 19.855 52.3963 19.855 53.2657C19.855 54.135 20.9695 54.8395 22.3448 54.8395C23.7196 54.8395 24.8346 54.135 24.8346 53.2657C24.8346 52.3963 24.8346 48.2075 24.8346 48.2075H19.855Z" fill="#FCC901"/>
<path opacity="0.8" d="M19.855 48.2382C19.855 48.3604 19.855 48.8349 19.855 49.4009C20.2446 50.0298 21.2117 50.4751 22.3448 50.4751C23.4774 50.4751 24.445 50.0298 24.8346 49.4009C24.8346 48.8468 24.8346 48.3807 24.8346 48.2471C24.8206 48.2342 24.8066 48.2209 24.7912 48.207H19.8871C19.8758 48.2179 19.8654 48.2283 19.855 48.2382Z" fill="black"/>
<path d="M25.018 48.5656C25.018 49.4988 23.8212 50.2553 22.3447 50.2553C20.8682 50.2553 19.6714 49.4988 19.6714 48.5656C19.6714 48.5414 19.6714 48.2074 19.6714 48.2074C19.6714 48.2074 20.9066 46.8042 22.3447 46.8042C23.7046 46.8042 25.018 48.2074 25.018 48.2074C25.018 48.2074 25.018 48.4919 25.018 48.5656Z" fill="#E3E3E3"/>
<path d="M24.0532 47.1948C24.1156 47.2274 24.1762 47.2621 24.2349 47.2992C24.2932 47.3363 24.3479 47.3744 24.3999 47.414L24.512 47.3432L24.1653 47.124L24.0532 47.1948Z" fill="#B1B1B1"/>
<path d="M20.1768 49.3584L20.5234 49.5776V49.8641L20.1768 49.6454V49.3584Z" fill="#C9C9C9"/>
<path d="M25.018 48.2073C25.018 49.1404 23.8212 49.8969 22.3447 49.8969C20.8682 49.8969 19.6714 49.1404 19.6714 48.2073C19.6714 47.2741 20.8682 46.5176 22.3447 46.5176C23.8212 46.5171 25.018 47.2736 25.018 48.2073Z" fill="#F7F7F7"/>
<path d="M24.0532 46.9082C24.1156 46.9408 24.1762 46.9754 24.2349 47.0126C24.2932 47.0497 24.3479 47.0878 24.3999 47.1273L24.512 47.0566L24.1653 46.8374L24.0532 46.9082Z" fill="#F7F7F7"/>
<path d="M20.2893 49.2876C20.3413 49.3267 20.396 49.3653 20.4543 49.4024C20.5126 49.4395 20.5736 49.4741 20.636 49.5068L20.5239 49.5775L20.1772 49.3584L20.2893 49.2876Z" fill="#F7F7F7"/>
<path d="M22.3444 46.6694C21.0003 46.6694 19.9106 47.3582 19.9106 48.2077C19.9106 49.0572 21.0003 49.746 22.3444 49.746C23.6885 49.746 24.7782 49.0572 24.7782 48.2077C24.7782 47.3582 23.6885 46.6694 22.3444 46.6694Z" fill="#BFB9B4"/>
<path d="M22.3444 47.6045C21.2583 47.6045 20.3386 48.0542 20.0254 48.6752C20.3386 49.2961 21.2583 49.7454 22.3444 49.7454C23.4304 49.7454 24.3501 49.2957 24.6633 48.6752C24.3501 48.0542 23.4304 47.6045 22.3444 47.6045Z" fill="#AB9981"/>
<g opacity="0.2">
<path d="M22.3444 47.8029C23.3716 47.8029 24.2502 48.2052 24.6073 48.7741C24.6276 48.7415 24.6466 48.7088 24.6633 48.6752C24.3501 48.0542 23.4304 47.605 22.3444 47.605C21.2583 47.605 20.3386 48.0547 20.0254 48.6752C20.0426 48.7088 20.0611 48.7415 20.0814 48.7741C20.4385 48.2052 21.3171 47.8029 22.3444 47.8029Z" fill="black"/>
</g>
<path d="M19.6591 50.7851C19.576 50.7851 19.5186 50.7451 19.4869 50.6911C19.354 50.465 19.6496 50.0301 20.2579 49.5561L20.3059 49.5254C20.3483 49.4992 20.4039 49.5145 20.4283 49.5616C20.4532 49.6086 20.4383 49.6684 20.3953 49.6956L20.3551 49.7209C19.6799 50.2478 19.6211 50.5506 19.6388 50.5843C19.6573 50.6144 19.7016 50.6105 19.8557 50.5328V50.7263C19.7784 50.7683 19.7133 50.7851 19.6591 50.7851Z" fill="#4F4F4F"/>
<path d="M20.5234 49.5776V49.8641L20.636 49.7933V49.5063L20.5234 49.5776Z" fill="#E3E3E3"/>
<path opacity="0.14" d="M32.0483 44.7291C33.161 45.4322 32.789 46.8077 31.218 47.8007C29.6471 48.7937 27.4714 49.0287 26.3586 48.3252C25.2459 47.6221 25.6179 46.2466 27.1889 45.2541C28.7603 44.2605 30.9356 44.026 32.0483 44.7291Z" fill="black"/>
<path d="M19.558 23.2155L19.591 23.2002L20.2766 23.2616L20.2571 23.2754L19.5711 23.2141L19.5381 23.2294L19.558 23.2155Z" fill="#A6A6A6"/>
<path d="M20.2768 23.2617L20.2573 23.2756L21.6349 26.5832L21.6548 26.5693L20.2768 23.2617Z" fill="#727272"/>
<g opacity="0.33">
<path d="M19.5713 23.2139C18.8879 23.7794 18.2954 24.5245 17.9822 25.4221C17.6744 26.3201 17.6374 27.2963 17.7472 28.2265C17.7445 27.2884 17.791 26.3389 18.1033 25.473C18.394 24.5963 18.958 23.8685 19.5713 23.2139Z" fill="black"/>
</g>
<g opacity="0.33">
<path d="M21.2291 27.1099C20.5485 27.6724 20.0342 28.4764 19.7531 29.3661C19.4796 30.2601 19.4204 31.222 19.547 32.1423C19.528 31.2141 19.5953 30.2804 19.8755 29.4121C20.1386 28.5373 20.6217 27.7595 21.2291 27.1099Z" fill="black"/>
</g>
<path d="M21.6347 26.5828L20.2571 23.2752L19.5711 23.2139L19.5381 23.2292L21.176 27.1612L21.209 27.1459L21.6347 26.5828Z" fill="#E8E8E8"/>
<path d="M21.9896 26.2283L21.6028 25.2991C21.5372 25.1423 21.577 24.9666 21.6941 24.883L21.714 24.8691C21.5964 24.9528 21.5571 25.1284 21.6227 25.2853L22.0095 26.2139C22.0425 26.2931 22.024 26.3822 21.963 26.4257L21.9431 26.4396C22.0041 26.3965 22.0226 26.3075 21.9896 26.2283Z" fill="#191919"/>
<path d="M21.1499 24.213L20.7468 23.2448C20.7223 23.1864 20.6794 23.1478 20.6315 23.1359C20.617 23.1324 20.6021 23.1314 20.5872 23.1324C20.5822 23.1329 20.5773 23.1339 20.5723 23.1349C20.5624 23.1369 20.5524 23.1404 20.5425 23.1448L20.2568 23.2754L20.2767 23.2616L20.5624 23.131C20.641 23.0948 20.7278 23.1374 20.7666 23.2309L21.1698 24.1992C21.2254 24.3328 21.3668 24.3912 21.4712 24.3343L21.4513 24.3481C21.3469 24.405 21.2059 24.3466 21.1499 24.213Z" fill="#191919"/>
<path d="M21.4711 24.3341L21.4512 24.348C21.4575 24.3445 21.4634 24.3406 21.4692 24.3366L21.4891 24.3228C21.4833 24.3267 21.4774 24.3307 21.4711 24.3341Z" fill="#1A1A1A"/>
<path d="M21.8792 24.3892C21.853 24.3259 21.8733 24.2467 21.9221 24.2121L21.942 24.1982C21.8932 24.2329 21.8724 24.312 21.8991 24.3754C21.9244 24.4357 21.9827 24.46 22.0306 24.4338L22.0107 24.4476C21.9623 24.4738 21.904 24.4496 21.8792 24.3892Z" fill="#191919"/>
<path d="M22.2512 24.4775L22.2317 24.4914L21.6948 24.8828L21.7147 24.8689L22.2512 24.4775Z" fill="#181818"/>
<path d="M22.0896 24.0889L22.0702 24.1027L21.9229 24.2111L21.9427 24.1972L22.0896 24.0889Z" fill="#181818"/>
<path d="M21.9205 26.4527L21.6349 26.5833L20.2573 23.2757L20.543 23.1451C20.6216 23.109 20.7084 23.1515 20.7472 23.2451L21.1504 24.2133C21.2096 24.3558 21.3664 24.4132 21.4722 24.3356L22.0046 23.9462C22.1185 23.865 22.2631 23.916 22.3264 24.0684C22.3878 24.2158 22.3435 24.4058 22.2319 24.4919L21.6954 24.8833C21.5775 24.9664 21.5373 25.1426 21.6028 25.2999L21.9897 26.2286C22.0263 26.3167 21.9991 26.4166 21.9205 26.4527ZM21.8789 24.389C21.9056 24.4528 21.9693 24.4766 22.019 24.4419L22.1664 24.3336C22.2138 24.294 22.231 24.2163 22.2043 24.1525C22.1777 24.0887 22.1198 24.0684 22.0701 24.1025L21.9228 24.2109C21.8731 24.245 21.8523 24.3252 21.8789 24.389Z" fill="#2E2E2E"/>
<path d="M22.3265 24.0676C22.2673 23.9251 22.1372 23.8712 22.0273 23.931L22.0472 23.9172C22.1571 23.8573 22.2868 23.9112 22.3464 24.0537C22.4079 24.2012 22.3636 24.3912 22.252 24.4773L22.2321 24.4911C22.3437 24.405 22.388 24.215 22.3265 24.0676Z" fill="#191919"/>
<path d="M31.5622 30.639C31.5622 31.6692 33.1734 31.7914 33.0767 30.4307C32.98 29.0696 31.0185 26.2662 31.0185 26.2662C30.7885 25.8377 30.2461 25.6947 29.8552 25.9465C29.4638 26.1984 29.3332 26.7496 29.5632 27.178C29.5632 27.178 31.5622 30.1294 31.5622 30.639Z" fill="#D9B9AE"/>
<path d="M29.2036 45.0854C29.2036 44.5851 29.7419 44.309 30.5409 44.5406L31.3536 44.3363C31.622 44.269 31.8783 44.4921 31.8783 44.7939V45.9666L31.8706 45.9641C31.8814 46.0749 31.8258 46.1872 31.6921 46.2718C31.4444 46.4282 31.0426 46.4282 30.7945 46.2718L29.3889 45.3832C29.2597 45.3016 29.2014 45.1937 29.2072 45.0863L29.2036 45.0854Z" fill="black"/>
<path d="M31.3052 39.334L29.0992 39.3662L29.0983 39.3127L29.0644 36.5326L29.021 33.0063L31.2265 32.9736C31.2265 32.9736 31.4701 33.8776 31.4728 35.0082C31.4756 36.1387 31.2704 36.8102 31.2984 38.819L31.3052 39.334Z" fill="#0258BF"/>
<path d="M29.0999 39.3139C29.1465 38.8795 29.4362 38.1383 29.824 38.0324C30.1453 37.9448 30.477 38.1056 30.7631 38.2882C30.966 38.4178 31.1807 39.116 31.3055 39.3337C31.3258 40.3851 31.6164 42.4597 31.9843 44.7154C32.0015 44.8905 31.9129 45.0776 31.7149 45.2359C31.3186 45.5525 30.6339 45.6327 30.1855 45.4155C29.9614 45.3066 29.8384 45.1444 29.8212 44.9692C29.7376 44.7278 29.0534 39.7488 29.0999 39.3139Z" fill="#0258BF"/>
<path d="M31.7528 43.2503L31.6823 42.7803C31.7013 42.9569 31.6312 43.1405 31.4328 43.3033C31.036 43.6278 30.3454 43.7179 29.8903 43.5041C29.6707 43.4007 29.5531 43.2454 29.5278 43.0757L29.5911 43.5284C29.6169 43.7085 29.7244 43.8668 29.9518 43.9737C30.4069 44.1874 31.0975 44.0974 31.4943 43.7728C31.6936 43.6105 31.7808 43.4314 31.7528 43.2503Z" fill="#FFC50C"/>
<path opacity="0.2" d="M30.1261 36.1187C29.5183 36.9563 29.3094 38.1354 29.0988 39.3129L29.0649 36.5328C29.4473 36.5323 29.8301 36.3858 30.1261 36.1187Z" fill="#1D1D1B"/>
<path d="M26.3062 47.0466C26.2741 46.5478 26.7514 46.1832 27.6607 46.4553L28.3463 46.199C28.6894 46.1129 29.0166 46.3979 29.0166 46.7834V47.7927L29.0089 47.7902C29.0197 47.9011 28.9646 48.0134 28.8304 48.098C28.5827 48.2548 28.2261 48.2459 27.9689 48.1089L26.5105 47.3301C26.3763 47.2583 26.3116 47.1554 26.3103 47.0481L26.3062 47.0466Z" fill="black"/>
<path d="M27.3548 34.1089L26.7168 40.4316L28.9091 40.6968L29.5471 34.374L27.3548 34.1089Z" fill="#0258BF"/>
<path d="M26.701 40.4807C26.7796 40.0518 27.1041 39.7247 27.4987 39.654C27.8254 39.5951 28.1441 39.7846 28.4157 39.9919C28.6087 40.1388 28.7894 40.4659 28.8975 40.6945C28.8179 41.929 29.0159 44.6216 29.1316 46.6106C29.1212 46.7862 29.0046 46.9539 28.7849 47.0727C28.3452 47.3102 27.6577 47.2612 27.2501 46.9628C27.0463 46.8139 26.9504 46.6304 26.9613 46.4552C26.8958 46.2063 26.6228 40.9102 26.701 40.4807Z" fill="#0258BF"/>
<path d="M29.0113 44.6192C29.0095 44.8023 28.9201 44.9824 28.704 45.1199C28.272 45.3945 27.5759 45.3866 27.1493 45.1021C26.9432 44.9646 26.8429 44.8067 26.832 44.6138L26.8587 45.0917C26.87 45.2817 26.9428 45.4489 27.1574 45.5914C27.5872 45.8759 28.2882 45.8839 28.7235 45.6093C28.9408 45.4722 29.0489 45.2985 29.0412 45.1145L29.0113 44.6192Z" fill="#FFC50C"/>
<path d="M31.3312 33.6474C31.4731 34.8082 27.4245 36.0407 27.2822 34.6706C27.2297 34.166 26.7227 27.8303 26.7227 27.8303C26.912 27.2702 27.2713 26.8076 28.5883 26.1669C29.32 25.8111 29.6617 25.7537 30.1977 25.7784C31.4537 25.8363 31.413 27.7694 31.404 28.7115C31.3981 29.3216 31.2621 30.0227 31.2327 30.6323C31.187 31.5906 31.2142 32.549 31.3154 33.5025C31.3204 33.551 31.3253 33.5994 31.3312 33.6474Z" fill="#0258BF"/>
<path d="M28.3003 34.6349C28.1602 34.6602 28.1448 34.3688 28.2239 34.2317C28.3455 34.0214 28.3477 34.0031 28.3844 33.9413C28.4693 33.7953 28.5963 33.6721 28.6768 33.5914C28.6953 33.5726 28.7143 33.5553 28.7328 33.538C28.675 33.5395 28.604 33.535 28.5136 33.5192C28.3717 33.4945 28.3071 33.3381 28.4106 33.2233C28.5105 33.112 28.7156 33.1699 28.8548 33.1363C28.9683 33.109 29.0614 33.0249 29.1549 32.9502C29.328 32.8122 29.5436 32.6939 29.7493 32.7582C29.9743 32.828 30.1339 32.9383 30.2188 33.2065C30.2197 33.209 30.2202 33.211 30.2211 33.213C30.2622 33.3391 30.2731 33.4935 30.2039 33.7176C30.1298 33.9581 29.9743 34.0655 29.7719 34.1891C29.5703 34.3123 29.5052 34.3663 29.3701 34.5711C29.187 34.8487 29.0031 34.7859 29.0216 34.6909C28.8851 34.8739 28.689 34.9308 28.6185 34.7903C28.5163 34.8843 28.2741 34.8383 28.3003 34.6349Z" fill="#FFCEA1"/>
<path d="M30.0657 33.6858C29.9233 33.622 29.7959 33.5141 29.7014 33.3657C29.5934 33.195 29.5464 32.998 29.5559 32.8056C29.5599 32.717 29.5758 32.6289 29.6038 32.5458C29.7755 32.0362 31.7433 30.8131 31.3149 30.0071C31.0351 29.4811 33.4874 29.5301 33.0061 30.9709C32.5555 32.3197 30.8453 33.5913 30.8453 33.5913C30.6076 33.7714 30.3147 33.7961 30.0657 33.6858Z" fill="#D9B9AE"/>
<path d="M27.8647 27.2859C28.5675 27.6971 28.4486 28.6515 28.4545 29.506C28.4604 30.3605 27.8991 30.4817 27.2722 30.261C27.1389 30.2155 27.0177 30.17 26.902 30.0483C26.8026 28.8217 26.7222 27.8307 26.7222 27.8307C26.78 27.6595 26.8587 27.4977 26.9707 27.3364C27.2067 27.1617 27.5068 27.0761 27.8647 27.2859Z" fill="#E4C6BB"/>
<path opacity="0.1" d="M27.7149 29.0045C27.1337 29.3558 27.3208 30.7847 26.9755 30.9702L26.7866 28.6274L27.7149 29.0045Z" fill="#1D1D1B"/>
<path d="M27.3276 26.9426C27.6142 26.6833 28.0123 26.4468 28.5881 26.1673C29.0161 25.959 29.3094 25.86 29.5874 25.813C29.6936 25.813 29.7198 25.8135 29.7822 25.8234C30.4104 25.9199 30.8583 26.5428 30.8569 27.4829C30.8556 28.2686 28.9063 28.85 28.9063 28.4264C28.9063 28.0029 28.7929 27.6442 28.5664 27.3602C28.2948 27.0193 27.9748 26.8392 27.4619 26.8981C27.4244 26.9025 27.3719 26.9178 27.3276 26.9426Z" fill="#E4C6BB"/>
<path d="M29.4776 24.1129C29.4645 24.379 29.4509 24.6462 29.3963 24.906C29.3416 25.1652 29.2426 25.4191 29.0781 25.6145C28.8923 25.8347 28.6257 25.9668 28.3531 25.9831C28.2677 25.9891 28.1819 25.9831 28.0973 25.9648C28.0133 25.9465 27.9301 25.9163 27.861 25.8609C27.753 25.7748 27.6915 25.6393 27.6476 25.4987V25.4977C27.6377 25.4666 27.6287 25.4349 27.6205 25.4037C27.5365 25.0866 27.428 24.8981 27.3986 24.5695C27.3801 24.3622 27.4497 24.0941 27.4619 23.8516C27.4746 23.6027 27.4298 23.3801 27.442 23.1668C27.4483 23.056 27.4569 22.9427 27.4886 22.8368C27.5826 22.5231 27.8763 22.3163 28.176 22.2757C28.4756 22.2352 28.7775 22.3346 29.0505 22.4756C29.1255 22.5147 29.2001 22.5573 29.2602 22.6201C29.3172 22.68 29.3578 22.7557 29.4103 22.821C29.4749 22.8997 29.4975 23.7131 29.4776 24.1129Z" fill="#FFCEA1"/>
<path opacity="0.5" d="M28.4045 25.3563C28.4049 25.5166 28.4013 25.677 28.3977 25.8373C28.3968 25.8719 28.3959 25.9075 28.3828 25.9392C28.376 25.956 28.3652 25.9708 28.353 25.9832C28.2675 25.9892 28.1817 25.9832 28.0972 25.9649C28.0131 25.9466 27.9299 25.9164 27.8608 25.861C27.7528 25.7749 27.6913 25.6394 27.6475 25.4988V25.4978C27.9295 25.7957 28.1103 25.5419 28.1762 24.6948C28.2242 25.0911 28.404 24.9561 28.4045 25.3563Z" fill="#1D1D1B"/>
<path d="M29.8756 23.9751H28.1763V26.3827H29.8756V23.9751Z" fill="#FFCEA1"/>
<path d="M29.6302 25.936C29.9628 26.1463 29.9628 26.4872 29.6302 26.6975C29.2975 26.9078 28.7579 26.9078 28.4253 26.6975C28.0926 26.4872 28.0926 26.1463 28.4253 25.936C28.7583 25.7257 29.2975 25.7257 29.6302 25.936Z" fill="#FFCEA1"/>
<path d="M27.793 23.4095C28.0434 23.5683 28.1559 23.8667 28.1826 24.1818C28.2092 24.497 28.1663 24.8156 28.1921 25.1313C28.2178 25.4465 28.3304 25.78 28.5794 25.9413C28.7538 26.0541 28.9663 26.0645 29.1687 26.062C29.434 26.0585 29.8995 25.921 30.0311 25.6652C31.2979 22.3635 29.4123 21.9919 28.9269 21.9563C28.075 21.8945 27.0382 22.458 27.4405 23.1918C27.5019 23.3041 27.7067 23.3551 27.793 23.4095Z" fill="#2F2F2F"/>
<path d="M28.2475 23.9757C28.154 23.9786 28.0857 24.0717 28.0577 24.1622C28.0225 24.275 28.0247 24.3942 28.027 24.5115C28.0302 24.6604 28.0347 24.8153 28.102 24.9464C28.1201 24.9815 28.1445 25.0162 28.1811 25.031C28.2358 25.0533 28.3027 25.0226 28.3397 24.9746C28.3768 24.9266 28.3908 24.8653 28.4017 24.8064C28.4333 24.6352 28.4478 24.461 28.4441 24.2884C28.4428 24.2191 28.4383 24.1479 28.408 24.086C28.3777 24.0237 28.3167 23.9732 28.2475 23.9757Z" fill="#FFCEA1"/>
<path d="M27.4609 29.0587L24.2087 29.0434C24.0934 29.0429 23.9836 29.0172 23.8837 28.9712C23.6234 28.8504 23.4295 28.5917 23.3789 28.279C23.3703 28.225 23.3658 28.1691 23.3662 28.1122C23.3671 27.8391 23.4765 27.5932 23.6496 27.4245C23.8001 27.2775 23.999 27.1885 24.2159 27.1895L27.4682 27.2053C27.8835 27.2073 28.2279 27.5368 28.298 27.9702C28.3065 28.0237 28.3111 28.0791 28.3111 28.136C28.3092 28.6481 27.9283 29.0612 27.4609 29.0587Z" fill="#E4C6BB"/>
<path d="M22.1813 24.4613C22.1465 24.2985 22.1035 23.9888 22.1948 23.8349C22.2265 23.7815 22.2712 23.7473 22.3177 23.7592C22.3747 23.7735 22.4018 23.8596 22.4109 23.917C22.4276 24.0274 22.4448 24.1382 22.4615 24.2485C22.4805 24.3707 22.4493 24.5741 22.4714 24.7507C22.3318 24.6914 22.2129 24.6092 22.1813 24.4613Z" fill="#FFCEA1"/>
<path d="M21.1396 24.63C20.962 24.4964 20.9552 24.2896 21.0764 24.2366C20.9345 24.1456 20.9815 23.8695 21.169 23.8814C21.0863 23.7384 21.2391 23.5815 21.4004 23.6602C21.5613 23.7389 21.7091 23.8364 21.7683 23.871C21.908 23.9516 22.0313 24.0798 22.1113 24.1609C22.2239 24.2747 22.3129 24.395 22.3807 24.5459C22.5484 24.9194 22.7631 25.2638 22.7314 25.6705C22.7287 25.7037 22.7115 25.7348 22.6862 25.7531C22.585 25.8259 22.4679 25.8833 22.2885 25.8684C22.0476 25.8486 21.8325 25.6923 21.6987 25.4716C21.5396 25.2089 21.4194 25.0877 21.2034 24.9437C20.9891 24.8007 21.0515 24.6181 21.1396 24.63Z" fill="#FFCEA1"/>
<path d="M23.5558 28.7013L21.8302 26.2719C21.5505 25.8806 21.4804 25.6134 21.6951 25.3398C21.6951 25.3398 22.5077 24.2493 23.0053 24.9919L24.8497 27.592V27.5925C25.0468 27.8681 25.0743 28.2303 24.9473 28.5276C24.8945 28.6518 24.8145 28.7646 24.7092 28.8552C24.3521 29.1614 23.8355 29.0927 23.5558 28.7013Z" fill="#E4C6BB"/>
<path d="M26.9923 21.6728C27.2422 21.5293 27.5287 21.4041 27.8794 21.4828C28.2297 21.5615 28.2184 21.5966 29.0261 22.0058L28.0553 23.8187L26.6352 23.0607C26.1995 22.8197 26.4305 21.9954 26.9923 21.6728Z" fill="#186FD9"/>
<path d="M27.6211 23.558C27.8493 23.7663 28.1444 23.931 28.4626 24.0379C29.0492 24.2353 29.6033 24.2235 30.0688 23.9444C30.7151 23.5565 30.6058 23.0845 30.4616 22.5283C30.2935 21.8807 29.7972 21.3889 29.3109 21.3255C28.7216 21.2488 28.101 21.3092 27.8018 21.8371C27.4001 22.5452 27.2726 22.9311 27.391 23.2191C27.4529 23.3695 27.5456 23.4783 27.6211 23.558Z" fill="#0258BF"/>
<path opacity="0.1" d="M27.948 22.3335C27.8386 22.7828 27.8093 23.1044 27.8522 23.3532C27.9015 23.6402 28.0538 23.8297 28.4027 24.0172C28.1076 23.9104 27.835 23.7535 27.6208 23.5581C27.5485 23.4819 27.4604 23.3785 27.3984 23.2375C27.581 23.3626 27.7415 22.9203 27.948 22.3335Z" fill="black"/>
<path d="M29.8773 25.8398C29.8864 25.9348 29.8642 26.0066 29.8005 26.0719C29.5492 26.3302 29.034 26.5108 28.2245 26.2921C27.994 26.2297 27.9045 26.4178 27.8408 26.6285C28.4686 26.9724 29.0168 26.9734 29.4371 26.8576C29.7978 26.7582 30.0093 26.4598 30.0278 26.2822C30.0129 26.1352 30.021 25.9591 29.8773 25.8398Z" fill="#D9B9AE"/>
</svg>
