<svg width="51" height="55" viewBox="0 0 51 55" fill="none" xmlns="http://www.w3.org/2000/svg">
<path d="M26.1162 53.4819V54.8873L50.0156 39.7814V38.376L26.1162 53.4819Z" fill="#DEBE97"/>
<path d="M0 36.9746V38.38L26.1164 54.8873V53.4819L0 36.9746Z" fill="#CAA58B"/>
<path d="M0 36.9745L26.1164 53.4818L50.0158 38.3759L23.899 21.8687L0 36.9745Z" fill="#EFE1BC"/>
<path opacity="0.5" d="M23.899 21.8687L0 36.9745L10.1363 40.8154L29.9758 28.2755V25.7792L23.899 21.8687Z" fill="black"/>
<path opacity="0.5" d="M25.1485 31.7212L23.0381 33.0552L33.5768 37.0487L25.1485 31.7212Z" fill="black"/>
<path opacity="0.5" d="M21.1918 33.5338C19.6722 32.5733 17.6456 32.2965 16.6662 32.9158C15.6864 33.5351 16.1244 34.8158 17.644 35.7763C19.1636 36.7367 21.1897 37.0136 22.1696 36.3943C23.149 35.7754 22.7114 34.4947 21.1918 33.5338Z" fill="black"/>
<path d="M17.2305 24.8357V25.9102C17.2305 26.2021 17.3273 26.328 17.5636 26.328V24.5318C17.5636 24.5318 17.2305 24.5043 17.2305 24.8357Z" fill="#A24D28"/>
<path d="M17.3384 24.8754V26.2733C17.3384 26.653 17.4644 26.8167 17.772 26.8167V24.4797C17.772 24.4797 17.3384 24.4442 17.3384 24.8754Z" fill="#493737"/>
<path d="M19.4178 33.7547C19.4178 33.3443 18.9761 33.1176 18.32 33.3075L17.6534 33.1398C17.433 33.0844 17.2227 33.268 17.2227 33.5156V34.4778L17.2287 34.4756C17.2198 34.5665 17.2652 34.6588 17.375 34.728C17.5784 34.8566 17.9083 34.8566 18.1117 34.728L19.265 33.9991C19.3712 33.9321 19.419 33.8434 19.4141 33.7556L19.4178 33.7547Z" fill="black"/>
<path d="M17.693 29.0346L19.5032 29.0612L19.504 29.0173L19.532 26.7353L19.5676 23.8415L17.7579 23.8145C17.7579 23.8145 17.5577 24.5562 17.5557 25.4843C17.5537 26.4123 17.7218 26.9629 17.6987 28.6114L17.693 29.0346Z" fill="#0258BF"/>
<path d="M19.5029 29.0184C19.4648 28.6617 19.227 28.0535 18.9089 27.967C18.6451 27.8951 18.3728 28.0269 18.1381 28.1768C17.9716 28.2833 17.7953 28.856 17.6932 29.0348C17.6766 29.8976 17.4379 31.6003 17.136 33.4515C17.1218 33.5952 17.1944 33.7487 17.3573 33.8787C17.6823 34.1387 18.2443 34.2048 18.6127 34.0264C18.7966 33.9373 18.8975 33.8037 18.9113 33.6605C18.9794 33.4613 19.541 29.375 19.5029 29.0184Z" fill="#0258BF"/>
<path d="M17.3259 32.2488L17.3834 31.8633C17.3676 32.0079 17.4251 32.1592 17.588 32.2923C17.9134 32.5589 18.4804 32.6325 18.854 32.4569C19.0343 32.3721 19.1303 32.2444 19.1514 32.1051L19.0991 32.4768C19.0781 32.6245 18.9897 32.7545 18.8033 32.8424C18.4297 33.0176 17.8632 32.944 17.5374 32.6778C17.3749 32.5442 17.3032 32.3974 17.3259 32.2488Z" fill="#FFC50C"/>
<path opacity="0.2" d="M18.6611 26.396C19.16 27.0836 19.3314 28.0512 19.5044 29.0174L19.5324 26.7354C19.2179 26.7354 18.9039 26.6151 18.6611 26.396Z" fill="#1D1D1B"/>
<path d="M10.1364 13.4577L8.91992 12.6889L28.7594 0.149414L29.9759 0.918217L10.1364 13.4577Z" fill="#EFE1BC"/>
<path d="M10.1364 40.8157L8.91992 40.0469V12.689L10.1364 13.4578V40.8157Z" fill="#CAA58B"/>
<path d="M29.9757 0.917969L10.1362 13.4575V40.8154L15.2749 37.5672V14.0014L24.837 7.95785V31.5237L29.9757 28.2754V0.917969Z" fill="#DEBE97"/>
<path d="M15.5864 37.765V14.1987L25.1485 8.15479V31.721L15.5864 37.765ZM24.7506 8.90895L15.9844 14.4498V37.0104L24.7506 31.4695V8.90895Z" fill="#BF5902"/>
<path opacity="0.5" d="M18.2207 35.5972V36.0998L21.7044 33.8986V33.3955L18.2207 35.5972Z" fill="black"/>
<path d="M23.3589 9.78933V30.59L24.7508 31.4702V8.90918L23.3589 9.78933Z" fill="#A14D02"/>
<path d="M23.3587 30.5898L15.9844 35.251V37.0109L24.7506 31.47L23.3587 30.5898Z" fill="#D46D17"/>
<path opacity="0.5" d="M21.2207 33.03C20.9213 32.8406 20.6036 32.676 20.2778 32.5376L16.8804 34.6847C17.0996 34.8906 17.3598 35.0915 17.6592 35.281C17.8408 35.3954 18.0288 35.501 18.2213 35.5973L21.705 33.3956C21.5522 33.274 21.4019 33.1445 21.2207 33.03Z" fill="black"/>
<path d="M24.837 7.95801L15.2749 14.0015L15.5865 14.1989L25.1486 8.15498L24.837 7.95801Z" fill="#D46D17"/>
<path d="M15.2749 14.0015V37.5682L15.5865 37.7651V14.1989L15.2749 14.0015Z" fill="#A14D02"/>
<path d="M24.7012 27.7067L24.3823 27.5053C24.3074 27.4578 24.2466 27.3305 24.2466 27.2209V25.9096C24.2466 25.8497 24.2648 25.8075 24.2936 25.7893C24.3175 25.7742 24.3487 25.7756 24.3827 25.7973L24.7016 25.9987L24.7012 27.7067Z" fill="#E3E3E3"/>
<path opacity="0.2" d="M24.7013 25.998V27.7064L24.6616 27.6815V25.9731L24.7013 25.998Z" fill="black"/>
<path d="M24.4315 25.7655C24.3975 25.7438 24.3663 25.7424 24.3424 25.758C24.3136 25.7761 24.293 25.7895 24.293 25.7895C24.3169 25.7744 24.3481 25.7757 24.3821 25.7974L24.701 25.9988V27.7073L24.7509 27.6758V25.9678L24.4315 25.7655Z" fill="#C9C9C9"/>
<path opacity="0.6" d="M24.5219 26.0987C24.5219 26.132 24.5004 26.1458 24.4741 26.1289C24.4477 26.112 24.4263 26.0717 24.4263 26.0379C24.4263 26.0042 24.4477 25.9909 24.4741 26.0078C24.5004 26.0242 24.5219 26.065 24.5219 26.0987Z" fill="black"/>
<path opacity="0.6" d="M24.5219 26.4601C24.5219 26.4933 24.5004 26.5071 24.4741 26.4902C24.4477 26.4734 24.4263 26.433 24.4263 26.3993C24.4263 26.3656 24.4477 26.3523 24.4741 26.3691C24.5004 26.386 24.5219 26.4268 24.5219 26.4601Z" fill="black"/>
<path opacity="0.6" d="M24.5219 27.3789C24.5219 27.3456 24.5004 27.3048 24.4741 27.288C24.4477 27.2711 24.4263 27.2849 24.4263 27.3181C24.4263 27.3514 24.4477 27.3922 24.4741 27.4091C24.5004 27.4259 24.5219 27.4126 24.5219 27.3789Z" fill="black"/>
<path opacity="0.6" d="M24.5219 27.0181C24.5219 26.9848 24.5004 26.944 24.4741 26.9271C24.4477 26.9103 24.4263 26.924 24.4263 26.9573C24.4263 26.9906 24.4477 27.0314 24.4741 27.0482C24.5004 27.0651 24.5219 27.0514 24.5219 27.0181Z" fill="black"/>
<path d="M24.7012 25.9268C24.7012 25.9268 24.7012 27.7328 24.7012 27.7691C24.7012 27.8055 24.7474 27.8343 24.8045 27.8343C24.8616 27.8343 24.9078 27.8051 24.9078 27.7691C24.9078 27.7332 24.9078 25.9268 24.9078 25.9268H24.7012Z" fill="#E3E3E3"/>
<path d="M24.8045 25.9918C24.7474 25.9918 24.7012 25.9625 24.7012 25.9265C24.7012 25.8906 24.7474 25.8613 24.8045 25.8613C24.8616 25.8613 24.9078 25.8906 24.9078 25.9265C24.9078 25.9625 24.8616 25.9918 24.8045 25.9918Z" fill="#C9C9C9"/>
<path d="M24.7012 14.4435L24.3823 14.2421C24.3074 14.1946 24.2466 14.0673 24.2466 13.9577V12.6464C24.2466 12.5865 24.2648 12.5443 24.2936 12.5262C24.3175 12.5111 24.3487 12.5124 24.3827 12.5341L24.7016 12.7355L24.7012 14.4435Z" fill="#E3E3E3"/>
<path opacity="0.2" d="M24.7013 12.7353V14.4437L24.6616 14.4184V12.7104L24.7013 12.7353Z" fill="black"/>
<path d="M24.4315 12.5023C24.3975 12.4806 24.3663 12.4792 24.3424 12.4948C24.3136 12.513 24.293 12.5263 24.293 12.5263C24.3169 12.5112 24.3481 12.5125 24.3821 12.5343L24.701 12.7357V14.4436L24.7509 14.4121V12.7037L24.4315 12.5023Z" fill="#C9C9C9"/>
<path opacity="0.6" d="M24.5219 12.8355C24.5219 12.8687 24.5004 12.8825 24.4741 12.8656C24.4477 12.8488 24.4263 12.8084 24.4263 12.7747C24.4263 12.7414 24.4477 12.7277 24.4741 12.7445C24.5004 12.7614 24.5219 12.8022 24.5219 12.8355Z" fill="black"/>
<path opacity="0.6" d="M24.5219 13.1974C24.5219 13.2306 24.5004 13.2444 24.4741 13.2275C24.4477 13.2107 24.4263 13.1703 24.4263 13.1366C24.4263 13.1029 24.4477 13.0896 24.4741 13.1064C24.5004 13.1233 24.5219 13.1641 24.5219 13.1974Z" fill="black"/>
<path opacity="0.6" d="M24.5219 14.1162C24.5219 14.083 24.5004 14.0421 24.4741 14.0253C24.4477 14.0084 24.4263 14.0222 24.4263 14.0554C24.4263 14.0887 24.4477 14.1295 24.4741 14.1464C24.5004 14.1632 24.5219 14.1499 24.5219 14.1162Z" fill="black"/>
<path opacity="0.6" d="M24.5219 13.7549C24.5219 13.7216 24.5004 13.6808 24.4741 13.664C24.4477 13.6471 24.4263 13.6608 24.4263 13.6941C24.4263 13.7274 24.4477 13.7682 24.4741 13.7851C24.5004 13.8019 24.5219 13.7886 24.5219 13.7549Z" fill="black"/>
<path d="M24.7012 12.6636C24.7012 12.6636 24.7012 14.4696 24.7012 14.5059C24.7012 14.5419 24.7474 14.5712 24.8045 14.5712C24.8616 14.5712 24.9078 14.5419 24.9078 14.5059C24.9078 14.47 24.9078 12.6636 24.9078 12.6636H24.7012Z" fill="#E3E3E3"/>
<path d="M24.8045 12.7291C24.7474 12.7291 24.7012 12.6998 24.7012 12.6638C24.7012 12.6279 24.7474 12.5986 24.8045 12.5986C24.8616 12.5986 24.9078 12.6279 24.9078 12.6638C24.9078 12.6998 24.8616 12.7291 24.8045 12.7291Z" fill="#C9C9C9"/>
<path d="M32.6819 25.266L26.2023 21.1704L25.7051 21.4845L32.6819 25.8941V25.266Z" fill="#BF5902"/>
<path d="M24.8105 8.94727V31.5078L33.5772 37.0487V14.4881L24.8105 8.94727ZM32.6821 35.3518L25.7053 30.9422V10.6441L32.6821 15.0538V35.3518Z" fill="#D46D17"/>
<path d="M26.2023 10.9586L25.7051 10.644V30.9421L32.6819 35.3517V34.7236L26.2023 30.628V10.9586Z" fill="#BF5902"/>
<path d="M25.3078 8.63281L24.8105 8.9469L33.5768 14.4878L34.074 14.1737L25.3078 8.63281Z" fill="#E38030"/>
<path d="M33.5767 14.4879V37.0489L34.0739 36.7344V14.1738L33.5767 14.4879Z" fill="#BF5902"/>
<path d="M33.9487 28.2813L33.7692 28.3949C33.7416 28.4122 33.7165 28.4131 33.6974 28.3998C33.676 28.3847 33.6626 28.3523 33.6626 28.3066V26.3742C33.6626 26.2881 33.7104 26.1883 33.7692 26.151L33.9487 26.0375C33.9762 26.0202 34.0014 26.0193 34.0204 26.0326C34.0419 26.0477 34.0553 26.08 34.0553 26.1257V28.0582C34.0553 28.1442 34.0078 28.244 33.9487 28.2813Z" fill="#D8D8D8"/>
<path d="M33.663 28.3069V26.3744C33.663 26.2884 33.7108 26.1886 33.7696 26.1517L33.9491 26.0382C33.9767 26.0209 34.0018 26.02 34.0208 26.0333C34.0208 26.0333 34.007 26.0235 33.9835 26.0098C33.9649 25.9991 33.9414 26.0005 33.9155 26.0169L33.736 26.1304C33.6772 26.1677 33.6294 26.2675 33.6294 26.3531V28.2856C33.6294 28.3313 33.6428 28.3637 33.6642 28.3787C33.6833 28.392 33.6979 28.4 33.6979 28.4C33.6764 28.3849 33.663 28.3526 33.663 28.3069Z" fill="#949494"/>
<path d="M34.0745 27.0245L33.7734 27.0511L33.9453 26.9424L34.0745 27.0245Z" fill="#878787"/>
<path d="M34.0745 27.4636L33.7734 27.4907V27.051L34.0745 27.0244V27.4636Z" fill="#5E5E5E"/>
<path opacity="0.6" d="M33.7891 26.2549C33.7891 26.2788 33.7737 26.3081 33.7546 26.3201C33.7356 26.3321 33.7202 26.3223 33.7202 26.2984C33.7202 26.2744 33.7356 26.2451 33.7546 26.2331C33.7741 26.2212 33.7891 26.2309 33.7891 26.2549Z" fill="black"/>
<path opacity="0.6" d="M33.7891 28.2661C33.7891 28.2422 33.7737 28.2324 33.7546 28.2444C33.7356 28.2564 33.7202 28.2856 33.7202 28.3096C33.7202 28.3335 33.7356 28.3433 33.7546 28.3313C33.7741 28.3194 33.7891 28.2901 33.7891 28.2661Z" fill="black"/>
<path opacity="0.6" d="M33.9292 26.167C33.9292 26.191 33.9446 26.2007 33.9636 26.1887C33.9827 26.1768 33.9981 26.1475 33.9981 26.1235C33.9981 26.0996 33.9827 26.0898 33.9636 26.1018C33.9446 26.1138 33.9292 26.1431 33.9292 26.167Z" fill="black"/>
<path opacity="0.6" d="M33.9292 28.1778C33.9292 28.1538 33.9446 28.1245 33.9636 28.1125C33.9827 28.1006 33.9981 28.1103 33.9981 28.1343C33.9981 28.1582 33.9827 28.1875 33.9636 28.1995C33.9446 28.2115 33.9292 28.2017 33.9292 28.1778Z" fill="black"/>
<path opacity="0.4" d="M32.6821 15.0537L25.9043 10.77V21.3589L32.6837 25.6439L32.6821 15.0537Z" fill="#2D6EA1"/>
<path opacity="0.4" d="M25.9043 22.7417V30.8166L32.6821 35.1007V27.0258L25.9043 22.7417Z" fill="#2D6EA1"/>
<path d="M32.6819 25.894L25.7051 21.4844V22.6161L32.6819 27.0257V25.894Z" fill="#D46D17"/>
<path d="M33.3052 26.6319C33.2079 26.4478 33.0507 26.3484 32.9534 26.4097L32.874 26.4598L33.2258 27.1266L33.3052 27.0764C33.402 27.0148 33.402 26.8156 33.3052 26.6319Z" fill="#F09300"/>
<path d="M33.2259 27.1267C33.1287 27.188 32.9715 27.0886 32.8742 26.9045C32.777 26.7204 32.777 26.5212 32.8742 26.46C32.9715 26.3987 33.1287 26.4981 33.2259 26.6822C33.3228 26.8663 33.3228 27.0651 33.2259 27.1267Z" fill="#FFBB00"/>
<path d="M33.1329 26.7406C33.0871 26.6536 33.0126 26.6066 32.9668 26.6354C32.921 26.6643 32.8096 26.7348 32.8096 26.7348L32.9709 27.0529C32.9709 27.0529 33.0872 26.9797 33.1334 26.9504C33.1787 26.9216 33.1787 26.8275 33.1329 26.7406Z" fill="#F09300"/>
<path d="M32.8075 27.1281L31.8038 26.4937C31.7475 26.4583 31.7017 26.3624 31.7017 26.2804C31.7017 26.2351 31.7154 26.2032 31.7373 26.1899C31.7552 26.1788 31.7783 26.1801 31.8038 26.1961L32.8075 26.8305C32.8638 26.8659 32.9096 26.9618 32.9096 27.0438C32.9096 27.0891 32.8959 27.121 32.874 27.1343C32.8562 27.1454 32.8331 27.1441 32.8075 27.1281Z" fill="#FFBB00"/>
<path d="M32.9169 26.7612L31.9132 26.1268C31.8876 26.1104 31.8641 26.1095 31.8459 26.121C31.8244 26.1348 31.7373 26.1898 31.7373 26.1898C31.7551 26.1787 31.7782 26.18 31.8038 26.196L32.8075 26.8304C32.8638 26.8659 32.9096 26.9617 32.9096 27.0438C32.9096 27.089 32.8958 27.121 32.874 27.1343C32.874 27.1343 32.9659 27.0762 32.9838 27.0646C33.0053 27.0509 33.019 27.0194 33.019 26.9746C33.019 26.892 32.9732 26.7967 32.9169 26.7612Z" fill="#FFE138"/>
<path opacity="0.5" d="M40.6547 38.5185L35.8827 36.6265L32.8521 37.999C32.8991 38.546 33.0543 38.9116 34.2785 39.3321C35.5744 39.7771 36.1315 39.8348 36.7665 40.1262C37.4072 40.4199 37.1021 41.0951 37.7772 41.2987C38.6873 41.5729 39.2887 40.6839 39.2648 40.2952C39.2404 39.9066 39.0747 39.628 39.5978 39.6884C40.121 39.7487 40.6356 39.3667 40.6826 39.0393C40.7353 38.6711 40.6547 38.5185 40.6547 38.5185Z" fill="black"/>
<path d="M39.4911 36.2088C39.2921 36.0491 38.5153 36.0256 38.0777 35.9448C38.0777 35.9448 35.2131 37.1155 35.1689 37.1555C35.9328 37.5113 37.2085 37.7522 38.8829 38.0538C39.4222 38.151 39.62 37.6426 39.72 37.2979C39.857 36.8259 39.8161 36.4696 39.4911 36.2088Z" fill="#004291"/>
<path opacity="0.2" d="M39.7201 37.2982C39.8571 36.8261 39.8247 36.4562 39.4912 36.2091C39.4802 36.2011 39.4681 36.1931 39.4547 36.1851C39.2484 36.0631 38.9883 36.0964 38.81 36.2627C38.6475 36.414 38.4874 36.7086 38.4752 37.1562C38.4599 37.7081 38.6025 38.0035 38.8829 38.0541C39.4223 38.1513 39.6204 37.6429 39.7201 37.2982Z" fill="black"/>
<path d="M39.1995 33.1538C39.5755 34.0805 39.7635 35.4394 38.2966 36.304C36.8297 37.1686 35.9269 37.3745 35.9269 37.3745C35.9269 37.3745 37.5356 37.575 37.8691 37.8221C38.2026 38.0692 38.235 38.4392 38.0981 38.9112C37.998 39.2554 37.7998 39.7643 37.2609 39.6671C37.2159 39.6591 37.1705 39.6525 37.1263 39.6427C34.5353 39.0722 32.991 38.7626 32.8216 37.8864C32.6223 36.8545 33.5928 36.3617 36.1372 34.5903C36.4962 34.5783 37.1446 34.5668 38.0474 34.179C39.2603 33.6591 39.1995 33.1538 39.1995 33.1538Z" fill="#0258BF"/>
<path opacity="0.2" d="M38.098 38.9119C38.235 38.4399 38.2026 38.0699 37.8691 37.8228C37.8581 37.8149 37.846 37.8069 37.8326 37.7989C37.6263 37.6769 37.3662 37.7102 37.1879 37.8765C37.0254 38.0278 36.8653 38.3224 36.8532 38.77C36.8378 39.3218 36.9804 39.6173 37.2609 39.6679C37.8002 39.765 37.9984 39.2562 38.098 38.9119Z" fill="black"/>
<path opacity="0.1" d="M39.2995 33.4258C39.3992 33.7802 39.3745 34.801 38.579 34.77C38.2216 35.5011 37.2539 35.4731 36.8523 34.9346C37.1692 35.71 37.3961 36.1022 36.3738 36.5893C35.8004 36.8625 34.9587 37.2711 34.5356 37.3638C35.6642 37.5896 36.9297 37.9091 36.9962 38.1428C37.0529 38.0279 37.1206 37.9392 37.1887 37.8753C37.3666 37.7094 37.6251 37.6762 37.8313 37.7964C37.4285 37.5608 35.9276 37.3736 35.9276 37.3736C35.9276 37.3736 36.8304 37.1678 38.2974 36.3031C39.6257 35.5206 39.5965 34.3317 39.2995 33.4258Z" fill="black"/>
<path d="M38.749 37.1237C38.749 37.6822 38.8374 37.8663 39.1352 37.8512C39.3005 37.8428 39.4274 37.9843 39.4484 38.2159C39.4695 38.4475 39.5449 38.6595 39.4266 38.7136C39.3078 38.7678 39.1457 38.8064 39.1599 39.0455C39.1741 39.2846 39.2685 39.5051 39.6733 39.5086C40.1073 39.5126 40.6552 39.1746 40.6552 38.5743C40.6552 38.2478 40.6479 37.5718 40.5778 37.0261C40.5381 36.7169 40.3716 36.4875 40.0867 36.4671C39.7593 36.4436 39.6697 36.4103 39.3139 36.421C38.798 36.4365 38.749 36.7377 38.749 37.1237Z" fill="#0D1421"/>
<path d="M39.6732 39.5083C40.1072 39.5123 40.655 39.1742 40.655 38.574C40.655 38.2475 40.6478 37.5714 40.5777 37.0258C40.5424 36.7512 40.4905 36.4814 40.1801 36.4814C39.8697 36.4814 39.8336 36.8545 39.8543 37.2857C39.8835 37.8886 40.0342 38.6494 39.9354 38.9138C39.7717 39.3517 39.5642 39.4626 39.3174 39.4094C39.3952 39.4697 39.5087 39.507 39.6732 39.5083Z" fill="#1B2A45"/>
<path d="M37.1694 38.7316C37.1694 39.2901 37.2898 39.4405 37.5787 39.4574C37.8077 39.4707 37.823 39.6401 37.8551 39.8451C37.8871 40.0505 37.9653 40.2674 37.8465 40.3216C37.7278 40.3757 37.5657 40.4143 37.5799 40.6534C37.5941 40.8925 37.6885 41.113 38.0933 41.1165C38.5273 41.1201 39.0748 40.7825 39.0748 40.1823C39.0748 39.8557 39.0675 39.1797 38.9974 38.634C38.9577 38.3244 38.7912 38.0954 38.5063 38.075C38.1789 38.0515 38.0893 38.0183 37.7335 38.0289C37.2189 38.0444 37.1694 38.3456 37.1694 38.7316Z" fill="#0D1421"/>
<path d="M38.0936 41.1167C38.5276 41.1202 39.075 40.7826 39.075 40.1824C39.075 39.8559 39.0677 39.1798 38.9976 38.6342C38.9624 38.3596 38.9105 38.0898 38.6001 38.0898C38.2897 38.0898 38.2536 38.4629 38.2747 38.8941C38.3039 39.497 38.4546 40.2578 38.3557 40.5222C38.192 40.9601 37.9846 41.071 37.7378 41.0178C37.8152 41.0781 37.9287 41.1154 38.0936 41.1167Z" fill="#1B2A45"/>
<path d="M35.3743 29.0003C35.2982 28.9107 35.2131 28.8473 35.113 28.7936C35.0416 28.7554 34.931 28.6942 34.8184 28.6703C34.7702 28.6601 34.8285 28.6645 34.666 28.6303C34.6652 28.6303 34.664 28.6299 34.664 28.6299C34.5939 28.8078 34.6008 29.5149 34.6008 29.5149C34.6008 29.5149 34.6214 29.5216 34.649 29.5304C34.8516 29.6036 34.9063 29.6493 35.0364 29.766C35.1669 29.8831 35.3371 29.9443 35.4485 29.9359C35.6779 29.9191 35.6908 29.8117 35.7666 29.7052C35.7233 29.3929 35.5709 29.2319 35.3743 29.0003Z" fill="#FABD84"/>
<path d="M34.8085 28.4991L34.7145 27.6434L34.7125 27.6283L34.6845 27.5795L34.674 27.4903L34.6987 27.3892L34.6829 27.4056L34.6582 27.5067L34.6683 27.5959L34.6967 27.6447L34.7911 28.5018L34.8085 28.4991Z" fill="#949494"/>
<path d="M34.9465 28.6125L34.9331 28.4937L34.9469 28.5114L34.9582 28.6139L34.9465 28.6125Z" fill="#3B3B3B"/>
<path d="M34.7342 28.6437L34.7212 28.527L34.7743 28.5044L34.788 28.6268L34.7342 28.6437Z" fill="#262626"/>
<path d="M34.8756 28.6131L34.8618 28.4902L34.9331 28.4933L34.9465 28.6122L34.8756 28.6131Z" fill="#545454"/>
<path d="M34.8586 28.4897L34.7705 28.5015L34.7843 28.6252L34.8724 28.6134L34.8586 28.4897Z" fill="#3B3B3B"/>
<path d="M35.0789 29.5677C35.0582 29.5628 35.0262 29.5619 34.9905 29.5641C34.9549 29.5668 34.916 29.5726 34.8819 29.5814C34.8114 29.6001 34.7896 29.6223 34.8325 29.632C34.8528 29.6373 34.8848 29.6382 34.9205 29.636C34.9561 29.6333 34.9954 29.6271 35.0294 29.6183C35.0996 29.6005 35.1214 29.5783 35.0789 29.5677Z" fill="#3F801C"/>
<path d="M34.9944 28.6297C34.994 28.6243 34.9867 28.6195 34.9729 28.6159C34.9522 28.611 34.9202 28.6101 34.8846 28.6128C34.8611 28.6146 34.8359 28.6177 34.812 28.6221C34.7995 28.6243 34.7873 28.627 34.776 28.6301C34.7525 28.6363 34.7347 28.6425 34.7225 28.6492C34.7099 28.6558 34.7039 28.662 34.7047 28.6674C34.7727 29.2845 34.7427 29.0023 34.8104 29.6194C34.81 29.6141 34.8161 29.6074 34.8283 29.6012C34.8404 29.595 34.8582 29.5883 34.8817 29.5821C34.8935 29.579 34.9057 29.5764 34.9178 29.5741C34.9417 29.5697 34.9668 29.5666 34.9903 29.5648C35.026 29.5622 35.058 29.563 35.0787 29.5684C35.0929 29.5719 35.0997 29.5764 35.1001 29.5821L34.9944 28.6297Z" fill="#549830"/>
<path d="M34.8667 28.4908L34.7796 27.6235L34.7987 27.5663L34.7893 27.4758L34.7525 27.3853L34.6986 27.3892L34.6738 27.4904L34.6844 27.5796L34.7123 27.6284L34.8084 28.4992L34.8619 28.4903L34.8667 28.4908Z" fill="#D8D8D8"/>
<path d="M34.8674 29.2031C35.0173 29.1738 35.0246 28.9937 34.9257 28.9653C35.0258 28.9179 35.0206 28.7302 34.8763 28.7293C34.9067 28.5678 34.7859 28.5803 34.6794 28.6189C34.5712 28.6579 34.514 28.6823 34.4877 28.7222C34.461 28.7621 34.4407 28.8757 34.5153 28.8872C34.4682 28.9241 34.4528 28.9374 34.452 28.999C34.4516 29.0323 34.4573 29.0855 34.5181 29.1015C34.4764 29.1162 34.4464 29.1299 34.45 29.2018C34.4524 29.2524 34.4776 29.2865 34.514 29.3065C34.4699 29.3229 34.4743 29.3983 34.482 29.4138C34.5079 29.4773 34.5781 29.5066 34.649 29.5301C34.5465 29.487 34.6721 29.4631 34.6721 29.4631C34.9108 29.4396 34.9355 29.1987 34.8674 29.2031Z" fill="#FFCEA1"/>
<path opacity="0.2" d="M35.6649 29.8186C35.8112 29.6828 35.8375 29.5342 35.8201 29.347C35.8047 29.1771 35.7484 29.0857 35.6167 28.9943C35.5454 28.9446 35.2406 28.7747 35.1592 28.7508C35.0591 28.721 34.9444 28.6084 34.8456 28.6434C34.7434 28.6798 34.7374 28.8044 34.8212 28.8728C34.8893 28.9278 34.9428 28.961 34.9862 28.9801C35.0356 29.0019 35.0145 29.079 35.0275 29.166C35.0405 29.2529 35.0696 29.5666 35.0696 29.5666C35.0696 29.5666 35.1782 29.5843 34.9882 29.6283C35.1661 29.6216 35.3314 29.6251 35.4007 29.6668L35.6649 29.8186Z" fill="black"/>
<path d="M35.6854 29.8015C35.8317 29.6657 35.8581 29.5171 35.8406 29.3299C35.8252 29.16 35.7689 29.0686 35.6372 28.9772C35.5659 28.9275 35.2612 28.7581 35.1797 28.7337C35.0796 28.7039 34.9649 28.5913 34.8661 28.6263C34.7639 28.6627 34.7579 28.7874 34.8418 28.8552C35.016 28.9967 35.0962 28.9857 35.1481 29.0149C35.2255 29.058 35.2514 29.1981 35.2806 29.2878C35.3142 29.3907 35.4083 29.5047 35.4958 29.5579L35.6854 29.8015Z" fill="#FFCEA1"/>
<path opacity="0.3" d="M34.9886 28.6835C34.9845 28.6733 34.976 28.6658 34.9675 28.6591C34.9488 28.6436 34.9274 28.6338 34.9096 28.6294C34.8917 28.6245 34.8342 28.6156 34.8208 28.6485C34.7953 28.7088 34.8273 28.7203 34.8326 28.7226C34.8646 28.7354 34.8865 28.7363 34.9193 28.7465C34.9335 28.7509 34.961 28.7651 34.972 28.7554C34.9793 28.7487 34.9817 28.7385 34.9837 28.7283C34.987 28.7146 34.9942 28.6964 34.9886 28.6835Z" fill="white"/>
<path d="M35.5857 30.0664C35.5626 29.932 35.5736 29.7892 35.6247 29.6534C35.6834 29.4973 35.7851 29.3753 35.9095 29.2976C35.9667 29.2617 36.0283 29.2351 36.0927 29.2191C36.2228 29.1858 36.3634 29.1956 36.4963 29.2555L38.8689 30.3228C39.0634 30.4102 39.2004 30.5877 39.2551 30.7922C39.262 30.8153 39.2672 30.8388 39.2713 30.8627C39.279 30.9071 39.2826 30.951 39.283 30.9963C39.283 31.018 39.2822 31.0397 39.2806 31.0615C39.279 31.0788 39.277 31.0961 39.2741 31.1138C39.2664 31.1684 39.2526 31.223 39.2324 31.2766C39.0922 31.6497 38.7028 31.8281 38.3607 31.6746L35.9885 30.6068C35.7713 30.5092 35.6267 30.3011 35.5857 30.0664Z" fill="#D9B9AE"/>
<path d="M37.9918 31.0788C38.0331 31.4799 38.3638 31.7682 38.7301 31.723C39.0964 31.6777 39.3501 31.1764 39.3088 30.7754L38.998 28.2831C38.9566 27.8821 38.626 27.5937 38.2596 27.639C37.8933 27.6842 37.6299 28.0462 37.6713 28.4472L37.9918 31.0788Z" fill="#D9B9AE"/>
<path d="M39.1991 33.1539C39.3142 34.097 36.9485 34.9337 36.1368 34.5912C35.8398 32.3412 35.5744 32.1633 35.4192 30.9921C35.3146 30.2042 35.4816 29.3006 35.4816 29.3006C35.6356 28.8458 35.9273 28.4697 36.9971 27.9493C37.5916 27.66 37.8692 27.6135 38.3048 27.6334C39.2854 27.6787 39.1857 29.2353 39.206 29.9731C39.2222 30.5609 39.1254 31.1367 39.1262 31.7245C39.127 32.2019 39.159 32.6788 39.1991 33.1539Z" fill="#0258BF"/>
<path d="M36.4095 28.8577C36.9805 29.1917 36.884 29.9672 36.8889 30.6615C36.8937 31.3553 36.4379 31.3531 35.9285 31.1739C35.8203 31.137 35.7218 31.1162 35.6278 31.102C35.5468 30.1056 35.4819 29.3004 35.4819 29.3004C35.5289 29.1616 35.593 29.0298 35.6842 28.899C35.8746 28.757 36.1181 28.6878 36.4095 28.8577Z" fill="#E4C6BB"/>
<path opacity="0.6" d="M36.4095 28.8577C36.9805 29.1917 36.884 29.9672 36.8889 30.6615C36.8937 31.3553 36.4379 31.3531 35.9285 31.1739C35.8203 31.137 35.7218 31.1162 35.6278 31.102C35.5468 30.1056 35.4819 29.3004 35.4819 29.3004C35.5289 29.1616 35.593 29.0298 35.6842 28.899C35.8746 28.757 36.1181 28.6878 36.4095 28.8577Z" fill="black"/>
<path d="M35.9927 28.5666C36.2164 28.3758 36.5296 28.1762 36.9972 27.949C37.3449 27.78 37.5832 27.6993 37.8093 27.6611C37.8547 27.6873 37.8997 27.7139 37.9471 27.7352C38.4074 27.9393 38.6068 28.3647 38.6862 28.7902C38.7251 28.9978 38.6274 29.2076 38.4601 29.3136L38.1327 29.5208C37.8093 29.7249 37.3757 29.614 37.1691 29.2742L37.056 29.0883C36.823 28.7076 36.5 28.4956 36.0834 28.5435C36.0514 28.5462 36.0227 28.559 35.9927 28.5666Z" fill="#E4C6BB"/>
<path d="M37.7203 26.2805C37.7098 26.4965 37.6988 26.7139 37.6542 26.9246C37.6097 27.1354 37.5294 27.3412 37.3957 27.5005C37.245 27.6792 37.0282 27.7866 36.8065 27.7999C36.7372 27.8048 36.6671 27.7999 36.5986 27.7848C36.5306 27.7697 36.4625 27.7453 36.4066 27.7005C36.3186 27.6304 36.2688 27.5204 36.2335 27.406V27.4051C36.2254 27.3798 36.2181 27.3541 36.2116 27.3288C36.1448 27.0772 36.0901 26.8612 36.0658 26.6003C36.0487 26.4162 36.1322 26.2237 36.1318 26.0378C36.1314 25.8737 36.0573 25.6745 36.0666 25.5108C36.0718 25.4207 36.0783 25.3289 36.1043 25.2424C36.1809 24.9878 36.4195 24.8196 36.6627 24.7864C36.9058 24.7531 37.1514 24.8338 37.373 24.9487C37.4338 24.9802 37.4946 25.0148 37.5432 25.0663C37.5894 25.1151 37.6227 25.1767 37.6652 25.2291C37.7179 25.2952 37.7361 25.9562 37.7203 26.2805Z" fill="#FFCEA1"/>
<path opacity="0.1" d="M36.8481 27.291C36.8485 27.4214 36.8453 27.5514 36.8424 27.6818C36.8416 27.7098 36.8412 27.7391 36.8307 27.7643C36.825 27.7781 36.8165 27.7901 36.8064 27.7998C36.7371 27.8047 36.667 27.7998 36.5985 27.7848C36.5304 27.7697 36.4624 27.7453 36.4064 27.7005C36.3185 27.6304 36.2687 27.5204 36.2334 27.4059V27.405C36.4624 27.6472 36.6094 27.4405 36.6629 26.7524C36.7018 27.0754 36.8477 26.9654 36.8481 27.291Z" fill="#1D1D1B"/>
<path d="M38.0432 26.1689H36.6626V28.1253H38.0432V26.1689Z" fill="#FFCEA1"/>
<path d="M37.3547 28.5081C37.737 28.5081 38.0469 28.3123 38.0469 28.0707C38.0469 27.8291 37.737 27.6333 37.3547 27.6333C36.9725 27.6333 36.6626 27.8291 36.6626 28.0707C36.6626 28.3123 36.9725 28.5081 37.3547 28.5081Z" fill="#FFCEA1"/>
<path d="M36.3515 25.7091C36.4276 25.7575 36.4037 26.2401 36.4507 26.3151C36.5289 26.4402 36.6546 26.1763 36.6679 26.3364C36.6894 26.5924 36.655 26.8514 36.6756 27.1074C36.6963 27.3638 36.7883 27.6344 36.9905 27.7653C37.1319 27.8567 37.305 27.8656 37.4691 27.8634C37.6842 27.8603 38.0631 27.7489 38.1697 27.5408C39.199 24.8582 37.6668 24.5566 37.2729 24.5277C36.5808 24.4772 35.7384 24.9354 36.0654 25.5317C36.1152 25.6231 36.2814 25.6648 36.3515 25.7091Z" fill="#2F2F2F"/>
<path d="M36.7206 26.169C36.6444 26.1712 36.5893 26.2471 36.5662 26.3203C36.5379 26.4117 36.5395 26.5088 36.5415 26.6042C36.5439 26.7253 36.548 26.8509 36.6023 26.9573C36.6169 26.9857 36.6367 27.0141 36.6663 27.0261C36.7109 27.0443 36.7648 27.019 36.7952 26.9799C36.8252 26.9409 36.8365 26.8912 36.8454 26.8429C36.871 26.704 36.8827 26.5625 36.8803 26.4219C36.8791 26.3655 36.8754 26.3079 36.8511 26.2577C36.8268 26.2076 36.777 26.1672 36.7206 26.169Z" fill="#FFCEA1"/>
<path d="M36.7519 29.6228L36.2957 32.3866C36.2794 32.4847 36.2462 32.5743 36.2 32.6532C36.0788 32.8582 35.8686 32.9877 35.64 32.9877C35.6003 32.9877 35.5602 32.9837 35.5201 32.9758C35.3264 32.9376 35.1671 32.8107 35.071 32.6404C34.9872 32.4922 34.9515 32.3108 34.9819 32.1267L35.4386 29.3629C35.497 29.0097 35.7782 28.7622 36.0946 28.7622C36.134 28.7622 36.1737 28.7658 36.2138 28.7737C36.5769 28.8456 36.8176 29.2258 36.7519 29.6228Z" fill="#E4C6BB"/>
<path d="M32.9118 30.3031C32.8648 30.2361 32.8178 30.166 32.7971 30.0848C32.7821 30.0267 32.7813 29.9659 32.7805 29.9056C32.7785 29.7503 32.7764 29.5951 32.7744 29.4398C32.7736 29.3928 32.7732 29.3453 32.7785 29.2983C32.7906 29.1918 32.8348 29.0898 32.9025 29.0121C32.9227 28.9886 32.9483 28.966 32.9778 28.9673C32.9928 28.9678 33.007 28.9749 33.0196 28.9842C33.0796 29.0294 33.0901 29.1191 33.1083 29.1963C33.1424 29.3395 33.2194 29.4664 33.3049 29.5813C33.3904 29.6962 33.4856 29.8022 33.565 29.9225C33.4994 29.8417 33.4369 29.7534 33.4098 29.6492C33.3826 29.5454 33.3802 29.4411 33.4499 29.3582C33.4665 29.3404 33.4973 29.3298 33.5289 29.34C33.5609 29.3506 33.6088 29.4079 33.627 29.466C33.6408 29.5095 33.642 29.5569 33.6558 29.6C33.6732 29.6536 33.7089 29.6971 33.7405 29.7424C33.8718 29.9309 33.935 30.1749 33.9139 30.4109C33.9099 30.4561 33.9026 30.501 33.888 30.5435C33.8523 30.6442 33.7761 30.721 33.6963 30.7849C33.6785 30.7991 33.6594 30.8137 33.638 30.8199C33.6217 30.8248 33.6043 30.8244 33.5873 30.8235C33.4451 30.815 33.3109 30.7432 33.1999 30.646C33.0889 30.5489 32.9985 30.4264 32.9118 30.3031Z" fill="#FFC591"/>
<path opacity="0.3" d="M33.5041 29.3604C33.5839 29.3462 33.5888 29.4114 33.6014 29.4717C33.6139 29.532 33.5252 29.525 33.5146 29.5227C33.5041 29.5205 33.4765 29.5116 33.4607 29.4407C33.4458 29.3754 33.4684 29.367 33.5041 29.3604Z" fill="white"/>
<path d="M35.2182 32.8272L33.6487 31.5158C33.3578 31.2674 33.2549 31.0722 33.3748 30.81C33.3748 30.81 33.8197 29.7755 34.3453 30.2537L36.0392 31.6742L36.0396 31.6746C36.2446 31.8494 36.3309 32.1293 36.2847 32.3906C36.2653 32.4998 36.2223 32.6062 36.1555 32.7003C35.9285 33.0188 35.5091 33.0756 35.2182 32.8272Z" fill="#E4C6BB"/>
<path d="M23.5009 20.6057C23.5151 20.5014 23.5285 20.3994 23.4661 20.3541C23.4482 20.3395 23.4142 20.3373 23.3826 20.3457C23.3522 20.3537 23.3279 20.3683 23.3198 20.4273C23.306 20.5258 23.2882 20.5347 23.2752 20.5906C23.2619 20.6465 23.272 20.7059 23.2505 20.7539C23.2205 20.82 23.1759 20.8674 23.1216 20.8878C23.0284 20.9229 22.8481 20.8785 22.7047 20.8732C22.7079 20.8732 22.6074 21.6056 22.6074 21.6056C22.6074 21.6056 23.0033 21.6469 23.1298 21.685C23.1995 21.7063 23.2347 21.7618 23.3064 21.768C23.3782 21.7738 23.4065 21.7782 23.4515 21.7125C23.492 21.6526 23.4766 21.3865 23.4807 21.3315C23.4932 21.166 23.4859 21.1682 23.4628 21.0041C23.4596 20.9823 23.4548 20.9624 23.4483 20.9446C23.4418 20.7312 23.4867 20.7086 23.5009 20.6057Z" fill="#FFC591"/>
<path opacity="0.3" d="M23.4057 20.3619C23.3372 20.3592 23.3396 20.4147 23.3352 20.467C23.3307 20.519 23.4045 20.5025 23.413 20.4994C23.4215 20.4963 23.4438 20.4852 23.4498 20.424C23.4559 20.3672 23.4361 20.3628 23.4057 20.3619Z" fill="white"/>
<path d="M22.7839 21.6722C22.8937 21.4832 22.9338 21.0777 22.8256 20.8426C22.7534 20.6855 22.6157 20.5839 22.4556 20.5697L19.8456 20.2641C19.48 20.2211 19.1482 20.5462 19.119 20.9402C19.0886 21.3465 19.3645 21.7028 19.7365 21.736C19.7365 21.736 22.3551 21.8944 22.3571 21.8944C22.5711 21.9068 22.6785 21.8527 22.7839 21.6722Z" fill="#D9B9AE"/>
<path d="M20.335 20.6359C20.5186 20.9908 20.4047 21.4411 20.0809 21.6425C19.7567 21.8434 19.2778 21.599 19.0942 21.2441L17.9964 19.0051C17.8129 18.6502 17.9267 18.1999 18.2505 17.999C18.5747 17.798 18.986 17.9222 19.1696 18.2771L20.335 20.6359Z" fill="#BDAC95"/>
<path d="M21.766 35.2531C21.766 34.8427 21.3243 34.616 20.6686 34.8059L20.1212 34.6684C19.8395 34.5979 19.5713 34.8316 19.5713 35.148V35.9762L19.5774 35.974C19.5684 36.0649 19.6138 36.1572 19.7236 36.2264C19.9271 36.3551 20.2569 36.3551 20.4604 36.2264L21.6136 35.4975C21.7198 35.4305 21.7676 35.3418 21.7627 35.254L21.766 35.2531Z" fill="black"/>
<path d="M20.9541 24.7424L19.1548 24.96L19.6783 30.1488L21.4776 29.9312L20.9541 24.7424Z" fill="#0258BF"/>
<path d="M21.4711 29.9758C21.4067 29.6235 21.1404 29.3556 20.8166 29.297C20.5488 29.2487 20.287 29.4044 20.0641 29.5743C19.9057 29.695 19.7574 29.9633 19.6686 30.1506C19.7339 31.1638 19.5714 33.3735 19.4766 35.0056C19.4851 35.1498 19.5807 35.2877 19.761 35.3849C20.1221 35.5796 20.6862 35.5393 21.0209 35.2948C21.1882 35.1724 21.2664 35.022 21.2579 34.8778C21.311 34.6742 21.5351 30.328 21.4711 29.9758Z" fill="#0258BF"/>
<path d="M19.5754 33.3721C19.577 33.5225 19.6504 33.6702 19.8275 33.7829C20.1821 34.0082 20.753 34.0016 21.1035 33.7682C21.2729 33.6555 21.3548 33.5256 21.3637 33.3672L21.3418 33.7594C21.3325 33.9151 21.2729 34.0526 21.0966 34.1693C20.7441 34.4026 20.1687 34.4093 19.8117 34.1839C19.633 34.0712 19.5446 33.9288 19.5511 33.778L19.5754 33.3721Z" fill="#FFC50C"/>
<path d="M17.6464 24.3681C17.5301 25.3206 21.0053 26.1533 21.0053 25.0212C21.0053 23.1641 21.2375 22.4597 21.3011 21.4908C21.3518 20.8626 21.3968 20.3032 21.4243 19.9572C21.4499 19.6391 21.3684 19.3161 21.1715 19.081C20.9506 18.8171 20.5835 18.55 19.9226 18.2284C19.322 17.9365 19.0416 17.889 18.6019 17.9094C17.804 17.9462 17.6634 18.8366 17.6732 19.9962C17.6857 21.4531 17.7461 22.4264 17.6464 24.3681Z" fill="#0258BF"/>
<path d="M20.5165 19.1471C19.9395 19.4847 20.0371 20.2677 20.0323 20.9691C20.0274 21.67 20.4707 21.7703 20.8099 21.646C21.1284 21.5294 21.2123 21.4637 21.3096 21.3834C21.4044 20.3768 21.3995 20.3152 21.4242 19.9581C21.438 19.7606 21.4113 19.5867 21.3687 19.4483C21.3132 19.2669 21.1872 19.1196 21.0182 19.0699C20.8715 19.026 20.7037 19.0371 20.5165 19.1471Z" fill="#E4C6BB"/>
<path opacity="0.3" d="M20.4556 20.367C20.6132 20.9153 21.1214 20.938 21.3495 20.938C21.3937 20.5041 21.4058 20.2393 21.4058 20.2393L20.4556 20.367Z" fill="black"/>
<path d="M20.9377 18.8532C20.7116 18.6603 20.3955 18.4588 19.923 18.2295C19.5717 18.0587 19.331 17.9775 19.1029 17.9385C19.0571 17.9647 19.0117 17.9922 18.9639 18.0134C18.4991 18.2197 18.2973 18.6492 18.2174 19.079C18.1785 19.2884 18.277 19.5005 18.446 19.6078L18.7767 19.8168C19.1029 20.0231 19.5413 19.9108 19.75 19.5675L19.8643 19.3794C20.0997 18.9947 20.4259 18.7805 20.847 18.8293C20.8782 18.8324 20.9073 18.8452 20.9377 18.8532Z" fill="#E4C6BB"/>
<path d="M19.2064 16.5574C19.2169 16.7734 19.2278 16.9908 19.2724 17.2015C19.317 17.4123 19.3972 17.6181 19.5309 17.7774C19.6821 17.9561 19.8985 18.0635 20.1201 18.0768C20.1894 18.0817 20.2595 18.0768 20.328 18.0617C20.3961 18.0466 20.4642 18.0222 20.5201 17.9774C20.608 17.9073 20.6579 17.7973 20.6931 17.6829V17.682C20.7012 17.6562 20.7085 17.631 20.715 17.6057C20.7819 17.3537 20.8366 17.1381 20.8609 16.8772C20.8779 16.6931 20.794 16.5006 20.7948 16.3147C20.7952 16.1506 20.8694 15.9514 20.8601 15.7881C20.8548 15.6981 20.8479 15.6063 20.822 15.5198C20.7454 15.2651 20.5067 15.097 20.2636 15.0637C20.0205 15.0304 19.7749 15.1112 19.5532 15.2261C19.4924 15.2576 19.4317 15.2922 19.383 15.3436C19.3368 15.3924 19.3036 15.4541 19.2611 15.5069C19.2088 15.5721 19.1901 16.2327 19.2064 16.5574Z" fill="#FFCEA1"/>
<path opacity="0.5" d="M20.0738 17.5635C20.0734 17.6952 20.0766 17.8265 20.0794 17.9583C20.0803 17.9867 20.0807 18.016 20.0916 18.0417C20.0973 18.0559 20.1062 18.0679 20.1163 18.0776C20.1864 18.0825 20.2569 18.0776 20.3262 18.0625C20.3951 18.0475 20.4636 18.0226 20.5203 17.9774C20.5811 17.929 20.6241 17.8611 20.6565 17.7857C20.4263 17.9374 20.261 17.736 20.2614 17.02C20.2213 17.3456 20.0738 17.2347 20.0738 17.5635Z" fill="#1D1D1B"/>
<path d="M20.2606 16.4307H18.8662V18.4066H20.2606V16.4307Z" fill="#FFCEA1"/>
<path d="M19.0671 18.0391C18.794 18.2117 18.794 18.4916 19.0671 18.6642C19.3403 18.8367 19.7828 18.8367 20.0559 18.6642C20.329 18.4916 20.329 18.2117 20.0559 18.0391C19.7832 17.8665 19.3403 17.8665 19.0671 18.0391Z" fill="#FFCEA1"/>
<path d="M20.5755 15.9663C20.3701 16.0968 20.2777 16.3416 20.2558 16.6003C20.2339 16.8589 20.2692 17.1206 20.2481 17.3793C20.227 17.6379 20.1347 17.9116 19.93 18.0438C19.787 18.1361 19.4758 18.1215 19.2164 18.0509C18.9571 17.9804 18.748 17.8726 18.6925 17.6397C18.56 17.0856 18.2597 16.5537 18.4461 15.7325C18.6317 14.9158 19.3895 14.7925 19.6447 14.7739C20.3442 14.7228 21.1947 15.186 20.8645 15.7875C20.8142 15.8798 20.6461 15.9215 20.5755 15.9663Z" fill="#2F2F2F"/>
<path opacity="0.6" d="M20.8645 15.7068C20.8414 15.5524 20.8021 15.2951 20.6075 15.0134C20.3494 14.8431 19.9799 14.7495 19.6447 14.7739C19.3894 14.7925 18.6317 14.9158 18.4461 15.7325C18.3914 15.9739 18.3784 16.1899 18.3914 16.3891C18.4696 16.476 18.5778 16.5523 18.7139 16.6122C19.2744 16.858 20.1038 16.7325 20.5666 16.3319C20.7332 16.1877 20.8296 16.0275 20.8588 15.87C20.8608 15.8443 20.8616 15.8195 20.8604 15.7951C20.862 15.7924 20.8636 15.7902 20.8649 15.7875C20.8661 15.7853 20.8669 15.7835 20.8681 15.7813C20.8685 15.756 20.8673 15.7312 20.8645 15.7068Z" fill="#1D1D1B"/>
<path d="M20.2023 16.4307C20.2793 16.4329 20.3352 16.5097 20.3583 16.5838C20.3871 16.676 20.3855 16.7745 20.3834 16.8704C20.381 16.9928 20.377 17.1197 20.3222 17.227C20.3077 17.2559 20.2874 17.2843 20.2574 17.2967C20.2124 17.3149 20.1577 17.2896 20.1273 17.2505C20.0969 17.2111 20.0856 17.1609 20.0763 17.1121C20.0503 16.9715 20.0386 16.8291 20.0414 16.6867C20.0426 16.6299 20.0463 16.5713 20.071 16.5208C20.0953 16.4702 20.1456 16.4289 20.2023 16.4307Z" fill="#FFCEA1"/>
<path d="M24.1319 13.3742C24.1481 13.3556 24.1854 13.3653 24.215 13.3964C24.2445 13.4274 24.2551 13.4673 24.2389 13.486C24.2227 13.5046 23.6598 14.1474 23.6598 14.1474L23.5532 14.0356C23.5532 14.0356 24.1157 13.3928 24.1319 13.3742Z" fill="#A8A8A8"/>
<path opacity="0.3" d="M24.093 13.6544C24.1655 13.5719 24.0196 13.5032 24.0901 13.422L24.1315 13.3745C24.0606 13.4553 24.2064 13.524 24.1343 13.607L24.093 13.6544Z" fill="black"/>
<path opacity="0.3" d="M23.9826 13.7809C24.0552 13.6984 23.9093 13.6296 23.9798 13.5484L24.0211 13.501C23.9502 13.5817 24.0961 13.6505 24.024 13.7334L23.9826 13.7809Z" fill="black"/>
<path opacity="0.3" d="M23.8718 13.9069C23.9443 13.8244 23.7984 13.7556 23.8689 13.6744L23.9103 13.627C23.8394 13.7077 23.9853 13.7765 23.9131 13.8594L23.8718 13.9069Z" fill="black"/>
<path opacity="0.3" d="M23.7611 14.0333C23.8336 13.9508 23.6874 13.8821 23.7583 13.8009L23.7996 13.7534C23.7287 13.8342 23.8746 13.9029 23.8024 13.9859L23.7611 14.0333Z" fill="black"/>
<path opacity="0.3" d="M23.6506 14.1598C23.7231 14.0773 23.5772 14.0085 23.6478 13.9274L23.6891 13.8799C23.6182 13.9606 23.7641 14.0294 23.6919 14.1123L23.6506 14.1598Z" fill="black"/>
<path d="M23.5769 14.1259C23.6065 14.157 23.6434 14.1667 23.66 14.1481C23.6766 14.1295 23.6656 14.0895 23.6361 14.0585C23.6065 14.0274 23.5696 14.0177 23.553 14.0363C23.5368 14.0549 23.5473 14.0953 23.5769 14.1259Z" fill="#C9C9C9"/>
<path d="M23.0644 15.3608C23.1374 15.525 23.2314 15.619 23.2926 15.6669C23.3181 15.6869 23.3128 15.7561 23.2837 15.7894L23.1601 15.9305L23.0215 15.4096L23.0644 15.3608Z" fill="#DE3222"/>
<path d="M22.8541 16.2397L22.9121 16.2553L22.5482 16.6709L22.4902 16.6554L22.8541 16.2397Z" fill="#E3E3E3"/>
<path d="M23.2435 16.8573L23.8299 16.1874C23.9004 16.1067 23.8652 16.0162 23.7505 15.9856L23.4705 15.9106C23.3558 15.88 23.2058 15.9204 23.1349 16.0011L22.5486 16.671C22.5101 16.7149 22.5295 16.7642 22.5919 16.781L23.0616 16.907C23.1232 16.9234 23.205 16.9012 23.2435 16.8573Z" fill="#FCC901"/>
<path d="M22.5296 16.7076L22.4907 16.6548L22.5487 16.6703C22.5377 16.6827 22.5317 16.6956 22.5296 16.7076Z" fill="#A2A3A1"/>
<path d="M22.5605 16.845C22.567 16.8667 22.5881 16.8849 22.6213 16.8938L23.091 17.0198C23.1534 17.0366 23.2349 17.0145 23.2734 16.9705L23.8597 16.3007C23.8913 16.2647 23.9014 16.2266 23.8933 16.1929C23.8933 16.1929 23.9659 16.4653 23.9768 16.5065C23.9857 16.5407 23.9756 16.5793 23.9436 16.6156L23.3572 17.2855C23.3187 17.3294 23.2373 17.3516 23.1749 17.3348L22.7056 17.2088C22.6716 17.1995 22.6501 17.1808 22.6444 17.1582C22.6392 17.1396 22.5605 16.845 22.5605 16.845Z" fill="#404040"/>
<path d="M22.5308 16.7317C22.5372 16.7535 22.5583 16.7716 22.5915 16.7805L23.0612 16.9065C23.1236 16.9234 23.205 16.9012 23.2435 16.8573L23.8299 16.1874C23.8615 16.1515 23.8717 16.1133 23.8635 16.0796C23.8635 16.0796 23.883 16.1519 23.8939 16.1932C23.9029 16.2273 23.8927 16.2655 23.8607 16.3023L23.2743 16.9722C23.2358 17.0161 23.1544 17.0383 23.092 17.0214L22.6223 16.8954C22.5883 16.8861 22.5668 16.8675 22.5612 16.8448C22.5559 16.8267 22.5308 16.7317 22.5308 16.7317Z" fill="#FFAD0D"/>
<path d="M23.5156 17.0612L23.6275 16.9335C23.6522 16.9055 23.668 16.8572 23.6676 16.8124L23.6652 16.457L23.3013 16.8727L23.4447 17.067C23.4508 17.0754 23.4581 17.0808 23.4662 17.083C23.482 17.087 23.4998 17.0799 23.5156 17.0612Z" fill="#C1C2C0"/>
<path d="M23.6072 16.4419L23.6651 16.4574L23.3016 16.8727L23.2437 16.8571L23.6072 16.4419Z" fill="#E3E3E3"/>
<path d="M23.3015 16.8725L23.445 17.0668C23.451 17.0752 23.4583 17.0805 23.4664 17.0827C23.4664 17.0827 23.4239 17.0712 23.4085 17.0672C23.4004 17.065 23.3931 17.0597 23.3866 17.0512L23.2432 16.8569L23.3015 16.8725Z" fill="#A2A3A1"/>
<path d="M23.5163 16.9987L23.6018 16.9011C23.6172 16.8838 23.6237 16.8478 23.6164 16.8212L23.5767 16.6722C23.5694 16.6455 23.5516 16.638 23.5362 16.6553L23.4507 16.7529C23.4353 16.7702 23.4288 16.8061 23.4361 16.8327L23.4758 16.9818C23.4831 17.0089 23.5009 17.0164 23.5163 16.9987Z" fill="#404040"/>
<path d="M23.4495 16.8143L23.5622 16.6857C23.5589 16.6737 23.5508 16.6701 23.5435 16.6781L23.4564 16.7779C23.4495 16.7859 23.4463 16.8019 23.4495 16.8143Z" fill="#C1C2C0"/>
<path d="M23.4612 16.8579L23.5739 16.7297L23.5678 16.7075L23.4556 16.8362L23.4612 16.8579Z" fill="#C1C2C0"/>
<path d="M23.473 16.9023L23.5856 16.7736L23.5795 16.7515L23.4673 16.8801L23.473 16.9023Z" fill="#C1C2C0"/>
<path d="M23.4846 16.9463L23.5972 16.8181L23.5912 16.7959L23.4785 16.9241L23.4846 16.9463Z" fill="#C1C2C0"/>
<path d="M23.5089 16.976L23.596 16.8762C23.6029 16.8682 23.6061 16.8518 23.6029 16.8398L23.4902 16.9685C23.4935 16.9805 23.502 16.984 23.5089 16.976Z" fill="#C1C2C0"/>
<path d="M23.0961 15.3276C23.011 15.423 23.2015 16.0516 23.3097 16.4589C23.3137 16.4731 23.3093 16.4886 23.2963 16.5037L23.1233 16.7011C23.0945 16.7339 23.0329 16.7508 22.9863 16.7379L22.8757 16.7082C22.8485 16.7011 22.8323 16.6856 22.8291 16.6674C22.6751 16.1089 22.635 15.9465 22.5454 15.8981L23.0961 15.3276Z" fill="url(#paint0_linear_456_13142)"/>
<path d="M23.1775 14.1865C23.1824 14.1807 23.1872 14.1754 23.1921 14.17C23.2338 14.1235 23.2719 14.0822 23.323 14.0334C23.3595 13.9984 23.3968 13.9669 23.4227 13.9491C23.432 13.9425 23.4612 13.9229 23.4867 13.9172C23.494 13.9154 23.5054 13.9132 23.5199 13.9136C23.5362 13.9141 23.5467 13.9163 23.5585 13.9194C23.5734 13.9234 23.5892 13.9296 23.6046 13.938C23.6111 13.9416 23.618 13.9456 23.6245 13.9496C23.6245 13.9496 23.6367 13.9571 23.6444 13.9633C23.6464 13.9646 23.6488 13.9669 23.6508 13.9682C23.6508 13.9682 23.661 13.9762 23.6703 13.9846C23.6727 13.9868 23.6784 13.9922 23.6828 13.9966C23.6849 13.9984 23.6873 14.001 23.6889 14.0028C23.6889 14.0028 23.7003 14.0148 23.712 14.0294C23.7335 14.0569 23.7501 14.0853 23.7611 14.1137C23.7761 14.1527 23.7777 14.1794 23.7773 14.198C23.7769 14.2104 23.774 14.2317 23.7667 14.2503C23.7631 14.2597 23.7578 14.2725 23.7534 14.2814C23.7501 14.2881 23.74 14.3076 23.727 14.3284C23.7003 14.371 23.6804 14.3998 23.6411 14.4513C23.6192 14.4801 23.5653 14.5414 23.5439 14.5671C23.5435 14.568 23.5426 14.5684 23.5422 14.5693C23.4863 14.6332 23.4531 14.6709 23.4531 14.6709L23.0884 14.2885C23.0884 14.2885 23.122 14.2503 23.1775 14.1865Z" fill="#404040"/>
<path d="M23.1702 14.5946C23.2707 14.7002 23.3975 14.7344 23.4534 14.6705C23.5093 14.6066 23.4725 14.4695 23.372 14.3639C23.2711 14.2583 23.1446 14.2242 23.0887 14.2881C23.0328 14.3519 23.0693 14.489 23.1702 14.5946Z" fill="#404040"/>
<path d="M22.9328 15.9303C22.855 16.0124 22.7686 16.0812 22.7135 16.0616C22.6588 16.0426 22.6207 15.9946 22.5725 15.8718C22.5535 15.823 22.4817 15.7995 22.4518 15.8274C22.4149 15.862 22.4145 15.9543 22.4283 16C22.455 16.0887 22.4817 16.1774 22.5089 16.2661C22.5385 16.3646 22.6706 16.5199 22.7172 16.6596C22.799 16.5567 23.0158 15.8425 22.9328 15.9303Z" fill="#FFCEA1"/>
<path d="M21.9495 15.5375C21.9471 15.486 21.9601 15.4488 21.9661 15.431C21.9828 15.3835 22.0148 15.3308 22.0302 15.305C22.0768 15.2283 22.1436 15.14 22.1688 15.1067C22.2271 15.03 22.2867 14.9599 22.3191 14.9222L22.8309 14.3335C22.8763 14.282 22.9504 14.27 23.0339 14.2927C23.117 14.3148 23.2094 14.3716 23.2908 14.4573C23.4537 14.6285 23.5121 14.8503 23.4213 14.9528L23.057 15.372C23.042 15.3898 23.029 15.4048 23.0189 15.4168C23.0181 15.4177 23.0173 15.4186 23.0165 15.4195L22.9099 15.5415C22.9022 15.5503 22.9014 15.5517 22.8937 15.5605C22.7677 15.7021 22.6575 15.8108 22.5663 15.8831C22.4869 15.9465 22.4334 15.9722 22.3758 15.974C22.3094 15.9762 22.2506 15.9465 22.2283 15.935C22.206 15.9239 22.1809 15.9075 22.1538 15.8862C22.1262 15.8649 22.1015 15.8396 22.0922 15.8303C22.082 15.8196 22.0614 15.7974 22.0383 15.7655C22.0131 15.7309 21.9965 15.6976 21.9965 15.6976C21.9779 15.6595 21.973 15.6488 21.9609 15.6062C21.9609 15.6062 21.9515 15.5739 21.9495 15.5375Z" fill="#FCC901"/>
<path d="M22.1511 15.4021C22.085 15.3844 22.0259 15.3937 21.9898 15.4345C21.9172 15.5161 21.9638 15.6927 22.0935 15.8289C22.1584 15.8968 22.2317 15.942 22.2978 15.9598C22.3638 15.9775 22.423 15.9682 22.459 15.9274C22.5316 15.8458 22.485 15.6692 22.3553 15.533C22.2905 15.4647 22.2175 15.4199 22.1511 15.4021Z" fill="#FFAD0D"/>
<path d="M23.0691 14.2075C23.1032 14.1916 23.1465 14.1902 23.1935 14.2027C23.2596 14.2204 23.3329 14.2652 23.3978 14.3335C23.5076 14.4489 23.5578 14.5931 23.5262 14.6844C23.5015 14.7559 23.4772 14.8269 23.4525 14.8983C23.4922 14.7838 23.429 14.6024 23.2908 14.4573C23.2093 14.3717 23.1169 14.3153 23.0339 14.2927C22.9751 14.2768 22.9204 14.2781 22.8774 14.2985C22.9415 14.2679 23.0055 14.2377 23.0691 14.2075Z" fill="#FFAD0D"/>
<path d="M23.0148 15.2161L22.6472 15.6363C22.6428 15.6212 22.6379 15.6061 22.6318 15.591L22.9998 15.1709C23.0055 15.1864 23.0103 15.2015 23.0148 15.2161Z" fill="#404040"/>
<path d="M22.8857 14.9852L22.5182 15.4053C22.5093 15.3946 22.5 15.3844 22.4902 15.3742L22.8582 14.9541C22.8675 14.9643 22.8768 14.975 22.8857 14.9852Z" fill="#404040"/>
<path d="M22.9367 15.0532L22.5691 15.4733C22.5614 15.4617 22.5529 15.4502 22.5444 15.4387L22.9124 15.0186C22.9209 15.0301 22.929 15.0416 22.9367 15.0532Z" fill="#404040"/>
<path d="M22.9803 15.1294L22.6124 15.5495C22.6059 15.5366 22.599 15.5233 22.5913 15.5104L22.9593 15.0903C22.967 15.1032 22.9739 15.1161 22.9803 15.1294Z" fill="#404040"/>
<path d="M22.6277 14.8395L22.3898 15.1114L22.2144 15.0639L22.4522 14.792L22.6277 14.8395Z" fill="#666666"/>
<path d="M22.5558 14.9097L22.4468 15.0339L22.2871 14.9914L22.3961 14.8667L22.5558 14.9097Z" fill="#424242"/>
<path d="M22.4669 14.9268C22.4657 14.9215 22.4673 14.9144 22.4706 14.9104L22.4925 14.8851C22.4941 14.8834 22.4961 14.8825 22.4977 14.8829C22.4994 14.8834 22.5006 14.8851 22.5014 14.8874C22.5075 14.91 22.5245 14.9149 22.5395 14.8976L22.5423 14.8945C22.5443 14.8922 22.5464 14.8914 22.5484 14.8918C22.5504 14.8922 22.5516 14.894 22.5525 14.8971L22.5557 14.9095L22.4467 15.0342L22.4434 15.0218C22.4418 15.0156 22.4438 15.0067 22.4479 15.0023L22.4507 14.9992C22.4657 14.9819 22.473 14.9495 22.4669 14.9268Z" fill="#3D3D3D"/>
<path d="M22.2887 14.9593L22.2915 14.9562C22.3065 14.9394 22.3138 14.907 22.3077 14.8844C22.3065 14.879 22.3082 14.8719 22.3114 14.868L22.3333 14.8427C22.3349 14.8409 22.3369 14.84 22.3385 14.8404L22.3827 14.8524L22.3831 14.852C22.3852 14.8498 22.3872 14.8489 22.3892 14.8493C22.3912 14.8498 22.5489 14.8924 22.5489 14.8924C22.5468 14.8919 22.5448 14.8928 22.5428 14.895L22.5399 14.8981C22.5249 14.915 22.5079 14.9105 22.5019 14.8879C22.501 14.8853 22.4998 14.8839 22.4982 14.8835C22.4966 14.883 22.495 14.8839 22.4929 14.8857L22.4711 14.911C22.4674 14.915 22.4658 14.9225 22.4674 14.9274C22.4735 14.95 22.4662 14.9824 22.4512 14.9993L22.4484 15.0024C22.4443 15.0068 22.4423 15.0157 22.4439 15.0219L22.4467 15.033L22.2875 14.9913L22.2843 14.9789C22.2826 14.9726 22.2847 14.9638 22.2887 14.9593Z" fill="#4D4D4D"/>
<path d="M22.3075 14.8843C22.3131 14.906 22.3063 14.9371 22.2925 14.9544L22.4521 14.9974C22.4659 14.9801 22.4728 14.9495 22.4671 14.9273L22.3075 14.8843Z" fill="#666666"/>
<path d="M22.3104 15.119C22.34 15.127 22.3708 15.1394 22.4016 15.1554L22.3898 15.111L22.2144 15.064L22.2261 15.1083C22.2524 15.1074 22.2808 15.111 22.3104 15.119Z" fill="#4D4D4D"/>
<path d="M22.4014 15.1557L22.3896 15.1113L22.6275 14.8394L22.6393 14.8837L22.4014 15.1557Z" fill="#3D3D3D"/>
<path d="M20.9579 20.5145L23.508 20.0096C23.5984 19.9915 23.6814 19.9546 23.754 19.9036C23.9432 19.7696 24.0628 19.5372 24.0628 19.2843C24.0628 19.2404 24.0591 19.196 24.0518 19.1517C24.0165 18.9374 23.8998 18.7613 23.7426 18.6548C23.606 18.5621 23.4387 18.5226 23.2685 18.5563L20.7184 19.0616C20.3926 19.126 20.1641 19.4369 20.1641 19.7874C20.1641 19.8309 20.1673 19.8748 20.1746 19.9196C20.2407 20.3206 20.5916 20.5868 20.9579 20.5145Z" fill="#E4C6BB"/>
<path d="M23.1588 15.3053C23.0421 15.383 23.2123 15.5959 22.9327 15.9295C22.8537 16.0235 22.7998 16.1691 22.7977 16.2525C22.7953 16.3691 22.7381 16.6819 22.7762 16.7821C22.8707 17.0306 23.3711 16.9529 23.3711 16.9529C23.3711 16.9529 23.6106 16.7121 23.6313 16.4596C23.6519 16.2072 23.6082 16.0985 23.6058 15.9126C23.6033 15.7112 23.2759 15.2272 23.1588 15.3053Z" fill="#FFCEA1"/>
<path d="M24.0702 19.1934L23.8072 16.8603C23.776 16.5436 23.6735 16.3515 23.4036 16.3289C23.4036 16.3289 22.3541 16.2122 22.459 16.9593L22.7318 19.3717C22.7634 19.657 22.9396 19.8845 23.1706 19.9764C23.2671 20.015 23.3736 20.0296 23.4826 20.015C23.8522 19.9662 24.1152 19.5979 24.0702 19.1934Z" fill="#E4C6BB"/>
<path d="M19.8335 25.7014C19.9004 25.9529 19.9129 26.0829 19.9129 26.0829L21.1079 25.6211C21.1079 25.6211 21.1172 25.1371 21.0066 24.7915C21.0054 24.9095 20.9685 25.3314 19.8335 25.7014Z" fill="#493737"/>
<path d="M19.9182 25.8902C18.8586 26.0397 18.0181 25.6972 17.561 25.2225C17.561 25.2225 17.5623 25.1001 17.5752 24.9218C17.589 24.7376 17.6076 24.644 17.6076 24.644C17.7604 25.1675 18.9007 25.7034 20.0183 25.4625C20.8199 25.29 20.9909 24.9351 21.0067 24.7913C21.0784 25.0127 20.9917 25.2536 20.9917 25.2536C20.9917 25.2536 20.659 25.7855 19.9182 25.8902Z" fill="#493737"/>
<path d="M19.6637 26.0713C19.7221 26.8561 19.729 27.1817 19.7711 27.3929C19.8133 27.6041 19.9393 27.5912 20.4199 27.3956C20.9005 27.1999 21.2927 26.9453 21.4159 26.6081C21.5156 26.2754 21.5618 25.8571 21.471 25.3327C21.405 24.9516 21.161 25.3895 20.4888 25.6614C19.8789 25.9072 19.6398 25.7533 19.6637 26.0713Z" fill="#493737"/>
<path d="M20.0444 26.0859C20.0444 26.0859 20.0444 27.0575 20.0444 27.0619C20.0444 27.0663 20.0469 27.0703 20.0521 27.0734L20.0906 27.0978C20.1008 27.1045 20.1174 27.1045 20.1275 27.0978L20.2045 27.049C20.2098 27.0459 20.2122 27.0415 20.2122 27.0375C20.2122 27.0331 20.2122 26.0615 20.2122 26.0615L20.0444 26.0859Z" fill="#C92C2C"/>
<path d="M20.1291 26.0257L20.0521 26.0745C20.0473 26.0776 20.0444 26.082 20.0444 26.086C20.0444 26.09 20.0469 26.0944 20.0521 26.0975L20.0906 26.1219C20.1008 26.1286 20.1174 26.1286 20.1275 26.1219L20.2045 26.0731C20.2098 26.07 20.2122 26.0656 20.2122 26.0616C20.2122 26.0572 20.2098 26.0532 20.2045 26.0501L20.166 26.0257C20.1559 26.0194 20.1393 26.0194 20.1291 26.0257Z" fill="#AB1818"/>
<path d="M20.0444 25.458C20.0444 25.458 20.0444 26.0821 20.0444 26.0861C20.0444 26.0901 20.0469 26.0946 20.0521 26.0977L20.0906 26.1221C20.0967 26.1261 20.1052 26.1269 20.1129 26.1265V25.4478L20.0444 25.458Z" fill="#BAA664"/>
<path d="M20.1128 25.4483V26.127C20.1181 26.1266 20.1233 26.1252 20.1274 26.1226L20.2044 26.0738C20.2092 26.0707 20.2121 26.0662 20.2121 26.0623C20.2121 26.0583 20.2121 25.4341 20.2121 25.4341L20.1128 25.4483Z" fill="#CFBD80"/>
<path d="M20.1291 25.3976L20.0521 25.4464C20.0473 25.4495 20.0444 25.4539 20.0444 25.4579C20.0444 25.4623 20.0469 25.4663 20.0521 25.4694L20.0906 25.4938C20.1008 25.5 20.1174 25.5 20.1275 25.4938L20.2045 25.445C20.2098 25.4419 20.2122 25.4375 20.2122 25.4335C20.2122 25.4295 20.2098 25.4251 20.2045 25.422L20.166 25.3976C20.1559 25.3909 20.1393 25.3909 20.1291 25.3976Z" fill="#AB1818"/>
<path d="M19.9421 25.5619L19.8218 25.4861L19.9794 25.3232L20.0998 25.3991L19.9421 25.5619Z" fill="#363636"/>
<path d="M20.0998 25.3993L19.9795 25.3234L20.2522 25.1509L20.3726 25.2272L20.0998 25.3993Z" fill="#262626"/>
<path d="M20.1301 25.2565L20.0531 25.3053C20.0478 25.3084 20.0454 25.3128 20.0454 25.3168C20.0454 25.3208 20.0478 25.3252 20.0531 25.3283L20.0916 25.3527C20.1017 25.3589 20.1184 25.3589 20.1285 25.3527L20.2055 25.3039C20.2108 25.3008 20.2132 25.2964 20.2132 25.2924C20.2132 25.288 20.2108 25.284 20.2055 25.2809L20.167 25.2565C20.1569 25.2498 20.1402 25.2498 20.1301 25.2565Z" fill="black"/>
<path d="M19.9424 25.5766V25.562L20.1 25.3992L20.3727 25.2271V25.3672L20.1 25.5398L19.9424 25.5766Z" fill="#4A4A4A"/>
<path d="M19.9421 25.5763L19.8218 25.5V25.4858L19.9421 25.5617V25.5763Z" fill="#262626"/>
<path d="M19.9513 25.9845L20.26 25.8926C20.3014 25.8802 20.3383 25.9077 20.3411 25.9525L20.4104 27.0989C20.4128 27.1401 20.3857 27.1814 20.348 27.1938L20.0505 27.2918C20.0088 27.3056 19.9707 27.2785 19.9675 27.2333L19.8864 26.0807C19.8836 26.0386 19.9124 25.996 19.9513 25.9845Z" fill="#A24D28"/>
<path d="M21.0801 26.2626V25.0825L21.0987 25.1256V26.306L21.0801 26.2626Z" fill="#A00E0F"/>
<path d="M21.2168 26.2855V25.1055L21.167 25.1374V26.3175L21.2168 26.2855Z" fill="#D52D2D"/>
<path d="M21.1671 26.3175V25.1375L21.0986 25.1255V26.306L21.1671 26.3175Z" fill="#BF1518"/>
<path d="M21.172 24.9966L21.1988 25.0622L21.217 25.1053L21.1704 25.0072L21.172 24.9966Z" fill="#DED397"/>
<path d="M21.1705 25.0073L21.2171 25.1054L21.1673 25.1373L21.1543 25.0153L21.1705 25.0073Z" fill="#E8E2B5"/>
<path d="M21.1541 25.0152L21.1671 25.1372L21.0986 25.1252L21.1306 25.0107L21.1541 25.0152Z" fill="#DED397"/>
<path d="M21.1307 25.0106L21.1263 24.9951L21.0801 25.0821L21.0987 25.1251L21.1307 25.0106Z" fill="#D9C879"/>
<path d="M21.1588 25.0143C21.1714 25.0103 21.1755 25.0019 21.1714 24.9948L21.1584 24.9677C21.1544 24.9593 21.143 24.9593 21.139 24.9677L21.126 24.9944C21.122 25.0015 21.126 25.0099 21.1386 25.0139C21.1455 25.0165 21.1524 25.0165 21.1588 25.0143Z" fill="#2F2F2F"/>
<path d="M20.8145 25.0834V25.035C20.8145 25.0279 20.8072 25.023 20.8015 25.0266C20.7934 25.0315 20.7886 25.0412 20.7886 25.0514V25.0998C20.7886 25.1073 20.7959 25.1118 20.8015 25.1082C20.8096 25.1029 20.8145 25.0936 20.8145 25.0834Z" fill="#686868"/>
<path d="M20.6472 25.5635C20.6468 25.5648 20.631 25.63 20.6249 25.6558C20.6152 25.6966 20.6857 25.7378 20.6946 25.7001C20.7007 25.6744 20.7165 25.6092 20.7169 25.6078L20.6472 25.5635Z" fill="#F09300"/>
<path d="M21.0099 25.917C20.9888 25.8021 20.9491 25.6726 20.911 25.563L20.8688 25.6105C20.8587 25.6215 20.8542 25.6384 20.8575 25.6482C20.8802 25.7134 20.9572 25.941 20.9661 26.1078C20.9705 26.1996 20.9608 26.4312 20.9191 26.5611C20.9203 26.562 20.9211 26.5629 20.9223 26.5638C20.9244 26.5651 20.9264 26.566 20.9284 26.5665C20.9292 26.5665 20.9296 26.5669 20.9304 26.5669C20.9377 26.5669 20.9434 26.5656 20.9483 26.5625C20.9653 26.5518 20.9714 26.5208 20.9851 26.4551C21.0001 26.3846 21.0095 26.3127 21.0159 26.2408C21.0265 26.1259 21.0309 26.0301 21.0099 25.917Z" fill="#FF5947"/>
<path d="M20.6247 26.6832C20.6065 26.6211 20.568 26.4246 20.5927 26.2143C20.5931 26.2116 20.5935 26.2085 20.5939 26.2059C20.5939 26.2045 20.5943 26.2032 20.5943 26.2019C20.5943 26.2005 20.5947 26.1992 20.5947 26.1979C20.5955 26.1917 20.5963 26.1859 20.5972 26.1792C20.6182 26.0297 20.6656 25.8199 20.694 25.7001L20.6243 25.6558C20.6053 25.7361 20.5777 25.8572 20.555 25.973C20.5376 26.0617 20.5214 26.1526 20.5165 26.2436C20.5121 26.3252 20.5157 26.4073 20.5258 26.4884C20.5323 26.539 20.5404 26.59 20.5546 26.6384C20.5647 26.6725 20.5708 26.6943 20.5797 26.7001L20.6494 26.7444C20.6413 26.7391 20.6348 26.7174 20.6247 26.6832Z" fill="#DE3222"/>
<path d="M20.9182 26.4174C20.9587 26.1436 20.9186 26.0017 20.8971 25.9143C20.8611 25.7639 20.8319 25.7031 20.8031 25.602L20.7334 25.5576C20.7622 25.6592 20.7913 25.72 20.8278 25.8699C20.8489 25.9578 20.8894 26.0993 20.8489 26.373C20.8416 26.4222 20.8335 26.4954 20.8505 26.5167H20.8509C20.8517 26.5176 20.8525 26.519 20.8538 26.5198L20.8546 26.5203L20.921 26.5624L20.9178 26.558C20.9032 26.5336 20.9109 26.4644 20.9182 26.4174Z" fill="#F09300"/>
<path d="M20.9664 26.1077C20.9575 25.9409 20.8809 25.7133 20.8578 25.6481C20.8546 25.6379 20.8591 25.6215 20.8692 25.6104L20.9113 25.5629C20.8984 25.5252 20.8895 25.5012 20.8886 25.499C20.8809 25.515 20.8716 25.5305 20.8615 25.5443C20.8607 25.5452 20.8603 25.546 20.8595 25.5469C20.8582 25.5483 20.8574 25.5496 20.8562 25.5509C20.8554 25.5523 20.8542 25.5536 20.853 25.5549C20.8522 25.5558 20.8518 25.5567 20.851 25.5576C20.8497 25.5589 20.8485 25.5602 20.8473 25.5616C20.8469 25.5625 20.8461 25.5629 20.8457 25.5638C20.8445 25.5651 20.8433 25.5665 20.842 25.5678C20.8416 25.5687 20.8408 25.5691 20.84 25.57C20.8388 25.5713 20.8376 25.5722 20.8368 25.5736C20.836 25.5744 20.8351 25.5749 20.8347 25.5758C20.8335 25.5767 20.8327 25.578 20.8315 25.5789C20.8307 25.5798 20.8299 25.5807 20.8291 25.5811C20.8283 25.582 20.827 25.5829 20.8262 25.5838C20.825 25.5846 20.8242 25.5855 20.823 25.5864C20.8222 25.5873 20.8214 25.5877 20.8206 25.5886C20.8194 25.5895 20.8181 25.5909 20.8169 25.5917C20.8161 25.5922 20.8157 25.5926 20.8149 25.5931C20.8133 25.5944 20.8116 25.5953 20.8088 25.5975C20.8068 25.5988 20.8048 25.6002 20.8027 25.6015C20.8315 25.7031 20.8607 25.7639 20.8967 25.9138C20.9182 26.0017 20.9583 26.1432 20.9178 26.4169C20.9105 26.4661 20.9024 26.5398 20.9194 26.5611C20.9608 26.4315 20.9709 26.1995 20.9664 26.1077Z" fill="#FFBB00"/>
<path d="M20.7968 25.6051L20.7275 25.5608L20.7312 25.5581L20.8009 25.6025L20.7968 25.6051Z" fill="#FFCB00"/>
<path d="M20.7201 25.6103L20.6504 25.5659C20.6561 25.5695 20.6625 25.5721 20.6698 25.5739L20.7395 25.6183C20.7322 25.6165 20.7258 25.6138 20.7201 25.6103Z" fill="#FFCB00"/>
<path d="M20.8009 25.6025C20.7997 25.6034 20.798 25.6043 20.7968 25.6048C20.7956 25.6056 20.794 25.6065 20.7911 25.6079C20.7895 25.6088 20.7879 25.6096 20.7859 25.6105C20.7709 25.6172 20.7563 25.6198 20.7437 25.6185C20.7421 25.6185 20.7405 25.6181 20.7389 25.6176C20.7308 25.6158 20.7231 25.6127 20.7166 25.6079C20.7158 25.6105 20.7069 25.6465 20.6939 25.7006L20.7364 25.6939C20.7466 25.6922 20.751 25.7032 20.7478 25.7174C20.7255 25.8115 20.6501 26.1349 20.642 26.3123C20.6376 26.4095 20.6489 26.6273 20.6906 26.7049C20.7077 26.6624 20.6996 26.5994 20.6919 26.5599C20.6501 26.3381 20.6894 26.146 20.7105 26.0315C20.7457 25.8363 20.7745 25.7387 20.8009 25.6025Z" fill="#FFCB00"/>
<path d="M20.7482 25.7175C20.7514 25.7034 20.747 25.6923 20.7368 25.694L20.6943 25.7002C20.6659 25.82 20.6185 26.0299 20.5975 26.1794C20.5966 26.1856 20.5958 26.1918 20.595 26.198C20.5946 26.1993 20.5946 26.2007 20.5946 26.202C20.5946 26.2033 20.5942 26.2046 20.5942 26.206C20.5938 26.2086 20.5934 26.2117 20.593 26.2144C20.5683 26.4247 20.6068 26.6212 20.625 26.6833C20.6392 26.7312 20.6457 26.7543 20.6623 26.7441C20.6672 26.741 20.6728 26.7352 20.6797 26.7263C20.6846 26.7201 20.6882 26.7135 20.6911 26.7059C20.6493 26.6283 20.638 26.4105 20.6424 26.3133C20.6501 26.135 20.7255 25.8116 20.7482 25.7175Z" fill="#FF5947"/>
<path d="M20.8842 25.2996C20.8842 25.2996 20.8607 25.2845 20.8153 25.2561C20.77 25.2273 20.6966 25.2738 20.6512 25.3599C20.6058 25.446 20.6058 25.5391 20.6512 25.5675C20.6966 25.5964 20.7201 25.611 20.7201 25.611L20.8842 25.2996Z" fill="#85837E"/>
<path d="M20.7196 25.4039C20.765 25.3178 20.8387 25.2712 20.8841 25.3C20.9295 25.3289 20.9295 25.4216 20.8841 25.5077C20.8387 25.5937 20.765 25.6403 20.7196 25.6115C20.6742 25.5826 20.6742 25.4899 20.7196 25.4039Z" fill="#BEBBB4"/>
<path d="M20.8021 25.3946C20.8289 25.3777 20.8508 25.3906 20.8512 25.4247C20.8512 25.4585 20.8297 25.4993 20.8025 25.5161C20.7762 25.533 20.7543 25.5197 20.7539 25.486C20.7539 25.4523 20.7754 25.4114 20.8021 25.3946Z" fill="#404040"/>
<path d="M20.8283 24.9453L20.8008 24.9626V25.0261C20.8065 25.0225 20.8137 25.0269 20.8137 25.0345V25.0828C20.8137 25.093 20.8089 25.1024 20.8008 25.1077V25.1622L20.8154 25.1529L20.8158 25.3002C20.8405 25.2882 20.8628 25.2878 20.8806 25.2976L20.913 25.2363L20.8283 24.9453Z" fill="#BEBBB4"/>
<path d="M20.8016 25.1625V25.108C20.7959 25.1115 20.7887 25.1071 20.7887 25.0995V25.0512C20.7887 25.041 20.7935 25.0317 20.8016 25.0263V24.9629L20.7745 24.9802L20.6914 25.3772L20.7238 25.3976C20.7412 25.3657 20.7635 25.3382 20.7882 25.3187L20.7878 25.1714L20.8016 25.1625Z" fill="#BEBBB4"/>
<path d="M20.8015 25.1068L20.7886 25.0991C20.7886 25.106 20.7959 25.1105 20.8015 25.1068Z" fill="#4F4F4F"/>
<path d="M20.8164 25.1528V25.3006L20.7953 25.3041L20.7949 25.1666L20.8164 25.1528Z" fill="#F2F2F2"/>
<path d="M20.7948 25.167L20.7952 25.3045L20.7875 25.3192L20.7871 25.1714L20.7948 25.167Z" fill="#D9D9D9"/>
<path d="M20.8011 24.963L20.7314 24.9187L20.7594 24.9014L20.8287 24.9453L20.8011 24.963Z" fill="#D0CFCA"/>
<path d="M20.7738 24.9806L20.7041 24.9362L20.7313 24.9189L20.801 24.9633L20.7738 24.9806Z" fill="#D0CFCA"/>
<path d="M20.6904 25.3774L20.6211 25.3331L20.7042 24.936L20.7739 24.9804L20.6904 25.3774Z" fill="#97948F"/>
<path d="M20.5113 25.8048C20.9121 25.6411 21.0304 25.5457 21.2748 25.3905C21.321 25.3612 21.374 25.3794 21.387 25.4304C21.4458 25.6615 21.4113 26.3483 21.3457 26.5479C21.3035 26.6757 20.8282 26.9551 20.594 27.0776C20.5482 27.1015 20.5012 27.0749 20.4975 27.0235L20.4222 25.9503C20.4181 25.8891 20.4562 25.827 20.5113 25.8048Z" fill="#A24D28"/>
<path d="M18.6852 16.3695L18.5348 16.3008C17.9789 16.0461 17.9773 15.4659 18.5304 15.004L18.6224 14.9273C19.1759 14.4659 20.0751 14.2978 20.6311 14.5524L20.781 14.6212C21.337 14.8758 21.339 15.4561 20.7855 15.9179L20.6939 15.9947C20.1403 16.4565 19.2407 16.6242 18.6852 16.3695Z" fill="#FEA81F"/>
<path d="M18.1206 15.797C18.1206 15.797 18.1214 15.7952 18.1214 15.7943C18.1453 16.0024 18.2823 16.1856 18.5347 16.3009L18.6851 16.3697C19.2411 16.6243 20.1403 16.4566 20.6938 15.9948L20.7858 15.9181C21.0917 15.663 21.2275 15.3715 21.1938 15.1187L21.1951 15.1204C21.1951 15.1204 21.2044 15.2021 21.2076 15.2278C21.238 15.4789 21.1014 15.7677 20.7979 16.021L20.7059 16.0977C20.1524 16.5591 19.2532 16.7272 18.6972 16.4726L18.5469 16.4038C18.2944 16.288 18.1563 16.1053 18.1324 15.8968C18.1279 15.8586 18.1206 15.797 18.1206 15.797Z" fill="#EB7200"/>
<path d="M18.3317 15.0298C18.3889 14.8768 18.4622 14.7716 18.521 14.6873C18.5789 14.6044 18.6628 14.5267 18.7183 14.4753C19.0891 14.1585 19.5547 14.0844 19.9956 14.2725C20.1159 14.324 20.3461 14.45 20.5345 14.7175C20.7307 14.9961 20.7692 15.2512 20.7923 15.4033C20.8154 15.6043 20.7209 15.8217 20.5025 16.0107C20.0523 16.4002 19.2463 16.5226 18.7017 16.2835C18.4213 16.1606 18.2653 15.9659 18.2405 15.7525C18.215 15.4854 18.2426 15.2694 18.3317 15.0298Z" fill="#FF9900"/>
<path opacity="0.2" d="M18.5684 16.2127C18.5012 15.5521 18.6519 14.9869 18.981 14.5899C19.1832 14.3459 19.4429 14.2367 19.7452 14.1973C19.8291 14.2141 19.913 14.2372 19.9957 14.2727C20.037 14.2904 20.0921 14.3175 20.1529 14.3556C19.7468 14.3428 19.4056 14.4878 19.1678 14.7753C18.887 15.1142 18.7488 15.7358 18.8083 16.3249C18.7719 16.3125 18.7362 16.2987 18.7014 16.2836C18.6531 16.2623 18.6098 16.2379 18.5684 16.2127Z" fill="white"/>
<path opacity="0.5" d="M24.7257 48.0375L20.6718 45.4751C20.1503 45.1455 20.216 44.5701 20.8177 44.1894L22.2741 43.2689C22.8763 42.8883 23.7868 42.847 24.3079 43.1767L29.6954 46.5819L27.2118 48.1519L24.7257 48.0375Z" fill="black"/>
<path d="M23.1486 39.9115C23.2061 39.7758 23.2977 39.6595 23.3949 39.5979C23.4768 39.546 23.5546 39.5384 23.6117 39.5748C23.6223 39.5815 23.6324 39.5899 23.6413 39.6001L24.637 40.6879V43.3847L22.1533 44.9542V42.2574L23.1486 39.9115Z" fill="#DE3222"/>
<path d="M22.9659 39.7958C23.0235 39.66 23.1151 39.5438 23.2123 39.4821C23.295 39.4298 23.3732 39.4227 23.4303 39.4599C23.4405 39.4666 23.6119 39.5748 23.6119 39.5748C23.5551 39.5385 23.4773 39.546 23.3951 39.5979C23.2978 39.6596 23.2062 39.7758 23.1487 39.9115L22.1535 42.2574L21.9707 42.1421L22.9659 39.7958Z" fill="#FB4432"/>
<path d="M24.4949 43.2949L27.1779 44.9905L27.0896 45.1981L24.2866 43.4262L24.4949 43.2949Z" fill="#CF2313"/>
<path d="M28.0202 43.0057L27.1781 44.9905L24.4951 43.295V40.7778L28.0202 43.0057Z" fill="#C91716"/>
<path d="M27.2994 46.0395L26.5518 43.8564L26.6129 43.9225L27.3606 46.1056L27.2994 46.0395Z" fill="#91AD0B"/>
<path d="M27.5677 45.9785L26.82 43.7954L26.7471 43.8926L27.4947 46.0752L27.5677 45.9785Z" fill="#C3E022"/>
<path d="M27.4946 46.0752L26.7469 43.8926L26.6128 43.9227L27.3604 46.1058L27.4946 46.0752Z" fill="#AFCD15"/>
<path d="M26.6675 43.6289L26.7583 43.7292L26.8198 43.7953L26.6711 43.6489L26.6675 43.6289Z" fill="#DED397"/>
<path d="M26.6711 43.6489L26.8198 43.7953L26.7469 43.8925L26.646 43.6769L26.6711 43.6489Z" fill="#E8E2B5"/>
<path d="M26.6463 43.6768L26.7472 43.8924L26.6131 43.9225L26.6001 43.6861L26.6463 43.6768Z" fill="#DED397"/>
<path d="M26.6 43.6864L26.5813 43.6611L26.5518 43.8568L26.6129 43.9229L26.6 43.6864Z" fill="#D9C879"/>
<path d="M26.6541 43.6714C26.6748 43.6546 26.6772 43.6359 26.665 43.6262L26.6241 43.5862C26.6111 43.5734 26.5905 43.5818 26.5884 43.6009L26.5815 43.6603C26.5783 43.6763 26.5913 43.6892 26.6168 43.6869C26.6306 43.6856 26.6436 43.6803 26.6541 43.6714Z" fill="#AFCD15"/>
<path d="M24.6373 40.688L28.0898 42.8702C28.0655 42.9088 28.0432 42.95 28.0249 42.9935L28.0197 43.0059L24.4946 40.778L24.6373 40.688Z" fill="#59A3DE"/>
<path d="M28.0251 42.9935C28.0827 42.8578 28.1742 42.7415 28.2715 42.6799C28.353 42.6284 28.4307 42.6204 28.4875 42.6564C28.4984 42.6635 28.671 42.7721 28.671 42.7721C28.6143 42.7358 28.5365 42.7438 28.4546 42.7952C28.3574 42.8569 28.2658 42.9731 28.2083 43.1089L27.2131 45.4552L27.0303 45.3394L28.0251 42.9935Z" fill="#DE3222"/>
<path d="M23.5873 43.1753C23.5873 43.1753 24.3 45.2408 24.3049 45.255C24.3098 45.2692 24.3061 45.2865 24.2927 45.3042L24.1922 45.4387C24.1659 45.4742 24.1108 45.4968 24.0695 45.4897L23.757 45.4338C23.7364 45.4302 23.723 45.4196 23.7181 45.4054C23.7133 45.3912 23.0005 43.3257 23.0005 43.3257L23.5873 43.1753Z" fill="#C92C2C"/>
<path d="M23.236 43.0913L23.5485 43.1472C23.5691 43.1507 23.5825 43.1614 23.5874 43.1756C23.5922 43.1898 23.5886 43.2075 23.5752 43.2253L23.4747 43.3597C23.4484 43.3952 23.3933 43.4178 23.3519 43.4107L23.0395 43.3548C23.0188 43.3513 23.0055 43.3406 23.0006 43.3264C22.9957 43.3122 22.9994 43.2949 23.0127 43.2772L23.1133 43.1428C23.14 43.1064 23.1947 43.0838 23.236 43.0913Z" fill="#AB1818"/>
<path d="M22.8649 41.082C22.8649 41.082 23.5825 43.1613 23.5874 43.1755C23.5923 43.1897 23.5886 43.207 23.5752 43.2247L23.4748 43.3592C23.4589 43.3805 23.4326 43.3969 23.4055 43.4053L22.625 41.1437L22.8649 41.082Z" fill="#BAA664"/>
<path d="M22.6247 41.1436L23.4052 43.4052C23.3869 43.4109 23.3683 43.4127 23.3517 43.4096L23.0392 43.3537C23.0186 43.3501 23.0052 43.3395 23.0003 43.3253C22.9955 43.3111 22.2778 41.2318 22.2778 41.2318L22.6247 41.1436Z" fill="#CFBD80"/>
<path d="M22.514 40.9979L22.8264 41.0538C22.847 41.0573 22.8604 41.068 22.8653 41.0817C22.8701 41.0959 22.8665 41.1132 22.8535 41.1314L22.753 41.2658C22.7267 41.3013 22.6716 41.3239 22.6302 41.3169L22.3178 41.261C22.2972 41.2574 22.2838 41.2468 22.2789 41.2326C22.2741 41.2184 22.2777 41.2011 22.2911 41.1833L22.3916 41.0489C22.4175 41.0134 22.4726 40.9908 22.514 40.9979Z" fill="#AB1818"/>
<path d="M23.3262 41.2884L23.6398 40.8697L22.927 40.5449L22.6138 40.9641L23.3262 41.2884Z" fill="#363636"/>
<path d="M22.6139 40.9642L22.9271 40.545L21.8201 40.3467L21.5068 40.7655L22.6139 40.9642Z" fill="#4A4A4A"/>
<path d="M22.3479 40.5298L22.6603 40.5857C22.681 40.5892 22.6943 40.5999 22.6992 40.6136C22.7041 40.6278 22.7004 40.6451 22.687 40.6633L22.5865 40.7977C22.5602 40.8332 22.5051 40.8558 22.4637 40.8487L22.1513 40.7928C22.1306 40.7893 22.1173 40.7786 22.1124 40.7644C22.1075 40.7503 22.1112 40.7329 22.1246 40.7152L22.2251 40.5808C22.2514 40.5449 22.3065 40.5222 22.3479 40.5298Z" fill="#CFBD80"/>
<path d="M23.3429 41.3365L23.3263 41.2882L22.6139 40.9639L21.5068 40.7651L21.6681 41.2327L22.7752 41.4315L23.3429 41.3365Z" fill="#262626"/>
<path d="M23.3428 41.3368L23.6564 40.9175L23.6398 40.8696L23.3262 41.2884L23.3428 41.3368Z" fill="#262626"/>
<path d="M23.5715 38.218L23.6339 38.0894L23.4989 38.2783L23.4365 38.407L23.4908 38.5534L23.6258 38.3644L23.5715 38.218Z" fill="#1C1C1C"/>
<path d="M25.058 42.2504L25.2615 42.2819C25.2825 42.285 25.3065 42.3054 25.3142 42.3272L25.4884 42.7996C25.4965 42.8214 25.4856 42.8364 25.4645 42.8329L25.2611 42.8014L26.6935 46.6871L27.5482 46.8189L24.4806 38.496L23.626 38.3643L25.058 42.2504ZM27.0988 45.9445C27.1579 46.1046 27.0789 46.2151 26.9229 46.1911C26.7665 46.1672 26.5918 46.0177 26.5331 45.8571C26.4739 45.6969 26.5529 45.5865 26.7093 45.6104C26.8649 45.6348 27.0396 45.7843 27.0988 45.9445ZM24.4923 39.11C24.6447 39.2404 24.7124 39.4241 24.6435 39.5203C24.5746 39.6166 24.3955 39.5891 24.2431 39.4587C24.0908 39.3283 24.0231 39.1446 24.092 39.0483C24.1609 38.9516 24.34 38.9796 24.4923 39.11Z" fill="#FCC901"/>
<path d="M27.5398 47.0943L27.4048 47.2829L26.7832 47.187L26.9181 46.998L27.5398 47.0943Z" fill="#1C1C1C"/>
<path d="M26.9179 46.9981L26.7829 47.1871L26.6123 47.0225L26.7472 46.834L26.9179 46.9981Z" fill="#2B2B2B"/>
<path d="M26.7474 46.8339L26.6125 47.0224L26.5586 46.876L26.6935 46.6875L26.7474 46.8339Z" fill="#1C1C1C"/>
<path d="M26.7473 46.8339L26.9179 46.998L27.5395 47.0943L27.6019 46.9657L27.548 46.8193L26.6934 46.6875L26.7473 46.8339Z" fill="#404040"/>
<path d="M24.4259 38.3502L24.2557 38.1856L23.6337 38.0894L23.5713 38.218L23.6256 38.3644L24.4802 38.4962L24.4259 38.3502Z" fill="#404040"/>
<path d="M24.2202 39.4907C24.4006 39.6451 24.6129 39.6779 24.6943 39.5639C24.7758 39.4499 24.6955 39.2325 24.5152 39.0782C24.3349 38.9238 24.1226 38.891 24.0411 39.005C23.9597 39.1185 24.0399 39.3364 24.2202 39.4907ZM24.4921 39.1101C24.6445 39.2405 24.7122 39.4242 24.6433 39.5205C24.5744 39.6167 24.3953 39.5892 24.2429 39.4588C24.0905 39.3284 24.0229 39.1447 24.0918 39.0484C24.1607 38.9517 24.3398 38.9797 24.4921 39.1101Z" fill="#404040"/>
<path d="M24.0683 39.1804C24.0598 39.1294 24.0671 39.0832 24.0918 39.0482C24.1607 38.9519 24.3398 38.9794 24.4922 39.1098C24.6446 39.2403 24.7123 39.4239 24.6434 39.5202C24.6186 39.5548 24.5793 39.5734 24.5319 39.577C24.5173 39.4869 24.4545 39.3818 24.3573 39.2988C24.26 39.2159 24.1518 39.1746 24.0683 39.1804Z" fill="#1C1C1C"/>
<path d="M24.2176 39.2402C24.2318 39.2207 24.2934 39.2478 24.3554 39.301C24.4174 39.3542 24.4567 39.4132 24.4425 39.4328C24.4283 39.4523 24.3667 39.4252 24.3048 39.372C24.2428 39.3192 24.2038 39.2602 24.2176 39.2402Z" fill="white"/>
<path opacity="0.6" d="M24.6302 39.5063C24.6285 39.52 24.6253 39.5329 24.6208 39.5449C24.5925 39.5679 24.5544 39.579 24.511 39.5781L24.073 39.2033C24.0616 39.1571 24.062 39.1141 24.0758 39.0786C24.0851 39.0706 24.0961 39.0644 24.1078 39.0591L24.6302 39.5063Z" fill="#AFCD15"/>
<path d="M26.5582 46.8759L25.1577 43.0762L25.2927 42.8877L26.6931 46.6873L26.5582 46.8759Z" fill="#FFAD0D"/>
<path d="M25.0261 42.1639L24.8912 42.3529L23.4907 38.5532L23.6257 38.3643L25.0261 42.1639Z" fill="#FFAD0D"/>
<path d="M25.0574 42.2506L25.2608 42.2821C25.2819 42.2852 25.3058 42.3056 25.3135 42.3273L25.4877 42.7998C25.4959 42.8215 25.4849 42.8366 25.4639 42.833L25.2604 42.8016L25.292 42.8881L25.523 42.9236C25.5712 42.9311 25.5955 42.8969 25.5773 42.8472L25.3767 42.3029C25.3585 42.2532 25.3046 42.2071 25.2564 42.1996L25.0254 42.1641L25.0574 42.2506Z" fill="#404040"/>
<path d="M25.2612 42.282C25.2823 42.2851 25.3062 42.3055 25.3139 42.3272L25.4881 42.7997C25.4962 42.8214 25.4853 42.8365 25.4642 42.833L25.2855 42.8055L25.1789 42.5162C25.1708 42.4945 25.1473 42.4741 25.1263 42.471L24.9229 42.4395L25.0578 42.2505L25.2612 42.282Z" fill="#1C1C1C"/>
<path d="M25.0576 42.2506L24.9227 42.4391L24.8911 42.353L25.026 42.1641L25.0576 42.2506Z" fill="#2B2B2B"/>
<path d="M25.2924 42.8883L25.1575 43.0768L25.1255 42.9907L25.2608 42.8018L25.2924 42.8883Z" fill="#2B2B2B"/>
<path d="M25.1528 42.5247C25.1848 42.5296 25.2302 42.5869 25.2541 42.6521C25.2784 42.7173 25.2719 42.7665 25.2399 42.7616C25.2079 42.7568 25.1625 42.6995 25.1386 42.6343C25.1147 42.5691 25.1208 42.5199 25.1528 42.5247Z" fill="white"/>
<path opacity="0.6" d="M25.0824 42.3169C25.1217 42.2996 25.161 42.3058 25.17 42.3307C25.1793 42.3555 25.3487 42.8156 25.3487 42.8156L25.2607 42.8018L25.2064 42.8777C25.2064 42.8777 25.037 42.4181 25.0277 42.3932C25.0188 42.3684 25.0431 42.3342 25.0824 42.3169Z" fill="#AFCD15"/>
<path d="M26.4804 45.849C26.5505 46.0389 26.7571 46.2159 26.9423 46.2443C27.1275 46.2727 27.2207 46.1422 27.151 45.9524C27.0809 45.7625 26.8742 45.5855 26.689 45.5571C26.5034 45.5287 26.4103 45.6596 26.4804 45.849ZM27.0983 45.9444C27.1575 46.1045 27.0785 46.215 26.9225 46.191C26.766 46.1671 26.5914 46.0176 26.5326 45.857C26.4735 45.6968 26.5525 45.5864 26.7089 45.6103C26.8645 45.6347 27.0392 45.7842 27.0983 45.9444Z" fill="#404040"/>
<path d="M26.9635 46.1333C26.9043 45.9731 26.7297 45.8236 26.5736 45.7992C26.553 45.7961 26.5343 45.7957 26.5165 45.7965C26.4958 45.6697 26.5728 45.5894 26.7086 45.6102C26.865 45.6342 27.0396 45.7837 27.0984 45.9443C27.1499 46.0836 27.0968 46.1847 26.9793 46.1931C26.9764 46.1745 26.9712 46.1541 26.9635 46.1333Z" fill="#1C1C1C"/>
<path d="M26.7426 45.8637C26.7746 45.8686 26.82 45.9258 26.8439 45.991C26.8682 46.0562 26.8618 46.1054 26.8297 46.1006C26.7977 46.0957 26.7523 46.0385 26.7284 45.9732C26.7045 45.9076 26.7106 45.8584 26.7426 45.8637Z" fill="white"/>
<path opacity="0.6" d="M26.7636 46.1283C26.7137 45.9934 26.6242 45.7503 26.6177 45.7321C26.6084 45.7073 26.6331 45.6731 26.6724 45.6558C26.7117 45.6385 26.751 45.6447 26.7599 45.6691C26.7684 45.6922 26.9309 46.1332 26.9532 46.1935C26.9435 46.1931 26.9334 46.1922 26.9224 46.1904C26.8697 46.1829 26.815 46.1607 26.7636 46.1283Z" fill="#AFCD15"/>
<path d="M23.8323 43.5362C23.8644 43.2163 24.0463 42.7314 24.0463 42.7314C24.0974 42.8073 24.1683 42.8738 24.2444 42.9111C24.1962 43.0943 24.1403 43.203 24.0824 43.4732C24.0483 43.6302 23.9794 43.8849 24.1026 44.3737C24.1286 44.4762 24.161 44.6386 24.0933 44.6408C24.0256 44.6426 24.0106 44.5942 23.9612 44.4434C23.9118 44.2917 23.8003 43.8565 23.8323 43.5362Z" fill="#FFBB00"/>
<path d="M24.1091 44.6364C24.1553 44.6102 24.1261 44.4669 24.1026 44.3738C23.9794 43.8849 24.0483 43.6307 24.0824 43.4732C24.1407 43.203 24.1962 43.0939 24.2445 42.9111L24.3028 42.9333C24.2635 43.0562 24.2205 43.1684 24.176 43.3747C24.1419 43.5318 24.0731 43.7864 24.1962 44.2753C24.2165 44.356 24.2412 44.4745 24.2173 44.5215C24.2112 44.5335 24.1646 44.6115 24.1091 44.6364Z" fill="#F09300"/>
<path d="M23.8323 43.536C23.8546 43.3128 23.9499 43.009 24.0054 42.8457L24.103 42.9295C24.1253 42.9486 24.1379 42.9783 24.1318 42.9965C24.0905 43.1137 23.9551 43.5222 23.958 43.8217C23.9596 43.9854 24.0119 44.3997 24.1164 44.63C24.1103 44.6366 24.1026 44.6402 24.0929 44.6406C24.0252 44.6424 24.0102 44.594 23.9608 44.4432C23.9118 44.2915 23.8003 43.8563 23.8323 43.536Z" fill="#1C72D9"/>
<path d="M24.0034 42.3953C24.0034 42.3953 24.0233 42.3744 24.0974 42.2964C24.1716 42.2183 24.3317 42.2693 24.4548 42.4099C24.578 42.5506 24.6177 42.7276 24.544 42.8052C24.4698 42.8833 24.45 42.9041 24.45 42.9041L24.0034 42.3953Z" fill="#BABABA"/>
<path d="M24.092 42.791C24.2152 42.9317 24.3753 42.9822 24.4495 42.9046C24.5236 42.8265 24.4835 42.6495 24.3603 42.5093C24.2371 42.3687 24.077 42.3181 24.0029 42.3958C23.9291 42.4734 23.9688 42.6504 24.092 42.791Z" fill="#E3E3E3"/>
<path d="M24.121 42.6159C24.1356 42.6802 24.1943 42.7472 24.2523 42.7658C24.3102 42.7845 24.3459 42.7472 24.3313 42.6829C24.3167 42.6185 24.2579 42.5516 24.2 42.5329C24.1416 42.5147 24.1064 42.552 24.121 42.6159Z" fill="#404040"/>
<path d="M24.1655 41.7699L24.2596 41.6714L24.3211 41.7016L24.2271 41.8005L24.1655 41.7699Z" fill="#C9C9C9"/>
<path d="M24.2271 41.8006L24.3211 41.7017L24.5512 42.4084L24.4572 42.5068L24.2271 41.8006Z" fill="#A6A6A6"/>
<path d="M24.2031 42.1323L24.2222 42.1416L24.2404 42.4056L24.2201 42.3754L24.2031 42.1323Z" fill="#F2F2F2"/>
<path d="M24.21 42.0025L24.2088 41.9812L24.2043 41.979L24.1909 41.9932L24.21 42.0025Z" fill="#A6A6A6"/>
<path d="M24.2128 42.0432L24.2116 42.0237L24.1962 42.0161L24.1836 42.029L24.2128 42.0432Z" fill="#A6A6A6"/>
<path d="M24.207 41.9596L24.2058 41.9387L24.2013 41.9365L24.188 41.9503L24.207 41.9596Z" fill="#A6A6A6"/>
<path d="M24.2041 41.9176L24.2029 41.8977L24.1972 41.895L24.1851 41.9083L24.2041 41.9176Z" fill="#A6A6A6"/>
<path d="M24.1737 41.8836L24.166 41.77L24.2276 41.8002L24.4574 42.5069L24.3897 42.5441C24.3484 42.4887 24.2965 42.4399 24.2406 42.4057L24.2223 42.1418L24.1903 42.1258L24.1834 42.0291L24.2126 42.0433L24.2114 42.0233L24.1924 42.014L24.1907 41.9927L24.2098 42.002L24.2082 41.9807L24.1891 41.9714L24.1875 41.9501L24.2065 41.9594L24.2049 41.9382L24.1859 41.9288L24.1842 41.9075L24.2033 41.9169L24.2021 41.8969L24.1737 41.8836Z" fill="#E3E3E3"/>
<path d="M23.814 41.6692L23.9076 41.5703L23.9643 41.5779L23.8703 41.6763L23.814 41.6692Z" fill="#A6A6A6"/>
<path d="M23.9751 41.9632L23.9483 41.9596L23.9402 41.9379L23.9576 41.9401L23.9491 41.9166L23.9317 41.9144L23.9232 41.8909L23.9406 41.8931L23.9321 41.87L23.9147 41.8674L23.9062 41.8443L23.9236 41.8465L23.9147 41.823L23.8973 41.8208L23.8892 41.7986L23.9159 41.8022L23.8701 41.6766L23.9641 41.5781L24.0099 41.7037L23.9921 41.7223L24.0087 41.7241L24.0172 41.7476L23.9998 41.7454L24.0083 41.7689L24.0257 41.7711L24.0346 41.7946L24.0168 41.7924L24.0257 41.8159L24.0431 41.8181L24.0517 41.8416L24.0342 41.8394L24.0423 41.8612L24.0687 41.8647L24.108 41.9716L24.014 42.0705L23.9751 41.9632Z" fill="#C9C9C9"/>
<path d="M23.9849 42.0665L24.0144 42.0705L24.0355 42.0483C24.0339 42.063 24.0363 42.0807 24.0432 42.0998C24.0647 42.1588 24.1218 42.212 24.1704 42.2182L24.1858 42.2604L24.0918 42.3593L23.9849 42.0665Z" fill="#404040"/>
<path d="M24.0767 42.3167L24.1703 42.2183L24.1857 42.26L24.0921 42.3589L24.0767 42.3167Z" fill="#919191"/>
<path d="M24.0295 42.0542L24.1357 42.3443L24.1321 42.3483L24.0259 42.0582L24.0295 42.0542Z" fill="#A6A6A6"/>
<path d="M24.0258 42.0581L24.014 42.0705L23.9849 42.0665L24.0918 42.3589L24.132 42.3482L24.0258 42.0581Z" fill="#F2F2F2"/>
<path d="M23.9062 41.8445L23.9999 41.7456L24.0084 41.7691L23.9148 41.868L23.9062 41.8445Z" fill="#919191"/>
<path d="M23.9151 41.8024L23.8973 41.821L23.8892 41.7988L23.9151 41.8024Z" fill="#919191"/>
<path d="M23.9233 41.891L24.017 41.7925L24.0259 41.816L23.9318 41.9145L23.9233 41.891Z" fill="#919191"/>
<path d="M23.9399 41.9368L24.0336 41.8379L24.0425 41.8614L23.9484 41.9599L23.9399 41.9368Z" fill="#919191"/>
<path d="M23.814 41.6694L23.8703 41.6765L23.9161 41.8021L23.8893 41.7985L23.8974 41.8203L23.9149 41.8225L23.9234 41.846L23.9059 41.8438L23.9145 41.8673L23.9319 41.8695L23.9404 41.893L23.923 41.8908L23.9315 41.9143L23.9489 41.9165L23.9574 41.94L23.94 41.9378L23.9481 41.9596L23.9748 41.9631L24.0141 42.07L23.9845 42.0665L24.0915 42.3588C24.0437 42.3602 24.0076 42.381 23.9866 42.4169L23.8905 42.3278L23.814 41.6694Z" fill="#E3E3E3"/>
<path d="M23.915 41.8226L24.009 41.7236L24.0176 41.7471L23.924 41.8461L23.915 41.8226Z" fill="#C9C9C9"/>
<path d="M23.9149 41.8229L24.0089 41.7239L23.9923 41.7222L23.9161 41.802H23.9153L23.8975 41.8207L23.9149 41.8229Z" fill="#A6A6A6"/>
<path d="M23.9326 41.8694L24.0262 41.7705L24.0351 41.794L23.9411 41.8925L23.9326 41.8694Z" fill="#C9C9C9"/>
<path d="M23.9325 41.8697L24.0261 41.7708L24.0087 41.7686L23.915 41.8675L23.9325 41.8697Z" fill="#A6A6A6"/>
<path d="M23.9492 41.9164L24.0432 41.8179L24.0517 41.8414L23.9577 41.9399L23.9492 41.9164Z" fill="#C9C9C9"/>
<path d="M23.9491 41.9166L24.0431 41.8181L24.0257 41.8159L23.9316 41.9144L23.9491 41.9166Z" fill="#A6A6A6"/>
<path d="M23.975 41.9634L24.0686 41.8649L24.0423 41.8613L23.9482 41.9598L23.975 41.9634Z" fill="#A6A6A6"/>
<path d="M25.1101 43.9416C24.918 43.5503 24.4735 42.8667 24.4735 42.8667C24.4512 42.919 24.4017 42.9474 24.332 42.9386C24.4763 43.1826 24.5934 43.3467 24.7915 43.6981C24.9066 43.9026 25.1096 44.2433 25.2045 44.7233C25.2243 44.824 25.2653 44.989 25.3447 45.0374C25.4237 45.0857 25.4176 45.0405 25.4014 44.8994C25.3848 44.7592 25.3025 44.3329 25.1101 43.9416Z" fill="#FFBB00"/>
<path d="M24.5762 43.0271C24.515 42.9304 24.4744 42.8683 24.4736 42.8665L24.5676 42.7676C24.5676 42.7676 24.6082 42.8301 24.6702 42.9282C24.6702 42.9282 24.6479 42.9925 24.5762 43.0271Z" fill="#F09300"/>
<path d="M25.1099 43.9416C24.9758 43.6688 24.7189 43.2531 24.5759 43.0269L24.5037 43.0566C24.4871 43.0632 24.4871 43.089 24.5033 43.1142C24.6075 43.2771 24.962 43.8418 25.1035 44.1847C25.1809 44.3728 25.3219 44.8151 25.3122 45.0085C25.3223 45.0201 25.3332 45.0298 25.3446 45.0369C25.4236 45.0853 25.4175 45.04 25.4013 44.8989C25.3847 44.7592 25.3024 44.3329 25.1099 43.9416Z" fill="#1C72D9"/>
<path d="M25.3903 45.0562C25.4198 45.0558 25.4134 45.0039 25.4012 44.8997C25.3846 44.759 25.3023 44.3327 25.1103 43.9414C24.9761 43.6686 24.7192 43.2529 24.5762 43.0267C24.6479 42.9925 24.6702 42.9277 24.6702 42.9277C24.8132 43.154 25.0701 43.5692 25.2043 43.8425C25.3963 44.2338 25.479 44.6601 25.4952 44.8007C25.5037 44.8735 25.5053 44.9201 25.4989 44.9427C25.4899 44.9728 25.4259 45.0567 25.3903 45.0562Z" fill="#0258BF"/>
<path d="M27.2123 45.455V48.1518L27.0295 48.036L22.1535 44.9542L21.9707 44.8384V42.1416L27.2123 45.455Z" fill="#DE3222"/>
<path d="M28.2081 43.1088C28.2656 42.973 28.3572 42.8568 28.4544 42.7951C28.5363 42.7432 28.6141 42.7357 28.6708 42.7721C28.6813 42.7792 28.6915 42.7876 28.7008 42.7974L29.696 43.8851V46.5819L27.2124 48.1519V45.4551L28.2081 43.1088Z" fill="#FB4432"/>
<path d="M28.311 43.4498C28.3901 43.4999 28.5189 43.4187 28.5979 43.2683C28.677 43.1179 28.677 42.9556 28.5979 42.9054C28.5189 42.8553 28.3901 42.9365 28.311 43.0869C28.2316 43.2377 28.2316 43.4001 28.311 43.4498Z" fill="#404040"/>
<path d="M22.296 42.1675L22.1538 42.2575L27.0299 45.3394L27.0899 45.1979L22.296 42.1675Z" fill="#FB4432"/>
<path opacity="0.5" d="M27.0898 45.1978L27.0298 45.3393V45.1597L27.0898 45.1978Z" fill="black"/>
<path d="M23.251 39.8891C23.3304 39.7383 23.4593 39.6571 23.5387 39.7072C23.6141 39.7547 27.8252 42.4164 28.2572 42.6897C28.1652 42.7531 28.0797 42.8649 28.025 42.994L27.9322 43.2123C27.4901 42.9328 23.326 40.3008 23.2506 40.2533C23.1716 40.2027 23.1716 40.0399 23.251 39.8891Z" fill="#2B2B2B"/>
<path opacity="0.3" d="M28.0327 42.9765L23.2275 39.9395C23.2344 39.9226 23.2421 39.9058 23.251 39.8889C23.2758 39.8419 23.3054 39.8015 23.337 39.77L28.1372 42.804C28.0971 42.8545 28.0611 42.9131 28.0327 42.9765Z" fill="white"/>
<path opacity="0.8" d="M28.7271 38.0406C28.7271 38.2593 28.8515 38.4585 29.0776 38.6014L29.7559 39.0299C29.775 39.0423 29.796 39.049 29.8175 39.0503C29.8665 39.0534 29.9156 39.0596 29.9581 39.0867L30.288 39.2952C30.3852 39.3568 30.5052 39.3568 30.6028 39.2952L30.6535 39.2632C30.6798 39.2464 30.7025 39.222 30.7143 39.1909C30.7435 39.1155 30.7151 39.0348 30.6563 38.9971L30.5498 38.9296C30.4383 38.8591 30.4383 38.6817 30.551 38.6142C30.7823 38.4749 30.9234 38.2695 30.9234 38.0411C30.9234 38.0149 30.9218 37.9887 30.9177 37.9621C30.8666 37.5912 30.4351 37.3051 29.8921 37.2838C29.5018 37.2696 29.1169 37.3969 28.9049 37.6205C28.789 37.7429 28.7271 37.8885 28.7271 38.0406Z" fill="black"/>
<path d="M29.972 36.9611C30.4275 36.9793 30.8019 37.2096 30.8417 37.497C30.8441 37.5148 30.8453 37.5325 30.8453 37.5498C30.8453 37.8302 30.5361 38.064 30.1216 38.1243C30.0814 38.1301 30.066 38.1611 30.0952 38.1793L30.1653 38.2237L29.9116 38.3838L29.2515 37.9668C29.0826 37.8599 28.978 37.7126 28.978 37.5498C28.9788 37.2118 29.4295 36.9398 29.972 36.9611Z" fill="#FCC901"/>
<path d="M29.2515 37.9673L29.9117 38.3843L30.1653 38.2242L30.0952 38.1798C30.0661 38.1612 30.0811 38.1306 30.1216 38.1248C30.5361 38.0645 30.8453 37.8307 30.8453 37.5503C30.8453 37.5503 30.8453 37.9456 30.8453 37.9629C30.8457 38.2432 30.5365 38.4775 30.1216 38.5378C30.0815 38.5436 30.0661 38.5746 30.0952 38.5928L30.1653 38.6372L29.9117 38.7973L29.2515 38.3803C29.0826 38.2734 28.978 38.1261 28.978 37.9633C28.978 37.8719 28.978 37.5503 28.978 37.5503C28.9784 37.7131 29.0826 37.8604 29.2515 37.9673Z" fill="#FFAD0D"/>
<path d="M29.912 37.1177C29.5339 37.1177 29.2275 37.3115 29.2275 37.5502C29.2275 37.7893 29.5339 37.9827 29.912 37.9827C30.2901 37.9827 30.5964 37.7889 30.5964 37.5502C30.5964 37.3115 30.2901 37.1177 29.912 37.1177Z" fill="#404040"/>
<path d="M28.8424 37.7247L28.9789 37.6387V37.7008C28.9789 37.8636 29.0835 38.0113 29.2525 38.1178L28.8428 37.8587C28.7836 37.8219 28.7836 37.762 28.8424 37.7247Z" fill="#4A4A4A"/>
<path d="M28.7979 37.7925C28.7979 37.8169 28.8125 37.8408 28.8416 37.8595L29.2513 38.1185V38.2312L28.8416 37.9722C28.8125 37.9535 28.7979 37.9296 28.7979 37.9052C28.7979 37.8812 28.7979 37.7969 28.7979 37.7925Z" fill="#363636"/>
<path d="M28.8522 37.7702C28.8712 37.7582 28.9024 37.7582 28.9215 37.7702C28.9405 37.7822 28.9405 37.8022 28.9215 37.8141C28.9024 37.8261 28.8712 37.8261 28.8522 37.8141C28.8331 37.8022 28.8331 37.7822 28.8522 37.7702Z" fill="black"/>
<path d="M30.1653 38.2246V38.6376L29.9116 38.7978V38.3848L30.1653 38.2246Z" fill="#F0A103"/>
<path d="M30.0049 38.69L30.0717 38.6479V38.332L30.0049 38.3742V38.69Z" fill="black"/>
<path d="M30.6597 38.0908V38.1662C30.5555 38.2541 30.4125 38.3228 30.2476 38.3628V38.2878C30.4125 38.2474 30.5555 38.1791 30.6597 38.0908Z" fill="black"/>
<path d="M30.4187 38.1381L30.4058 38.1252C30.6035 38.0472 30.751 37.9238 30.813 37.7783L30.8369 37.7823C30.8649 37.7872 30.8823 37.8027 30.8823 37.82C30.8823 37.8245 30.8811 37.8285 30.8791 37.8329C30.8102 37.9615 30.6785 38.0711 30.5075 38.1492C30.4783 38.1625 30.4378 38.1576 30.4187 38.1381Z" fill="#404040"/>
<path d="M30.4187 38.1379C30.4378 38.157 30.4783 38.1619 30.5075 38.1485C30.6785 38.0709 30.8098 37.9609 30.8791 37.8327C30.8815 37.8283 30.8823 37.8243 30.8823 37.8198C30.8823 37.8198 30.8823 38.0656 30.8823 38.0829C30.8823 38.0873 30.8811 38.0913 30.8791 38.0958C30.8102 38.224 30.6785 38.334 30.5075 38.4116C30.4783 38.4249 30.4378 38.42 30.4187 38.401L30.4058 38.3881V38.1255L30.4187 38.1379Z" fill="#212121"/>
<path d="M30.7896 38.2946L30.7547 38.3234C30.7442 38.3323 30.7239 38.3341 30.7102 38.327L30.6802 38.3123V38.0497L30.7965 38.0195C30.7965 38.0195 30.7965 38.2764 30.7965 38.2822C30.7965 38.2866 30.794 38.291 30.7896 38.2946Z" fill="#303030"/>
<path d="M30.7896 38.0319L30.7547 38.0607C30.7442 38.0696 30.7239 38.0714 30.7102 38.0647L30.6802 38.0501C30.7069 38.031 30.7316 38.0106 30.7547 37.9897L30.7839 38.0039C30.792 38.0079 30.7965 38.0137 30.7965 38.0199C30.7965 38.0235 30.794 38.0279 30.7896 38.0319Z" fill="#404040"/>
<path d="M30.5497 38.9891L30.02 38.6542V38.3911L30.5497 38.726V38.9891Z" fill="#FCC901"/>
<path d="M30.5498 38.7257L30.5871 38.7021V38.9652L30.5498 38.9887V38.7257Z" fill="#FFAD0D"/>
<path d="M30.5497 38.7261L30.02 38.3912L30.0573 38.3677L30.5869 38.7026L30.5497 38.7261Z" fill="#FFDB00"/>
<path d="M30.5425 38.731L30.7232 38.845L30.5425 38.9594V38.731Z" fill="#A2A3A1"/>
<path d="M30.5948 38.6982L30.8274 38.8451L30.5948 38.9924L30.5425 38.9595L30.7232 38.8451L30.5425 38.7311L30.5948 38.6982Z" fill="#E3E3E3"/>
<path d="M30.8273 38.8452V39.1083L30.5947 39.2551V38.9925L30.8273 38.8452Z" fill="#C1C2C0"/>
<path d="M30.5948 38.9923V39.2549L30.5425 39.2221V38.9595L30.5948 38.9923Z" fill="#A2A3A1"/>
<defs>
<linearGradient id="paint0_linear_456_13142" x1="22.6204" y1="16.1783" x2="23.2761" y2="16.004" gradientUnits="userSpaceOnUse">
<stop stop-color="#404040"/>
<stop offset="0.1417" stop-color="#474747"/>
<stop offset="0.3461" stop-color="#5A5A5A"/>
<stop offset="0.4465" stop-color="#666666"/>
</linearGradient>
</defs>
</svg>
