<svg width="82" height="56" viewBox="0 0 82 56" fill="none" xmlns="http://www.w3.org/2000/svg">
<path d="M38.6685 52.7192V55.2202L81.202 28.3365V25.8354L38.6685 52.7192Z" fill="#DEBE97"/>
<path d="M0 28.2783V30.78L38.6684 55.2205V52.7194L0 28.2783Z" fill="#CAA58B"/>
<path d="M0 28.2781L38.6684 52.7192L81.2019 25.8355L42.5335 1.39502L0 28.2781Z" fill="#EFE1BC"/>
<path d="M42.5117 9.24472V9.94747L49.4437 5.56651V4.86377L42.5117 9.24472Z" fill="#FBBC01"/>
<path d="M35.5806 4.86377V5.56585L42.5119 9.94747V9.24472L35.5806 4.86377Z" fill="#FA9E00"/>
<path d="M42.5119 9.245L35.5806 4.86404L42.5119 0.482422L49.4439 4.86404L42.5119 9.245Z" fill="#FFDA48"/>
<path d="M35.7056 4.78452L42.5121 9.08664L49.3187 4.78452L42.5121 0.482422L35.7056 4.78452Z" fill="#FCC901"/>
<path d="M35.396 13.7429V14.4457L42.3273 10.0641V9.36133L35.396 13.7429Z" fill="#AFCD15"/>
<path d="M28.4639 9.36133V10.0641L35.3958 14.4457V13.7429L28.4639 9.36133Z" fill="#91AD0B"/>
<path d="M35.3958 13.743L28.4639 9.3614L35.3958 4.98047L42.3272 9.36209L35.3958 13.743Z" fill="#C8E623"/>
<path d="M28.5894 9.28257L35.3959 13.5847L42.2025 9.28257L35.3959 4.98047L28.5894 9.28257Z" fill="#AFCD15"/>
<path d="M28.2798 18.2405V18.9432L35.2117 14.5616V13.8589L28.2798 18.2405Z" fill="#FBBC01"/>
<path d="M21.3486 13.8589V14.5616L28.28 18.9432V18.2405L21.3486 13.8589Z" fill="#FA9E00"/>
<path d="M28.28 18.2406L21.3486 13.859L28.28 9.47803L35.2119 13.859L28.28 18.2406Z" fill="#F5E6A2"/>
<path d="M21.4736 13.7801L28.2802 18.0822L35.0868 13.7801L28.2802 9.47803L21.4736 13.7801Z" fill="#FCC901"/>
<path d="M21.1641 22.7386V23.4413L28.096 19.0597V18.3569L21.1641 22.7386Z" fill="#AFCD15"/>
<path d="M14.2319 18.3569V19.0597L21.1639 23.4413V22.7386L14.2319 18.3569Z" fill="#91AD0B"/>
<path d="M21.1639 22.7386L14.2319 18.357L21.1639 13.9761L28.0959 18.357L21.1639 22.7386Z" fill="#C8E623"/>
<path d="M14.3574 18.2782L21.164 22.5803L27.9705 18.2782L21.164 13.9761L14.3574 18.2782Z" fill="#AFCD15"/>
<path d="M14.0474 27.2354V27.9382L20.9793 23.5572V22.8545L14.0474 27.2354Z" fill="#FBBC01"/>
<path d="M7.11621 22.8545V23.5572L14.0476 27.9382V27.2354L7.11621 22.8545Z" fill="#FA9E00"/>
<path d="M14.0476 27.2364L7.11621 22.8548L14.0476 18.4731L20.9795 22.8548L14.0476 27.2364Z" fill="#F5E6A2"/>
<path d="M7.24121 22.7759L14.0478 27.078L20.8549 22.7759L14.0478 18.4731L7.24121 22.7759Z" fill="#FCC901"/>
<path d="M15.5808 18.261L15.1593 18.5275V17.9946L14.9749 18.1115V18.6444L14.5527 18.9108V19.1446L14.9749 18.8782V19.0596L15.1593 19.1758V18.7613L15.5808 18.4948V18.261Z" fill="#E3E3E3"/>
<path d="M15.5812 18.2607L15.431 18.1655L15.1597 18.3375V18.5271L15.5812 18.2607Z" fill="#F7F7F7"/>
<path d="M15.0091 17.8994L14.8247 18.0163L14.9749 18.1114L15.1593 17.9946L15.0091 17.8994Z" fill="#F7F7F7"/>
<path d="M14.8247 18.0161V18.5489L14.9749 18.6441V18.1113L14.8247 18.0161Z" fill="#C9C9C9"/>
<path d="M14.8249 18.5488L14.4033 18.8152L14.5529 18.9104L14.9751 18.644L14.8249 18.5488Z" fill="#F7F7F7"/>
<path d="M14.4033 18.8154V19.0492L14.5529 19.1444V18.9106L14.4033 18.8154Z" fill="#C9C9C9"/>
<path d="M14.8311 18.9683L14.9751 19.0594V18.8779L14.8311 18.9683Z" fill="#BABABA"/>
<path d="M21.0495 21.7171L20.628 21.9835V21.4507L20.443 21.5676V22.1004L20.0215 22.3669V22.6006L20.443 22.3342V22.5157L20.628 22.6326V22.2173L21.0495 21.9509V21.7171Z" fill="#E3E3E3"/>
<path d="M21.0495 21.7167L20.8992 21.6216L20.6279 21.7935V21.9831L21.0495 21.7167Z" fill="#F7F7F7"/>
<path d="M20.4778 21.3555L20.2935 21.4724L20.4431 21.5675L20.6281 21.4506L20.4778 21.3555Z" fill="#F7F7F7"/>
<path d="M20.2935 21.4722V22.0057L20.4431 22.1001V21.5673L20.2935 21.4722Z" fill="#C9C9C9"/>
<path d="M20.2932 22.0059L19.8711 22.2723L20.0213 22.3668L20.4429 22.1003L20.2932 22.0059Z" fill="#F7F7F7"/>
<path d="M19.8711 22.272V22.5051L20.0213 22.6003V22.3665L19.8711 22.272Z" fill="#C9C9C9"/>
<path d="M20.2993 22.4244L20.4427 22.5155V22.334L20.2993 22.4244Z" fill="#BABABA"/>
<path d="M22.6941 13.7606L22.2726 14.027V13.4941L22.0876 13.6111V14.1439L21.666 14.4103V14.6441L22.0876 14.3777V14.5591L22.2726 14.676V14.2608L22.6941 13.9944V13.7606Z" fill="#E3E3E3"/>
<path d="M22.694 13.7607L22.5437 13.6655L22.2725 13.8375V14.0271L22.694 13.7607Z" fill="#F7F7F7"/>
<path d="M22.122 13.3989L21.937 13.5158L22.0873 13.611L22.2723 13.4941L22.122 13.3989Z" fill="#F7F7F7"/>
<path d="M21.937 13.5156V14.0485L22.0873 14.1436V13.6108L21.937 13.5156Z" fill="#C9C9C9"/>
<path d="M21.9372 14.0488L21.5156 14.3159L21.6659 14.4104L22.0874 14.144L21.9372 14.0488Z" fill="#F7F7F7"/>
<path d="M21.5156 14.3159V14.549L21.6659 14.6442V14.4104L21.5156 14.3159Z" fill="#C9C9C9"/>
<path d="M21.9438 14.4678L22.0873 14.5589V14.3774L21.9438 14.4678Z" fill="#BABABA"/>
<path d="M28.1619 17.2161L27.7397 17.4825V16.9497L27.5553 17.0666V17.5994L27.1338 17.8659V18.0996L27.5553 17.8332V18.0147L27.7397 18.1316V17.7163L28.1619 17.4499V17.2161Z" fill="#E3E3E3"/>
<path d="M28.1619 17.2161L28.0117 17.1216L27.7397 17.2929V17.4825L28.1619 17.2161Z" fill="#F7F7F7"/>
<path d="M27.5892 16.8555L27.4048 16.9717L27.555 17.0668L27.7394 16.9499L27.5892 16.8555Z" fill="#F7F7F7"/>
<path d="M27.4048 16.9712V17.5047L27.555 17.5992V17.0664L27.4048 16.9712Z" fill="#C9C9C9"/>
<path d="M27.4049 17.5049L26.9834 17.7713L27.1336 17.8658L27.5552 17.5994L27.4049 17.5049Z" fill="#F7F7F7"/>
<path d="M26.9834 17.7715V18.0046L27.1336 18.0998V17.866L26.9834 17.7715Z" fill="#C9C9C9"/>
<path d="M27.4111 17.9234L27.5552 18.0145V17.833L27.4111 17.9234Z" fill="#BABABA"/>
<path d="M29.8059 9.26007L29.3844 9.52649V8.99365L29.1994 9.11055V9.64338L28.7778 9.9098V10.1436L29.1994 9.87717V10.0586L29.3844 10.1755V9.76028L29.8059 9.49386V9.26007Z" fill="#E3E3E3"/>
<path d="M29.8058 9.25971L29.6556 9.16455L29.3843 9.33651V9.52613L29.8058 9.25971Z" fill="#F7F7F7"/>
<path d="M29.2338 8.89844L29.0488 9.01533L29.1991 9.11049L29.3841 8.9936L29.2338 8.89844Z" fill="#F7F7F7"/>
<path d="M29.0488 9.01514V9.54797L29.1991 9.64313V9.1103L29.0488 9.01514Z" fill="#C9C9C9"/>
<path d="M29.049 9.54785L28.6274 9.81495L28.7777 9.90943L29.1992 9.64301L29.049 9.54785Z" fill="#F7F7F7"/>
<path d="M28.6274 9.81543V10.0486L28.7777 10.1437V9.9099L28.6274 9.81543Z" fill="#C9C9C9"/>
<path d="M29.0557 9.96734L29.1991 10.0584V9.87695L29.0557 9.96734Z" fill="#BABABA"/>
<path d="M35.2742 12.7161L34.8526 12.9825V12.4497L34.6676 12.5666V13.0994L34.2461 13.3659V13.5996L34.6676 13.3332V13.5147L34.8526 13.6316V13.2163L35.2742 12.9499V12.7161Z" fill="#E3E3E3"/>
<path d="M35.2741 12.7161L35.1238 12.6216L34.8525 12.7929V12.9825L35.2741 12.7161Z" fill="#F7F7F7"/>
<path d="M34.7021 12.355L34.5171 12.4712L34.6673 12.5664L34.8523 12.4495L34.7021 12.355Z" fill="#F7F7F7"/>
<path d="M34.5171 12.4712V13.0047L34.6673 13.0992V12.5663L34.5171 12.4712Z" fill="#C9C9C9"/>
<path d="M34.5172 13.0049L34.0957 13.2713L34.2459 13.3658L34.6675 13.0994L34.5172 13.0049Z" fill="#F7F7F7"/>
<path d="M34.0957 13.2715V13.5046L34.2459 13.5997V13.3659L34.0957 13.2715Z" fill="#C9C9C9"/>
<path d="M34.5239 13.4234L34.6673 13.5145V13.333L34.5239 13.4234Z" fill="#BABABA"/>
<path d="M36.9183 4.75909L36.4962 5.02551V4.49268L36.3118 4.60957V5.14241L35.8896 5.40882V5.64261L36.3118 5.3762V5.55766L36.4962 5.67458V5.2593L36.9183 4.99288V4.75909Z" fill="#E3E3E3"/>
<path d="M36.9182 4.75903L36.7674 4.66455L36.4961 4.83583V5.02544L36.9182 4.75903Z" fill="#F7F7F7"/>
<path d="M36.346 4.39746L36.1616 4.51438L36.3119 4.60952L36.4962 4.49262L36.346 4.39746Z" fill="#F7F7F7"/>
<path d="M36.1616 4.51465V5.04748L36.3119 5.14262V4.60979L36.1616 4.51465Z" fill="#C9C9C9"/>
<path d="M36.1614 5.04736L35.7393 5.31446L35.8895 5.40892L36.3116 5.1425L36.1614 5.04736Z" fill="#F7F7F7"/>
<path d="M35.7393 5.31445V5.54756L35.8895 5.6427V5.40891L35.7393 5.31445Z" fill="#C9C9C9"/>
<path d="M36.1675 5.46687L36.3115 5.55793V5.37646L36.1675 5.46687Z" fill="#BABABA"/>
<path d="M42.386 8.21564L41.9645 8.48274V7.94922L41.7794 8.06611V8.59897L41.3579 8.86539V9.09918L41.7794 8.83276V9.01422L41.9645 9.13112V8.71586L42.386 8.44945V8.21564Z" fill="#E3E3E3"/>
<path d="M42.3859 8.21555L42.2356 8.12109L41.9644 8.29235V8.48196L42.3859 8.21555Z" fill="#F7F7F7"/>
<path d="M41.8139 7.85449L41.6289 7.9707L41.7791 8.06584L41.9641 7.94895L41.8139 7.85449Z" fill="#F7F7F7"/>
<path d="M41.6289 7.9707V8.50422L41.7791 8.5987V8.06584L41.6289 7.9707Z" fill="#C9C9C9"/>
<path d="M41.6291 8.50439L41.2075 8.77081L41.3578 8.86529L41.7793 8.59887L41.6291 8.50439Z" fill="#F7F7F7"/>
<path d="M41.2075 8.771V9.0041L41.3578 9.09926V8.86547L41.2075 8.771Z" fill="#C9C9C9"/>
<path d="M41.6357 8.92291L41.7792 9.01398V8.83252L41.6357 8.92291Z" fill="#BABABA"/>
<path d="M6.93213 31.7335V32.4362L13.8641 28.0553V27.3525L6.93213 31.7335Z" fill="#AFCD15"/>
<path d="M0 27.3525V28.0553L6.93195 32.4362V31.7335L0 27.3525Z" fill="#91AD0B"/>
<path d="M6.93195 31.7333L0 27.3523L6.93195 22.9707L13.8639 27.3523L6.93195 31.7333Z" fill="#C8E623"/>
<path d="M0.125488 27.2728L6.93204 31.5756L13.7386 27.2728L6.93204 22.9707L0.125488 27.2728Z" fill="#AFCD15"/>
<path d="M58.2601 11.1215C56.3883 10.5377 54.9493 10.7742 53.622 11.3274C50.012 12.8335 50.5949 16.1522 48.6549 18.3311C47.8919 19.1881 46.844 20.001 45.4627 20.4713C44.0597 20.9491 42.4691 21.1149 40.9643 21.4228C39.2844 21.766 37.7665 22.3988 36.595 23.2286C35.0312 24.3357 34.642 25.7317 33.7145 27.0454C32.7063 28.4733 30.6775 29.5023 28.5568 30.3036C26.6031 31.0417 24.4539 31.5677 22.5921 32.4037C21.5311 32.8801 20.626 33.4898 19.9499 34.1932C19.2701 34.9 19.0373 35.7455 18.2421 36.4054C17.4853 37.0341 16.2368 37.4473 14.9971 37.5322L6.93213 32.4349L49.4576 5.55664L58.2601 11.1215Z" fill="#C4C4C4"/>
<path d="M6.93213 32.4365V32.6602L14.9971 37.7574V37.5345L6.93213 32.4365Z" fill="#8C8C8C"/>
<path d="M53.6219 11.3283C50.0119 12.8343 50.5948 16.153 48.6548 18.3319C47.8918 19.189 46.8439 20.0018 45.4626 20.4721C44.0595 20.9499 42.469 21.1157 40.9642 21.4236C39.2843 21.7668 37.7664 22.3996 36.5949 23.2294C35.0311 24.3365 34.6419 25.7325 33.7144 27.0463C32.7062 28.4742 30.6774 29.5032 28.5567 30.3044C26.603 31.0425 24.4537 31.5686 22.5919 32.4045C21.531 32.8809 20.6258 33.4906 19.9498 34.194C19.27 34.9008 19.0372 35.7463 18.2419 36.4062C17.4852 37.0349 16.2367 37.4481 14.9976 37.5331V37.7567C16.2373 37.6717 17.4852 37.2578 18.2419 36.6298C19.0372 35.9692 19.27 35.1244 19.9498 34.4176C20.6265 33.7142 21.531 33.1038 22.5919 32.6281C24.4531 31.7928 26.603 31.2668 28.5567 30.528C30.678 29.7267 32.7062 28.6971 33.7144 27.2698C34.6419 25.9561 35.0311 24.5601 36.5949 23.453C37.7664 22.6238 39.2843 21.9911 40.9642 21.6472C42.469 21.3393 44.0595 21.1735 45.4626 20.6957C46.8439 20.2254 47.8918 19.4126 48.6548 18.5555C50.5948 16.3766 50.0125 13.0579 53.6219 11.5519C54.9492 10.998 56.3882 10.7615 58.2599 11.3459V11.1223C56.3882 10.5378 54.9492 10.7744 53.6219 11.3283Z" fill="#ABABAB"/>
<path d="M48.7368 5.76123L58.26 10.8694V11.1215C57.5436 10.8979 56.8912 10.7946 56.2834 10.7831L48.7368 6.01338V5.76123Z" fill="#8C8C8C"/>
<path d="M47.2954 6.67188L55.0183 10.6416V10.8938C54.6737 10.9611 54.3422 11.0569 54.0188 11.1731L47.296 6.92402V6.67188H47.2954Z" fill="#8C8C8C"/>
<path d="M45.854 7.5835L53.1597 11.2896V11.5417C52.8896 11.6804 52.6469 11.8299 52.4271 11.9896L45.8546 7.83496V7.5835H45.854Z" fill="#8C8C8C"/>
<path d="M44.4121 8.49463L51.8146 12.2625V12.5147C51.6271 12.7043 51.4614 12.9028 51.3124 13.1087L44.4121 8.74746V8.49463Z" fill="#8C8C8C"/>
<path d="M42.9707 9.40527L50.9028 13.5076V13.7597C50.778 13.9874 50.6669 14.2205 50.5638 14.4563L42.9707 9.65674V9.40527Z" fill="#8C8C8C"/>
<path d="M41.5294 10.3169L50.2692 14.9303V15.1824C50.1748 15.4271 50.0836 15.6724 49.9892 15.9164L41.5288 10.569V10.3169H41.5294Z" fill="#8C8C8C"/>
<path d="M40.0879 11.2285L49.6937 16.389V16.6411C49.5894 16.8777 49.4776 17.1101 49.3522 17.3364L40.0879 11.4807V11.2285Z" fill="#8C8C8C"/>
<path d="M38.646 12.1392L48.9365 17.7319V17.984C48.8484 18.1023 48.7552 18.2185 48.6547 18.3313C48.582 18.4129 48.5069 18.4938 48.4293 18.5746L38.646 12.3913V12.1392Z" fill="#8C8C8C"/>
<path d="M37.2046 13.0503L47.8478 18.8666V19.1188C47.6429 19.2914 47.4244 19.4579 47.1909 19.6149L37.2046 13.3031V13.0503Z" fill="#8C8C8C"/>
<path d="M35.7627 13.9609L46.4456 19.8024V20.0546C46.1768 20.1925 45.8925 20.3176 45.592 20.4263L35.7627 14.2138V13.9609Z" fill="#8C8C8C"/>
<path d="M34.3213 14.8726L44.6168 20.4687V20.7208C44.2667 20.8099 43.9091 20.886 43.5471 20.956L34.3213 15.1247V14.8726Z" fill="#8C8C8C"/>
<path d="M32.8794 15.7842L42.4237 20.9053V21.1574C42.0475 21.222 41.6713 21.2865 41.2988 21.3579L32.8794 16.0363V15.7842Z" fill="#8C8C8C"/>
<path d="M31.4381 16.6948L40.2319 21.3422V21.595C39.8991 21.682 39.5738 21.7812 39.2578 21.8907L31.4375 16.9477L31.4381 16.6948Z" fill="#8C8C8C"/>
<path d="M29.9966 17.6064L38.3682 21.9867V22.2395C38.0864 22.3632 37.8151 22.4958 37.5543 22.6364L29.9966 17.8593V17.6064Z" fill="#8C8C8C"/>
<path d="M28.5552 18.5166L36.8144 22.8262V23.0783C36.7399 23.1279 36.6667 23.1782 36.5947 23.2292C36.437 23.3407 36.2911 23.4555 36.1551 23.5731L28.5552 18.7694V18.5166Z" fill="#8C8C8C"/>
<path d="M27.1133 19.4282L35.5954 23.8785V24.1313C35.421 24.3311 35.2664 24.5357 35.123 24.7437L27.1133 19.6811V19.4282Z" fill="#8C8C8C"/>
<path d="M25.6719 20.3398L34.7127 25.1428V25.395C34.5824 25.6166 34.457 25.8395 34.3284 26.0631L25.6719 20.5913V20.3398Z" fill="#8C8C8C"/>
<path d="M24.2305 21.2505L33.9312 26.4708V26.7229C33.8617 26.831 33.7897 26.939 33.714 27.0457C33.6413 27.149 33.5631 27.2497 33.4799 27.3489L24.2305 21.5026V21.2505Z" fill="#8C8C8C"/>
<path d="M22.7891 22.1616L32.9318 27.6612V27.9134C32.7357 28.0901 32.5227 28.26 32.2968 28.4231L22.7891 22.4137V22.1616Z" fill="#8C8C8C"/>
<path d="M21.3472 23.0732L31.5899 28.6361V28.8889C31.3441 29.0371 31.0877 29.1791 30.8226 29.315L21.3472 23.3261V23.0732Z" fill="#8C8C8C"/>
<path d="M19.9058 23.9834L30.0051 29.4558V29.708C29.7233 29.8351 29.4352 29.9574 29.144 30.075L19.9058 24.2356V23.9834Z" fill="#8C8C8C"/>
<path d="M18.4644 24.895L28.2471 30.167V30.4191C27.9404 30.5306 27.6294 30.638 27.3165 30.742L18.4644 25.1472V24.895Z" fill="#8C8C8C"/>
<path d="M17.0226 25.8062L26.3652 30.8001V31.0523C26.0467 31.1549 25.7276 31.2562 25.4097 31.3595L17.022 26.0583L17.0226 25.8062Z" fill="#8C8C8C"/>
<path d="M15.5811 26.7173L24.4673 31.4224V31.6746C24.1582 31.7813 23.8527 31.8913 23.5516 32.0069L15.5811 26.9694V26.7173Z" fill="#8C8C8C"/>
<path d="M14.1396 27.6284L22.6776 32.114V32.3668C22.6491 32.3798 22.6199 32.392 22.5913 32.4049C22.3405 32.5177 22.0984 32.638 21.8662 32.7644L14.1396 27.8805V27.6284Z" fill="#8C8C8C"/>
<path d="M12.6982 28.5396L21.1313 32.9586V33.2114C20.8985 33.3691 20.6787 33.5342 20.4733 33.7069L12.6982 28.7924V28.5396Z" fill="#8C8C8C"/>
<path d="M11.2565 29.4507L19.8951 33.9995V34.2517C19.7138 34.4488 19.5642 34.656 19.4257 34.866L11.2559 29.7021V29.4507H11.2565Z" fill="#8C8C8C"/>
<path d="M9.81543 30.3618L19.0115 35.2634V35.5155C18.8718 35.7255 18.7216 35.9321 18.5384 36.1272L9.81543 30.614V30.3618Z" fill="#8C8C8C"/>
<path d="M8.37354 31.2729L17.9154 36.3926V36.6455C17.6782 36.7991 17.41 36.9363 17.1207 37.0546L8.37354 31.5258V31.2729Z" fill="#8C8C8C"/>
<path d="M6.93213 32.1841L16.1605 37.106V37.3588C15.7824 37.4478 15.3894 37.5077 14.9971 37.5349L6.93213 32.4376V32.1841Z" fill="#8C8C8C"/>
<path d="M49.4576 5.30518L58.26 10.8687C57.5436 10.6451 56.8912 10.5418 56.2834 10.5302L48.7368 5.76052L49.4576 5.30518Z" fill="#ABABAB"/>
<path d="M48.0162 6.2168L55.0177 10.6426C54.6731 10.7099 54.3416 10.8057 54.0182 10.9219L47.2954 6.67283L48.0162 6.2168Z" fill="#ABABAB"/>
<path d="M46.5746 7.12793L53.1596 11.29C52.8895 11.428 52.6468 11.5782 52.427 11.7379L45.8545 7.58328L46.5746 7.12793Z" fill="#ABABAB"/>
<path d="M45.1329 8.03857L51.8146 12.2618C51.6271 12.4515 51.4614 12.6499 51.3124 12.8558L44.4121 8.4946L45.1329 8.03857Z" fill="#ABABAB"/>
<path d="M43.6915 8.9502L50.9028 13.5085C50.778 13.7362 50.6669 13.9693 50.5638 14.2052L42.9707 9.40554L43.6915 8.9502Z" fill="#ABABAB"/>
<path d="M42.2502 9.86182L50.2692 14.9306C50.1748 15.1752 50.0836 15.4206 49.9892 15.6646L41.5288 10.3172L42.2502 9.86182Z" fill="#ABABAB"/>
<path d="M40.8087 10.7725L49.6937 16.3883C49.5894 16.6248 49.4776 16.8572 49.3522 17.0836L40.0879 11.2278L40.8087 10.7725Z" fill="#ABABAB"/>
<path d="M39.3667 11.6836L48.9365 17.7324C48.8484 17.8506 48.7552 17.9669 48.6547 18.0797C48.582 18.1612 48.5069 18.2421 48.4293 18.323L38.646 12.1396L39.3667 11.6836Z" fill="#ABABAB"/>
<path d="M37.9254 12.5952L47.8478 18.8669C47.6429 19.0395 47.4244 19.2061 47.1909 19.3631L37.2046 13.0506L37.9254 12.5952Z" fill="#ABABAB"/>
<path d="M36.484 13.5059L46.4461 19.8027C46.1773 19.9407 45.8929 20.0657 45.5925 20.1745L35.7632 13.9619L36.484 13.5059Z" fill="#ABABAB"/>
<path d="M35.0421 14.417L44.6168 20.4685C44.2667 20.5575 43.9091 20.6336 43.5471 20.7036L34.3213 14.8724L35.0421 14.417Z" fill="#ABABAB"/>
<path d="M33.6001 15.3281L42.4237 20.9052C42.0475 20.9698 41.6713 21.0344 41.2988 21.1057L32.8794 15.7842L33.6001 15.3281Z" fill="#ABABAB"/>
<path d="M32.1589 16.2393L40.2319 21.342C39.8991 21.4297 39.5738 21.5282 39.2578 21.6376L31.4375 16.6946L32.1589 16.2393Z" fill="#ABABAB"/>
<path d="M30.7173 17.1509L38.3682 21.9865C38.0864 22.1102 37.8151 22.2427 37.5543 22.3834L29.9966 17.6062L30.7173 17.1509Z" fill="#ABABAB"/>
<path d="M29.2759 18.0615L36.8144 22.8265C36.7399 22.8761 36.6667 22.9264 36.5947 22.9774C36.437 23.0888 36.2911 23.2037 36.1551 23.3212L28.5552 18.5176L29.2759 18.0615Z" fill="#ABABAB"/>
<path d="M27.834 18.9727L35.5954 23.8783C35.421 24.0781 35.2664 24.2827 35.123 24.4906L27.1133 19.428L27.834 18.9727Z" fill="#ABABAB"/>
<path d="M26.3926 19.8843L34.7127 25.1433C34.5824 25.3649 34.457 25.5878 34.3284 25.8114L25.6719 20.3396L26.3926 19.8843Z" fill="#ABABAB"/>
<path d="M24.9512 20.7949L33.9312 26.4706C33.8617 26.5786 33.7897 26.6867 33.714 26.7934C33.6413 26.896 33.5631 26.9973 33.4799 27.0965L24.2305 21.2503L24.9512 20.7949Z" fill="#ABABAB"/>
<path d="M23.5098 21.7061L32.9318 27.661C32.7357 27.8377 32.5227 28.0077 32.2968 28.1708L22.7891 22.1614L23.5098 21.7061Z" fill="#ABABAB"/>
<path d="M22.0679 22.6172L31.5899 28.6354C31.3441 28.7835 31.0877 28.9256 30.8226 29.0615L21.3472 23.0725L22.0679 22.6172Z" fill="#ABABAB"/>
<path d="M20.6265 23.5283L30.0051 29.4561C29.7233 29.5832 29.4352 29.7056 29.144 29.8231L19.9058 23.9844L20.6265 23.5283Z" fill="#ABABAB"/>
<path d="M19.1851 24.4395L28.2471 30.1668C27.9404 30.2782 27.6294 30.3849 27.3165 30.4896L18.4644 24.8948L19.1851 24.4395Z" fill="#ABABAB"/>
<path d="M17.7437 25.3506L26.3661 30.7999C26.0477 30.9025 25.7286 31.0038 25.4107 31.1071L17.0229 25.8059L17.7437 25.3506Z" fill="#ABABAB"/>
<path d="M16.302 26.2617L24.4669 31.4229C24.1577 31.5296 23.8522 31.6397 23.5512 31.7552L15.5806 26.7177L16.302 26.2617Z" fill="#ABABAB"/>
<path d="M14.8604 27.1724L22.6776 32.1133C22.6491 32.1263 22.6199 32.1392 22.5913 32.1521C22.3405 32.2649 22.0984 32.3845 21.8662 32.5116L14.1396 27.6277L14.8604 27.1724Z" fill="#ABABAB"/>
<path d="M13.419 28.084L21.1313 32.9583C20.8985 33.116 20.6787 33.2812 20.4733 33.4538L12.6982 28.5393L13.419 28.084Z" fill="#ABABAB"/>
<path d="M11.9773 28.9956L19.8951 34.0005C19.7138 34.1976 19.5642 34.4048 19.4257 34.6149L11.2559 29.451L11.9773 28.9956Z" fill="#ABABAB"/>
<path d="M10.5362 29.9058L19.0115 35.2626C18.8718 35.4726 18.7216 35.6793 18.5384 35.8743L9.81543 30.3611L10.5362 29.9058Z" fill="#ABABAB"/>
<path d="M9.09428 30.8174L17.9154 36.3932C17.6782 36.5468 17.41 36.684 17.1207 36.8023L8.37354 31.2734L9.09428 30.8174Z" fill="#ABABAB"/>
<path d="M7.6529 31.729L16.1605 37.1063C15.7824 37.1954 15.3894 37.2552 14.9971 37.2823L6.93213 32.1851L7.6529 31.729Z" fill="#ABABAB"/>
<path opacity="0.7" d="M42.1231 43.3625L31.4464 38.7539L24.6572 41.8292C24.7621 43.0546 25.1098 43.8743 27.8525 44.8156C30.7561 45.8126 32.0039 45.9417 33.4268 46.5949C34.8615 47.2534 34.1786 48.7657 35.6915 49.221C37.7302 49.8354 39.078 47.8434 39.024 46.9734C38.97 46.1028 38.5981 45.4783 39.7702 45.6135C40.9423 45.7488 41.7121 45.3606 42.1411 44.6096C42.5694 43.858 42.1231 43.3625 42.1231 43.3625Z" fill="black"/>
<path d="M39.5299 37.8185C39.0842 37.4603 37.3441 37.4073 36.3632 37.2266C36.3619 37.2266 29.9465 39.8493 29.8472 39.939C31.5581 40.7355 34.4163 41.2758 38.1666 41.9514C39.3747 42.1689 39.8186 41.0298 40.0427 40.2577C40.3494 39.2009 40.2575 38.403 39.5299 37.8185Z" fill="#004291"/>
<path opacity="0.2" d="M40.0426 40.2585C40.3493 39.2009 40.2767 38.3724 39.5298 37.8185C39.5056 37.8009 39.4783 37.7825 39.4485 37.7649C38.986 37.4916 38.4043 37.5657 38.0039 37.9388C37.6401 38.278 37.2813 38.9379 37.2539 39.9404C37.2198 41.1773 37.5389 41.8386 38.1672 41.9521C39.3746 42.1696 39.8185 41.0298 40.0426 40.2585Z" fill="black"/>
<path d="M38.8762 30.9741C39.7186 33.0497 40.1401 36.0939 36.8535 38.0315C33.567 39.9685 31.545 40.4299 31.545 40.4299C31.545 40.4299 35.1488 40.8799 35.8963 41.4331C36.6431 41.9863 36.7157 42.8155 36.4091 43.873C36.1849 44.6444 35.741 45.7841 34.5336 45.5666C34.4324 45.5483 34.3312 45.534 34.2325 45.5122C28.4279 44.2338 24.9688 43.5406 24.5888 41.5778C24.1419 39.2664 26.3165 38.162 32.0162 34.1936C32.8201 34.1671 34.2735 34.1412 36.2961 33.2727C39.0121 32.1057 38.8762 30.9741 38.8762 30.9741Z" fill="#0258BF"/>
<path opacity="0.2" d="M36.4083 43.8734C36.715 42.8159 36.6424 41.9874 35.8955 41.4335C35.8713 41.4158 35.844 41.3975 35.8142 41.3798C35.3517 41.1072 34.77 41.1807 34.3696 41.5538C34.0058 41.8929 33.647 42.5528 33.6197 43.5553C33.5855 44.7922 33.9046 45.4535 34.5329 45.567C35.741 45.7845 36.1849 44.6454 36.4083 43.8734Z" fill="black"/>
<path opacity="0.1" d="M39.0996 31.584C39.238 33.3769 36.5785 35.8297 33.6172 34.6145C34.6124 36.1124 34.4106 37.3385 32.5451 38.43C31.309 39.1531 29.3752 40.1997 28.4272 40.407C30.9558 40.9134 33.7904 41.6283 33.9388 42.1523C34.0655 41.8954 34.2175 41.6963 34.3703 41.5536C34.7688 41.1818 35.348 41.1071 35.8099 41.3769C34.9073 40.8495 31.545 40.4294 31.545 40.4294C31.545 40.4294 33.5675 39.968 36.8535 38.031C39.8309 36.2769 39.7651 33.6127 39.0996 31.584Z" fill="black"/>
<path d="M37.8667 39.8674C37.8667 41.1186 38.0641 41.5312 38.7321 41.4972C39.1021 41.4781 39.3864 41.7948 39.4336 42.3141C39.4808 42.8333 39.6503 43.3084 39.3846 43.4294C39.1189 43.5503 38.7557 43.6366 38.7874 44.1729C38.819 44.7091 39.0307 45.2025 39.9377 45.2107C40.9099 45.2195 42.1366 44.4617 42.1366 43.1174C42.1366 42.3854 42.1199 40.8712 41.9634 39.6485C41.8746 38.9553 41.5015 38.4422 40.8633 38.3967C40.1295 38.3443 39.9297 38.2689 39.1325 38.2933C37.9772 38.328 37.8667 39.0022 37.8667 39.8674Z" fill="#0D1421"/>
<path d="M39.9379 45.2106C40.9107 45.2195 42.1368 44.4617 42.1368 43.1173C42.1368 42.3854 42.12 40.8711 41.9636 39.6485C41.8847 39.0327 41.768 38.4292 41.0727 38.4292C40.3774 38.4292 40.2967 39.2652 40.3433 40.2309C40.4084 41.5814 40.7462 43.2859 40.5245 43.8779C40.1583 44.8586 39.6933 45.1073 39.1401 44.9884C39.3146 45.1236 39.5685 45.2072 39.9379 45.2106Z" fill="#1B2A45"/>
<path d="M34.3276 43.4696C34.3276 44.7208 34.5977 45.058 35.2446 45.0953C35.7574 45.1252 35.7921 45.5044 35.8635 45.9639C35.9349 46.424 36.1106 46.9099 35.8449 47.0309C35.5792 47.1519 35.216 47.2382 35.2477 47.7744C35.2794 48.3107 35.491 48.8041 36.3981 48.8123C37.3709 48.8211 38.597 48.0633 38.597 46.719C38.597 45.987 38.5802 44.4728 38.4238 43.2501C38.335 42.5569 37.9619 42.0431 37.3237 41.9982C36.5899 41.9459 36.39 41.8704 35.5929 41.8949C34.4382 41.9302 34.3276 42.6051 34.3276 43.4696Z" fill="#0D1421"/>
<path d="M36.3988 48.8127C37.3716 48.8209 38.5977 48.0637 38.5977 46.7194C38.5977 45.9874 38.5809 44.4732 38.4245 43.2505C38.3457 42.6348 38.2289 42.0312 37.5336 42.0312C36.8383 42.0312 36.7576 42.8672 36.8042 43.833C36.8694 45.1834 37.2071 46.888 36.9855 47.4799C36.6192 48.4606 36.1542 48.7087 35.6011 48.5904C35.7755 48.7257 36.0294 48.81 36.3988 48.8127Z" fill="#1B2A45"/>
<path d="M32.5055 23.0791L25.6343 27.422L25.522 27.5545L32.3931 23.2116L32.5055 23.0791Z" fill="#B09F57"/>
<path d="M25.5223 27.5543L25.2441 27.8819L32.1147 23.539L32.3934 23.2114L25.5223 27.5543Z" fill="#B09F57"/>
<path d="M20.0338 18.9121L19.9214 19.0446L25.5223 27.5544L25.6347 27.4219L20.0338 18.9121Z" fill="#C9B662"/>
<path d="M19.6431 19.3727L25.244 27.8818L25.5221 27.5542L19.9212 19.0444L19.6431 19.3727Z" fill="#C9B662"/>
<path d="M26.9048 14.5698L32.5058 23.0789L25.6346 27.4218L20.0337 18.9127L26.9048 14.5698Z" fill="#F5E6A2"/>
<path d="M20.1992 18.9412L25.7381 27.3565L32.5055 23.0788L26.9667 14.6636L20.1992 18.9412Z" fill="#FAEAA0"/>
<path d="M28.8024 18.4389C28.641 18.2167 28.484 17.9985 28.5734 17.8001C28.597 17.7389 28.6739 17.6838 28.7577 17.6567C28.8384 17.6308 28.9136 17.6288 29.0048 17.7545C29.1582 17.9652 29.2103 17.9584 29.3103 18.0692C29.4102 18.18 29.4655 18.2785 29.5741 18.358C29.7256 18.4688 29.8473 18.5327 30.0018 18.5409C30.7077 18.5762 31.2981 19.4162 31.6228 19.9545C31.6948 20.0741 31.9257 20.3086 32.4124 20.6321C32.8992 20.9563 31.9667 22.1083 31.1522 21.4395C30.8685 21.2064 30.5966 20.9556 30.3073 20.7307C30.1744 20.6274 30.0254 20.5512 29.9007 20.4357C29.7579 20.3039 29.6436 20.1373 29.5567 19.9566C29.4785 19.7941 29.4208 19.6201 29.3761 19.4434C29.3357 19.2837 29.3258 19.1084 29.2463 18.969C29.1222 18.7522 28.944 18.6326 28.8024 18.4389Z" fill="#FFC591"/>
<path opacity="0.3" d="M28.7246 17.7286C28.8816 17.6219 28.9437 17.7551 29.0188 17.8699C29.0933 17.9848 28.9009 18.0548 28.8766 18.0602C28.8524 18.0657 28.7879 18.0725 28.6972 17.9386C28.614 17.8162 28.655 17.7761 28.7246 17.7286Z" fill="white"/>
<path d="M30.781 24.0582C30.7295 23.7571 30.7543 23.437 30.8679 23.1325C30.9995 22.7832 31.228 22.5099 31.5061 22.3352C31.634 22.2544 31.7724 22.1953 31.9165 22.1592C32.2076 22.0852 32.523 22.1069 32.8204 22.2408L38.1357 24.6324C38.5715 24.8288 38.8782 25.2258 39.0005 25.6845C39.016 25.7362 39.0272 25.7892 39.0365 25.8429C39.0539 25.9421 39.0626 26.0406 39.0626 26.1426C39.062 26.1908 39.0607 26.2398 39.057 26.288C39.0539 26.3275 39.0489 26.3655 39.0427 26.4049C39.0253 26.5273 38.9943 26.6496 38.9496 26.7699C38.6355 27.6059 37.7626 28.0055 36.9972 27.6616L31.6824 25.2699C31.1976 25.0497 30.8729 24.5842 30.781 24.0582Z" fill="#D9B9AE"/>
<path d="M36.1708 26.3268C36.2639 27.2253 37.0046 27.8717 37.8253 27.7698C38.646 27.6685 39.214 26.545 39.1215 25.6465L38.425 20.0633C38.3318 19.1648 37.5919 18.5185 36.7705 18.6204C35.9498 18.7224 35.3594 19.5332 35.4525 20.4317L36.1708 26.3268Z" fill="#D9B9AE"/>
<path d="M38.8766 30.9739C39.1349 33.0869 33.835 34.9607 32.016 34.1934C31.3505 29.1525 30.7558 28.7542 30.4081 26.1308C30.1741 24.3665 30.5478 22.3418 30.5478 22.3418C30.8923 21.3231 31.5467 20.4803 33.943 19.3147C35.2746 18.667 35.8967 18.5624 36.872 18.6079C39.069 18.7092 38.8462 22.1964 38.8915 23.8499C38.9275 25.1664 38.7108 26.4571 38.7127 27.7728C38.7146 28.8412 38.7866 29.9103 38.8766 30.9739Z" fill="#0258BF"/>
<path d="M32.6258 21.3505C33.9053 22.0988 33.6886 23.836 33.6992 25.391C33.7097 26.946 32.6624 26.9616 31.6524 26.7978C31.0148 26.6945 30.6516 26.5756 30.4418 26.3778C30.1357 24.1459 30.5473 22.3421 30.5473 22.3421C30.6529 22.0308 30.7957 21.7359 30.9999 21.4429C31.4276 21.1249 31.9739 20.9692 32.6258 21.3505Z" fill="#D9B9AE"/>
<path d="M31.6875 20.6927C32.1885 20.2652 32.8956 19.8235 33.9429 19.3144C34.722 18.9352 35.2559 18.7551 35.7619 18.6694C35.8637 18.7272 35.9643 18.7884 36.0704 18.8353C37.1016 19.2927 37.5486 20.2455 37.7261 21.1984C37.813 21.6632 37.5945 22.1335 37.2189 22.3707L36.4851 22.8342C35.7613 23.2916 34.7897 23.0429 34.3259 22.281L34.0727 21.8644C33.5506 21.0115 32.8273 20.5364 31.8936 20.6438C31.8247 20.6526 31.7545 20.6757 31.6875 20.6927Z" fill="#E4C6BB"/>
<path d="M35.562 15.5766C35.5384 16.0612 35.5136 16.5478 35.4137 17.0195C35.3137 17.4911 35.1343 17.9533 34.8344 18.3094C34.4961 18.7097 34.0106 18.9503 33.5146 18.9802C33.3588 18.9911 33.2023 18.9802 33.049 18.9469C32.8963 18.9136 32.7442 18.8586 32.6188 18.758C32.422 18.6017 32.3102 18.3543 32.2308 18.0987V18.0974C32.2128 18.0403 32.1966 17.9832 32.1817 17.9261C32.0321 17.362 31.9092 16.8788 31.8552 16.2943C31.8173 15.8817 32.0042 15.4502 32.0035 15.0342C32.0023 14.6666 31.8359 14.22 31.857 13.8544C31.8688 13.6518 31.8837 13.4466 31.9421 13.2536C32.1134 12.6827 32.648 12.3062 33.193 12.2321C33.7381 12.158 34.2875 12.3388 34.7848 12.5957C34.9214 12.6664 35.0573 12.7438 35.1659 12.8594C35.2696 12.9688 35.3441 13.1061 35.4391 13.2244C35.5571 13.3684 35.598 14.8494 35.562 15.5766Z" fill="#FFCEA1"/>
<path opacity="0.1" d="M33.609 17.8396C33.6096 18.1318 33.6028 18.4234 33.5966 18.7149C33.5954 18.7775 33.5935 18.8427 33.5699 18.8998C33.5575 18.9311 33.5376 18.9576 33.5153 18.98C33.3595 18.9909 33.203 18.98 33.0497 18.9467C32.8969 18.9134 32.7449 18.8584 32.6195 18.7578C32.4227 18.6015 32.3109 18.3541 32.2314 18.0985V18.0972C32.7449 18.6395 33.0739 18.1774 33.1937 16.6353C33.2812 17.357 33.6084 17.111 33.609 17.8396Z" fill="#1D1D1B"/>
<path d="M33.1935 15.3262L33.186 19.7662C33.186 20.0163 33.3443 20.2087 33.6461 20.3997C34.2501 20.7816 35.2291 20.7816 35.8332 20.3997C36.1349 20.2087 36.2864 19.9586 36.2864 19.7085V15.3262H33.1935Z" fill="#FFCEA1"/>
<path d="M36.29 18.8853C36.29 19.0443 36.2168 19.2203 36.1615 19.2733C35.7294 19.6906 34.8796 20.0073 33.5256 19.6417C33.14 19.5377 32.9904 19.8524 32.8843 20.2044C33.9347 20.7794 34.851 20.7814 35.555 20.5871C36.1578 20.4206 36.5117 19.9217 36.5427 19.6247C36.5166 19.38 36.5309 19.0851 36.29 18.8853Z" fill="#D9B9AE"/>
<path d="M32.4437 14.4455C32.6144 14.5536 32.6125 15.4867 32.7181 15.6553C32.8938 15.9353 33.175 15.3447 33.2048 15.7035C33.2532 16.2771 33.1756 16.8569 33.2222 17.4311C33.2687 18.0054 33.4742 18.6117 33.9274 18.9046C34.2446 19.1099 34.6314 19.1296 35.0002 19.1241C35.4825 19.1174 36.3306 18.8679 36.5696 18.4017C38.8753 12.3923 35.4434 11.7161 34.56 11.6515C33.0092 11.5387 31.0822 12.6411 31.8154 13.9759C31.9271 14.1805 32.2872 14.3463 32.4437 14.4455Z" fill="#2F2F2F"/>
<path d="M33.3234 15.3263C33.1527 15.3317 33.0292 15.5016 32.9776 15.6654C32.9137 15.8706 32.9174 16.0881 32.9224 16.3009C32.928 16.572 32.9367 16.8534 33.0583 17.0926C33.0912 17.1565 33.1353 17.2197 33.2017 17.2469C33.3017 17.2877 33.4227 17.2313 33.4904 17.1443C33.5575 17.0566 33.5835 16.9458 33.6034 16.8378C33.6611 16.5258 33.6872 16.2098 33.681 15.8944C33.6785 15.768 33.6705 15.6389 33.6158 15.5261C33.5606 15.4146 33.4494 15.3229 33.3234 15.3263Z" fill="#FFCEA1"/>
<path d="M33.044 23.8645L29.5302 28.397C29.3986 28.5669 29.2422 28.7008 29.0721 28.7966C28.627 29.0454 28.0869 29.0393 27.643 28.7586C27.566 28.7103 27.4921 28.6532 27.4226 28.588C27.0855 28.276 26.9061 27.8349 26.8943 27.387C26.8831 26.9969 26.9992 26.6014 27.2475 26.2806L30.7619 21.7488C31.2362 21.1351 32.0352 20.9992 32.6498 21.3879C32.7262 21.4362 32.7994 21.4919 32.8696 21.5571C33.4997 22.1416 33.5773 23.1747 33.044 23.8645Z" fill="#E4C6BB"/>
<path d="M22.3862 25.255C22.2589 25.1273 21.9665 24.47 21.9436 24.3375C21.884 23.9957 21.861 23.6762 21.9597 23.3459C22.0143 23.1638 21.9926 23.1223 21.7722 22.7084C21.6636 22.5045 21.7188 22.3272 21.7958 22.2687C21.8728 22.2103 21.9392 22.1892 22.0162 22.2191C22.0938 22.2483 22.1832 22.3455 22.2968 22.5134C22.4104 22.6819 22.7668 23.278 22.9958 23.4948C23.2249 23.7116 23.4732 23.9053 23.6911 24.1364C23.5179 23.9855 23.2783 23.6416 23.1808 23.4241C23.084 23.2066 23.0418 22.9783 23.1653 22.7649C23.1957 22.7186 23.2976 22.6819 23.3714 22.6914C23.4453 22.7009 23.5117 22.739 23.5949 22.9273C23.6359 23.0204 23.6645 23.119 23.7061 23.2107C23.8327 23.4894 23.9289 23.5784 24.0146 23.6647C24.3716 24.0249 24.5975 24.536 24.6348 25.0661C24.6416 25.1674 24.6422 25.27 24.6242 25.3692C24.582 25.6071 24.4405 25.8089 24.2877 25.9836C24.253 26.023 24.217 26.0624 24.1717 26.0856C24.1375 26.1032 24.099 26.11 24.0618 26.1155C23.7452 26.1576 23.4236 26.0563 23.1436 25.8891C22.8642 25.7219 22.6209 25.4909 22.3862 25.255Z" fill="#FFC591"/>
<path opacity="0.3" d="M21.8014 22.3651C21.8312 22.3298 21.8722 22.3039 21.9157 22.2992C21.9827 22.2917 22.0113 22.4032 22.015 22.4569C22.0193 22.5214 22.01 22.6173 21.9461 22.658C21.8821 22.6988 21.866 22.7077 21.8287 22.6757C21.807 22.6574 21.7518 22.5547 21.7518 22.5228C21.7363 22.4643 21.766 22.4072 21.8014 22.3651Z" fill="white"/>
<path opacity="0.3" d="M23.3141 22.7343C23.4929 22.701 23.5041 22.8478 23.5332 22.9823C23.5624 23.1176 23.3632 23.1026 23.3389 23.0972C23.3154 23.0918 23.2539 23.072 23.2173 22.9137C23.1844 22.7689 23.2346 22.7492 23.3141 22.7343Z" fill="white"/>
<path d="M27.7818 28.8967L24.3605 27.2316C23.6677 26.8789 23.3765 26.5364 23.5069 25.9464C23.5069 25.9464 23.9644 23.6309 25.229 24.3289L28.9477 26.151L28.9483 26.1517C29.4362 26.3998 29.7299 26.921 29.7479 27.4722C29.7553 27.7026 29.7137 27.9392 29.6187 28.1628C29.2972 28.9212 28.4746 29.2502 27.7818 28.8967Z" fill="#E4C6BB"/>
<path d="M0 28.0552V28.2781L6.93195 32.6597V32.4361L0 28.0552Z" fill="#8C8C8C"/>
<path d="M8.46996 22.7616L8.04842 23.028V22.4951L7.86342 22.6113V23.1449L7.44189 23.4113V23.6451L7.86342 23.378V23.5601L8.04842 23.6736V23.2618L8.46996 22.9953V22.7616Z" fill="#E3E3E3"/>
<path d="M8.46988 22.7617L8.31964 22.6665L8.04834 22.8378V23.0281L8.46988 22.7617Z" fill="#F7F7F7"/>
<path d="M7.89789 22.3999L7.71289 22.5168L7.86313 22.6113L8.04813 22.495L7.89789 22.3999Z" fill="#F7F7F7"/>
<path d="M7.71289 22.5166V23.0494L7.86313 23.1446V22.6111L7.71289 22.5166Z" fill="#C9C9C9"/>
<path d="M7.71302 23.0498L7.2915 23.3162L7.44174 23.4114L7.86326 23.145L7.71302 23.0498Z" fill="#F7F7F7"/>
<path d="M7.2915 23.3159V23.5497L7.44174 23.6449V23.4111L7.2915 23.3159Z" fill="#C9C9C9"/>
<path d="M7.71973 23.469L7.86313 23.5601V23.3779L7.71973 23.469Z" fill="#BABABA"/>
<path d="M13.9377 26.2176L13.5162 26.484V25.9512L13.3312 26.0681V26.6009L12.9097 26.8673V27.1011L13.3312 26.8347V27.0162L13.5162 27.1297V26.7178L13.9377 26.4514V26.2176Z" fill="#E3E3E3"/>
<path d="M13.9376 26.2177L13.7874 26.1226L13.5161 26.2945V26.4841L13.9376 26.2177Z" fill="#F7F7F7"/>
<path d="M13.3657 25.856L13.1807 25.9729L13.3309 26.068L13.5159 25.9511L13.3657 25.856Z" fill="#F7F7F7"/>
<path d="M13.1807 25.9727V26.5055L13.3309 26.6006V26.0678L13.1807 25.9727Z" fill="#C9C9C9"/>
<path d="M13.1808 26.5059L12.7593 26.7723L12.9095 26.8675L13.331 26.601L13.1808 26.5059Z" fill="#F7F7F7"/>
<path d="M12.7593 26.7725V27.0063L12.9095 27.1014V26.8676L12.7593 26.7725Z" fill="#C9C9C9"/>
<path d="M13.1875 26.9249L13.3309 27.016V26.8345L13.1875 26.9249Z" fill="#BABABA"/>
<path d="M41.6644 24.3064L41.3931 24.1351V23.9448L41.8146 24.2113L41.6644 24.3064Z" fill="#C9C9C9"/>
<path d="M42.6061 23.9448V24.1351L42.3348 24.3064L42.1846 24.2113L42.6061 23.9448Z" fill="#E3E3E3"/>
<path d="M42.6059 24.6681L42.4209 24.785V24.5947L42.6059 24.4785V24.6681Z" fill="#E3E3E3"/>
<path d="M42.4211 24.7848L41.9995 24.5184V24.3281L42.4211 24.5946V24.7848Z" fill="#C9C9C9"/>
<path d="M41.9996 24.5184L41.5781 24.7848V24.5946L41.9996 24.3281V24.5184Z" fill="#E3E3E3"/>
<path d="M41.5781 24.785L41.3931 24.6681V24.4785L41.5781 24.5947V24.785Z" fill="#C9C9C9"/>
<path d="M42.1846 24.2117L42.6061 24.4788L42.4211 24.5951L41.9996 24.3286L41.5781 24.5951L41.3931 24.4788L41.8146 24.2117L41.3931 23.9453L41.5781 23.8291L41.9996 24.0955L42.4211 23.8291L42.6061 23.9453L42.1846 24.2117Z" fill="#F7F7F7"/>
<path d="M43.8733 24.9284L43.6021 24.7572V24.5669L44.0236 24.8333L43.8733 24.9284Z" fill="#C9C9C9"/>
<path d="M44.8151 24.5669V24.7572L44.5438 24.9284L44.3936 24.8333L44.8151 24.5669Z" fill="#E3E3E3"/>
<path d="M44.8154 25.2904L44.6304 25.4073V25.217L44.8154 25.1001V25.2904Z" fill="#E3E3E3"/>
<path d="M44.63 25.4069L44.2085 25.1405V24.9502L44.63 25.2166V25.4069Z" fill="#C9C9C9"/>
<path d="M44.2086 25.1405L43.7871 25.4069V25.2166L44.2086 24.9502V25.1405Z" fill="#E3E3E3"/>
<path d="M43.787 25.4073L43.6021 25.2904V25.1001L43.787 25.217V25.4073Z" fill="#C9C9C9"/>
<path d="M44.393 24.8335L44.8151 25.0999L44.6301 25.2168L44.2086 24.9504L43.787 25.2168L43.6021 25.0999L44.0236 24.8335L43.6021 24.5671L43.787 24.4502L44.2086 24.7173L44.6301 24.4502L44.8151 24.5671L44.393 24.8335Z" fill="#F7F7F7"/>
<path d="M42.8652 26.8728L42.5933 26.7009V26.5112L43.0154 26.7777L42.8652 26.8728Z" fill="#C9C9C9"/>
<path d="M43.8063 26.5112V26.7009L43.535 26.8728L43.3848 26.7777L43.8063 26.5112Z" fill="#E3E3E3"/>
<path d="M43.8061 27.2336L43.6211 27.3505V27.1608L43.8061 27.0439V27.2336Z" fill="#E3E3E3"/>
<path d="M43.6212 27.3506L43.1997 27.0841V26.8945L43.6212 27.161V27.3506Z" fill="#C9C9C9"/>
<path d="M43.1999 27.0841L42.7783 27.3506V27.161L43.1999 26.8945V27.0841Z" fill="#E3E3E3"/>
<path d="M42.7781 27.3505L42.5938 27.2336V27.0439L42.7781 27.1608V27.3505Z" fill="#C9C9C9"/>
<path d="M43.3848 26.7779L43.8063 27.0443L43.6213 27.1612L43.1998 26.8948L42.7782 27.1612L42.5933 27.0443L43.0154 26.7779L42.5939 26.5114L42.7782 26.3945L43.1998 26.661L43.6213 26.3945L43.8063 26.5114L43.3848 26.7779Z" fill="#F7F7F7"/>
<path d="M45.5706 26.5657L45.2993 26.3944V26.2041L45.7209 26.4712L45.5706 26.5657Z" fill="#C9C9C9"/>
<path d="M46.5125 26.2041V26.3944L46.2406 26.5657L46.0903 26.4712L46.5125 26.2041Z" fill="#E3E3E3"/>
<path d="M46.5122 26.9274L46.3271 27.0443V26.854L46.5122 26.7378V26.9274Z" fill="#E3E3E3"/>
<path d="M46.3273 27.0442L45.9058 26.7777V26.5874L46.3273 26.8538V27.0442Z" fill="#C9C9C9"/>
<path d="M45.9059 26.7777L45.4844 27.0442V26.8538L45.9059 26.5874V26.7777Z" fill="#E3E3E3"/>
<path d="M45.4843 27.0443L45.2993 26.9274V26.7378L45.4843 26.854V27.0443Z" fill="#C9C9C9"/>
<path d="M46.0902 26.4712L46.5124 26.7376L46.3274 26.8539L45.9059 26.5874L45.4843 26.8539L45.2993 26.7376L45.7209 26.4712L45.2993 26.2041L45.4843 26.0879L45.9059 26.3543L46.3274 26.0879L46.5124 26.2041L46.0902 26.4712Z" fill="#F7F7F7"/>
<path d="M45.4409 23.5437L45.1689 23.3724V23.1821L45.5911 23.4486L45.4409 23.5437Z" fill="#C9C9C9"/>
<path d="M46.382 23.1821V23.3724L46.1107 23.5437L45.9604 23.4486L46.382 23.1821Z" fill="#E3E3E3"/>
<path d="M46.3823 23.9057L46.1973 24.0225V23.8322L46.3823 23.7153V23.9057Z" fill="#E3E3E3"/>
<path d="M46.1969 24.0221L45.7754 23.755V23.5654L46.1969 23.8318V24.0221Z" fill="#C9C9C9"/>
<path d="M45.7755 23.755L45.354 24.0221V23.8318L45.7755 23.5654V23.755Z" fill="#E3E3E3"/>
<path d="M45.3539 24.0225L45.1689 23.9057V23.7153L45.3539 23.8322V24.0225Z" fill="#C9C9C9"/>
<path d="M45.9605 23.4483L46.382 23.7147L46.197 23.8316L45.7755 23.5652L45.3539 23.8316L45.1689 23.7147L45.5911 23.4483L45.1689 23.1818L45.3539 23.0649L45.7755 23.3314L46.197 23.0649L46.382 23.1818L45.9605 23.4483Z" fill="#F7F7F7"/>
<path opacity="0.8" d="M43.0613 29.4818L41.6353 30.383C41.2759 30.61 41.2759 30.979 41.6353 31.206L41.7352 31.2692C42.0947 31.4962 42.6776 31.4962 43.0377 31.2692L43.661 30.8757L48.6691 33.7621L49.4178 33.2885L44.4097 30.402L44.4637 30.3681C44.8232 30.1411 44.8232 29.7727 44.4637 29.545L44.3638 29.4818C44.0043 29.2541 43.4214 29.2541 43.0613 29.4818Z" fill="black"/>
<path d="M44.15 28.3686C44.3809 28.5148 44.5715 28.807 44.6348 29.1122C44.6839 29.3473 44.646 29.4873 44.628 29.5546C44.5982 29.6654 44.5373 29.7333 44.4914 29.7728C44.6646 29.6096 44.6509 29.2025 44.451 28.8226C44.343 28.618 44.2021 28.461 44.0605 28.3713C43.919 28.2816 43.7775 28.2606 43.6694 28.3285C43.7632 28.2701 43.9221 28.2293 44.15 28.3686Z" fill="#303030"/>
<path d="M44.4921 29.7725C44.479 29.7847 44.4647 29.7963 44.4492 29.8058C44.4592 29.7983 44.4747 29.7874 44.4921 29.7725Z" fill="#4A4A4A"/>
<path d="M43.6695 28.3282C43.7775 28.2603 43.9191 28.2813 44.0606 28.371C44.2021 28.4607 44.3437 28.6177 44.4511 28.8223C44.6665 29.2308 44.6653 29.6719 44.4486 29.8058L42.8655 30.8062C43.0822 30.6723 43.0834 30.2319 42.868 29.8228C42.76 29.6182 42.6191 29.4605 42.4775 29.3715C42.336 29.2818 42.1944 29.2607 42.0864 29.3287L43.6695 28.3282Z" fill="#4A4A4A"/>
<path d="M42.9414 29.9833L44.5245 28.9829C44.663 29.3404 44.6375 29.6891 44.4488 29.806L42.8657 30.8064C43.0544 30.6901 43.0799 30.3415 42.9414 29.9833Z" fill="#303030"/>
<path d="M41.8948 29.6301C41.9078 29.5642 41.9414 29.4921 41.9556 29.469C42.0016 29.397 42.0202 29.3773 42.0866 29.3297C42.1947 29.2617 42.3362 29.2828 42.4777 29.3725C42.6193 29.4615 42.7608 29.6192 42.8682 29.8238C43.0837 30.2322 43.0824 30.6733 42.8658 30.8072C42.7397 30.8854 42.6149 30.8582 42.574 30.8494C42.3107 30.7916 42.0463 30.4993 41.9308 30.1398C41.847 29.8775 41.883 29.6913 41.8948 29.6301Z" fill="#303030"/>
<path d="M42.5926 29.6067C42.4629 29.4646 42.3195 29.4123 42.2729 29.4748C42.2344 29.5264 42.3362 29.6025 42.4585 29.7337C42.5901 29.8751 42.6752 29.9791 42.7236 29.9363C42.7727 29.8948 42.7131 29.7385 42.5926 29.6067Z" fill="#4A4A4A"/>
<path d="M47.0782 31.3957C47.0782 31.3957 43.9853 29.4404 43.9704 29.4309C43.9555 29.4214 43.935 29.4227 43.9121 29.437L43.5663 29.6558C43.5445 29.6694 43.5247 29.6932 43.5098 29.7197L46.797 31.7974L47.0782 31.3957Z" fill="#D4C07F"/>
<path d="M43.5096 29.7202C43.4935 29.7494 43.4829 29.7834 43.4829 29.8133V30.0328C43.4829 30.062 43.4922 30.0824 43.5071 30.0913C43.522 30.1008 46.6155 32.0561 46.6155 32.0561L46.7968 31.7979L43.5096 29.7202Z" fill="#BAA561"/>
<path d="M47.0197 31.8307L46.6739 32.0496C46.6509 32.0638 46.6304 32.0652 46.6155 32.0564C46.6006 32.0468 46.5913 32.0264 46.5913 31.9972V31.7777C46.5913 31.7199 46.6286 31.6492 46.6745 31.6207L47.0203 31.4019C47.0433 31.3876 47.0637 31.3862 47.0786 31.3957C47.0935 31.4052 47.1029 31.4256 47.1029 31.4542V31.6737C47.1029 31.7315 47.0656 31.8022 47.0197 31.8307Z" fill="#AB1818"/>
<path d="M49.3933 32.8589C49.3933 32.8589 47.0932 31.4052 47.0783 31.3957C47.0634 31.3862 47.0429 31.3875 47.0199 31.4025L46.6742 31.6213C46.6524 31.6349 46.6326 31.6587 46.6177 31.6852L49.1115 33.262L49.3933 32.8589Z" fill="#C92C2C"/>
<path d="M46.6175 31.6841C46.6014 31.7133 46.5908 31.7473 46.5908 31.7772V31.9967C46.5908 32.026 46.6001 32.0464 46.615 32.0559C46.6299 32.0654 48.93 33.5191 48.93 33.5191L49.1113 33.2608L46.6175 31.6841Z" fill="#AB1818"/>
<path d="M49.3346 33.2936L48.9888 33.5124C48.9659 33.5267 48.9454 33.5281 48.9305 33.5192C48.9156 33.5097 48.9062 33.4893 48.9062 33.4601V33.2406C48.9062 33.1828 48.9435 33.1121 48.9894 33.0836L49.3352 32.8647C49.3582 32.8505 49.3787 32.8491 49.3936 32.8586C49.4085 32.8681 49.4178 32.8885 49.4178 32.9177V33.1373C49.4178 33.1944 49.3806 33.2651 49.3346 33.2936Z" fill="#BF1518"/>
<path opacity="0.6" d="M49.8392 24.2593L59.3947 30.2992L58.7801 30.6968L57.6503 30.8212L48.5566 25.0735L49.8392 24.2593Z" fill="black"/>
<path d="M49.8394 22.594L49.6196 22.6817L49.9536 22.4703L50.1734 22.3833L50.3938 22.5219L50.0598 22.7333L49.8394 22.594Z" fill="#1C1C1C"/>
<path d="M50.0596 22.7334V24.3985L59.1749 30.1598V28.4947L55.0316 25.876V26.2723C55.0316 26.3137 55.0049 26.33 54.9727 26.3096L54.2625 25.8611C54.2296 25.8407 54.2035 25.7904 54.2035 25.749V25.3527L50.0596 22.7334ZM57.4553 28.2595C57.4553 27.955 57.6508 27.8313 57.8911 27.9836C58.132 28.1358 58.3275 28.5063 58.3275 28.8107C58.3275 29.1152 58.132 29.2389 57.8911 29.0866C57.6502 28.9337 57.4553 28.564 57.4553 28.2595ZM51.0342 23.7923C51.2043 23.6849 51.4806 23.8589 51.6507 24.1824C51.8208 24.5052 51.8208 24.8545 51.6507 24.9619C51.4806 25.0693 51.2043 24.8947 51.0342 24.5718C50.8641 24.249 50.8641 23.9003 51.0342 23.7923Z" fill="#FBBC01"/>
<path d="M59.6152 30.2117L59.9492 30.0004V28.7886L59.6152 28.9999V30.2117Z" fill="#1C1C1C"/>
<path d="M59.6154 28.9999L59.9494 28.7885L59.729 28.4229L59.395 28.6342L59.6154 28.9999Z" fill="#2B2B2B"/>
<path d="M59.3951 28.6342L59.7291 28.4228L59.5093 28.2842L59.1753 28.4949L59.3951 28.6342Z" fill="#1C1C1C"/>
<path d="M59.3951 28.6345L59.6154 29.0001V30.2119L59.3951 30.2995L59.1753 30.1602V28.4951L59.3951 28.6345Z" fill="#404040"/>
<path d="M49.8394 24.2594L49.6196 23.8937V22.6819L49.8394 22.5942L50.0598 22.7336V24.3987L49.8394 24.2594Z" fill="#404040"/>
<path d="M50.978 23.6844C50.7762 23.8122 50.7762 24.2254 50.978 24.6081C51.1797 24.9907 51.5069 25.1973 51.7087 25.0696C51.9104 24.9418 51.9104 24.5286 51.7087 24.1459C51.5063 23.764 51.1791 23.5574 50.978 23.6844ZM51.0345 23.7925C51.2046 23.6851 51.4808 23.8591 51.6509 24.1826C51.8211 24.5054 51.8211 24.8548 51.6509 24.9622C51.4808 25.0696 51.2046 24.8949 51.0345 24.5721C50.8644 24.2492 50.8644 23.9006 51.0345 23.7925Z" fill="#404040"/>
<path d="M51.2504 23.7801C51.1709 23.7516 51.0958 23.7536 51.0343 23.7924C50.8642 23.8998 50.8642 24.2491 51.0343 24.5719C51.2044 24.8948 51.4807 25.0694 51.6508 24.962C51.7122 24.9233 51.752 24.8526 51.7687 24.7629C51.6291 24.7126 51.4769 24.5672 51.3683 24.3606C51.2597 24.1546 51.2206 23.9378 51.2504 23.7801Z" fill="#1C1C1C"/>
<path d="M51.3089 24.0801C51.2741 24.1018 51.302 24.2269 51.3716 24.3587C51.4411 24.4906 51.5256 24.5796 51.5603 24.5579C51.5951 24.5361 51.5671 24.4111 51.4976 24.2792C51.4281 24.1474 51.3437 24.0577 51.3089 24.0801Z" fill="white"/>
<path opacity="0.6" d="M51.6311 24.9336C51.6534 24.9336 51.6745 24.9308 51.695 24.9247C51.7391 24.8765 51.7658 24.8065 51.7751 24.7229L51.2853 23.7945C51.2145 23.7618 51.1456 23.7517 51.0854 23.7693C51.0705 23.7856 51.0574 23.8047 51.0469 23.8257L51.6311 24.9336Z" fill="#AFCD15"/>
<path d="M59.5093 28.2842L55.4958 25.7471L55.1611 25.9585L59.1753 28.4949L59.5093 28.2842Z" fill="#FCC901"/>
<path d="M54.0731 25.2704L54.4071 25.0591L50.3936 22.522L50.0596 22.7334L54.0731 25.2704Z" fill="#FFAD0D"/>
<path d="M54.203 25.3528V25.749C54.203 25.7905 54.2297 25.8407 54.262 25.8611L54.9722 26.3097C55.0051 26.3301 55.0312 26.3138 55.0312 26.2723V25.8761L55.1609 25.9583V26.4082C55.1609 26.502 55.1007 26.5408 55.0262 26.4932L54.208 25.976C54.1335 25.9291 54.0732 25.8149 54.0732 25.7204V25.2705L54.203 25.3528Z" fill="#404040"/>
<path d="M54.2031 25.7489C54.2031 25.7904 54.2298 25.8407 54.2621 25.861L54.9723 26.3096C55.0052 26.33 55.0313 26.3137 55.0313 26.2722V25.9243L54.5961 25.649C54.5632 25.6286 54.5371 25.5783 54.5371 25.5369V25.1406L54.2031 25.352V25.7489Z" fill="#1C1C1C"/>
<path d="M54.203 25.3527L54.537 25.1413L54.4073 25.0591L54.0732 25.2704L54.203 25.3527Z" fill="#2B2B2B"/>
<path d="M55.161 25.9582L55.4956 25.7468L55.3659 25.6646L55.0312 25.8759L55.161 25.9582Z" fill="#2B2B2B"/>
<path d="M54.6167 25.6016C54.6167 25.6634 54.6962 25.7647 54.7949 25.8265C54.893 25.8884 54.973 25.8884 54.973 25.8265C54.973 25.7647 54.8936 25.6634 54.7949 25.6016C54.6962 25.5397 54.6167 25.5397 54.6167 25.6016Z" fill="white"/>
<path opacity="0.6" d="M54.3024 25.4158C54.2651 25.4865 54.2651 25.5626 54.3024 25.5864C54.3396 25.6102 55.0312 26.0472 55.0312 26.0472V25.8759L55.1659 25.7909C55.1659 25.7909 54.4749 25.3539 54.4377 25.3308C54.4004 25.307 54.3396 25.3451 54.3024 25.4158Z" fill="#AFCD15"/>
<path d="M57.375 28.2089C57.375 28.5698 57.6066 29.0082 57.8915 29.1883C58.1771 29.3684 58.408 29.2223 58.408 28.8621C58.408 28.5012 58.1771 28.0628 57.8915 27.8827C57.6066 27.7019 57.375 27.848 57.375 28.2089ZM57.4557 28.2599C57.4557 27.9554 57.6513 27.8317 57.8915 27.984C58.1324 28.1362 58.3279 28.5066 58.3279 28.8111C58.3279 29.1156 58.1324 29.2393 57.8915 29.087C57.6506 28.9341 57.4557 28.5644 57.4557 28.2599Z" fill="#404040"/>
<path d="M58.226 28.8758C57.9851 28.7235 57.7902 28.3531 57.7902 28.0487C57.7902 28.0086 57.7939 27.9725 57.8001 27.9392C57.6033 27.8685 57.4556 27.9956 57.4556 28.26C57.4556 28.5645 57.6511 28.9349 57.8914 29.0871C58.1006 29.2196 58.275 29.1429 58.3173 28.9213C58.2881 28.9098 58.257 28.8955 58.226 28.8758Z" fill="#1C1C1C"/>
<path d="M57.8506 28.3867C57.8506 28.4486 57.93 28.5498 58.0288 28.6117C58.1268 28.6735 58.2069 28.6735 58.2069 28.6117C58.2069 28.5498 58.1275 28.4486 58.0288 28.3867C57.9307 28.3249 57.8506 28.3249 57.8506 28.3867Z" fill="white"/>
<path opacity="0.6" d="M58.2673 28.4919C58.0643 28.3641 57.6986 28.1324 57.6719 28.1154C57.6347 28.0916 57.5745 28.1304 57.5372 28.201C57.5 28.2717 57.5 28.3478 57.5372 28.3716C57.572 28.3934 58.2344 28.812 58.3256 28.8698C58.3275 28.8508 58.3281 28.8311 58.3281 28.8107C58.3281 28.7081 58.3058 28.5986 58.2673 28.4919Z" fill="#AFCD15"/>
</svg>
