<svg width="92" height="56" viewBox="0 0 92 56" fill="none" xmlns="http://www.w3.org/2000/svg">
<path opacity="0.4" fill-rule="evenodd" clip-rule="evenodd" d="M48.1032 6.73584C70.6409 6.73584 88.9198 17.3457 88.9198 30.4294C88.9198 43.5131 70.6418 54.123 48.1032 54.123C25.5646 54.123 7.28564 43.5131 7.28564 30.4294C7.28564 17.3457 25.5646 6.73584 48.1032 6.73584Z" fill="#D2D2E1"/>
<path fill-rule="evenodd" clip-rule="evenodd" d="M90.0316 14.6418L67.5815 0.43457L88.7136 21.14L90.0316 14.6418Z" fill="#E3E3E3"/>
<path fill-rule="evenodd" clip-rule="evenodd" d="M0 43.0988L18.493 54.9322C23.8606 56.1537 46.0714 50.1369 50.5976 48.1359L89.0173 23.8822C94.5211 20.616 91.7303 11.135 85.3481 15.1647L67.5837 0.43457L0 43.0988Z" fill="#F0CA30"/>
<path fill-rule="evenodd" clip-rule="evenodd" d="M18.4922 54.9325C25.9901 56.1306 41.7837 52.6951 50.7174 48.0605C44.5804 50.1063 33.277 53.1445 25.5835 49.1425C25.7946 55.0614 19.964 55.3713 18.4922 54.9325Z" fill="#E3E3E3"/>
<path fill-rule="evenodd" clip-rule="evenodd" d="M56.0857 42.8836L60.6868 45.7962C61.0447 46.0241 61.0973 46.3063 61.2977 46.5853L61.6605 46.4139V47.6194C61.6605 48.3403 60.9912 49.5607 60.1547 50.1251L56.0857 47.5438V44.0359L58.8872 45.7813C59.2889 46.0316 59.9358 45.974 60.288 45.7632C60.251 45.7355 60.2121 45.7078 60.1673 45.6801L56.0866 43.1381V42.8836H56.0857ZM46.8757 37.0531L56.0857 42.8836V43.1371L53.2841 41.3917C52.8814 41.1403 52.2355 41.1978 51.8834 41.4098C51.9194 41.4375 51.9592 41.4651 52.004 41.4928L56.0847 44.0348V47.5427L46.8747 41.7005V38.2065L49.6762 39.9519C50.0779 40.2021 50.7248 40.1446 51.077 39.9338C51.041 39.9061 51.0011 39.8784 50.9563 39.8507L46.8757 37.3087V37.0531ZM38.8223 36.592V35.575C40.4292 34.639 42.7668 34.4473 44.3154 35.4323L46.8757 37.0531V37.3087L44.0741 35.5633C43.6714 35.312 43.0246 35.3706 42.6734 35.5814C42.7094 35.6091 42.7493 35.6368 42.794 35.6645L46.8747 38.2065V41.7005L38.8223 36.592Z" fill="#804620"/>
<path fill-rule="evenodd" clip-rule="evenodd" d="M56.0857 41.8667L60.6868 44.7793C61.3365 45.1935 61.6362 45.7974 61.6605 46.4406V46.6248C61.6216 47.5375 61.0525 48.5012 60.1547 49.1082L56.0857 46.5268V44.0349L58.8872 45.7803C59.2889 46.0306 59.9358 45.9731 60.288 45.7622C60.251 45.7345 60.2121 45.7068 60.1673 45.6792L56.0866 43.1372V41.8667H56.0857ZM46.8757 36.0373L56.0857 41.8667V43.1382L53.2841 41.3928C52.8814 41.1415 52.2355 41.199 51.8834 41.4109C51.9194 41.4386 51.9592 41.4663 52.004 41.494L56.0847 44.036V46.5279L46.8747 40.6857V38.2087L49.6762 39.9541C50.0779 40.2044 50.7248 40.1469 51.077 39.936C51.041 39.9083 51.0011 39.8806 50.9563 39.8529L46.8757 37.311V36.0373ZM38.8223 35.5762C40.5139 34.556 42.6909 33.3824 44.3154 34.4165L46.8757 36.0373V37.311L44.0741 35.5645C43.6714 35.3131 43.0246 35.3717 42.6734 35.5826C42.7094 35.6103 42.7493 35.6379 42.794 35.6656L46.8747 38.2087V40.6857L38.8223 35.5762Z" fill="#A16437"/>
<path fill-rule="evenodd" clip-rule="evenodd" d="M35.7593 37.3783L38.8837 35.9865C39.3575 35.7745 39.5287 36.5253 39.159 36.7734L36.2067 38.7595L35.7593 37.3783Z" fill="#E3E3E3"/>
<path fill-rule="evenodd" clip-rule="evenodd" d="M36.3059 38.0149C36.4022 38.4068 36.3254 38.754 36.1347 38.7902C35.9441 38.8264 35.7106 38.5368 35.6143 38.1449C35.518 37.753 35.5948 37.4058 35.7855 37.3696C35.9771 37.3345 36.2096 37.623 36.3059 38.0149Z" fill="#AFAFAF"/>
<path fill-rule="evenodd" clip-rule="evenodd" d="M36.7427 37.9991L39.8672 36.6073C40.3409 36.3964 40.5121 37.1461 40.1424 37.3942L37.1892 39.3803L36.7427 37.9991Z" fill="#E3E3E3"/>
<path fill-rule="evenodd" clip-rule="evenodd" d="M37.2893 38.636C37.3856 39.0279 37.3088 39.3751 37.1181 39.4113C36.9275 39.4475 36.694 39.1589 36.5977 38.766C36.5014 38.3741 36.5782 38.0269 36.7689 37.9907C36.9605 37.9555 37.193 38.2441 37.2893 38.636Z" fill="#AFAFAF"/>
<path fill-rule="evenodd" clip-rule="evenodd" d="M37.7261 38.62L40.8505 37.2282C41.3243 37.0162 41.4955 37.767 41.1258 38.0151L38.1726 40.0012L37.7261 38.62Z" fill="#E3E3E3"/>
<path fill-rule="evenodd" clip-rule="evenodd" d="M38.2727 39.2568C38.369 39.6487 38.2922 39.9959 38.1015 40.0321C37.9109 40.0683 37.6774 39.7797 37.5821 39.3867C37.4858 38.9948 37.5626 38.6477 37.7533 38.6115C37.943 38.5752 38.1764 38.8649 38.2727 39.2568Z" fill="#AFAFAF"/>
<path fill-rule="evenodd" clip-rule="evenodd" d="M38.7085 39.2396L41.833 37.8478C42.3067 37.6359 42.4779 38.3866 42.1083 38.6348L39.155 40.6209L38.7085 39.2396Z" fill="#E3E3E3"/>
<path fill-rule="evenodd" clip-rule="evenodd" d="M39.2561 39.8774C39.3524 40.2693 39.2756 40.6165 39.0849 40.6527C38.8942 40.6889 38.6608 40.3992 38.5645 40.0073C38.4682 39.6154 38.545 39.2683 38.7357 39.2321C38.9264 39.1959 39.1598 39.4855 39.2561 39.8774Z" fill="#AFAFAF"/>
<path fill-rule="evenodd" clip-rule="evenodd" d="M39.6919 39.8604L42.8163 38.4686C43.2901 38.2577 43.4613 39.0074 43.0917 39.2556L40.1394 41.2417L39.6919 39.8604Z" fill="#E3E3E3"/>
<path fill-rule="evenodd" clip-rule="evenodd" d="M40.2395 40.4985C40.3358 40.8904 40.259 41.2376 40.0683 41.2738C39.8777 41.31 39.6442 41.0214 39.5479 40.6284C39.4516 40.2365 39.5284 39.8894 39.7191 39.8532C39.9098 39.8169 40.1432 40.1066 40.2395 40.4985Z" fill="#AFAFAF"/>
<path fill-rule="evenodd" clip-rule="evenodd" d="M40.6758 40.481L43.8003 39.0892C44.274 38.8783 44.4452 39.628 44.0755 39.8762L41.1223 41.8623L40.6758 40.481Z" fill="#E3E3E3"/>
<path fill-rule="evenodd" clip-rule="evenodd" d="M41.2224 41.1191C41.3187 41.511 41.2419 41.8582 41.0512 41.8944C40.8606 41.9306 40.6271 41.642 40.5308 41.249C40.4345 40.8571 40.5113 40.51 40.702 40.4738C40.8936 40.4376 41.1271 40.7262 41.2224 41.1191Z" fill="#AFAFAF"/>
<path fill-rule="evenodd" clip-rule="evenodd" d="M41.6592 41.1021L44.7836 39.7103C45.2574 39.4994 45.4286 40.2491 45.0589 40.4973L42.1057 42.4834L41.6592 41.1021Z" fill="#E3E3E3"/>
<path fill-rule="evenodd" clip-rule="evenodd" d="M42.2058 41.7391C42.3021 42.131 42.2253 42.4781 42.0346 42.5143C41.844 42.5505 41.6105 42.2609 41.5142 41.869C41.4179 41.4771 41.4947 41.1299 41.6854 41.0937C41.877 41.0586 42.1095 41.3472 42.2058 41.7391Z" fill="#AFAFAF"/>
<path fill-rule="evenodd" clip-rule="evenodd" d="M42.6426 41.7227L45.7671 40.3309C46.2408 40.12 46.412 40.8697 46.0423 41.1179L43.0891 43.104L42.6426 41.7227Z" fill="#E3E3E3"/>
<path fill-rule="evenodd" clip-rule="evenodd" d="M43.1892 42.3597C43.2855 42.7516 43.2087 43.0987 43.018 43.1349C42.8273 43.1711 42.5939 42.8815 42.4976 42.4896C42.4013 42.0977 42.4781 41.7505 42.6688 41.7143C42.8604 41.6792 43.0929 41.9678 43.1892 42.3597Z" fill="#AFAFAF"/>
<path fill-rule="evenodd" clip-rule="evenodd" d="M43.626 42.3438L46.7505 40.952C47.2242 40.7411 47.3954 41.4908 47.0258 41.739L44.0725 43.725L43.626 42.3438Z" fill="#E3E3E3"/>
<path fill-rule="evenodd" clip-rule="evenodd" d="M44.1726 42.9808C44.2689 43.3727 44.1921 43.7198 44.0014 43.756C43.8108 43.7922 43.5773 43.5026 43.481 43.1107C43.3847 42.7188 43.4615 42.3716 43.6522 42.3354C43.8438 42.3003 44.0763 42.5889 44.1726 42.9808Z" fill="#AFAFAF"/>
<path fill-rule="evenodd" clip-rule="evenodd" d="M44.6084 42.9644L47.7329 41.5726C48.2066 41.3617 48.3778 42.1114 48.0082 42.3596L45.0549 44.3457L44.6084 42.9644Z" fill="#E3E3E3"/>
<path fill-rule="evenodd" clip-rule="evenodd" d="M45.156 43.6015C45.2523 43.9934 45.1755 44.3406 44.9848 44.3768C44.7942 44.413 44.5607 44.1233 44.4644 43.7315C44.3681 43.3396 44.445 42.9924 44.6356 42.9562C44.8263 42.92 45.0597 43.2096 45.156 43.6015Z" fill="#AFAFAF"/>
<path fill-rule="evenodd" clip-rule="evenodd" d="M45.5918 43.5855L48.7162 42.1937C49.19 41.9828 49.3612 42.7325 48.9916 42.9807L46.0383 44.9667L45.5918 43.5855Z" fill="#E3E3E3"/>
<path fill-rule="evenodd" clip-rule="evenodd" d="M46.1394 44.2221C46.2357 44.614 46.1589 44.9612 45.9682 44.9974C45.7776 45.0336 45.5441 44.744 45.4478 44.3521C45.3515 43.9602 45.4283 43.613 45.619 43.5768C45.8097 43.5406 46.0431 43.8302 46.1394 44.2221Z" fill="#AFAFAF"/>
<path fill-rule="evenodd" clip-rule="evenodd" d="M46.5752 44.2052L49.6997 42.8133C50.1734 42.6025 50.3446 43.3522 49.975 43.6003L47.0217 45.5864L46.5752 44.2052Z" fill="#E3E3E3"/>
<path fill-rule="evenodd" clip-rule="evenodd" d="M47.1218 44.8432C47.2181 45.2351 47.1413 45.5823 46.9506 45.6185C46.76 45.6547 46.5265 45.365 46.4302 44.9732C46.3339 44.5813 46.4108 44.2341 46.6014 44.1979C46.7931 44.1617 47.0265 44.4513 47.1218 44.8432Z" fill="#AFAFAF"/>
<path fill-rule="evenodd" clip-rule="evenodd" d="M47.5586 44.8263L50.6831 43.4344C51.1578 43.2235 51.328 43.9733 50.9584 44.2214L48.0061 46.2075L47.5586 44.8263Z" fill="#E3E3E3"/>
<path fill-rule="evenodd" clip-rule="evenodd" d="M48.1052 45.4648C48.2015 45.8567 48.1247 46.2039 47.934 46.2401C47.7434 46.2763 47.5099 45.9877 47.4136 45.5947C47.3173 45.2028 47.3942 44.8557 47.5848 44.8195C47.7765 44.7833 48.0089 45.0729 48.1052 45.4648Z" fill="#AFAFAF"/>
<path fill-rule="evenodd" clip-rule="evenodd" d="M48.542 45.4472L51.6665 44.0553C52.1402 43.8434 52.3114 44.5942 51.9417 44.8423L48.9885 46.8284L48.542 45.4472Z" fill="#E3E3E3"/>
<path fill-rule="evenodd" clip-rule="evenodd" d="M49.0887 46.0838C49.185 46.4757 49.1081 46.8228 48.9174 46.8591C48.7268 46.8953 48.4933 46.6056 48.398 46.2137C48.3017 45.8218 48.3785 45.4747 48.5692 45.4384C48.7599 45.4033 48.9924 45.6919 49.0887 46.0838Z" fill="#AFAFAF"/>
<path fill-rule="evenodd" clip-rule="evenodd" d="M49.5259 46.0683L52.6504 44.6764C53.1241 44.4645 53.2953 45.2153 52.9257 45.4634L49.9724 47.4495L49.5259 46.0683Z" fill="#E3E3E3"/>
<path fill-rule="evenodd" clip-rule="evenodd" d="M50.0725 46.7049C50.1688 47.0968 50.092 47.4439 49.9013 47.4802C49.7107 47.5164 49.4772 47.2267 49.3809 46.8348C49.2846 46.4429 49.3614 46.0957 49.5521 46.0595C49.7437 46.0244 49.9762 46.313 50.0725 46.7049Z" fill="#AFAFAF"/>
<path fill-rule="evenodd" clip-rule="evenodd" d="M50.5093 46.6889L53.6338 45.297C54.1075 45.0851 54.2787 45.8359 53.909 46.084L50.9558 48.0701L50.5093 46.6889Z" fill="#E3E3E3"/>
<path fill-rule="evenodd" clip-rule="evenodd" d="M51.0559 47.3255C51.1522 47.7174 51.0754 48.0645 50.8847 48.1008C50.6941 48.137 50.4606 47.8473 50.3653 47.4554C50.269 47.0635 50.3458 46.7164 50.5365 46.6801C50.7271 46.645 50.9596 46.9336 51.0559 47.3255Z" fill="#AFAFAF"/>
<path fill-rule="evenodd" clip-rule="evenodd" d="M51.4927 47.31L54.6172 45.9181C55.0909 45.7062 55.2621 46.457 54.8924 46.7051L51.9392 48.6912L51.4927 47.31Z" fill="#E3E3E3"/>
<path fill-rule="evenodd" clip-rule="evenodd" d="M52.0393 47.9466C52.1356 48.3385 52.0588 48.6856 51.8681 48.7219C51.6775 48.7581 51.444 48.4684 51.3477 48.0765C51.2514 47.6846 51.3282 47.3374 51.5189 47.3012C51.7105 47.2661 51.943 47.5547 52.0393 47.9466Z" fill="#AFAFAF"/>
<path fill-rule="evenodd" clip-rule="evenodd" d="M52.4751 47.9303L55.5996 46.5384C56.0733 46.3275 56.2445 47.0773 55.8749 47.3254L52.9216 49.3115L52.4751 47.9303Z" fill="#E3E3E3"/>
<path fill-rule="evenodd" clip-rule="evenodd" d="M53.0227 48.5674C53.119 48.9592 53.0422 49.3064 52.8515 49.3426C52.6609 49.3788 52.4274 49.0892 52.3321 48.6973C52.2358 48.3054 52.3126 47.9582 52.5033 47.922C52.693 47.8858 52.9264 48.1755 53.0227 48.5674Z" fill="#AFAFAF"/>
<path fill-rule="evenodd" clip-rule="evenodd" d="M53.4585 48.5514L56.583 47.1595C57.0567 46.9486 57.2279 47.6984 56.8583 47.9465L53.905 49.9326L53.4585 48.5514Z" fill="#E3E3E3"/>
<path fill-rule="evenodd" clip-rule="evenodd" d="M54.0051 49.1884C54.1014 49.5803 54.0246 49.9275 53.8339 49.9637C53.6433 49.9999 53.4098 49.7103 53.3135 49.3184C53.2172 48.9265 53.2941 48.5793 53.4847 48.5431C53.6764 48.5069 53.9098 48.7966 54.0051 49.1884Z" fill="#AFAFAF"/>
<path fill-rule="evenodd" clip-rule="evenodd" d="M54.4419 49.172L57.5664 47.7801C58.0401 47.5692 58.2113 48.319 57.8417 48.5671L54.8884 50.5532L54.4419 49.172Z" fill="#E3E3E3"/>
<path fill-rule="evenodd" clip-rule="evenodd" d="M54.9885 49.8091C55.0848 50.2009 55.008 50.5481 54.8173 50.5843C54.6267 50.6205 54.3932 50.3309 54.2979 49.939C54.2016 49.5471 54.2784 49.1999 54.4691 49.1637C54.6598 49.1275 54.8932 49.4172 54.9885 49.8091Z" fill="#AFAFAF"/>
<path fill-rule="evenodd" clip-rule="evenodd" d="M55.4253 49.7924L58.5498 48.4005C59.0235 48.1886 59.1947 48.9394 58.825 49.1875L55.8718 51.1736L55.4253 49.7924Z" fill="#E3E3E3"/>
<path fill-rule="evenodd" clip-rule="evenodd" d="M55.9719 50.4301C56.0682 50.822 55.9914 51.1692 55.8007 51.2054C55.6101 51.2416 55.3766 50.952 55.2803 50.5601C55.184 50.1682 55.2609 49.821 55.4515 49.7848C55.6431 49.7486 55.8756 50.0383 55.9719 50.4301Z" fill="#AFAFAF"/>
<path fill-rule="evenodd" clip-rule="evenodd" d="M56.4087 50.4127L59.5332 49.0208C60.0079 48.81 60.1781 49.5597 59.8084 49.8078L56.8552 51.7939L56.4087 50.4127Z" fill="#E3E3E3"/>
<path fill-rule="evenodd" clip-rule="evenodd" d="M56.9553 51.0496C57.0516 51.4415 56.9748 51.7887 56.7841 51.8249C56.5935 51.8611 56.36 51.5714 56.2647 51.1795C56.1684 50.7876 56.2452 50.4405 56.4359 50.4043C56.6266 50.3691 56.859 50.6577 56.9553 51.0496Z" fill="#AFAFAF"/>
<path fill-rule="evenodd" clip-rule="evenodd" d="M50.9563 39.1303L44.0741 34.8429C43.5148 34.4936 42.4827 34.7417 42.4292 35.1698V35.238C42.4428 35.3455 42.5168 35.4627 42.6734 35.583C43.0245 35.3711 43.6714 35.3136 44.0741 35.5649L50.9563 39.8523C51.0011 39.881 51.0409 39.9077 51.0769 39.9354C51.3853 39.7511 51.467 39.4487 50.9563 39.1303ZM50.252 40.1153C50.2987 40.1175 50.3454 40.1185 50.3931 40.1164C50.3454 40.1185 50.2997 40.1185 50.252 40.1153ZM50.4437 40.1143C50.681 40.0994 50.9087 40.0355 51.074 39.9375C50.9096 40.0355 50.681 40.0983 50.4437 40.1143Z" fill="#804620"/>
<path fill-rule="evenodd" clip-rule="evenodd" d="M60.1663 44.9584L60.0748 44.902V45.624L60.1663 45.6804C60.2111 45.7092 60.2509 45.7358 60.2869 45.7635C60.5953 45.5792 60.677 45.2768 60.1663 44.9584ZM60.0943 45.8529L60.1488 45.8327H60.1478L60.0943 45.8529ZM60.1595 45.8274L60.1507 45.8316L60.1527 45.8306L60.1595 45.8274ZM60.0758 44.9009L60.0661 44.8945V45.6165L60.0758 45.6229V44.9009ZM60.0661 44.8945L60.0116 44.8615V45.5835L60.0661 45.6165V44.8945ZM60.0116 45.8796L60.0204 45.8774L60.0165 45.8785L60.0116 45.8796ZM60.0116 45.8796L60.0165 45.8785H60.0175L60.0116 45.8796ZM60.0116 44.8615L59.9922 44.8487V45.5707L60.0116 45.5835V44.8615ZM60.0116 45.8796L60.0068 45.8806H60.0058L59.9912 45.8849L60.0116 45.8796ZM59.9922 44.8498L53.2841 40.671C52.7248 40.3217 51.6927 40.5698 51.6392 40.9979V41.0661C51.6518 41.1736 51.7267 41.2908 51.8833 41.4111C52.2345 41.1992 52.8814 41.1417 53.2841 41.393L59.9922 45.5707V44.8498ZM59.9922 45.8849L59.9912 45.886L59.9571 45.8945L59.9922 45.8849Z" fill="#804620"/>
<path fill-rule="evenodd" clip-rule="evenodd" d="M87.6251 46.6303C86.3615 47.4056 84.9987 48.3683 82.951 48.3939C73.3763 41.1705 64.5525 34.6701 53.2725 29.4967C54.4252 28.812 55.5779 28.1272 56.7296 27.4414C67.0281 33.8374 77.3266 40.2333 87.6251 46.6303Z" fill="#D39F25"/>
<path fill-rule="evenodd" clip-rule="evenodd" d="M89.4995 38.5207L84.9013 47.1764L55.5116 28.4635C54.1264 27.9427 53.8929 25.5647 54.997 23.1186C56.1137 20.6469 58.172 19.0399 59.5952 19.5298C59.639 19.5447 59.6827 19.5617 59.7246 19.5809L59.7314 19.5681L59.8821 19.664C59.9103 19.681 59.9376 19.6981 59.9648 19.7162L89.4995 38.5207Z" fill="url(#paint0_linear_455_4873)"/>
<path fill-rule="evenodd" clip-rule="evenodd" d="M89.7738 43.7516C90.8895 41.2799 90.6415 38.8796 89.2184 38.3908C87.7952 37.902 85.7369 39.509 84.6211 41.9807C83.5054 44.4513 83.7544 46.8516 85.1766 47.3404C86.5997 47.8303 88.658 46.2233 89.7738 43.7516Z" fill="#F0CA30"/>
<path fill-rule="evenodd" clip-rule="evenodd" d="M89.5891 43.6886C90.625 41.3937 90.3945 39.1648 89.0735 38.7111C87.7525 38.2575 85.841 39.7494 84.8051 42.0444C83.7691 44.3382 84.0006 46.5671 85.3206 47.0208C86.6426 47.4744 88.554 45.9825 89.5891 43.6886Z" fill="#D39F25"/>
<path fill-rule="evenodd" clip-rule="evenodd" d="M89.3973 43.6225C90.3506 41.5129 90.1385 39.4629 88.9236 39.0455C87.7086 38.628 85.9509 40.0007 84.9985 42.1103C84.0462 44.22 84.2583 46.2689 85.4732 46.6874C86.6872 47.1038 88.445 45.7322 89.3973 43.6225Z" fill="#F0CA30"/>
<path fill-rule="evenodd" clip-rule="evenodd" d="M89.2368 43.5672C90.1201 41.6099 89.9236 39.7101 88.7971 39.3224C87.6707 38.9348 86.0413 40.2074 85.1571 42.1647C84.2738 44.121 84.4703 46.0208 85.5968 46.4085C86.7242 46.7961 88.3536 45.5235 89.2368 43.5672Z" fill="#D39F25"/>
<path fill-rule="evenodd" clip-rule="evenodd" d="M89.0765 43.5119C89.8907 41.709 89.7088 39.9583 88.6718 39.6015C87.6339 39.2448 86.133 40.4173 85.3188 42.2202C84.5056 44.022 84.6865 45.7728 85.7244 46.1295C86.7614 46.4873 88.2633 45.3138 89.0765 43.5119Z" fill="#F0CA30"/>
<path fill-rule="evenodd" clip-rule="evenodd" d="M88.8848 43.447C89.6163 41.8283 89.4528 40.2554 88.521 39.9349C87.5891 39.6143 86.2408 40.6676 85.5093 42.2863C84.7788 43.9049 84.9412 45.4768 85.8731 45.7973C86.806 46.1179 88.1542 45.0647 88.8848 43.447Z" fill="#D39F25"/>
<path fill-rule="evenodd" clip-rule="evenodd" d="M88.7301 43.3928C89.3935 41.9232 89.2456 40.4951 88.4003 40.2044C87.554 39.9137 86.3293 40.87 85.6659 42.3396C85.0025 43.8092 85.1504 45.2372 85.9967 45.528C86.842 45.8187 88.0667 44.8624 88.7301 43.3928Z" fill="#F0CA30"/>
<path fill-rule="evenodd" clip-rule="evenodd" d="M88.5783 43.3416C89.1765 42.0168 89.0432 40.7293 88.2806 40.4673C87.518 40.2054 86.4139 41.0669 85.8156 42.3917C85.2174 43.7164 85.3507 45.0029 86.1133 45.2648C86.8769 45.5268 87.981 44.6653 88.5783 43.3416Z" fill="#D39F25"/>
<path fill-rule="evenodd" clip-rule="evenodd" d="M70.5924 43.4726C69.3288 44.2479 67.966 45.2106 65.9183 45.2361C56.3436 38.0127 47.5188 31.5124 36.2397 26.339C37.3925 25.6543 38.5451 24.9695 39.6969 24.2837C49.9954 30.6796 60.2939 37.0756 70.5924 43.4726Z" fill="#D39F25"/>
<path fill-rule="evenodd" clip-rule="evenodd" d="M72.4667 35.3642L67.8685 44.0199L38.4788 25.307C37.0937 24.7862 36.8602 22.4082 37.9643 19.9621C39.081 17.4904 41.1393 15.8834 42.5624 16.3722C42.6062 16.3871 42.65 16.4042 42.6908 16.4233L42.6977 16.4106L42.8484 16.5064C42.8767 16.5235 42.9039 16.5405 42.9311 16.5586L72.4667 35.3642Z" fill="url(#paint1_linear_455_4873)"/>
<path fill-rule="evenodd" clip-rule="evenodd" d="M72.7414 40.5954C73.8571 38.1237 73.6091 35.7233 72.1869 35.2345C70.7638 34.7457 68.7054 36.3527 67.5897 38.8244C66.474 41.295 66.722 43.6954 68.1452 44.1853C69.5673 44.673 71.6256 43.066 72.7414 40.5954Z" fill="#F0CA30"/>
<path fill-rule="evenodd" clip-rule="evenodd" d="M72.5572 40.5314C73.5932 38.2365 73.3627 36.0086 72.0417 35.5539C70.7207 35.1002 68.8092 36.5922 67.7733 38.8871C66.7373 41.181 66.9688 43.4099 68.2898 43.8635C69.6098 44.3183 71.5213 42.8252 72.5572 40.5314Z" fill="#D39F25"/>
<path fill-rule="evenodd" clip-rule="evenodd" d="M72.3646 40.4653C73.3179 38.3557 73.1049 36.3057 71.8909 35.8882C70.6759 35.4708 68.9181 36.8435 67.9658 38.9531C67.0135 41.0627 67.2256 43.1117 68.4405 43.5291C69.6545 43.9476 71.4123 42.5749 72.3646 40.4653Z" fill="#F0CA30"/>
<path fill-rule="evenodd" clip-rule="evenodd" d="M72.2051 40.4101C73.0883 38.4538 72.8918 36.5529 71.7654 36.1663C70.6389 35.7798 69.0096 37.0524 68.1263 39.0086C67.2431 40.9649 67.4396 42.8647 68.566 43.2524C69.6915 43.6389 71.3218 42.3664 72.2051 40.4101Z" fill="#D39F25"/>
<path fill-rule="evenodd" clip-rule="evenodd" d="M72.0447 40.3557C72.8589 38.5528 72.677 36.802 71.64 36.4453C70.6021 36.0885 69.1012 37.261 68.287 39.0639C67.4728 40.8658 67.6547 42.6165 68.6926 42.9733C69.7295 43.33 71.2305 42.1575 72.0447 40.3557Z" fill="#F0CA30"/>
<path fill-rule="evenodd" clip-rule="evenodd" d="M71.853 40.2898C72.5845 38.6711 72.4211 37.0982 71.4892 36.7777C70.5573 36.4571 69.2091 37.5103 68.4776 39.129C67.747 40.7466 67.9095 42.3195 68.8414 42.6401C69.7733 42.9606 71.1215 41.9074 71.853 40.2898Z" fill="#D39F25"/>
<path fill-rule="evenodd" clip-rule="evenodd" d="M71.6974 40.2361C72.3608 38.7665 72.2129 37.3384 71.3676 37.0477C70.5213 36.7569 69.2966 37.7132 68.6332 39.1828C67.9698 40.6524 68.1176 42.0805 68.9639 42.3712C69.8093 42.6609 71.0339 41.7046 71.6974 40.2361Z" fill="#F0CA30"/>
<path fill-rule="evenodd" clip-rule="evenodd" d="M71.5465 40.1843C72.1448 38.8596 72.0115 37.5731 71.2489 37.3101C70.4862 37.0481 69.3821 37.9097 68.7839 39.2344C68.1857 40.5592 68.3189 41.8456 69.0816 42.1076C69.8452 42.3706 70.9483 41.508 71.5465 40.1843Z" fill="#D39F25"/>
<path fill-rule="evenodd" clip-rule="evenodd" d="M68.501 1.1958L84.8286 19.7916C88.597 24.0832 92.775 16.42 89.525 14.4211C88.4317 13.9824 87.0124 14.1134 85.3461 15.1655L68.5019 1.19793L68.501 1.1958Z" fill="#D39F25"/>
<path fill-rule="evenodd" clip-rule="evenodd" d="M10.1392 17.6353L11.5934 32.1992C11.5934 32.4399 11.7034 32.6465 11.893 32.7668L23.3316 39.9987C23.9026 40.3597 24.5563 40.3597 25.1263 39.9987L36.5697 32.7668C36.7614 32.6465 36.8694 32.4399 36.8694 32.1992L38.3236 17.6353H10.1392Z" fill="#6AB6B6"/>
<path fill-rule="evenodd" clip-rule="evenodd" d="M10.1392 17.6353L11.5934 32.1992C11.5934 32.4399 11.7024 32.6465 11.893 32.7668L22.8783 39.6952C23.0193 39.7847 23.1808 39.7847 23.3228 39.6952C23.4639 39.6058 23.5446 39.4524 23.5446 39.2746V17.6353H10.1392Z" fill="#399694"/>
<path fill-rule="evenodd" clip-rule="evenodd" d="M39.5014 18.7215L25.3392 27.6722C24.6329 28.1184 23.8236 28.1184 23.1174 27.6722L8.96096 18.7215C8.72556 18.5724 8.59033 18.3168 8.59033 18.0197C8.59033 17.7215 8.72556 17.4659 8.96096 17.3179L23.1203 8.36826C23.8265 7.92205 24.6358 7.92099 25.3421 8.36826L39.5014 17.3168C39.7368 17.4659 39.8711 17.7215 39.8711 18.0197C39.872 18.3168 39.7368 18.5724 39.5014 18.7215Z" fill="#92DEDE"/>
<path fill-rule="evenodd" clip-rule="evenodd" d="M39.5014 18.3372L25.3392 27.2879C24.6329 27.7341 23.8236 27.7341 23.1174 27.2879L8.96096 18.3372C8.72556 18.1881 8.59033 17.9325 8.59033 17.6354C8.59033 17.3372 8.72556 17.0827 8.96096 16.9336L23.1203 7.98398C23.8265 7.53777 24.6358 7.53671 25.3421 7.98398L39.5014 16.9326C39.7368 17.0817 39.8711 17.3372 39.8711 17.6354C39.872 17.9336 39.7368 18.1892 39.5014 18.3372Z" fill="#BBEFEF"/>
<path fill-rule="evenodd" clip-rule="evenodd" d="M37.99 18.2679L25.2294 26.3326C24.5932 26.7341 23.8637 26.7351 23.2275 26.3326L10.4728 18.2679C10.2607 18.1337 10.1392 17.9037 10.1392 17.6353C10.1392 17.367 10.2607 17.1369 10.4728 17.0027L23.2304 8.93911C23.8666 8.53657 24.5952 8.53657 25.2323 8.93911L37.99 17.0027C38.202 17.1369 38.3236 17.367 38.3236 17.6353C38.3236 17.9037 38.203 18.1337 37.99 18.2679Z" fill="#92DEDE"/>
<path fill-rule="evenodd" clip-rule="evenodd" d="M24.5288 26.6075V10.3812C24.5288 9.52285 25.1008 8.86153 25.7914 9.29176L37.9897 17.0029C38.2028 17.1371 38.3244 17.3682 38.3244 17.6355C38.3244 17.9038 38.2028 18.1339 37.9897 18.2691L25.2292 26.3327C25.0045 26.4754 24.7681 26.566 24.5288 26.6075Z" fill="#6AB6B6"/>
<path fill-rule="evenodd" clip-rule="evenodd" d="M15.4844 21.4373L23.2314 16.5408C23.8676 16.1393 24.5971 16.1382 25.2333 16.5408L32.9783 21.4362L25.2294 26.3328C24.5932 26.7353 23.8646 26.7353 23.2284 26.3328L15.4844 21.4373Z" fill="#E383BE"/>
<path d="M22.2907 36.5518C21.8082 36.5518 21.2945 36.3526 20.884 36.0928L6.72763 27.1421C6.42608 26.9515 6.25391 26.6235 6.25391 26.2433C6.25391 25.9089 6.43093 25.6927 6.58755 25.5021L6.67316 25.3945L10.3015 20.7089C10.3764 20.613 10.5077 20.6024 10.5943 20.6822C10.6818 20.7632 10.6926 20.9069 10.6186 21.0017L6.89687 25.8035C6.75096 25.9813 6.66927 26.0889 6.66927 26.2422C6.66927 26.4595 6.76362 26.6394 6.93579 26.7481L21.0922 35.6988C21.7605 36.1216 22.6243 36.3015 23.0523 35.7488L32.5026 23.549C32.5775 23.4532 32.7078 23.4415 32.7944 23.5224C32.882 23.6033 32.8926 23.7471 32.8187 23.8419L23.3685 36.0417C23.0834 36.4091 22.6973 36.5518 22.2907 36.5518Z" fill="#CACACA"/>
<defs>
<linearGradient id="paint0_linear_455_4873" x1="68.8663" y1="37.2147" x2="74.008" y2="29.0798" gradientUnits="userSpaceOnUse">
<stop stop-color="#848484"/>
<stop offset="1" stop-color="white"/>
</linearGradient>
<linearGradient id="paint1_linear_455_4873" x1="51.9026" y1="33.9272" x2="57.1869" y2="25.5668" gradientUnits="userSpaceOnUse">
<stop stop-color="#848484"/>
<stop offset="1" stop-color="white"/>
</linearGradient>
</defs>
</svg>
