<svg width="46" height="56" viewBox="0 0 46 56" fill="none" xmlns="http://www.w3.org/2000/svg">
<path opacity="0.3" d="M27.6084 50.5056L35.5205 55.5062H36.1289L43.2588 50.9997V50.7512L35.0632 45.5713L27.6084 50.2819V50.5056Z" fill="black"/>
<path d="M38.2074 25.7892L37.6829 25.6201L36.8628 25.7892V26.0902H38.2074V25.7892Z" fill="#211A1A"/>
<path d="M45.3287 30.2358L44.691 30.3473L44.6118 30.6891V30.9901L45.3287 30.5375V30.2358Z" fill="#211A1A"/>
<path d="M44.2924 29.6346L42.3486 28.0372L38.2075 25.7891V26.09L44.2924 29.9363V29.6346Z" fill="#362C29"/>
<path d="M38.716 25.1313H37.2516L36.5347 25.5839L36.8615 25.7909L36.8628 25.7901L38.2075 25.7894L44.2923 29.635V30.4861H44.2916L44.6118 30.6895L45.3288 30.2362V29.3107L38.716 25.1313Z" fill="#574943"/>
<path d="M31.8582 46.1412L31.4375 45.8723V44.1649L32.3401 44.1328L31.8582 46.1412Z" fill="#211A1A"/>
<path d="M31.8582 44.4297L31.4375 44.1651L32.3907 42.3527L34.1627 41.7646L31.8582 44.4297Z" fill="#362C29"/>
<path d="M35.1142 42.371L34.1629 41.7646L32.809 42.6217L31.8584 44.4297V46.1415L32.809 46.739L34.1629 45.8886L35.1142 44.0755V42.371Z" fill="#0A0808"/>
<path d="M34.4824 43.103V44.1466L33.896 45.2513L33.0759 45.7702L32.8369 45.6208L33.6617 45.1019L34.2441 43.9964V42.9521L34.4824 43.103Z" fill="#362C29"/>
<path d="M34.2439 42.952V43.9963L33.6614 45.1018L32.8366 45.6207L32.4932 45.4013V44.3621L33.0756 43.2552L33.8957 42.7319L34.2439 42.952Z" fill="#D8D1C7"/>
<path d="M33.1345 44.502L32.9834 44.4058V44.1318L33.2124 44.1777L33.1345 44.502Z" fill="#211A1A"/>
<path d="M33.1345 44.2266L32.9834 44.1319L33.1398 43.8374L33.5066 43.7974L33.1345 44.2266Z" fill="#362C29"/>
<path d="M33.662 43.8957L33.5069 43.7974L33.2892 43.9358L33.1348 44.2266V44.5021L33.2892 44.6012L33.5069 44.4642L33.662 44.1727V43.8957Z" fill="#0A0808"/>
<path d="M33.2888 43.9358L33.1396 43.8374L33.3567 43.7012L33.5064 43.7974L33.2888 43.9358Z" fill="#574943"/>
<path d="M32.8087 42.6215L32.3906 42.3526L33.7413 41.4985L34.1626 41.7645L32.8087 42.6215Z" fill="#574943"/>
<path d="M34.5595 43.1645L31.5767 45.4579L28.1272 47.2294L27.8383 47.2804L27.7305 46.9787L34.1628 42.9131L34.5595 43.1645Z" fill="#574943"/>
<path d="M34.5598 44.8079L28.1274 48.8728V47.2295L34.5598 43.1646V44.8079Z" fill="#0A0808"/>
<path d="M34.7086 34.0945L34.409 34.4013L34.3285 34.7452L34.252 34.9689L34.3285 35.0462L34.5675 34.8946L34.9469 34.246V33.9443L34.7086 34.0945Z" fill="#A39C95"/>
<path d="M33.6875 34.7451L33.8353 34.8996L34.3285 34.7451V35.0461L34.007 35.2494L33.6875 34.7451Z" fill="#A39C95"/>
<path d="M34.007 35.2494L33.6875 35.0454V34.7451L34.0869 34.7903L34.007 34.9484V35.2494Z" fill="#D8D1C7"/>
<path d="M34.007 34.9486L33.6875 34.7453L34.0064 34.5435H34.3026L34.3285 34.7453L34.007 34.9486Z" fill="#E6E1DD"/>
<path d="M34.3285 34.7455L34.0083 34.5421L34.3877 33.8921L34.7086 34.0947L34.3285 34.7455Z" fill="#E6E1DD"/>
<path d="M34.3887 27.9932L34.585 33.5498L34.7089 34.0949H34.8533L34.9472 33.9448V28.0449L34.3887 27.9932Z" fill="#A39C95"/>
<path d="M34.9472 28.0451L34.6263 27.8433L34.3887 27.9934L34.623 28.3505L34.7089 28.1952L34.9472 28.0451Z" fill="#E6E1DD"/>
<path d="M34.7089 28.195L34.3887 27.9932V33.8931L34.7089 34.0949V28.195Z" fill="#D8D1C7"/>
<path d="M35.5939 26.1865L36.6063 25.7959L36.8626 25.79V26.0903L35.5513 26.9196L35.5939 26.1865Z" fill="#A39C95"/>
<path d="M35.9153 26.389L35.5938 26.1864L36.5423 25.5874L36.8625 25.79L35.9153 26.389Z" fill="#E6E1DD"/>
<path d="M35.3832 26.6537L34.6836 27.7818L34.7089 28.195L34.7688 28.3028L34.8507 28.4603L36.0049 26.4868L35.3832 26.6537Z" fill="#A39C95"/>
<path d="M35.9157 26.3891L35.5942 26.1865L35.3579 26.3366L35.4551 26.537L35.6781 26.5392L35.9157 26.3891Z" fill="#E6E1DD"/>
<path d="M35.6781 26.5395L35.3579 26.3369L34.3887 27.9933L34.7089 28.1952L35.6781 26.5395Z" fill="#E6E1DD"/>
<path d="M31.8025 36.0075L31.6381 35.9033L31.5229 35.9769V44.5834L31.917 44.8333L32.2139 42.239L31.917 36.2254L31.8025 36.0075Z" fill="#428AA8"/>
<path d="M34.0531 34.8774L31.917 36.2249V44.8328L34.0531 43.4846V34.8774Z" fill="#2D5A78"/>
<path d="M34.0529 34.8778L31.9167 36.2252L31.8022 36.0074L33.9384 34.6592L34.0529 34.8778Z" fill="#377691"/>
<path d="M33.9387 34.6589L31.8026 36.0071L31.6382 35.9029L33.7743 34.5547L33.9387 34.6589Z" fill="#65C6E5"/>
<path d="M37.0391 40.0483H34.7393L35.126 52.5091H36.6524L37.0391 40.0483Z" fill="#377691"/>
<path d="M35.1259 40.2927L33.5463 38.4788L29.2974 36.6089V48.8248L35.1259 52.5093V40.2927Z" fill="#428AA8"/>
<path d="M41.1243 37.4663L38.3804 38.4144L36.6523 40.2924V52.509L41.1243 49.6822V37.4663Z" fill="#2D5A78"/>
<path d="M35.2957 32.8179H33.7693L29.2974 35.6439V36.6088L35.1259 40.2926H36.6523L41.1242 37.4665V36.5009L35.2957 32.8179Z" fill="#65C6E5"/>
<path opacity="0.3" d="M37.039 40.0486H34.7392L29.2974 36.6089V37.5657L35.1259 41.2502H36.6523L41.1242 38.4235V37.4666L37.039 40.0486Z" fill="black"/>
<path d="M29.3262 40.5348L29.8347 41.4982L30.5523 41.9508L31.0602 41.6301V40.7243L30.5517 39.7602L29.8341 39.3062L29.3262 39.6268V40.5348Z" fill="#685750"/>
<path d="M31.081 39.4282L31.5895 40.3916L31.0603 40.7239L30.5518 39.7598L31.081 39.4282Z" fill="#544540"/>
<path d="M31.5893 40.3916L31.5886 41.2982L31.0601 41.6297V40.7239L31.5893 40.3916Z" fill="#403531"/>
<path d="M30.3625 38.9746L31.0808 39.4286L30.5516 39.7602L29.834 39.3062L30.3625 38.9746Z" fill="#836E69"/>
<path d="M29.1782 40.7362L29.6116 41.5582L30.2233 41.9444L30.6567 41.6704V40.8972L30.2233 40.0752L29.6109 39.6875L29.1782 39.9615V40.7362Z" fill="#685750"/>
<path d="M29.3799 40.7569L29.6974 41.3588L30.1454 41.6416L30.4629 41.4419V40.8757L30.1454 40.2744L29.6974 39.9902L29.3799 40.1906V40.7569Z" fill="#0A0808"/>
<path d="M30.4989 39.906L30.2251 40.0791L30.6585 40.9008L30.9324 40.7277L30.4989 39.906Z" fill="#544540"/>
<path d="M30.9308 40.7246V41.4978L30.6572 41.6705V40.898L30.9308 40.7246Z" fill="#403531"/>
<path d="M29.8854 39.5146L30.4978 39.9023L30.2242 40.0758L29.6118 39.6874L29.8854 39.5146Z" fill="#836E69"/>
<path d="M30.0298 37.3306V39.3025L30.5384 39.6261L30.6429 38.2539L30.5384 37.6541L30.0298 37.3306Z" fill="#685750"/>
<path d="M30.9666 39.357L30.5386 39.6266V37.6547L30.9666 37.3857V39.357Z" fill="#403531"/>
<path d="M34.8245 46.8277L31.873 44.9628L31.439 44.3667L34.3905 46.2323L34.8245 46.8277Z" fill="#17435C"/>
<path d="M34.8243 46.8278L34.3903 46.2325L33.9316 44.0929L34.3903 40.001H34.8243V46.8278Z" fill="#2D5A78"/>
<path d="M34.3905 46.2323L31.439 44.3667V38.1353L34.3905 40.0008V46.2323Z" fill="#377691"/>
<path opacity="0.3" d="M34.8245 39.7261L34.3905 40.0008L31.439 38.1353V38.6038L34.3905 40.4694L34.8245 41.059V39.7261Z" fill="black"/>
<path d="M37.1571 34.9302H34.7095L35.1202 40.7652H36.7464L37.1571 34.9302Z" fill="#377691"/>
<path d="M35.12 35.1904L33.4392 33.26L28.916 31.269V36.8439L35.12 40.7653V35.1904Z" fill="#428AA8"/>
<path d="M41.5049 32.1821L38.5847 33.1914L36.7461 35.1904V40.7653L41.5049 37.7563V32.1821Z" fill="#2D5A78"/>
<path d="M35.3017 27.2339H33.6762L28.916 30.2414V31.2689L35.12 35.1903H36.7462L41.505 32.182V31.1545L35.3017 27.2339Z" fill="#65C6E5"/>
<path d="M37.2343 33.6626H34.6895L35.1168 36.8049H36.8063L37.2343 33.6626Z" fill="#544540"/>
<path d="M35.1166 33.9325L33.3686 31.9256L28.667 29.856V32.7287L35.1166 36.8052V33.9325Z" fill="#685750"/>
<path d="M41.7547 30.8047L38.7186 31.8541L36.8062 33.9324V36.8052L41.7547 33.6774V30.8047Z" fill="#403531"/>
<path d="M35.305 25.6597H33.6155L28.667 28.7874V29.8558L35.1166 33.9323H36.8061L41.7546 30.8046V29.737L35.305 25.6597Z" fill="#836E69"/>
<path d="M36.963 32.3359H34.7583L35.1291 33.2673H36.5929L36.963 32.3359Z" fill="#403531"/>
<path d="M35.1293 32.5705L33.6155 30.8318L29.541 29.0391V29.735L35.1293 33.2672V32.5705Z" fill="#544540"/>
<path d="M40.8801 28.3242L38.2494 29.2337L36.5933 32.5706V33.2673L40.8801 30.5571V28.3242Z" fill="#362C29"/>
<path d="M32.3501 24.8022L29.541 28.1144V29.0392L35.1293 32.5706H36.5931L39.4015 29.2585L32.3501 24.8022Z" fill="#685750"/>
<path d="M39.4015 29.2582L40.8799 28.3239V27.3984L35.2923 23.8662H33.8285L32.3501 24.8019L39.4015 29.2582Z" fill="#836E69"/>
<path d="M35.1784 31.7397L30.8789 29.0222L32.9105 26.6094L37.21 29.3269L35.1784 31.7397Z" fill="#362C29"/>
<path d="M35.1684 31.6654L31.1338 29.1155L33.0396 26.8521L37.0735 29.4012L35.1684 31.6654Z" fill="#428AA8"/>
<path d="M33.8977 29.7706L33.688 29.6387L33.9523 29.0054L34.4169 28.7744L34.6259 28.9056L33.8977 29.7706Z" fill="#362C29"/>
<path d="M33.688 29.6388L33.4111 29.4639L34.1394 28.5996L34.417 28.7745L33.688 29.6388Z" fill="#836E69"/>
<path d="M30.6321 36.1684L29.6343 35.5387L29.8173 35.4229L30.8152 36.0525L30.6321 36.1684Z" fill="#65C6E5"/>
<path d="M30.8154 38.0439L30.6323 38.1598V36.1681L30.8154 36.0522V38.0439Z" fill="#2D5A78"/>
<path d="M30.6321 38.1603L29.6343 37.53V35.5391L30.6321 36.1687V38.1603Z" fill="#377691"/>
<path d="M28.2901 48.9519L27.7756 50.061L27.6884 50.0056L27.6338 49.2558L28.2029 48.8965L28.2901 48.9519Z" fill="#D8D1C7"/>
<path d="M28.2351 49.7705L27.7758 50.0613L27.7212 49.3107L28.2903 48.9521L28.2351 49.7705Z" fill="#A39C95"/>
<path d="M27.8374 50.346L27.6084 50.201V49.7842L27.9552 49.8556L27.8374 50.346Z" fill="#211A1A"/>
<path d="M27.8374 49.9271L27.6084 49.7843L27.842 49.3405L28.4005 49.2764L27.8374 49.9271Z" fill="#362C29"/>
<path d="M28.6329 49.4243L28.4005 49.2764L28.0691 49.4855L27.8374 49.9271V50.3462L28.0691 50.4926L28.4005 50.2842L28.6329 49.8411V49.4243Z" fill="#0A0808"/>
<path d="M28.4782 49.6036V49.8579L28.3351 50.129L28.1341 50.2551L28.0762 50.2194L28.2779 50.0926L28.4203 49.8222V49.5664L28.4782 49.6036Z" fill="#362C29"/>
<path d="M28.4204 49.5664V49.8222L28.2779 50.0925L28.0762 50.2193L27.9917 50.1654V49.9118L28.1342 49.6407L28.3352 49.5132L28.4204 49.5664Z" fill="#D8D1C7"/>
<path d="M28.1491 49.9456L28.1118 49.9215V49.8545L28.1684 49.8654L28.1491 49.9456Z" fill="#211A1A"/>
<path d="M28.1491 49.8779L28.1118 49.8546L28.1511 49.7824L28.2403 49.7729L28.1491 49.8779Z" fill="#362C29"/>
<path d="M28.2781 49.7963L28.2401 49.7729L28.1869 49.8065L28.1489 49.8779V49.9457L28.1869 49.969L28.2401 49.9362L28.2781 49.8648V49.7963Z" fill="#0A0808"/>
<path d="M28.1868 49.8066L28.1509 49.7825L28.2035 49.749L28.2401 49.7731L28.1868 49.8066Z" fill="#574943"/>
<path d="M28.0693 49.4855L27.8423 49.3405L28.1725 49.1313L28.4008 49.2764L28.0693 49.4855Z" fill="#574943"/>
<path d="M28.6065 49.1513L28.0933 50.2612L28.0061 50.2058L27.9521 49.4559L28.5193 49.0967L28.6065 49.1513Z" fill="#D8D1C7"/>
<path d="M28.0385 49.5107L27.6338 49.1464L28.2029 48.7871L28.6063 49.0414L28.0385 49.5107Z" fill="#E6E1DD"/>
<path d="M28.0385 49.5109L27.6338 49.2558V49.1465L28.0385 49.4008V49.5109Z" fill="#D8D1C7"/>
<path d="M28.5518 49.9714L28.0932 50.2614L28.0386 49.5108V49.4008L28.6064 49.0415V49.1515L28.5518 49.9714Z" fill="#A39C95"/>
<path d="M28.3868 49.8715V49.9385L28.3488 50.0092L28.2956 50.0442L28.2583 50.0201V50.0085L28.3022 49.9808L28.3402 49.9101V49.8532L28.3488 49.8481L28.3868 49.8715Z" fill="#D8D1C7"/>
<path d="M28.3402 49.853V49.9099L28.3022 49.9806L28.2583 50.0083V49.9521L28.2956 49.8807L28.3402 49.853Z" fill="#574943"/>
<path d="M28.3924 48.6191V49.0914L28.2832 49.1591L28.2446 48.6629L28.3924 48.6191Z" fill="#A39C95"/>
<path d="M28.2833 48.6884V49.1591L28.1282 49.1599L28.019 48.6191L28.2833 48.6884Z" fill="#B5AFA7"/>
<path d="M28.1282 48.6884V49.1599L28.019 49.0914V48.6191L28.1282 48.6884Z" fill="#D8D1C7"/>
<path d="M28.019 48.5211V48.6188L28.1282 48.688L28.2833 48.6887L28.3925 48.6188V48.5211L28.2833 48.4526L28.1282 48.4534L28.019 48.5211Z" fill="#E6E1DD"/>
<path d="M36.058 53.8623L35.5441 54.9707L35.4563 54.9153L35.4023 54.1661L35.9708 53.8062L36.058 53.8623Z" fill="#D8D1C7"/>
<path d="M36.003 54.6807L35.5443 54.9707L35.4897 54.2208L36.0582 53.8623L36.003 54.6807Z" fill="#A39C95"/>
<path d="M35.6053 55.2569L35.377 55.1112V54.6943L35.7238 54.7658L35.6053 55.2569Z" fill="#211A1A"/>
<path d="M35.6053 54.8375L35.377 54.694L35.6106 54.2509L36.1684 54.186L35.6053 54.8375Z" fill="#362C29"/>
<path d="M36.4016 54.334L36.1686 54.186L35.8371 54.3952L35.6055 54.8375V55.2566L35.8371 55.4023L36.1686 55.1946L36.4016 54.7508V54.334Z" fill="#0A0808"/>
<path d="M36.247 54.5137V54.7695L36.1038 55.0392L35.9028 55.166L35.8442 55.1295L36.0466 55.0027L36.1884 54.7323V54.4766L36.247 54.5137Z" fill="#362C29"/>
<path d="M36.1883 54.476V54.7318L36.0465 55.0022L35.8441 55.129L35.7603 55.0751V54.8215L35.9027 54.5504L36.1037 54.4229L36.1883 54.476Z" fill="#D8D1C7"/>
<path d="M35.9176 54.8562L35.8804 54.8329V54.7651L35.937 54.7768L35.9176 54.8562Z" fill="#211A1A"/>
<path d="M35.9176 54.7888L35.8804 54.7655L35.9183 54.6933L36.0088 54.6846L35.9176 54.7888Z" fill="#362C29"/>
<path d="M36.0466 54.7079L36.0087 54.6846L35.9548 54.7174L35.9175 54.7888V54.8566L35.9548 54.8806L36.0087 54.8471L36.0466 54.7757V54.7079Z" fill="#0A0808"/>
<path d="M35.9551 54.717L35.9185 54.6929L35.9724 54.6602L36.009 54.6842L35.9551 54.717Z" fill="#574943"/>
<path d="M35.8372 54.3952L35.6108 54.2509L35.941 54.0425L36.1687 54.186L35.8372 54.3952Z" fill="#574943"/>
<path d="M36.3747 54.0608L35.8615 55.1706L35.7736 55.1145L35.7197 54.3654L36.2869 54.0068L36.3747 54.0608Z" fill="#D8D1C7"/>
<path d="M35.8071 54.4211L35.4023 54.0561L35.9708 53.6968L36.3749 53.9526L35.8071 54.4211Z" fill="#E6E1DD"/>
<path d="M35.8071 54.4213L35.4023 54.1662V54.0562L35.8071 54.3112V54.4213Z" fill="#D8D1C7"/>
<path d="M36.3197 54.8811L35.8617 55.1711L35.8071 54.4212V54.3112L36.3749 53.9526V54.0612L36.3197 54.8811Z" fill="#A39C95"/>
<path d="M36.155 54.7811V54.8482L36.1164 54.9196L36.0632 54.9546L36.0259 54.9298V54.9196L36.0705 54.8912L36.1084 54.8198V54.7629L36.1164 54.7578L36.155 54.7811Z" fill="#D8D1C7"/>
<path d="M36.1084 54.7627V54.8195L36.0705 54.891L36.0259 54.9194V54.8633L36.0632 54.7904L36.1084 54.7627Z" fill="#574943"/>
<path d="M36.161 53.5293V54.0008L36.0518 54.0693L36.0132 53.573L36.161 53.5293Z" fill="#A39C95"/>
<path d="M36.0519 53.5985V54.0693L35.8968 54.07L35.7876 53.5293L36.0519 53.5985Z" fill="#B5AFA7"/>
<path d="M35.8968 53.5985V54.07L35.7876 54.0008V53.5293L35.8968 53.5985Z" fill="#D8D1C7"/>
<path d="M35.7876 53.4315V53.5292L35.8968 53.5984H36.0519L36.161 53.5292V53.4315L36.0519 53.3623L35.8968 53.363L35.7876 53.4315Z" fill="#E6E1DD"/>
<path d="M42.3116 49.7073L35.4826 54.0236L35.2676 52.2448L42.3116 48.064V49.7073Z" fill="#0A0808"/>
<path d="M35.4827 54.0236L27.333 48.8728V47.2295L31.6771 49.783L35.4827 52.3802V54.0236Z" fill="#362C29"/>
<path d="M41.9144 47.8134L35.4827 51.8791L27.7304 46.979L27.333 47.2297L35.4827 52.3804L42.3118 48.0641L41.9144 47.8134Z" fill="#574943"/>
<path d="M42.4585 38.9941L42.1583 39.3016L42.077 39.6456L42.0005 39.8686L42.077 39.9466L42.3167 39.795L42.6954 39.1457V38.8447L42.4585 38.9941Z" fill="#A39C95"/>
<path d="M41.4365 39.6455L41.5836 39.8L42.0769 39.6455V39.9465L41.756 40.1498L41.4365 39.6455Z" fill="#A39C95"/>
<path d="M41.756 40.1498L41.4365 39.9457V39.6455L41.8366 39.69L41.756 39.8488V40.1498Z" fill="#D8D1C7"/>
<path d="M41.756 39.8488L41.4365 39.6455L41.756 39.4429H42.0509L42.0769 39.6455L41.756 39.8488Z" fill="#E6E1DD"/>
<path d="M42.0767 39.6454L41.7578 39.4413L42.1359 38.792L42.4581 38.9939L42.0767 39.6454Z" fill="#E6E1DD"/>
<path d="M42.1372 32.8921L42.3329 38.4495L42.4581 38.9938H42.6018L42.695 38.8445V32.9438L42.1372 32.8921Z" fill="#A39C95"/>
<path d="M42.695 32.944L42.3749 32.7422L42.1372 32.8923L42.3715 33.2494L42.4581 33.0949L42.695 32.944Z" fill="#E6E1DD"/>
<path d="M42.4582 33.0947L42.1374 32.8921L42.1367 38.7927L42.4582 38.9938V33.0947Z" fill="#D8D1C7"/>
<path d="M43.3431 31.0859L44.3549 30.6953L44.6118 30.6895V30.9897L43.2998 31.819L43.3431 31.0859Z" fill="#A39C95"/>
<path d="M43.6648 31.2887L43.3433 31.0861L44.2925 30.4863L44.612 30.6896L43.6648 31.2887Z" fill="#E6E1DD"/>
<path d="M43.1316 31.5524L42.4326 32.6812L42.4586 33.0944L42.5178 33.2023L42.5997 33.3597L43.754 31.3862L43.1316 31.5524Z" fill="#A39C95"/>
<path d="M43.6649 31.2885L43.3434 31.0859L43.1064 31.2361L43.2043 31.4365L43.4273 31.4386L43.6649 31.2885Z" fill="#E6E1DD"/>
<path d="M43.4271 31.4384L43.1062 31.2358L42.1377 32.8915L42.4585 33.0941L43.4271 31.4384Z" fill="#E6E1DD"/>
<path d="M39.5567 40.9096L39.393 40.8062L39.2778 40.879V49.4862L39.6719 49.7354L39.9688 47.1411L39.6719 41.1283L39.5567 40.9096Z" fill="#428AA8"/>
<path d="M41.808 39.7798L39.6719 41.128V49.7351L41.808 48.387V39.7798Z" fill="#2D5A78"/>
<path d="M41.6953 39.5602L39.5591 40.9082L39.6741 41.1267L41.8103 39.7787L41.6953 39.5602Z" fill="#377691"/>
<path d="M41.6929 39.5617L39.5568 40.9092L39.3931 40.8057L41.5292 39.4575L41.6929 39.5617Z" fill="#65C6E5"/>
<path d="M40.428 51.5582L40.0073 51.29V49.5833L40.9106 49.5513L40.428 51.5582Z" fill="#211A1A"/>
<path d="M40.428 49.8474L40.0073 49.5836L40.9606 47.7705L42.7326 47.1831L40.428 49.8474Z" fill="#362C29"/>
<path d="M43.6847 47.7894L42.7328 47.1831L41.3795 48.0394L40.4282 49.8474V51.5585L41.3795 52.1575L42.7328 51.3063L43.6847 49.4932V47.7894Z" fill="#0A0808"/>
<path d="M43.0523 48.521V49.5645L42.4658 50.67L41.6457 51.1889L41.4067 51.0395L42.2322 50.5206L42.8146 49.4151V48.3701L43.0523 48.521Z" fill="#362C29"/>
<path d="M42.8147 48.3697V49.4148L42.2322 50.5203L41.4068 51.0391L41.064 50.8198V49.7806L41.6458 48.6729L42.4659 48.1504L42.8147 48.3697Z" fill="#D8D1C7"/>
<path d="M41.7048 49.9195L41.5537 49.8241V49.5493L41.7827 49.596L41.7048 49.9195Z" fill="#211A1A"/>
<path d="M41.7048 49.6438L41.5537 49.5491L41.7101 49.2547L42.0769 49.2153L41.7048 49.6438Z" fill="#362C29"/>
<path d="M42.2318 49.313L42.0767 49.2153L41.8584 49.3538L41.7046 49.6438V49.9193L41.8584 50.0184L42.0767 49.8821L42.2318 49.5899V49.313Z" fill="#0A0808"/>
<path d="M41.8584 49.3543L41.71 49.2552L41.927 49.1196L42.0767 49.2158L41.8584 49.3543Z" fill="#574943"/>
<path d="M41.3792 48.039L40.9604 47.7701L42.3117 46.916L42.7324 47.1827L41.3792 48.039Z" fill="#574943"/>
<path d="M7.06082 51.7048L8.3309 50.5169L3.08014 47.1982L1.81006 48.0013L7.06082 51.7048Z" fill="#574943"/>
<path d="M5.10031 51.6453L7.0607 51.3188L8.33078 50.5172V51.8158L5.25076 53.763L0 49.7607L5.10031 51.6453Z" fill="#362C29"/>
<path d="M0 50.4436L5.25076 53.763V53.0787L2.50489 50.4509L0 49.7607V50.4436Z" fill="#0A0808"/>
<path d="M5.25076 53.0786L7.0607 51.3187L1.80994 48.0015L0 49.7606L5.25076 53.0786Z" fill="#211A1A"/>
<path d="M4.4492 47.6299L5.65405 47.6962L5.56751 49.1821L5.19074 49.5436L4.6915 49.5078L4.36133 49.0954L4.4492 47.6299Z" fill="#362C29"/>
<path d="M4.82731 47.1084L5.32656 47.1354L5.66871 47.3795L5.65407 47.6965L5.29062 47.902L4.79204 47.8736L4.44922 47.6302L4.46453 47.3124L4.82731 47.1084Z" fill="#836E69"/>
<path d="M5.71585 29.6992L6.51931 29.7568L5.46024 47.5811L5.21661 47.7188L4.88377 47.6999L4.65479 47.5374L5.71585 29.6992Z" fill="#D8D1C7"/>
<path d="M27.1438 42.3398L30.1013 41.2212L29.8384 40.3882L27.2237 41.3771L25.0616 40.0384L24.2808 36.2825L25.2393 31.8393L25.0822 26.4335L21.9303 21.508L15.3296 20.2305L10.9855 22.0414L8.83203 24.2225L9.37854 24.8689L11.4181 22.8037L15.3782 21.1538L21.4417 22.2819L24.2615 26.6857L24.4365 31.7548L23.464 36.2643L24.324 40.5944L27.1438 42.3398Z" fill="#0A0808"/>
<path d="M5.66526 27.0968L8.78323 23.9741L9.17331 24.1104L9.51013 24.5163L9.59601 24.9543L6.84016 27.7118L6.70436 30.0759L6.33958 30.2785L5.84166 30.2486L5.49951 30.0037L5.66526 27.0968Z" fill="#362C29"/>
<path opacity="0.3" d="M11.7717 46.6504L9.81934 48.2915V50.6118L11.7717 52.253H23.1939L25.1462 50.6118V48.2915L23.1939 46.6504H11.7717Z" fill="black"/>
<path d="M12.006 12.8675L11.2132 15.1507L10.4084 16.2525L8.5459 20.7569L8.98657 21.8026L9.95644 21.6649L12.6604 18.2223L13.2109 16.6526L14.7106 14.3796L13.334 12.3989L12.006 12.8675Z" fill="#F0C6B4"/>
<path d="M13.9436 48.6156L12.9531 49.6905L11.0879 50.2386V50.5271L11.6664 51.4964L13.0629 51.2071L14.8369 49.665L15.3774 49.1411L16.2328 48.7417L16.7993 48.2323L17.1388 47.4868V47.1982L15.5405 47.833L13.9436 48.6156Z" fill="white"/>
<path d="M20.0786 50.2479L19.1387 50.2428V50.5322L19.2272 51.3039L20.0699 51.8818L21.2908 51.7032L22.2972 50.9162L22.8757 48.5354V48.2461L20.0786 50.2479Z" fill="white"/>
<path d="M11.9111 12.7758L13.4462 14.2668L15.4531 14.2216L17.2438 9.50297L16.9269 7.16153L14.884 6.27246L13.0527 7.99885L11.9111 12.7758Z" fill="#F4EFE9"/>
<path d="M22.3671 21.3076L22.2792 18.4458L21.3786 18.7453L21.2148 21.5685L22.2792 21.8993L22.3671 21.3076Z" fill="#2D5A78"/>
<path d="M20.0174 6.42231L20.4727 7.45202L20.6238 8.75574L19.3151 10.3903L17.4826 11.2714L15.9169 10.9777L15.8091 9.14125L16.8495 6.7211L19.3824 5.92822L20.0174 6.42231Z" fill="#C7A495"/>
<path d="M15.9604 7.96445L16.4636 10.6848L18.5771 10.3176L20.2712 8.97668L20.4723 7.45215L21.3642 8.40024L21.554 8.89797L22.1324 9.04955L23.7686 10.5923L22.5351 17.589L21.9321 19.609L21.9487 21.5919L22.1324 22.9321L19.3653 23.5384L15.7168 21.1693L12.9995 12.5482L13.4522 10.2899L14.5598 8.40024L15.2248 7.86535L15.9604 7.96445Z" fill="white"/>
<path d="M16.0946 7.0752L14.3572 8.9947L13.2109 12.8089L13.7814 13.2127L14.9769 9.38021L16.6484 7.5343L16.0946 7.0752Z" fill="#428AA8"/>
<path d="M13.9556 46.7038L12.9664 47.778L11.3302 49.2129L11.0879 50.2389L11.6664 51.2074L13.0629 50.9181L14.8369 49.3754L15.3774 48.8529L16.2328 48.4535L16.7993 47.9434L17.1388 47.1986L16.8778 45.9204H15.5538L13.9556 46.7038Z" fill="#D9AF6F"/>
<path d="M13.6539 23.8662L12.9909 27.3394L12.2866 36.3926L12.9703 39.1836L13.8303 46.7392L15.7421 46.8274L17.2518 45.6214L16.6813 38.7092L16.212 37.1053L18.1618 27.7562L15.7088 23.8662H13.6539Z" fill="#377691"/>
<path d="M20.3089 46.9098L19.9947 48.2464L19.1387 50.2431L19.2272 51.0141L20.0699 51.5927L21.2908 51.4135L22.2972 50.6272L22.8757 48.2464L22.7998 46.7036L20.3089 46.9098Z" fill="#D9AF6F"/>
<path d="M18.9635 15.5232L15.1892 14.0905L12.7988 12.1353L13.6289 18.4702L13.6542 23.8665L15.2644 26.6095L17.7048 28.5997L18.8877 36.347L19.6924 39.157L19.9567 47.128L21.2401 47.6214L23.0141 46.9793L23.3909 37.752L22.8503 35.5388L23.5253 25.5033L23.0015 22.8915L22.3671 21.3079L20.8121 22.4368L19.341 22.6568L19.4668 20.123L18.9635 15.5232Z" fill="#428AA8"/>
<path d="M14.3569 4.41682L14.4089 6.02005L14.6858 6.40482L14.761 7.4666L15.5405 9.6142L16.6229 10.1243L18.2457 9.07712L19.1138 7.9483L19.2522 7.19041L19.8021 6.64458L20.1329 5.64766L19.7302 4.41682L16.4591 3.31787L14.4588 3.70556L14.3569 4.41682Z" fill="#F0C6B4"/>
<path d="M14.241 4.15672L14.9539 5.76286L16.5642 6.44205L17.9394 6.25841L18.4434 6.33201L18.6943 6.88294L18.8288 6.3874L19.0132 5.72643L19.7008 5.47793L19.9864 5.7993L19.802 6.64464L20.0862 6.35023L20.6234 5.15728L20.1035 2.80636L19.147 1.44725L17.99 0.768066H16.7319L15.9604 0.841669L14.8195 1.7045L14.2497 2.76919L13.998 3.93591L14.241 4.15672Z" fill="#736656"/>
<path opacity="0.2" d="M15.9168 1.48613L14.5781 3.31819L15.6425 1.39941L15.9168 1.48613Z" fill="#0A0808"/>
<path d="M22.3672 18.2375L23.4223 20.38L22.8951 26.7704L23.5088 27.5603L24.7769 27.2885L26.1588 22.9875V19.9945L25.6243 17.6611L23.3411 17.3135L22.3672 18.2375Z" fill="#F0C6B4"/>
<path d="M22.1707 18.1946L24.1837 18.6304L25.8951 17.479L25.2607 12.415L23.9061 10.5684L21.732 10.9342L20.9492 13.4396L22.1707 18.1946Z" fill="#F4EFE9"/>
<path d="M22.6492 26.6099V28.1658L21.4158 29.1576L20.812 30.2872L20.9758 30.6996L21.7306 30.0802V31.1522L21.0137 32.6417L21.2653 32.9449L22.7371 32.477L23.9826 30.9073L24.3094 28.8129L24.8879 27.3809L23.8568 26.5269L22.6492 26.6099Z" fill="#E3BD5E"/>
<path d="M18.3718 15.6375L19.592 11.7774L22.1328 9.0497L21.3647 8.40039L18.8504 11.3409L17.6343 15.381L18.3718 15.6375Z" fill="#428AA8"/>
<path d="M7.23156 25.5278L7.47719 26.2792H8.30727L8.67205 25.4528L8.25668 25.2604L8.03035 25.412L8.706 24.4748L8.92368 23.2352L10.1312 22.0102L9.43956 20.646H8.11889L7.41395 22.9189L5.9668 25.315V26.7951L7.23156 25.5278Z" fill="#E3BD5E"/>
<path d="M8.04235 26.4521L6.84017 27.2421L6.71436 27.7005L7.15103 27.8768L7.71219 27.39L8.13754 26.5403L8.04235 26.4521Z" fill="#E3BD5E"/>
</svg>
