<svg width="39" height="56" viewBox="0 0 39 56" fill="none" xmlns="http://www.w3.org/2000/svg">
<path opacity="0.4" d="M19.8474 52.8086C28.0577 52.8086 34.7134 48.9451 34.7134 44.1792C34.7134 39.4133 28.0577 35.5498 19.8474 35.5498C11.6372 35.5498 4.98145 39.4133 4.98145 44.1792C4.98145 48.9451 11.6372 52.8086 19.8474 52.8086Z" fill="#D2D2E1"/>
<path fill-rule="evenodd" clip-rule="evenodd" d="M27.7509 2.65748L26.9584 3.14912L24.75 1.75794L25.5555 1.27881L27.7509 2.65748Z" fill="#E0C669"/>
<path fill-rule="evenodd" clip-rule="evenodd" d="M24.7681 1.75098L26.9768 3.14216V41.5817L24.7681 40.1906V1.75098Z" fill="#935E2F"/>
<path fill-rule="evenodd" clip-rule="evenodd" d="M27.751 2.65723L26.9771 3.14197V41.5816L27.751 41.0968V2.65723Z" fill="#B7882F"/>
<path fill-rule="evenodd" clip-rule="evenodd" d="M26.8366 40.157C27.6544 40.0755 27.5148 39.295 28.1819 39.5454C28.5297 39.6762 28.5592 40.9495 28.6006 41.2892C28.6594 41.7714 28.7844 41.9108 28.909 42.1676C29.0241 42.4037 29.0166 42.6735 28.9429 42.9955C28.771 43.7444 28.3282 44.6621 27.8022 44.3259C27.5995 44.1964 27.6118 42.9886 27.5558 42.595C27.2557 38.8526 26.4439 43.1824 26.8366 40.157Z" fill="#979796"/>
<path fill-rule="evenodd" clip-rule="evenodd" d="M19.4115 43.5933C19.4115 43.5933 19.1126 44.9089 19.6966 44.6236C19.945 44.5023 19.9225 45.1105 19.8906 45.3112C19.8472 45.5819 19.5018 45.7981 19.1513 45.9764C18.74 46.1369 18.2653 46.6497 18.1159 46.768C17.7062 47.0926 16.8057 47.0689 16.3842 46.9048C16.1386 46.8094 15.9805 46.642 16.0258 46.4309C16.0554 46.3579 16.0361 46.3295 16.1331 46.2496C16.2316 46.1685 16.881 45.6229 17.1535 45.4606C17.8494 45.0462 18.1301 44.2239 18.19 44.0357C18.2515 43.8479 18.4514 43.2751 18.4514 43.2751C18.4514 43.2751 18.7665 43.1577 19.4115 43.5933Z" fill="#979796"/>
<path fill-rule="evenodd" clip-rule="evenodd" d="M19.5515 43.4241C19.4865 44.0388 19.9671 43.9279 19.8445 45.0091C19.7991 45.4088 19.1064 45.6363 18.8339 45.8042C18.4468 46.0433 18.375 46.222 18.2039 46.4443C18.0462 46.6489 17.8147 46.7417 17.5143 46.7862C16.8156 46.8902 15.9916 46.7793 16.0815 46.1197C16.1162 45.8655 17.0254 45.4308 17.3384 45.2275C18.0757 44.7769 18.0824 43.7319 18.1428 43.5437C18.2047 43.3559 18.4511 43.2752 18.4511 43.2752C18.4511 43.2752 18.9065 42.9882 19.5515 43.4241Z" fill="#3E3E3D"/>
<path fill-rule="evenodd" clip-rule="evenodd" d="M16.9788 38.5033C15.9257 36.1423 14.1581 37.1381 14.123 37.347C14.3691 39.1789 17.4823 43.5139 17.8616 44.5049C18.0071 45.4757 19.9202 44.972 19.9068 44.6521C19.3035 41.6448 18.2524 39.6351 16.9788 38.5033Z" fill="#314A8D"/>
<path fill-rule="evenodd" clip-rule="evenodd" d="M26.837 40.1567C27.3393 39.9603 27.3594 39.3603 28.0265 39.6111C28.3743 39.7419 28.4039 41.0152 28.4453 41.3549C28.504 41.8371 28.629 41.9765 28.754 42.2333C28.8691 42.4694 28.8616 42.7392 28.7875 43.0612C28.6156 43.8101 28.2158 44.6061 27.6898 44.2694C27.4871 44.1399 27.4564 43.0543 27.4008 42.6602C27.3212 41.6666 26.3504 41.4188 26.2136 41.2876C26.0772 41.1551 26.1592 40.8037 26.1592 40.8037C26.1592 40.8037 26.2278 40.6505 26.837 40.1567Z" fill="#3E3E3D"/>
<path fill-rule="evenodd" clip-rule="evenodd" d="M22.0025 44.4859C21.3776 45.7985 20.7826 47.4638 21.9792 47.0361C22.8478 46.5207 26.6128 42.5008 27.6407 41.89C28.3859 40.7928 27.4053 39.6083 26.7812 40.0801C24.7396 41.8227 23.5307 41.8119 22.0025 44.4859Z" fill="#314A8D"/>
<path fill-rule="evenodd" clip-rule="evenodd" d="M23.9417 24.7978C24.0793 24.8298 25.7499 25.7622 26.4584 26.502C26.9347 27.0925 26.8227 28.2527 26.816 28.4366C26.7975 29.0323 25.8981 34.1438 25.7026 35.235C25.3848 37.458 21.2894 39.2311 20.6435 36.1678C20.9637 34.5163 20.1475 30.9941 20.0675 28.1923C20.0482 27.5181 19.5025 25.4371 20.4243 24.5436C20.6593 24.3148 21.1348 24.1672 21.4207 24.1828C22.4407 24.2371 23.7702 24.7586 23.9417 24.7978Z" fill="#CB6117"/>
<path fill-rule="evenodd" clip-rule="evenodd" d="M22.8127 39.3965C20.8559 40.3651 18.9602 38.4287 17.1409 38.6528C16.8374 38.5975 16.7143 37.89 15.3907 38.181C14.5789 38.3597 13.7529 37.3142 14.2836 36.8994C16.0145 35.5462 18.9444 35.3628 20.8093 35.1504C20.8093 35.1504 22.6297 35.2639 23.4991 36.8455C23.2606 37.0993 22.9404 39.3335 22.8127 39.3965Z" fill="#4165BD"/>
<path fill-rule="evenodd" clip-rule="evenodd" d="M22.5291 46.1985C22.1174 47.5987 20.4429 47.6954 20.2584 46.0681C20.0668 44.3795 20.7256 41.0502 20.8151 38.9568C20.9019 36.9298 20.9027 36.4606 20.9168 35.0771C23.3535 36.8594 25.1014 35.9439 25.7015 35.4302C26.4699 37.1029 23.4517 43.0604 22.5291 46.1985Z" fill="#4165BD"/>
<path fill-rule="evenodd" clip-rule="evenodd" d="M21.5666 24.3407C23.8077 24.7318 21.5402 31.4058 21.1522 31.9355C20.4678 32.6347 19.4545 31.4965 19.6354 30.4407C19.4675 29.0396 19.32 23.5193 21.5666 24.3407Z" fill="#CB6117"/>
<path fill-rule="evenodd" clip-rule="evenodd" d="M20.7503 31.8513C20.0965 32.4215 18.6649 32.5946 17.4955 32.5907C17.0874 32.3024 16.8453 31.5379 17.2317 31.3493C17.6402 31.1499 18.3921 30.6043 19.6128 30.2219C20.5034 30.1653 20.8504 31.0359 20.7503 31.8513Z" fill="#CB6117"/>
<path fill-rule="evenodd" clip-rule="evenodd" d="M25.8034 35.7963C25.0981 36.6665 22.2494 36.8741 20.718 35.1605C20.7302 34.9701 20.6794 34.7992 20.692 34.6084C21.9107 35.5779 24.3142 36.1446 25.7076 35.2779C25.7396 35.451 25.7715 35.6236 25.8034 35.7963Z" fill="#314A8D"/>
<path fill-rule="evenodd" clip-rule="evenodd" d="M22.622 24.7399C21.619 24.4049 20.7733 26.0983 20.9519 29.4953C20.6175 29.6308 20.5142 29.248 20.1148 29.1362C19.9808 26.3253 20.353 24.7032 21.7881 24.2832C22.3468 24.5008 22.1276 24.3372 22.622 24.7399Z" fill="#314A8D"/>
<path fill-rule="evenodd" clip-rule="evenodd" d="M24.4457 35.6827C23.8373 34.2099 23.529 31.8881 23.9296 29.1934C22.3123 29.0397 21.0458 28.2459 20.1094 27.2139C20.0794 29.0406 20.1847 33.2314 20.4714 34.5043C20.9993 35.4617 23.0299 36.167 24.4457 35.6827Z" fill="#314A8D"/>
<path fill-rule="evenodd" clip-rule="evenodd" d="M26.1305 26.1987C25.2154 25.8638 24.3527 26.5924 23.7881 29.8414C23.4182 29.9769 22.8552 30.5821 22.4854 30.4707C23.0902 27.6599 23.8957 25.2824 25.1424 25.5047C25.6439 25.7222 25.7421 25.796 26.1305 26.1987Z" fill="#314A8D"/>
<path fill-rule="evenodd" clip-rule="evenodd" d="M24.0268 23.4194C24.0619 23.9555 24.1061 24.682 24.3837 25.1244C24.4113 25.5427 24.0903 25.907 23.6247 26.1677C22.6204 26.7293 21.8796 26.1962 22.0578 25.5392C22.0795 25.2967 22.3712 25.0545 22.432 24.8136C22.4982 24.546 22.9631 24.5525 22.9453 24.2788L24.0268 23.4194Z" fill="#D99E72"/>
<path fill-rule="evenodd" clip-rule="evenodd" d="M21.0213 21.4006C21.0375 21.7161 20.9496 22.0174 20.8971 22.3269C20.8175 22.5811 21.0048 22.6989 21.0126 22.9329C21.0158 23.0244 20.9176 23.1487 20.9125 23.276C20.8979 23.636 20.9811 24.2002 21.0836 24.5434C21.138 24.7993 21.1818 25.1744 21.5611 25.4213C22.1336 25.812 22.7073 25.1895 23.266 24.9525C23.8199 24.7195 23.5506 23.9637 23.7107 23.4487C24.4658 21.0069 21.5303 19.762 21.0213 21.4006Z" fill="#ECC19A"/>
<path fill-rule="evenodd" clip-rule="evenodd" d="M24.5533 22.939L24.5391 22.9899C24.5442 22.9726 24.5489 22.9554 24.5533 22.939Z" fill="#262424"/>
<path fill-rule="evenodd" clip-rule="evenodd" d="M22.933 22.7148C23.0927 22.7925 23.1317 22.8093 23.1854 23.0316C23.2311 23.2198 23.3561 23.2288 23.3356 23.6147C23.3419 23.673 24.0705 23.0299 24.0366 23.5362C23.9988 24.0973 24.1896 24.6597 24.2724 24.9058C24.7795 24.7461 24.5906 23.3484 24.6115 22.9962C24.7858 22.1683 24.5567 21.2161 24.2038 20.9019C23.172 21.0197 22.9555 21.0249 22.579 21.6676C22.51 21.9909 22.7272 22.6146 22.933 22.7148Z" fill="#643F42"/>
<path fill-rule="evenodd" clip-rule="evenodd" d="M24.086 23.3878C24.019 23.7362 23.8518 23.9913 23.7126 23.9585C23.5731 23.9265 23.5526 23.6084 23.5135 23.3145C23.4268 22.8901 23.7631 22.6532 23.9547 22.7028C24.0939 22.7391 24.1531 23.0421 24.086 23.3878Z" fill="#ECC19A"/>
<path fill-rule="evenodd" clip-rule="evenodd" d="M21.499 24.0906C21.7569 24.1696 21.9533 24.3764 22.1737 24.6707C22.4221 25.0027 22.6433 24.4877 22.8676 24.0677C23.006 23.8079 23.3234 23.883 23.3356 23.4535L23.5142 23.3149C23.653 23.8929 23.7216 24.2974 23.7054 24.5956C23.6372 25.8375 22.4493 26.7258 21.4994 26.1837V24.7946C21.669 24.9043 21.9489 24.9466 21.7948 24.7653C21.7329 24.6923 21.6355 24.6012 21.4994 24.5447V24.0906H21.499ZM20.9967 24.2309C21.0511 24.1213 21.0744 24.0263 21.3484 24.06C21.4013 24.0656 21.4513 24.0759 21.4994 24.0906V24.5447C21.4636 24.5296 21.4249 24.5175 21.3831 24.5084C20.9747 24.4178 21.2179 24.8486 21.3965 24.6936C21.4151 24.7303 21.4533 24.7648 21.499 24.7946V26.1837C21.4797 26.1729 21.4608 26.1616 21.4419 26.1496C21.0673 25.9096 20.8394 24.5469 20.9967 24.2309Z" fill="#643F42"/>
<path fill-rule="evenodd" clip-rule="evenodd" d="M24.204 20.9021C24.1192 20.1735 22.5701 19.9922 21.5335 20.4839C21.0766 20.6039 20.8226 20.5542 20.5537 20.2667C20.2837 21.1067 20.3862 21.8025 21.3451 22.0589C21.5363 21.4792 22.2129 21.8962 22.7223 21.588C23.1607 21.3787 23.766 21.1115 24.204 20.9021Z" fill="#643F42"/>
<path fill-rule="evenodd" clip-rule="evenodd" d="M17.4624 32.436C17.6793 32.4161 17.5452 31.4648 17.2101 31.4846C16.6529 31.6698 16.4373 31.3672 16.1621 31.4376C16.0394 31.4644 15.1255 31.7777 14.9323 31.9538C14.7521 32.0682 15.3096 32.3276 15.5166 32.1882C15.5422 32.341 15.1503 32.1166 15.0742 32.5262C15.1145 32.6708 15.5541 32.3402 15.202 33.1771C15.7165 33.3882 16.0879 33.2863 16.1494 33.2669C16.3127 33.2151 16.7716 33.0714 16.9104 32.6803C16.9652 32.5262 16.9703 32.4809 17.4624 32.436Z" fill="#D99E72"/>
<path fill-rule="evenodd" clip-rule="evenodd" d="M14.6339 35.1919L15.4245 35.6844C15.4848 35.7142 15.5613 35.7229 15.6161 35.6888L16.9156 34.879L16.9231 33.4619L14.9277 33.4947L14.6619 33.6294C14.6134 33.654 14.5839 33.7041 14.5839 33.7619L14.5771 35.0586C14.5771 35.1121 14.5965 35.1583 14.6339 35.1919Z" fill="#585857"/>
<path fill-rule="evenodd" clip-rule="evenodd" d="M15.6565 35.6647L16.9888 34.8381C17.0404 34.8062 17.0704 34.7505 17.0708 34.6858L17.0775 33.4081C17.0779 33.3541 17.0534 33.3084 17.0108 33.2821L16.4324 32.9272L15.6143 34.2256C15.5942 34.2563 15.5847 34.2886 15.5847 34.3262L15.5776 35.6151C15.5776 35.6362 15.5871 35.6544 15.6037 35.6652C15.6202 35.6751 15.6395 35.6751 15.6565 35.6647Z" fill="#3E3E3D"/>
<path fill-rule="evenodd" clip-rule="evenodd" d="M17.0765 33.5623L17.0773 33.4078C17.0777 33.3538 17.0533 33.3081 17.0107 33.2817L14.6624 33.6305C14.6139 33.6542 14.5843 33.7039 14.5843 33.7621L14.5835 33.9383L15.4679 34.4679C15.4927 34.483 15.5215 34.4856 15.5479 34.4847V34.4852L15.5515 34.4847H15.5534L15.5562 34.4843L15.5589 34.4839H15.5593L15.5649 34.483H15.566H15.5664C15.5897 34.4795 15.613 34.4713 15.635 34.458C16.1196 34.1631 16.6046 33.855 17.0765 33.5623Z" fill="#D39F25"/>
<path fill-rule="evenodd" clip-rule="evenodd" d="M17.0766 33.5623L17.0774 33.4078C17.0778 33.3538 17.0533 33.3081 17.0108 33.2817L15.5874 33.4932V34.4782C15.6036 34.4739 15.6193 34.467 15.6351 34.4575C16.1197 34.1632 16.6046 33.855 17.0766 33.5623Z" fill="#C18B21"/>
<path fill-rule="evenodd" clip-rule="evenodd" d="M16.9966 33.2751L16.1 32.7217L14.6515 33.6299C14.6357 33.6398 14.6262 33.6562 14.6242 33.676C14.6227 33.6959 14.6294 33.7136 14.6436 33.7257L15.4798 34.2415C15.5236 34.2683 15.5745 34.2588 15.6186 34.2311L16.9959 33.3769C17.0132 33.3661 17.0231 33.3476 17.0231 33.326C17.0231 33.304 17.0136 33.2854 16.9966 33.2751Z" fill="#EDC52E"/>
<path fill-rule="evenodd" clip-rule="evenodd" d="M16.2578 30.9602C15.5166 31.9797 16.9616 32.0811 15.789 33.7097C15.6814 33.6994 15.4543 33.5785 15.4488 33.4978C15.3959 32.7049 15.0691 32.2029 15.0793 31.5049C15.0833 31.2593 16.4779 30.6576 16.2578 30.9602Z" fill="#585857"/>
<path fill-rule="evenodd" clip-rule="evenodd" d="M15.2107 32.225C15.1898 32.209 15.1231 32.1667 15.1137 32.1399L14.9556 31.7014L15.3313 31.4946C15.3159 31.5188 15.3077 31.5417 15.3084 31.562C15.3159 31.7752 15.2836 32.0622 15.2107 32.225Z" fill="#6F6F6F"/>
<path fill-rule="evenodd" clip-rule="evenodd" d="M15.3937 32.1196C15.3693 32.1554 15.2285 32.2858 15.1981 32.2012L15.04 31.7626L15.3101 31.6021C15.3204 31.8382 15.3559 31.9361 15.3937 32.1196Z" fill="#3E3E3D"/>
<path fill-rule="evenodd" clip-rule="evenodd" d="M16.1762 31.0895C16.1277 31.4206 16.4988 32.0667 16.6557 33.2071C16.5295 33.3755 16.2058 33.5995 15.7894 33.71C15.862 33.1424 15.3573 32.15 15.3719 31.5811C15.3782 31.336 16.2267 30.7416 16.1762 31.0895Z" fill="#3E3E3D"/>
<path fill-rule="evenodd" clip-rule="evenodd" d="M13.8042 30.7672L15.7882 29.5129C15.9984 29.4986 16.3442 29.7136 16.4672 29.9419C16.4999 30.1945 16.5303 30.5 16.4999 30.6826L16.3804 31.0746L15.0316 31.9271L14.2257 32.0833C14.064 31.6616 13.9659 31.1894 13.8042 30.7672Z" fill="#D39F25"/>
<path fill-rule="evenodd" clip-rule="evenodd" d="M16.4989 30.686L16.3803 31.0749L15.0314 31.9274L14.3174 32.0656L16.4989 30.686Z" fill="#C18B21"/>
<path fill-rule="evenodd" clip-rule="evenodd" d="M13.8042 30.7673L15.7882 29.5134C15.9984 29.4991 16.3442 29.7141 16.4672 29.9424V29.9441L14.2277 31.3677L13.9252 31.1221C13.8878 31.0012 13.8484 30.8825 13.8042 30.7673Z" fill="#EDC52E"/>
<path fill-rule="evenodd" clip-rule="evenodd" d="M16.2261 31.7934C16.2912 32.0165 16.4252 32.4482 16.5908 33.2808C16.4556 33.4168 16.2171 33.5713 15.919 33.671C15.9237 33.071 15.7305 32.6351 15.6138 32.2073C15.49 31.7545 16.1153 31.414 16.2261 31.7934Z" fill="#D39F25"/>
<path fill-rule="evenodd" clip-rule="evenodd" d="M16.1338 30.3497L16.1318 30.9674C16.1318 30.9972 16.1705 30.9748 16.1705 30.9506L16.1724 30.3329C16.1721 30.3036 16.1338 30.3256 16.1338 30.3497Z" fill="#222221"/>
<path fill-rule="evenodd" clip-rule="evenodd" d="M16.0498 30.4016L16.0479 31.0192C16.0479 31.049 16.0865 31.0266 16.0865 31.0028L16.0885 30.3852C16.0885 30.355 16.0498 30.3774 16.0498 30.4016Z" fill="#222221"/>
<path fill-rule="evenodd" clip-rule="evenodd" d="M15.9664 30.4534L15.9648 31.0707C15.9648 31.1005 16.0035 31.078 16.0035 31.0543L16.0055 30.4366C16.0051 30.4068 15.9668 30.4293 15.9664 30.4534Z" fill="#222221"/>
<path fill-rule="evenodd" clip-rule="evenodd" d="M15.8833 30.5057L15.8813 31.1234C15.8813 31.1532 15.92 31.1307 15.92 31.1065L15.9216 30.4889C15.922 30.4591 15.8833 30.4815 15.8833 30.5057Z" fill="#222221"/>
<path fill-rule="evenodd" clip-rule="evenodd" d="M15.7994 30.5577L15.7979 31.1754C15.7979 31.2052 15.8365 31.1828 15.8365 31.1586L15.8385 30.5409C15.8381 30.5116 15.7994 30.5336 15.7994 30.5577Z" fill="#222221"/>
<path fill-rule="evenodd" clip-rule="evenodd" d="M15.7163 30.6101L15.7144 31.2278C15.7144 31.2575 15.753 31.2351 15.753 31.2113L15.755 30.5937C15.755 30.5634 15.7163 30.5859 15.7163 30.6101Z" fill="#222221"/>
<path fill-rule="evenodd" clip-rule="evenodd" d="M15.6328 30.6616L15.6309 31.2793C15.6309 31.3091 15.6695 31.2867 15.6695 31.2629L15.6715 30.6452C15.6715 30.6154 15.6328 30.6375 15.6328 30.6616Z" fill="#222221"/>
<path fill-rule="evenodd" clip-rule="evenodd" d="M14.325 32.057C14.1172 32.1247 13.8369 31.8873 13.6989 31.5269C13.5609 31.1665 13.6177 30.819 13.8259 30.7508C14.0337 30.683 14.3144 30.9204 14.452 31.2809C14.59 31.6417 14.5332 31.9892 14.325 32.057Z" fill="#C18B21"/>
<path fill-rule="evenodd" clip-rule="evenodd" d="M13.6155 32.3238L13.0962 31.3798L13.6908 30.8424C14.1485 30.5381 14.7794 31.8676 14.229 32.0825L13.6155 32.3238Z" fill="#858585"/>
<path fill-rule="evenodd" clip-rule="evenodd" d="M13.5618 32.3522C13.3994 32.4053 13.1801 32.2197 13.0725 31.9378C12.9649 31.6559 13.009 31.3844 13.1715 31.3313C13.3339 31.2782 13.5531 31.4638 13.6608 31.7457C13.7684 32.0276 13.7243 32.2991 13.5618 32.3522Z" fill="#3E3E3D"/>
<path fill-rule="evenodd" clip-rule="evenodd" d="M12.6533 31.734L13.1221 31.4379C13.1245 31.4362 13.1268 31.4349 13.1296 31.4336L13.1304 31.4332C13.1391 31.4276 13.1485 31.4233 13.1584 31.4202L13.16 31.4198C13.4683 31.3192 13.8145 32.0759 13.5432 32.2775L13.0559 32.5913L12.6533 31.734Z" fill="#585857"/>
<path fill-rule="evenodd" clip-rule="evenodd" d="M13.0247 32.6051C13.0062 32.6111 12.9864 32.6137 12.9667 32.6128L12.643 32.6107L12.4258 32.0979L12.5831 31.8164C12.6064 31.7685 12.6407 31.734 12.686 31.7193C12.8272 31.6731 13.0172 31.8341 13.111 32.0789C13.2045 32.3232 13.1658 32.5593 13.0247 32.6051Z" fill="#858585"/>
<path fill-rule="evenodd" clip-rule="evenodd" d="M12.6601 32.6064C12.5761 32.634 12.4629 32.5377 12.4073 32.3923C12.3517 32.2468 12.3746 32.1065 12.4586 32.0793C12.5426 32.0521 12.6557 32.1475 12.7113 32.2934C12.7669 32.4389 12.7436 32.5792 12.6601 32.6064Z" fill="#585857"/>
<path fill-rule="evenodd" clip-rule="evenodd" d="M12.7141 31.7296L12.5244 32.0654C12.5619 32.0719 12.6017 32.0978 12.6368 32.138L12.9384 31.8349C12.8667 31.7598 12.7854 31.7193 12.7141 31.7296Z" fill="#CACACA"/>
<path fill-rule="evenodd" clip-rule="evenodd" d="M12.6296 32.5259C12.5713 32.5449 12.4924 32.4784 12.4538 32.377C12.4151 32.276 12.4309 32.1784 12.4892 32.159C12.5476 32.14 12.6265 32.2065 12.6651 32.3079C12.7037 32.4094 12.688 32.5069 12.6296 32.5259Z" fill="#3E3E3D"/>
<path fill-rule="evenodd" clip-rule="evenodd" d="M14.2285 31.1423L13.5527 31.4993C13.4735 31.3944 13.3785 31.3262 13.2905 31.3141L13.8133 30.8276C13.9529 30.8281 14.1126 30.9507 14.2285 31.1423Z" fill="#C4C4C4"/>
<path fill-rule="evenodd" clip-rule="evenodd" d="M13.2012 31.4202L12.7383 31.7072C12.8096 31.7008 12.8901 31.7422 12.9618 31.8169L13.4259 31.5398C13.3581 31.4638 13.2792 31.4159 13.2012 31.4202Z" fill="#C4C4C4"/>
<path fill-rule="evenodd" clip-rule="evenodd" d="M15.9707 33.6526C15.964 33.0802 15.7786 32.658 15.6655 32.2437C15.5657 31.8776 15.9545 31.5854 16.1658 31.6869C16.1919 31.7128 16.2124 31.7477 16.2258 31.793C16.2908 32.0162 16.4249 32.4478 16.5905 33.2805C16.4635 33.4087 16.2447 33.5524 15.9707 33.6526Z" fill="#C18B21"/>
<path fill-rule="evenodd" clip-rule="evenodd" d="M13.7357 32.001C13.7397 32.071 13.7326 32.1348 13.7148 32.1879L14.3725 31.938C14.4056 31.8763 14.4198 31.8008 14.4198 31.7188L13.7357 32.001Z" fill="#585857"/>
<path fill-rule="evenodd" clip-rule="evenodd" d="M12.729 32.5705L13.0598 32.5684C13.0846 32.5468 13.1032 32.5161 13.1154 32.479L12.7613 32.4816C12.7582 32.5183 12.7475 32.5494 12.729 32.5705Z" fill="#585857"/>
<path fill-rule="evenodd" clip-rule="evenodd" d="M12.4625 32.213C12.4373 32.2436 12.4306 32.2898 12.4468 32.3161C12.4629 32.3425 12.4964 32.339 12.5217 32.3084C12.5465 32.2777 12.5536 32.2315 12.5374 32.2052C12.5209 32.1789 12.4874 32.1823 12.4625 32.213Z" fill="#585857"/>
<path fill-rule="evenodd" clip-rule="evenodd" d="M12.5509 32.3765C12.5792 32.4072 12.597 32.4534 12.5903 32.4797C12.5836 32.506 12.5552 32.5026 12.5268 32.4719C12.4984 32.4413 12.4811 32.3951 12.4878 32.3688C12.4941 32.3424 12.5225 32.3459 12.5509 32.3765Z" fill="#585857"/>
<path fill-rule="evenodd" clip-rule="evenodd" d="M12.5542 32.2797L11.9269 32.6561C11.8894 32.6785 11.8496 32.7251 11.8271 32.7756C11.8626 32.7799 11.9415 32.7804 11.9987 32.7454L12.5873 32.3936C12.6674 32.3457 12.6256 32.2343 12.5542 32.2797Z" fill="#858585"/>
<path fill-rule="evenodd" clip-rule="evenodd" d="M12.5385 32.3081L11.955 32.6586C11.9337 32.6716 11.9444 32.7022 11.9747 32.6832L12.5393 32.3448C12.5346 32.3396 12.5354 32.3159 12.5385 32.3081Z" fill="#C4C4C4"/>
<path fill-rule="evenodd" clip-rule="evenodd" d="M12.6409 32.3224C12.6575 32.369 12.6535 32.4135 12.6319 32.4221C12.6102 32.4307 12.5794 32.4001 12.5625 32.3535C12.5459 32.3069 12.5498 32.2624 12.5715 32.2538C12.5932 32.2456 12.6244 32.2762 12.6409 32.3224Z" fill="#585857"/>
<path fill-rule="evenodd" clip-rule="evenodd" d="M11.8281 32.7761C11.8352 32.7727 11.8427 32.7692 11.8502 32.7662C11.9074 32.7433 11.9586 32.7386 11.9649 32.7567C11.9653 32.7584 11.9653 32.7601 11.9649 32.7619C11.9141 32.7804 11.8573 32.7796 11.8281 32.7761Z" fill="#3E3E3D"/>
<path fill-rule="evenodd" clip-rule="evenodd" d="M11.8276 32.7747L11.8473 32.7605C11.897 32.7212 11.9294 32.6772 11.9187 32.6616C11.8994 32.6746 11.8801 32.6936 11.8631 32.7156L11.8627 32.716L11.8615 32.7177L11.8611 32.7182L11.8604 32.7195L11.86 32.7203L11.856 32.7255L11.8552 32.7264C11.8477 32.7372 11.8418 32.7475 11.8363 32.7566L11.8359 32.7574L11.8355 32.7587L11.8347 32.76L11.8336 32.7618V32.7622L11.8328 32.7631L11.8312 32.7665V32.7669L11.8304 32.7682L11.83 32.7691V32.7695L11.8292 32.7713L11.8276 32.7747Z" fill="#C4C4C4"/>
<path fill-rule="evenodd" clip-rule="evenodd" d="M12.6086 32.3033C12.6181 32.3305 12.6157 32.3564 12.6031 32.3611C12.5905 32.3663 12.5724 32.3482 12.5629 32.3214C12.5534 32.2947 12.5558 32.2688 12.5684 32.2636C12.5811 32.2584 12.5992 32.2761 12.6086 32.3033Z" fill="#858585"/>
<path fill-rule="evenodd" clip-rule="evenodd" d="M12.4723 32.2073C12.4573 32.2259 12.453 32.2535 12.4628 32.2695C12.4727 32.2855 12.4928 32.2833 12.5078 32.2648C12.5227 32.2462 12.5271 32.2186 12.5172 32.2026C12.5074 32.1866 12.4873 32.1888 12.4723 32.2073Z" fill="#858585"/>
<path fill-rule="evenodd" clip-rule="evenodd" d="M15.1856 33.2446C15.1927 33.1539 15.2538 33.0763 15.3283 33.0857L15.7451 33.138C15.9249 33.1604 15.8965 33.3754 15.7163 33.3879L15.3161 33.4155C15.2412 33.4207 15.1785 33.3352 15.1856 33.2446Z" fill="#ECC19A"/>
<path fill-rule="evenodd" clip-rule="evenodd" d="M15.1148 32.9034C15.1227 32.8067 15.1945 32.7247 15.2824 32.7341L15.8265 32.7924C16.0382 32.8149 16.0268 33.0687 15.8143 33.0738L15.269 33.0872C15.1807 33.0894 15.107 33.0005 15.1148 32.9034Z" fill="#ECC19A"/>
<path fill-rule="evenodd" clip-rule="evenodd" d="M15.0454 32.5621C15.0533 32.4654 15.1329 32.3757 15.2284 32.3934L15.8517 32.5099C16.0808 32.5526 16.0694 32.8306 15.8383 32.8077L15.2149 32.7464C15.1187 32.7369 15.0379 32.6588 15.0454 32.5621Z" fill="#ECC19A"/>
<path fill-rule="evenodd" clip-rule="evenodd" d="M16.7579 31.597C16.5119 31.3591 16.3498 31.36 16.088 31.4131C15.8262 31.4658 15.7494 31.4727 15.6906 31.5456C15.5633 31.7032 15.525 32.0601 15.5029 32.307C15.8184 32.3062 15.8814 32.1335 15.8676 31.8918C15.9295 31.9453 15.9295 31.9859 16.1066 31.8793C16.9961 32.6722 17.1861 31.8573 16.7579 31.597Z" fill="#ECC19A"/>
<path fill-rule="evenodd" clip-rule="evenodd" d="M14.8365 32.1069C14.8436 32.0163 14.9048 31.9386 14.9793 31.9481L15.396 32.0003C15.5754 32.0227 15.5474 32.2381 15.3673 32.2502L14.9671 32.2778C14.8917 32.283 14.8291 32.1975 14.8365 32.1069Z" fill="#ECC19A"/>
<path fill-rule="evenodd" clip-rule="evenodd" d="M13.2783 8.86997L12.4834 9.37196L0.272949 1.6326L1.04535 1.13232L13.2783 8.86997Z" fill="#E0C669"/>
<path fill-rule="evenodd" clip-rule="evenodd" d="M0.272949 1.63281L12.502 9.36528V47.8044L0.272949 40.0582V1.63281Z" fill="#B7882F"/>
<path fill-rule="evenodd" clip-rule="evenodd" d="M13.2789 8.86963L12.501 9.36084L12.5018 47.8039L13.2761 47.3148L13.2789 8.86963Z" fill="#A67630"/>
<path fill-rule="evenodd" clip-rule="evenodd" d="M1.65234 28.0698L10.912 33.9225V42.4215L1.65234 36.5464V28.0698Z" fill="#935E2F"/>
<path fill-rule="evenodd" clip-rule="evenodd" d="M2.16211 29.0439L10.3561 34.1995V41.4179L2.16211 36.0577V29.0439Z" fill="#A67630"/>
<path fill-rule="evenodd" clip-rule="evenodd" d="M14.492 11.0686L13.6995 11.5602L11.4907 10.1686L12.2966 9.68994L14.492 11.0686Z" fill="#E0C669"/>
<path fill-rule="evenodd" clip-rule="evenodd" d="M11.5088 10.1616L13.7176 11.5528V49.992L11.5088 48.6012V10.1616Z" fill="#A67630"/>
<path fill-rule="evenodd" clip-rule="evenodd" d="M14.4921 11.0684L13.7178 11.5531V49.9922L14.4921 49.5075V11.0684Z" fill="#B7882F"/>
<path fill-rule="evenodd" clip-rule="evenodd" d="M13.7105 11.554L13.7058 10.5569L11.5049 9.15186L11.5262 10.155L13.7105 11.554Z" fill="#A67630"/>
<path fill-rule="evenodd" clip-rule="evenodd" d="M11.5088 9.17219L13.7101 10.5781L27.7504 1.68145L25.5752 0.291992L11.5088 9.17219Z" fill="#E0C669"/>
<path fill-rule="evenodd" clip-rule="evenodd" d="M13.7107 11.5546L13.71 10.5778L27.7503 1.68115L27.7511 2.65796L13.7107 11.5546Z" fill="#B7882F"/>
<path fill-rule="evenodd" clip-rule="evenodd" d="M26.7021 26.9792C27.9591 29.828 21.1699 31.6086 20.4693 31.6647C19.4114 31.6194 19.4891 30.2157 20.4271 29.6925C22.1726 28.5702 25.5867 24.9138 26.7021 26.9792Z" fill="#DE7E32"/>
<path fill-rule="evenodd" clip-rule="evenodd" d="M15.7035 27.7752C15.5533 27.568 15.5237 27.3699 15.3711 27.2637C15.273 27.1903 14.3602 26.8092 14.1142 26.8351C13.9505 26.7854 13.8449 27.9345 13.9482 28.098C14.1847 28.3398 14.8708 28.5867 15.0309 28.5845C15.269 28.5819 15.3223 28.5465 15.4315 28.5793C15.4871 28.5962 16.2567 28.5379 15.7035 27.7752Z" fill="#ECC19A"/>
<path fill-rule="evenodd" clip-rule="evenodd" d="M13.9227 27.8241L13.2619 27.8154C13.0943 27.8133 13.1109 28.0274 13.2773 28.0485L13.9191 28.1305C14.08 28.1508 14.0974 27.8262 13.9227 27.8241Z" fill="#ECC19A"/>
<path fill-rule="evenodd" clip-rule="evenodd" d="M14.0942 27.6958C14.1013 27.606 14.0406 27.5262 13.9585 27.518L13.1826 27.442C12.9862 27.4226 12.9685 27.6669 13.1629 27.7023L13.9317 27.8439C14.013 27.859 14.0867 27.7852 14.0942 27.6958Z" fill="#ECC19A"/>
<path fill-rule="evenodd" clip-rule="evenodd" d="M14.146 27.3865C14.1496 27.2963 14.0861 27.2108 13.9962 27.2074L13.141 27.175C12.9257 27.1668 12.906 27.4297 13.1205 27.4504L13.9694 27.5333C14.0593 27.5423 14.1385 27.4763 14.146 27.3865Z" fill="#ECC19A"/>
<path fill-rule="evenodd" clip-rule="evenodd" d="M14.0682 26.8236L13.2832 26.7951C13.086 26.7877 13.0691 27.0549 13.2654 27.0739L14.0414 27.1499C14.2433 27.1693 14.2594 26.8309 14.0682 26.8236Z" fill="#ECC19A"/>
<path fill-rule="evenodd" clip-rule="evenodd" d="M15.5483 27.7392C15.572 27.5985 15.4959 27.3788 15.3504 27.1941C15.2049 27.0098 15.0165 26.8289 14.9506 26.7585C14.7807 26.5768 14.7692 26.629 14.5989 26.4478C14.4984 26.5479 14.399 26.7184 14.7259 27.0115C14.7633 27.1026 14.7243 27.1651 14.9885 27.3581C14.9029 28.028 15.5109 28.0142 15.5483 27.7392Z" fill="#ECC19A"/>
<path fill-rule="evenodd" clip-rule="evenodd" d="M20.4016 31.6594C19.5606 31.9219 15.889 29.5819 15.1214 28.6915C14.9731 28.1851 15.3836 27.4026 15.7715 27.6085C16.2005 27.747 19.35 28.9789 20.5151 29.5319C21.2363 30.1068 20.9516 31.0987 20.4016 31.6594Z" fill="#DE7E32"/>
<path fill-rule="evenodd" clip-rule="evenodd" d="M2.16211 29.4736L10.0201 34.4099V41.1979L2.16211 36.2397V29.4736Z" fill="#B7882F"/>
<path fill-rule="evenodd" clip-rule="evenodd" d="M15.3341 49.2661C15.7733 49.8367 16.4065 50.1583 17.0953 50.5014C17.7727 50.839 17.999 51.0526 18.7221 51.5171C19.2962 51.8861 20.4779 52.6182 21.1351 52.9113C21.4289 53.0995 21.0851 53.7931 20.5891 53.5078C19.9578 53.0067 18.79 52.3139 18.1485 51.9962C17.3544 51.6026 17.1194 51.5007 16.4266 51.035C15.8896 50.6741 15.2584 50.2623 14.6232 50.0732C14.5597 50.0543 14.5392 49.8445 14.5708 49.7206C14.7466 49.4077 15.1969 49.0878 15.3341 49.2661Z" fill="#D39F25"/>
<path fill-rule="evenodd" clip-rule="evenodd" d="M15.334 49.2661C15.7728 49.8367 16.4064 50.1583 17.0952 50.5014C17.7726 50.839 17.9989 51.0526 18.7216 51.5171C19.278 51.8745 20.4048 52.5733 21.072 52.8832C21.0045 53.1116 20.751 53.3265 20.4356 53.1448C19.8043 52.6441 18.6365 51.9513 17.995 51.6332C17.2009 51.2395 16.9659 51.1377 16.2732 50.6719C15.7361 50.3111 15.2212 49.9537 14.59 49.7499C14.5817 49.7469 14.5738 49.7439 14.5659 49.7404L14.5703 49.721C14.7465 49.4077 15.1968 49.0878 15.334 49.2661Z" fill="#EDC52E"/>
<path fill-rule="evenodd" clip-rule="evenodd" d="M22.1127 53.2386L20.5994 54.3018L19.6094 54.4913L19.6106 53.7713L20.6026 53.527L22.1178 52.501L22.1127 53.2386Z" fill="#3E3E3D"/>
<path fill-rule="evenodd" clip-rule="evenodd" d="M19.6094 54.491L19.4375 54.3783L19.4403 53.6631L19.6106 53.771L19.6094 54.491Z" fill="#3E3E3D"/>
<path fill-rule="evenodd" clip-rule="evenodd" d="M19.4399 53.6625L19.9363 53.1264L21.5214 52.125L22.1179 52.501L20.6181 53.5231L19.6107 53.7713L19.4399 53.6625Z" fill="#858585"/>
<path fill-rule="evenodd" clip-rule="evenodd" d="M20.5998 53.5278L20.5982 54.3022L19.6094 54.4913L19.6106 53.7713L20.5998 53.5278Z" fill="#585857"/>
<path fill-rule="evenodd" clip-rule="evenodd" d="M17.6926 51.7713C17.6563 51.6591 17.6508 51.5939 17.7024 51.4886C17.8381 51.347 17.997 51.2352 18.1823 51.1593C17.8235 50.915 17.5704 50.7384 17.0948 50.5014C16.406 50.1583 15.7724 49.8367 15.3336 49.2661C15.1964 49.0878 14.7461 49.4077 14.5703 49.7206C14.5387 49.8445 14.5592 50.0547 14.6227 50.0732C15.2575 50.2623 15.8891 50.6741 16.4261 51.035C16.9659 51.398 17.2281 51.54 17.6926 51.7713Z" fill="#585857"/>
<path fill-rule="evenodd" clip-rule="evenodd" d="M17.7025 51.489C17.8385 51.347 17.997 51.2352 18.1824 51.1597L18.1788 51.1575C18.0455 51.0669 17.9273 50.9858 17.8062 50.9068L17.8042 50.9055L17.7447 50.867L17.7384 50.8632L17.7029 50.8407L17.6666 50.8183L17.6509 50.8083L17.6493 50.8075L17.6465 50.8058L17.6185 50.7885L17.6036 50.7794L17.6024 50.779L17.5862 50.7691L17.5566 50.7514L17.5531 50.7492L17.5196 50.7298L17.5085 50.7233L17.5022 50.7199L17.4849 50.7099L17.4837 50.7095L17.4675 50.7L17.4592 50.6952L17.4502 50.6901L17.4498 50.6896L17.4265 50.6763L17.4005 50.6616L17.3567 50.6374L17.3414 50.6292L17.3031 50.6085L17.3023 50.6081L17.2834 50.5981L17.2747 50.5934L17.2728 50.5925L17.2542 50.5826L17.1939 50.5515L17.1694 50.539L17.1608 50.5347L17.1576 50.5329L17.1391 50.5235L17.1265 50.5174L17.117 50.5127L17.0949 50.5014C16.4061 50.1583 15.7725 49.8367 15.3337 49.2661C15.1965 49.0878 14.7462 49.4077 14.5703 49.7206L14.5692 49.7266L14.568 49.7327L14.5668 49.7387L14.5664 49.74C14.5739 49.7439 14.5818 49.7469 14.5905 49.7495C15.2217 49.9532 15.7366 50.3107 16.2736 50.6715C16.873 51.0751 17.13 51.2059 17.7025 51.489Z" fill="#858585"/>
<path fill-rule="evenodd" clip-rule="evenodd" d="M20.9193 53.7775L20.9165 53.6329C20.9157 53.5932 20.9386 53.5478 20.9654 53.5293L21.4697 53.1775C21.4965 53.1589 21.5206 53.1784 21.5213 53.2181L21.5241 53.3627C21.5249 53.4024 21.502 53.4477 21.4752 53.4663L20.9709 53.8181C20.9437 53.8366 20.9197 53.8172 20.9193 53.7775Z" fill="#585857"/>
<path fill-rule="evenodd" clip-rule="evenodd" d="M35.8624 45.0547L35.9109 42.2473L28.9424 37.8843L29.3603 40.9861L35.8624 45.0547Z" fill="#D39F25"/>
<path fill-rule="evenodd" clip-rule="evenodd" d="M38.8198 40.439L35.9108 42.2471L35.8623 45.0545L38.3778 43.5041L38.8198 40.439Z" fill="#C18B21"/>
<path fill-rule="evenodd" clip-rule="evenodd" d="M38.5426 38.8639L35.9108 40.4842L29.1895 36.2813L31.8035 34.6558L38.5426 38.8639Z" fill="#858585"/>
<path fill-rule="evenodd" clip-rule="evenodd" d="M35.9111 42.2474L38.8201 40.4393L38.543 38.8638L35.9111 40.4842V42.2474Z" fill="#3E3E3D"/>
<path fill-rule="evenodd" clip-rule="evenodd" d="M35.9109 42.2471L28.9424 37.884L29.1888 36.2744L35.9109 40.4838V42.2471Z" fill="#585857"/>
<path fill-rule="evenodd" clip-rule="evenodd" d="M36.1699 38.7015L35.8655 38.3036V37.5961L32.5248 35.8091V36.7838L32.2807 36.9357L32.0962 35.2139L36.1699 37.6432V38.7015Z" fill="#C18B21"/>
<path fill-rule="evenodd" clip-rule="evenodd" d="M36.1704 37.6457L35.8467 37.8429L31.812 35.32L32.1255 35.1201L36.1704 37.6457Z" fill="#EDC52E"/>
<path fill-rule="evenodd" clip-rule="evenodd" d="M36.1483 39.3427L36.4728 39.1442L36.1704 37.6455L35.8467 37.8428L36.1483 39.3427Z" fill="#C18B21"/>
<path fill-rule="evenodd" clip-rule="evenodd" d="M36.1487 39.3427L35.3716 38.8696L35.3771 37.9002L32.2808 35.9612V36.9359L31.5806 36.5155L31.8116 35.3159L35.8467 37.8428L36.1487 39.3427Z" fill="#D39F25"/>
<path fill-rule="evenodd" clip-rule="evenodd" d="M34.984 41.3487L34.6753 41.5395L33.8828 41.0478L34.1797 40.854L34.984 41.3487Z" fill="#858585"/>
<path fill-rule="evenodd" clip-rule="evenodd" d="M34.8295 42.8982L34.984 42.8024V41.3486L34.6753 41.539L34.8295 42.8982Z" fill="#3E3E3D"/>
<path fill-rule="evenodd" clip-rule="evenodd" d="M34.8293 42.8982L34.036 42.4014L33.8818 41.0435L34.6751 41.539L34.8293 42.8982Z" fill="#585857"/>
<path fill-rule="evenodd" clip-rule="evenodd" d="M30.7526 38.6851L30.4443 38.8755L29.6514 38.3838L29.9487 38.1904L30.7526 38.6851Z" fill="#858585"/>
<path fill-rule="evenodd" clip-rule="evenodd" d="M30.5985 40.2347L30.7527 40.1384V38.6851L30.4443 38.8754L30.5985 40.2347Z" fill="#3E3E3D"/>
<path fill-rule="evenodd" clip-rule="evenodd" d="M30.5983 40.2346L29.805 39.7374L29.6509 38.3794L30.4442 38.8754L30.5983 40.2346Z" fill="#585857"/>
<path d="M32.7687 48.3718C32.7383 48.3718 32.7087 48.355 32.6918 48.3239C32.6669 48.2777 32.6807 48.2182 32.7229 48.191L33.3857 47.7623C33.7386 47.4887 33.9077 47.1067 33.832 46.7441C33.7638 46.4173 33.5056 46.1748 33.1578 46.1104C32.7399 46.0323 31.9553 46.3176 31.6808 47.8702C31.6718 47.9229 31.6244 47.9562 31.5767 47.9475C31.5286 47.9372 31.4971 47.8862 31.5066 47.8336C31.807 46.1333 32.7032 45.8294 33.1874 45.9188C33.6077 45.9961 33.9207 46.2956 34.0051 46.7009C34.0974 47.1429 33.9018 47.6005 33.4823 47.9259L32.8136 48.3584C32.7994 48.3675 32.7836 48.3718 32.7687 48.3718Z" fill="#3E3E3D"/>
<path d="M32.5217 48.5743C32.4783 48.5743 32.4361 48.5501 32.4124 48.5065C32.3766 48.4409 32.3963 48.3555 32.4566 48.3162L32.9451 47.9976C33.0058 47.9592 33.0835 47.9804 33.119 48.046C33.1549 48.112 33.1352 48.1971 33.0748 48.2363L32.5863 48.5549C32.5662 48.5678 32.5437 48.5743 32.5217 48.5743Z" fill="#585857"/>
<path fill-rule="evenodd" clip-rule="evenodd" d="M28.2215 48.9336L28.2251 49.3601L26.4748 50.5074L26.4681 50.5889L26.3885 50.5397C26.3175 50.4961 26.3073 50.1918 26.4232 50.1128L28.2215 48.9336Z" fill="#858585"/>
<path fill-rule="evenodd" clip-rule="evenodd" d="M28.2997 48.9823L26.5034 50.1615L26.4233 50.1123L28.2205 48.9326L28.2997 48.9823Z" fill="#585857"/>
<path fill-rule="evenodd" clip-rule="evenodd" d="M28.2998 48.9819L26.5035 50.1616C26.3655 50.2523 26.4033 50.6541 26.5082 50.5851L28.3038 49.408L28.2998 48.9819Z" fill="#C4C4C4"/>
<path fill-rule="evenodd" clip-rule="evenodd" d="M27.9648 49.8359L26.224 48.7642L25.9902 48.7892L27.8142 49.9123L27.9648 49.8359Z" fill="#3E3E3D"/>
<path fill-rule="evenodd" clip-rule="evenodd" d="M28.2143 48.2432L28.2179 48.6692L26.4676 49.8165L26.4609 49.8981L26.3813 49.8489C26.3103 49.8053 26.2997 49.501 26.416 49.422L28.2143 48.2432Z" fill="#858585"/>
<path fill-rule="evenodd" clip-rule="evenodd" d="M28.2928 48.2914L26.496 49.4711L26.416 49.4219L28.2131 48.2422L28.2928 48.2914Z" fill="#585857"/>
<path fill-rule="evenodd" clip-rule="evenodd" d="M28.2929 48.291L26.4961 49.4707C26.3581 49.5613 26.396 49.9632 26.5009 49.8946L28.2964 48.7175L28.2929 48.291Z" fill="#C4C4C4"/>
<path fill-rule="evenodd" clip-rule="evenodd" d="M30.6714 50.157L31.3823 49.6916C31.4379 49.6554 31.5017 49.655 31.5581 49.6899L31.8361 49.8643L31.0408 50.3849L30.6714 50.157Z" fill="#3E3E3D"/>
<path fill-rule="evenodd" clip-rule="evenodd" d="M29.9814 50.3227L29.9858 49.5168L32.5636 47.8438L32.564 48.644L29.9814 50.3227Z" fill="#D39F25"/>
<path fill-rule="evenodd" clip-rule="evenodd" d="M30.4438 51.2968C30.9111 50.9878 32.0091 50.1875 32.4188 49.6423C32.5887 49.4161 32.5584 49.2249 32.3589 49.0298C32.2777 48.9504 32.1203 48.88 31.9496 48.8421L32.4886 48.4868C32.726 48.6206 32.903 48.9552 33.1403 48.8826L33.1447 49.2979C33.1474 49.5668 33.0832 49.7813 32.9329 49.995C32.4925 50.6226 31.6413 51.4134 30.4438 51.9275V51.2968Z" fill="#D39F25"/>
<path fill-rule="evenodd" clip-rule="evenodd" d="M27.2778 49.2578L27.8424 49.6187L28.8893 48.9444L28.1902 48.6772L27.2778 49.2578Z" fill="#858585"/>
<path fill-rule="evenodd" clip-rule="evenodd" d="M27.8452 50.4237L27.8424 49.6187L27.2778 49.2578L27.2782 49.9523L27.8452 50.4237Z" fill="#585857"/>
<path fill-rule="evenodd" clip-rule="evenodd" d="M31.9434 48.3696L31.9449 48.8375C32.2974 48.9239 32.3861 49.0192 32.5695 49.3106L32.8774 48.945C32.5821 48.6424 32.2813 48.377 31.9434 48.3696Z" fill="#B2761C"/>
<path fill-rule="evenodd" clip-rule="evenodd" d="M31.3975 47.3271L32.5658 47.8443C31.8225 48.326 31.0793 48.8073 30.3365 49.289C30.0364 49.4836 30.6066 49.9183 30.9673 50.1587L31.6546 49.6861C31.7433 49.6252 31.9172 49.6036 32.0078 49.5432C32.1549 49.4452 32.2929 49.3257 32.4112 49.1677C32.5811 48.9415 32.5508 48.7503 32.3513 48.5552C32.27 48.4758 32.1127 48.4054 31.942 48.3674L32.481 48.0122C33.2897 48.4676 33.2502 49.0572 32.9249 49.5203C32.4845 50.1479 31.6412 50.7825 30.4441 51.2965C29.831 51.3678 28.2653 50.1997 27.6865 49.6162C28.0796 49.3563 28.3868 49.1543 28.7807 48.8953C28.8142 48.8733 29.225 48.7516 29.2585 48.73C29.9706 48.2617 30.6838 47.7946 31.3975 47.3271Z" fill="#EDC52E"/>
<path fill-rule="evenodd" clip-rule="evenodd" d="M30.859 51.1069L30.8653 51.7275C30.7301 51.7975 30.5893 51.8644 30.4438 51.927V51.2968C30.5361 51.2355 30.6536 51.1552 30.7849 51.0615L30.859 51.1069Z" fill="#585857"/>
<path fill-rule="evenodd" clip-rule="evenodd" d="M28.0453 49.3799L30.8593 51.1073C30.7261 51.1721 30.5877 51.2355 30.4441 51.2973C29.8559 51.3655 28.3127 50.3468 27.6763 49.7485C27.6578 49.7308 27.6487 49.7066 27.6507 49.6799C27.6526 49.6531 27.6652 49.6307 27.6865 49.6169L28.0453 49.3799Z" fill="#858585"/>
<path fill-rule="evenodd" clip-rule="evenodd" d="M27.6523 49.7061L27.6575 50.464C27.6579 50.534 27.6902 50.5939 27.7462 50.6285L29.4187 51.6623C29.841 51.9234 30.2428 52.024 30.4442 51.9269C30.4442 51.7166 30.4442 51.5069 30.4442 51.2967C30.2404 51.2677 29.8623 51.0683 29.4085 50.7882L27.6523 49.7061Z" fill="#3E3E3D"/>
<path fill-rule="evenodd" clip-rule="evenodd" d="M31.4439 50.0227C31.5838 50.0309 31.6836 50.1094 31.6662 50.1983C31.6489 50.2873 31.5215 50.3529 31.3816 50.3447C31.2416 50.3365 31.1418 50.2579 31.1592 50.169C31.1765 50.0801 31.3039 50.0145 31.4439 50.0227Z" fill="#B2761C"/>
<path fill-rule="evenodd" clip-rule="evenodd" d="M31.4355 50.063C31.538 50.0691 31.611 50.1265 31.5987 50.1916C31.5861 50.2568 31.4927 50.3047 31.3902 50.2987C31.2876 50.2926 31.2147 50.2348 31.2269 50.1696C31.2395 50.1049 31.333 50.057 31.4355 50.063Z" fill="#585857"/>
<path fill-rule="evenodd" clip-rule="evenodd" d="M31.4369 50.0157C31.5394 50.0217 31.6123 50.0795 31.5997 50.1447C31.5871 50.2099 31.4936 50.2578 31.3911 50.2518C31.2886 50.2457 31.2157 50.1879 31.2279 50.1227C31.2409 50.0575 31.3344 50.0096 31.4369 50.0157Z" fill="#3E3E3D"/>
<path fill-rule="evenodd" clip-rule="evenodd" d="M29.8726 48.5711L30.8397 47.9331L31.5128 48.344L30.5349 48.979L29.8726 48.5711Z" fill="#E3E3E3"/>
<path fill-rule="evenodd" clip-rule="evenodd" d="M1.65234 7.76611L10.912 13.6188V22.1174L1.65234 16.2561V7.76611Z" fill="#E0C669"/>
<path fill-rule="evenodd" clip-rule="evenodd" d="M10.9118 21.8156L1.8623 16.0916V7.90332L10.9118 13.6187V21.8156Z" fill="#D0FFFD"/>
<path fill-rule="evenodd" clip-rule="evenodd" d="M10.9123 21.4744L2.13281 15.9273V8.07959L10.9123 13.6184V21.4744Z" fill="#93F9F6"/>
<path fill-rule="evenodd" clip-rule="evenodd" d="M1.65234 17.7437L10.912 23.5967V32.0954L1.65234 26.2341V17.7437Z" fill="#E0C669"/>
<path fill-rule="evenodd" clip-rule="evenodd" d="M10.9118 31.7936L1.8623 26.0701V17.8813L10.9118 23.5967V31.7936Z" fill="#D0FFFD"/>
<path fill-rule="evenodd" clip-rule="evenodd" d="M10.9123 31.4524L2.13281 25.9049V18.0576L10.9123 23.5965V31.4524Z" fill="#93F9F6"/>
<path fill-rule="evenodd" clip-rule="evenodd" d="M0.580177 23.3796C0.440996 23.071 0.472142 22.7714 0.649569 22.7101C0.826995 22.6492 1.08446 22.8499 1.22364 23.1586C1.36282 23.4672 1.33207 23.7668 1.15425 23.8276C0.976428 23.8889 0.719359 23.6882 0.580177 23.3796Z" fill="#CACACA"/>
<path fill-rule="evenodd" clip-rule="evenodd" d="M0.532124 23.4143C0.392548 23.1057 0.4237 22.8061 0.601521 22.7453C0.779342 22.6844 1.03602 22.8847 1.17559 23.1933C1.31477 23.5019 1.28363 23.8015 1.1062 23.8624C0.92838 23.9236 0.671305 23.7229 0.532124 23.4143Z" fill="#979797"/>
<path fill-rule="evenodd" clip-rule="evenodd" d="M2.46631 25.4046L2.46749 25.1849L2.95246 24.875L2.94773 25.096L2.46631 25.4046Z" fill="#979797"/>
<path fill-rule="evenodd" clip-rule="evenodd" d="M0.133301 23.6152L0.336747 23.7451L0.952222 23.3536L0.748776 23.2241L0.133301 23.6152Z" fill="#CACACA"/>
<path fill-rule="evenodd" clip-rule="evenodd" d="M0.336914 23.8353V23.7455L0.952389 23.354V23.4442L0.336914 23.8353Z" fill="#666666"/>
<path fill-rule="evenodd" clip-rule="evenodd" d="M2.95159 24.8797L2.46662 25.1892L0 23.6215L0.484964 23.312L2.95159 24.8797Z" fill="#CACACA"/>
<path fill-rule="evenodd" clip-rule="evenodd" d="M2.46623 25.4047L2.46662 25.1893L0 23.6216V23.8365L2.46623 25.4047Z" fill="#666666"/>
<path fill-rule="evenodd" clip-rule="evenodd" d="M28.0685 54.7195L27.5776 55.0298V53.6058L28.0685 53.2959V54.7195Z" fill="#363636"/>
<path fill-rule="evenodd" clip-rule="evenodd" d="M27.5778 55.0296L17.8481 48.883V47.459L27.5778 53.6056V55.0296Z" fill="#D39F25"/>
<path fill-rule="evenodd" clip-rule="evenodd" d="M27.5777 55.0298L27.4878 54.9728V53.5488L27.5777 53.6058V55.0298Z" fill="#4D4D4D"/>
<path fill-rule="evenodd" clip-rule="evenodd" d="M28.0683 53.2956L27.5778 53.6055L17.8481 47.4589L18.3414 47.1533L28.0683 53.2956Z" fill="#EDC52E"/>
<path fill-rule="evenodd" clip-rule="evenodd" d="M28.0686 53.2957L27.5777 53.6057L27.4878 53.5487L27.9787 53.2388L28.0686 53.2957Z" fill="#666666"/>
<path fill-rule="evenodd" clip-rule="evenodd" d="M23.824 50.6153L23.3299 50.9209L21.7544 49.9255L22.2685 49.6333L23.824 50.6153Z" fill="#585857"/>
<path fill-rule="evenodd" clip-rule="evenodd" d="M23.3249 50.9181V51.3558C23.3249 51.3817 23.3135 51.4033 23.293 51.4158C23.2729 51.4283 23.2496 51.4283 23.2295 51.4154L21.8487 50.5292C21.7888 50.4908 21.7549 50.4256 21.7549 50.3497V49.9258L23.3249 50.9181Z" fill="#222221"/>
<path fill-rule="evenodd" clip-rule="evenodd" d="M23.2287 50.8577V51.1922C23.2287 51.2052 23.2228 51.216 23.2129 51.2224C23.2027 51.2289 23.1913 51.2285 23.181 51.2224L21.9118 50.4054C21.872 50.3799 21.8491 50.3363 21.8491 50.2858V49.9854L23.2287 50.8577Z" fill="#7C9A3F"/>
<path fill-rule="evenodd" clip-rule="evenodd" d="M23.7241 50.5524L23.2297 50.858L21.8481 49.9874L22.3643 49.6943L23.7241 50.5524Z" fill="#99BB57"/>
<path fill-rule="evenodd" clip-rule="evenodd" d="M17.9384 48.94L17.8481 48.883V47.459L17.938 47.516L17.9384 48.94Z" fill="#4D4D4D"/>
<path fill-rule="evenodd" clip-rule="evenodd" d="M18.4289 47.2064L17.938 47.5164L17.8481 47.4594L18.339 47.1499L18.4289 47.2064Z" fill="#666666"/>
<path fill-rule="evenodd" clip-rule="evenodd" d="M23.4093 50.7471L22.4196 50.11C22.3798 50.0845 22.3569 50.0409 22.3569 49.9904V49.6982L22.3636 49.6943L23.7219 50.5537L23.4093 50.7471Z" fill="#BDDE7B"/>
<path fill-rule="evenodd" clip-rule="evenodd" d="M22.3496 50.0269L23.4567 50.7171L23.2284 50.8578V50.9627L22.1974 50.3204C22.0207 50.2095 22.1721 49.9164 22.3496 50.0269Z" fill="#DBF6A5"/>
<path fill-rule="evenodd" clip-rule="evenodd" d="M22.7636 50.3326L23.0353 50.5019C23.1977 50.6029 23.0881 50.8213 22.9284 50.722L22.6512 50.5493C22.5203 50.4677 22.6319 50.2506 22.7636 50.3326Z" fill="white"/>
<path fill-rule="evenodd" clip-rule="evenodd" d="M26.3745 53.64C26.3935 53.9547 26.5382 54.2642 26.6978 54.3311C26.8575 54.398 26.9723 54.1969 26.9533 53.8822C26.9348 53.5675 26.7897 53.258 26.63 53.1916C26.4703 53.1246 26.356 53.3258 26.3745 53.64Z" fill="#4D4D4D"/>
<path fill-rule="evenodd" clip-rule="evenodd" d="M26.4148 53.6565C26.431 53.9276 26.5556 54.1944 26.6932 54.2518C26.8308 54.3092 26.9294 54.1361 26.9132 53.865C26.897 53.5939 26.7724 53.3272 26.6348 53.2698C26.4972 53.2124 26.3987 53.3855 26.4148 53.6565Z" fill="#7C9A3F"/>
<path fill-rule="evenodd" clip-rule="evenodd" d="M26.6015 54.0386L26.5991 53.2607C26.6106 53.2625 26.6224 53.2655 26.6346 53.2707C26.7631 53.3246 26.8798 53.5599 26.9082 53.8111L26.909 54.0204C26.9035 54.0658 26.8937 54.1055 26.8806 54.1396C26.8045 54.2527 26.6015 54.2207 26.6015 54.0386Z" fill="#DBF6A5"/>
<path fill-rule="evenodd" clip-rule="evenodd" d="M18.2979 48.5337C18.3168 48.8484 18.4615 49.1579 18.6212 49.2248C18.7813 49.2917 18.8956 49.0905 18.8767 48.7759C18.8577 48.4612 18.713 48.1517 18.5534 48.0853C18.3937 48.0179 18.2793 48.2191 18.2979 48.5337Z" fill="#4D4D4D"/>
<path fill-rule="evenodd" clip-rule="evenodd" d="M18.3382 48.5507C18.3543 48.8218 18.4789 49.0881 18.6165 49.146C18.7541 49.2034 18.8527 49.0303 18.8365 48.7592C18.8204 48.4881 18.6958 48.2218 18.5582 48.164C18.4206 48.1061 18.322 48.2796 18.3382 48.5507Z" fill="#7C9A3F"/>
<path fill-rule="evenodd" clip-rule="evenodd" d="M18.7486 49.051L18.3823 48.2503C18.4221 48.1687 18.4844 48.1329 18.5586 48.1639C18.6962 48.2213 18.8212 48.4881 18.8369 48.7588C18.8456 48.9064 18.8204 49.0251 18.7734 49.0933C18.764 49.0808 18.7557 49.0669 18.7486 49.051Z" fill="#DBF6A5"/>
</svg>
