<svg width="41" height="56" viewBox="0 0 41 56" fill="none" xmlns="http://www.w3.org/2000/svg">
<path opacity="0.1" d="M32.4395 26.5488L0 47.0526L13.5309 52.7634L40.4598 35.7431V32.2601L32.4395 26.5488Z" fill="black"/>
<path d="M13.8427 18.688L12.1919 17.6448L39.1182 0.625488L40.769 1.66914L13.8427 18.688Z" fill="#EFE1BC"/>
<path d="M13.8427 52.7632L12.1919 51.7201V17.6445L13.8427 18.6877V52.7632Z" fill="#CAA58B"/>
<path d="M13.8428 52.7633V18.6878L40.7691 1.66895V35.7445L13.8428 52.7633Z" fill="#DEBE97"/>
<path d="M16.6462 44.2552L15.5684 44.9362C15.5303 44.9602 15.4957 44.9631 15.4703 44.9478C15.4444 44.9319 15.4282 44.8974 15.4282 44.8475V43.4854C15.4282 43.3876 15.4909 43.2686 15.5684 43.2197L16.6462 42.5386C16.6847 42.5142 16.7198 42.5118 16.7452 42.5276C16.7706 42.5434 16.7863 42.578 16.7863 42.6269V43.989C16.7863 44.0873 16.7237 44.2063 16.6462 44.2552Z" fill="#F8F4F5"/>
<path d="M16.3516 42.2788C16.3262 42.2629 16.2912 42.2648 16.2526 42.2893L15.1749 42.9704C15.0973 43.0193 15.0347 43.1382 15.0347 43.2361L15.4285 43.485C15.4285 43.3872 15.4912 43.2682 15.5687 43.2193L16.6465 42.5382C16.685 42.5138 16.7201 42.5114 16.7455 42.5272C16.7455 42.5272 16.377 42.2951 16.3516 42.2788Z" fill="#E6DFE0"/>
<path d="M15.4285 44.8479V43.4857L15.0347 43.2368V44.5989C15.0347 44.6479 15.0504 44.6824 15.0759 44.6982C15.1013 44.714 15.4706 44.9476 15.4706 44.9476C15.4447 44.9323 15.4285 44.8973 15.4285 44.8479Z" fill="#D6C7CA"/>
<path d="M16.6326 42.6675L15.582 43.3317L15.5825 44.8071L16.6326 44.1433V42.6675Z" fill="#3E333B"/>
<path d="M16.1846 43.8069L16.6253 43.5269L16.8855 44.0837L16.4452 44.3638L16.1846 43.8069Z" fill="#FEB938"/>
<path d="M16.3077 43.22L16.748 42.9395L16.6253 43.527L16.1846 43.8071L16.3077 43.22Z" fill="#FB7610"/>
<path d="M16.1318 43.056L16.5721 42.7759L16.7478 42.9394L16.3075 43.22L16.1318 43.056Z" fill="#FEB938"/>
<path d="M16.1319 43.0557L16.3075 43.2197L16.1844 43.8067L16.4451 44.3636L16.1279 44.3885L16.1319 43.0557Z" fill="#E0660B"/>
<path d="M15.6973 44.1151L16.138 43.835L16.3987 44.3918L15.9579 44.6719L15.6973 44.1151Z" fill="#FEB938"/>
<path d="M15.8204 43.5281L16.2611 43.2476L16.138 43.8351L15.6973 44.1152L15.8204 43.5281Z" fill="#FB7610"/>
<path d="M15.6445 43.3641L16.0848 43.084L16.261 43.2475L15.8202 43.5281L15.6445 43.3641Z" fill="#FEB938"/>
<path d="M15.6446 43.3643L15.8202 43.5283L15.6971 44.1153L15.9578 44.6722L15.6406 44.6966L15.6446 43.3643Z" fill="#FC9617"/>
<path opacity="0.2" d="M34.1517 42.6987L29.0259 45.9381L32.6021 48.1985L34.4115 48.1098L37.7275 46.0139V44.9587L34.1517 42.6987Z" fill="black"/>
<path opacity="0.3" d="M28.0242 22.065L29.0353 17.3714L16.881 25.0535L16.6816 29.0559L23.6948 24.6233L23.5257 28.3355L37.5586 19.4659L37.9429 15.7959L28.0242 22.065Z" fill="black"/>
<path d="M40.1034 16.6851L31.174 22.3287L29.0352 20.9767L37.9646 15.333L40.1034 16.6851Z" fill="#D46D17"/>
<path d="M40.1033 17.1503L31.1738 22.794V22.3287L40.1033 16.6851V17.1503Z" fill="#C75123"/>
<path d="M29.0352 20.9766V21.4418L31.174 22.7938V22.3286L29.0352 20.9766Z" fill="#C75123"/>
<path d="M31.174 22.3286L28.3219 24.1315L26.1831 22.7795L29.0352 20.9766L31.174 22.3286Z" fill="#D46D17"/>
<path d="M31.1738 22.7938L28.3218 24.5967V24.1315L31.1738 22.3286V22.7938Z" fill="#C75123"/>
<path d="M26.1831 22.7793V23.2445L28.3219 24.5966V24.1313L26.1831 22.7793Z" fill="#C75123"/>
<path d="M30.8058 19.4214V22.5615L28.6665 21.2094V20.7734L30.8058 19.4214Z" fill="#AD3D2B"/>
<path d="M31.1742 19.1885V22.3285L30.8062 22.5612V19.4211L31.1742 19.1885Z" fill="#C75123"/>
<path d="M31.1738 18.7231L27.9538 20.7582L25.8149 19.4061L29.035 17.3711L31.1738 18.7231Z" fill="#D46D17"/>
<path d="M31.1737 19.1884L27.9536 21.2234V20.7582L31.1737 18.7231V19.1884Z" fill="#C75123"/>
<path d="M27.954 20.7583L19.0245 26.4025L16.8853 25.0504L25.8151 19.4062L27.954 20.7583Z" fill="#D46D17"/>
<path d="M27.9539 21.2235L19.0244 26.8677V26.4025L27.9539 20.7583V21.2235Z" fill="#C75123"/>
<path d="M16.8853 25.0508V25.516L19.0245 26.8681V26.4028L16.8853 25.0508Z" fill="#AD3D2B"/>
<path d="M27.9538 21.2236V24.8294L25.8149 23.4774V22.5757L27.9538 21.2236Z" fill="#AD3D2B"/>
<path d="M28.3216 20.9907V24.5965L27.9536 24.8291V21.2233L28.3216 20.9907Z" fill="#C75123"/>
<path d="M19.1524 23.054C19.0275 23.1327 18.9268 23.3246 18.9268 23.4819V23.8593L19.378 23.5739V23.1965C19.378 23.1183 19.353 23.0632 19.3127 23.0368C19.2715 23.0114 19.215 23.0147 19.1524 23.054ZM19.1524 23.4785C19.0915 23.5169 19.0424 23.4857 19.0424 23.409C19.0424 23.3322 19.0915 23.2387 19.1524 23.2003C19.2133 23.162 19.2623 23.1931 19.2623 23.2699C19.2623 23.3466 19.2133 23.4401 19.1524 23.4785Z" fill="#E6DFE0"/>
<path d="M19.1522 23.0545C19.2148 23.0147 19.2714 23.0113 19.3125 23.0377C19.3125 23.0377 19.2735 23.0118 19.2315 22.9864C19.1907 22.9619 19.1351 22.9662 19.0738 23.0051C18.9489 23.0837 18.8481 23.2756 18.8481 23.4329V23.8104L18.9266 23.8598V23.4823C18.9266 23.325 19.0273 23.1336 19.1522 23.0545Z" fill="#F8F4F5"/>
<path d="M19.1839 23.2206C19.1839 23.2973 19.1348 23.3908 19.0739 23.4292C19.0643 23.4354 19.0551 23.4398 19.0459 23.4422C19.0582 23.494 19.1011 23.5107 19.1524 23.4786C19.2133 23.4402 19.2623 23.3467 19.2623 23.27C19.2623 23.2052 19.2273 23.1731 19.1804 23.1875C19.1826 23.1975 19.1839 23.2086 19.1839 23.2206Z" fill="#D6C7CA"/>
<path d="M19.2134 23.468C19.2563 23.4948 19.3255 23.4512 19.3684 23.3701C19.4114 23.2891 19.4114 23.2013 19.3684 23.1744C19.3255 23.1476 19.2563 23.1912 19.2134 23.2723C19.1704 23.3533 19.1704 23.4406 19.2134 23.468Z" fill="#363636"/>
<path d="M19.1723 23.2466C19.2153 23.1655 19.2845 23.1214 19.3274 23.1487C19.3401 23.1569 19.3682 23.1746 19.3682 23.1746C19.3252 23.1478 19.256 23.1914 19.2131 23.2725C19.1701 23.3535 19.1701 23.4413 19.2131 23.4682C19.2131 23.4682 19.1877 23.4523 19.1723 23.4423C19.1294 23.4154 19.1294 23.3276 19.1723 23.2466Z" fill="#666666"/>
<path d="M19.1821 23.187C19.1725 23.1894 19.1624 23.1942 19.1523 23.2004C19.13 23.2143 19.1094 23.2359 19.0923 23.2609C19.112 23.2733 19.1322 23.2858 19.1514 23.2983C19.1567 23.281 19.1633 23.2633 19.1725 23.246C19.1817 23.2287 19.1917 23.2134 19.2031 23.2C19.1961 23.1956 19.1891 23.1913 19.1821 23.187Z" fill="#363636"/>
<path d="M26.8057 18.2175C26.6808 18.2961 26.5801 18.488 26.5801 18.6453V19.0228L27.0313 18.7374V18.3599C27.0313 18.2817 27.0064 18.2266 26.966 18.2002C26.9249 18.1743 26.8684 18.1777 26.8057 18.2175ZM26.8057 18.6415C26.7448 18.6798 26.6957 18.6487 26.6957 18.5719C26.6957 18.4952 26.7448 18.4017 26.8057 18.3633C26.8666 18.3249 26.9157 18.3561 26.9157 18.4328C26.9157 18.51 26.8662 18.6036 26.8057 18.6415Z" fill="#E6DFE0"/>
<path d="M26.8055 18.2176C26.8682 18.1778 26.9251 18.1744 26.9659 18.2008C26.9659 18.2008 26.9269 18.1749 26.8848 18.1495C26.8441 18.125 26.7884 18.1293 26.7271 18.1677C26.6022 18.2464 26.5015 18.4382 26.5015 18.5955V18.973L26.5799 19.0229V18.6454C26.5799 18.4881 26.6806 18.2963 26.8055 18.2176Z" fill="#F8F4F5"/>
<path d="M26.8372 18.3837C26.8372 18.4604 26.7882 18.5539 26.7273 18.5923C26.7176 18.5985 26.7084 18.6028 26.6992 18.6052C26.7115 18.657 26.7544 18.6743 26.8057 18.6417C26.8666 18.6033 26.9156 18.5098 26.9156 18.4331C26.9156 18.3683 26.8806 18.3362 26.8337 18.3506C26.8359 18.3606 26.8372 18.3717 26.8372 18.3837Z" fill="#D6C7CA"/>
<path d="M26.8667 18.631C26.9096 18.6579 26.9788 18.6143 27.0218 18.5332C27.0647 18.4521 27.0647 18.3644 27.0218 18.3375C26.9788 18.3107 26.9096 18.3543 26.8667 18.4353C26.8237 18.5164 26.8237 18.6042 26.8667 18.631Z" fill="#363636"/>
<path d="M26.8257 18.4095C26.8686 18.3284 26.9378 18.2848 26.9807 18.3116C26.9934 18.3198 27.0215 18.3375 27.0215 18.3375C26.9786 18.3107 26.9093 18.3543 26.8664 18.4354C26.8235 18.5164 26.8235 18.6042 26.8664 18.6311C26.8664 18.6311 26.841 18.6152 26.8257 18.6052C26.7827 18.5783 26.7827 18.4905 26.8257 18.4095Z" fill="#666666"/>
<path d="M26.8354 18.3506C26.8258 18.353 26.8157 18.3578 26.8056 18.364C26.7833 18.3779 26.7627 18.3995 26.7456 18.4245C26.7653 18.4369 26.7855 18.4494 26.8047 18.4619C26.81 18.4446 26.8166 18.4268 26.8258 18.4096C26.835 18.3923 26.8451 18.377 26.8564 18.3635C26.8494 18.3592 26.8424 18.3549 26.8354 18.3506Z" fill="#363636"/>
<path d="M31.5972 18.7941C31.4723 18.8728 31.3716 19.0646 31.3716 19.222V19.5994L31.8228 19.314V18.9366C31.8228 18.8584 31.7979 18.8032 31.7576 18.7769C31.7164 18.751 31.6599 18.7543 31.5972 18.7941ZM31.5972 19.2181C31.5363 19.2565 31.4872 19.2253 31.4872 19.1486C31.4872 19.0718 31.5363 18.9783 31.5972 18.9399C31.6581 18.9016 31.7072 18.9327 31.7072 19.0095C31.7072 19.0867 31.6577 19.1797 31.5972 19.2181Z" fill="#E6DFE0"/>
<path d="M31.597 18.7943C31.6597 18.7544 31.7162 18.7511 31.7574 18.7775C31.7574 18.7775 31.7184 18.7516 31.6763 18.7261C31.6356 18.7017 31.5799 18.706 31.5186 18.7444C31.3937 18.823 31.293 19.0149 31.293 19.1722V19.5497L31.3714 19.5995V19.2221C31.371 19.0648 31.4722 18.8729 31.597 18.7943Z" fill="#F8F4F5"/>
<path d="M31.6282 18.9598C31.6282 19.0366 31.5792 19.1301 31.5183 19.1685C31.5086 19.1747 31.4994 19.179 31.4902 19.1814C31.5025 19.2332 31.5454 19.25 31.5967 19.2179C31.6576 19.1795 31.7067 19.086 31.7067 19.0092C31.7067 18.9445 31.6721 18.9123 31.6247 18.9267C31.6274 18.9368 31.6282 18.9478 31.6282 18.9598Z" fill="#D6C7CA"/>
<path d="M31.6574 19.2077C31.7003 19.2346 31.7695 19.1909 31.8125 19.1098C31.8554 19.0288 31.8554 18.941 31.8125 18.9142C31.7695 18.8873 31.7003 18.931 31.6574 19.012C31.6149 19.0931 31.6149 19.1808 31.6574 19.2077Z" fill="#363636"/>
<path d="M31.6168 18.9856C31.6598 18.9046 31.729 18.8609 31.7719 18.8878C31.7846 18.896 31.8127 18.9137 31.8127 18.9137C31.7697 18.8868 31.7005 18.9305 31.6576 19.0115C31.6146 19.0926 31.6146 19.1804 31.6576 19.2072C31.6576 19.2072 31.6322 19.1909 31.6168 19.1813C31.5743 19.1545 31.5743 19.0667 31.6168 18.9856Z" fill="#666666"/>
<path d="M31.6269 18.9268C31.6173 18.9292 31.6076 18.9335 31.5971 18.9402C31.5748 18.9541 31.5542 18.9757 31.5371 19.0006C31.5568 19.0131 31.577 19.0256 31.5963 19.038C31.6015 19.0208 31.6081 19.003 31.6173 18.9858C31.6265 18.9685 31.6366 18.9531 31.6479 18.9397C31.6405 18.9354 31.6339 18.9311 31.6269 18.9268Z" fill="#363636"/>
<path d="M36.3067 15.8174C36.1822 15.8961 36.0811 16.0879 36.0811 16.2453V16.6227L36.5323 16.3373V15.9599C36.5323 15.8817 36.5073 15.8265 36.467 15.8002C36.4258 15.7743 36.3693 15.7781 36.3067 15.8174ZM36.3067 16.2419C36.2458 16.2803 36.1967 16.2491 36.1967 16.1723C36.1967 16.0956 36.2458 16.0021 36.3067 15.9637C36.3676 15.9253 36.4166 15.9565 36.4166 16.0333C36.4166 16.11 36.3671 16.2035 36.3067 16.2419Z" fill="#E6DFE0"/>
<path d="M36.3065 15.8172C36.3691 15.7774 36.4256 15.774 36.4668 15.8004C36.4668 15.8004 36.4274 15.7745 36.3858 15.7491C36.345 15.7246 36.2894 15.7289 36.2281 15.7678C36.1036 15.8464 36.0024 16.0383 36.0024 16.1956V16.573L36.0809 16.6225V16.245C36.0809 16.0877 36.1816 15.8963 36.3065 15.8172Z" fill="#F8F4F5"/>
<path d="M36.3377 15.9838C36.3377 16.0605 36.2886 16.154 36.2277 16.1924C36.2181 16.1986 36.2089 16.2029 36.1997 16.2053C36.212 16.2571 36.2549 16.2739 36.3062 16.2418C36.3671 16.2034 36.4161 16.1099 36.4161 16.0331C36.4161 15.9684 36.3815 15.9363 36.3342 15.9507C36.3368 15.9602 36.3377 15.9713 36.3377 15.9838Z" fill="#D6C7CA"/>
<path d="M36.3668 16.2311C36.4098 16.258 36.479 16.2143 36.5219 16.1333C36.5649 16.0522 36.5649 15.9645 36.5219 15.9376C36.479 15.9107 36.4098 15.9544 36.3668 16.0355C36.3243 16.116 36.3243 16.2038 36.3668 16.2311Z" fill="#363636"/>
<path d="M36.3263 16.0098C36.3692 15.9287 36.4385 15.8846 36.4814 15.9119C36.4941 15.9196 36.5221 15.9378 36.5221 15.9378C36.4792 15.911 36.41 15.9546 36.367 16.0357C36.3241 16.1167 36.3241 16.2045 36.367 16.2313C36.367 16.2313 36.3416 16.2155 36.3263 16.2054C36.2838 16.1786 36.2838 16.0908 36.3263 16.0098Z" fill="#666666"/>
<path d="M36.3364 15.9497C36.3267 15.9521 36.3171 15.9564 36.3066 15.9631C36.2843 15.977 36.2637 15.9986 36.2466 16.0236C36.2663 16.036 36.2865 16.0485 36.3057 16.061C36.311 16.0437 36.3175 16.026 36.3267 16.0087C36.3359 15.9914 36.346 15.9761 36.3574 15.9627C36.3504 15.9583 36.3434 15.954 36.3364 15.9497Z" fill="#363636"/>
<path d="M34.4116 45.5181V48.1099L34.674 47.944V45.3838L34.437 45.5339L34.4116 45.5181Z" fill="#D46D17"/>
<path d="M32.9437 46.1172L32.7075 47.0333L32.9704 46.8673L33.1303 46.2462L33.1277 46.2337L32.9437 46.1172Z" fill="#A14D02"/>
<path d="M31.6606 43.7788V46.3712L32.7077 47.033L32.9439 46.117L33.1279 46.2335L33.364 47.4479L34.4115 48.1098V45.5179L31.6606 43.7788Z" fill="#BF5902"/>
<g opacity="0.3">
<path d="M34.6739 45.3836L34.4369 45.5337L31.6606 43.7788V46.3712L32.7077 47.033L32.9706 46.8671L33.0954 46.3817L33.1502 46.3472L33.364 47.4479L34.4115 46.0896L34.6739 45.9237V45.3836Z" fill="black"/>
</g>
<path d="M35.8973 44.6108L35.7725 45.0961L36.0349 44.9302L36.1602 44.4443L35.8973 44.6108Z" fill="#A14D02"/>
<path d="M37.4756 46.1729L37.738 46.0065V43.4468L37.4756 43.6127V46.1729Z" fill="#D46D17"/>
<path d="M35.4507 44.8929L35.7723 45.0963L35.8971 44.6109L36.2143 44.4099L36.4281 45.5106L37.4756 46.173V43.6128L35.4507 44.8929Z" fill="#BF5902"/>
<g opacity="0.5">
<path d="M37.738 43.4468L35.4507 44.8928L35.7723 45.0962L36.0347 44.9302L36.16 44.4444L36.2143 44.4099L36.4281 45.5106L37.4756 44.1528L37.738 43.9868V43.4468Z" fill="black"/>
</g>
<path d="M30.9346 42.8501V43.3201L34.4368 45.5336V45.0635L30.9346 42.8501Z" fill="#BF5902"/>
<path d="M38.4641 42.5186V42.9886L34.437 45.5339V45.0639L38.4641 42.5186Z" fill="#D46D17"/>
<path d="M34.9621 40.3047L30.9346 42.85L34.4368 45.0635L38.4638 42.5181L34.9621 40.3047Z" fill="#E38030"/>
<path opacity="0.4" d="M33.5759 44.5199C34.4065 44.4916 35.3774 44.2019 36.1848 43.6911C37.0623 43.1362 37.528 42.46 37.4978 41.9079L35.8978 40.8964C35.0243 40.8772 33.954 41.1717 33.0764 41.7266C32.269 42.2369 31.8099 42.8508 31.7656 43.3755L33.5759 44.5199Z" fill="black"/>
<path d="M30.6185 19.4109C30.6242 19.3744 30.6452 19.3581 30.6558 19.3552C30.7653 19.324 30.884 19.3965 30.9594 19.489C30.9909 19.5274 31.0474 19.6195 31.0685 19.6655C31.1048 19.5389 31.0895 19.43 31.1013 19.3332C31.1171 19.2051 31.1158 19.1312 31.0799 18.9658C31.0606 18.877 31.0273 18.7797 31.0658 18.6986C31.0737 18.6818 31.0851 18.6665 31.1 18.6569C31.1294 18.6387 31.1662 18.6463 31.1981 18.6579C31.3046 18.6972 31.4833 18.7878 31.6043 18.9475C31.7462 19.1356 31.808 19.2842 31.8426 19.3571C31.9184 19.5159 31.953 19.6953 31.9714 19.8727C31.9902 20.0502 31.9718 20.2368 31.893 20.3931C31.8838 20.4118 31.8163 20.4751 31.7926 20.4852C31.6875 20.5312 31.5727 20.5658 31.4619 20.5418C31.4154 20.5317 31.3708 20.5121 31.3283 20.489C31.1057 20.3677 30.9278 20.1519 30.8402 19.8972C30.8192 19.8358 30.8025 19.7715 30.7657 19.7202C30.7359 19.679 30.6943 19.6487 30.6641 19.6075C30.6242 19.5538 30.6076 19.4799 30.6185 19.4109Z" fill="#FFCEA1"/>
<path d="M31.1937 20.4781C31.2437 20.3381 31.33 20.2119 31.4496 20.1179C31.5871 20.01 31.747 19.9616 31.9039 19.9678C31.9762 19.9707 32.048 19.9856 32.1164 20.011C32.2548 20.0628 32.381 20.1616 32.473 20.3016C32.473 20.3016 34.1146 22.8067 34.1154 22.8076C34.4817 23.3659 34.0418 24.1664 33.4175 24.07C33.2199 24.0398 33.0399 23.9199 32.9238 23.7429L31.2822 21.2374C31.1315 21.0091 31.1074 20.7227 31.1937 20.4781Z" fill="#D9B9AE"/>
<path d="M34.0018 22.7317C33.6807 22.4617 33.2206 22.5274 32.9735 22.879C32.7269 23.2305 32.8951 23.832 33.2158 24.1025L35.2513 25.7346C35.5724 26.0046 36.0328 25.9389 36.2795 25.5874C36.5261 25.2358 36.4661 24.7322 36.145 24.4617L34.0018 22.7317Z" fill="#D9B9AE"/>
<path d="M34.8071 41.5411C34.8071 41.0946 35.2873 40.8486 36.0005 41.0548L36.7256 40.8725C36.9652 40.8126 37.1939 41.0116 37.1939 41.2807V42.3267L37.1874 42.3243C37.197 42.4231 37.1475 42.5234 37.0283 42.5992C36.8071 42.7387 36.4487 42.7387 36.2275 42.5992L34.9736 41.8064C34.8584 41.7335 34.8063 41.637 34.8115 41.5416L34.8071 41.5411Z" fill="black"/>
<path d="M36.6826 36.4097L34.7147 36.4385L34.7138 36.391L34.6836 33.9104L34.645 30.7641L36.5166 30.7349C36.5166 30.7349 36.8325 31.3737 36.8325 32.5502C36.8325 33.5593 36.652 34.1579 36.6769 35.9503L36.6826 36.4097Z" fill="#0258BF"/>
<path d="M34.7149 36.3922C34.7565 36.0047 35.0146 35.3433 35.3607 35.2493C35.6472 35.1711 35.9258 35.245 36.1983 35.4776C36.4713 35.7102 36.6781 36.0987 36.682 36.4104C36.7 37.3486 36.9593 39.1994 37.2875 41.2119C37.3028 41.3683 37.2239 41.5352 37.047 41.6762C36.6934 41.9587 36.0827 42.0306 35.6823 41.8364C35.482 41.7395 35.3725 41.5946 35.3572 41.4383C35.2836 41.2225 34.6733 36.7797 34.7149 36.3922Z" fill="#0258BF"/>
<path d="M37.0818 39.904L37.0191 39.4849C37.0362 39.6422 36.9736 39.8067 36.7966 39.9515C36.4426 40.2412 35.8266 40.3213 35.4205 40.1309C35.2242 40.0388 35.1199 39.8997 35.0972 39.7486L35.1537 40.153C35.1765 40.3136 35.2724 40.4547 35.4752 40.5501C35.8814 40.741 36.4973 40.6604 36.8513 40.3707C37.0288 40.2249 37.1063 40.0652 37.0818 39.904Z" fill="#FFC50C"/>
<path opacity="0.2" d="M35.6303 33.541C35.1764 34.1664 34.8794 35.8048 34.8763 38.0681C34.8185 37.4873 34.7431 37.2398 34.7133 36.3909L34.6831 33.9103C35.0248 33.9098 35.3665 33.7794 35.6303 33.541Z" fill="#1D1D1B"/>
<path d="M32.2539 43.1707C32.2539 42.7247 32.7341 42.4782 33.4473 42.6844L34.0427 42.5347C34.3485 42.458 34.6407 42.7122 34.6407 43.0561V43.9568L34.6341 43.9544C34.6438 44.0532 34.5943 44.1535 34.4751 44.2292C34.2539 44.3688 33.8955 44.3688 33.6742 44.2292L32.4204 43.4364C32.3052 43.3635 32.253 43.2671 32.2583 43.1717L32.2539 43.1707Z" fill="black"/>
<path d="M33.1556 31.7445L32.5864 37.3857L34.5426 37.6223L35.1118 31.981L33.1556 31.7445Z" fill="#0258BF"/>
<path d="M32.5751 37.4336C32.6452 37.0509 32.9347 36.7592 33.2865 36.6959C33.5779 36.6437 33.8526 36.7856 34.1049 36.9976C34.3573 37.2096 34.4383 37.4206 34.5347 37.6245C34.4637 38.7257 34.6403 41.1281 34.7432 42.9027C34.734 43.0595 34.6302 43.2092 34.4339 43.3152C34.0414 43.5272 33.4285 43.483 33.0644 43.2173C32.8826 43.0845 32.7972 42.9209 32.8068 42.7641C32.7485 42.542 32.505 37.8168 32.5751 37.4336Z" fill="#0258BF"/>
<path d="M34.6352 41.1254C34.6335 41.289 34.5537 41.4496 34.361 41.5719C33.9754 41.817 33.3546 41.8098 32.9739 41.5561C32.7899 41.4338 32.7006 41.2923 32.6909 41.1201L32.715 41.5465C32.7251 41.7158 32.7899 41.8654 32.9814 41.9921C33.3647 42.2458 33.9903 42.253 34.3785 42.0079C34.5726 41.8856 34.6685 41.7307 34.6619 41.5666L34.6352 41.1254Z" fill="#FFC50C"/>
<path d="M36.5927 31.0829C36.7193 32.1184 33.1256 33.4801 33.0927 32.2499C33.0384 30.2215 32.8325 29.3184 32.7523 28.1251C32.6638 27.0292 32.5933 26.1467 32.5933 26.1467C32.7624 25.6469 33.0831 25.234 34.2576 24.6628C34.9104 24.3452 35.2153 24.2939 35.6933 24.316C36.5651 24.3563 36.6475 25.5179 36.6777 26.245C36.7106 27.0412 36.6116 27.8023 36.5511 28.5908C36.4876 29.4211 36.5222 30.2546 36.5927 31.0829Z" fill="#0258BF"/>
<path d="M33.6128 25.6606C34.2401 26.0275 34.1337 26.8788 34.1389 27.6414C34.1442 28.4035 33.6434 28.4702 33.0844 28.2735C32.9657 28.2328 32.8176 28.1834 32.7528 28.1253C32.656 27.0399 32.5938 26.1469 32.5938 26.1469C32.6454 25.9944 32.7155 25.8495 32.8159 25.7061C33.0253 25.5502 33.293 25.4735 33.6128 25.6606Z" fill="#E4C6BB"/>
<path opacity="0.4" d="M33.6475 27.2669C33.308 27.3283 33.3111 27.8353 33.2055 27.9509C33.0999 28.0665 33.0206 28.2276 32.7525 28.125L32.6548 26.9614L33.6475 27.2669Z" fill="#1D1D1B"/>
<path d="M33.1519 25.3385C33.3976 25.1289 33.7446 24.9121 34.2581 24.6623C34.6401 24.4766 34.9017 24.3884 35.1496 24.3462C35.1996 24.3745 35.2486 24.4042 35.3008 24.4277C35.8063 24.6522 36.0254 25.1193 36.1121 25.586C36.1546 25.8138 36.0477 26.0445 35.8637 26.1606L35.504 26.3879C35.1492 26.6124 34.673 26.4901 34.4456 26.1169L34.3212 25.9126C34.0653 25.4944 33.7109 25.2618 33.2531 25.3145C33.2198 25.3184 33.1847 25.3299 33.1519 25.3385Z" fill="#E4C6BB"/>
<path d="M35.0516 22.8302C35.0397 23.0676 35.0279 23.306 34.9788 23.5376C34.9298 23.7688 34.8417 23.9952 34.695 24.1698C34.5293 24.3659 34.291 24.4839 34.0479 24.4988C33.9716 24.5041 33.895 24.4988 33.8196 24.4825C33.7447 24.4662 33.6702 24.4393 33.6084 24.3899C33.5121 24.3132 33.4573 24.1918 33.4183 24.0667V24.0657C33.4095 24.0379 33.4017 24.0096 33.3942 23.9818C33.3062 23.6499 33.2562 23.3084 33.2339 22.9635C33.2264 22.848 33.2781 22.7679 33.2764 22.6518C33.2751 22.5645 33.2194 22.4412 33.2207 22.3539C33.2229 22.2312 33.2277 22.1084 33.2347 21.9856C33.2404 21.8863 33.2479 21.7856 33.2764 21.6911C33.3605 21.4115 33.6225 21.2268 33.8897 21.1904C34.157 21.1539 34.4264 21.2427 34.67 21.3688C34.7366 21.4033 34.8036 21.4417 34.857 21.4978C34.9079 21.5515 34.9442 21.6192 34.9911 21.6767C35.0494 21.7477 35.0695 22.4738 35.0516 22.8302Z" fill="#FFCEA1"/>
<path opacity="0.1" d="M34.094 23.9395C34.0945 24.0825 34.0909 24.2259 34.0879 24.3688C34.087 24.3995 34.0866 24.4316 34.0747 24.4594C34.0686 24.4748 34.059 24.4877 34.048 24.4988C33.9718 24.504 33.8951 24.4988 33.8198 24.4825C33.7448 24.4662 33.6704 24.4393 33.6086 24.3899C33.5122 24.3132 33.4574 24.1918 33.4185 24.0666V24.0657C33.6699 24.3314 33.8316 24.105 33.8903 23.3491C33.9332 23.7031 34.0936 23.5822 34.094 23.9395Z" fill="#1D1D1B"/>
<path d="M35.4069 22.7075V24.8557C35.4069 24.9785 35.3329 25.1018 35.1848 25.1953C34.8886 25.3828 34.4089 25.3828 34.1127 25.1953C33.9647 25.1013 33.8906 24.9785 33.8906 24.8557V22.7075H35.4069Z" fill="#FFCEA1"/>
<path opacity="0.1" d="M35.4069 24.2121C35.4069 24.3339 35.3425 24.4461 35.2404 24.4941C35.0783 24.5703 34.8869 24.6106 34.7528 24.6125C34.5723 24.6149 34.3826 24.6053 34.2271 24.5051C34.0435 24.3866 33.9357 24.2173 33.8906 24.0034V23.4902H35.4069V24.2121Z" fill="#1D1D1B"/>
<path d="M33.5487 22.2029C33.7722 22.3444 33.8725 22.6106 33.8962 22.8921C33.9198 23.1736 33.8817 23.4576 33.9045 23.7391C33.9273 24.0206 34.0399 24.2369 34.262 24.3808C34.4175 24.4816 34.6072 24.4912 34.7877 24.4883C35.0243 24.4849 35.44 24.3626 35.557 24.1343C36.6873 21.1885 34.9932 20.9376 34.5603 20.906C33.8002 20.8508 32.8749 21.354 33.2342 22.0082C33.2894 22.1089 33.4716 22.1544 33.5487 22.2029Z" fill="#2F2F2F"/>
<path d="M33.9541 22.7072C33.8708 22.711 33.8091 22.7863 33.7828 22.8583C33.7499 22.9484 33.7504 23.0434 33.7512 23.1364C33.7521 23.2549 33.7543 23.3777 33.8121 23.4813C33.8279 23.5091 33.8489 23.536 33.8813 23.5475C33.93 23.5643 33.9896 23.5388 34.0233 23.5C34.057 23.4611 34.0702 23.4122 34.0807 23.3652C34.1109 23.2285 34.1262 23.0899 34.1254 22.9523C34.1249 22.8971 34.1219 22.8405 34.096 22.7921C34.0697 22.7436 34.0159 22.7043 33.9541 22.7072Z" fill="#FFCEA1"/>
<path d="M33.4601 27.2623L30.1927 26.9434C30.0933 26.9338 29.9999 26.9031 29.9167 26.8556C29.6998 26.7309 29.5491 26.4925 29.5259 26.2191C29.522 26.1717 29.522 26.1232 29.5259 26.0743C29.5443 25.8383 29.6547 25.635 29.8151 25.5026C29.9544 25.3875 30.1318 25.3261 30.3193 25.3438L33.2901 25.5654C34.0038 25.6474 34.653 27.3674 33.4601 27.2623Z" fill="#E4C6BB"/>
<path d="M27.6587 23.6191C27.5974 23.5045 27.5847 23.4522 27.5698 23.3688C27.558 23.3011 27.5479 23.221 27.5777 23.1606C27.5943 23.1275 27.6412 23.1035 27.6758 23.104C27.7179 23.1045 27.745 23.151 27.7639 23.1918C27.8011 23.2709 27.8383 23.3501 27.8751 23.4292C27.9163 23.517 27.9522 23.6527 28.0315 23.7649C27.9216 23.7712 27.7148 23.7237 27.6587 23.6191Z" fill="#FFCEA1"/>
<path d="M27.6134 24.7263C27.8031 24.7426 27.977 24.5978 28.0738 24.4299C28.1299 24.333 28.1513 24.1896 28.1575 24.075C28.1645 23.9388 28.0738 23.7776 27.9805 23.687C27.8872 23.5963 27.5472 23.5321 27.3128 23.2165C27.2217 23.0942 27.0745 22.8083 26.8655 22.9805C26.6565 23.1527 26.6495 23.3719 26.6578 23.629C26.6657 23.8856 26.844 24.1359 26.9343 24.2568C26.9974 24.3417 27.096 24.4453 27.1897 24.5115C27.3168 24.6002 27.4539 24.7119 27.6134 24.7263Z" fill="#FFCEA1"/>
<path d="M29.8285 26.8107L27.9149 25.403C27.5789 25.1556 27.4523 24.9498 27.5653 24.6524C27.5653 24.6524 27.9802 23.4817 28.5896 23.9618L30.6469 25.4783L30.6474 25.4788C30.8839 25.6534 30.9983 25.9527 30.9659 26.2428C30.9523 26.3642 30.9129 26.4841 30.8463 26.593C30.6202 26.9608 30.1646 27.0587 29.8285 26.8107Z" fill="#E4C6BB"/>
<path d="M32.8782 20.778C33.0985 20.6514 33.3518 20.5411 33.6611 20.6102C33.9704 20.6792 33.9603 20.7104 34.6731 21.0716L33.8162 22.6716L32.5632 22.0025C32.1785 21.7905 32.3827 21.0624 32.8782 20.778Z" fill="#186FD9"/>
<path d="M33.4335 22.4413C33.635 22.625 33.8957 22.7703 34.1761 22.8648C34.6939 23.0393 35.2508 22.977 35.5938 22.7823C36.0424 22.5276 36.1117 22.3228 36.0135 21.7137C35.9167 21.1113 35.3537 20.5266 34.9248 20.471C34.4044 20.4034 33.7822 20.5381 33.5181 21.0043C33.1636 21.6293 33.1255 21.8883 33.2302 22.142C33.285 22.2753 33.3669 22.3712 33.4335 22.4413Z" fill="#0258BF"/>
<path d="M35.3302 22.7549C35.3609 22.7492 35.3798 22.7444 35.4043 22.7367C35.4617 22.718 35.5173 22.6926 35.5716 22.6638C35.6724 22.6096 35.7697 22.5401 35.8459 22.4485C35.8608 22.4307 35.8766 22.4134 35.8866 22.3923C35.9011 22.3626 35.8963 22.3228 35.8945 22.2902C35.8932 22.2619 35.8897 22.2331 35.8818 22.2058C35.8704 22.166 35.8494 22.1285 35.8144 22.1098C35.75 22.0758 35.6702 22.1118 35.6137 22.1487C35.5992 22.1578 35.5852 22.1669 35.5708 22.1751C35.4113 22.27 35.2891 22.4734 35.2891 22.7017C35.2891 22.7348 35.3 22.7607 35.3302 22.7549Z" fill="#2F2F2F"/>
<path opacity="0.1" d="M33.7218 21.3608C33.6254 21.757 33.5996 22.0414 33.6372 22.2606C33.6806 22.5138 33.8151 22.6812 34.1231 22.8467C33.8624 22.7522 33.6219 22.6136 33.4331 22.4414C33.3691 22.3743 33.2911 22.2832 33.2368 22.1585C33.4445 22.3565 33.5396 21.8788 33.7218 21.3608Z" fill="black"/>
<g opacity="0.2">
<path d="M21.4783 55.3631L16.9355 52.4921L20.1968 50.4307L24.7391 53.3017L21.4783 55.3631Z" fill="black"/>
<path d="M19.9492 54.7689L16.1074 52.3406L18.8657 50.5977L22.707 53.0255L19.9492 54.7689Z" fill="black"/>
<path d="M18.6185 54.2315L15.582 52.3125L17.762 50.9346L20.7981 52.854L18.6185 54.2315Z" fill="black"/>
</g>
<path d="M24.2931 52.8301L21.912 54.3352L18.5925 52.2368L18.0659 52.5697L21.912 55.0009L24.7387 53.2143C24.761 53.1999 24.7821 53.1769 24.7983 53.15L24.2931 52.8301Z" fill="#E67B00"/>
<path d="M24.8332 53.0357V52.6083C24.8332 52.5426 24.7911 52.5158 24.739 52.5488L24.293 52.8309L24.7981 53.1503C24.8196 53.1148 24.8332 53.0731 24.8332 53.0357Z" fill="#D67200"/>
<path d="M18.0659 51.8169V51.9047L21.912 54.3354V54.2476L18.0659 51.8169Z" fill="#F09E02"/>
<path d="M21.9404 54.2388L24.6764 52.5093V53.175L21.9404 54.904V54.2388Z" fill="#EFE1BC"/>
<g opacity="0.5">
<path opacity="0.3" d="M21.9404 54.877L24.6764 53.1479V53.1753L21.9404 54.9043V54.877Z" fill="black"/>
<path opacity="0.3" d="M21.9404 54.8189L24.6764 53.0898V53.1172L21.9404 54.8462V54.8189Z" fill="black"/>
<path opacity="0.3" d="M21.9404 54.7608L24.6764 53.0317V53.0591L21.9404 54.7881V54.7608Z" fill="black"/>
<path opacity="0.3" d="M21.9404 54.7032L24.6764 52.9741V53.0015L21.9404 54.7305V54.7032Z" fill="black"/>
<path opacity="0.3" d="M21.9404 54.645L24.6764 52.916V52.9434L21.9404 54.6724V54.645Z" fill="black"/>
<path opacity="0.3" d="M21.9404 54.5869L24.6764 52.8579V52.8853L21.9404 54.6148V54.5869Z" fill="black"/>
<path opacity="0.3" d="M21.9404 54.5293L24.6764 52.7998V52.8271L21.9404 54.5566V54.5293Z" fill="black"/>
<path opacity="0.3" d="M21.9404 54.4712L24.6764 52.7417V52.769L21.9404 54.4985V54.4712Z" fill="black"/>
<path opacity="0.3" d="M21.9404 54.4131L24.6764 52.6836V52.7109L21.9404 54.4404V54.4131Z" fill="black"/>
<path opacity="0.3" d="M21.9404 54.355L24.6764 52.6255V52.6533L21.9404 54.3823V54.355Z" fill="black"/>
<path opacity="0.3" d="M21.9404 54.2969L24.6764 52.5674V52.5952L21.9404 54.3242V54.2969Z" fill="black"/>
</g>
<path d="M21.9405 54.3176L21.9121 54.3353L18.2197 52.0015V52.5521L21.9405 54.9037V54.3176Z" fill="#DEBE97"/>
<g opacity="0.5">
<path opacity="0.3" d="M21.9405 54.8765L18.2197 52.5249V52.5522L21.9405 54.9038V54.8765Z" fill="black"/>
<path opacity="0.3" d="M21.9405 54.8184L18.2197 52.4668V52.4941L21.9405 54.8457V54.8184Z" fill="black"/>
<path opacity="0.3" d="M21.9405 54.7603L18.2197 52.4087V52.436L21.9405 54.7876V54.7603Z" fill="black"/>
<path opacity="0.3" d="M21.9405 54.7027L18.2197 52.3511V52.3784L21.9405 54.73V54.7027Z" fill="black"/>
<path opacity="0.3" d="M21.9405 54.6445L18.2197 52.293V52.3203L21.9405 54.6719V54.6445Z" fill="black"/>
<path opacity="0.3" d="M21.9405 54.5864L18.2197 52.2349V52.2622L21.9405 54.6143V54.5864Z" fill="black"/>
<path opacity="0.3" d="M21.9405 54.5288L18.2197 52.1768V52.2041L21.9405 54.5561V54.5288Z" fill="black"/>
<path opacity="0.3" d="M21.9405 54.4707L18.2197 52.1187V52.146L21.9405 54.498V54.4707Z" fill="black"/>
<path opacity="0.3" d="M21.9405 54.4126L18.2197 52.0605V52.0879L21.9405 54.4399V54.4126Z" fill="black"/>
<path opacity="0.3" d="M21.9405 54.3176L21.9121 54.3353L18.2197 52.0015V52.0298L21.9405 54.3818V54.3176Z" fill="black"/>
</g>
<path d="M18.0659 52.5698V52.6576L21.912 55.0888V55.001L18.0659 52.5698Z" fill="#F09E02"/>
<path d="M24.8329 53.0355C24.8329 53.1012 24.7908 53.1813 24.7387 53.2139L21.9121 55.0005V55.0883L24.7387 53.3017C24.829 53.2446 24.9021 53.1055 24.9021 52.9914V52.564C24.9021 52.5074 24.8842 52.4676 24.8548 52.4484C24.825 52.4292 24.7838 52.4316 24.7383 52.4604L21.9116 54.247V54.3348L24.7383 52.5482C24.7904 52.5156 24.8325 52.542 24.8325 52.6077V53.0355H24.8329Z" fill="#FFAD0D"/>
<path d="M21.912 54.2476L24.7387 52.461C24.7843 52.4323 24.8254 52.4299 24.8552 52.4491C24.8552 52.4491 21.038 50.0366 21.0087 50.0179C20.9789 49.9992 20.9381 50.0016 20.8926 50.0303L18.0659 51.8169L21.912 54.2476Z" fill="#FCC901"/>
<path d="M21.5446 52.8519C21.5446 52.7886 21.5854 52.7119 21.6353 52.6802L23.8915 51.2543V51.1699L21.6353 52.5958C21.5486 52.651 21.478 52.7843 21.478 52.8942V53.3057C21.478 53.3603 21.4956 53.3987 21.5236 53.4169C21.5521 53.4352 21.5919 53.4328 21.6357 53.4054L23.892 51.9795V51.8951L21.6357 53.321C21.5858 53.3527 21.5451 53.3268 21.5451 53.2639L21.5446 52.8519Z" fill="#0258BF"/>
<path d="M21.6352 53.3202L23.8914 51.8943L23.7438 51.7998V51.9116L21.5752 53.2823L21.5449 53.2631C21.5445 53.3264 21.5848 53.3519 21.6352 53.3202Z" fill="#014594"/>
<path d="M21.5444 53.2631L21.5747 53.2823V52.7471C21.5563 52.7797 21.5444 52.8176 21.5444 52.8516V53.2631Z" fill="#DEBE97"/>
<path d="M21.4775 53.3052V52.8937C21.4775 52.7839 21.5481 52.6501 21.6348 52.5954L23.8911 51.1695L20.8598 49.2534L18.6036 50.6793C18.5168 50.7345 18.4463 50.8678 18.4463 50.9777V51.3892C18.4463 51.4438 18.4638 51.4822 18.4919 51.5004C18.5203 51.5187 21.5231 53.4165 21.5231 53.4165C21.4951 53.3983 21.4775 53.3594 21.4775 53.3052Z" fill="#146CD9"/>
<path d="M21.5747 52.7472V53.2824L23.7433 51.9117V51.3472H23.7429L21.6347 52.6796C21.6119 52.6944 21.5909 52.7189 21.5747 52.7472Z" fill="#EFE1BC"/>
<g opacity="0.5">
<path opacity="0.3" d="M23.7426 51.3477L21.6349 52.6796C21.6248 52.6858 21.6152 52.6944 21.606 52.704L23.743 51.3534V51.3472L23.7426 51.3477Z" fill="black"/>
<path opacity="0.3" d="M23.7433 51.4092L21.5747 52.7799V52.7536L23.7433 51.3828V51.4092Z" fill="black"/>
<path opacity="0.3" d="M23.7433 51.4649L21.5747 52.8356V52.8092L23.7433 51.4385V51.4649Z" fill="black"/>
<path opacity="0.3" d="M23.7433 51.521L21.5747 52.8918V52.8654L23.7433 51.4946V51.521Z" fill="black"/>
<path opacity="0.3" d="M23.7433 51.5767L21.5747 52.9469V52.9206L23.7433 51.5503V51.5767Z" fill="black"/>
<path opacity="0.3" d="M23.7433 51.6323L21.5747 53.0031V52.9767L23.7433 51.606V51.6323Z" fill="black"/>
<path opacity="0.3" d="M23.7433 51.688L21.5747 53.0588V53.0324L23.7433 51.6616V51.688Z" fill="black"/>
<path opacity="0.3" d="M23.7433 51.7441L21.5747 53.1149V53.0885L23.7433 51.7178V51.7441Z" fill="black"/>
<path opacity="0.3" d="M23.7433 51.7998L21.5747 53.1706V53.1442L23.7433 51.7734V51.7998Z" fill="black"/>
<path opacity="0.3" d="M23.7433 51.856L21.5747 53.2262V53.1999L23.7433 51.8296V51.856Z" fill="black"/>
<path opacity="0.3" d="M23.7433 51.9116L21.5747 53.2824V53.256L23.7433 51.8853V51.9116Z" fill="black"/>
</g>
<path opacity="0.1" d="M18.6042 50.6797C18.5231 50.731 18.4561 50.8509 18.4478 50.9559L21.4786 52.8716C21.4869 52.7665 21.5539 52.6466 21.635 52.5953L18.6042 50.6797Z" fill="white"/>
<path d="M22.9027 50.7166L21.3282 51.7118L19.3523 50.4629L18.8262 50.7953L21.3282 52.3766L23.3483 51.0998C23.3706 51.0854 23.3917 51.0624 23.4074 51.0356L22.9027 50.7166Z" fill="#88A305"/>
<path d="M23.4426 50.9219V50.4945C23.4426 50.4288 23.4005 50.402 23.3484 50.4351L22.9028 50.7166L23.408 51.0356C23.429 51.0006 23.4426 50.9588 23.4426 50.9219Z" fill="#788F05"/>
<path d="M18.8262 50.043V50.1307L21.3282 51.712V51.6243L18.8262 50.043Z" fill="#A6C213"/>
<path d="M21.3564 51.6147L23.2854 50.395V51.0603L21.3564 52.2799V51.6147Z" fill="#EFE1BC"/>
<g opacity="0.5">
<path opacity="0.3" d="M21.3564 52.2524L23.2854 51.0332V51.0605L21.3564 52.2802V52.2524Z" fill="black"/>
<path opacity="0.3" d="M21.3564 52.1948L23.2854 50.9751V51.0024L21.3564 52.2221V52.1948Z" fill="black"/>
<path opacity="0.3" d="M21.3564 52.1367L23.2854 50.917V50.9443L21.3564 52.164V52.1367Z" fill="black"/>
<path opacity="0.3" d="M21.3564 52.0786L23.2854 50.8589V50.8867L21.3564 52.1059V52.0786Z" fill="black"/>
<path opacity="0.3" d="M21.3564 52.0205L23.2854 50.8013V50.8286L21.3564 52.0478V52.0205Z" fill="black"/>
<path opacity="0.3" d="M21.3564 51.9624L23.2854 50.7432V50.7705L21.3564 51.9897V51.9624Z" fill="black"/>
<path opacity="0.3" d="M21.3564 51.9042L23.2854 50.6851V50.7124L21.3564 51.9316V51.9042Z" fill="black"/>
<path opacity="0.3" d="M21.3564 51.8461L23.2854 50.627V50.6543L21.3564 51.8735V51.8461Z" fill="black"/>
<path opacity="0.3" d="M21.3564 51.789L23.2854 50.5693V50.5967L21.3564 51.8163V51.789Z" fill="black"/>
<path opacity="0.3" d="M21.3564 51.7309L23.2854 50.5112V50.5386L21.3564 51.7582V51.7309Z" fill="black"/>
<path opacity="0.3" d="M21.3564 51.6728L23.2854 50.4531V50.4805L21.3564 51.7001V51.6728Z" fill="black"/>
</g>
<path d="M21.3567 51.6942L21.3282 51.7119L18.9795 50.2275V50.7776L21.3567 52.2803V51.6942Z" fill="#DEBE97"/>
<g opacity="0.5">
<path opacity="0.3" d="M21.3567 52.2522L18.9795 50.75V50.7773L21.3567 52.28V52.2522Z" fill="black"/>
<path opacity="0.3" d="M21.3567 52.1945L18.9795 50.6919V50.7192L21.3567 52.2219V52.1945Z" fill="black"/>
<path opacity="0.3" d="M21.3567 52.1369L18.9795 50.6343V50.6621L21.3567 52.1643V52.1369Z" fill="black"/>
<path opacity="0.3" d="M21.3567 52.0788L18.9795 50.5762V50.604L21.3567 52.1062V52.0788Z" fill="black"/>
<path opacity="0.3" d="M21.3567 52.0207L18.9795 50.5186V50.5459L21.3567 52.0481V52.0207Z" fill="black"/>
<path opacity="0.3" d="M21.3567 51.9626L18.9795 50.4604V50.4878L21.3567 51.99V51.9626Z" fill="black"/>
<path opacity="0.3" d="M21.3567 51.9045L18.9795 50.4023V50.4297L21.3567 51.9318V51.9045Z" fill="black"/>
<path opacity="0.3" d="M21.3567 51.8469L18.9795 50.3447V50.3721L21.3567 51.8742V51.8469Z" fill="black"/>
<path opacity="0.3" d="M21.3567 51.7893L18.9795 50.2866V50.314L21.3567 51.8166V51.7893Z" fill="black"/>
<path opacity="0.3" d="M21.3567 51.6942L21.3282 51.7119L18.9795 50.2275V50.2558L21.3567 51.7585V51.6942Z" fill="black"/>
</g>
<path d="M18.8262 50.7959V50.8837L21.3282 52.465V52.3772L18.8262 50.7959Z" fill="#A6C213"/>
<path d="M23.4424 50.9222C23.4424 50.9879 23.4004 51.0675 23.3482 51.1006L21.3281 52.3774V52.4651L23.3482 51.1884C23.4385 51.1313 23.5116 50.9927 23.5116 50.8786V50.4512C23.5116 50.3946 23.4937 50.3548 23.4643 50.3356C23.4345 50.3165 23.3933 50.3189 23.3482 50.3476L21.3281 51.6244V51.7121L23.3482 50.4354C23.4004 50.4023 23.4424 50.4292 23.4424 50.4949V50.9222Z" fill="#AFCD15"/>
<path d="M21.3281 51.6244L23.3482 50.3477C23.3938 50.3189 23.435 50.3165 23.4643 50.3357C23.4643 50.3357 20.9912 48.7726 20.9619 48.7539C20.9325 48.7347 20.8914 48.7376 20.8458 48.7664L18.8257 50.0431L21.3281 51.6244Z" fill="#C3E022"/>
</svg>
