<svg width="45" height="56" viewBox="0 0 45 56" fill="none" xmlns="http://www.w3.org/2000/svg">
<path opacity="0.4" d="M22.285 54.0674C34.5927 54.0674 44.5701 48.2757 44.5701 41.1313C44.5701 33.987 34.5927 28.1953 22.285 28.1953C9.97734 28.1953 0 33.987 0 41.1313C0 48.2757 9.97734 54.0674 22.285 54.0674Z" fill="#D2D2E1"/>
<path fill-rule="evenodd" clip-rule="evenodd" d="M22.0951 6.83426C23.6054 7.08832 25.2475 7.13914 26.9973 7.02583C27.5858 6.55684 27.8893 5.3905 27.2966 5.14404C26.6703 4.88355 23.049 4.08983 22.0556 4.08399C20.7187 4.08049 21.8827 5.62295 22.0951 6.83426Z" fill="#CB6117"/>
<path fill-rule="evenodd" clip-rule="evenodd" d="M13.3717 8.06903C14.2082 11.679 21.4035 7.34073 22.0949 6.83436C22.9559 5.6213 22.6433 4.72888 22.0554 4.08351C20.122 3.99882 11.9473 4.50869 13.3717 8.06903Z" fill="#DE7E32"/>
<path fill-rule="evenodd" clip-rule="evenodd" d="M16.8205 35.1491C16.8205 35.1491 17.2686 37.1214 16.3932 36.6933C16.0208 36.5117 16.0544 37.4234 16.1029 37.7242C16.168 38.1301 16.6855 38.4536 17.2115 38.7211C17.8277 38.9618 18.5394 39.7304 18.7635 39.9079C19.3775 40.3944 20.7273 40.3582 21.3589 40.1129C21.727 39.9698 21.9639 39.7193 21.8961 39.4027C21.8519 39.2935 21.8807 39.2509 21.7355 39.1311C21.5878 39.0096 20.6142 38.1914 20.206 37.9484C19.1631 37.3276 18.7421 36.0941 18.652 35.8126C18.5591 35.5311 18.2598 34.6719 18.2598 34.6719C18.2598 34.6719 17.7877 34.4961 16.8205 35.1491Z" fill="#979796"/>
<path fill-rule="evenodd" clip-rule="evenodd" d="M10.0291 6.97331C9.82261 7.0212 7.31893 8.41882 6.25622 9.52792C5.54294 10.4133 5.71046 12.1526 5.72006 12.4277C5.7478 13.3213 7.09593 20.9828 7.38882 22.6181C7.8647 25.9507 14.0047 28.6087 14.9724 24.0164C14.4928 21.5412 15.7156 16.2608 15.8356 12.0609C15.8644 11.0505 16.6828 7.93056 15.3005 6.59134C14.9479 6.2485 14.2357 6.02715 13.8067 6.05051C12.2793 6.13286 10.2862 6.9149 10.0291 6.97331Z" fill="#CB6117"/>
<path fill-rule="evenodd" clip-rule="evenodd" d="M16.6104 34.8942C16.7075 35.8158 15.9873 35.6488 16.1714 37.2701C16.2391 37.8693 17.2778 38.2098 17.6865 38.4621C18.2669 38.8202 18.3741 39.0888 18.6308 39.4217C18.8671 39.7289 19.2139 39.8674 19.6641 39.9345C20.7119 40.0905 21.9464 39.9246 21.812 38.9358C21.7597 38.5544 20.3971 37.9032 19.9277 37.5983C18.8223 36.9232 18.8121 35.3562 18.722 35.0747C18.6292 34.7932 18.26 34.6723 18.26 34.6723C18.26 34.6723 17.5776 34.2412 16.6104 34.8942Z" fill="#3E3E3D"/>
<path fill-rule="evenodd" clip-rule="evenodd" d="M20.4673 27.5184C22.0459 23.979 24.6957 25.4719 24.748 25.7849C24.3794 28.5311 19.7124 35.0292 19.1442 36.5144C18.926 37.9699 16.0585 37.2147 16.0782 36.7352C16.9825 32.2275 18.5574 29.215 20.4673 27.5184Z" fill="#314A8D"/>
<path fill-rule="evenodd" clip-rule="evenodd" d="M11.722 28.8582C14.6557 30.3101 17.497 27.4074 20.2242 27.7433C20.6793 27.6603 20.8639 26.5997 22.8474 27.036C24.0643 27.3035 25.3026 25.7365 24.5071 25.1145C21.9122 23.0861 17.5205 22.811 14.725 22.4927C14.725 22.4927 11.9962 22.6632 10.6929 25.0333C11.0508 25.4141 11.5305 28.763 11.722 28.8582Z" fill="#314A8D"/>
<path fill-rule="evenodd" clip-rule="evenodd" d="M26.6491 44.9467C23.8168 44.6523 21.4241 43.389 20.7007 41.6439L23.4535 20.7012L26.9927 22.8067L26.6491 44.9467Z" fill="#CFDAE5"/>
<path fill-rule="evenodd" clip-rule="evenodd" d="M32.6504 41.1686L26.647 44.9409L26.99 22.8062L32.3927 19.2593L32.8435 19.6512V40.8036C32.8435 40.9583 32.7731 41.0915 32.6504 41.1686Z" fill="#E5EBF2"/>
<path fill-rule="evenodd" clip-rule="evenodd" d="M32.8432 24.7103L26.9263 28.4593L26.9876 22.9389L32.4463 19.3062L32.8432 19.6513V24.7103Z" fill="#BCCCDD"/>
<path fill-rule="evenodd" clip-rule="evenodd" d="M5.68963 29.9968C4.4642 29.8742 4.67279 28.7043 3.6725 29.0799C3.15127 29.2761 3.107 31.1848 3.04511 31.694C2.95709 32.4171 2.76983 32.6262 2.58257 33.0111C2.41025 33.365 2.42147 33.7697 2.5319 34.2522C2.78904 35.3747 3.45323 36.7507 4.24173 36.2461C4.54582 36.0516 4.52715 34.2417 4.61091 33.6512C5.06171 28.042 6.27861 34.5319 5.68963 29.9968Z" fill="#979796"/>
<path fill-rule="evenodd" clip-rule="evenodd" d="M5.6898 29.997C4.93705 29.7027 4.90664 28.8032 3.90688 29.1793C3.38512 29.3756 3.34137 31.2842 3.27948 31.7935C3.19146 32.5166 3.00421 32.7257 2.81695 33.11C2.64463 33.4645 2.65584 33.8687 2.76627 34.3511C3.02341 35.4736 3.62305 36.6668 4.41209 36.1622C4.71618 35.9677 4.76153 34.3406 4.84582 33.7501C4.96532 32.2602 6.42015 31.8887 6.62555 31.6925C6.82987 31.4933 6.70717 30.9671 6.70717 30.9671C6.70717 30.9671 6.60314 30.737 5.6898 29.997Z" fill="#3E3E3D"/>
<path fill-rule="evenodd" clip-rule="evenodd" d="M12.9368 36.4865C13.8731 38.4542 14.7651 40.9504 12.9715 40.3091C11.6698 39.5364 6.02545 33.5102 4.48472 32.5944C3.36759 30.9498 4.83737 29.1737 5.77311 29.8815C8.83376 32.4946 10.646 32.4776 12.9368 36.4865Z" fill="#314A8D"/>
<path fill-rule="evenodd" clip-rule="evenodd" d="M12.1464 39.0541C12.7637 41.1531 15.2732 41.298 15.5501 38.8584C15.8377 36.3277 15.2812 30.8628 14.3914 27.3702C14.76 25.7413 14.0739 24.5563 13.6674 22.8521C10.0146 25.5235 8.29034 23.682 7.39088 22.9116C6.23907 25.4195 10.7636 34.3502 12.1464 39.0541Z" fill="#4165BD"/>
<path fill-rule="evenodd" clip-rule="evenodd" d="M7.23877 23.4613C8.29615 24.7661 12.5668 25.0774 14.8624 22.5082C14.8437 22.2226 14.9205 21.9668 14.9013 21.6812C13.0746 23.1348 9.47143 23.9841 7.38281 22.6851C7.33479 22.9433 7.28678 23.2026 7.23877 23.4613Z" fill="#314A8D"/>
<path fill-rule="evenodd" clip-rule="evenodd" d="M12.0078 6.88665C13.5112 6.38437 14.7793 8.92263 14.5115 14.0149C15.013 14.2182 15.1677 13.6435 15.7663 13.477C15.9674 9.26314 15.4094 6.83175 13.2578 6.20215C12.4202 6.52746 12.7488 6.28275 12.0078 6.88665Z" fill="#314A8D"/>
<path fill-rule="evenodd" clip-rule="evenodd" d="M9.27441 23.2901C10.1862 21.0824 10.6487 17.6021 10.048 13.5623C12.4722 13.3322 14.3709 12.1419 15.7745 10.5947C15.8198 13.3333 15.6614 19.6147 15.2319 21.5234C14.4408 22.9584 11.3961 24.0155 9.27441 23.2901Z" fill="#314A8D"/>
<path fill-rule="evenodd" clip-rule="evenodd" d="M6.74805 9.07347C8.11966 8.57119 9.41283 9.66336 10.2595 14.5343C10.8143 14.7376 11.6578 15.6446 12.2126 15.4781C11.3057 11.2642 10.0984 7.70038 8.23009 8.03387C7.47786 8.35918 7.33062 8.47015 6.74805 9.07347Z" fill="#314A8D"/>
<path fill-rule="evenodd" clip-rule="evenodd" d="M9.98592 5.07227C9.93524 5.84671 9.87175 6.89566 9.47109 7.53461C9.43162 8.13851 9.89469 8.66473 10.5674 9.04086C12.018 9.8521 13.0871 9.08232 12.83 8.13325C12.7985 7.78341 12.3776 7.43298 12.2895 7.08548C12.1935 6.69942 11.5224 6.70876 11.5485 6.31336L9.98592 5.07227Z" fill="#D99E72"/>
<path fill-rule="evenodd" clip-rule="evenodd" d="M14.3262 2.15674C14.3027 2.61229 14.4297 3.04741 14.5055 3.49362C14.6207 3.86098 14.3502 4.03152 14.3385 4.36852C14.3342 4.50051 14.4756 4.6804 14.4831 4.86379C14.5044 5.38359 14.3844 6.19775 14.236 6.69361C14.1576 7.06272 14.0941 7.60531 13.5468 7.96157C12.7199 8.52576 11.8919 7.62633 11.0852 7.28525C10.285 6.94825 10.6745 5.85726 10.4429 5.11318C9.35246 1.58788 13.5911 -0.209235 14.3262 2.15674Z" fill="#ECC19A"/>
<path fill-rule="evenodd" clip-rule="evenodd" d="M9.22607 4.37793L9.24634 4.45151C9.23888 4.4264 9.23194 4.40188 9.22607 4.37793Z" fill="#262424"/>
<path fill-rule="evenodd" clip-rule="evenodd" d="M11.5653 4.05422C11.3348 4.16636 11.2783 4.19089 11.2009 4.51211C11.1347 4.78369 10.9544 4.79713 10.9838 5.35431C10.9747 5.43841 9.92265 4.50977 9.97173 5.24041C10.0261 6.05049 9.75086 6.86348 9.63136 7.21858C8.89941 6.98788 9.17203 4.97001 9.14162 4.46072C8.89034 3.26518 9.22111 1.89033 9.73059 1.43652C11.2206 1.60706 11.5333 1.61408 12.0769 2.54213C12.1761 3.00936 11.8624 3.90996 11.5653 4.05422Z" fill="#643F42"/>
<path fill-rule="evenodd" clip-rule="evenodd" d="M9.90014 5.02665C9.9967 5.52951 10.2384 5.89805 10.439 5.85016C10.6401 5.80402 10.67 5.34496 10.7265 4.92036C10.8519 4.30769 10.3659 3.96544 10.0895 4.03727C9.88894 4.08925 9.80358 4.52671 9.90014 5.02665Z" fill="#ECC19A"/>
<path fill-rule="evenodd" clip-rule="evenodd" d="M14.3618 6.24376C14.2829 6.08549 14.2498 5.94823 13.8539 5.99671C13.7776 6.00488 13.7051 6.02007 13.6357 6.0411V6.69698C13.6875 6.67537 13.7435 6.65727 13.8033 6.64383C14.3933 6.51301 14.0417 7.13502 13.7835 6.91133C13.7568 6.96389 13.7019 7.0147 13.6352 7.05792V9.06295C13.6629 9.04718 13.6907 9.03083 13.7179 9.01331C14.2599 8.66756 14.5891 6.69932 14.3618 6.24376ZM13.6363 6.0411C13.2639 6.15557 12.9806 6.45285 12.6621 6.87862C12.3036 7.35812 11.984 6.61405 11.6602 6.00781C11.4601 5.63227 11.0024 5.7409 10.9843 5.12123L10.7266 4.9209C10.5265 5.7555 10.4268 6.33955 10.4508 6.76999C10.5489 8.56359 12.2647 9.84674 13.6363 9.06295V7.05792C13.3919 7.2162 12.987 7.27694 13.2095 7.01471C13.2991 6.90958 13.4394 6.77875 13.6363 6.69698V6.0411Z" fill="#643F42"/>
<path fill-rule="evenodd" clip-rule="evenodd" d="M9.73047 1.43662C9.85317 0.384754 12.0896 0.123103 13.5865 0.832719C14.2459 1.00618 14.613 0.934342 15.0014 0.519085C15.3913 1.73215 15.243 2.73671 13.8586 3.10699C13.5828 2.27005 12.606 2.87221 11.8698 2.42658C11.237 2.12463 10.3627 1.73916 9.73047 1.43662Z" fill="#643F42"/>
<path fill-rule="evenodd" clip-rule="evenodd" d="M27.2166 6.92222C26.8917 6.95551 26.8602 5.51291 27.3591 5.44575C28.226 5.55788 28.4709 5.0486 28.8939 5.07313C29.0812 5.07721 30.0105 5.18 30.3381 5.38442C30.6315 5.50123 30.249 6.07067 29.9102 5.92466C30.0633 6.05432 30.2666 5.94569 30.7345 6.29611C30.7099 6.52097 29.4098 6.70319 30.671 7.29425C29.9625 7.75448 29.4509 7.779 29.3554 7.76849C29.102 7.73987 28.3903 7.66045 28.091 7.12312C27.9726 6.9117 27.9539 6.84629 27.2166 6.92222Z" fill="#D99E72"/>
<path fill-rule="evenodd" clip-rule="evenodd" d="M27.7368 4.87467C27.9635 4.45241 28.011 4.49562 28.3759 4.43372C28.7366 4.37298 29.0417 4.18375 29.1468 4.25033C29.2418 4.59492 28.9382 4.94534 28.4602 5.1299C27.6146 6.56957 27.2833 5.41024 27.7368 4.87467Z" fill="#D99E72"/>
<path fill-rule="evenodd" clip-rule="evenodd" d="M36.743 19.6206L26.7891 25.9266C26.6563 26.0107 26.5133 26.0294 26.3661 25.9826L26.2268 25.9383L25.1924 22.5339L26.0566 22.5087L37.0855 15.1685V18.9729C37.0861 19.2474 36.9607 19.4834 36.743 19.6206Z" fill="#CFDAE5"/>
<path fill-rule="evenodd" clip-rule="evenodd" d="M36.7158 15.8146L26.0583 22.5124C25.7712 22.6929 25.4426 22.6923 25.1561 22.5107L12.1736 14.275C12.0397 14.1898 11.9628 14.0438 11.9634 13.8744C11.9639 13.7044 12.0407 13.559 12.1757 13.4749L22.8536 6.79107C23.3935 6.45349 24.0096 6.45992 24.5479 6.80101L36.7217 14.5186C36.9393 14.6564 37.0631 14.8935 37.0621 15.1686C37.0605 15.4431 36.934 15.6785 36.7158 15.8146Z" fill="url(#paint0_linear_455_4863)"/>
<path fill-rule="evenodd" clip-rule="evenodd" d="M33.0073 16.5896L25.556 21.2765C25.3453 21.4091 25.1042 21.4085 24.894 21.2754L13.8763 14.2861C13.8187 14.2499 13.7861 14.1874 13.7861 14.1144C13.7867 14.042 13.8192 13.9795 13.8774 13.9433L21.5559 9.1354C22.0014 8.85623 22.5109 8.86206 22.9553 9.14357L33.0116 15.5184C33.1908 15.6323 33.2938 15.828 33.2927 16.0552C33.2922 16.283 33.1882 16.4774 33.0073 16.5896Z" fill="#BCCCDD"/>
<path fill-rule="evenodd" clip-rule="evenodd" d="M17.3286 16.2532L21.8313 13.4784C22.2458 13.2232 22.7163 13.2249 23.1277 13.486L30.3602 18.0708L25.5871 21.0733C25.3763 21.2059 25.1352 21.2053 24.925 21.0722L17.3286 16.2532Z" fill="#F2F4F6"/>
<path fill-rule="evenodd" clip-rule="evenodd" d="M25.7161 15.8354C26.6246 15.8354 27.3614 16.2636 27.3614 16.7909C27.3614 17.3183 26.6246 17.7459 25.7161 17.7459C24.8076 17.7459 24.0708 17.3183 24.0708 16.7909C24.0708 16.263 24.8076 15.8354 25.7161 15.8354Z" fill="#D7DFE9"/>
<path fill-rule="evenodd" clip-rule="evenodd" d="M25.7158 16.1733C26.4472 16.1733 27.0404 16.5179 27.0404 16.9425C27.0404 17.3671 26.4472 17.7117 25.7158 17.7117C24.9843 17.7117 24.3911 17.3671 24.3911 16.9425C24.3911 16.5173 24.9843 16.1733 25.7158 16.1733Z" fill="#9B9B9A"/>
<path fill-rule="evenodd" clip-rule="evenodd" d="M25.6277 7.38232C26.0049 7.38232 26.3106 7.55987 26.3106 7.77889C26.3106 7.99791 26.0044 8.17546 25.6277 8.17546C25.2506 8.17546 24.9443 7.99791 24.9443 7.77889C24.9443 7.55987 25.2506 7.38232 25.6277 7.38232Z" fill="#4D4D4D"/>
<path fill-rule="evenodd" clip-rule="evenodd" d="M29.2694 12.2853C28.5401 12.0943 28.1224 11.7993 27.8882 11.4355V7.64502L29.2694 8.14963V12.2853Z" fill="#6C6D6D"/>
<path fill-rule="evenodd" clip-rule="evenodd" d="M30.4532 7.31219C30.1848 6.31055 29.0448 5.79425 28.3187 5.88653C26.6681 5.91281 25.639 6.1914 24.564 6.79589C24.5645 6.80173 24.5645 6.80756 24.5645 6.81399C24.8163 7.17493 25.0681 7.53529 25.3199 7.89623C27.0314 7.60304 28.7423 7.60538 30.4532 7.31219Z" fill="#CACACA"/>
<path fill-rule="evenodd" clip-rule="evenodd" d="M30.4522 7.31291C29.6883 6.73704 27.2598 6.6471 25.7095 7.52259C25.6514 7.74861 25.4486 8.07801 25.6748 8.17613C27.0945 7.71064 29.19 8.08561 29.269 9.04052V12.2837L30.409 11.5689C30.4368 11.5513 30.4528 11.5215 30.4528 11.4865C30.4528 9.9966 30.4533 8.80223 30.4522 7.31291Z" fill="#979797"/>
<path fill-rule="evenodd" clip-rule="evenodd" d="M25.7136 8.11866C25.712 7.81262 25.7109 7.8278 25.7093 7.52176C25.3626 7.10475 24.9966 6.78177 24.5645 6.79637C24.5661 7.10884 24.5682 7.10066 24.5703 7.41313C24.5703 7.46861 24.5959 7.51592 24.6397 7.54337C24.9699 7.75246 25.3001 7.96213 25.6304 8.17122C25.648 8.18232 25.6688 8.18232 25.6864 8.17122C25.7035 8.16012 25.7136 8.14085 25.7136 8.11866Z" fill="#6C6D6D"/>
<path fill-rule="evenodd" clip-rule="evenodd" d="M28.9199 5.78055C29.1066 5.82844 29.2811 5.89852 29.4299 5.98029L29.9101 6.10411V6.50418V6.50652L29.9106 6.51703C29.9106 6.78336 29.4667 6.88439 28.9199 6.74363C28.3731 6.60288 27.9292 6.27348 27.9292 6.00716L27.9297 5.99664H27.9292V5.59424L28.4099 5.71805C28.5593 5.71221 28.7337 5.73207 28.9199 5.78055Z" fill="#6C6D6D"/>
<path fill-rule="evenodd" clip-rule="evenodd" d="M29.9106 6.492C29.9106 6.1918 29.9101 6.14917 29.9101 5.84956C29.4321 5.42612 27.9127 5.35487 26.9428 5.77538C26.9108 5.96345 26.8782 5.67843 26.8457 5.86649C26.8708 5.88051 26.8852 5.89628 26.9108 5.9103C27.233 5.85248 29.4091 5.93949 29.9106 6.492Z" fill="#979797"/>
<path fill-rule="evenodd" clip-rule="evenodd" d="M29.9104 5.84928C29.5743 5.39606 29.0306 5.04855 28.575 4.96678C27.5422 4.84764 26.8988 4.937 26.2261 5.22669C26.2325 5.37854 26.8343 5.60573 26.9426 5.7751C27.9258 5.52513 28.8951 5.57945 29.9104 5.84928Z" fill="#CACACA"/>
<path fill-rule="evenodd" clip-rule="evenodd" d="M26.9447 5.87563C26.9437 5.68465 26.9431 5.96558 26.9421 5.77401C26.7249 5.48432 26.487 5.25362 26.2256 5.22559C26.2288 5.28691 26.2288 5.31378 26.2293 5.33948C26.2299 5.37452 26.2453 5.40606 26.2725 5.42708C26.479 5.58536 26.6855 5.74364 26.8925 5.90133C26.9037 5.9101 26.9165 5.91126 26.9271 5.906C26.9383 5.90133 26.9453 5.88965 26.9447 5.87563Z" fill="#6C6D6D"/>
<path fill-rule="evenodd" clip-rule="evenodd" d="M25.0156 6.8457C25.3779 7.018 25.5673 7.16635 25.7273 7.4391C26.2715 7.10619 26.8258 6.99347 27.3822 6.9117C26.4582 7.018 25.7951 7.10852 25.0156 6.8457Z" fill="white"/>
<path fill-rule="evenodd" clip-rule="evenodd" d="M26.3979 5.22559C26.6732 5.33013 26.8429 5.50068 26.9533 5.7086C27.4489 5.57836 27.8677 5.54856 28.3831 5.54915C27.7482 5.46505 26.8231 5.45687 26.3979 5.22559Z" fill="white"/>
<path fill-rule="evenodd" clip-rule="evenodd" d="M29.908 6.55315C29.8723 6.98593 28.8554 6.77918 28.562 6.61857C28.6516 6.44803 28.833 6.30727 29.1819 6.29851C29.4028 6.29325 29.78 6.4124 29.908 6.55315Z" fill="#979797"/>
<path fill-rule="evenodd" clip-rule="evenodd" d="M22.3019 9.18955C22.4865 8.84789 22.4934 8.54711 22.6994 8.35554C22.8317 8.22413 24.1153 7.45377 24.4855 7.43684C24.7192 7.32645 25.0916 9.00909 24.9689 9.27483C24.6626 9.68658 23.6901 10.207 23.4527 10.2403C23.0984 10.2899 23.0125 10.249 22.8568 10.322C22.7778 10.36 21.6239 10.4464 22.3019 9.18955Z" fill="#ECC19A"/>
<path fill-rule="evenodd" clip-rule="evenodd" d="M24.9553 8.86301L25.9348 8.70182C26.1834 8.66093 26.1984 8.98274 25.9551 9.05166L25.0178 9.3174C24.783 9.38282 24.6966 8.90507 24.9553 8.86301Z" fill="#ECC19A"/>
<path fill-rule="evenodd" clip-rule="evenodd" d="M24.6771 8.71049C24.6494 8.57908 24.7251 8.4465 24.8452 8.41613L25.9831 8.12936C26.2712 8.05635 26.3432 8.41496 26.061 8.51133L24.9455 8.89447C24.8281 8.93477 24.7049 8.84249 24.6771 8.71049Z" fill="#ECC19A"/>
<path fill-rule="evenodd" clip-rule="evenodd" d="M24.5422 8.26243C24.5204 8.12926 24.5983 7.98851 24.7311 7.96281L25.9949 7.72276C26.3129 7.66202 26.3913 8.04808 26.0771 8.12751L24.8319 8.44114C24.7001 8.47443 24.57 8.39442 24.5422 8.26243Z" fill="#ECC19A"/>
<path fill-rule="evenodd" clip-rule="evenodd" d="M24.5522 7.4102L25.7125 7.19177C26.0038 7.13687 26.079 7.52935 25.791 7.60177L24.653 7.88853C24.3569 7.96329 24.2694 7.46393 24.5522 7.4102Z" fill="#ECC19A"/>
<path fill-rule="evenodd" clip-rule="evenodd" d="M22.5259 9.10189C22.4646 8.89864 22.5361 8.55463 22.7175 8.24801C22.8988 7.94139 23.1448 7.63067 23.2296 7.51153C23.4478 7.20373 23.475 7.2785 23.6937 6.9707C23.8618 7.09686 24.0416 7.32755 23.6111 7.83626C23.5726 7.97993 23.6425 8.06462 23.2862 8.40979C23.538 9.38515 22.6326 9.50138 22.5259 9.10189Z" fill="#ECC19A"/>
<path fill-rule="evenodd" clip-rule="evenodd" d="M16.0535 16.0128C17.3515 16.2137 22.3653 11.9151 23.3389 10.4199C23.4643 9.63499 22.7083 8.56501 22.1711 8.95807C21.5602 9.26002 17.1141 11.7965 15.4875 12.8788C14.5235 13.8944 15.1322 15.3037 16.0535 16.0128Z" fill="#DE7E32"/>
<path d="M25.7161 17.4048C26.1568 17.4048 26.5142 17.1975 26.5142 16.9417C26.5142 16.6859 26.1568 16.4785 25.7161 16.4785C25.2753 16.4785 24.918 16.6859 24.918 16.9417C24.918 17.1975 25.2753 17.4048 25.7161 17.4048Z" fill="#4D4D4D"/>
<path fill-rule="evenodd" clip-rule="evenodd" d="M25.7159 16.7612C26.044 16.7612 26.3199 16.8891 26.4031 17.0643C26.3199 17.2396 26.044 17.3686 25.7159 17.3686C25.3878 17.3686 25.112 17.2396 25.0288 17.0643C25.112 16.8897 25.3878 16.7612 25.7159 16.7612Z" fill="#9B9B9A"/>
<path fill-rule="evenodd" clip-rule="evenodd" d="M30.7713 7.45609C30.7388 7.32468 30.63 7.22715 30.5222 7.26278L29.9199 7.46077C29.6606 7.54604 29.754 7.855 30.0229 7.82112L30.6204 7.74637C30.7319 7.73235 30.8039 7.58809 30.7713 7.45609Z" fill="#ECC19A"/>
<path fill-rule="evenodd" clip-rule="evenodd" d="M30.7937 6.93235C30.759 6.79159 30.6331 6.69172 30.505 6.73144L29.716 6.97498C29.4087 7.0696 29.4866 7.44047 29.8019 7.38674L30.6096 7.2489C30.7408 7.22554 30.8283 7.0731 30.7937 6.93235Z" fill="#ECC19A"/>
<path fill-rule="evenodd" clip-rule="evenodd" d="M30.8129 6.40859C30.7782 6.26783 30.6389 6.15862 30.5024 6.21294L29.6109 6.5657C29.2833 6.69478 29.3671 7.10185 29.7027 7.00081L30.6075 6.72981C30.7472 6.68776 30.8475 6.54934 30.8129 6.40859Z" fill="#ECC19A"/>
<path fill-rule="evenodd" clip-rule="evenodd" d="M30.5141 5.54571C30.4458 5.40788 30.3007 5.33019 30.1881 5.40145L29.5612 5.79743C29.2908 5.96798 29.4705 6.28744 29.7634 6.1718L30.4143 5.91482C30.5365 5.86635 30.5823 5.68355 30.5141 5.54571Z" fill="#ECC19A"/>
<path fill-rule="evenodd" clip-rule="evenodd" d="M24.1434 54.7322L24.0708 50.5235L34.5171 43.9834L33.8903 48.633L24.1434 54.7322Z" fill="#D39F25"/>
<path fill-rule="evenodd" clip-rule="evenodd" d="M19.71 47.8135L24.0707 50.5234L24.1433 54.7321L20.3731 52.4082L19.71 47.8135Z" fill="#C18B21"/>
<path fill-rule="evenodd" clip-rule="evenodd" d="M20.1255 45.4512L24.0707 47.8808L34.1462 41.5801L30.2277 39.144L20.1255 45.4512Z" fill="#858585"/>
<path fill-rule="evenodd" clip-rule="evenodd" d="M24.0707 50.5235L19.71 47.8135L20.1256 45.4517L24.0707 47.8807V50.5235Z" fill="#3E3E3D"/>
<path fill-rule="evenodd" clip-rule="evenodd" d="M24.0708 50.5231L34.5171 43.983L34.1479 41.5703L24.0708 47.8803V50.5231Z" fill="#585857"/>
<path fill-rule="evenodd" clip-rule="evenodd" d="M23.6821 45.2087L24.1388 44.6119V43.5524L29.1467 40.8734V42.3347L29.5127 42.5619L29.7895 39.981L23.6821 43.6219V45.2087Z" fill="#C18B21"/>
<path fill-rule="evenodd" clip-rule="evenodd" d="M23.6816 43.6257L24.1671 43.9213L30.2148 40.1396L29.7453 39.8394L23.6816 43.6257Z" fill="#EDC52E"/>
<path fill-rule="evenodd" clip-rule="evenodd" d="M23.715 46.1696L23.229 45.8717L23.6819 43.6255L24.1674 43.921L23.715 46.1696Z" fill="#C18B21"/>
<path fill-rule="evenodd" clip-rule="evenodd" d="M23.7148 46.1699L24.8795 45.4603L24.8709 44.0072L29.5128 41.1004V42.5617L30.5622 41.9315L30.216 40.1338L24.1672 43.9213L23.7148 46.1699Z" fill="#D39F25"/>
<path fill-rule="evenodd" clip-rule="evenodd" d="M25.4609 49.1767L25.9229 49.4623L27.1116 48.7252L26.6661 48.4355L25.4609 49.1767Z" fill="#858585"/>
<path fill-rule="evenodd" clip-rule="evenodd" d="M25.692 51.5001L25.4604 51.3558L25.461 49.1768L25.923 49.4624L25.692 51.5001Z" fill="#3E3E3D"/>
<path fill-rule="evenodd" clip-rule="evenodd" d="M25.6919 51.4999L26.8811 50.7546L27.1121 48.7192L25.9229 49.4621L25.6919 51.4999Z" fill="#585857"/>
<path fill-rule="evenodd" clip-rule="evenodd" d="M31.8037 45.1831L32.2657 45.4687L33.4538 44.7317L33.0089 44.4414L31.8037 45.1831Z" fill="#858585"/>
<path fill-rule="evenodd" clip-rule="evenodd" d="M32.0348 47.5059L31.8032 47.3622L31.8038 45.1831L32.2663 45.4681L32.0348 47.5059Z" fill="#3E3E3D"/>
<path fill-rule="evenodd" clip-rule="evenodd" d="M32.0347 47.5057L33.2238 46.7605L33.4548 44.7251L32.2662 45.468L32.0347 47.5057Z" fill="#585857"/>
<path fill-rule="evenodd" clip-rule="evenodd" d="M12.3528 42.437L14.4558 43.7604L13.5644 43.9391L11.8321 42.8318C11.7574 42.7839 11.7297 42.7249 11.735 42.6653V42.4218L12.005 42.333V42.4019C12.1181 42.3651 12.2477 42.3663 12.3528 42.437Z" fill="#3E3E3D"/>
<path fill-rule="evenodd" clip-rule="evenodd" d="M12.3476 42.1654L14.8353 43.7312L13.939 43.9111L11.8269 42.5608C11.5106 42.3575 12.035 41.9557 12.3476 42.1654Z" fill="#CACACA"/>
<path fill-rule="evenodd" clip-rule="evenodd" d="M13.3647 43.3452L12.0918 42.5421C11.8048 42.361 12.1206 42.1963 12.3174 42.3207L13.9334 43.3405C13.7429 43.3393 13.552 43.3422 13.3647 43.3452Z" fill="#585857"/>
<path fill-rule="evenodd" clip-rule="evenodd" d="M11.9771 42.4065C12.0144 42.3229 12.1862 42.2862 12.31 42.3644L13.856 43.3404C13.6912 43.3404 13.5268 43.3427 13.3641 43.345L12.0912 42.542C12.0155 42.4941 11.9819 42.4473 11.9771 42.4065Z" fill="#858585"/>
<path fill-rule="evenodd" clip-rule="evenodd" d="M13.4082 45.6255L4.85528 40.2225C4.75339 40.1583 4.63441 40.0245 4.63388 39.875L4.63281 39.4014L13.4088 45.1063L13.4082 45.6255Z" fill="#C18B21"/>
<path fill-rule="evenodd" clip-rule="evenodd" d="M15.6686 43.5888C15.3197 44.1986 14.4117 44.9292 13.4082 45.1068L4.85575 39.7073C4.23957 39.3183 4.99287 38.6168 5.86939 39.1711L12.2734 43.2162C12.6426 43.239 13.0123 43.2039 13.4252 43.2004L12.8565 43.5707L13.1094 43.7284L14.0596 43.1204C14.6955 43.1315 15.1676 43.3038 15.6686 43.5888Z" fill="#EDC52E"/>
<path fill-rule="evenodd" clip-rule="evenodd" d="M12.9266 44.456L5.17598 39.5588C4.75559 39.293 5.2464 39.0705 5.53396 39.2521L13.3309 44.1791C13.7513 44.4443 13.2152 44.6382 12.9266 44.456Z" fill="#C18B21"/>
<path fill-rule="evenodd" clip-rule="evenodd" d="M13.4082 45.6253C14.241 45.4203 15.2482 44.81 15.6675 44.0928C15.6675 43.9246 15.6681 43.757 15.6686 43.5894C15.3592 44.1419 14.393 44.9432 13.4082 45.1067C13.4082 45.279 13.4082 45.4519 13.4082 45.6253Z" fill="#3E3E3D"/>
<path fill-rule="evenodd" clip-rule="evenodd" d="M15.1851 44.2871L16.1091 44.8285C16.2521 44.9126 16.3642 45.0715 16.4244 45.2473H16.4677V45.499C16.4687 45.5224 16.4687 45.5446 16.4677 45.5673V45.5714H16.4671C16.4602 45.7122 16.4175 45.8401 16.3177 45.9236C15.4055 46.6881 14.8634 46.604 14.3833 46.2898L14.3902 46.2857H14.3833V46.01L14.8346 45.9657V46.0042L15.3852 45.6561C15.4727 45.6006 15.5228 45.5054 15.5234 45.395C15.5234 45.2847 15.5042 45.1673 15.4172 45.1112L14.9168 44.7906V44.5114C15.0112 44.4244 15.1062 44.38 15.1851 44.2871Z" fill="#3E3E3D"/>
<path fill-rule="evenodd" clip-rule="evenodd" d="M15.3953 44.1284L16.0926 44.567C16.4324 44.7808 16.6175 45.3929 16.3182 45.644C15.4054 46.4085 14.8639 46.3244 14.3838 46.0102L15.3857 45.3765C15.4732 45.321 15.5537 45.2037 15.5543 45.0933C15.5548 44.9829 15.5052 44.8877 15.4177 44.8316L14.9482 44.5314C15.1349 44.3918 15.255 44.2814 15.3953 44.1284Z" fill="#858585"/>
<path fill-rule="evenodd" clip-rule="evenodd" d="M5.54299 39.4758L13.2856 44.3684C13.332 44.3976 13.3667 44.4262 13.3912 44.4536C13.2808 44.5255 13.0722 44.5196 12.918 44.4221L5.26664 39.5874C4.95989 39.3935 5.30719 39.3269 5.54299 39.4758Z" fill="#D39F25"/>
<path fill-rule="evenodd" clip-rule="evenodd" d="M15.3913 44.8459L14.9165 44.5463C14.9613 44.5118 15.0035 44.4785 15.0456 44.4429L15.0862 44.4686C15.2179 44.4546 15.3508 44.3401 15.2819 44.2298L15.379 44.127L15.8981 44.4546C16.215 44.6555 15.7765 45.0889 15.3913 44.8459Z" fill="#3E3E3D"/>
<path fill-rule="evenodd" clip-rule="evenodd" d="M15.3913 44.8108L14.9165 44.5111C14.9613 44.4773 15.0035 44.4434 15.0456 44.4078L15.0862 44.4335C15.2179 44.4195 15.3508 44.305 15.2819 44.1946L15.379 44.0918L15.8981 44.4194C16.215 44.6204 15.7765 45.0543 15.3913 44.8108Z" fill="#CACACA"/>
<path fill-rule="evenodd" clip-rule="evenodd" d="M15.4333 44.6534L15.2828 44.2434L15.2817 44.1943L15.66 44.4332C15.947 44.6137 15.6301 44.7778 15.4333 44.6534Z" fill="#585857"/>
<path fill-rule="evenodd" clip-rule="evenodd" d="M15.0801 44.4306C15.1516 44.3692 15.2193 44.3067 15.2828 44.2437L15.653 44.4773C15.7288 44.5252 15.7624 44.5719 15.7672 44.6122C15.7299 44.6957 15.5576 44.7319 15.4333 44.6531L15.0801 44.4306Z" fill="#858585"/>
<path fill-rule="evenodd" clip-rule="evenodd" d="M13.4278 43.5274L13.1103 43.7277L12.8569 43.57L13.4256 43.1997L13.4278 43.5274Z" fill="#3E3E3D"/>
<path fill-rule="evenodd" clip-rule="evenodd" d="M13.6014 43.0191L13.412 42.907C13.3539 42.8725 13.2456 42.8731 13.1927 42.907C13.0322 43.0092 12.9175 43.2866 12.9367 43.5266C12.9377 43.5395 12.9393 43.5523 12.9409 43.5646L13.1591 43.696C13.3112 43.4951 13.5667 43.0051 13.6014 43.0191Z" fill="#585857"/>
<path fill-rule="evenodd" clip-rule="evenodd" d="M13.7358 43.2888C13.7171 43.0487 13.5715 42.9372 13.4114 43.0394C13.2509 43.1416 13.1362 43.419 13.1548 43.659C13.1559 43.6719 13.1575 43.6847 13.1591 43.697L13.7374 43.332C13.7379 43.311 13.7374 43.3092 13.7358 43.2888Z" fill="#3E3E3D"/>
<path fill-rule="evenodd" clip-rule="evenodd" d="M13.6642 43.3334C13.6498 43.1523 13.5404 43.0682 13.4193 43.1453C13.2982 43.2224 13.2118 43.4315 13.2262 43.6125C13.2272 43.6266 13.2289 43.64 13.2315 43.6528L13.6652 43.3742C13.6658 43.3544 13.6658 43.3538 13.6642 43.3334Z" fill="#858585"/>
<path fill-rule="evenodd" clip-rule="evenodd" d="M13.6343 43.3515C13.6221 43.1909 13.5244 43.1162 13.4172 43.1845C13.31 43.2528 13.2332 43.4386 13.2454 43.5992C13.2465 43.6138 13.2486 43.6278 13.2513 43.6406L13.6354 43.3918C13.6359 43.372 13.6359 43.3714 13.6343 43.3515Z" fill="#3E3E3D"/>
<path fill-rule="evenodd" clip-rule="evenodd" d="M15.628 45.6227L15.0855 45.9644C14.9302 46.0625 14.7526 46.0619 14.5973 45.9638L14.5264 45.9189L15.4541 45.3179L15.62 45.4037C15.659 45.4242 15.683 45.4633 15.6846 45.5106C15.6867 45.5573 15.6659 45.5988 15.628 45.6227Z" fill="#CACACA"/>
<path fill-rule="evenodd" clip-rule="evenodd" d="M14.5349 45.8574L14.5941 45.8469L14.6539 45.8364L14.5872 45.8796L14.5205 45.9229L14.5274 45.8902L14.5349 45.8574Z" fill="#CACACA"/>
<path fill-rule="evenodd" clip-rule="evenodd" d="M14.6682 45.7705L14.728 45.76L14.7877 45.7495L14.7205 45.7927L14.6538 45.8354L14.6613 45.8033L14.6682 45.7705Z" fill="#CACACA"/>
<path fill-rule="evenodd" clip-rule="evenodd" d="M14.802 45.6841L14.8618 45.6736L14.921 45.6631L14.8543 45.7063L14.7876 45.7489L14.7951 45.7168L14.802 45.6841Z" fill="#CACACA"/>
<path fill-rule="evenodd" clip-rule="evenodd" d="M14.9363 45.5977L14.9955 45.5872L15.0552 45.5767L14.9886 45.6193L14.9219 45.6631L14.9288 45.6304L14.9363 45.5977Z" fill="#CACACA"/>
<path fill-rule="evenodd" clip-rule="evenodd" d="M15.0696 45.5113L15.1293 45.5008L15.1885 45.4902L15.1219 45.5329L15.0552 45.5761L15.0626 45.5434L15.0696 45.5113Z" fill="#CACACA"/>
<path fill-rule="evenodd" clip-rule="evenodd" d="M15.2034 45.4248L15.2626 45.4143L15.3223 45.4038L15.2557 45.447L15.189 45.4897L15.1959 45.457L15.2034 45.4248Z" fill="#CACACA"/>
<path fill-rule="evenodd" clip-rule="evenodd" d="M15.3367 45.3384L15.3964 45.3279L15.4556 45.3174L15.389 45.36L15.3223 45.4032L15.3297 45.3711L15.3367 45.3384Z" fill="#CACACA"/>
<path fill-rule="evenodd" clip-rule="evenodd" d="M14.8173 45.1521L14.8178 45.1515L14.8173 45.1527L14.8189 45.1532L14.8173 45.1544L14.8109 45.1836L14.8034 45.2157L14.7447 45.2262L14.6903 45.2362L14.6844 45.2403L14.678 45.2701L14.6706 45.3028L14.6113 45.3133L14.5564 45.3232L14.5511 45.3261L14.5447 45.3565L14.5372 45.3892L14.4785 45.3997L14.423 45.4096L14.4187 45.4126L14.4123 45.4429L14.4049 45.475L14.3457 45.4856L14.2896 45.4955L14.2864 45.4978L14.2795 45.5288L14.2726 45.5615L14.2134 45.572L14.1563 45.5825L14.1536 45.5843L14.1467 45.6152L14.1397 45.6479L14.0805 45.6584L14.0229 45.669L14.0213 45.6701L14.0144 45.7017L14.0074 45.7344L13.9482 45.7449L13.889 45.7554L13.8901 45.7548L13.4819 45.5107V45.1865C13.9503 45.1784 14.3787 44.9792 14.8167 44.8291L14.8173 45.1521Z" fill="#585857"/>
<path fill-rule="evenodd" clip-rule="evenodd" d="M13.8905 45.7544L13.4829 45.5103V45.1862C13.6216 45.1838 13.7571 45.1646 13.8905 45.1348V45.7544Z" fill="#858585"/>
<path fill-rule="evenodd" clip-rule="evenodd" d="M14.6471 44.7256L14.8167 44.8278L14.8178 44.8272L14.8173 44.8284L14.8189 44.829L14.8173 44.8301L14.8109 44.8593L14.8034 44.8915L14.7447 44.902L14.6903 44.9119L14.6844 44.9154L14.678 44.9452L14.6706 44.9779L14.6113 44.9884L14.5564 44.9983L14.5511 45.0018L14.5447 45.0316L14.5372 45.0643L14.4785 45.0748L14.423 45.0848L14.4187 45.0877L14.4123 45.1181L14.4049 45.1502L14.3457 45.1607L14.2896 45.1706L14.2864 45.173L14.2795 45.2039L14.2726 45.236L14.2134 45.2466L14.1563 45.2571L14.1536 45.2588L14.1467 45.2904L14.1397 45.3225L14.0805 45.3336L14.0229 45.3441L14.0213 45.3453L14.0144 45.3774L14.0074 45.4095L13.9482 45.42L13.889 45.4305L13.8901 45.4299L13.4819 45.1852C13.8991 45.1111 14.2976 44.9417 14.6471 44.7256Z" fill="#CACACA"/>
<path fill-rule="evenodd" clip-rule="evenodd" d="M29.4346 50.7502L30.2834 52.3482L42.4 44.6055C42.6556 44.5091 42.6988 44.0705 42.495 43.6184C42.2891 43.1623 41.9087 42.8656 41.6462 42.9555C41.6382 42.9584 41.6302 42.9614 41.6222 42.9649L41.6206 42.9625L41.5929 42.9806C41.5875 42.9836 41.5827 42.9871 41.5774 42.99L29.4346 50.7502Z" fill="#E3E3E3"/>
<path fill-rule="evenodd" clip-rule="evenodd" d="M29.3837 51.7162C29.1778 51.26 29.2237 50.8167 29.4861 50.7262C29.7491 50.6357 30.129 50.9329 30.3349 51.3891C30.5409 51.8452 30.495 52.2885 30.232 52.379C29.97 52.469 29.5896 52.1723 29.3837 51.7162Z" fill="#AFAFAF"/>
<path fill-rule="evenodd" clip-rule="evenodd" d="M29.4579 51.6906C29.2839 51.3052 29.3229 50.9314 29.5443 50.8549C29.7662 50.7789 30.0869 51.0295 30.2608 51.4144C30.4347 51.7993 30.3963 52.1736 30.1743 52.2502C29.9529 52.3267 29.6318 52.0761 29.4579 51.6906Z" fill="#666666"/>
<path fill-rule="evenodd" clip-rule="evenodd" d="M29.9717 50.8101L41.9854 43.0762C42.0563 43.1235 42.1268 43.186 42.1929 43.2607L30.1525 50.9824C30.0949 50.9152 30.0341 50.8574 29.9717 50.8101Z" fill="white"/>
<path fill-rule="evenodd" clip-rule="evenodd" d="M39.5127 46.4794L40.1988 47.7713L40.8966 47.3216C41.0849 47.2001 41.1377 46.8888 40.9734 46.5238C40.807 46.1547 40.4997 45.9152 40.2873 45.9882C40.2804 45.9905 40.274 45.9929 40.2681 45.9958L40.2671 45.994L40.2446 46.0086C40.2404 46.011 40.2361 46.0139 40.2324 46.0162L39.5127 46.4794Z" fill="white"/>
<path fill-rule="evenodd" clip-rule="evenodd" d="M39.4714 47.2595C39.305 46.891 39.3418 46.5324 39.5541 46.4594C39.7664 46.3864 40.0737 46.6264 40.2402 46.9949C40.4066 47.3635 40.3693 47.7221 40.1569 47.7945C39.9451 47.8681 39.6384 47.628 39.4714 47.2595Z" fill="#979797"/>
<path fill-rule="evenodd" clip-rule="evenodd" d="M39.5317 47.2395C39.3914 46.9282 39.4223 46.6257 39.6016 46.5644C39.7809 46.5024 40.0401 46.7051 40.181 47.0164C40.3218 47.3277 40.2903 47.6302 40.1111 47.6916C39.9318 47.7535 39.672 47.5508 39.5317 47.2395Z" fill="#4D4D4D"/>
<path fill-rule="evenodd" clip-rule="evenodd" d="M40.187 46.5811L40.767 46.2026C40.8459 46.2902 40.9179 46.3995 40.9739 46.5233C40.9905 46.5601 41.0049 46.5963 41.0172 46.6319L40.4373 47.0104C40.1967 46.9298 40.1134 46.7744 40.187 46.5811Z" fill="#AFAFAF"/>
<path fill-rule="evenodd" clip-rule="evenodd" d="M40.6983 46.1318L40.1173 46.5109C39.8245 46.5062 39.6537 46.397 39.7033 46.3818L40.3195 45.9794C40.4342 45.9566 40.5713 46.0162 40.6983 46.1318Z" fill="#DCDCDD"/>
<path fill-rule="evenodd" clip-rule="evenodd" d="M40.4588 47.1006L41.043 46.7192C41.0974 46.9324 41.0729 47.1146 40.9891 47.2326L40.4359 47.5936C40.3729 47.6046 40.3062 47.4884 40.4588 47.1006Z" fill="#979797"/>
<path fill-rule="evenodd" clip-rule="evenodd" d="M28.626 53.7888L29.0843 54.6514L40.0576 47.578C40.1958 47.5261 40.2193 47.2889 40.1089 47.0454C39.9979 46.7989 39.7925 46.6389 39.6506 46.6874C39.6463 46.6891 39.6421 46.6903 39.6378 46.6926L39.6373 46.6914L39.6223 46.7014C39.6196 46.7031 39.617 46.7049 39.6143 46.7066L28.626 53.7888Z" fill="#666666"/>
<path fill-rule="evenodd" clip-rule="evenodd" d="M28.5983 54.3093C28.4873 54.0629 28.5118 53.8234 28.6537 53.7749C28.7957 53.7259 29.0005 53.8865 29.112 54.1329C29.2235 54.3794 29.1984 54.6183 29.0565 54.6674C28.9146 54.7158 28.7098 54.5558 28.5983 54.3093Z" fill="#AFAFAF"/>
<path fill-rule="evenodd" clip-rule="evenodd" d="M28.6383 54.2961C28.5445 54.0882 28.5653 53.8861 28.6853 53.8452C28.8053 53.8043 28.9782 53.9392 29.0721 54.1471C29.166 54.3551 29.1452 54.5571 29.0251 54.598C28.9056 54.6395 28.7322 54.504 28.6383 54.2961Z" fill="#666666"/>
<path fill-rule="evenodd" clip-rule="evenodd" d="M28.1719 53.8436L28.8579 55.135L29.5558 54.6853C29.7441 54.5638 29.7974 54.2525 29.6326 53.888C29.4661 53.5189 29.1588 53.2795 28.9465 53.3525C28.9401 53.3548 28.9332 53.3571 28.9273 53.36L28.9262 53.3583L28.9038 53.3723C28.8996 53.3747 28.8953 53.3776 28.8916 53.3799L28.1719 53.8436Z" fill="white"/>
<path fill-rule="evenodd" clip-rule="evenodd" d="M28.1306 54.6243C27.9641 54.2551 28.0009 53.8971 28.2133 53.8241C28.4256 53.7511 28.7329 53.9912 28.8994 54.3597C29.0658 54.7282 29.0285 55.0868 28.8161 55.1598C28.6043 55.2328 28.297 54.9928 28.1306 54.6243Z" fill="#979797"/>
<path fill-rule="evenodd" clip-rule="evenodd" d="M28.1901 54.6038C28.0493 54.2925 28.0808 53.9899 28.26 53.9286C28.4393 53.8667 28.6986 54.0694 28.8394 54.3807C28.9797 54.692 28.9488 54.9945 28.7695 55.0558C28.5903 55.1177 28.3304 54.9151 28.1901 54.6038Z" fill="#4D4D4D"/>
<path fill-rule="evenodd" clip-rule="evenodd" d="M28.75 54.0061L29.3134 53.644C29.5076 53.7089 29.5956 53.8613 29.5625 54.0739L28.9997 54.436C28.949 54.2748 28.8663 54.1195 28.75 54.0061Z" fill="#AFAFAF"/>
<path fill-rule="evenodd" clip-rule="evenodd" d="M29.2446 53.5728L28.6796 53.936C28.5526 53.8122 28.4118 53.7526 28.3003 53.7906C28.288 53.7947 28.2763 53.7999 28.2656 53.8064L28.8946 53.4005C29.0397 53.3245 29.2654 53.4554 29.2446 53.5728Z" fill="#DCDCDD"/>
<path fill-rule="evenodd" clip-rule="evenodd" d="M29.021 54.5254L29.5908 54.1592C29.7673 54.2234 29.6686 54.5949 29.5593 54.6579L28.998 55.0189C29.0573 54.9436 29.101 54.7491 29.021 54.5254Z" fill="#979797"/>
<path fill-rule="evenodd" clip-rule="evenodd" d="M26.2583 25.9483C20.1808 23.9795 15.9699 20.9097 13.0144 17.5766L11.9922 14.0483L12.2029 14.2942L25.3092 22.6081C25.5082 22.7343 25.6421 22.9147 25.7141 23.1536L26.4813 25.6971C26.5032 25.769 26.4877 25.8426 26.4392 25.8969C26.3911 25.95 26.3245 25.9693 26.2583 25.9483Z" fill="#A6B5C9"/>
<path fill-rule="evenodd" clip-rule="evenodd" d="M5.82167 10.4767C4.48901 14.9896 14.9038 16.1092 15.9543 16.035C17.5163 15.7302 17.1386 13.6632 15.6481 13.0973C12.8456 11.8223 7.09085 7.1593 5.82167 10.4767Z" fill="#DE7E32"/>
<defs>
<linearGradient id="paint0_linear_455_4863" x1="22.3081" y1="1.50505" x2="26.2069" y2="20.6923" gradientUnits="userSpaceOnUse">
<stop stop-color="#BBC6D8"/>
<stop offset="1" stop-color="white"/>
</linearGradient>
</defs>
</svg>
