<svg width="71" height="56" viewBox="0 0 71 56" fill="none" xmlns="http://www.w3.org/2000/svg">
<path opacity="0.4" fill-rule="evenodd" clip-rule="evenodd" d="M35.401 10.5688C54.948 10.5688 70.8012 19.7704 70.8012 31.1186C70.8012 42.4668 54.948 51.6683 35.401 51.6683C15.8532 51.6683 0 42.4668 0 31.1186C0 19.7704 15.8532 10.5688 35.401 10.5688Z" fill="#D2D2E1"/>
<path fill-rule="evenodd" clip-rule="evenodd" d="M47.4938 24.8045L28.8397 36.6228C28.5904 36.7808 28.3232 36.8163 28.0467 36.7275L27.7863 36.6443L25.8477 30.2641L27.4679 30.2165L48.1383 16.46V23.5896C48.1374 24.1055 47.9027 24.5475 47.4938 24.8045Z" fill="#CFDAE5"/>
<path fill-rule="evenodd" clip-rule="evenodd" d="M47.4527 15.2424L33.7064 6.52771L24.638 0.778372C23.6298 0.139142 22.474 0.127003 21.4624 0.759691L1.45103 13.2863C1.1992 13.4443 1.05408 13.7162 1.05323 14.0349C1.05237 14.3527 1.19579 14.6265 1.44676 14.7854L25.7776 30.2194C26.3146 30.5596 26.93 30.5615 27.4687 30.2232L33.7046 26.3037L47.4416 17.6703C47.8514 17.4161 48.0879 16.975 48.0896 16.4582C48.093 15.9442 47.8599 15.5003 47.4527 15.2424ZM33.7055 10.5061C33.1344 10.5061 32.6384 10.3192 32.3866 10.0463C32.6384 9.77338 33.1344 9.5874 33.7055 9.5874C34.2766 9.5874 34.7726 9.77244 35.0244 10.0463C34.7734 10.3201 34.2774 10.5061 33.7055 10.5061Z" fill="url(#paint0_linear_455_4872)"/>
<path fill-rule="evenodd" clip-rule="evenodd" d="M40.4922 19.1246L26.5281 27.9084C26.1329 28.157 25.6813 28.1561 25.2878 27.9056L4.63875 14.807C4.53119 14.7388 4.46973 14.621 4.46973 14.4855C4.47058 14.3491 4.53203 14.2322 4.64044 14.164L19.0313 5.15312C19.8662 4.63071 20.8214 4.64099 21.6538 5.16901L40.5007 17.1162C40.8371 17.3293 41.03 17.6966 41.0274 18.1218C41.0266 18.5499 40.8311 18.9143 40.4922 19.1246Z" fill="#BCCCDD"/>
<path fill-rule="evenodd" clip-rule="evenodd" d="M11.1094 18.4945L19.5478 13.2937C20.3246 12.8152 21.2064 12.819 21.9781 13.3078L35.5324 21.9009L26.5861 27.5278C26.1909 27.7764 25.7393 27.7755 25.3458 27.525L11.1094 18.4945Z" fill="#F2F4F6"/>
<path fill-rule="evenodd" clip-rule="evenodd" d="M26.8274 17.7109C28.5305 17.7109 29.9108 18.5128 29.9108 19.5006C29.9108 20.4894 28.5296 21.2912 26.8274 21.2912C25.1244 21.2912 23.7432 20.4894 23.7432 19.5006C23.7432 18.5128 25.1244 17.7109 26.8274 17.7109Z" fill="#D7DFE9"/>
<path fill-rule="evenodd" clip-rule="evenodd" d="M26.8276 18.3433C28.1986 18.3433 29.3101 18.9881 29.3101 19.7843C29.3101 20.5806 28.1986 21.2254 26.8276 21.2254C25.4567 21.2254 24.3452 20.5796 24.3452 19.7843C24.3444 18.989 25.4567 18.3433 26.8276 18.3433Z" fill="#9B9B9A"/>
<path d="M26.8276 20.6529C27.6536 20.6529 28.3232 20.2642 28.3232 19.7847C28.3232 19.3052 27.6536 18.9165 26.8276 18.9165C26.0016 18.9165 25.332 19.3052 25.332 19.7847C25.332 20.2642 26.0016 20.6529 26.8276 20.6529Z" fill="#4D4D4D"/>
<path fill-rule="evenodd" clip-rule="evenodd" d="M26.8277 19.4463C27.4423 19.4463 27.9597 19.6865 28.1159 20.0145C27.9605 20.3425 27.4423 20.5846 26.8277 20.5846C26.2131 20.5846 25.6958 20.3425 25.5396 20.0145C25.6958 19.6865 26.2131 19.4463 26.8277 19.4463Z" fill="#9B9B9A"/>
<path fill-rule="evenodd" clip-rule="evenodd" d="M27.8444 36.6633C16.4549 32.9728 8.56289 27.2197 3.02353 20.9732L1.10791 14.3604L1.5023 14.8211L26.0653 30.4028C26.4384 30.6392 26.6885 30.9766 26.8242 31.4252L28.2618 36.1913C28.3019 36.3259 28.2738 36.4642 28.1833 36.5652C28.0936 36.667 27.9681 36.7035 27.8444 36.6633Z" fill="#A6B5C9"/>
<path fill-rule="evenodd" clip-rule="evenodd" d="M33.7056 8.76953C34.5311 8.76953 35.2012 9.15832 35.2012 9.63774C35.2012 9.7854 35.1372 9.92463 35.0245 10.0461C34.7727 9.77323 34.2767 9.58726 33.7056 9.58726C33.1345 9.58726 32.6385 9.7723 32.3867 10.0461C32.274 9.92463 32.21 9.7854 32.21 9.63774C32.21 9.15832 32.8801 8.76953 33.7056 8.76953ZM34.6839 10.2938C34.648 10.3125 34.6096 10.3293 34.5712 10.3452C34.6105 10.3284 34.648 10.3115 34.6839 10.2938ZM34.4406 10.3938C34.3706 10.4171 34.2963 10.4368 34.2195 10.4536C34.2963 10.4358 34.3706 10.4162 34.4406 10.3938ZM32.8408 10.3452C32.8016 10.3293 32.764 10.3125 32.7282 10.2938C32.764 10.3115 32.8016 10.3293 32.8408 10.3452ZM32.7264 10.2928C32.6018 10.2302 32.4951 10.1545 32.4114 10.0714C32.4951 10.1545 32.6018 10.2293 32.7264 10.2928Z" fill="#A6B5C9"/>
<path fill-rule="evenodd" clip-rule="evenodd" d="M44.7905 12.707C45.8294 12.707 46.6728 13.1967 46.6728 13.7995C46.6728 14.4023 45.8302 14.892 44.7905 14.892C43.7507 14.892 42.9082 14.4032 42.9082 13.7995C42.9082 13.1958 43.7516 12.707 44.7905 12.707Z" fill="#4D4D4D"/>
<path fill-rule="evenodd" clip-rule="evenodd" d="M54.8228 26.2128C52.8142 25.6867 51.6634 24.8746 51.0181 23.8709V13.4292L54.8237 14.8198L54.8228 26.2128Z" fill="#6C6D6D"/>
<path fill-rule="evenodd" clip-rule="evenodd" d="M58.0855 12.5153C58.0855 12.5144 58.0855 12.5144 58.0855 12.5153C57.3463 9.75654 54.2048 8.33419 52.2055 8.58745C47.6573 8.66035 44.824 9.42665 41.8618 11.0939C41.8627 11.1107 41.8635 11.1266 41.8644 11.1425C42.5584 12.1368 43.2516 13.1303 43.9456 14.1246C48.6578 13.3162 53.3716 13.3228 58.0855 12.5153Z" fill="#CACACA"/>
<path fill-rule="evenodd" clip-rule="evenodd" d="M58.0819 12.5151C55.9785 10.9282 49.2867 10.6796 45.0159 13.0917C44.8554 13.7141 44.2971 14.6216 44.9203 14.8926C48.8309 13.6095 54.6042 14.6431 54.8218 17.2748V26.209L57.9633 24.239C58.0393 24.1904 58.0828 24.1081 58.0828 24.0119C58.0837 19.9092 58.0854 16.6187 58.0819 12.5151Z" fill="#979797"/>
<path fill-rule="evenodd" clip-rule="evenodd" d="M45.027 14.7354C45.0236 13.8934 45.0202 13.9336 45.0159 13.0915C44.0598 11.942 43.0525 11.0533 41.8608 11.0926C41.866 11.9533 41.8719 11.9308 41.877 12.7906C41.8779 12.9429 41.947 13.0738 42.0683 13.1504C42.9783 13.727 43.8883 14.3036 44.7982 14.8803C44.8469 14.9111 44.9033 14.9111 44.9519 14.8803C44.9997 14.8504 45.027 14.7971 45.027 14.7354Z" fill="#6C6D6D"/>
<path fill-rule="evenodd" clip-rule="evenodd" d="M53.8614 8.29286C54.3753 8.42557 54.856 8.61714 55.2666 8.8433L56.5897 9.18349V10.2862V10.2918L56.5906 10.3218C56.5906 11.0544 55.3681 11.3339 53.8614 10.946C52.3539 10.5582 51.1323 9.65076 51.1323 8.91714L51.1332 8.88816L51.1323 8.88722V7.77979L52.4572 8.12089C52.8678 8.10593 53.3467 8.16109 53.8614 8.29286Z" fill="#6C6D6D"/>
<path fill-rule="evenodd" clip-rule="evenodd" d="M56.5899 10.2537C56.5899 9.42752 56.589 9.30976 56.5881 8.48362C55.2718 7.31824 51.0855 7.12105 48.4136 8.27802C48.3248 8.79576 48.2351 8.01168 48.1455 8.52942C48.2155 8.56867 48.2548 8.61072 48.3248 8.64998C49.2143 8.49204 55.2095 8.73222 56.5899 10.2537Z" fill="#979797"/>
<path fill-rule="evenodd" clip-rule="evenodd" d="M56.5898 8.48335C55.6644 7.2348 54.1663 6.27689 52.9105 6.05073C50.0653 5.72177 48.2922 5.96851 46.439 6.76661C46.4569 7.18436 48.1147 7.81048 48.4126 8.27775C51.1221 7.58992 53.7932 7.74039 56.5898 8.48335Z" fill="#CACACA"/>
<path fill-rule="evenodd" clip-rule="evenodd" d="M48.4204 8.55724C48.4179 8.03016 48.4162 8.80489 48.4136 8.2778C47.816 7.48063 47.1604 6.84328 46.4399 6.76758C46.4485 6.93673 46.4493 7.00962 46.4502 7.08158C46.451 7.17691 46.4937 7.26475 46.5697 7.32269C47.1391 7.75913 47.7076 8.19464 48.2779 8.63014C48.3086 8.6535 48.3436 8.65818 48.3735 8.64323C48.4025 8.62641 48.4204 8.59556 48.4204 8.55724Z" fill="#6C6D6D"/>
<path fill-rule="evenodd" clip-rule="evenodd" d="M43.1055 11.229C44.1042 11.7028 44.6258 12.1131 45.0655 12.8645C46.5636 11.9477 48.0925 11.6364 49.6248 11.4112C47.0792 11.7028 45.2533 11.9533 43.1055 11.229Z" fill="white"/>
<path fill-rule="evenodd" clip-rule="evenodd" d="M46.9136 6.76611C47.6725 7.05302 48.1394 7.52401 48.4442 8.09689C49.81 7.73896 50.9625 7.65579 52.3829 7.65859C50.633 7.42496 48.0839 7.40254 46.9136 6.76611Z" fill="white"/>
<path fill-rule="evenodd" clip-rule="evenodd" d="M56.5829 10.4222C56.4848 11.6147 53.683 11.0446 52.8755 10.6035C53.123 10.1334 53.6224 9.74653 54.5828 9.72223C55.1897 9.70634 56.2295 10.0353 56.5829 10.4222Z" fill="#979797"/>
<path fill-rule="evenodd" clip-rule="evenodd" d="M30.3044 34.7011L24.7207 38.2149L27.0879 38.6897L31.6874 35.7487C31.8863 35.6216 31.9597 35.4646 31.9452 35.3066H31.946V34.6618L31.229 34.4272V34.6104C30.9276 34.5104 30.5844 34.5123 30.3044 34.7011Z" fill="#3E3E3D"/>
<path fill-rule="evenodd" clip-rule="evenodd" d="M30.3189 33.9793L23.7134 38.1362L26.0934 38.6128L31.7018 35.026C32.5418 34.4896 31.1487 33.4223 30.3189 33.9793Z" fill="#CACACA"/>
<path fill-rule="evenodd" clip-rule="evenodd" d="M27.618 37.112L30.9976 34.9803C31.76 34.499 30.9208 34.0625 30.3992 34.3924L26.1079 37.0998C26.6141 37.097 27.1195 37.1045 27.618 37.112Z" fill="#585857"/>
<path fill-rule="evenodd" clip-rule="evenodd" d="M31.3016 34.6202C31.2026 34.3987 30.7468 34.3015 30.4173 34.509L26.312 37.0995C26.7499 37.0995 27.187 37.1061 27.6181 37.1117L30.9977 34.98C31.2 34.8519 31.2888 34.7277 31.3016 34.6202Z" fill="#858585"/>
<path fill-rule="evenodd" clip-rule="evenodd" d="M27.5029 43.1662L50.2135 28.82C50.485 28.649 50.8009 28.2948 50.8017 27.8976L50.8051 26.6406L27.5029 41.7887V43.1662Z" fill="#C18B21"/>
<path fill-rule="evenodd" clip-rule="evenodd" d="M21.501 37.759C22.4272 39.3777 24.8379 41.3187 27.503 41.7897L50.2111 27.4528C51.8467 26.4202 49.8466 24.5586 47.5195 26.0286L30.5156 36.7684C29.5347 36.8282 28.553 36.7366 27.4561 36.7263L28.9653 37.7104L28.2935 38.1291L25.7701 36.5142C24.085 36.545 22.831 37.002 21.501 37.759Z" fill="#EDC52E"/>
<path fill-rule="evenodd" clip-rule="evenodd" d="M28.7816 40.0625L49.3615 27.0583C50.4773 26.3527 49.1746 25.7611 48.4106 26.2443L27.7069 39.3261C26.592 40.0307 28.0159 40.5456 28.7816 40.0625Z" fill="#C18B21"/>
<path fill-rule="evenodd" clip-rule="evenodd" d="M27.503 43.1661C25.2921 42.6222 22.6167 41.0007 21.5035 39.0961C21.5027 38.6503 21.5018 38.2046 21.501 37.7588C22.3222 39.227 24.8874 41.353 27.503 41.7885C27.503 42.2474 27.503 42.7063 27.503 43.1661Z" fill="#3E3E3D"/>
<path fill-rule="evenodd" clip-rule="evenodd" d="M22.7846 39.6128L20.3312 41.0501C19.9513 41.2726 19.6542 41.695 19.4946 42.1613H19.3794V42.8295C19.3768 42.8903 19.3768 42.951 19.3794 43.0108V43.022H19.3802C19.399 43.3949 19.5117 43.7351 19.7772 43.9575C22.2007 45.9874 23.6391 45.7649 24.9136 44.9295L24.8957 44.9182H24.9136V44.1865L23.7151 44.0687V44.1724L22.2528 43.2491C22.0206 43.1024 21.8874 42.8491 21.8866 42.5557C21.8857 42.2622 21.9369 41.9501 22.1691 41.8015L23.4974 40.9501V40.2081C23.2456 39.9782 22.9937 39.8604 22.7846 39.6128Z" fill="#3E3E3D"/>
<path fill-rule="evenodd" clip-rule="evenodd" d="M22.2264 39.1914L20.3757 40.3559C19.4725 40.9241 18.9817 42.5492 19.7764 43.2156C22.2 45.2463 23.6384 45.023 24.9129 44.1875L22.252 42.5053C22.0198 42.3586 21.8056 42.0474 21.8056 41.753C21.8047 41.4595 21.9361 41.2072 22.1683 41.0586L23.4138 40.2615C22.9179 39.8904 22.5995 39.5979 22.2264 39.1914Z" fill="#858585"/>
<path fill-rule="evenodd" clip-rule="evenodd" d="M48.3874 26.8384L27.8288 39.8286C27.7059 39.9071 27.6146 39.9828 27.5488 40.0548C27.8416 40.2454 28.3948 40.2305 28.8046 39.9707L49.1207 27.1328C49.9351 26.6197 49.0131 26.4431 48.3874 26.8384Z" fill="#D39F25"/>
<path fill-rule="evenodd" clip-rule="evenodd" d="M22.2373 41.0979L23.4973 40.3025C23.3787 40.2119 23.266 40.1222 23.1541 40.0287L23.0466 40.0969C22.6975 40.0596 22.344 39.7559 22.5267 39.4633L22.2698 39.1904L20.8911 40.0614C20.0503 40.5913 21.2147 41.7436 22.2373 41.0979Z" fill="#3E3E3D"/>
<path fill-rule="evenodd" clip-rule="evenodd" d="M22.2373 41.0046L23.4973 40.2093C23.3787 40.1186 23.266 40.0289 23.1541 39.9355L23.0466 40.0037C22.6975 39.9663 22.344 39.6626 22.5267 39.3701L22.2698 39.0972L20.8911 39.9682C20.0503 40.4981 21.2147 41.6504 22.2373 41.0046Z" fill="#CACACA"/>
<path fill-rule="evenodd" clip-rule="evenodd" d="M22.1247 40.5858L22.5233 39.497L22.5267 39.3662L21.5229 39.9998C20.7614 40.4802 21.6022 40.9157 22.1247 40.5858Z" fill="#585857"/>
<path fill-rule="evenodd" clip-rule="evenodd" d="M23.0629 39.9933C22.8725 39.8307 22.6924 39.6643 22.5243 39.4961L21.5408 40.1166C21.3394 40.2437 21.2506 40.368 21.2378 40.4755C21.3368 40.697 21.7944 40.7933 22.1247 40.5848L23.0629 39.9933Z" fill="#858585"/>
<path fill-rule="evenodd" clip-rule="evenodd" d="M27.4507 37.5961L28.2932 38.1279L28.9651 37.7092L27.4558 36.7261L27.4507 37.5961Z" fill="#3E3E3D"/>
<path fill-rule="evenodd" clip-rule="evenodd" d="M26.9897 36.2475L27.4925 35.9503C27.6471 35.8587 27.9347 35.8606 28.0756 35.9503C28.5016 36.2213 28.8063 36.9577 28.7568 37.5951C28.7543 37.6297 28.75 37.6633 28.7449 37.696L28.1652 38.0446C27.7606 37.5101 27.0811 36.2092 26.9897 36.2475Z" fill="#585857"/>
<path fill-rule="evenodd" clip-rule="evenodd" d="M26.634 36.9618C26.6843 36.3244 27.0693 36.0281 27.4953 36.2992C27.9213 36.5702 28.226 37.3066 28.1765 37.944C28.174 37.9786 28.1697 38.0122 28.1646 38.0449L26.6297 37.0767C26.6288 37.0197 26.6297 37.0169 26.634 36.9618Z" fill="#3E3E3D"/>
<path fill-rule="evenodd" clip-rule="evenodd" d="M26.8233 37.0821C26.8608 36.6017 27.1519 36.3775 27.4729 36.5821C27.7939 36.7868 28.0244 37.3419 27.9868 37.8223C27.9834 37.8596 27.9791 37.8951 27.9732 37.9297L26.8216 37.1905C26.819 37.1363 26.819 37.1344 26.8233 37.0821Z" fill="#858585"/>
<path fill-rule="evenodd" clip-rule="evenodd" d="M26.9019 37.1298C26.9352 36.7027 27.1938 36.5045 27.479 36.6858C27.7641 36.8681 27.9681 37.3606 27.9348 37.7877C27.9323 37.8269 27.9263 37.8634 27.9194 37.8979L26.9002 37.2382C26.8976 37.184 26.8976 37.1821 26.9019 37.1298Z" fill="#3E3E3D"/>
<path fill-rule="evenodd" clip-rule="evenodd" d="M21.6075 43.1594L23.0485 44.0659C23.4608 44.3257 23.932 44.3257 24.3443 44.065L24.533 43.9463L22.0693 42.3501L21.6288 42.5781C21.5255 42.6314 21.4624 42.7361 21.4573 42.8613C21.453 42.9865 21.5085 43.0968 21.6075 43.1594Z" fill="#CACACA"/>
<path fill-rule="evenodd" clip-rule="evenodd" d="M24.5107 43.7821L24.3527 43.7541L24.1948 43.7261L24.3724 43.841L24.5491 43.9551L24.5303 43.8691L24.5107 43.7821Z" fill="#CACACA"/>
<path fill-rule="evenodd" clip-rule="evenodd" d="M24.1567 43.5522L23.9987 43.5251L23.8408 43.4971L24.0175 43.6111L24.1942 43.726L24.1755 43.6391L24.1567 43.5522Z" fill="#CACACA"/>
<path fill-rule="evenodd" clip-rule="evenodd" d="M23.8012 43.3232L23.6433 43.2951L23.4854 43.2671L23.6621 43.3811L23.8396 43.496L23.82 43.4091L23.8012 43.3232Z" fill="#CACACA"/>
<path fill-rule="evenodd" clip-rule="evenodd" d="M23.4462 43.0932L23.2883 43.0651L23.1304 43.0371L23.3079 43.1521L23.4846 43.2661L23.4659 43.1801L23.4462 43.0932Z" fill="#CACACA"/>
<path fill-rule="evenodd" clip-rule="evenodd" d="M23.0912 42.8637L22.9341 42.8357L22.7754 42.8076L22.9529 42.9226L23.1296 43.0375L23.1109 42.9506L23.0912 42.8637Z" fill="#CACACA"/>
<path fill-rule="evenodd" clip-rule="evenodd" d="M22.7367 42.6347L22.5788 42.6066L22.4209 42.5786L22.5976 42.6936L22.7752 42.8076L22.7555 42.7207L22.7367 42.6347Z" fill="#CACACA"/>
<path fill-rule="evenodd" clip-rule="evenodd" d="M22.3818 42.4047L22.2238 42.3767L22.0659 42.3486L22.2435 42.4636L22.4202 42.5776L22.4014 42.4916L22.3818 42.4047Z" fill="#CACACA"/>
<path fill-rule="evenodd" clip-rule="evenodd" d="M23.7611 41.9101L23.7594 41.9091L23.7602 41.9119L23.7568 41.9138L23.7611 41.9166L23.7782 41.9942L23.797 42.0802L23.9532 42.1082L24.0966 42.1343L24.1119 42.1446L24.129 42.2231L24.1478 42.3091L24.3049 42.3371L24.4508 42.3633L24.4645 42.3717L24.4824 42.4521L24.5012 42.5381L24.6583 42.5661L24.806 42.5932L24.8171 42.6007L24.835 42.682L24.8538 42.768L25.0108 42.796L25.1602 42.8231L25.1688 42.8287L25.1876 42.911L25.2063 42.9969L25.3634 43.025L25.5145 43.0521L25.5213 43.0568L25.5401 43.1399L25.5589 43.2259L25.716 43.254L25.8696 43.281L25.8739 43.2838L25.8927 43.368L25.9114 43.4539L26.0685 43.482L26.2256 43.511L26.2222 43.5091L27.3055 42.8605V41.9998C26.0617 41.9774 24.9246 41.4493 23.7611 41.0503V41.9101Z" fill="#585857"/>
<path fill-rule="evenodd" clip-rule="evenodd" d="M26.2231 43.509L27.3047 42.8614V42.0007C26.936 41.9942 26.5766 41.9437 26.2231 41.8643V43.509Z" fill="#858585"/>
<path fill-rule="evenodd" clip-rule="evenodd" d="M24.2127 40.7783L23.7619 41.0493L23.7594 41.0475L23.7602 41.0503L23.7568 41.0521L23.7611 41.0549L23.7782 41.1325L23.797 41.2185L23.9532 41.2465L24.0966 41.2727L24.1119 41.283L24.129 41.3615L24.1478 41.4475L24.3049 41.4755L24.4508 41.5017L24.4645 41.5101L24.4824 41.5905L24.5012 41.6764L24.6583 41.7045L24.806 41.7315L24.8171 41.739L24.835 41.8203L24.8538 41.9063L25.0108 41.9353L25.1602 41.9624L25.1688 41.968L25.1876 42.0502L25.2063 42.1362L25.3634 42.1643L25.5145 42.1923L25.5213 42.196L25.5401 42.2792L25.5589 42.3652L25.716 42.3932L25.8696 42.4212L25.8739 42.4241L25.8927 42.5082L25.9114 42.5941L26.0685 42.6222L26.2256 42.6511L26.2222 42.6493L27.3055 42.0007C26.2 41.8026 25.1406 41.3521 24.2127 40.7783Z" fill="#CACACA"/>
<path fill-rule="evenodd" clip-rule="evenodd" d="M33.9854 43.4817L36.2014 47.6545L67.8361 27.4384C68.5037 27.187 68.6164 26.0412 68.0846 24.8618C67.5459 23.6703 66.554 22.8955 65.8676 23.131C65.8463 23.1385 65.8258 23.1469 65.8053 23.1553L65.8019 23.1488L65.7293 23.1955C65.7157 23.2039 65.7029 23.2123 65.6901 23.2208L33.9854 43.4817Z" fill="#E3E3E3"/>
<path fill-rule="evenodd" clip-rule="evenodd" d="M33.8532 46.0041C33.3154 44.8126 33.4349 43.6556 34.1203 43.4201C34.8058 43.1846 35.7986 43.9593 36.3364 45.1509C36.8742 46.3424 36.7547 47.4994 36.0684 47.7349C35.3829 47.9695 34.391 47.1947 33.8532 46.0041Z" fill="#AFAFAF"/>
<path fill-rule="evenodd" clip-rule="evenodd" d="M34.047 45.9366C33.5928 44.931 33.6936 43.9535 34.2723 43.7544C34.8511 43.5554 35.6894 44.2096 36.1435 45.2151C36.5977 46.2207 36.4961 47.1982 35.9173 47.3973C35.3386 47.5964 34.5003 46.9422 34.047 45.9366Z" fill="#666666"/>
<path fill-rule="evenodd" clip-rule="evenodd" d="M35.3882 43.6395L66.7548 23.4468C66.9401 23.5701 67.1236 23.7337 67.2961 23.929L35.8594 44.09C35.71 43.9133 35.5504 43.7619 35.3882 43.6395Z" fill="white"/>
<path fill-rule="evenodd" clip-rule="evenodd" d="M60.2988 32.3315L62.0898 35.7042L63.9123 34.5295C64.4041 34.2127 64.5432 33.4006 64.1129 32.4473C63.6776 31.4838 62.876 30.8577 62.322 31.0483C62.3049 31.0539 62.2878 31.0605 62.2716 31.068L62.269 31.0633L62.2101 31.1007C62.199 31.1072 62.1888 31.1138 62.1777 31.1212L60.2988 32.3315Z" fill="white"/>
<path fill-rule="evenodd" clip-rule="evenodd" d="M60.1923 34.3685C59.7578 33.4059 59.8543 32.4704 60.4083 32.2798C60.9623 32.0891 61.7648 32.7153 62.1993 33.6788C62.6338 34.6414 62.5373 35.5769 61.9824 35.7675C61.4293 35.9582 60.6269 35.332 60.1923 34.3685Z" fill="#979797"/>
<path fill-rule="evenodd" clip-rule="evenodd" d="M60.3482 34.3157C59.9811 33.5027 60.0631 32.713 60.5309 32.5522C60.9987 32.3915 61.6765 32.9204 62.0436 33.7335C62.4107 34.5465 62.3287 35.3362 61.8609 35.497C61.3922 35.6568 60.7153 35.1288 60.3482 34.3157Z" fill="#4D4D4D"/>
<path fill-rule="evenodd" clip-rule="evenodd" d="M62.0589 32.5972L63.5724 31.6094C63.7782 31.8383 63.966 32.1234 64.1119 32.4467C64.1555 32.543 64.1922 32.6374 64.2246 32.7299L62.7102 33.7177C62.0845 33.5074 61.8677 33.1028 62.0589 32.5972Z" fill="#AFAFAF"/>
<path fill-rule="evenodd" clip-rule="evenodd" d="M63.393 31.4249L61.8761 32.4146C61.1121 32.4034 60.6656 32.1174 60.7945 32.0773L62.4036 31.0268C62.7033 30.967 63.0618 31.1221 63.393 31.4249Z" fill="#DCDCDD"/>
<path fill-rule="evenodd" clip-rule="evenodd" d="M62.7673 33.9523L64.2936 32.957C64.4362 33.514 64.3713 33.9897 64.1528 34.2972L62.7084 35.2401C62.5445 35.27 62.3704 34.9663 62.7673 33.9523Z" fill="#979797"/>
<path fill-rule="evenodd" clip-rule="evenodd" d="M31.875 51.4152L33.0718 53.6674L61.723 35.1989C62.0833 35.0634 62.1439 34.4447 61.857 33.8074C61.5668 33.1644 61.0307 32.7457 60.6602 32.8728C60.6483 32.8766 60.6372 32.8812 60.6269 32.8859L60.6252 32.8822L60.5859 32.9074C60.5791 32.9121 60.5714 32.9158 60.5646 32.9205L31.875 51.4152Z" fill="#666666"/>
<path fill-rule="evenodd" clip-rule="evenodd" d="M31.8031 52.7774C31.5128 52.1345 31.5777 51.5092 31.9474 51.3821C32.3178 51.255 32.8531 51.6728 33.1442 52.3167C33.4344 52.9597 33.3704 53.5849 32.9999 53.712C32.6294 53.8391 32.0933 53.4204 31.8031 52.7774Z" fill="#AFAFAF"/>
<path fill-rule="evenodd" clip-rule="evenodd" d="M31.9071 52.7417C31.6621 52.1987 31.7168 51.6707 32.0292 51.5642C32.3417 51.4567 32.7941 51.81 33.0399 52.3529C33.2849 52.8959 33.2303 53.423 32.9179 53.5305C32.6054 53.637 32.153 53.2838 31.9071 52.7417Z" fill="#666666"/>
<path fill-rule="evenodd" clip-rule="evenodd" d="M30.688 51.5589L32.4789 54.9308L34.3015 53.7561C34.7932 53.4392 34.9324 52.6262 34.5021 51.6729C34.0668 50.7094 33.2652 50.0833 32.7111 50.2739C32.6941 50.2795 32.677 50.2861 32.6608 50.2935L32.6582 50.2889L32.5993 50.3263C32.5882 50.3328 32.578 50.3393 32.5669 50.3468L30.688 51.5589Z" fill="white"/>
<path fill-rule="evenodd" clip-rule="evenodd" d="M30.5805 53.597C30.146 52.6344 30.2425 51.6989 30.7965 51.5083C31.3514 51.3177 32.153 51.9438 32.5883 52.9073C33.0228 53.8699 32.9264 54.8054 32.3715 54.996C31.8175 55.1857 31.015 54.5596 30.5805 53.597Z" fill="#979797"/>
<path fill-rule="evenodd" clip-rule="evenodd" d="M30.7369 53.5432C30.3698 52.7302 30.4518 51.9405 30.9196 51.7798C31.3874 51.619 32.0643 52.148 32.4322 52.961C32.7993 53.7741 32.7174 54.5638 32.2496 54.7245C31.7818 54.8853 31.104 54.3563 30.7369 53.5432Z" fill="#4D4D4D"/>
<path fill-rule="evenodd" clip-rule="evenodd" d="M32.1982 51.9824L33.6691 51.0366C34.1762 51.2058 34.4058 51.6039 34.3196 52.159L32.8504 53.1038C32.7181 52.6842 32.5013 52.2796 32.1982 51.9824Z" fill="#AFAFAF"/>
<path fill-rule="evenodd" clip-rule="evenodd" d="M33.4898 50.8515L32.0147 51.8001C31.6843 51.4777 31.3155 51.3216 31.0244 51.4216C30.992 51.4328 30.9621 51.4468 30.9331 51.4627L32.5764 50.4039C32.9545 50.2039 33.5436 50.5459 33.4898 50.8515Z" fill="#DCDCDD"/>
<path fill-rule="evenodd" clip-rule="evenodd" d="M32.9059 53.3383L34.393 52.3823C34.8531 52.5496 34.5953 53.5196 34.311 53.6841L32.8462 54.6262C33.0007 54.4299 33.1151 53.9224 32.9059 53.3383Z" fill="#979797"/>
<defs>
<linearGradient id="paint0_linear_455_4872" x1="17.3875" y1="-18.7473" x2="29.2277" y2="27.9506" gradientUnits="userSpaceOnUse">
<stop stop-color="#BBC6D8"/>
<stop offset="1" stop-color="white"/>
</linearGradient>
</defs>
</svg>
