<svg width="48" height="56" viewBox="0 0 48 56" fill="none" xmlns="http://www.w3.org/2000/svg">
<path opacity="0.3" d="M46.4202 47.4757L14.2706 27.1538L6.46924 32.0841V36.1688L17.3512 43.0478L19.76 44.0054L21.2728 45.5256L32.1579 52.4059H38.6182L46.4202 47.4757Z" fill="black"/>
<path d="M9.16795 35.0825V36.0805L8.67034 36.3976L8.49365 35.2814L9.16795 35.0825Z" fill="#403531"/>
<path d="M8.67023 35.3983V36.3976H7.96533L7.47021 35.0825L8.67023 35.3983Z" fill="#544540"/>
<path d="M7.96533 35.3983V36.3976L7.47021 36.0818V35.0825L7.96533 35.3983Z" fill="#685750"/>
<path d="M7.47021 34.6419V35.0827L7.96533 35.3985H8.67023L9.16785 35.0827V34.6419L8.67023 34.3247H7.96533L7.47021 34.6419Z" fill="#836E69"/>
<path d="M32.7755 50.0034V51.0027L32.276 51.3185L32.1006 50.2044L32.7755 50.0034Z" fill="#403531"/>
<path d="M32.2759 50.3199V51.3185H31.5723L31.0771 50.0034L32.2759 50.3199Z" fill="#544540"/>
<path d="M31.5723 50.3199V51.3185L31.0771 51.0027V50.0034L31.5723 50.3199Z" fill="#685750"/>
<path d="M31.0771 49.5625V50.0033L31.5723 50.3198H32.2759L32.7754 50.0033V49.5625L32.2784 49.2446H31.5723L31.0771 49.5625Z" fill="#836E69"/>
<path d="M45.4555 46.3535V47.3508L44.9529 47.6659L44.7793 46.549L45.4555 46.3535Z" fill="#403531"/>
<path d="M44.9528 46.6686V47.6659H44.251L43.7559 46.3535L44.9528 46.6686Z" fill="#544540"/>
<path d="M44.251 46.6686V47.6659L43.7559 47.3508V46.3535L44.251 46.6686Z" fill="#685750"/>
<path d="M43.7559 45.9107V46.3536L44.251 46.6687H44.9528L45.4554 46.3536V45.9107L44.9546 45.5942H44.251L43.7559 45.9107Z" fill="#836E69"/>
<path d="M17.1761 40.9149L7.33681 34.7495L6.88916 33.9429L13.5973 28.77L17.6681 31.3428L17.1761 40.9149Z" fill="#F7E6BB"/>
<path d="M14.3354 29.2352L6.88928 33.9426L6.69385 24.6699H9.53906L14.3354 29.2352Z" fill="#C79D5C"/>
<path opacity="0.3" d="M12.0639 35.8494L8.3252 33.4871L12.7494 30.6895L16.4881 33.0538L12.0639 35.8494Z" fill="black"/>
<path d="M16.372 33.061L12.0726 35.7753L11.8491 35.2599L16.372 32.9482V33.061Z" fill="#573711"/>
<path d="M12.0724 35.6656L10.5508 34.7777L8.73828 33.5563L8.8313 33.4326L13.0364 30.8413L16.3717 32.9486L12.0724 35.6656Z" fill="#B87139"/>
<path d="M9.02955 33.375L8.7386 33.5561L8.6874 33.5342L8.63184 33.4146L8.95587 33.2485L9.02955 33.375Z" fill="#6B4414"/>
<path d="M8.9683 33.2413L8.66675 33.432L8.62304 33.5058L8.52002 33.4176L8.62304 33.2905L8.98454 33.123L8.9683 33.2413Z" fill="#B87139"/>
<path d="M8.98438 33.1233L8.51987 33.4179L8.41435 33.2894L8.39062 33.1172L8.49489 32.9914L8.85453 32.8232L8.98438 33.1233Z" fill="#6B4414"/>
<path d="M8.85453 32.8233L8.39063 33.1172L8.35254 33.0058L8.39063 32.7891L8.85453 32.4966V32.8233Z" fill="#573711"/>
<path d="M8.39056 32.789V33.1171L8.5198 33.4178L8.59348 33.4643L8.66653 33.4322L8.73833 33.5559L12.0724 35.6652V35.7753L8.70211 33.6454L8.66653 33.5777L8.63031 33.6023L8.47485 33.5026L8.30127 33.0972V32.6953L8.39056 32.789Z" fill="#87511B"/>
<path d="M8.83619 33.322L8.66699 33.432V33.3493L8.72505 33.2639L8.9005 33.1743L8.83619 33.322Z" fill="#A8793E"/>
<path d="M8.90012 33.1744L8.72717 33.2838L8.71094 33.158L8.72717 33.022L8.90012 32.9126V33.1744Z" fill="#CC934C"/>
<path d="M8.90009 32.9127L8.72714 33.022L8.67281 32.8949L8.60352 32.6782L8.77647 32.5688L8.90009 32.9127Z" fill="#D6A950"/>
<path d="M8.6668 33.4322L8.72736 33.2838V33.022L8.6668 32.7999L8.59375 32.6953L8.6849 33.0077V33.2483L8.59375 33.4643L8.6668 33.4322Z" fill="#E3BD5E"/>
<path d="M16.189 32.9464L12.0539 35.5608L11.959 35.3968L11.9808 35.2772L16.1191 32.6641L16.189 32.9464Z" fill="white"/>
<path d="M16.1186 32.346L12.6953 34.6481L11.9804 34.9591L11.8867 34.7957L12.0534 34.791L16.1885 32.1758L16.1186 32.346Z" fill="#D1D1D1"/>
<path d="M16.1186 32.664L11.9804 35.2772L11.8867 35.1138L11.9804 34.9593L16.1186 32.3462V32.664Z" fill="#E0DEDC"/>
<path d="M8.79883 32.9758L8.73828 32.7516L8.81133 32.7427L12.0536 34.7912L11.9806 34.9594V35.2772L12.0536 35.5608L8.81133 33.511L8.73828 33.3852L8.79883 33.2375V32.9758Z" fill="#F4EFE9"/>
<path d="M16.372 32.1795L12.0726 34.8945L11.8491 34.3763L16.372 32.0674V32.1795Z" fill="#573711"/>
<path d="M8.62289 32.6427L8.39062 32.7889V32.681L8.62289 32.5347V32.6427Z" fill="#6B4414"/>
<path d="M12.9828 29.9922L8.68717 32.6976L8.61974 32.6812L8.61475 32.6005L12.8385 29.902L12.9272 29.8931L12.9828 29.9922Z" fill="#6B4414"/>
<path d="M12.0725 34.7829L10.5147 33.8745L8.70215 32.6544L13.0002 29.936L16.3718 32.0673L12.0725 34.7829Z" fill="#B87139"/>
<path opacity="0.5" d="M14.6795 32.3218V32.1011L14.8038 32.0224L12.9375 30.8447L12.8158 30.9227H12.4668L12.34 30.8413L11.5864 31.3198L11.7113 31.3984V31.6171L11.5883 31.6964L13.4551 32.8762L13.5788 32.8003H13.9259L14.0483 32.8762L14.8038 32.3991L14.6795 32.3218Z" fill="#87511B"/>
<path d="M12.9274 29.8932L8.63056 32.6068L8.51193 32.5746L8.4751 32.5097L12.7726 29.792L12.9274 29.8932Z" fill="#B87139"/>
<path d="M8.30127 32.6952L8.47485 32.5093L8.63031 32.6063L8.66653 32.6781L8.70211 32.6542L12.0724 34.7827V34.8941L8.73833 32.7888L8.66653 32.7998L8.59348 32.6952L8.5198 32.6508L8.39056 32.7888L8.34997 32.7656L8.30127 32.6952Z" fill="#87511B"/>
<path d="M16.367 32.0005L12.0689 34.7175L11.8447 34.2001L16.367 31.8877V32.0005Z" fill="#3E6669"/>
<path d="M12.069 34.6045L10.5487 33.718L8.73682 32.4979L8.82736 32.3721L13.033 29.7822L16.3671 31.8875L12.069 34.6045Z" fill="#8CCCCB"/>
<path d="M9.02808 32.3133L8.73713 32.4978L8.68344 32.4753L8.63037 32.3543L8.95442 32.1875L9.02808 32.3133Z" fill="#418080"/>
<path d="M8.96371 32.1801L8.6634 32.3721L8.61969 32.4466L8.51855 32.3591L8.62093 32.2313L8.9812 32.0659L8.96371 32.1801Z" fill="#8CCCCB"/>
<path d="M8.98084 32.0658L8.5182 32.359L8.41268 32.2285L8.3877 32.0576L8.49196 31.9305L8.85284 31.7637L8.98084 32.0658Z" fill="#418080"/>
<path d="M8.85284 31.7637L8.3877 32.0577L8.34961 31.9469L8.3877 31.7289L8.85284 31.437V31.7637Z" fill="#3E6669"/>
<path d="M8.38783 31.7287V32.0575L8.51833 32.3589L8.58887 32.4054L8.66318 32.3719L8.73685 32.4977L12.0691 34.6043V34.7171L8.69876 32.5865L8.66318 32.5182L8.62696 32.5414L8.47024 32.443L8.2998 32.039V31.6357L8.38783 31.7287Z" fill="#389998"/>
<path d="M8.83478 32.2627L8.66309 32.372V32.29L8.72114 32.2059L8.89659 32.1157L8.83478 32.2627Z" fill="#A8793E"/>
<path d="M8.89643 32.1157L8.7241 32.2237L8.7085 32.0993L8.7241 31.9612L8.89643 31.8525V32.1157Z" fill="#CC934C"/>
<path d="M8.89639 31.8526L8.72407 31.9613L8.671 31.8369L8.60107 31.6168L8.77464 31.5088L8.89639 31.8526Z" fill="#D6A950"/>
<path d="M8.66318 32.372L8.72436 32.2237V31.9612L8.66318 31.7377L8.58887 31.6372L8.68315 31.9482V32.1902L8.58887 32.4055L8.66318 32.372Z" fill="#E3BD5E"/>
<path d="M16.1867 31.886L12.0497 34.4991L11.9561 34.3357L11.9792 34.2168L16.1149 31.603L16.1867 31.886Z" fill="white"/>
<path d="M16.1147 31.2829L12.6926 33.5891L11.9789 33.8981L11.8853 33.7347L12.0495 33.7299L16.1865 31.1182L16.1147 31.2829Z" fill="#D1D1D1"/>
<path d="M16.1147 31.6031L11.9789 34.2169L11.8853 34.0528L11.9789 33.8984L16.1147 31.2832V31.6031Z" fill="#E0DEDC"/>
<path d="M8.79863 31.9172L8.73682 31.6909L8.80863 31.6841L12.0497 33.7299L11.9791 33.898V34.2166L12.0497 34.4988L8.80863 32.4517L8.73682 32.3252L8.79863 32.179V31.9172Z" fill="#F4EFE9"/>
<path d="M16.367 31.1198L12.0689 33.8355L11.8447 33.3187L16.367 31.0063V31.1198Z" fill="#3E6669"/>
<path d="M8.61933 31.5833L8.3877 31.7282V31.6202L8.61933 31.4746V31.5833Z" fill="#418080"/>
<path d="M12.978 28.9312L8.68298 31.6379L8.61681 31.6194L8.61182 31.5429L12.835 28.8416L12.9255 28.832L12.978 28.9312Z" fill="#418080"/>
<path d="M12.069 33.7233L10.5113 32.8143L8.69873 31.5928L12.9968 28.8765L16.3671 31.0063L12.069 33.7233Z" fill="#8CCCCB"/>
<path opacity="0.5" d="M14.6787 31.2621V31.0406L14.8017 30.9627L12.9354 29.7836L12.8131 29.8601H12.4647L12.3379 29.7822L11.585 30.2579L11.7098 30.3386V30.5573L11.5875 30.6359L13.453 31.8157L13.5767 31.7378H13.9244L14.0468 31.8157L14.8017 31.3386L14.6787 31.2621Z" fill="#389998"/>
<path d="M12.9257 28.8316L8.62693 31.5486L8.5083 31.5151L8.47021 31.4495L12.7696 28.7339L12.9257 28.8316Z" fill="#8CCCCB"/>
<path d="M8.2998 31.6356L8.47024 31.4497L8.62696 31.5488L8.66318 31.6151L8.69876 31.5926L12.0691 33.7231V33.8352L8.73685 31.7286L8.66318 31.7375L8.58887 31.637L8.51833 31.5892L8.38783 31.7286L8.34725 31.7053L8.2998 31.6356Z" fill="#389998"/>
<path opacity="0.3" d="M7.67334 28.8149L8.29959 32.0384V31.6352L8.47002 31.4472L9.33041 30.9011L12.9348 33.1765V35.2319H12.986V35.266L17.0775 37.8532L17.5445 34.4985L7.67334 28.8149Z" fill="black"/>
<path d="M46.4202 33.4943L14.2706 13.1738L6.46924 18.1034V22.1875L17.3512 29.0671L19.76 30.0234L21.2728 31.5463L32.1579 38.4253H38.6182L46.4202 33.4943Z" fill="#F7E6BB"/>
<path d="M32.158 50.9503L21.2729 44.0706L20.5181 35.4432L21.2729 31.5464L32.158 38.4254L34.9083 39.9496L32.158 50.9503Z" fill="#EFC58B"/>
<path d="M17.3512 29.067L6.46924 22.188V34.7129L17.3512 41.5926L18.4139 33.881L17.3512 29.067ZM16.9073 40.2734L6.88944 33.9419V24.7758L16.9073 31.1066V40.2734Z" fill="#EFC58B"/>
<path d="M38.618 38.4253H32.1577V50.9502H38.618L40.5173 40.8381L38.618 38.4253Z" fill="#D9AF6F"/>
<path d="M46.4202 46.0184L38.6182 50.95V38.4251L46.4202 33.4941V46.0184Z" fill="#C79D5C"/>
<path d="M21.2726 44.0705L19.7598 42.5483L19.1099 34.1246L19.7598 30.0234L21.2726 31.5463V44.0705Z" fill="#C79D5C"/>
<path d="M19.7599 42.5486L17.3511 41.593V29.0674L19.7599 30.0236V42.5486Z" fill="#D9AF6F"/>
<path opacity="0.3" d="M38.6182 38.3412H32.1579L21.2728 31.465L19.76 29.94L17.3512 28.9858L6.46924 22.1055V23.5812L17.3512 30.4602L19.76 31.4178L21.2728 32.9407L32.1579 39.817H38.6182L46.4202 34.8874V33.4117L38.6182 38.3412Z" fill="black"/>
<path d="M14.2693 11.0327L5.77051 16.4059V20.8556L31.8681 37.3498L38.9084 37.3512L47.4078 31.98L14.2693 11.0327Z" fill="#F7E6BB"/>
<path d="M31.8681 38.8661L5.77051 22.372V20.856L31.8681 37.3501V38.8661Z" fill="#EFC58B"/>
<path d="M38.9084 37.3501H31.8682V38.8661H38.9084V37.3501Z" fill="#D9AF6F"/>
<path d="M47.4076 31.9805L38.9082 37.3502V38.8663L47.4076 33.4945V31.9805Z" fill="#C79D5C"/>
<path d="M31.5058 44.4182L21.4873 38.0854V33.5625L31.5058 39.8947V44.4182Z" fill="#D9AF6F"/>
<path d="M31.5058 39.8948L21.4873 33.5627L21.684 33.439L31.7006 39.7704L31.5058 39.8948Z" fill="#F7E6BB"/>
<path d="M31.5059 44.4185V39.8949L31.7006 39.7705V44.2927L31.5059 44.4185Z" fill="#C79D5C"/>
<path d="M27.3789 40.8547L27.5312 40.7604V40.6729L27.2603 40.6975L27.3789 40.8547Z" fill="#403531"/>
<path d="M27.3791 40.7717L27.5315 40.6726L27.3011 40.2379L25.5073 39.2939L27.3791 40.7717Z" fill="#544540"/>
<path d="M27.1481 40.3329L27.3011 40.2379L25.6578 39.2017L25.5073 39.2939L27.1481 40.3329Z" fill="#836E69"/>
<path d="M25.2749 39.4375L25.5072 39.2939L27.148 40.3329L27.379 40.7717V40.8544L27.148 40.9993L25.5072 39.959L25.2749 39.5263V39.4375Z" fill="#685750"/>
<path d="M16.7111 35.0671L6.69385 28.7349V24.2134L16.7111 30.5435V35.0671Z" fill="#D9AF6F"/>
<path d="M16.7111 30.5436L6.69385 24.2135L6.88928 24.0884L16.9071 30.4199L16.7111 30.5436Z" fill="#F7E6BB"/>
<path d="M16.7109 35.0672V30.5436L16.907 30.4199V34.9415L16.7109 35.0672Z" fill="#C79D5C"/>
<path d="M12.5837 31.5046L12.736 31.4075V31.3228L12.4663 31.3487L12.5837 31.5046Z" fill="#403531"/>
<path d="M12.5838 31.4221L12.7361 31.323L12.5038 30.8869L10.7119 29.9409L12.5838 31.4221Z" fill="#544540"/>
<path d="M12.354 30.9823L12.5038 30.8866L10.8624 29.8511L10.7119 29.9406L12.354 30.9823Z" fill="#836E69"/>
<path d="M10.4805 30.0892L10.7121 29.9409L12.3542 30.9826L12.5839 31.4221V31.5048L12.3542 31.6504L10.7121 30.6101L10.4805 30.1754V30.0892Z" fill="#685750"/>
<path d="M31.5058 49.4015L21.4873 43.0721V38.5479L31.5058 44.88V49.4015Z" fill="#D9AF6F"/>
<path d="M31.5058 44.8798L21.4873 38.5477L21.684 38.4253L31.7006 44.7547L31.5058 44.8798Z" fill="#F7E6BB"/>
<path d="M31.5059 49.4015V44.88L31.7006 44.7549V49.2784L31.5059 49.4015Z" fill="#C79D5C"/>
<path d="M27.3789 45.8433L27.5312 45.7456V45.6602L27.2603 45.6834L27.3789 45.8433Z" fill="#403531"/>
<path d="M27.3791 45.7564L27.5315 45.66L27.3011 45.2239L25.5073 44.2793L27.3791 45.7564Z" fill="#544540"/>
<path d="M27.1481 45.3176L27.3011 45.2239L25.6578 44.187L25.5073 44.2793L27.1481 45.3176Z" fill="#836E69"/>
<path d="M25.2749 44.4242L25.5072 44.2793L27.148 45.3176L27.379 45.7564V45.8432L27.148 45.9854L25.5072 44.9457L25.2749 44.5124V44.4242Z" fill="#685750"/>
<path opacity="0.3" d="M26.0967 31.3062L15.5356 24.6316L20.4181 21.5469L30.9779 28.2215L26.0967 31.3062Z" fill="black"/>
<path d="M30.6782 28.2223V27.7671L28.3456 28.5976L26.6455 29.6728L26.0967 30.6639V31.1184L30.6782 28.2223Z" fill="#403531"/>
<path d="M26.0969 31.1182V30.6637L24.3306 28.8571L18.2294 24.9317L15.835 24.1777V24.6323L26.0969 31.1182Z" fill="#685750"/>
<path d="M30.6785 27.767L20.4184 21.2817L15.835 24.1778L26.0969 30.6638L30.6785 27.767Z" fill="#836E69"/>
<path d="M24.4585 25.9983H23.527L22.8677 25.5827V24.9956L23.527 24.5786H24.4585L25.116 24.9956V25.5827L24.4585 25.9983Z" fill="#836E69"/>
<path d="M23.527 26.2455V25.9981L22.8677 25.5825V25.8306L23.527 26.2455Z" fill="#685750"/>
<path d="M24.4584 25.998H23.5269V26.2455H24.4584V25.998Z" fill="#544540"/>
<path d="M25.116 25.8306V25.5825L24.4585 25.9981V26.2455L25.116 25.8306Z" fill="#403531"/>
<path d="M24.3537 19.9482H23.6288L23.1206 19.6242V19.1676L23.6288 18.8457H24.3537L24.8638 19.1676V19.6242L24.3537 19.9482Z" fill="#836E69"/>
<path d="M23.6288 25.7694L24.0796 22.2417L23.6288 19.9485L23.1206 19.6245V25.4482L23.6288 25.7694Z" fill="#685750"/>
<path d="M24.3538 25.7692L24.7115 22.7774L24.3538 19.9482H23.6289V25.7692H24.3538Z" fill="#544540"/>
<path d="M24.8636 25.4482V19.6245L24.3535 19.9485V25.7694L24.8636 25.4482Z" fill="#403531"/>
<path d="M33.241 31.0716L32.8308 31.3293L31.8394 29.7791V30.1598L32.8308 29.6779L33.241 29.4175V31.0716Z" fill="#0A0808"/>
<path d="M33.2409 29.4177L32.8307 29.6754L28.3434 26.9597L16.3894 19.5407L12.9136 17.0855L13.3232 16.8271L33.2409 29.4177Z" fill="#362C29"/>
<path d="M32.8307 31.3294L12.9136 18.7409V17.0854L32.8307 29.6753V31.3294Z" fill="#362C29"/>
<path d="M31.5566 29.6874L31.4573 29.5029L30.7774 29.0654L30.6787 29.1263V29.1885L30.7774 29.3751L31.4573 29.8139L31.5566 29.7524V29.6874Z" fill="#DDE65C"/>
<path d="M31.4873 29.4865L31.4573 29.5029L30.7773 29.0654L30.8054 29.0483L31.4873 29.4865Z" fill="#B4C342"/>
<path d="M31.5844 29.6709L31.5563 29.6873L31.457 29.5027L31.487 29.4863L31.5844 29.6709Z" fill="#9AAB43"/>
<path d="M31.5847 29.7324L31.5566 29.7523V29.6873L31.5847 29.6709V29.7324Z" fill="#86943F"/>
<path d="M33.241 29.4175L32.8308 29.6752L31.8394 23.3574V15.4456L32.8308 13.4763L33.241 13.2173V29.4175Z" fill="#403531"/>
<path d="M33.2409 13.2174L32.8307 13.4757L28.3434 11.9795L16.3894 4.56053L12.9136 0.885919L13.3232 0.625488L33.2409 13.2174Z" fill="#836E69"/>
<path d="M32.8307 29.6751L12.9136 17.0853V0.885742L32.8307 13.4756V29.6751Z" fill="#685750"/>
<path d="M32.2978 28.798V28.9381L13.4453 17.0229V1.62451L13.5564 1.69491V16.9553L32.2978 28.798Z" fill="#403531"/>
<path d="M32.2981 13.5408V28.7984L13.5566 16.9557V1.69531L32.2981 13.5408Z" fill="#0A0808"/>
<path opacity="0.2" d="M32.2981 13.5408V28.7985L13.5566 16.9557L25.1641 21.2818L27.5311 17.0856L27.3007 12.694L24.7502 8.77051L32.2981 13.5408Z" fill="#999999"/>
<path opacity="0.3" d="M6.27731 36.4165H2.59984L0 38.0597V40.385L11.6899 47.7719H15.3661L17.966 46.1287V43.804L6.27731 36.4165Z" fill="black"/>
<path d="M25.4519 13.5503L25.2402 13.1511L25.4307 13.1196L25.5699 13.3855L25.4519 13.5503Z" fill="#D8D1C7"/>
<path d="M25.3105 13.1951L24.9034 13.0871L23.8433 12.2676L23.9625 12.1924L25.4304 13.1199L25.3105 13.1951Z" fill="#E6E1DD"/>
<path d="M25.4523 16.4124L25.3374 13.6468L25.4523 13.4616L25.5697 13.3857L25.5684 16.3392L25.4523 16.4124Z" fill="#B5AFA7"/>
<path d="M23.8435 15.5738L23.7036 15.3079V12.3571L23.8435 12.2676L25.3107 13.1951L25.4524 13.4617V16.4125L25.3107 16.5007L23.8435 15.5738Z" fill="#FCA48F"/>
<path d="M24.9857 13.8438L24.7759 13.4439L25.3166 13.1924L25.4564 13.4583L24.9857 13.8438Z" fill="#B55C4F"/>
<path d="M24.8461 13.4897L24.4378 13.3817L23.3789 12.5615L23.8478 12.2642L25.3169 13.1924L24.8461 13.4897Z" fill="#FCA48F"/>
<path d="M24.9857 16.7066L24.8721 13.9404L24.9857 13.7552L25.4565 13.4585V16.41L24.9857 16.7066Z" fill="#A3493C"/>
<path d="M23.3788 15.8664L23.2383 15.6025V12.6504L23.3788 12.5615L24.846 13.4898L24.9859 13.755V16.7064L24.846 16.7959L23.3788 15.8664Z" fill="#C26A5E"/>
<path d="M10.8464 3.00669L11.9728 2.52548L13.754 2.45508L17.3385 3.81597L18.285 3.91781L18.0615 5.26435L16.4263 5.45096L10.5161 4.40039L10.8464 3.00669Z" fill="#F0C6B4"/>
<path d="M10.9184 2.79785L12.2926 3.78144L12.4799 6.05279L10.5994 7.55927L8.25238 7.73152L7.44385 5.45129L8.59766 3.73017L10.9184 2.79785Z" fill="#F4EFE9"/>
<path d="M3.81754 38.8659L5.53953 39.6444L7.30834 39.7797V39.9848L7.00178 40.5097L5.25669 40.7428L3.2525 39.9848L1.20898 39.8638L0.61084 39.1967V38.9903L1.20898 38.5474L3.81754 38.8659Z" fill="white"/>
<path d="M11.9727 43.1094L15.0595 44.3487L17.0862 44.5202V44.7273L16.711 45.4416L15.2562 45.6221L10.9157 43.8654L10.3931 42.8586V42.6528L11.9727 43.1094Z" fill="white"/>
<path d="M4.16406 37.6697L5.77056 38.5474L6.8894 38.9903L7.30834 39.7798L7.00178 40.304L5.25669 40.5364L3.2525 39.7798L1.20898 39.6581L0.61084 38.9903L0.800027 37.8529L1.3894 36.8413L4.16406 37.6697Z" fill="#D9AF6F"/>
<path d="M8.98102 19.6333L9.87135 25.9723L9.16769 31.7283L6.17639 34.7829L4.16406 37.6701L2.43459 37.8533L1.20898 36.6674L4.17218 31.7344L5.77056 30.0236L4.95076 24.6702L6.08274 19.9484L8.98102 19.6333Z" fill="#377691"/>
<path d="M13.3299 8.90986L12.4408 9.96796L11.8677 10.4772L10.7344 10.579L9.13232 8.90986L9.4982 6.50113L10.3411 6.05273L11.3963 6.3111L13.3299 8.90986Z" fill="#F0C6B4"/>
<path d="M10.6494 6.51959L10.138 7.72328L10.394 9.29745L11.3649 10.1491L12.4413 9.96798L12.8265 12.0855L12.6155 12.4471L12.9139 13.1737L12.5443 14.8996L9.73779 18.1778L6.95564 20.5018L5.18559 19.9481L3.95996 17.0855L5.32731 12.5613L5.96417 8.70414L7.61497 6.07052L9.35943 5.30225L11.0352 5.83744L11.0577 6.40544L10.6494 6.51959Z" fill="white"/>
<path d="M14.1055 41.9038L16.3669 43.247L17.0862 43.7979V44.5204L16.711 45.2347L15.2562 45.4151L10.9157 43.6591L10.3931 42.653L10.7976 41.249L14.1055 41.9038Z" fill="#D9AF6F"/>
<path d="M5.98819 8.27295V11.2333L6.69371 14.1246L4.82501 17.0856L5.75905 19.396L7.30808 19.6242L10.7976 16.5005H11.9583L9.02883 19.396L8.47001 22.1054L13.9981 33.0979L14.1055 41.9037L12.504 42.3514L10.5148 41.389L10.1845 33.506L2.27761 23.6256L1.74316 20.184L2.96879 16.8273L4.6789 13.6038L5.98819 8.27295Z" fill="#428AA8"/>
<path d="M5.96387 9.29737L8.20469 6.89204L9.83176 6.20032L11.0349 6.50996V6.09642L9.71376 5.45117L7.82633 6.04448L5.98822 8.27275L5.96387 9.29737Z" fill="#428AA8"/>
<path d="M17.4846 5.0791L16.9813 6.79613L16.4288 6.94309L16.2615 7.62181L14.5395 8.8262L13.3301 8.73938L14.8704 5.87952L17.4846 5.0791Z" fill="#F0C6B4"/>
<path d="M17.3697 3.50734L17.9828 4.35012L17.2754 5.81286L15.5453 7.72332L13.5811 8.90991H12.1032L11.0967 8.11906L10.626 6.65633L10.8614 5.32894L11.5681 3.24828L13.4387 2.0439L15.0134 1.69531L16.6148 1.92224L17.3385 2.55929L17.3697 3.50734Z" fill="#6E5849"/>
<path d="M14.3042 3.00684L17.0863 3.47163L14.5396 3.35133L14.3042 3.00684Z" fill="#5E4439"/>
<path d="M21.3867 14.2155L22.5424 13.3351L23.2554 13.1738L24.5772 13.4178L24.3537 13.8437L24.9006 14.0364L25.5693 13.7794L25.8553 14.5381L25.0068 16.126L23.3784 16.4124L21.6227 15.804L21.3867 14.2155Z" fill="#E3BD5E"/>
<path d="M15.4304 15.4177L17.0862 16.1914L21.3868 14.2153L21.764 15.2461L21.6228 15.8038L18.1789 18.8455L16.711 19.0861L14.0693 18.3739V16.6036L15.4304 15.4177Z" fill="#F0C6B4"/>
<path d="M15.4662 15.2461L15.0898 17.0855L13.9491 18.5264L10.0849 16.9064L8.59766 14.9105L9.44554 12.8435L11.7176 12.6938L15.4662 15.2461Z" fill="#F4EFE9"/>
<path d="M6.34038 13.9805L8.71543 11.9402L10.5548 11.6784L11.7099 11.962L12.9136 13.1739L12.8262 12.0858L11.9065 10.9039L10.719 10.3359L8.59743 10.7009L6.08252 12.9709L6.34038 13.9805Z" fill="#428AA8"/>
<path d="M18.0617 5.2649L18.9264 6.24302L20.1514 6.742L20.4823 6.364L19.6338 5.58889L19.886 5.19314L20.8763 5.32163L21.7641 5.96142L22.1656 5.8295L21.7641 4.69416L21.1429 3.98808L19.0681 3.97098L18.2215 3.91357L17.8706 4.58275L18.0617 5.2649Z" fill="#E3BD5E"/>
<path d="M19.8546 42.5923L19.6623 42.5964L16.5598 47.1623L16.4668 47.4644L16.5367 47.675L16.651 47.7474L19.8315 43.1056L19.9682 42.6647L19.8546 42.5923Z" fill="#574943"/>
<path d="M19.9683 42.6646L19.7767 42.668L16.6736 47.2346L16.5806 47.536L16.6511 47.7472L16.8434 47.7431L19.9452 43.1765L20.0389 42.8751L19.9683 42.6646Z" fill="#0A0808"/>
<path d="M19.977 42.9985V42.8372L19.8871 42.7798L19.7591 42.8611L19.668 43.032V43.1933L19.7591 43.25L19.8871 43.1694L19.977 42.9985Z" fill="#8A1C14"/>
<path d="M19.7024 42.8242L19.6118 42.9958L19.6686 43.032L19.7598 42.8611L19.7024 42.8242Z" fill="#C84030"/>
<path d="M19.6118 42.9956V43.1569L19.6686 43.1931V43.0318L19.6118 42.9956Z" fill="#AB281F"/>
<path d="M19.8301 42.7437L19.7021 42.8243L19.7596 42.8612L19.8876 42.7792L19.8301 42.7437Z" fill="#FA5C52"/>
<path opacity="0.3" d="M22.4875 48.2832H21.5091L17.791 50.6325V51.2504L24.2993 55.3632H25.2758L28.9958 53.0146V52.3967L22.4875 48.2832Z" fill="black"/>
<path d="M28.8553 46.9353L20.9597 44.9155L17.9321 45.1862L18.5752 51.2128L24.147 54.7344L28.8553 46.9353Z" fill="#C84030"/>
<path d="M28.8553 46.9355L25.9707 47.1953L24.2993 49.2424L24.147 54.7346H24.9842L28.8553 46.9355Z" fill="#AB281F"/>
<path d="M28.8554 46.9355L26.2356 47.0135L25.276 49.2424L24.9844 54.7346L28.1674 52.723L28.8554 46.9355Z" fill="#8A1C14"/>
<path opacity="0.3" d="M17.9321 45.186L17.9777 45.6173L24.2837 49.6023H25.2446L28.806 47.3528L28.8553 46.9352L17.9321 45.186Z" fill="black"/>
<path d="M26.74 45.8014L19.794 43.9087L17.791 44.5102V45.1288L24.2993 49.2422H25.2758L28.9958 46.8936V46.2744L26.74 45.8014Z" fill="#8A1C14"/>
<path d="M22.4875 41.543H21.5091L17.791 43.8916V44.5102L24.2993 48.6236H25.2758L28.9958 46.2743V45.6557L22.4875 41.543Z" fill="#C84030"/>
<path d="M28.3321 45.5887V46.1328L28.1991 46.2162L22.5942 42.6735H21.7332L18.5865 44.6612L18.4541 44.5778V44.033L21.7332 41.9619H22.5942L28.3321 45.5887Z" fill="#8A1C14"/>
<path d="M28.1991 46.216L25.0529 48.2044H24.1913L22.5942 47.1942L21.3936 45.0042L22.5942 42.6733L28.1991 46.216Z" fill="#AB281F"/>
<path d="M22.5942 42.6733H21.7332L18.5864 44.661L22.5942 47.1948V42.6733Z" fill="#992E26"/>
<path opacity="0.3" d="M26.964 46.997L25.0528 48.2048H24.1912L19.8213 45.4426L21.7331 44.2349H22.5941L26.964 46.997Z" fill="#E8F3FF"/>
<path d="M24.5018 52.1643V52.003L24.4113 51.9463L24.2839 52.0269L24.1934 52.1985V52.3591L24.2833 52.4159L24.4113 52.3359L24.5018 52.1643Z" fill="#0A0808"/>
<path d="M16.7812 47.2648L16.6904 47.4355L24.1913 52.2145L24.2821 52.0438L16.7812 47.2648Z" fill="#362C29"/>
<path d="M16.6782 47.4468V47.6088L24.1943 52.3593V52.1986L16.6782 47.4468Z" fill="#211A1A"/>
<path d="M16.8965 47.1948L16.7686 47.2755L24.2846 52.0267L24.412 51.9453L16.8965 47.1948Z" fill="#574943"/>
<path d="M27.4532 47.3955L27.2603 47.3989L24.1578 51.9656L24.0654 52.267L24.1347 52.4789L24.249 52.5507L27.4301 47.9082L27.5668 47.468L27.4532 47.3955Z" fill="#574943"/>
<path d="M27.567 47.4678L27.3753 47.4712L24.2722 52.0371L24.1792 52.3392L24.2491 52.5505L24.442 52.5464L27.5439 47.9804L27.6375 47.6783L27.567 47.4678Z" fill="#0A0808"/>
<path d="M27.5752 47.8011V47.6397L27.4846 47.583L27.3573 47.6637L27.2661 47.8352V47.9965L27.3566 48.0533L27.4846 47.9726L27.5752 47.8011Z" fill="#8A1C14"/>
<path d="M27.2822 47.6319L27.1919 47.8037L27.2487 47.8395L27.339 47.6677L27.2822 47.6319Z" fill="#C84030"/>
<path d="M27.21 47.7993L27.2106 47.96L27.2668 47.9969V47.8355L27.21 47.7993Z" fill="#AB281F"/>
<path d="M27.4282 47.5469L27.3008 47.6275L27.3576 47.6638L27.4856 47.5831L27.4282 47.5469Z" fill="#FA5C52"/>
</svg>
