<svg width="83" height="56" viewBox="0 0 83 56" fill="none" xmlns="http://www.w3.org/2000/svg">
<path opacity="0.4" fill-rule="evenodd" clip-rule="evenodd" d="M41.9446 3.5166C64.2534 3.5166 82.3467 14.0187 82.3467 26.9696C82.3467 39.9204 64.2534 50.4225 41.9446 50.4225C19.6348 50.4225 1.54248 39.9204 1.54248 26.9696C1.54152 14.0187 19.6348 3.5166 41.9446 3.5166Z" fill="#D2D2E1"/>
<path fill-rule="evenodd" clip-rule="evenodd" d="M3.84668 13.2207L5.28617 27.6368C5.28617 27.875 5.39497 28.0795 5.58273 28.1986L16.9051 35.3571C17.4703 35.7144 18.1174 35.7144 18.6816 35.3571L30.0089 28.1986C30.1986 28.0795 30.3054 27.875 30.3054 27.6368L31.7449 13.2207H3.84668Z" fill="#487AB1"/>
<path fill-rule="evenodd" clip-rule="evenodd" d="M3.84668 13.2207L5.28617 27.6368C5.28617 27.875 5.39497 28.0795 5.58273 28.1986L16.4564 35.0567C16.5961 35.1442 16.7559 35.1442 16.8955 35.0567C17.0351 34.9681 17.115 34.8163 17.115 34.6403V13.2207H3.84668Z" fill="#345B88"/>
<path fill-rule="evenodd" clip-rule="evenodd" d="M32.9121 14.2952L18.8937 23.155C18.1946 23.5967 17.3935 23.5967 16.6945 23.155L2.68179 14.2952C2.44878 14.1476 2.31494 13.8946 2.31494 13.6005C2.31494 13.3054 2.44878 13.0534 2.68179 12.9058L16.6974 4.04708C17.3964 3.6054 18.1975 3.6054 18.8966 4.04708L32.9121 12.9058C33.1451 13.0534 33.278 13.3064 33.278 13.6016C33.278 13.8957 33.1451 14.1476 32.9121 14.2952Z" fill="#639DD7"/>
<path fill-rule="evenodd" clip-rule="evenodd" d="M32.9121 13.9147L18.8937 22.7745C18.1946 23.2162 17.3935 23.2162 16.6945 22.7745L2.68179 13.9147C2.44878 13.7671 2.31494 13.5141 2.31494 13.22C2.31494 12.9249 2.44878 12.6719 2.68179 12.5254L16.6974 3.66661C17.3964 3.22494 18.1975 3.22388 18.8966 3.66661L32.9121 12.5254C33.1451 12.673 33.278 12.9259 33.278 13.2211C33.278 13.5152 33.1451 13.7682 32.9121 13.9147Z" fill="#77B3EC"/>
<path fill-rule="evenodd" clip-rule="evenodd" d="M31.4146 13.8464L18.7837 21.8292C18.154 22.2276 17.4318 22.2276 16.8021 21.8292L4.17694 13.8464C3.96703 13.7135 3.84667 13.4858 3.8457 13.2202C3.8457 12.9546 3.96607 12.7269 4.17694 12.5941L16.805 4.61232C17.4347 4.21386 18.1569 4.21386 18.7866 4.61232L31.4146 12.5941C31.6246 12.7269 31.7449 12.9546 31.7449 13.2202C31.7449 13.4858 31.6255 13.7135 31.4146 13.8464Z" fill="#487AB1"/>
<path fill-rule="evenodd" clip-rule="evenodd" d="M18.0903 22.1022V6.03965C18.0903 5.19003 18.6565 4.53543 19.3401 4.96129L31.4145 12.5941C31.6254 12.7269 31.7458 12.9546 31.7458 13.2203C31.7458 13.4859 31.6254 13.7136 31.4145 13.8475L18.7836 21.8292C18.5612 21.9705 18.3272 22.0601 18.0903 22.1022Z" fill="#345B88"/>
<path fill-rule="evenodd" clip-rule="evenodd" d="M9.1377 16.9831L16.806 12.1362C17.4357 11.7378 18.1579 11.7378 18.7876 12.1362L26.454 16.982L18.7837 21.8288C18.154 22.2273 17.4328 22.2273 16.8031 21.8288L9.1377 16.9831Z" fill="#ADADAD"/>
<path d="M15.8749 31.9444C15.3963 31.9444 14.8889 31.7473 14.4826 31.4901L0.469873 22.6303C0.171383 22.4405 0 22.1169 0 21.7406C0 21.4096 0.1762 21.1946 0.331222 21.0059L0.415952 20.9005L4.00843 16.2624C4.08257 16.1686 4.21159 16.157 4.29825 16.236C4.38491 16.3161 4.39551 16.4584 4.32233 16.5533L0.637409 21.3063C0.492978 21.4823 0.411133 21.5899 0.411133 21.7417C0.411133 21.9556 0.504541 22.1338 0.675932 22.2424L14.6886 31.1022C15.3491 31.5196 16.2061 31.6967 16.6288 31.1517L25.9831 19.0748C26.0572 18.9809 26.1862 18.9683 26.2719 19.0484C26.3576 19.1285 26.3692 19.2708 26.296 19.3646L16.9417 31.4416C16.6596 31.8032 16.2783 31.9444 15.8749 31.9444Z" fill="#CACACA"/>
<path fill-rule="evenodd" clip-rule="evenodd" d="M56.6766 38.0005C56.1797 38.2577 55.6896 38.5128 55.2072 38.7658V37.6548H55.2506C55.7695 37.6558 56.173 37.4134 56.1489 37.1109C56.1258 36.8168 55.7079 36.5775 55.2082 36.5627V35.8017C56.1046 35.9629 57.0531 36.5849 57.185 37.1847V37.4577C57.1368 37.6569 56.9799 37.8435 56.6766 38.0005ZM55.2072 38.7658C52.6643 40.0993 50.3312 41.4222 48.3025 43.2795L45.8462 41.7743C48.8523 40.3143 51.3914 38.2261 53.9189 36.0378C54.2347 35.7648 54.7133 35.7142 55.2082 35.8038V36.5648L55.1649 36.5638C54.6459 36.5617 54.2434 36.8041 54.2675 37.1067C54.2906 37.4007 54.7085 37.6411 55.2082 37.6558L55.2072 38.7658Z" fill="#C18B21"/>
<path fill-rule="evenodd" clip-rule="evenodd" d="M56.6575 37.6557C56.1607 37.9129 55.6706 38.168 55.1872 38.421V37.3099H55.2306C55.7495 37.311 56.153 37.0686 56.1279 36.766C56.1048 36.4719 55.6869 36.2326 55.1872 36.2179V35.4568C56.0836 35.6181 57.0321 36.24 57.164 36.8398V37.1128C57.1168 37.3131 56.9599 37.4997 56.6575 37.6557ZM55.1872 38.421C52.6443 39.7544 50.3112 41.0773 48.2825 42.9347L45.8262 41.4294C48.8323 39.9684 51.3714 37.8802 53.8989 35.6929C54.2147 35.4199 54.6933 35.3693 55.1882 35.4579V36.2189L55.1439 36.2179C54.6249 36.2168 54.2224 36.4582 54.2465 36.7608C54.2696 37.0549 54.6875 37.2952 55.1872 37.3099V38.421Z" fill="#EDC52E"/>
<path fill-rule="evenodd" clip-rule="evenodd" d="M32.3765 35.8439V35.4602C34.2589 34.3745 36.3483 33.9623 38.1623 35.1281L58.0014 47.807C59.904 49.0298 59.9021 51.0179 58.0293 52.2712L32.3765 35.8439Z" fill="#C18B21"/>
<path fill-rule="evenodd" clip-rule="evenodd" d="M32.6319 35.9399L57.8351 51.9066L57.8457 52.0731L54.4959 55.1733L53.5224 54.5166L54.5161 53.8968L53.3539 53.1652L52.3669 53.7861L51.2211 53.063L52.2091 52.4474L51.0469 51.7169L50.0657 52.3335L48.9199 51.6093L49.903 50.998L48.7398 50.2664L47.7644 50.8799L46.6186 50.1557L47.5959 49.5475L46.4328 48.8159L45.4632 49.4263L44.3183 48.7031L45.2889 48.0981L44.1257 47.3665L43.1619 47.9726L42.017 47.2495L42.9818 46.6476L41.8197 45.9161L40.8606 46.519L39.7158 45.7959L40.6748 45.1982L39.5117 44.4656L38.5594 45.0665L37.4136 44.3423L38.3678 43.7488L37.2046 43.0162L36.2581 43.6128L35.1123 42.8887L36.0607 42.2984L34.8985 41.5668L33.9568 42.1592L32.812 41.4361L33.7537 40.8479L32.5915 40.1163L31.6556 40.7056L30.5098 39.9814L31.4476 39.3985L30.2845 38.6669L29.3543 39.252L28.2095 38.5288L32.6319 35.9399Z" fill="#666666"/>
<path fill-rule="evenodd" clip-rule="evenodd" d="M32.6212 35.7729L57.835 51.9062L54.4861 55.0052L53.5126 54.3496L54.5063 53.7298L53.3432 52.9982L52.3572 53.6191L51.2104 52.896L52.1993 52.2804L51.0361 51.5488L50.055 52.1665L48.9101 51.4423L49.8923 50.831L48.7291 50.0983L47.7537 50.7129L46.6079 49.9887L47.5852 49.3805L46.4221 48.6489L45.4534 49.2593L44.3076 48.5351L45.2782 47.93L44.116 47.1995L43.1521 47.8057L42.0063 47.0825L42.9711 46.4806L41.8089 45.7491L40.8509 46.352L39.7051 45.6289L40.6641 45.0302L39.5019 44.2986L38.5487 44.8984L37.4038 44.1753L38.358 43.5808L37.1949 42.8492L36.2484 43.4458L35.1025 42.7217L36.051 42.1303L34.8878 41.3998L33.9461 41.9912L32.8013 41.2691L33.7439 40.6809L32.5817 39.9493L31.6458 40.5386L30.5 39.8144L31.4369 39.2315L30.2737 38.4999L29.3446 39.085L28.1997 38.3619L32.6212 35.7729Z" fill="url(#paint0_linear_455_4870)"/>
<path fill-rule="evenodd" clip-rule="evenodd" d="M32.3765 35.4135C34.359 34.2297 36.2588 33.4749 38.1623 34.6977L58.0014 47.3766C59.904 48.5994 59.9021 50.5874 58.0293 51.8418L32.3765 35.4135Z" fill="#EDC52E"/>
<path fill-rule="evenodd" clip-rule="evenodd" d="M72.1453 36.8368C71.6485 37.094 71.1584 37.3491 70.675 37.6021V36.491H70.7183C71.2373 36.4931 71.6408 36.2496 71.6157 35.9471C71.5926 35.653 71.1747 35.4137 70.675 35.399V34.6389C71.5714 34.8002 72.5199 35.4222 72.6518 36.0219V36.295C72.6056 36.4931 72.4476 36.6797 72.1453 36.8368ZM70.676 37.6021C68.133 38.9355 65.8 40.2584 63.7712 42.1158L61.3149 40.6105C64.321 39.1505 66.8601 37.0624 69.3876 34.8751C69.7035 34.6021 70.182 34.5515 70.6769 34.64V35.4011L70.6336 35.4C70.1146 35.399 69.7121 35.6404 69.7362 35.9439C69.7593 36.238 70.1772 36.4773 70.6769 36.4931L70.676 37.6021Z" fill="#C18B21"/>
<path fill-rule="evenodd" clip-rule="evenodd" d="M57.6567 39.8429V39.4592C59.5392 38.3735 61.6286 37.9613 63.4417 39.1272L65.1431 40.1908C67.7091 41.8236 67.0438 43.4016 65.171 44.656L57.6567 39.8429Z" fill="#C18B21"/>
<path fill-rule="evenodd" clip-rule="evenodd" d="M57.8795 39.9473L64.9778 44.2902L64.9884 44.4568L61.6395 47.5569L53.457 42.5362L57.8795 39.9473Z" fill="#666666"/>
<path fill-rule="evenodd" clip-rule="evenodd" d="M57.8688 39.7808L64.9776 44.2903L61.6288 47.3893L53.4463 42.3697L57.8688 39.7808Z" fill="url(#paint1_linear_455_4870)"/>
<path fill-rule="evenodd" clip-rule="evenodd" d="M57.6567 39.413C59.6393 38.2292 61.539 37.4745 63.4417 38.6972L65.1431 39.7608C67.6639 41.4348 67.0438 42.9717 65.171 44.226L57.6567 39.413Z" fill="#EDC52E"/>
<path fill-rule="evenodd" clip-rule="evenodd" d="M72.1263 36.4927C71.6284 36.7499 71.1393 37.0039 70.6559 37.258V36.1469H70.6993C71.2183 36.148 71.6217 35.9055 71.5967 35.603C71.5736 35.3089 71.1557 35.0696 70.6559 35.0549V34.2938C71.5524 34.4551 72.5008 35.077 72.6327 35.6768V35.9498C72.5855 36.149 72.4276 36.3356 72.1263 36.4927ZM70.6559 37.2569C68.113 38.5904 65.78 39.9133 63.7512 41.7706L61.2939 40.2654C64.3 38.8044 66.8391 36.7162 69.3667 34.5289C69.6825 34.2559 70.161 34.2053 70.6559 34.2938V35.0549L70.6117 35.0538C70.0927 35.0528 69.6902 35.2952 69.7143 35.5977C69.7383 35.8918 70.1553 36.1322 70.655 36.1459L70.6559 37.2569Z" fill="#EDC52E"/>
<path fill-rule="evenodd" clip-rule="evenodd" d="M75.0348 22.53L58.1162 33.34L41.0156 22.7946V21.9302L41.9352 21.9229L58.1239 11.6885L74.1269 21.673L75.0339 21.6667L75.0348 22.53Z" fill="#BBA256"/>
<path fill-rule="evenodd" clip-rule="evenodd" d="M75.0348 21.6666L58.1162 32.4871L41.0156 21.9407L58.1239 11.1255L75.0348 21.6666Z" fill="#F2ECE0"/>
<path fill-rule="evenodd" clip-rule="evenodd" d="M72.2393 21.6885L58.1015 30.7318L43.8105 21.9183L58.1073 12.8804L72.2393 21.6885Z" fill="#D7C792"/>
<path fill-rule="evenodd" clip-rule="evenodd" d="M71.2575 21.697L58.096 30.1141L44.793 21.911L58.1018 13.4971L71.2575 21.697Z" fill="#E8DEC1"/>
<path fill-rule="evenodd" clip-rule="evenodd" d="M63.4545 17.5893L58.0547 21.0437L52.5962 17.6768L58.0566 14.2246L63.4545 17.5893Z" fill="white"/>
<path fill-rule="evenodd" clip-rule="evenodd" d="M63.4545 25.7021L58.0547 29.1565L52.5962 25.7896L58.0566 22.3374L63.4545 25.7021Z" fill="white"/>
<path fill-rule="evenodd" clip-rule="evenodd" d="M69.6234 21.5791L64.2237 25.0334L58.7651 21.6676L64.2256 18.2144L69.6234 21.5791Z" fill="#D7C792"/>
<path fill-rule="evenodd" clip-rule="evenodd" d="M57.2177 21.7119L51.8179 25.1662L46.3594 21.7994L51.8198 18.3472L57.2177 21.7119Z" fill="#D7C792"/>
<path fill-rule="evenodd" clip-rule="evenodd" d="M75.0348 21.2419L58.1162 32.0519L41.0156 21.5065V20.6422L41.9352 20.6348L58.1239 10.4004L74.1269 20.385L75.0339 20.3786L75.0348 21.2419Z" fill="#BBA256"/>
<path fill-rule="evenodd" clip-rule="evenodd" d="M75.0348 20.3785L58.1162 31.199L41.0156 20.6526L58.1239 9.8374L75.0348 20.3785Z" fill="#F2ECE0"/>
<path fill-rule="evenodd" clip-rule="evenodd" d="M72.2393 20.4015L58.1015 29.4437L43.8105 20.6303L58.1073 11.5923L72.2393 20.4015Z" fill="#D7C792"/>
<path fill-rule="evenodd" clip-rule="evenodd" d="M71.2575 20.4089L58.096 28.826L44.793 20.6229L58.1018 12.209L71.2575 20.4089Z" fill="#E8DEC1"/>
<path fill-rule="evenodd" clip-rule="evenodd" d="M63.4545 16.3013L58.0547 19.7556L52.5962 16.3898L58.0566 12.9365L63.4545 16.3013Z" fill="white"/>
<path fill-rule="evenodd" clip-rule="evenodd" d="M63.4545 24.414L58.0547 27.8683L52.5962 24.5015L58.0566 21.0503L63.4545 24.414Z" fill="white"/>
<path fill-rule="evenodd" clip-rule="evenodd" d="M69.6234 20.2909L64.2237 23.7453L58.7651 20.3795L64.2256 16.9272L69.6234 20.2909Z" fill="#D7C792"/>
<path fill-rule="evenodd" clip-rule="evenodd" d="M57.2177 20.4237L51.8179 23.8781L46.3594 20.5123L51.8198 17.0601L57.2177 20.4237Z" fill="#D7C792"/>
<path fill-rule="evenodd" clip-rule="evenodd" d="M75.0348 19.9539L58.1162 30.7638L41.0156 20.2184V19.3541L41.9352 19.3477L58.1239 9.1123L74.1269 19.0969L75.0339 19.0905L75.0348 19.9539Z" fill="#BBA256"/>
<path fill-rule="evenodd" clip-rule="evenodd" d="M75.0348 19.0905L58.1162 29.9109L41.0156 19.3656L58.1239 8.54932L75.0348 19.0905Z" fill="#F2ECE0"/>
<path fill-rule="evenodd" clip-rule="evenodd" d="M72.2393 19.1134L58.1015 28.1556L43.8105 19.3422L58.1073 10.3042L72.2393 19.1134Z" fill="#D7C792"/>
<path fill-rule="evenodd" clip-rule="evenodd" d="M71.2575 19.1208L58.096 27.539L44.793 19.3348L58.1018 10.9209L71.2575 19.1208Z" fill="#E8DEC1"/>
<path fill-rule="evenodd" clip-rule="evenodd" d="M63.4545 15.0131L58.0547 18.4674L52.5962 15.1016L58.0566 11.6494L63.4545 15.0131Z" fill="white"/>
<path fill-rule="evenodd" clip-rule="evenodd" d="M63.4545 23.1255L58.0547 26.5798L52.5962 23.214L58.0566 19.7607L63.4545 23.1255Z" fill="white"/>
<path fill-rule="evenodd" clip-rule="evenodd" d="M69.6234 19.0039L64.2237 22.4572L58.7651 19.0914L64.2256 15.6392L69.6234 19.0039Z" fill="#D7C792"/>
<path fill-rule="evenodd" clip-rule="evenodd" d="M57.2177 19.1367L51.8179 22.59L46.3594 19.2242L51.8198 15.772L57.2177 19.1367Z" fill="#D7C792"/>
<path fill-rule="evenodd" clip-rule="evenodd" d="M75.0348 18.6658L58.1162 29.4757L41.0156 18.9304V18.066L41.9352 18.0597L58.1239 7.82422L74.1269 17.8098L75.0339 17.8025L75.0348 18.6658Z" fill="#BBA256"/>
<path fill-rule="evenodd" clip-rule="evenodd" d="M75.0348 17.8024L58.1162 28.6228L41.0156 18.0775L58.1239 7.26123L75.0348 17.8024Z" fill="#F2ECE0"/>
<path fill-rule="evenodd" clip-rule="evenodd" d="M72.2393 17.8253L58.1015 26.8675L43.8105 18.0551L58.1073 9.01611L72.2393 17.8253Z" fill="#D7C792"/>
<path fill-rule="evenodd" clip-rule="evenodd" d="M71.2575 17.8328L58.096 26.2509L44.793 18.0467L58.1018 9.63281L71.2575 17.8328Z" fill="#E8DEC1"/>
<path fill-rule="evenodd" clip-rule="evenodd" d="M63.4545 13.7245L58.0547 17.1788L52.5962 13.8131L58.0566 10.3608L63.4545 13.7245Z" fill="white"/>
<path fill-rule="evenodd" clip-rule="evenodd" d="M63.4545 21.8373L58.0547 25.2916L52.5962 21.9259L58.0566 18.4736L63.4545 21.8373Z" fill="white"/>
<path fill-rule="evenodd" clip-rule="evenodd" d="M69.6234 17.7158L64.2237 21.1691L58.7651 17.8033L64.2256 14.3511L69.6234 17.7158Z" fill="#D7C792"/>
<path fill-rule="evenodd" clip-rule="evenodd" d="M57.2177 17.8486L51.8179 21.3019L46.3594 17.9361L51.8198 14.4839L57.2177 17.8486Z" fill="#D7C792"/>
<path fill-rule="evenodd" clip-rule="evenodd" d="M75.0348 17.3777L58.1162 28.1876L41.0156 17.6423V16.779L41.9352 16.7716L58.1239 6.53613L74.1269 16.5217L75.0339 16.5144L75.0348 17.3777Z" fill="#BBA256"/>
<path fill-rule="evenodd" clip-rule="evenodd" d="M75.0348 16.5138L58.1162 27.3343L41.0156 16.7889L58.1239 5.97266L75.0348 16.5138Z" fill="#F2ECE0"/>
<path fill-rule="evenodd" clip-rule="evenodd" d="M72.2393 16.5373L58.1015 25.5794L43.8105 16.767L58.1073 7.72803L72.2393 16.5373Z" fill="#D7C792"/>
<path fill-rule="evenodd" clip-rule="evenodd" d="M71.2575 16.5457L58.096 24.9628L44.793 16.7587L58.1018 8.34473L71.2575 16.5457Z" fill="#E8DEC1"/>
<path fill-rule="evenodd" clip-rule="evenodd" d="M63.4545 12.4375L58.0547 15.8908L52.5962 12.525L58.0566 9.07275L63.4545 12.4375Z" fill="white"/>
<path fill-rule="evenodd" clip-rule="evenodd" d="M63.4545 20.5503L58.0547 24.0036L52.5962 20.6378L58.0566 17.1855L63.4545 20.5503Z" fill="white"/>
<path fill-rule="evenodd" clip-rule="evenodd" d="M69.6234 16.4277L64.2237 19.881L58.7651 16.5152L64.2256 13.063L69.6234 16.4277Z" fill="#D7C792"/>
<path fill-rule="evenodd" clip-rule="evenodd" d="M57.2177 16.5605L51.8179 20.0138L46.3594 16.648L51.8198 13.1958L57.2177 16.5605Z" fill="#D7C792"/>
<path fill-rule="evenodd" clip-rule="evenodd" d="M75.0348 16.0901L58.1162 26.9L41.0156 16.3547V15.4914L41.9352 15.484L58.1239 5.24854L74.1269 15.2342L75.0339 15.2268L75.0348 16.0901Z" fill="#BBA256"/>
<path fill-rule="evenodd" clip-rule="evenodd" d="M75.0348 15.2262L58.1162 26.0467L41.0156 15.5013L58.1239 4.68506L75.0348 15.2262Z" fill="#F2ECE0"/>
<path fill-rule="evenodd" clip-rule="evenodd" d="M72.2393 15.2497L58.1015 24.2918L43.8105 15.4795L58.1073 6.44043L72.2393 15.2497Z" fill="#D7C792"/>
<path fill-rule="evenodd" clip-rule="evenodd" d="M71.2575 15.2581L58.096 23.6752L44.793 15.471L58.1018 7.05811L71.2575 15.2581Z" fill="#E8DEC1"/>
<path fill-rule="evenodd" clip-rule="evenodd" d="M63.4545 11.1499L58.0547 14.6032L52.5962 11.2374L58.0566 7.78516L63.4545 11.1499Z" fill="white"/>
<path fill-rule="evenodd" clip-rule="evenodd" d="M63.4545 19.2627L58.0547 22.716L52.5962 19.3502L58.0566 15.8979L63.4545 19.2627Z" fill="white"/>
<path fill-rule="evenodd" clip-rule="evenodd" d="M69.6234 15.1401L64.2237 18.5934L58.7651 15.2276L64.2256 11.7754L69.6234 15.1401Z" fill="#D7C792"/>
<path fill-rule="evenodd" clip-rule="evenodd" d="M57.2177 15.2729L51.8179 18.7262L46.3594 15.3604L51.8198 11.9082L57.2177 15.2729Z" fill="#D7C792"/>
<path fill-rule="evenodd" clip-rule="evenodd" d="M75.0348 14.8014L58.1162 25.6124L41.0156 15.066V14.2027L41.9352 14.1953L58.1239 3.96094L74.1269 13.9455L75.0339 13.9381L75.0348 14.8014Z" fill="#BBA256"/>
<path fill-rule="evenodd" clip-rule="evenodd" d="M75.0348 13.9376L58.1162 24.7581L41.0156 14.2127L58.1239 3.39648L75.0348 13.9376Z" fill="#F2ECE0"/>
<path fill-rule="evenodd" clip-rule="evenodd" d="M72.2393 13.9611L58.1015 23.0033L43.8105 14.1909L58.1073 5.15186L72.2393 13.9611Z" fill="#D7C792"/>
<path fill-rule="evenodd" clip-rule="evenodd" d="M71.2575 13.9695L58.096 22.3866L44.793 14.1835L58.1018 5.76953L71.2575 13.9695Z" fill="#E8DEC1"/>
<path fill-rule="evenodd" clip-rule="evenodd" d="M63.4545 9.86131L58.0547 13.3146L52.5962 9.94881L58.0566 6.49658L63.4545 9.86131Z" fill="white"/>
<path fill-rule="evenodd" clip-rule="evenodd" d="M63.4545 17.9741L58.0547 21.4274L52.5962 18.0616L58.0566 14.6094L63.4545 17.9741Z" fill="white"/>
<path fill-rule="evenodd" clip-rule="evenodd" d="M69.6234 13.8515L64.2237 17.3048L58.7651 13.939L64.2256 10.4868L69.6234 13.8515Z" fill="#D7C792"/>
<path fill-rule="evenodd" clip-rule="evenodd" d="M57.2177 13.9844L51.8179 17.4376L46.3594 14.0718L51.8198 10.6196L57.2177 13.9844Z" fill="#D7C792"/>
<path fill-rule="evenodd" clip-rule="evenodd" d="M75.0348 13.5134L58.1162 24.3243L41.0156 13.7779V12.9146L41.9352 12.9072L58.1239 2.67285L74.1269 12.6574L75.0339 12.65L75.0348 13.5134Z" fill="#BBA256"/>
<path fill-rule="evenodd" clip-rule="evenodd" d="M75.0348 12.6495L58.1162 23.47L41.0156 12.9247L58.1239 2.1084L75.0348 12.6495Z" fill="#F2ECE0"/>
<path fill-rule="evenodd" clip-rule="evenodd" d="M72.2393 12.6729L58.1015 21.7151L43.8105 12.9027L58.1073 3.86475L72.2393 12.6729Z" fill="#D7C792"/>
<path fill-rule="evenodd" clip-rule="evenodd" d="M71.2575 12.6814L58.096 21.0985L44.793 12.8954L58.1018 4.48145L71.2575 12.6814Z" fill="#E8DEC1"/>
<path fill-rule="evenodd" clip-rule="evenodd" d="M63.4545 8.57323L58.0547 12.0265L52.5962 8.66072L58.0566 5.2085L63.4545 8.57323Z" fill="white"/>
<path fill-rule="evenodd" clip-rule="evenodd" d="M63.4545 16.686L58.0547 20.1393L52.5962 16.7735L58.0566 13.3213L63.4545 16.686Z" fill="white"/>
<path fill-rule="evenodd" clip-rule="evenodd" d="M69.6234 12.5635L64.2237 16.0167L58.7651 12.651L64.2256 9.19873L69.6234 12.5635Z" fill="#D7C792"/>
<path fill-rule="evenodd" clip-rule="evenodd" d="M57.2177 12.6963L51.8179 16.1495L46.3594 12.7838L51.8198 9.33154L57.2177 12.6963Z" fill="#D7C792"/>
<path fill-rule="evenodd" clip-rule="evenodd" d="M80.1872 11.839L63.2686 22.65L46.168 12.1036V11.2403L47.0875 11.2329L63.2763 0.998535L79.2782 10.9831L80.1862 10.9757L80.1872 11.839Z" fill="#BBA256"/>
<path fill-rule="evenodd" clip-rule="evenodd" d="M80.1872 10.9757L63.2686 21.7962L46.168 11.2508L63.2763 0.43457L80.1872 10.9757Z" fill="#F2ECE0"/>
<path fill-rule="evenodd" clip-rule="evenodd" d="M77.3922 10.9992L63.2533 20.0414L48.9634 11.229L63.2601 2.18994L77.3922 10.9992Z" fill="#D7C792"/>
<path fill-rule="evenodd" clip-rule="evenodd" d="M76.4089 11.0071L63.2484 19.4242L49.9453 11.2211L63.2541 2.80713L76.4089 11.0071Z" fill="#E8DEC1"/>
<path fill-rule="evenodd" clip-rule="evenodd" d="M68.6068 6.8994L63.2071 10.3527L57.7485 6.98689L63.209 3.53467L68.6068 6.8994Z" fill="white"/>
<path fill-rule="evenodd" clip-rule="evenodd" d="M68.6068 15.0122L63.2071 18.4655L57.7485 15.0997L63.209 11.6475L68.6068 15.0122Z" fill="white"/>
<path fill-rule="evenodd" clip-rule="evenodd" d="M74.7758 10.8891L69.375 14.3424L63.9175 10.9766L69.3779 7.52441L74.7758 10.8891Z" fill="#D7C792"/>
<path fill-rule="evenodd" clip-rule="evenodd" d="M62.37 11.022L56.9693 14.4752L51.5117 11.1094L56.9722 7.65723L62.37 11.022Z" fill="#D7C792"/>
<path fill-rule="evenodd" clip-rule="evenodd" d="M35.7846 3.0127L52.062 14.9453L50.8748 36.3933L50.1642 36.7696L49.7569 35.8684L34.271 24.4028L35.4784 4.28185L35.075 3.39112L35.7846 3.0127Z" fill="#BBA256"/>
<path fill-rule="evenodd" clip-rule="evenodd" d="M35.0748 3.39111L51.3608 15.3184L50.1735 36.7654L33.8086 24.6494L35.0748 3.39111Z" fill="#F2ECE0"/>
<path fill-rule="evenodd" clip-rule="evenodd" d="M36.316 6.13281L49.9252 16.1005L48.9335 34.0236L35.2578 23.8978L36.316 6.13281Z" fill="#D7C792"/>
<path fill-rule="evenodd" clip-rule="evenodd" d="M36.7521 7.09619L49.4206 16.3745L48.4972 33.059L35.7671 23.6342L36.7521 7.09619Z" fill="#E8DEC1"/>
<path fill-rule="evenodd" clip-rule="evenodd" d="M36.7887 16.5752L41.9872 20.3827L41.6079 27.2281L36.3843 23.3605L36.7887 16.5752Z" fill="white"/>
<path fill-rule="evenodd" clip-rule="evenodd" d="M43.4537 13.0278L48.6513 16.8353L48.2729 23.6818L43.0493 19.8142L43.4537 13.0278Z" fill="white"/>
<path fill-rule="evenodd" clip-rule="evenodd" d="M37.3702 8.75684L42.5678 12.5643L42.1884 19.4097L36.9658 15.5422L37.3702 8.75684Z" fill="#D7C792"/>
<path fill-rule="evenodd" clip-rule="evenodd" d="M42.902 20.9126L48.1005 24.7201L47.7211 31.5665L42.4976 27.699L42.902 20.9126Z" fill="#D7C792"/>
<defs>
<linearGradient id="paint0_linear_455_4870" x1="53.1628" y1="58.3708" x2="30.6964" y2="33.9139" gradientUnits="userSpaceOnUse">
<stop stop-color="#848484"/>
<stop offset="1" stop-color="white"/>
</linearGradient>
<linearGradient id="paint1_linear_455_4870" x1="63.4433" y1="49.4767" x2="54.1471" y2="38.208" gradientUnits="userSpaceOnUse">
<stop stop-color="#848484"/>
<stop offset="1" stop-color="white"/>
</linearGradient>
</defs>
</svg>
