<svg width="38" height="45" viewBox="0 0 38 45" fill="none" xmlns="http://www.w3.org/2000/svg">
<path d="M35.9069 25.4993C35.2844 23.3805 33.6697 21.8108 32.6556 19.8816C31.0189 16.768 30.9326 12.7019 28.6402 10.1312C27.4899 8.84129 25.9279 8.11176 24.4093 7.41404C21.7629 6.19808 19.1166 4.98237 16.4702 3.76641C15.4683 3.30611 14.4427 2.8394 13.3581 2.76692C11.4083 2.63625 9.57827 3.79476 8.06399 5.14582C7.39266 5.74468 6.74362 6.40592 6.33105 7.23948C5.39712 9.12654 5.85181 11.4497 5.5077 13.5626C4.95797 16.9368 3.44663 17.1701 2.49221 20.709C2.05554 22.991 3.62094 25.0287 4.89199 26.8995C6.16304 28.7702 7.71673 30.4566 8.57318 32.5914C9.21546 34.1925 9.43549 35.9807 10.1917 37.5209C11.4004 39.9826 14.0148 41.5252 16.5576 41.2772C18.2043 41.1165 19.73 40.2866 21.3411 39.8805C22.5041 39.5874 23.7134 39.5174 24.898 39.6747C25.9585 39.8155 26.9992 40.1365 28.0666 40.1838C31.6931 40.345 34.9926 37.0882 35.8646 33.231C36.1675 31.8905 36.2256 30.4993 36.2449 29.1186C36.2625 27.9004 36.2476 26.6591 35.9069 25.4993Z" fill="#D2D2E1" fill-opacity="0.5"/>
<path d="M37.5351 41.8508C37.3558 40.729 36.083 39.6989 34.346 39.0626C32.609 38.4263 30.4526 38.1627 28.3483 38.1997C24.271 37.9694 20.7357 37.8972 16.6582 37.6669C12.3705 37.4248 7.86126 37.1992 3.90059 38.11C3.15246 38.282 2.41739 38.5007 1.89649 38.8355C0.800196 39.5402 0.928563 40.6316 1.84109 41.4072C2.75362 42.1831 4.29312 42.6883 5.87653 43.0394C8.102 43.5325 10.4979 43.7724 12.8948 43.902C18.6675 44.2147 24.4876 43.9057 30.2612 43.5971C31.6994 43.5201 33.1375 43.4432 34.5757 43.3663C35.5396 43.3148 36.6264 43.2265 37.1822 42.8022C37.5364 42.532 37.5876 42.1797 37.5351 41.8508Z" fill="#B0D4EA"/>
<path d="M22.8976 38.5562C23.1159 37.896 23.1091 37.1048 23.1636 36.4115C23.2397 35.4434 23.3035 34.4744 23.3654 33.5053C23.4746 31.7952 23.5557 30.0756 23.7494 28.3737C23.8419 27.5606 23.9381 26.748 24.0322 25.9351C24.0818 25.5083 24.1313 25.0816 24.1809 24.6548C24.2207 24.3114 24.3248 23.9238 24.1851 23.5966C24.175 23.573 24.1383 23.5673 24.123 23.5878C23.9606 23.8072 23.9505 24.0781 23.9207 24.3501C23.8807 24.7159 23.8408 25.0816 23.8007 25.4474C23.7205 26.1789 23.6406 26.9107 23.5604 27.6422C23.469 28.478 23.3908 29.3125 23.3332 30.152C23.2008 32.0859 23.0965 34.0225 22.9911 35.9581C22.9652 36.4345 22.9359 36.9105 22.9028 37.3864C22.8765 37.767 22.8373 38.1729 22.8735 38.5528C22.8749 38.5676 22.8929 38.571 22.8976 38.5562Z" fill="#273047"/>
<path d="M30.0255 38.5524C30.0942 37.831 29.9721 37.059 29.9298 36.3369C29.8726 35.365 29.8197 34.3927 29.7641 33.4208C29.6654 31.6977 29.5927 29.9662 29.4053 28.2512C29.3166 27.4384 29.2274 26.6255 29.1384 25.8127C29.0918 25.3859 29.045 24.9591 28.9984 24.5323C28.9632 24.2111 28.97 23.8489 28.7761 23.5873C28.7608 23.5669 28.7241 23.5723 28.7139 23.5962C28.5948 23.8756 28.6628 24.1761 28.697 24.4717C28.7394 24.8376 28.7819 25.2032 28.8243 25.5691C28.9092 26.3006 28.9941 27.0323 29.079 27.7638C29.174 28.5823 29.2526 29.4006 29.3139 30.2231C29.458 32.1592 29.5589 34.099 29.7064 36.0349C29.7424 36.507 29.778 36.9794 29.8219 37.4508C29.8557 37.814 29.8877 38.2124 30.0014 38.5563C30.0062 38.5709 30.0239 38.5676 30.0255 38.5524Z" fill="#273047"/>
<path d="M29.8195 23.5504C29.8195 23.9873 29.5362 24.3416 26.3669 24.3416C23.1976 24.3416 23.0796 23.9873 23.0796 23.5504C23.0796 23.1136 23.1976 22.7593 26.3669 22.7593C29.5362 22.7593 29.8195 23.1136 29.8195 23.5504Z" fill="#BAD4ED"/>
<path d="M14.5568 38.5562C14.7751 37.896 14.7683 37.1048 14.8228 36.4115C14.8989 35.4434 14.9626 34.4744 15.0246 33.5053C15.1338 31.7952 15.2149 30.0756 15.4085 28.3737C15.5011 27.5606 15.5973 26.748 15.6914 25.9351C15.741 25.5083 15.7905 25.0816 15.84 24.6548C15.8799 24.3114 15.9839 23.9238 15.8443 23.5966C15.8342 23.573 15.7975 23.5673 15.7822 23.5878C15.6196 23.8072 15.6097 24.0781 15.5799 24.3501C15.5398 24.7159 15.5 25.0816 15.4599 25.4474C15.3797 26.1789 15.2998 26.9107 15.2196 27.6422C15.1282 28.478 15.0498 29.3125 14.9924 30.152C14.86 32.0859 14.7557 34.0225 14.6503 35.9581C14.6244 36.4345 14.5951 36.9105 14.562 37.3864C14.5357 37.767 14.4965 38.1729 14.5327 38.5528C14.5341 38.5676 14.5519 38.571 14.5568 38.5562Z" fill="#273047"/>
<path d="M21.6847 38.5524C21.7534 37.831 21.6313 37.059 21.589 36.3369C21.5318 35.365 21.4789 34.3927 21.4232 33.4208C21.3246 31.6977 21.2519 29.9662 21.0645 28.2512C20.9758 27.4384 20.8866 26.6255 20.7976 25.8127C20.751 25.3859 20.7042 24.9591 20.6575 24.5323C20.6224 24.2111 20.6292 23.8489 20.4353 23.5873C20.42 23.5669 20.3832 23.5723 20.3731 23.5962C20.254 23.8756 20.322 24.1761 20.3562 24.4717C20.3986 24.8376 20.4411 25.2032 20.4835 25.5691C20.5684 26.3006 20.6533 27.0323 20.7382 27.7638C20.8332 28.5823 20.9118 29.4006 20.9731 30.2231C21.1172 32.1592 21.2181 34.099 21.3656 36.0349C21.4016 36.507 21.4372 36.9794 21.4811 37.4508C21.5149 37.814 21.5469 38.2124 21.6606 38.5563C21.6653 38.5709 21.6833 38.5676 21.6847 38.5524Z" fill="#273047"/>
<path d="M21.4787 23.5504C21.4787 23.9873 21.1954 24.3416 18.0261 24.3416C14.8568 24.3416 14.7388 23.9873 14.7388 23.5504C14.7388 23.1136 14.8568 22.7593 18.0261 22.7593C21.1954 22.7593 21.4787 23.1136 21.4787 23.5504Z" fill="#BAD4ED"/>
<path d="M6.21552 38.5562C6.43374 37.896 6.42698 37.1048 6.48148 36.4115C6.5576 35.4434 6.62134 34.4744 6.68327 33.5053C6.79249 31.7952 6.87356 30.0756 7.06724 28.3737C7.1598 27.5606 7.25596 26.748 7.3501 25.9351C7.39964 25.5083 7.44919 25.0816 7.49873 24.6548C7.53859 24.3114 7.64264 23.9238 7.50301 23.5966C7.49288 23.573 7.45617 23.5673 7.44086 23.5878C7.27826 23.8072 7.26835 24.0781 7.23862 24.3501C7.19854 24.7159 7.15845 25.0816 7.11859 25.4474C7.03842 26.1789 6.95847 26.9107 6.87829 27.6422C6.78686 28.478 6.70849 29.3125 6.65106 30.152C6.51864 32.0859 6.41437 34.0225 6.30898 35.9581C6.28308 36.4345 6.2538 36.9105 6.2207 37.3864C6.19435 37.767 6.15516 38.1729 6.19142 38.5528C6.19277 38.5676 6.21056 38.571 6.21552 38.5562Z" fill="#273047"/>
<path d="M13.3434 38.5524C13.4121 37.831 13.29 37.059 13.2477 36.3369C13.1905 35.365 13.1376 34.3927 13.0819 33.4208C12.9833 31.6977 12.9105 29.9662 12.7232 28.2512C12.6344 27.4384 12.5453 26.6255 12.4563 25.8127C12.4097 25.3859 12.3628 24.9591 12.3162 24.5323C12.2811 24.2111 12.2879 23.8489 12.094 23.5873C12.0786 23.5669 12.0419 23.5723 12.0318 23.5962C11.9127 23.8756 11.9807 24.1761 12.0149 24.4717C12.0572 24.8376 12.0998 25.2032 12.1422 25.5691C12.2271 26.3006 12.312 27.0323 12.3969 27.7638C12.4919 28.5823 12.5705 29.4006 12.6317 30.2231C12.7759 32.1592 12.8768 34.099 13.0243 36.0349C13.0603 36.507 13.0959 36.9794 13.1398 37.4508C13.1736 37.814 13.2056 38.2124 13.3193 38.5563C13.324 38.5709 13.342 38.5676 13.3434 38.5524Z" fill="#273047"/>
<path d="M13.1374 23.5504C13.1374 23.9873 12.8541 24.3416 9.68477 24.3416C6.51547 24.3416 6.39746 23.9873 6.39746 23.5504C6.39746 23.1136 6.51547 22.7593 9.68477 22.7593C12.8541 22.7593 13.1374 23.1136 13.1374 23.5504Z" fill="#BAD4ED"/>
<path d="M4.95238 24.2776L4.01914 39.2427L2.77803 39.538C2.77803 39.538 2.9296 36.863 2.7366 35.3182C2.5436 33.7736 2.0826 31.9082 2.44878 29.5764C2.81497 27.2446 2.61881 24.0713 2.61881 24.0713L4.95238 24.2776Z" fill="#FAC3D2"/>
<path d="M9.32688 24.3257L10.2417 39.2919H9.0474C9.0474 39.2919 8.86949 37.0942 8.48844 35.592C8.1074 34.0898 7.4212 32.3095 7.49755 29.9449C7.57366 27.5803 6.98926 24.4647 6.98926 24.4647L9.32688 24.3257Z" fill="#FAC3D2"/>
<path d="M2.31104 32.9302C2.41553 33.8044 2.5752 34.5976 2.67361 35.3177C2.88463 36.8623 2.71888 39.5376 2.71888 39.5376L4.07551 39.2422L4.50588 32.9302H2.31104Z" fill="white"/>
<path d="M7.729 32.9302C7.95353 33.924 8.25148 34.7987 8.46249 35.5921C8.86223 37.0943 9.0487 39.292 9.0487 39.292H10.3011L9.89322 32.9302H7.729Z" fill="white"/>
<path d="M2.52481 19.3541L2.06494 37.2014C2.06494 37.2014 2.61737 37.805 4.50593 37.2628C4.50593 37.2628 5.52881 24.5428 5.66664 23.4866C5.80446 22.4304 6.24293 22.4304 6.24293 22.4304L8.22 37.2424C8.22 37.2424 9.67077 37.3797 10.55 36.9445L9.28027 19.0488L2.52481 19.3541Z" fill="#BE7667"/>
<g opacity="0.1">
<path d="M5.38419 20.8984C7.32027 20.6667 8.43188 20.1551 9.34734 20.0478L9.28045 19.0488L2.525 19.3541L2.49707 20.4352C2.93284 20.6962 3.84267 21.0831 5.38419 20.8984Z" fill="black"/>
</g>
<path d="M10.4418 13.1368C10.4418 13.1368 10.3387 18.3889 11.3744 23.2205C11.3744 23.2205 10.9424 23.875 11.5852 24.3205C12.2281 24.7658 13.14 24.0096 12.9828 23.5885C12.8254 23.1677 12.57 23.131 12.57 23.131C12.57 23.131 12.8675 22.5585 12.4022 22.6029C12.4022 22.6029 12.1286 16.5647 12.2376 12.7314L10.4418 13.1368Z" fill="#FAC3D2"/>
<path d="M10.4784 13.8387C10.7924 13.9203 11.4745 14.051 12.2028 13.9063C12.3913 13.8688 12.5825 13.8151 12.7712 13.7347C12.7712 13.7347 12.9323 11.1073 11.8853 9.76631C10.8383 8.42535 8.44213 7.61471 8.44213 7.61471C5.96241 6.8556 5.14176 6.82724 3.12911 7.84646C2.45395 8.18841 1.41958 8.94704 1.41958 8.94704C1.41958 8.94704 1.25991 9.90363 1.6842 10.6521C1.95872 11.1364 2.11479 11.4882 2.80211 11.8745L3.90088 11.1122C3.90088 11.1122 3.3167 12.9758 2.96403 14.6627C2.69019 15.9728 2.34134 19.5573 2.36229 19.9984C2.36229 19.9984 2.87057 20.3123 4.19185 20.4871C6.35741 20.7735 8.38448 19.4782 9.33056 19.7679C9.33056 19.7679 9.347 16.4388 10.2805 13.0878L10.2958 13.7857C10.2958 13.7857 10.364 13.8091 10.4784 13.8387Z" fill="#ECA157"/>
<path d="M8.05171 9.17597C8.48387 9.30837 8.79128 9.29086 9.00657 9.21714C9.26015 9.13061 9.44865 8.8959 9.52004 8.61607L9.64525 8.12545C8.97437 7.79557 8.45257 7.50958 8.45257 7.50958C7.92919 7.34932 6.92726 7.20312 6.92726 7.20312C6.76782 7.82688 7.00721 8.61927 7.5218 8.93904C7.66818 9.03051 7.84317 9.11236 8.05171 9.17597Z" fill="#E0964C"/>
<path d="M3.99657 38.8818C4.22785 38.8552 4.20195 38.0221 4.50395 38.1015C4.80595 38.1809 4.76969 38.5909 4.62466 38.8818C4.47963 39.1728 4.5643 39.4109 4.5643 39.4109C4.5643 39.4109 4.70708 39.6836 5.32324 39.8291C5.9394 39.9745 6.28216 39.8739 6.28216 39.8739C6.28216 39.8739 6.63258 40.1252 6.41503 40.707H2.18457C2.18457 40.707 2.20732 38.9292 2.45031 38.8291C2.69331 38.7287 2.7361 39.194 2.7361 39.194L3.99657 38.8818Z" fill="#ECA157"/>
<path d="M2.18435 41.1978H6.41504V40.7076H2.18435V41.1978Z" fill="#39496D"/>
<path d="M4.67751 39.3649C4.6113 39.3836 4.5872 39.4457 4.55297 39.5071C4.51086 39.5826 4.4701 39.6546 4.4496 39.7406C4.44375 39.7653 4.46852 39.7867 4.48901 39.7739C4.58563 39.7125 4.75228 39.5214 4.71534 39.3885C4.71061 39.3708 4.69417 39.3602 4.67751 39.3649Z" fill="#273047"/>
<path d="M4.9726 39.5441C4.91202 39.622 4.85932 39.7421 4.83725 39.8419C4.82374 39.9028 4.88927 39.9418 4.93071 39.9013C5.00953 39.8247 5.0593 39.6782 5.04331 39.5643C5.03836 39.531 4.99174 39.5192 4.9726 39.5441Z" fill="#273047"/>
<path d="M5.31906 39.6314C5.23618 39.6842 5.1666 39.8467 5.14227 39.946C5.12764 40.0059 5.19159 40.0365 5.23055 40.0022C5.31208 39.9307 5.39968 39.7769 5.38437 39.6605C5.38009 39.6287 5.34135 39.6174 5.31906 39.6314Z" fill="#273047"/>
<path d="M4.36271 39.2203C4.45932 39.2866 4.62282 39.2001 4.71583 39.1537C4.78069 39.1214 4.91829 39.0613 4.89036 38.956C4.86424 38.8574 4.75884 38.9027 4.70209 38.9402C4.58296 39.0186 4.46495 39.1547 4.40572 39.2918C4.39942 39.3063 4.41293 39.3256 4.42734 39.3155C4.49558 39.2679 4.55368 39.2097 4.61336 39.1503C4.66876 39.095 4.75569 39.0314 4.79848 38.9834C4.73745 39.0516 4.61877 39.0936 4.53972 39.1214C4.47689 39.1436 4.4064 39.1483 4.36068 39.2035C4.3564 39.2087 4.35708 39.2166 4.36271 39.2203Z" fill="#273047"/>
<path d="M10.2466 38.8818C10.4778 38.8552 10.452 38.0221 10.7539 38.1015C11.0559 38.1809 11.0197 38.5909 10.8747 38.8818C10.7296 39.1728 10.8143 39.4109 10.8143 39.4109C10.8143 39.4109 10.9571 39.6836 11.5732 39.8291C12.1894 39.9745 12.5322 39.8739 12.5322 39.8739C12.5322 39.8739 12.8826 40.1252 12.665 40.707H8.43457C8.43457 40.707 8.45732 38.9292 8.70031 38.8291C8.94331 38.7287 8.9861 39.194 8.9861 39.194L10.2466 38.8818Z" fill="#ECA157"/>
<path d="M8.43435 41.1978H12.665V40.7076H8.43435V41.1978Z" fill="#39496D"/>
<path d="M10.9275 39.3649C10.8613 39.3836 10.8372 39.4457 10.803 39.5071C10.7609 39.5826 10.7201 39.6546 10.6996 39.7406C10.6937 39.7653 10.7185 39.7867 10.739 39.7739C10.8356 39.7125 11.0023 39.5214 10.9653 39.3885C10.9604 39.3708 10.944 39.3602 10.9275 39.3649Z" fill="#273047"/>
<path d="M11.2221 39.5441C11.1615 39.622 11.1088 39.7421 11.0868 39.8419C11.0733 39.9028 11.1388 39.9418 11.1802 39.9013C11.259 39.8247 11.3086 39.6782 11.2928 39.5643C11.2881 39.531 11.2415 39.5192 11.2221 39.5441Z" fill="#273047"/>
<path d="M11.5691 39.6314C11.4862 39.6842 11.4166 39.8467 11.3923 39.946C11.3776 40.0059 11.4416 40.0365 11.4806 40.0022C11.5621 39.9307 11.6497 39.7769 11.6346 39.6605C11.6301 39.6287 11.5911 39.6174 11.5691 39.6314Z" fill="#273047"/>
<path d="M10.6125 39.2203C10.7092 39.2866 10.8727 39.2001 10.9657 39.1537C11.0305 39.1214 11.1681 39.0613 11.1402 38.956C11.1141 38.8574 11.0085 38.9027 10.9519 38.9402C10.8328 39.0186 10.7148 39.1547 10.6556 39.2918C10.6493 39.3063 10.6628 39.3256 10.6772 39.3155C10.7454 39.2679 10.8035 39.2097 10.8632 39.1503C10.9186 39.095 11.0055 39.0314 11.0483 38.9834C10.9873 39.0516 10.8686 39.0936 10.7896 39.1214C10.7267 39.1436 10.656 39.1483 10.6105 39.2035C10.6065 39.2087 10.6071 39.2166 10.6125 39.2203Z" fill="#273047"/>
<path d="M10.6609 36.4247C10.8071 36.5046 10.8465 37.2738 10.8352 37.3784C10.824 37.4829 10.3576 37.6244 9.48626 37.8091C8.61517 37.9937 8.1767 37.9752 8.14855 37.8828C8.1204 37.7906 7.89451 36.8687 8.03054 36.8552C8.16656 36.8419 10.5506 36.3643 10.6609 36.4247Z" fill="#995247"/>
<path d="M4.63398 36.7523C4.75987 36.8662 4.63983 37.6253 4.6074 37.7244C4.57497 37.8236 4.09123 37.8465 3.20461 37.8112C2.31775 37.7762 1.89459 37.65 1.88626 37.5531C1.87793 37.4562 1.84752 36.5023 1.98287 36.5228C2.11799 36.5435 4.53917 36.6663 4.63398 36.7523Z" fill="#995247"/>
<path d="M8.69459 4.74875L7.27243 7.33846C7.23324 7.40996 7.21365 7.49157 7.22063 7.57465C7.24067 7.81553 7.36048 8.32267 7.97867 8.72947C8.54078 9.09928 8.88399 8.99894 9.04997 8.89145C9.11595 8.8488 9.16865 8.7874 9.20806 8.71566L9.87939 7.49329C9.87939 7.49329 10.9284 8.22553 11.4763 7.22751C12.0242 6.2295 13.702 3.17432 13.702 3.17432L10.6588 1.17139L8.85832 2.2409L8.18676 4.45635L8.69459 4.74875Z" fill="#FAC3D2"/>
<path d="M11.4044 4.75352C11.3803 4.89331 11.3773 5.03014 11.3679 5.17141C11.362 5.25844 11.3508 5.36052 11.2735 5.40909C11.1837 5.46554 11.0508 5.41747 10.9566 5.39651C10.9042 5.38492 10.8625 5.46948 10.9177 5.49759C11.0814 5.58166 11.3068 5.62333 11.4113 5.41574C11.5041 5.23157 11.4649 4.95051 11.4384 4.75352C11.4357 4.73479 11.4075 4.73553 11.4044 4.75352Z" fill="#273047"/>
<path opacity="0.1" d="M9.87956 7.49353C9.87956 7.49353 9.18503 7.14418 9.09427 6.05322C9.09427 6.05322 8.78394 7.06948 9.75975 7.71198L9.87956 7.49353Z" fill="black"/>
<path d="M12.0031 4.82345C11.9324 4.9524 11.927 5.09096 11.9909 5.13312C12.0549 5.17528 12.1641 5.10501 12.2348 4.97607C12.3055 4.84713 12.3112 4.70857 12.247 4.66665C12.183 4.62425 12.0738 4.69451 12.0031 4.82345Z" fill="#273047"/>
<path d="M11.031 4.18393C10.9603 4.31288 10.9547 4.45144 11.0188 4.49335C11.0828 4.53551 11.192 4.46524 11.2627 4.3363C11.3335 4.20736 11.3391 4.0688 11.2749 4.02689C11.2112 3.98473 11.1019 4.05499 11.031 4.18393Z" fill="#273047"/>
<path d="M8.94359 0.896193C9.18681 0.512322 9.67167 0.204638 10.0966 0.245318C11.045 0.3358 12.2775 1.50097 12.7092 1.78277C13.2682 2.14766 14.0936 1.75762 14.2915 2.16713C14.5377 2.67625 13.7082 4.2179 13.567 4.44521C13.4873 4.57341 13.3896 4.69175 13.2657 4.7667C12.9443 4.96098 12.4829 4.76794 12.3615 4.38875L11.9852 3.98885C11.8532 3.9282 11.7156 3.88037 11.5965 3.79433C11.4976 3.72308 11.4145 3.62717 11.3118 3.56282C11.1254 3.44596 10.8918 3.44744 10.6864 3.51672C10.4811 3.586 10.0757 4.2031 10.1212 3.85054C10.1617 3.53595 10.2845 3.28694 10.0687 3.1474C9.85274 3.00785 9.52754 3.17821 9.49827 3.45089C9.48385 3.58649 9.5316 3.72851 9.49174 3.85769C9.4226 4.08205 9.13096 4.14985 9.06362 4.37494C9.03817 4.45976 9.05033 4.55319 9.03142 4.64022C8.97827 4.8843 8.69812 5.02261 8.67965 5.27261C8.39094 5.08006 8.19996 4.74229 8.11101 4.3853C8.02183 4.0283 8.02588 3.65109 8.05808 3.2825C8.09749 2.83231 8.18015 2.38138 8.35761 1.97261C8.53484 1.56384 8.70825 1.26798 8.94359 0.896193Z" fill="#1D2873"/>
<path d="M10.7728 6.18079C10.5482 5.95076 10.3228 5.81763 10.2028 5.91723C10.0828 6.01684 10.1794 6.53335 10.3354 6.69311C10.4913 6.85263 11.2657 6.68522 10.7728 6.18079Z" fill="white"/>
<path d="M26.2886 30.9795L27.0484 39.5324C27.0484 39.7725 28.0296 39.9673 29.2401 39.9673C30.4506 39.9673 31.4318 39.7725 31.4318 39.5324L32.1925 30.9795H26.2886Z" fill="#BE7667"/>
<path d="M31.864 30.966C31.2877 30.8018 30.3279 30.6943 29.2402 30.6943C28.1524 30.6943 27.1926 30.8018 26.6163 30.966H26.0483V31.325C26.0483 31.6734 27.4773 31.9559 29.2402 31.9559C31.0028 31.9559 32.4318 31.6734 32.4318 31.325V30.966H31.864Z" fill="#995247"/>
<path d="M32.4322 30.9664C32.4322 31.3147 31.0033 31.5973 29.2407 31.5973C27.478 31.5973 26.0488 31.3147 26.0488 30.9664C26.0488 30.618 27.4778 30.3354 29.2407 30.3354C31.0033 30.3354 32.4322 30.618 32.4322 30.9664Z" fill="#BE7667"/>
<path d="M29.2401 30.6553C27.6376 30.6553 26.3384 30.9119 26.3384 31.2287C26.8426 31.4459 27.9517 31.5968 29.2401 31.5968C30.5285 31.5968 31.6379 31.4459 32.1419 31.2287C32.1419 30.9122 30.8427 30.6553 29.2401 30.6553Z" fill="#7C3831"/>
<path d="M17.7889 39.358C17.7745 39.287 17.7621 39.2152 17.745 39.145C17.7407 39.1272 17.7371 39.1087 17.7337 39.0905C17.7531 39.1945 17.7317 39.071 17.7195 39.0301C17.7053 38.9822 17.6893 38.9349 17.674 38.8873C17.633 38.7586 17.5918 38.6299 17.5506 38.5012C17.2452 37.5478 16.936 36.5959 16.6257 35.6445C16.0519 33.8857 15.4765 32.128 14.8842 30.3763C13.9649 27.6584 13.0172 24.9521 12.0725 22.2448C10.7499 18.4539 9.41937 14.6663 8.08728 10.8793C7.88888 10.3155 7.68057 9.75484 7.50266 9.18285C7.36753 8.7482 6.79326 8.99795 6.96554 9.43063C7.40311 10.5283 7.77155 11.6643 8.16768 12.7804C8.52666 13.7915 8.88518 14.8028 9.24348 15.8142C9.88802 17.6342 10.5314 19.4547 11.1735 21.2756C12.1651 24.0885 13.1415 26.908 14.1401 29.7181C14.797 31.5669 15.4452 33.4197 16.1212 35.2601C16.4975 36.2845 16.8579 37.3161 17.2204 38.3461C17.3094 38.5986 17.3914 38.8553 17.4864 39.105C17.5074 39.16 17.5605 39.34 17.629 39.4171C17.6314 39.4199 17.6328 39.4255 17.6344 39.429C17.6794 39.5261 17.8089 39.4566 17.7889 39.358Z" fill="#273047"/>
<path d="M1.39193 9.48145C-0.0473525 10.9691 -0.596176 12.0066 0.844457 13.5275C2.67604 15.4611 8.67234 14.4017 8.67234 14.4017C8.67234 14.4017 8.67009 14.6591 9.00114 14.8201C9.41281 15.0206 9.63734 14.9634 9.64545 13.9676C9.64837 13.6019 9.46303 13.4348 9.05361 13.2499C8.67707 13.0798 8.39804 13.3835 8.39804 13.3835C8.39804 13.3835 2.56299 13.3214 2.51435 11.6932C2.17767 11.4166 1.85135 10.9467 1.68447 10.6523C1.46377 10.2632 1.40139 9.81946 1.39193 9.48145Z" fill="#FAC3D2"/>
<path d="M16.2392 40.5652C16.148 40.6747 15.9577 40.6784 15.921 40.8206C15.9061 40.8781 15.9244 40.9387 15.9424 40.9949C16.0262 41.2572 16.1097 41.5196 16.1935 41.7819C16.2719 42.0275 16.37 42.2979 16.5856 42.4074C16.6153 42.4224 16.648 42.434 16.6804 42.4293C16.718 42.4239 16.7502 42.3975 16.7806 42.3726C17.3682 41.8874 18.039 41.5413 18.6854 41.1562C19.42 40.7185 20.1278 40.2272 20.8025 39.6863C20.8588 39.6411 20.9165 39.5938 20.9507 39.5272C21.003 39.4257 20.9899 39.2955 20.9408 39.1922C20.8917 39.0889 20.8113 39.0078 20.7287 38.9345C20.5293 38.758 20.3082 38.6143 20.0877 38.471C20.0431 38.442 19.9963 38.4124 19.9445 38.4082C19.8832 38.4035 19.8249 38.4355 19.7709 38.4676C19.5785 38.581 19.3905 38.7035 19.2079 38.8349" fill="#ECA157"/>
<path d="M20.179 38.6218C20.1671 38.5888 20.1383 38.5673 20.1113 38.5479C20.0068 38.4732 19.902 38.3985 19.7975 38.3238C19.7138 38.2638 19.623 38.2017 19.523 38.2042C19.4368 38.2064 19.3586 38.2562 19.2845 38.3045C18.9375 38.5316 18.5907 38.7587 18.2439 38.9857C18.1975 38.9009 18.1508 38.8163 18.0968 38.7372C18.0382 38.6517 17.9651 38.5634 17.868 38.5525C17.8178 38.5469 17.7678 38.5631 17.7196 38.5794C17.5914 38.6223 17.4635 38.665 17.3354 38.7079C17.2777 38.7271 17.2156 38.75 17.1822 38.805C17.1361 38.8812 17.1649 38.9828 17.1951 39.0681C17.253 39.2318 17.3108 39.3952 17.3687 39.5589C16.9818 39.8124 16.5947 40.0656 16.2078 40.319C16.1377 40.2833 16.0531 40.3548 16.0369 40.4376C16.0204 40.5212 16.0508 40.6063 16.0805 40.6852C16.1499 40.8693 16.2521 41.0816 16.4332 41.1011C16.5323 41.1117 16.6267 41.0584 16.7143 41.0066C17.6917 40.4283 18.6612 39.8336 19.6221 39.2227C19.8171 39.0986 20.018 38.9677 20.1462 38.7646C20.1723 38.7224 20.1962 38.6694 20.179 38.6218Z" fill="#39496D"/>
<path d="M19.334 41.1683C19.9245 41.1683 20.14 40.779 20.6591 40.6412C21.1158 40.5199 21.7835 40.8079 22.1493 40.4849C22.5614 40.1207 22.9413 39.7132 23.2825 39.2697C23.5606 38.908 23.8194 38.5157 24.1779 38.2522C24.5364 37.9886 25.0317 37.8806 25.3974 38.1319C25.7523 38.3757 25.8786 38.8624 26.0554 39.2783C26.5912 40.5376 27.8321 41.3014 29.1299 41.3014" fill="white"/>
</svg>
