<svg width="50" height="55" viewBox="0 0 50 55" fill="none" xmlns="http://www.w3.org/2000/svg">
<path d="M25.6558 53.5067V54.8873L49.1333 40.0481V38.6675L25.6558 53.5067Z" fill="#DEBE97"/>
<path d="M0 37.291V38.6716L25.6558 54.8875V53.5069L0 37.291Z" fill="#CAA58B"/>
<path d="M0 37.2909L25.6558 53.5068L49.1334 38.6676L23.4776 22.4517L0 37.2909Z" fill="#EFE1BC"/>
<path opacity="0.5" d="M23.4776 22.4517L0 37.2909L9.18195 40.267L28.7138 27.9056V25.7615L23.4776 22.4517Z" fill="black"/>
<path d="M27.3868 0.149414L7.85498 12.495L9.18175 13.3335L28.7136 0.988319L27.3868 0.149414Z" fill="#EFE1BC"/>
<path d="M7.85498 12.4951V39.4285L9.18175 40.267V13.3336L7.85498 12.4951Z" fill="#CAA58B"/>
<path d="M9.18164 40.2669V13.3335L28.7135 0.988281V27.9217L9.18164 40.2669Z" fill="#DEBE97"/>
<path d="M9.18164 13.3335V40.2669L28.7135 27.9217L28.7199 0.988281L9.18164 13.3335ZM28.3306 14.4025C28.3111 14.426 28.292 14.4439 28.2752 14.4452C28.2577 14.4465 28.2462 14.4317 28.2307 14.4269C28.2088 14.4195 28.1805 14.4317 28.1534 14.4439C28.0925 14.4713 28.0531 14.5537 27.9922 14.5812C27.9568 14.5968 27.8987 14.5576 27.8632 14.5877C27.8226 14.6221 27.7848 14.7001 27.7438 14.7258C27.702 14.752 27.6626 14.7219 27.6208 14.7524C27.5794 14.7829 27.5579 14.8222 27.5603 14.8753C27.532 14.9137 27.4966 14.9158 27.4707 14.9076C27.4448 14.8993 27.4186 14.8849 27.3859 14.9045C27.3533 14.9241 27.3226 14.9843 27.3465 15.0104C27.2868 15.0849 27.2562 14.9503 27.1973 15.0257C27.1766 15.0523 27.1662 15.0919 27.1443 15.1159C27.1244 15.1381 27.0945 15.1198 27.0742 15.1242C27.0324 15.1333 26.9942 15.183 26.9532 15.2279C26.9369 15.1865 26.911 15.1895 26.8784 15.2091C26.8477 15.227 26.8123 15.2457 26.79 15.2793C26.7677 15.3129 26.7717 15.3425 26.7709 15.3782C26.745 15.3717 26.7335 15.3312 26.7156 15.3198C26.6977 15.3085 26.6698 15.3346 26.6602 15.3529C26.6507 15.3708 26.6511 15.4109 26.6551 15.4349C26.6005 15.4227 26.5349 15.4401 26.4688 15.4811C26.3919 15.529 26.3255 15.6393 26.3095 15.7443C26.302 15.794 26.2988 16.6355 26.2972 16.683C26.2566 16.72 26.2176 16.7688 26.1834 16.8198C26.1873 16.7911 26.1877 16.7505 26.1782 16.7444C26.1686 16.7383 26.1408 16.7475 26.1228 16.7815C26.1097 16.8063 26.0998 16.8434 26.085 16.8765L26.0671 16.8869C26.0671 16.8612 26.0655 16.8394 26.048 16.8355C26.0257 16.8303 25.9903 16.8564 25.9596 16.8769C25.9266 16.8991 25.9011 16.9283 25.8848 16.9907C25.8434 16.9981 25.8052 16.9968 25.7638 17.0399C25.7554 17.0486 25.7455 17.0634 25.7351 17.0778L25.6726 17.1136C25.6627 17.1066 25.6539 17.0966 25.6412 17.0961C25.6141 17.0957 25.593 17.1319 25.5723 17.1711L25.4955 17.2155C25.4875 17.2029 25.4704 17.202 25.4525 17.2134C25.4342 17.2256 25.4179 17.246 25.4023 17.2691L25.2606 17.3506C25.2503 17.3458 25.2359 17.3489 25.2172 17.3585C25.2017 17.3668 25.1862 17.3833 25.1711 17.4021L25.0102 17.4944C24.9987 17.494 24.9871 17.4949 24.9752 17.4997C24.9641 17.5045 24.9509 17.5184 24.9366 17.5367L24.5011 17.7873C24.5011 16.9928 24.5011 16.4307 24.5011 16.3941C24.5011 16.3134 24.5007 16.2306 24.4872 16.1609C24.4708 16.0742 24.4028 16.0472 24.324 16.0973C24.2567 16.1404 24.1894 16.208 24.1333 16.2908C24.1373 16.2616 24.1377 16.2197 24.1281 16.2136C24.1185 16.2075 24.0899 16.2167 24.0716 16.2516C24.0533 16.2864 24.0409 16.3435 24.0147 16.3832C24.0139 16.3474 24.0182 16.3121 23.9951 16.3065C23.9721 16.3012 23.9358 16.3278 23.9044 16.3487C23.8706 16.3714 23.8443 16.4015 23.8276 16.4651C23.7854 16.4725 23.7464 16.4712 23.7038 16.5156C23.6831 16.5374 23.6524 16.5945 23.6321 16.5976C23.6098 16.6011 23.5995 16.5736 23.578 16.5736C23.5175 16.5727 23.4864 16.7501 23.4251 16.7514C23.4498 16.6935 23.4183 16.6717 23.3849 16.6939C23.3515 16.7157 23.3248 16.7641 23.2981 16.8063C23.2714 16.8486 23.2352 16.8926 23.2062 16.8896C23.2082 16.8325 23.1867 16.8198 23.1441 16.8421C23.1015 16.8643 23.0609 16.9471 23.0183 16.9737C22.9765 17.0003 22.9375 16.9693 22.8961 16.9867C22.8598 17.002 22.8005 17.117 22.7643 17.1467C22.7018 17.1981 22.6616 17.1641 22.5991 17.2151C22.5712 17.2378 22.5426 17.2617 22.5203 17.2975C22.5048 17.3227 22.4928 17.3524 22.4749 17.3737C22.4156 17.4443 22.3264 17.3485 22.289 17.4391C22.2878 17.4422 22.2866 17.4456 22.2854 17.4487C22.2607 17.3851 22.1998 17.3694 22.1306 17.4134C22.0633 17.4565 21.996 17.5241 21.9399 17.6069C21.9439 17.5777 21.9443 17.5363 21.9347 17.5297C21.9252 17.5236 21.8965 17.5328 21.8782 17.5677C21.8599 17.6025 21.8475 17.6596 21.8213 17.6993C21.8205 17.6635 21.8248 17.6282 21.8018 17.6226C21.7787 17.6173 21.7424 17.6439 21.711 17.6648C21.6772 17.6875 21.6509 17.7176 21.6342 17.7812C21.592 17.7886 21.553 17.7873 21.5104 17.8318C21.4897 17.8535 21.4594 17.9106 21.4387 17.9137C21.4164 17.9172 21.4061 17.8897 21.3846 17.8897C21.3241 17.8888 21.293 18.0662 21.2317 18.0675C21.2564 18.0096 21.225 17.9878 21.1915 18.01C21.1581 18.0322 21.1314 18.0802 21.1047 18.1224C21.0781 18.1643 21.0418 18.2087 21.0132 18.2057C21.0152 18.1486 20.9937 18.1359 20.9511 18.1582C20.9085 18.1804 20.8679 18.2632 20.8253 18.2902C20.7835 18.3168 20.7445 18.2859 20.7031 18.3028C20.6669 18.3181 20.6075 18.4331 20.5713 18.4628C20.5088 18.5138 20.4686 18.4802 20.4061 18.5312C20.3783 18.5539 20.3496 18.5778 20.3273 18.6136C20.3118 18.6388 20.2998 18.6685 20.2819 18.6898C20.2226 18.7604 20.1334 18.6646 20.096 18.7552C20.0892 18.7713 20.0869 18.7888 20.0785 18.8044C20.065 18.8297 20.0021 18.8345 19.983 18.8454C19.9567 18.8602 19.9296 18.8724 19.9041 18.8859C19.9041 18.8859 19.9041 15.3686 19.9041 15.3255C19.9041 15.2518 19.9038 15.1756 19.8914 15.1115C19.8763 15.0318 19.8138 15.0069 19.7417 15.0531C19.68 15.0928 19.6183 15.1547 19.567 15.2305C19.5706 15.2035 19.571 15.1656 19.5622 15.1599C19.5535 15.1542 19.5272 15.1625 19.5105 15.1948C19.4937 15.2266 19.4826 15.2789 19.4583 15.3155C19.4575 15.2828 19.4615 15.2501 19.4404 15.2453C19.4193 15.2405 19.3863 15.2649 19.3572 15.2841C19.3261 15.305 19.3023 15.3325 19.2867 15.3909C19.2481 15.3978 19.2123 15.3965 19.1729 15.4375C19.1538 15.4575 19.1259 15.5098 19.1072 15.5129C19.0869 15.5159 19.0769 15.4911 19.0578 15.4907C19.0021 15.4898 18.9738 15.6523 18.9173 15.6536C18.9396 15.6005 18.911 15.5809 18.8803 15.6009C18.8497 15.621 18.825 15.6654 18.8007 15.7042C18.7764 15.743 18.743 15.7831 18.7163 15.7805C18.7183 15.7282 18.6984 15.7164 18.6594 15.7369C18.6204 15.7574 18.5829 15.8332 18.5439 15.8576C18.5053 15.882 18.4699 15.8537 18.4321 15.8694C18.4154 15.8763 18.3935 15.906 18.3716 15.9378C18.3716 14.8121 18.3716 14.0368 18.3716 14.0077C18.3716 13.9323 18.3712 13.8547 18.3588 13.7893C18.3437 13.7083 18.28 13.683 18.2064 13.7301C18.1435 13.7701 18.0806 13.8333 18.028 13.9109C18.032 13.8835 18.032 13.8447 18.0229 13.839C18.0137 13.8333 17.987 13.842 17.9699 13.8743C17.9528 13.907 17.9412 13.9602 17.917 13.9976C17.9166 13.9641 17.9201 13.931 17.8987 13.9262C17.8772 13.9209 17.8433 13.9462 17.8139 13.9658C17.7824 13.9872 17.7577 14.0151 17.7422 14.0743C17.7028 14.0813 17.6662 14.08 17.6264 14.1218C17.6069 14.1419 17.5786 14.1955 17.5595 14.1985C17.5384 14.2016 17.5288 14.1763 17.5089 14.1759C17.4524 14.1754 17.4233 14.341 17.366 14.3419C17.3891 14.2879 17.3597 14.2674 17.3286 14.2879C17.2976 14.3084 17.2725 14.3537 17.2474 14.3929C17.2227 14.4321 17.1885 14.4735 17.1614 14.4705C17.1634 14.4173 17.1431 14.4055 17.1033 14.4265C17.0635 14.4474 17.0257 14.5245 16.9859 14.5498C16.9465 14.5746 16.9102 14.5459 16.8716 14.562C16.8378 14.5759 16.7821 14.6836 16.7482 14.7115C16.6897 14.7594 16.6523 14.7276 16.5938 14.7755C16.5679 14.7969 16.5408 14.8195 16.5197 14.8527C16.505 14.8762 16.4943 14.9041 16.4771 14.9241C16.4218 14.9899 16.3382 14.9006 16.3036 14.9851C16.2972 15.0004 16.2952 15.0165 16.2873 15.0309C16.2745 15.0549 16.216 15.0592 16.1981 15.0692C16.1121 15.1185 16.0166 15.132 16.0054 15.3033C15.999 15.2993 15.9931 15.295 15.9859 15.2928C15.9652 15.2858 15.9381 15.2976 15.9119 15.3089C15.8534 15.3351 15.8159 15.414 15.7574 15.4401C15.7236 15.4554 15.6679 15.4179 15.634 15.4462C15.5954 15.4789 15.5592 15.5539 15.5198 15.5787C15.48 15.604 15.4417 15.5748 15.4023 15.604C15.3625 15.6332 15.3422 15.6706 15.3442 15.7216C15.3172 15.7582 15.2833 15.7604 15.2582 15.7526C15.2332 15.7447 15.2085 15.7312 15.1774 15.75C15.1464 15.7687 15.1169 15.8262 15.14 15.8515C15.0827 15.9225 15.0536 15.794 14.9971 15.8663C14.9772 15.8916 14.9676 15.9295 14.9465 15.9526C14.9274 15.974 14.8992 15.9561 14.8797 15.9604C14.8399 15.9692 14.8032 16.0167 14.7638 16.0598C14.7483 16.0202 14.7236 16.0232 14.6922 16.0419C14.6627 16.0594 14.6289 16.0772 14.6074 16.1095C14.5859 16.1417 14.5899 16.1701 14.5891 16.2041C14.5672 16.1984 14.556 16.1675 14.5417 16.1531C14.5417 15.5177 14.5417 14.4095 14.5417 14.3746C14.5417 14.2896 14.5409 14.2016 14.527 14.1275C14.5095 14.0355 14.4374 14.0068 14.3542 14.0604C14.283 14.1061 14.2117 14.1776 14.1524 14.2652C14.1568 14.2343 14.1572 14.1902 14.1468 14.1837C14.1365 14.1772 14.1062 14.1868 14.0867 14.2238C14.0672 14.2608 14.0545 14.321 14.0266 14.3633C14.0258 14.3253 14.0302 14.2879 14.0059 14.2822C13.9816 14.2765 13.943 14.3049 13.91 14.3271C13.8741 14.3511 13.8463 14.3829 13.8288 14.4504C13.7842 14.4583 13.7428 14.457 13.6974 14.504C13.6755 14.5271 13.6433 14.5877 13.6218 14.5907C13.5983 14.5942 13.5871 14.5655 13.5644 14.565C13.5003 14.5642 13.4673 14.752 13.4024 14.7533C13.4283 14.6919 13.3952 14.6692 13.3598 14.6923C13.3248 14.7154 13.2961 14.7668 13.2679 14.8113C13.2396 14.8557 13.201 14.9023 13.1707 14.8993C13.1727 14.8387 13.15 14.8256 13.1051 14.8492C13.0601 14.8727 13.0171 14.9603 12.9717 14.9886C12.9271 15.017 12.8861 14.9838 12.8423 15.0021C12.8041 15.0183 12.7412 15.1398 12.7026 15.1717C12.6365 15.2257 12.5939 15.19 12.5274 15.2444C12.498 15.2684 12.4673 15.2941 12.4439 15.3316C12.4271 15.3582 12.4148 15.3896 12.3957 15.4127C12.3328 15.4872 12.2385 15.3861 12.199 15.4819C12.1919 15.4994 12.1895 15.5177 12.1807 15.5338C12.1664 15.5608 12.0999 15.5656 12.0796 15.5774C11.9761 15.6367 11.8603 15.6502 11.8603 15.8807C11.8603 15.8807 11.8579 14.7912 11.8579 14.6866C11.8579 14.6125 11.8145 14.5633 11.8026 14.4988C11.7874 14.419 11.7675 14.3667 11.6951 14.4134C11.633 14.453 11.6672 14.5236 11.6159 14.5999C11.6194 14.5729 11.5569 14.5093 11.5358 14.5093C11.5147 14.5093 11.4793 14.5236 11.4626 14.5554C11.4459 14.5877 11.4347 14.64 11.4105 14.6766C11.4101 14.6435 11.4136 14.6112 11.3925 14.606C11.3714 14.6012 11.338 14.6256 11.309 14.6452C11.2779 14.6661 11.2536 14.694 11.2381 14.7524C11.1991 14.7594 11.1632 14.7581 11.1238 14.7991C11.1047 14.8191 11.0769 14.8718 11.0578 14.8749C11.0371 14.8779 11.0275 14.8531 11.008 14.8527C10.9523 14.8522 10.9236 15.0152 10.8671 15.0165C10.8898 14.9634 10.8607 14.9433 10.8301 14.9634C10.7994 14.9834 10.7747 15.0283 10.7501 15.0671C10.7258 15.1059 10.6919 15.1464 10.6657 15.1438C10.6677 15.091 10.6478 15.0797 10.6083 15.1002C10.5693 15.1207 10.5319 15.1969 10.4925 15.2218C10.4539 15.2462 10.4181 15.2179 10.3798 15.2335C10.3464 15.2475 10.2919 15.3534 10.2584 15.3808C10.2007 15.4279 10.1637 15.397 10.1064 15.444C10.0809 15.4649 10.0542 15.4872 10.0335 15.5199C10.0192 15.543 10.0084 15.5704 9.99172 15.59C9.97779 15.6066 9.96147 15.6131 9.94514 15.6153V13.8129C9.94514 13.6486 10.0252 13.4965 10.1553 13.4145L28.1367 2.05293C28.2219 1.99889 28.3282 2.06644 28.3282 2.17408V14.4025H28.3306Z" fill="#0D8EB5"/>
<path opacity="0.5" d="M30.3403 29.2837L24.6001 32.9117L35.8353 40.0164L36.895 40.0182L37.2743 39.9458L42.2363 36.8064L30.3403 29.2837ZM29.6174 35.0471L33.9078 32.3351L34.4695 32.6903L30.1791 35.4023L29.6174 35.0471ZM31.2682 36.0904L35.5587 33.3784L36.1203 33.7332L31.8299 36.4451L31.2682 36.0904ZM32.919 37.1337L37.2095 34.4217L37.7711 34.7764L33.4807 37.4884L32.919 37.1337ZM35.1311 38.5321L34.5694 38.177L38.8599 35.465L39.4216 35.8197L35.1311 38.5321Z" fill="black"/>
<path d="M31.7765 30.4867L31.3438 29.9699L36.6887 18.1729C36.701 18.1459 36.7177 18.1263 36.738 18.1136C36.8053 18.0714 36.9096 18.1088 37.0016 18.2187C37.121 18.3616 37.1747 18.5725 37.1218 18.6897L31.7765 30.4867Z" fill="#C9C9C9"/>
<path d="M37.2292 18.0744C37.1368 17.9641 37.0325 17.9266 36.9653 17.9694C36.9454 17.982 36.7376 18.1132 36.7376 18.1132C36.8048 18.0709 36.9091 18.1084 37.0011 18.2182C37.1205 18.3611 37.1742 18.5721 37.1213 18.6893L31.7764 30.4862L32.0045 30.342L37.3494 18.545C37.4023 18.4282 37.3486 18.2173 37.2292 18.0744Z" fill="#A1A1A1"/>
<path d="M41.6085 37.0385L42.0412 37.0686L35.4519 14.195C35.3986 14.0102 35.2589 13.8538 35.1394 13.8455C35.112 13.8438 35.0881 13.8499 35.0682 13.8625C35.0009 13.9052 34.9786 14.0229 35.0196 14.1649L41.6085 37.0385Z" fill="#C9C9C9"/>
<path d="M36.6707 18.7659C36.6707 18.8683 36.605 18.9101 36.5238 18.8587C36.4426 18.8073 36.377 18.6827 36.377 18.5802C36.377 18.4774 36.4426 18.436 36.5238 18.4874C36.605 18.5388 36.6707 18.6635 36.6707 18.7659Z" fill="#666666"/>
<path d="M35.8319 13.9548C35.7785 13.77 35.6388 13.6136 35.5194 13.6053C35.4923 13.6035 35.4684 13.6092 35.4489 13.6218C35.3813 13.6641 35.0684 13.8624 35.0684 13.8624C35.0883 13.8498 35.1122 13.8437 35.1396 13.8454C35.259 13.8537 35.3992 14.0101 35.4521 14.1949L42.0414 37.0685L42.4216 36.8284L35.8319 13.9548Z" fill="#F7F7F7"/>
<path d="M33.9377 25.0268L30.4004 22.7912L34.7342 20.0522L38.2711 22.2879L33.9377 25.0268Z" fill="#D46D17"/>
<path d="M33.9377 25.5135L30.4004 23.2779V22.7915L33.9377 25.0271V25.5135Z" fill="#A14D02"/>
<path d="M31.3247 23.4873C31.2673 23.3783 31.1742 23.3195 31.1169 23.3561C31.0596 23.3923 30.9561 23.4576 30.9561 23.4576L31.0842 23.9021C31.0842 23.9021 31.2677 23.7862 31.3251 23.75C31.382 23.7139 31.382 23.5962 31.3247 23.4873Z" fill="#303030"/>
<path d="M33.9375 25.5129L38.2709 22.7739V22.2876L33.9375 25.0266V25.5129Z" fill="#BF5902"/>
<path d="M36.147 18.3639L36.2537 18.4507V18.2964L36.147 18.3639Z" fill="#C9C9C9"/>
<path d="M31.8159 19.3936C31.8159 19.3936 31.8159 21.7076 31.8159 22.5361C31.8159 23.3645 32.878 24.0356 34.188 24.0356C35.4981 24.0356 36.5602 23.3645 36.5602 22.5361C36.5602 21.7076 36.5602 19.3936 36.5602 19.3936H31.8159Z" fill="#E3E3E3"/>
<path d="M34.1885 21.9063V23.5976C35.4985 23.5976 36.5606 22.9265 36.5606 22.0981V20.4067C36.5606 21.2352 35.4985 21.9063 34.1885 21.9063Z" fill="#0258BF"/>
<path opacity="0.8" d="M31.8159 19.4232C31.8159 19.5395 31.8159 19.9919 31.8159 20.531C32.1869 21.1302 33.1089 21.5547 34.188 21.5547C35.2672 21.5547 36.1892 21.1302 36.5602 20.531C36.5602 20.0028 36.5602 19.5587 36.5602 19.4315C36.547 19.4193 36.5335 19.4066 36.5192 19.3936H31.8466C31.8358 19.404 31.8263 19.4136 31.8159 19.4232Z" fill="black"/>
<path d="M36.7361 19.7353C36.7361 20.6243 35.5957 21.3456 34.1889 21.3456C32.7821 21.3456 31.6416 20.6248 31.6416 19.7353C31.6416 19.7122 31.6416 19.3937 31.6416 19.3937C31.6416 19.3937 32.8187 18.0566 34.1889 18.0566C35.4846 18.0566 36.7361 19.3937 36.7361 19.3937C36.7361 19.3937 36.7361 19.6652 36.7361 19.7353Z" fill="#E3E3E3"/>
<path d="M35.8169 18.4284C35.8762 18.4598 35.9343 18.4925 35.9901 18.5278C36.0458 18.5631 36.0979 18.5997 36.1473 18.6371L36.2544 18.5696L35.924 18.3608L35.8169 18.4284Z" fill="#B1B1B1"/>
<path d="M32.123 20.4902L32.4535 20.699V20.9722L32.123 20.7635V20.4902Z" fill="#C9C9C9"/>
<path d="M36.7361 19.3935C36.7361 20.2825 35.5957 21.0037 34.1889 21.0037C32.7821 21.0037 31.6416 20.2829 31.6416 19.3935C31.6416 18.5044 32.7821 17.7832 34.1889 17.7832C35.5957 17.7832 36.7361 18.5044 36.7361 19.3935Z" fill="#F7F7F7"/>
<path d="M35.8169 18.1559C35.8762 18.1873 35.9343 18.22 35.9901 18.2553C36.0458 18.2906 36.0979 18.3272 36.1473 18.3647L36.2544 18.2971L35.924 18.0884L35.8169 18.1559Z" fill="#F7F7F7"/>
<path d="M32.23 20.4229C32.2794 20.4603 32.3316 20.4969 32.3873 20.5322C32.443 20.5675 32.5007 20.6002 32.5601 20.6316L32.453 20.6991L32.1226 20.4904L32.23 20.4229Z" fill="#F7F7F7"/>
<path d="M34.1884 17.9277C32.9078 17.9277 31.8696 18.584 31.8696 19.3933C31.8696 20.2026 32.9078 20.8589 34.1884 20.8589C35.469 20.8589 36.5072 20.2026 36.5072 19.3933C36.5072 18.584 35.469 17.9277 34.1884 17.9277Z" fill="#C9C9C9"/>
<path d="M34.1887 18.8193C33.1537 18.8193 32.2776 19.2477 31.979 19.8391C32.2776 20.4305 33.1537 20.8589 34.1887 20.8589C35.2233 20.8589 36.0999 20.4305 36.3984 19.8391C36.0999 19.2477 35.2233 18.8193 34.1887 18.8193Z" fill="#0188AC"/>
<path opacity="0.3" d="M34.1887 19.042C35.156 19.042 35.9785 19.4186 36.3264 19.9507C36.3507 19.9136 36.3789 19.8779 36.3984 19.8391C36.0999 19.2477 35.2237 18.8193 34.1887 18.8193C33.1537 18.8193 32.2776 19.2477 31.979 19.8391C31.9985 19.8779 32.0268 19.9136 32.0511 19.9507C32.399 19.4186 33.2214 19.042 34.1887 19.042Z" fill="black"/>
<path d="M31.6298 21.85C31.5506 21.85 31.4957 21.8116 31.4654 21.7606C31.3388 21.5453 31.6206 21.1305 32.1998 20.679L32.2452 20.6498C32.2858 20.6249 32.3388 20.6393 32.3619 20.6842C32.3857 20.7291 32.3714 20.7862 32.3304 20.8119L32.2918 20.8363C31.6481 21.3383 31.5924 21.6268 31.6091 21.6591C31.6266 21.6878 31.6688 21.6844 31.8157 21.6098V21.7942C31.7436 21.8338 31.6816 21.85 31.6298 21.85Z" fill="#4F4F4F"/>
<path d="M32.4536 20.6989V20.9721L32.5603 20.9046V20.6313L32.4536 20.6989Z" fill="#E3E3E3"/>
<mask id="mask0_456_13141" style="mask-type:luminance" maskUnits="userSpaceOnUse" x="31" y="17" width="6" height="4">
<path d="M34.1887 17.9272C32.9077 17.9272 31.8691 18.5835 31.8691 19.3932C31.8691 20.2029 32.9077 20.8592 34.1887 20.8592C35.4697 20.8592 36.5083 20.2029 36.5083 19.3932C36.5083 18.9914 36.6154 17.5428 36.2014 17.2778C35.7806 17.0089 34.834 17.9272 34.1887 17.9272Z" fill="white"/>
</mask>
<g mask="url(#mask0_456_13141)">
<path d="M35.7559 20.9921L35.9191 20.9311L36.0512 20.2007L35.8876 20.2617L35.7559 20.9921Z" fill="#CFBD80"/>
<path d="M35.0889 20.3534L35.7556 20.9919L35.8874 20.2615L35.221 19.623L35.0889 20.3534Z" fill="#DED8AD"/>
<path opacity="0.8" d="M35.4886 20.7362L35.4703 20.7188L35.6024 19.9884L35.6207 20.0058L35.4886 20.7362ZM35.6773 20.0607L35.659 20.0433L35.5268 20.7737L35.5451 20.7911L35.6773 20.0607ZM35.5634 19.9513L35.5451 19.9339L35.413 20.6643L35.4313 20.6817L35.5634 19.9513ZM35.7346 20.1152L35.7163 20.0977L35.5841 20.8281L35.6024 20.8456L35.7346 20.1152ZM35.8484 20.2246L35.8301 20.2071L35.698 20.9375L35.7163 20.955L35.8484 20.2246ZM35.7915 20.1697L35.7732 20.1522L35.641 20.8826L35.6594 20.9L35.7915 20.1697ZM35.2601 19.6606L35.1279 20.391L35.1462 20.4085L35.2784 19.6781L35.2601 19.6606ZM35.3353 19.7326L35.317 19.7151L35.1849 20.4455L35.2032 20.4629L35.3353 19.7326ZM35.4492 19.8419L35.4309 19.8245L35.2987 20.5549L35.317 20.5723L35.4492 19.8419ZM35.3923 19.787L35.3739 19.7696L35.2418 20.5L35.2601 20.5174L35.3923 19.787ZM35.5065 19.8964L35.4882 19.879L35.356 20.6094L35.3743 20.6268L35.5065 19.8964Z" fill="black"/>
<path d="M35.248 19.199L35.9694 19.8902L36.17 19.8157L35.4487 19.1245L35.248 19.199Z" fill="#8C8C8B"/>
<path d="M35.9693 19.8904L36.17 19.8159L36.0971 20.2203L35.8965 20.2953L35.9693 19.8904Z" fill="#C4C4C3"/>
<path d="M35.1748 19.6036L35.8965 20.2952L35.9694 19.8904L35.248 19.1992L35.1748 19.6036Z" fill="#ABABAA"/>
<path d="M35.2154 19.3799L35.9367 20.0711L35.918 20.1761L35.1963 19.4849L35.2154 19.3799Z" fill="#8C8C8B"/>
<path d="M35.9367 20.0706L36.1377 19.9961L36.1186 20.1011L35.918 20.1756L35.9367 20.0706Z" fill="#8C8C8B"/>
<path d="M35.4301 19.0561C35.3672 19.0452 35.317 19.0922 35.3007 19.1816L35.2939 19.2186L35.9603 19.8571L35.9671 19.82C35.9834 19.7302 35.9627 19.6156 35.9145 19.5202C35.819 19.3302 35.8194 19.0478 35.8612 18.8164C35.913 18.5301 36.0583 18.0311 36.0961 17.8215C36.1339 17.6118 36.0531 17.4815 36.0065 17.4371C35.9603 17.3926 35.8628 17.3521 35.825 17.5617C35.7872 17.7713 35.7358 18.3605 35.6841 18.6469C35.6431 18.8787 35.5559 19.0783 35.4301 19.0561ZM36.032 17.6702C36.024 17.7151 35.9918 17.7269 35.9603 17.6968C35.9289 17.6668 35.9102 17.6062 35.9181 17.5613C35.9261 17.5164 35.9583 17.5046 35.9898 17.5347C36.0208 17.5648 36.0399 17.6254 36.032 17.6702Z" fill="#DE4343"/>
<path d="M35.4299 19.056C35.3901 19.049 35.3558 19.0651 35.3315 19.1004C35.3331 19.0961 35.3367 19.0908 35.3431 19.0839C35.4052 19.0167 35.5035 18.9963 35.5577 18.9937C35.521 19.0403 35.4784 19.0643 35.4299 19.056Z" fill="#C92C2C"/>
<path d="M35.9676 19.82C35.984 19.7303 35.9633 19.6156 35.9151 19.5202C35.8196 19.3302 35.82 19.0478 35.8618 18.8164C35.9135 18.5301 36.0588 18.0311 36.0966 17.8215C36.1344 17.6119 36.0536 17.4816 36.0071 17.4371C35.9756 17.407 35.9207 17.3787 35.8769 17.4293C35.9366 17.3595 36.0481 17.3395 36.0958 17.3404C36.1245 17.3404 36.1519 17.3578 36.1707 17.3761C36.2168 17.4205 36.298 17.5508 36.2598 17.7605C36.222 17.9701 36.0767 18.4691 36.025 18.7554C35.9832 18.9868 35.9828 19.2688 36.0783 19.4592C36.1261 19.5542 36.1468 19.6692 36.1309 19.759L36.1241 19.7961L35.9605 19.8571L35.9676 19.82Z" fill="#C92C2C"/>
<path d="M35.9895 17.5342C36.0209 17.5643 36.0397 17.6249 36.0317 17.6697C36.0237 17.7146 35.9915 17.7264 35.96 17.6963C35.9286 17.6663 35.9099 17.6057 35.9178 17.5608C35.9262 17.5159 35.9584 17.5041 35.9895 17.5342Z" fill="#C92C2C"/>
<path d="M36.0234 20.3522C36.0182 20.3844 35.947 20.4167 35.8614 20.381C35.6142 20.2777 35.1664 19.9103 35.1966 19.7003L35.0891 19.6602L34.9805 20.4442L35.7424 21.0652L35.937 21.0211L36.0521 20.5766C36.0521 20.5766 36.0441 20.2271 36.0234 20.3522Z" fill="#0188AC"/>
</g>
<path d="M34.6618 27.7772L33.2856 26.9069L37.6191 24.168L38.9952 25.0378L34.6618 27.7772Z" fill="#D46D17"/>
<path d="M34.6618 28.2551L33.2856 27.3852V26.9067L34.6618 27.777V28.2551Z" fill="#A14D02"/>
<path d="M34.6616 28.2551L38.995 25.5161V25.0376L34.6616 27.777V28.2551Z" fill="#BF5902"/>
<path d="M35.6724 31.2831L34.2959 30.4133L38.6293 27.6743L40.0059 28.5442L35.6724 31.2831Z" fill="#D46D17"/>
<path d="M35.6724 31.7615L34.2959 30.8916V30.4136L35.6724 31.2834V31.7615Z" fill="#A14D02"/>
<path d="M35.6724 31.7615L40.0058 29.0225V28.5444L35.6724 31.2834V31.7615Z" fill="#BF5902"/>
<path d="M36.6827 34.7899L35.3062 33.9196L39.64 31.1807L41.0161 32.0509L36.6827 34.7899Z" fill="#D46D17"/>
<path d="M36.6827 35.2683L35.3062 34.3984V33.9199L36.6827 34.7902V35.2683Z" fill="#A14D02"/>
<path d="M36.6826 35.2678L41.016 32.5288V32.0508L36.6826 34.7898V35.2678Z" fill="#BF5902"/>
<path d="M37.693 38.2958L36.3169 37.426L40.6503 34.687L42.0265 35.5569L37.693 38.2958Z" fill="#D46D17"/>
<path d="M37.693 38.7742L36.3169 37.9043V37.4263L37.693 38.2961V38.7742Z" fill="#A14D02"/>
<path d="M37.6929 38.7742L42.0263 36.0352V35.5571L37.6929 38.2961V38.7742Z" fill="#BF5902"/>
<path d="M32.5345 28.5707L32.2315 28.209L27.9439 30.9192L27.5928 31.694L32.5345 28.5707Z" fill="#E3E3E3"/>
<path d="M27.593 31.6941L32.5347 28.5708L32.3763 28.9203L27.4346 32.0437L27.593 31.6941Z" fill="#C9C9C9"/>
<path d="M31.1187 16.9337L31.1653 17.0953C31.1653 17.0953 35.2965 14.4841 35.3713 14.437C35.4462 14.3895 35.4462 14.2361 35.3713 14.094C35.2965 13.952 35.1751 13.8753 35.0998 13.9228C35.025 13.9698 30.8926 16.582 30.8647 16.5998C30.9682 16.6439 31.0741 16.779 31.1187 16.9337Z" fill="#404040"/>
<path opacity="0.2" d="M31.101 16.8894L35.4018 14.1714C35.393 14.1457 35.385 14.1199 35.3715 14.0942C35.3584 14.0694 35.3425 14.0498 35.3273 14.0293L31.0273 16.7469C31.0572 16.7896 31.0815 16.8376 31.101 16.8894Z" fill="white"/>
<path d="M36.895 40.0181L37.3277 40.0481L30.7384 17.1746C30.685 16.9898 30.5453 16.8333 30.4259 16.8255C30.3984 16.8237 30.3745 16.8298 30.3542 16.8425C30.2873 16.8852 30.2647 17.0029 30.3057 17.1449L36.895 40.0181Z" fill="#E3E3E3"/>
<path d="M32.9344 25.1163C32.9344 25.2192 32.8687 25.2606 32.7875 25.2092C32.7063 25.1577 32.6406 25.0331 32.6406 24.9303C32.6406 24.8279 32.7063 24.786 32.7875 24.8374C32.8687 24.8889 32.9344 25.0135 32.9344 25.1163Z" fill="#666666"/>
<path d="M31.1184 16.9338C31.0651 16.7491 30.9253 16.5926 30.8059 16.5848C30.778 16.583 30.7538 16.5891 30.7335 16.6022C30.6674 16.6453 30.3545 16.8419 30.3545 16.8419C30.3744 16.8292 30.3987 16.8231 30.4261 16.8249C30.5456 16.8332 30.6857 16.9896 30.7386 17.174L37.3279 40.0475L37.7081 39.8074L31.1184 16.9338Z" fill="#F7F7F7"/>
<path d="M26.4547 33.8505L26.022 33.3336L31.3669 21.5367C31.3792 21.5096 31.396 21.49 31.4159 21.4774C31.4831 21.4351 31.5874 21.4726 31.6794 21.5824C31.7988 21.7249 31.8526 21.9358 31.7992 22.0535L26.4547 33.8505Z" fill="#E3E3E3"/>
<path d="M31.9073 21.4385C31.8158 21.3291 31.7123 21.2916 31.645 21.3326C31.6243 21.3452 31.4157 21.4777 31.4157 21.4777C31.483 21.4354 31.5873 21.4729 31.6792 21.5827C31.7986 21.7252 31.8524 21.9361 31.799 22.0538L26.4541 33.8508L26.6822 33.7065L32.0271 21.9096C32.0805 21.7919 32.0267 21.581 31.9073 21.4385Z" fill="#C9C9C9"/>
<path d="M31.7293 21.8898C31.7293 21.9922 31.6636 22.0341 31.5824 21.9827C31.5012 21.9312 31.4355 21.8066 31.4355 21.7042C31.4355 21.6018 31.5012 21.5599 31.5824 21.6114C31.6636 21.6623 31.7293 21.787 31.7293 21.8898Z" fill="#666666"/>
<path d="M30.7596 24.03C30.7596 24.1324 30.6939 24.1742 30.6127 24.1228C30.5315 24.0714 30.4658 23.9467 30.4658 23.8443C30.4658 23.7419 30.5315 23.7001 30.6127 23.7515C30.6939 23.8025 30.7596 23.9276 30.7596 24.03Z" fill="#666666"/>
<path opacity="0.6" d="M36.1019 45.1495L31.7533 42.401C31.5642 42.2816 31.2346 42.2964 31.0165 42.4345L28.1062 44.274C27.888 44.4117 27.8645 44.6205 28.0532 44.7399L32.4018 47.4884C32.5905 47.6078 32.9205 47.593 33.1386 47.4549L36.0485 45.6154C36.2671 45.4772 36.2909 45.2689 36.1019 45.1495Z" fill="black"/>
<path d="M29.0473 44.7243L28.8789 44.8306V44.2279L29.0473 44.1216V44.7243Z" fill="#ED8211"/>
<path d="M28.5645 44.6325L28.8789 44.8308V44.2281L28.5645 44.0298V44.6325Z" fill="#FFB200"/>
<path d="M28.7149 43.3304L31.5914 41.5123C31.7295 41.4247 31.9389 41.4155 32.0587 41.4909L36.0944 44.0416C36.2142 44.1175 36.1991 44.2495 36.0609 44.3371L33.1845 46.1552C33.0463 46.2428 32.8369 46.252 32.7171 46.1766L28.6815 43.6259C28.5616 43.5501 28.5768 43.418 28.7149 43.3304Z" fill="#FFB200"/>
<path d="M30.6526 45.1939L32.7171 46.4987C32.8369 46.5745 33.0459 46.5649 33.1844 46.4773L36.0609 44.6592C36.199 44.5716 36.2141 44.4396 36.0943 44.3637L34.0299 43.059C33.9101 42.9831 33.7011 42.9927 33.5626 43.0803L30.6861 44.8985C30.548 44.9856 30.5328 45.1181 30.6526 45.1939Z" fill="#F29F11"/>
<path d="M32.7171 46.4986L30.9624 45.3895L33.5626 43.7462C33.7007 43.6586 33.9101 43.6494 34.03 43.7248L35.7847 44.8339L33.1844 46.4773C33.0459 46.5644 32.8369 46.574 32.7171 46.4986Z" fill="#F29F11"/>
<path d="M31.48 41.5825L33.4512 43.1505L33.5802 43.0694L31.609 41.501L31.48 41.5825Z" fill="#FFCA00"/>
<path d="M31.2111 41.752L31.0825 41.8334L33.0538 43.4019L33.1824 43.3204L31.2111 41.752Z" fill="#FFCA00"/>
<path d="M30.814 42.0034L30.6851 42.0849L32.6563 43.6529L32.7853 43.5718L30.814 42.0034Z" fill="#FFCA00"/>
<path d="M30.4162 42.2544L30.2876 42.3359L32.2589 43.9043L32.3874 43.8228L30.4162 42.2544Z" fill="#FFCA00"/>
<path d="M30.0191 42.5059L29.8901 42.5874L31.8614 44.1553L31.9904 44.0743L30.0191 42.5059Z" fill="#FFCA00"/>
<path d="M29.6213 42.7568L29.4927 42.8383L31.4639 44.4068L31.5925 44.3253L29.6213 42.7568Z" fill="#FFCA00"/>
<path d="M29.2242 43.0083L29.0952 43.0898L31.0665 44.6578L31.195 44.5767L29.2242 43.0083Z" fill="#FFCA00"/>
<path d="M28.8263 43.2598L30.7976 44.8282L30.669 44.9097L28.6978 43.3413L28.8263 43.2598Z" fill="#FFCA00"/>
<path d="M28.565 43.6895L32.6158 46.2498C32.7917 46.3609 33.099 46.3469 33.3021 46.2184L36.1622 44.4107C36.3652 44.2821 36.3875 44.0882 36.2116 43.9771L32.1608 41.4168C31.9848 41.3057 31.6775 41.3196 31.4745 41.4482L28.6143 43.2558C28.4113 43.384 28.389 43.5783 28.565 43.6895ZM28.7155 43.3299L31.5919 41.5118C31.7301 41.4242 31.9395 41.4151 32.0593 41.4904L36.095 44.0412C36.2148 44.117 36.1996 44.249 36.0615 44.3366L33.185 46.1548C33.0469 46.2424 32.8375 46.2515 32.7177 46.1761L28.682 43.6254C28.5622 43.5496 28.5773 43.4175 28.7155 43.3299Z" fill="#FFCA00"/>
<path d="M28.446 43.4999L28.4464 43.4995C28.446 43.5705 28.4846 43.6385 28.5646 43.6895L32.6154 46.2498C32.7913 46.3609 33.0987 46.347 33.3017 46.2184L36.1618 44.4108C36.2725 44.341 36.3286 44.2517 36.3294 44.1667L36.3298 44.1671C36.3298 44.1671 36.3298 44.4347 36.3298 44.5053C36.3298 44.5903 36.2729 44.6801 36.1618 44.7502L33.3017 46.5579C33.0987 46.6865 32.7913 46.7004 32.6154 46.5889L28.5646 44.0286C28.4854 43.9784 28.446 43.9113 28.446 43.8412C28.4456 43.7562 28.446 43.4999 28.446 43.4999Z" fill="#FFB200"/>
<path d="M32.6152 46.5901C32.7911 46.7012 33.0984 46.6873 33.3014 46.5591L36.1616 44.7515C36.166 44.7484 36.1704 44.7458 36.1747 44.7427C36.1747 44.9519 36.1747 45.2217 36.1747 45.2504C36.1747 45.3084 36.1361 45.3694 36.0605 45.4174L33.184 47.2355C33.0459 47.3231 32.8365 47.3322 32.7167 47.2568L30.6523 45.9521C30.5981 45.9176 30.5714 45.8719 30.5714 45.8239C30.5714 45.8061 30.5714 45.7276 30.5714 45.6278L28.564 44.0298L32.6152 46.5901Z" fill="#F29F11"/>
<path d="M32.04 41.4932L32.6873 41.888L36.0944 44.0413C36.2142 44.1171 36.1991 44.2491 36.061 44.3367L34.03 43.059L32.04 41.4932Z" fill="#F29F11"/>
<path d="M33.5801 43.7361V43.0706C33.7178 42.9931 33.9149 42.9874 34.0299 43.0597V43.7252C33.9149 43.6524 33.7178 43.6581 33.5801 43.7361Z" fill="#FFB200"/>
<path d="M32.7167 46.1766L30.8481 44.9956L33.563 43.2799C33.7015 43.1923 33.9105 43.1831 34.0303 43.2585L35.8993 44.4395L33.1844 46.1552C33.0459 46.2428 32.8365 46.252 32.7167 46.1766Z" fill="#0188AC"/>
<g opacity="0.2">
<path d="M34.0307 43.7249L35.5299 44.6728L35.8993 44.4392L34.0303 43.2582C33.9105 43.1824 33.7011 43.1919 33.563 43.2795L30.8481 44.9953L31.2176 45.2289L33.563 43.7463C33.7015 43.6587 33.9109 43.6491 34.0307 43.7249Z" fill="black"/>
</g>
<g opacity="0.7">
<path d="M33.8517 43.2077C33.8497 43.1393 33.8322 43.0565 33.7697 42.9885C33.4007 42.71 32.5918 42.106 32.2514 41.7875C32.0584 41.6071 31.8004 41.5247 31.6468 41.5565C31.5477 41.577 31.4728 41.6624 31.4 41.7391C31.2626 41.8842 31.1062 42.0141 30.9255 42.0808C30.808 42.1243 30.6799 42.1413 30.5756 42.215C30.4454 42.3065 30.3686 42.4738 30.2316 42.5527C30.1018 42.6272 29.9156 42.6281 29.8554 42.7745C29.8387 42.8155 29.8355 42.8626 29.814 42.9009C29.7436 43.0282 29.5537 42.9654 29.4422 43.0508C29.3829 43.0962 29.3559 43.1772 29.3049 43.2339C29.2034 43.3459 29.0171 43.3537 28.9522 43.4945C28.9092 43.5882 28.9435 43.7067 29.0083 43.7843C29.0732 43.8619 29.1158 43.9011 29.1986 43.9538C29.7679 44.3138 30.0955 44.5203 30.8478 44.9962H30.8482L33.5627 43.2805C33.6451 43.2269 33.7526 43.2029 33.8517 43.2077Z" fill="#0188AC"/>
</g>
<path opacity="0.5" d="M18.9481 39.7385C20.7789 38.5815 23.2195 38.2481 24.3998 38.9942C25.58 39.7403 25.0526 41.283 23.2219 42.44C21.3911 43.5971 18.9505 43.9305 17.7702 43.1844C16.59 42.4383 17.1174 40.8956 18.9481 39.7385Z" fill="black"/>
<path d="M21.4758 25.1195C21.4874 25.6107 21.86 25.9985 22.3086 25.9859C22.7572 25.9732 23.1131 25.3954 23.1016 24.9042L22.9662 21.8471C22.9547 21.356 22.5821 20.9681 22.1334 20.9808C21.6848 20.9934 21.3305 21.4013 21.3421 21.8925L21.4758 25.1195Z" fill="#D9B9AE"/>
<path d="M18.4941 24.1888C18.4582 24.0271 18.4634 23.8524 18.5172 23.6842C18.5797 23.4907 18.6963 23.3351 18.8424 23.2322C18.9097 23.1843 18.9833 23.1481 19.0601 23.1237C19.2162 23.0745 19.3877 23.0767 19.5525 23.1399L22.4979 24.2716C22.7395 24.3644 22.9159 24.5701 22.9943 24.8151C23.0038 24.8425 23.0118 24.8713 23.0178 24.9C23.0297 24.9532 23.0369 25.0064 23.0397 25.0617C23.0409 25.0883 23.0413 25.1144 23.0405 25.141C23.0397 25.1624 23.0385 25.1833 23.0357 25.2047C23.0293 25.2718 23.0158 25.3389 22.9947 25.4056C22.8462 25.8688 22.3829 26.1129 21.9589 25.9499L19.014 24.8177C18.7457 24.714 18.5574 24.4712 18.4941 24.1888Z" fill="#D9B9AE"/>
<path d="M21.0723 40.1853C21.0723 39.6867 21.6085 39.4117 22.405 39.6423L23.2147 39.4388C23.4822 39.3717 23.7378 39.5943 23.7378 39.8946V41.063L23.7302 41.0604C23.7409 41.1706 23.6856 41.2826 23.5523 41.3672C23.3054 41.5232 22.905 41.5232 22.6582 41.3672L21.2578 40.4821C21.1292 40.4006 21.0711 40.2929 21.0766 40.1866L21.0723 40.1853Z" fill="black"/>
<path d="M23.1665 34.4545L20.9687 34.4868L20.968 34.4336L20.9341 31.6633L20.8911 28.1499L23.0885 28.1172C23.0885 28.1172 23.3313 29.018 23.3341 30.1445C23.3369 31.271 23.1323 31.94 23.1605 33.9416L23.1665 34.4545Z" fill="#0258BF"/>
<path d="M20.9691 34.4342C21.0157 34.001 21.3038 33.2628 21.6904 33.1578C22.0104 33.0706 22.3412 33.2305 22.6263 33.4127C22.8285 33.5417 23.0422 34.2372 23.1664 34.4547C23.1867 35.5023 23.4765 37.5693 23.8428 39.8167C23.8599 39.991 23.7719 40.1776 23.5745 40.3353C23.18 40.6508 22.4973 40.731 22.0506 40.5144C21.8273 40.4059 21.7047 40.2442 21.688 40.0699C21.6044 39.8285 20.9225 34.8674 20.9691 34.4342Z" fill="#0258BF"/>
<path d="M23.6125 38.3567L23.5424 37.8882C23.5615 38.0638 23.4915 38.2473 23.294 38.409C22.8987 38.7323 22.2109 38.8221 21.7571 38.609C21.5381 38.5061 21.4211 38.351 21.396 38.1819L21.4593 38.6334C21.4848 38.8129 21.5919 38.9707 21.8188 39.077C22.2722 39.2901 22.9604 39.2004 23.3557 38.877C23.5532 38.7158 23.6399 38.5371 23.6125 38.3567Z" fill="#FFC50C"/>
<path opacity="0.2" d="M22.1807 31.168C21.5322 32.0448 21.2799 33.3718 20.9678 34.4334L21.42 31.7668C21.7556 31.6421 21.9267 31.4456 22.1807 31.168Z" fill="#1D1D1B"/>
<path d="M18.2202 42.0036C18.2202 41.5051 18.7564 41.2301 19.553 41.4606L20.2177 41.2937C20.5593 41.2079 20.8853 41.492 20.8853 41.8759V42.8817L20.8778 42.8791C20.8885 42.9894 20.8332 43.1014 20.6998 43.1859C20.453 43.3419 20.0525 43.3419 19.8057 43.1859L18.4053 42.3008C18.2767 42.2193 18.2186 42.1117 18.2242 42.0054L18.2202 42.0036Z" fill="black"/>
<path d="M18.583 35.5453L20.7676 35.8094C21.0009 32.6996 21.9173 30.7725 21.442 29.8913C20.9667 29.0102 19.2187 29.2459 19.2187 29.2459L18.583 35.5453Z" fill="#0258BF"/>
<path d="M18.579 35.5966C18.657 35.1691 18.9807 34.8436 19.3736 34.773C19.6992 34.7146 20.0168 34.9033 20.2875 35.1098C20.4798 35.2563 20.6601 35.5822 20.7676 35.8097C20.6884 37.04 20.8854 39.7227 21.0009 41.7043C20.9905 41.879 20.8743 42.0468 20.6554 42.1649C20.2171 42.4016 19.5324 42.3528 19.1259 42.0555C18.9229 41.9069 18.8274 41.7243 18.8381 41.5496C18.7729 41.3012 18.5006 36.0241 18.579 35.5966Z" fill="#0258BF"/>
<path d="M20.8801 39.7195C20.8785 39.9021 20.7893 40.0817 20.574 40.2185C20.1436 40.4922 19.4502 40.4844 19.0251 40.2007C18.8197 40.0638 18.7197 39.9061 18.709 39.7139L18.7356 40.1902C18.7468 40.3793 18.8193 40.5462 19.0334 40.6879C19.4617 40.9711 20.16 40.9794 20.5935 40.7057C20.81 40.5689 20.9175 40.3959 20.9099 40.2129L20.8801 39.7195Z" fill="#FFC50C"/>
<path d="M23.1923 28.7888C23.3336 29.9454 19.2995 31.1734 19.1578 29.8081C19.1056 29.3052 18.6001 22.9922 18.6001 22.9922C18.7888 22.4344 19.147 21.9729 20.4587 21.3349C21.188 20.9802 21.5283 20.9231 22.0621 20.9479C23.031 20.9924 23.1353 22.1847 23.1584 23.5352C23.1596 23.6024 23.1636 23.6716 23.166 23.7431C23.1684 23.812 23.1708 23.883 23.1732 23.9554C23.211 24.9956 23.1923 27.2639 23.1923 28.7888Z" fill="#0258BF"/>
<path d="M19.7382 22.4494C20.4384 22.8591 20.3202 23.81 20.3257 24.6615C20.3317 25.5126 19.7724 25.5096 19.1478 25.2895C19.0149 25.2442 18.8943 25.2189 18.7792 25.2015C18.6801 23.9795 18.6001 22.992 18.6001 22.992C18.6578 22.8216 18.7362 22.6599 18.8481 22.4995C19.0822 22.3257 19.3811 22.2407 19.7382 22.4494Z" fill="#D9B9AE"/>
<path d="M19.2266 22.0923C19.5008 21.8583 19.885 21.6138 20.4586 21.3349C20.8849 21.1275 21.1771 21.029 21.4542 20.9819C21.5099 21.0137 21.5649 21.0469 21.623 21.073C22.1874 21.3236 22.4322 21.8452 22.5294 22.3665C22.5767 22.621 22.4573 22.8785 22.2519 23.0084L21.8503 23.262C21.4538 23.5126 20.922 23.3762 20.6684 22.9591L20.5295 22.7308C20.2436 22.2636 19.8476 22.0039 19.3364 22.0627C19.299 22.0675 19.2636 22.0832 19.2266 22.0923Z" fill="#D9B9AE"/>
<path d="M21.3452 19.2881C21.332 19.5531 21.3185 19.8198 21.264 20.0782C21.2094 20.3366 21.1111 20.5894 20.9467 20.7842C20.7616 21.0034 20.4957 21.135 20.2242 21.1516C20.139 21.1572 20.0534 21.1516 19.9694 21.1333C19.8858 21.115 19.8026 21.0849 19.7338 21.0296C19.6263 20.9437 19.565 20.8086 19.5212 20.6683V20.6674C19.5112 20.636 19.5025 20.6047 19.4941 20.5737C19.399 20.2098 19.3066 20.0512 19.2764 19.7492C19.2577 19.5614 19.3524 19.3034 19.348 19.1142C19.3421 18.8576 19.2521 18.7137 19.2947 18.3316C19.307 18.2213 19.3309 18.1219 19.3628 18.016C19.4563 17.7036 19.7493 17.4974 20.0478 17.4569C20.3464 17.4164 20.6473 17.5153 20.9192 17.6561C20.9941 17.6949 21.0685 17.7376 21.1278 17.8003C21.1843 17.86 21.2253 17.9354 21.2775 18.0003C21.3424 18.0797 21.3647 18.8902 21.3452 19.2881Z" fill="#FFCEA1"/>
<path opacity="0.5" d="M20.2757 20.5269C20.2761 20.6869 20.2726 20.8464 20.269 21.0063C20.2682 21.0407 20.2674 21.0765 20.2542 21.1074C20.2475 21.1244 20.2367 21.1392 20.2244 21.151C20.1392 21.1567 20.0536 21.151 19.9696 21.1327C19.886 21.1144 19.8028 21.0843 19.734 21.029C19.6599 20.9701 19.6078 20.8878 19.5684 20.7963C19.8478 20.9806 20.0484 20.7361 20.048 19.8667C20.0966 20.2628 20.2753 20.1282 20.2757 20.5269Z" fill="#1D1D1B"/>
<path d="M21.7418 19.1514H20.0488V21.5504H21.7418V19.1514Z" fill="#FFCEA1"/>
<path d="M21.4971 21.105C21.8287 21.3146 21.8287 21.6541 21.4971 21.8637C21.1655 22.0733 20.6281 22.0733 20.2965 21.8637C19.965 21.6541 19.965 21.3146 20.2965 21.105C20.6285 20.8953 21.1659 20.8953 21.4971 21.105Z" fill="#FFCEA1"/>
<path d="M20.0487 18.6755L19.667 18.5879C19.7426 18.6358 19.7872 19.0254 19.7649 19.3462C19.7422 19.6669 19.9878 19.6595 20.0328 19.4817C20.0778 19.3039 20.085 19.0402 20.085 19.0402L20.0487 18.6755Z" fill="#2F2F2F"/>
<path d="M19.6665 18.588C19.9157 18.7462 20.0284 19.0434 20.0546 19.3576C20.0809 19.6718 20.0383 19.9891 20.0642 20.3033C20.0897 20.6175 20.2019 20.9496 20.4503 21.11C20.6239 21.2224 21.0017 21.2041 21.3169 21.1182C21.6322 21.0324 21.8854 20.9016 21.953 20.6188C22.1139 19.9464 22.4785 19.3005 22.2524 18.3034C22.0271 17.312 21.1071 17.1621 20.7966 17.1394C19.9476 17.0775 18.9146 17.6397 19.3158 18.3705C19.3767 18.483 19.5809 18.5335 19.6665 18.588Z" fill="#2F2F2F"/>
<path d="M20.1293 18.9831C20.025 18.9879 19.9478 19.082 19.9151 19.1727C19.8741 19.286 19.8749 19.4054 19.8757 19.5222C19.8769 19.6708 19.8797 19.8255 19.9521 19.9553C19.9716 19.9902 19.9983 20.0242 20.0385 20.0386C20.0994 20.0599 20.1739 20.0277 20.2157 19.9793C20.2575 19.9305 20.2742 19.8695 20.2873 19.8098C20.3251 19.6381 20.3438 19.4642 20.3426 19.2912C20.3423 19.2219 20.3383 19.1509 20.3056 19.0899C20.2734 19.0288 20.2061 18.9796 20.1293 18.9831Z" fill="#FFCEA1"/>
<path opacity="0.5" d="M13.0246 13.5215L10.9741 14.8175C10.5729 15.0711 10.0713 14.7539 10.0713 14.2466C10.0713 13.9054 10.2377 13.5903 10.5076 13.4195L12.5581 12.1234C12.9593 11.8698 13.4609 12.187 13.4609 12.6939C13.4609 13.0355 13.2945 13.3511 13.0246 13.5215Z" fill="black"/>
<path d="M16.9821 22.1612C16.877 22.2514 16.8687 22.461 16.8735 22.5809C16.8826 22.8162 16.4471 22.8541 16.221 22.7643C16.0347 22.6907 16.0709 22.0366 15.938 21.728C15.938 21.728 17.0363 21.9481 16.9821 22.1612Z" fill="#FFCEA1"/>
<path d="M17.3015 21.6473C17.3747 21.3044 16.938 20.5535 16.6065 20.6698C16.403 20.7413 16.4273 20.8973 16.3477 21.0974C16.419 20.9583 15.9735 21.0708 15.9381 21.3139C15.9027 21.5571 15.9261 21.7227 15.9847 21.9219C16.0034 21.9855 16.0269 22.0478 16.0603 22.104C16.1403 22.237 16.2725 22.3215 16.4054 22.386C16.6184 22.4893 16.8779 22.2622 17.0304 22.1154C17.1936 21.9589 17.2537 21.8709 17.3015 21.6473Z" fill="#FFCEA1"/>
<path d="M18.007 23.8201C18.0787 23.8328 18.1567 23.8559 18.2319 23.913C18.3788 24.025 18.5954 23.777 18.6296 23.5613C18.6678 23.3185 18.4664 23.3098 18.39 23.1294C18.39 23.1294 17.8012 23.7844 18.007 23.8201Z" fill="#FFCEA1"/>
<path d="M17.5443 23.885C17.2915 23.7883 17.0045 23.1172 17.2278 22.9137C17.3647 22.789 17.4535 22.8775 17.6179 22.9058C17.4969 22.8984 17.3428 22.7873 17.2708 22.6796C17.1685 22.5341 17.1717 22.3589 17.2457 22.3476C17.3138 22.3371 17.3245 22.3885 17.3803 22.4482C17.5021 22.579 17.6247 22.5916 17.6844 22.616C17.9336 22.7175 18.139 22.7703 18.3086 22.9947C18.3408 23.0374 18.3707 23.0832 18.3918 23.1342C18.4415 23.2553 18.4363 23.3943 18.4184 23.5255C18.3894 23.7356 18.1278 23.8336 17.9658 23.8855C17.7923 23.9417 17.7091 23.9482 17.5443 23.885Z" fill="#FFCEA1"/>
<path d="M18.3781 24.6407L13.3086 15.8983L13.391 15.8481L18.4609 24.5906L18.3781 24.6407Z" fill="#DE4343"/>
<path d="M18.461 24.5906L13.3911 15.8481L13.4409 15.8032L18.5103 24.5457L18.461 24.5906Z" fill="#DE4343"/>
<path d="M18.3781 24.6404L13.3086 15.8979L13.358 15.853L18.4278 24.5955L18.3781 24.6404Z" fill="black"/>
<path d="M18.4278 24.5958L13.3579 15.8533L13.4407 15.8032L18.5102 24.5457L18.4278 24.5958Z" fill="black"/>
<path d="M13.2782 12.4727L13.2106 12.5358L13.1831 12.5533L13.2508 12.4901L13.2782 12.4727Z" fill="#7C7C7C"/>
<path d="M13.8061 12.7988L13.7057 12.6327C13.6034 12.4632 13.4108 12.39 13.2786 12.4737L13.2109 12.5369C13.3431 12.4532 13.5358 12.5264 13.6381 12.6959L13.7384 12.8624C13.8315 13.0167 13.8212 13.2041 13.7189 13.2991L13.7865 13.2359C13.8888 13.14 13.8992 12.9531 13.8061 12.7988Z" fill="#B3B3B3"/>
<path d="M13.2513 12.4905L13.1836 12.5537L13.1211 12.45L13.1888 12.3872L13.2513 12.4905Z" fill="#848484"/>
<path d="M13.2161 12.3697C13.392 12.2586 13.6504 12.351 13.7889 12.5798L13.8892 12.7463C14.0274 12.975 13.9923 13.2531 13.8164 13.3642L12.7285 14.0519C12.5963 14.1356 12.572 14.3413 12.6763 14.5138L13.4414 15.8034L13.3582 15.8561L12.5931 14.5666C12.455 14.3378 12.49 14.0597 12.666 13.9486L13.7539 13.2609C13.886 13.1777 13.9083 12.9685 13.806 12.799L13.7057 12.6325C13.6034 12.463 13.4107 12.3898 13.2786 12.4735L13.2511 12.4909L13.1886 12.3872L13.2161 12.3697Z" fill="#F6F6F6"/>
<path d="M13.8165 13.364L12.7282 14.0516L12.6879 14.0839L12.6641 14.1122L13.7488 13.4267C13.7647 13.4167 13.7799 13.4049 13.7934 13.3923L13.8611 13.3291C13.8471 13.3426 13.8324 13.3539 13.8165 13.364Z" fill="#B3B3B3"/>
<path d="M12.5926 14.5664C12.4672 14.3581 12.4847 14.1097 12.6209 13.9829L12.5532 14.0461C12.4167 14.1734 12.3991 14.4218 12.5249 14.6296L13.29 15.9191L13.3577 15.856L12.5926 14.5664Z" fill="#B3B3B3"/>
<path d="M13.4284 12.9682C13.5697 12.8788 13.5697 12.5895 13.4284 12.3214C13.2871 12.0534 13.0582 11.9087 12.9169 11.9981C12.7755 12.0874 10.4082 13.5835 10.4082 13.5835L10.9197 14.5536C10.9197 14.5536 13.2871 13.0575 13.4284 12.9682Z" fill="#01839D"/>
<path d="M10.4082 14.2303C10.2669 13.9622 10.2669 13.6729 10.4082 13.5835C10.5495 13.4942 10.7784 13.6389 10.9198 13.9069C11.0611 14.1749 11.0611 14.4643 10.9198 14.5536C10.7784 14.643 10.5495 14.4978 10.4082 14.2303Z" fill="#01839D"/>
<path opacity="0.4" d="M10.4082 14.2303C10.2669 13.9622 10.2669 13.6729 10.4082 13.5835C10.5495 13.4942 10.7784 13.6389 10.9198 13.9069C11.0611 14.1749 11.0611 14.4643 10.9198 14.5536C10.7784 14.643 10.5495 14.4978 10.4082 14.2303Z" fill="#1D1D1B"/>
<path d="M10.4793 14.1851C10.3774 13.9921 10.3774 13.7833 10.4793 13.7192C10.5812 13.6548 10.746 13.7593 10.8479 13.9524C10.9498 14.1455 10.9498 14.3542 10.8479 14.4183C10.7464 14.4828 10.5812 14.3782 10.4793 14.1851Z" fill="#C4BF8D"/>
<path d="M10.5978 14.1107C10.5612 14.0414 10.5612 13.9664 10.5978 13.9433C10.6344 13.9202 10.6937 13.9577 10.7303 14.027C10.767 14.0963 10.767 14.1713 10.7303 14.1944C10.6937 14.2175 10.6344 14.18 10.5978 14.1107Z" fill="black"/>
<path d="M13.5986 15.6989L18.6684 24.4414C18.6664 24.4383 18.6493 24.4462 18.6207 24.4636L13.5508 15.7211C13.579 15.7037 13.5966 15.6958 13.5986 15.6989Z" fill="#FB4432"/>
<path d="M18.6207 24.463L18.4256 24.5811L18.348 24.6325L18.2871 24.6804L18.2346 24.7279C18.2059 24.7536 18.2234 24.7502 18.2708 24.7214L18.4659 24.6033L18.5407 24.5532L18.6016 24.5052L18.6541 24.4577C18.6832 24.432 18.6657 24.4359 18.6207 24.463Z" fill="#A61B1B"/>
<path d="M18.4258 24.5817L13.356 15.8392L13.551 15.7207L18.6209 24.4632L18.4258 24.5817Z" fill="#FF5947"/>
<path d="M13.2785 15.8906L13.2176 15.9386L13.1651 15.9861C13.1547 15.9957 13.1504 16.0009 13.1516 16.0026L18.221 24.7451C18.2198 24.7434 18.2242 24.7377 18.2346 24.7285L18.2871 24.681L18.348 24.6331L13.2785 15.8906Z" fill="#DE3222"/>
<path d="M18.3478 24.6333L13.2783 15.8908L13.3555 15.8394L18.4254 24.5818L18.3478 24.6333Z" fill="#FB4432"/>
<path opacity="0.7" d="M17.5606 22.8967C17.8341 22.901 17.9404 23.0514 17.9758 23.2035C18.0112 23.3556 18.0908 23.8606 17.8409 23.9208C17.6577 23.9648 17.4225 23.8859 17.2561 23.4044C17.0893 22.9224 17.3687 22.8936 17.5606 22.8967Z" fill="#1D1D1B"/>
<path d="M17.4777 22.8694C17.6828 22.9326 17.834 22.9587 17.881 23.1853C17.928 23.4124 17.996 23.8878 17.8117 23.9253C17.6274 23.9628 17.3583 23.8756 17.1919 23.3941C17.0255 22.9125 17.2934 22.8123 17.4777 22.8694Z" fill="#FFCEA1"/>
<path d="M16.3424 20.541C16.1478 20.7183 16.0108 20.9576 15.938 21.3141L16.3357 21.5572C16.225 21.3725 16.346 20.9898 16.4921 20.7811C16.6382 20.5723 16.5371 20.3636 16.3424 20.541Z" fill="#FFCEA1"/>
<path opacity="0.7" d="M16.3375 21.0162C16.207 21.3461 16.1843 21.4189 16.3981 21.7749C16.658 22.2085 16.9263 22.2373 17.1428 21.9989C17.3013 21.8242 17.3801 21.5121 17.0417 21.0171C16.7026 20.522 16.4582 20.7107 16.3375 21.0162Z" fill="#1D1D1B"/>
<path d="M16.4033 20.919C16.3436 21.0759 16.2652 21.2821 16.3241 21.4337C16.3416 21.479 16.3989 21.5013 16.4559 21.5078C16.4507 21.5579 16.4714 21.6281 16.5036 21.6634C16.5359 21.6987 16.627 21.7209 16.6625 21.6974C16.6863 21.7205 16.6366 21.7893 16.7301 21.856C16.8237 21.9227 16.8476 21.8896 16.8858 21.8756C16.8937 21.9815 16.9411 22.0168 16.9757 22.036C17.0589 22.0822 17.1007 22.0464 17.1656 21.9702C17.3189 21.7898 17.412 21.435 17.0733 20.9404C16.7349 20.4453 16.4917 20.6863 16.4033 20.919Z" fill="#FFCEA1"/>
<path d="M16.9852 26.4394L16.9765 26.415C16.9765 26.415 15.9084 23.8203 15.7588 23.4015C15.5434 22.7997 16.8479 21.9987 17.0824 22.6018C17.3168 23.205 18.3335 25.818 18.3335 25.818L18.357 25.8847V25.8851C18.4593 26.1758 18.3964 26.4917 18.2181 26.7088C18.0935 26.8604 17.9119 26.9628 17.693 26.9763C17.3797 26.9955 17.0987 26.7597 16.9852 26.4394Z" fill="#E4C6BB"/>
<path d="M20.0562 23.6388L19.7963 24.1042L18.4277 26.5543C18.37 26.6576 18.2959 26.7434 18.2119 26.8105C17.9918 26.9844 17.7016 27.0302 17.4421 26.9199C17.3971 26.9007 17.3533 26.8768 17.3107 26.8484C17.1061 26.7116 16.9763 26.4915 16.9361 26.2518C16.9007 26.0435 16.9329 25.8204 17.0416 25.626L17.1105 25.5027L17.2004 25.3415L18.2709 23.4261L18.6705 22.7106C18.8783 22.338 19.2971 22.1924 19.6565 22.3449C19.7011 22.3637 19.7449 22.3872 19.7871 22.4155C20.1697 22.6727 20.2899 23.22 20.0562 23.6388Z" fill="#E4C6BB"/>
<path opacity="0.5" d="M19.1479 25.2893C19.1479 25.2893 19.3593 25.3543 19.4847 25.3996C19.6499 24.9159 19.913 24.0094 20.124 23.4834L19.1479 25.2893Z" fill="#1D1D1B"/>
</svg>
