<svg width="38" height="55" viewBox="0 0 38 55" fill="none" xmlns="http://www.w3.org/2000/svg">
<path d="M33.4894 29.4603C32.867 27.3415 31.2523 25.7717 30.2382 23.8425C28.6014 20.7289 28.5151 16.6629 26.2228 14.0921C25.0724 12.8022 23.5104 12.0727 21.9918 11.375C19.3455 10.159 16.6991 8.9433 14.0527 7.72734C13.0508 7.26704 12.0252 6.80034 10.9406 6.72785C8.9908 6.59719 7.16079 7.7557 5.64651 9.10676C4.97518 9.70562 4.32614 10.3669 3.91356 11.2004C2.97964 13.0875 3.43433 15.4107 3.09022 17.5236C2.54049 20.8978 1.02915 21.131 0.0747307 24.6699C-0.361941 26.9519 1.20346 28.9896 2.47451 30.8604C3.74556 32.7312 5.29925 34.4175 6.1557 36.5524C6.79798 38.1534 7.01801 39.9416 7.77424 41.4818C8.98291 43.9435 11.5973 45.4862 14.1401 45.2382C15.7868 45.0774 17.3125 44.2475 18.9237 43.8415C20.0866 43.5483 21.296 43.4783 22.4805 43.6356C23.541 43.7764 24.5817 44.0974 25.6492 44.1447C29.2756 44.306 32.5751 41.0491 33.4471 37.1919C33.75 35.8515 33.8081 34.4602 33.8275 33.0795C33.845 31.8614 33.8302 30.62 33.4894 29.4603Z" fill="#D2D2E1" fill-opacity="0.5"/>
<path d="M27.5831 14.5899C27.158 13.4135 25.2512 11.7043 23.841 9.08984L22.8711 9.56299C22.8711 9.56299 25.3729 15.4092 25.8941 16.044C25.9007 16.0497 25.9073 16.056 25.914 16.0617C26.6993 16.7587 27.8619 16.0021 27.6702 14.9153C27.6513 14.8086 27.6229 14.7003 27.5831 14.5899Z" fill="#EF8D72"/>
<path d="M22.4613 9.13941L21.5808 7.9485C21.5543 7.91223 21.5586 7.85937 21.5908 7.82931C21.6216 7.80081 21.6675 7.80236 21.6963 7.83346L22.3723 8.55847L21.7342 7.71063C21.7034 7.67021 21.7087 7.6101 21.7456 7.57641C21.7801 7.54532 21.8303 7.54739 21.8625 7.58159L22.5475 8.31904L21.8985 7.46551C21.8672 7.42457 21.8734 7.36342 21.9117 7.33129C21.9458 7.30278 21.9936 7.30589 22.0244 7.33854L22.752 8.12211L22.2526 7.32455C22.2265 7.28309 22.236 7.22608 22.2734 7.19706C22.3065 7.17167 22.351 7.1753 22.3799 7.20536L23.4289 8.29676L23.2774 8.96062L22.4613 9.13941Z" fill="#EF8781"/>
<path d="M23.8411 9.08982C23.8411 9.08982 23.8032 8.81567 23.7114 8.57988C23.7019 8.555 23.6915 8.53168 23.6806 8.50836C23.4983 8.12176 23.0979 7.9808 22.776 8.23525L22.6335 8.34823C22.3665 8.55915 22.3116 8.98306 22.5331 9.24944C22.5421 9.26032 22.5516 9.27068 22.5611 9.28053C22.7514 9.47435 22.8711 9.56297 22.8711 9.56297L23.8411 9.08982Z" fill="#EF8781"/>
<path d="M23.8409 9.08991C23.8409 9.08991 23.8149 8.84582 23.7728 8.59396C23.734 8.36231 23.5844 8.17108 23.3813 8.09542C23.2445 8.04463 23.2487 8.05448 23.2487 8.05448L22.9103 8.19803C22.8828 8.20995 22.8719 8.24623 22.8876 8.27369L22.9027 8.2996C22.9448 8.37216 23.0258 8.40584 23.1015 8.38252L23.2795 8.32707L23.2947 8.35454C23.3477 8.44989 23.3221 8.57427 23.2364 8.63594C23.0409 8.77638 22.7578 9.07177 22.9415 9.52938L23.8409 9.08991Z" fill="#EF8D72"/>
<path d="M32.2587 52.0362C32.2521 52.2004 32.2473 52.3663 32.2445 52.5347C31.498 52.6021 30.7458 52.3932 30.369 52.2652C30.3675 52.1528 30.3656 52.0393 30.3633 51.9258C30.3704 51.9289 30.378 51.9315 30.3851 51.9336C30.9257 52.0978 31.844 52.0626 32.2587 52.0362Z" fill="#EF8D72"/>
<path d="M36.638 52.1012C36.6238 52.2224 36.6105 52.3313 36.5992 52.4266C35.7035 52.5557 35.0739 52.3997 34.7923 52.3028C34.7909 52.1934 34.7885 52.083 34.7861 51.9727C34.8055 51.9804 34.8254 51.9872 34.8458 51.9924C35.2429 52.1007 35.8626 52.2235 36.4652 52.152C36.5258 52.1447 36.584 52.1271 36.638 52.1012Z" fill="#EF8D72"/>
<path d="M26.9072 19.9228C26.9072 19.9228 28.9001 23.2592 29.623 25.2777C31.0692 24.9414 30.627 23.1462 30.627 23.1462C30.627 23.1462 29.2755 20.3011 29.1671 20.1892C29.0587 20.0773 28.4111 19.5834 28.4111 19.5834L27.5761 19.4165C27.3096 19.5487 26.9072 19.9228 26.9072 19.9228Z" fill="#576F9B"/>
<path d="M37.6119 42.4798C37.4936 44.6859 36.9999 49.0407 36.7277 51.3494C36.6751 51.7946 36.6306 52.1635 36.5989 52.4263C36.5644 52.7092 36.545 52.8689 36.545 52.8689L35.1958 53.6949L34.7963 52.8689C34.7963 52.6818 34.7949 52.4926 34.792 52.3024C34.7887 52.0656 34.7835 51.8267 34.7764 51.5862C34.6051 45.8318 33.3823 39.1289 33.3823 39.1289H36.9114C36.9114 39.1289 37.4647 40.5815 37.6119 42.4798Z" fill="#FBA284"/>
<path d="M30.346 27.6909L29.0669 39.5227H32.7644C32.7644 39.5227 35.9105 33.6278 35.9105 27.6909H30.346Z" fill="white"/>
<path d="M32.7716 39.5371H29.0522L29.0541 39.521L30.3346 27.6768H35.9233V27.6908C35.9233 30.7597 35.0675 33.8152 34.3493 35.8379C33.5716 38.0295 32.7834 39.5148 32.7754 39.5298L32.7716 39.5371ZM29.0811 39.5091H32.7564C32.8161 39.3956 33.5754 37.9404 34.3252 35.8281C35.0409 33.8106 35.8944 30.7654 35.8973 27.7058H30.3573L29.0811 39.5091Z" fill="black"/>
<path d="M33.1739 43.091C33.1739 45.9926 32.5803 48.207 32.3408 50.806C32.2892 51.361 32.2546 51.9336 32.2447 52.5348C32.2433 52.6457 32.2423 52.7571 32.2423 52.8696L30.7507 53.1401L30.3725 52.8696C30.3734 52.67 30.372 52.469 30.3696 52.2653C30.364 51.7875 30.3498 51.2993 30.3289 50.806C30.1012 45.4671 29.0674 39.5229 29.0674 39.5229H32.7649C32.764 39.5229 33.1739 41.499 33.1739 43.091Z" fill="#FBA284"/>
<path d="M32.3793 53.0822C32.5346 53.717 32.6089 54.2648 32.6089 54.8877H28.0029V54.8867C28.0029 54.47 28.2444 54.101 28.6032 53.9606C29.0193 53.7984 29.7715 53.4429 30.3727 52.8697C31.3937 53.0972 31.4865 52.6235 32.0214 52.6235C32.3092 52.6235 32.3793 53.0822 32.3793 53.0822Z" fill="#4E254F"/>
<path d="M27.7136 15.561L30.1591 14.2012C29.2573 12.931 29.0594 11.8588 29.0594 11.8588C28.7806 11.2529 28.116 10.9938 27.5498 11.27C26.9837 11.5463 26.6599 12.279 26.8843 12.9113C26.8843 12.9113 27.5086 14.3437 27.7136 15.561Z" fill="#FBA284"/>
<path d="M36.8469 27.6909H30.3465C30.2414 26.6316 30.035 25.7231 29.7803 24.9406C29.0726 22.7682 27.9895 21.5752 27.6516 20.8714C27.4982 20.5522 27.3642 20.2558 27.2468 19.9796C26.1462 17.3915 26.5263 16.6385 26.5263 16.6385C27.0887 15.9601 27.8736 15.401 28.5699 14.9905C28.6101 14.9667 28.6499 14.9433 28.6892 14.9211C29.4982 14.4567 30.159 14.2007 30.159 14.2007C30.159 14.2007 30.1922 14.1893 30.2518 14.1707C31.3638 13.8219 32.0066 14.4308 32.6978 15.446C33.1877 16.1659 35.3188 19.3442 36.8469 27.6909Z" fill="#B9E5FE"/>
<path d="M29.2475 17.2884C28.8153 16.3177 27.8449 15.7834 26.875 15.9783C25.8193 16.1902 23.2778 17.1733 22.6368 17.3163C21.7899 17.505 21.2919 18.471 21.5831 19.3623C21.6347 19.5209 21.7653 19.6313 21.9182 19.6468C22.7107 19.7256 26.4181 19.523 28.4087 19.1193C29.1713 18.9643 29.5874 18.0522 29.2475 17.2884Z" fill="#FBA284"/>
<path d="M21.8148 19.6201C21.8148 19.6201 21.2373 19.5045 20.5788 18.9117C20.3038 18.5769 19.4768 16.7895 18.7572 15.1762L18.7568 15.1757C18.3596 14.2844 17.2812 12.4312 17.2812 12.4312L18.5262 11.958C18.6034 12.101 18.682 12.2415 18.7624 12.3793C18.8983 12.6146 19.038 12.8421 19.1795 13.0618C20.469 15.0674 21.9061 16.4563 22.2683 17.4575C22.6929 18.6344 21.8148 19.6201 21.8148 19.6201Z" fill="#FBA284"/>
<path d="M36.9827 51.6142C36.951 51.835 36.8175 52.0153 36.6381 52.1014C36.5841 52.1273 36.5264 52.1449 36.4653 52.1516C35.8627 52.2231 35.243 52.1008 34.8459 51.992C34.8255 51.9868 34.8056 51.9801 34.7862 51.9723C34.5652 51.8842 34.4113 51.6588 34.4009 51.3976C34.2603 47.8213 33.8669 43.6681 33.4452 39.9664C33.4376 39.898 33.4295 39.8296 33.4215 39.7612C32.7914 34.2715 32.1064 29.8261 32.1064 29.8261C32.1064 29.8261 32.1382 29.8131 32.2016 29.7872C32.5831 29.6317 34.1046 29.001 36.6352 27.8428C36.7441 27.793 36.8549 27.7417 36.9676 27.6904C36.9766 27.7412 36.9856 27.792 36.9941 27.8428C37.0447 28.1377 37.0902 28.4393 37.1309 28.745C37.1711 29.0451 37.2071 29.3493 37.2388 29.6561C37.2734 29.9852 37.3027 30.3174 37.3287 30.6501C37.6483 34.7617 37.3534 38.9584 37.3534 38.9584C37.3534 38.9584 37.5399 40.6287 37.6118 42.2782C37.6776 44.4087 37.2582 49.6967 36.9827 51.6142Z" fill="#7494CE"/>
<path d="M32.0141 17.3959L31.9554 17.4337L31.5748 17.6809C30.8988 16.4341 30.0008 15.7267 28.9063 15.5774C28.2521 15.4878 27.7144 15.6339 27.5156 15.6997C27.5156 15.6997 27.4985 15.4764 27.6831 15.2577C27.8105 15.1063 27.9885 15.0182 28.1759 15.0027C28.2725 14.9944 28.3743 14.9897 28.4817 14.9897C28.6275 14.9897 28.7828 14.998 28.9442 15.0193C29.8181 15.1317 31.0602 15.6355 32.0141 17.3959Z" fill="#576F9B"/>
<path d="M36.9677 27.6909C36.9658 27.7416 36.9634 27.7924 36.961 27.8432C36.9468 28.1329 36.9222 28.4273 36.8886 28.7242C36.8493 29.0699 36.7977 29.4207 36.7357 29.7731C35.9456 34.2559 33.468 39.1153 33.2824 40.2715C33.2677 40.3612 33.2673 40.4285 33.2824 40.4716C34.0947 43.6489 32.775 50.5331 32.517 51.8116C32.4919 51.9354 32.3953 52.0256 32.2798 52.0334C32.2732 52.0339 32.2665 52.0344 32.2599 52.0349C31.8448 52.0614 30.9269 52.0971 30.3868 51.9323C30.3792 51.9302 30.3721 51.9277 30.365 51.9245C30.2689 51.8852 30.2026 51.7857 30.1984 51.6716C30.099 49.0675 28.9742 42.9834 28.951 39.5216C28.9344 36.9818 29.5569 31.801 29.9129 29.0611C29.9958 28.4205 30.0644 27.9132 30.107 27.6043C30.1363 27.3882 30.1534 27.2695 30.1534 27.2695C30.1534 27.2695 34.5378 27.3286 36.9677 27.6909Z" fill="#7494CE"/>
<path d="M33.4142 16.76L32.9446 16.9808C32.3264 15.4043 31.6135 14.7109 31.1245 14.4072C30.8159 14.215 30.5555 14.1512 30.3955 14.131C30.3955 14.131 30.4452 13.9662 30.6459 13.8522C30.8433 13.7403 31.0791 13.748 31.2765 13.8595C31.9188 14.2222 32.7321 15.0203 33.4142 16.76Z" fill="#576F9B"/>
<path d="M36.9675 27.6909L36.967 27.6914C36.9325 27.7142 35.2747 28.7735 30.4808 27.7463C30.3312 27.7142 30.2138 27.5877 30.1826 27.4245C30.1542 27.2778 30.1229 27.1286 30.0893 26.9793C30.0377 26.7524 29.9809 26.5259 29.9236 26.3108C29.8162 25.9081 29.7063 25.5428 29.6235 25.278C29.5492 25.0411 29.6363 24.7794 29.8327 24.6519C30.7137 24.0798 32.8642 22.1712 31.4981 17.7491C31.4645 17.6402 31.5047 17.5205 31.5951 17.4625C31.6903 17.4018 31.8053 17.3319 31.9374 17.2583C32.0051 17.2199 32.0765 17.1811 32.1523 17.1422C32.504 16.9608 32.9414 16.7732 33.4214 16.6535C33.4943 16.6354 33.5686 16.6722 33.6046 16.7437L33.6051 16.7447C33.6051 16.7458 33.606 16.7468 33.606 16.7468C33.6264 16.7862 33.6467 16.8276 33.6676 16.8691C33.6832 16.9007 33.6993 16.9323 33.7154 16.965C33.723 16.98 33.7305 16.9961 33.7381 17.0116C33.7504 17.0365 33.7632 17.0619 33.7755 17.0878C33.7902 17.1178 33.8053 17.1489 33.8205 17.1806C33.8328 17.2054 33.8446 17.2308 33.8569 17.2567C33.8654 17.2738 33.8735 17.2909 33.882 17.308C33.908 17.3625 33.9341 17.4179 33.9611 17.4749C33.9767 17.5086 33.9928 17.5428 34.0089 17.577C34.0264 17.6143 34.0439 17.6522 34.0614 17.69C34.077 17.7242 34.0936 17.7594 34.1097 17.7947C34.1263 17.8315 34.1438 17.8688 34.1608 17.9066C34.1693 17.9253 34.1779 17.9444 34.1864 17.9636C34.2811 18.1735 34.3795 18.3974 34.4799 18.6337C34.4983 18.6767 34.5168 18.7202 34.5348 18.7638C34.5622 18.8296 34.5902 18.8959 34.6181 18.9638C34.6276 18.9861 34.6366 19.0089 34.646 19.0317C34.6555 19.0545 34.665 19.0773 34.6744 19.1001C34.6839 19.1229 34.6929 19.1462 34.7024 19.169C34.7213 19.2157 34.7407 19.2628 34.7597 19.3105C34.7748 19.3489 34.7899 19.3872 34.8056 19.4261C34.9083 19.6857 35.0129 19.9573 35.117 20.2397C35.1407 20.3034 35.1644 20.3687 35.1881 20.434C35.207 20.4869 35.2264 20.5403 35.2453 20.5937C35.2605 20.6372 35.2761 20.6807 35.2917 20.7242C35.3121 20.7818 35.3324 20.8393 35.3523 20.8979C35.3623 20.9269 35.3722 20.9559 35.3826 20.9854C35.393 21.015 35.403 21.0445 35.4129 21.0735C35.4943 21.3114 35.5748 21.556 35.6543 21.8063C35.6737 21.867 35.6927 21.9276 35.7116 21.9887C35.7216 22.0203 35.7315 22.052 35.741 22.0836C35.8105 22.309 35.8792 22.5396 35.9464 22.7744C35.9814 22.8962 36.0155 23.0195 36.0501 23.1439C36.061 23.1833 36.0718 23.2227 36.0823 23.2626C36.1064 23.3517 36.1301 23.4408 36.1537 23.5305C36.1661 23.5776 36.1784 23.6248 36.1907 23.6725C36.1949 23.6891 36.1997 23.7056 36.2034 23.7228C36.2167 23.7751 36.23 23.8274 36.2437 23.8803C36.2787 24.0197 36.3128 24.1601 36.3464 24.3016C36.3511 24.3208 36.3559 24.34 36.3601 24.3597C36.3724 24.411 36.3843 24.4633 36.3966 24.5151C36.4122 24.5841 36.4283 24.6525 36.4434 24.7219C36.4586 24.7898 36.4738 24.8582 36.4889 24.9271C36.5187 25.065 36.5485 25.2044 36.5769 25.3443C36.5874 25.3956 36.5978 25.4474 36.6082 25.4993C36.6115 25.5164 36.6153 25.534 36.6186 25.5511C36.6323 25.6216 36.6461 25.692 36.6598 25.7625C36.6716 25.8247 36.6835 25.8864 36.6948 25.9486C36.6962 25.9574 36.6981 25.9662 36.6995 25.9755C36.7128 26.047 36.7256 26.118 36.7384 26.1895C36.7507 26.259 36.7625 26.3284 36.7743 26.3979C36.7753 26.4036 36.7762 26.4093 36.7772 26.415C36.789 26.4839 36.8004 26.5528 36.8117 26.6223C36.8236 26.6943 36.8349 26.7669 36.8463 26.8394L36.8468 26.841C36.8903 27.1213 36.931 27.4043 36.9675 27.6909Z" fill="#7494CE"/>
<path d="M29.3881 17.9645C29.3881 17.9702 29.3876 17.9775 29.3876 17.9863C29.3857 18.105 29.3758 18.2169 29.3568 18.3231C29.1116 19.727 27.4648 20.0675 25.6816 20.1551C25.1126 20.1831 24.5293 20.1857 23.9736 20.1883C23.5968 19.7478 23.3838 19.2031 23.265 18.6932C23.0647 17.8329 23.1319 17.0711 23.1319 17.0711C27.9149 14.8235 29.0709 16.215 29.3403 17.4629C29.3507 17.5105 29.3597 17.5577 29.3673 17.6043C29.3819 17.7251 29.3886 17.8396 29.3886 17.9495C29.3886 17.9495 29.3886 17.9552 29.3881 17.9645Z" fill="#D5EFFE"/>
<path d="M37.0692 28.3121C33.2817 29.3335 29.9751 28.5722 29.9751 28.5722C29.9751 28.5722 29.8677 27.8871 30.0258 27.2057C30.0433 27.13 30.0636 27.0538 30.0887 26.9787C33.1652 27.4928 36.8467 26.8408 36.8467 26.8408C36.8467 26.8408 37.196 27.6477 37.0692 28.3121Z" fill="#576F9B"/>
<path opacity="0.25" d="M37.239 29.6568C37.2281 29.5531 37.2168 29.4495 37.2049 29.3463C37.2026 29.3272 37.2007 29.3085 37.1983 29.2893C37.177 29.1069 37.1548 28.9255 37.1306 28.7457H37.1301C37.1107 28.6006 37.0904 28.456 37.0691 28.313C33.2816 29.3344 29.975 28.5726 29.975 28.5726C29.9547 28.725 29.9339 28.8887 29.9111 29.0618C30.1952 29.1966 31.0169 29.5526 32.2009 29.7879C32.5753 29.8625 32.9857 29.9247 33.4274 29.9641C35.1472 30.1175 36.2691 32.0142 35.6792 33.7892C34.8262 36.355 33.7999 38.6264 33.4208 39.7618C33.3502 39.9733 33.3019 40.1453 33.2816 40.2723C33.2816 40.2723 33.3398 40.165 33.4444 39.967C34.0522 38.8114 36.2118 34.5717 37.3285 30.6507C37.3029 30.318 37.2731 29.9859 37.239 29.6568Z" fill="#576F9B"/>
<path opacity="0.25" d="M36.847 26.8418C36.847 26.8418 33.166 27.4937 30.089 26.9796C30.0374 26.7526 29.9806 26.5262 29.9233 26.3111L29.9399 26.2562C29.9399 26.2562 33.7089 27.488 35.0396 25.4462C36.3537 23.4297 33.6734 16.9103 33.6057 16.7471C33.6261 16.7865 33.6465 16.8279 33.6673 16.8694C33.6829 16.901 33.699 16.9326 33.7151 16.9652C33.7227 16.9803 33.7302 16.9963 33.7378 17.0119C33.7501 17.0368 33.7629 17.0622 33.7752 17.0881C33.7899 17.1181 33.805 17.1492 33.8202 17.1808C33.8325 17.2057 33.8443 17.2311 33.8566 17.257C33.8652 17.2741 33.8732 17.2912 33.8817 17.3083C33.9078 17.3627 33.9338 17.4182 33.9608 17.4752C33.9764 17.5089 33.9925 17.5431 34.0086 17.5773C34.0261 17.6146 34.0436 17.6524 34.0611 17.6903C34.0768 17.725 34.0928 17.7597 34.1094 17.7949C34.126 17.8317 34.1435 17.869 34.1605 17.9069C34.1691 17.9255 34.1776 17.9447 34.1861 17.9639C34.2808 18.1738 34.3792 18.3976 34.4796 18.634C34.4981 18.677 34.5165 18.7205 34.5345 18.764C34.562 18.8299 34.5899 18.8962 34.6178 18.9641C34.6273 18.9864 34.6363 19.0092 34.6458 19.032C34.6552 19.0548 34.6647 19.0776 34.6742 19.1004C34.6836 19.1232 34.6926 19.1465 34.7021 19.1693C34.721 19.2159 34.7404 19.2631 34.7594 19.3108C34.7745 19.3491 34.7897 19.3875 34.8053 19.4263C34.908 19.686 35.0126 19.9575 35.1168 20.24C35.1404 20.3037 35.1641 20.369 35.1878 20.4343C35.2067 20.4872 35.2261 20.5405 35.245 20.5939C35.2607 20.6375 35.2758 20.681 35.2914 20.7245C35.3118 20.782 35.3321 20.8396 35.352 20.8981C35.362 20.9272 35.3719 20.9562 35.3823 20.9857C35.3927 21.0152 35.4027 21.0448 35.4126 21.0738C35.494 21.3117 35.5745 21.5563 35.654 21.8066C35.6735 21.8672 35.6924 21.9279 35.7113 21.989C35.7213 22.0206 35.7312 22.0522 35.7407 22.0839C35.8103 22.3093 35.8789 22.5399 35.9461 22.7747C35.9812 22.8964 36.0152 23.0198 36.0498 23.1442C36.0607 23.1835 36.0716 23.2229 36.082 23.2628C36.1061 23.352 36.1298 23.4411 36.1535 23.5308C36.1658 23.5779 36.1781 23.6251 36.1904 23.6728C36.1946 23.6893 36.1994 23.7059 36.2032 23.723C36.2164 23.7754 36.2297 23.8277 36.2434 23.8806C36.2784 24.02 36.3125 24.1604 36.3461 24.3019C36.3509 24.3211 36.3556 24.3402 36.3599 24.3599C36.3722 24.4112 36.384 24.4636 36.3963 24.5154C36.4119 24.5843 36.428 24.6527 36.4432 24.7222C36.4583 24.7901 36.4735 24.8585 36.4886 24.9274C36.5184 25.0653 36.5483 25.2047 36.5767 25.3446C36.5871 25.3959 36.5975 25.4477 36.6079 25.4995C36.6112 25.5166 36.615 25.5343 36.6183 25.5514C36.632 25.6218 36.6458 25.6923 36.6595 25.7628C36.6713 25.825 36.6832 25.8867 36.6945 25.9488C36.6959 25.9577 36.6978 25.9665 36.6993 25.9758C36.7125 26.0473 36.7253 26.1183 36.7381 26.1898C36.7504 26.2593 36.7622 26.3287 36.7741 26.3982C36.775 26.4039 36.776 26.4096 36.7769 26.4153C36.7887 26.4842 36.8001 26.5531 36.8115 26.6225C36.8233 26.6946 36.8347 26.7671 36.846 26.8397C36.8465 26.8407 36.847 26.8418 36.847 26.8418Z" fill="#576F9B"/>
<path d="M23.9733 20.1893C23.5965 19.7488 23.3835 19.2041 23.2646 18.6942C24.3894 18.8574 27.7916 19.1823 29.34 17.4639C29.3504 17.5115 29.3594 17.5587 29.367 17.6053C29.6775 20.1753 26.5357 20.1758 23.9733 20.1893Z" fill="#B9E5FE"/>
<path opacity="0.25" d="M30.0338 24.8484L29.7801 24.9406C29.0724 22.7682 27.9893 21.5752 27.6513 20.8714C27.4979 20.5522 27.364 20.2558 27.2466 19.9795C28.3429 19.7588 29.187 19.2965 29.3569 18.3228C29.3328 18.4964 29.2892 18.7182 29.213 18.9617C28.7472 20.4475 28.8158 22.0717 29.435 23.4885C29.7758 24.2695 30.0338 24.8484 30.0338 24.8484Z" fill="#7494CE"/>
<path opacity="0.25" d="M32.1519 17.142C32.0761 17.1808 32.0046 17.2197 31.9369 17.2581C30.994 15.609 29.7949 15.1291 28.9443 15.0193C28.8145 15.0027 28.6891 14.9939 28.5693 14.9908C28.6096 14.9669 28.6493 14.9436 28.6886 14.9213C29.1061 14.8861 30.2479 14.8747 31.0176 15.6697C31.6203 16.291 31.9729 16.829 32.1519 17.142Z" fill="#7494CE"/>
<path d="M36.545 52.8693L36.6363 53.0838C36.8754 53.6466 36.9606 54.2726 36.8811 54.8873H33.3828C33.3828 54.4338 33.5731 54.0052 33.8993 53.7254C34.1331 53.5248 34.6685 52.9942 34.7968 52.8693C35.2456 53.0289 35.8827 52.7065 36.1696 52.7065C36.4555 52.7065 36.545 52.8693 36.545 52.8693Z" fill="#4E254F"/>
<path d="M24.5815 1.01318H0V7.93317H24.5815V1.01318Z" fill="#F8EFF2"/>
<path d="M24.582 7.93311C24.582 8.67366 24.4187 9.2914 24.2298 9.75833H0.352694C0.182278 9.33649 0.0322207 8.7913 0.00523823 8.14351C0.00239797 8.07458 0.000976562 8.00462 0.000976562 7.93362H24.582V7.93311Z" fill="#C8B5BB"/>
<path d="M0.470931 9.56228C0.300989 9.10675 0.204422 8.62739 0.183594 8.13506C0.183594 8.13351 0.183594 8.13144 0.183594 8.12988H24.3987C24.3784 8.62376 24.2823 9.10468 24.1114 9.56228H0.470931Z" fill="#AA7E7E"/>
<path d="M15.9765 5.71399H8.97617C8.90091 5.71399 8.83984 5.64713 8.83984 5.56474V4.01107C8.83984 3.92867 8.90091 3.86182 8.97617 3.86182H15.9765C16.0517 3.86182 16.1128 3.92867 16.1128 4.01107V5.56474C16.1128 5.64713 16.0517 5.71399 15.9765 5.71399Z" fill="#C8B5BB"/>
<path d="M8.97616 5.59584C8.96053 5.59584 8.94775 5.58184 8.94775 5.56474V4.01108C8.94775 3.99397 8.96053 3.97998 8.97616 3.97998H15.9765C15.9921 3.97998 16.0049 3.99397 16.0049 4.01108V5.56474C16.0049 5.58184 15.9921 5.59584 15.9765 5.59584H8.97616Z" fill="#4A485E"/>
<path d="M24.582 1.01331H0.000488281C0.000488281 0.937649 0.0113815 0.864578 0.0298432 0.795135C0.133986 0.407495 0.46913 0.149414 0.837891 0.149414H23.7446C24.1134 0.149414 24.4485 0.407495 24.5527 0.795135C24.5707 0.864578 24.582 0.937649 24.582 1.01331Z" fill="#FBF5F7"/>
<path d="M5.76366 0.478695H1.92883C1.88528 0.478695 1.88434 0.439826 1.92647 0.392149C1.96812 0.344471 2.03629 0.306641 2.0789 0.306641H5.85834C5.90094 0.306641 5.91515 0.344989 5.88958 0.392149C5.86355 0.439308 5.80721 0.478695 5.76366 0.478695Z" fill="#C8B5BB"/>
<path d="M5.53324 0.898877H1.56303C1.51805 0.898877 1.51805 0.8569 1.56303 0.805595C1.60752 0.754808 1.67947 0.713867 1.72349 0.713867H5.63454C5.67904 0.713867 5.69277 0.754808 5.66531 0.805595C5.63738 0.8569 5.57821 0.898877 5.53324 0.898877Z" fill="#C8B5BB"/>
<path d="M9.98616 0.478695H6.15133C6.10778 0.478695 6.09311 0.439826 6.1182 0.392149C6.14281 0.344471 6.19772 0.306641 6.24033 0.306641H10.0198C10.0628 0.306641 10.0903 0.344989 10.0813 0.392149C10.0718 0.439308 10.0292 0.478695 9.98616 0.478695Z" fill="#C8B5BB"/>
<path d="M9.90423 0.898877H5.93401C5.88904 0.898877 5.87437 0.8569 5.90088 0.805595C5.92739 0.754808 5.98467 0.713867 6.02917 0.713867H9.94021C9.9847 0.713867 10.0126 0.754808 10.0032 0.805595C9.9937 0.8569 9.94967 0.898877 9.90423 0.898877Z" fill="#C8B5BB"/>
<path d="M14.2085 0.478695H10.3737C10.3302 0.478695 10.3018 0.439826 10.3093 0.392149C10.3174 0.344471 10.3586 0.306641 10.4012 0.306641H14.1806C14.2232 0.306641 14.2644 0.344989 14.2724 0.392149C14.281 0.439308 14.2521 0.478695 14.2085 0.478695Z" fill="#C8B5BB"/>
<path d="M14.2763 0.898877H10.306C10.2611 0.898877 10.2317 0.8569 10.2402 0.805595C10.2488 0.754808 10.2914 0.713867 10.3359 0.713867H14.2469C14.2914 0.713867 14.334 0.754808 14.3425 0.805595C14.3506 0.8569 14.3212 0.898877 14.2763 0.898877Z" fill="#C8B5BB"/>
<path d="M18.4307 0.478695H14.5959C14.5523 0.478695 14.5097 0.439826 14.5007 0.392149C14.4917 0.344471 14.5196 0.306641 14.5623 0.306641H18.3417C18.3843 0.306641 18.4392 0.344989 18.4638 0.392149C18.4889 0.439308 18.4738 0.478695 18.4307 0.478695Z" fill="#C8B5BB"/>
<path d="M18.6476 0.898877H14.6774C14.6324 0.898877 14.5879 0.8569 14.5785 0.805595C14.569 0.754808 14.5974 0.713867 14.6414 0.713867H18.5525C18.597 0.713867 18.6543 0.754808 18.6808 0.805595C18.7073 0.8569 18.6926 0.898877 18.6476 0.898877Z" fill="#C8B5BB"/>
<path d="M22.6528 0.478695H18.818C18.7744 0.478695 18.7181 0.439826 18.692 0.392149C18.6665 0.344471 18.6802 0.306641 18.7233 0.306641H22.5027C22.5453 0.306641 22.6135 0.344989 22.6551 0.392149C22.6973 0.439308 22.6963 0.478695 22.6528 0.478695Z" fill="#C8B5BB"/>
<path d="M23.0193 0.898877H19.049C19.0041 0.898877 18.9449 0.8569 18.917 0.805595C18.8895 0.754808 18.9032 0.713867 18.9477 0.713867H22.8588C22.9033 0.713867 22.9748 0.754808 23.0193 0.805595C23.0638 0.8569 23.0642 0.898877 23.0193 0.898877Z" fill="#C8B5BB"/>
<path d="M24.5815 2.31934H0V2.48362H24.5815V2.31934Z" fill="#C8B5BB"/>
<path d="M8.03554 7.16609H0.401861C0.333221 7.16609 0.277832 7.10545 0.277832 7.03031C0.277832 6.95516 0.333221 6.89453 0.401861 6.89453H8.03554C8.10418 6.89453 8.15957 6.95516 8.15957 7.03031C8.15957 7.10545 8.10418 7.16609 8.03554 7.16609Z" fill="#C8B5BB"/>
<path d="M24.1801 7.16609H16.5464C16.4777 7.16609 16.4224 7.10545 16.4224 7.03031C16.4224 6.95516 16.4777 6.89453 16.5464 6.89453H24.1801C24.2487 6.89453 24.3041 6.95516 24.3041 7.03031C24.3041 7.10545 24.2487 7.16609 24.1801 7.16609Z" fill="#C8B5BB"/>
<path d="M8.03554 6.34333H0.401861C0.333221 6.34333 0.277832 6.2827 0.277832 6.20755C0.277832 6.13241 0.333221 6.07178 0.401861 6.07178H8.03554C8.10418 6.07178 8.15957 6.13241 8.15957 6.20755C8.15957 6.2827 8.10418 6.34333 8.03554 6.34333Z" fill="#C8B5BB"/>
<path d="M24.1801 6.34333H16.5464C16.4777 6.34333 16.4224 6.2827 16.4224 6.20755C16.4224 6.13241 16.4777 6.07178 16.5464 6.07178H24.1801C24.2487 6.07178 24.3041 6.13241 24.3041 6.20755C24.3041 6.2827 24.2487 6.34333 24.1801 6.34333Z" fill="#C8B5BB"/>
<path d="M24.0316 8.61288H0.550635C0.437498 8.61288 0.357497 8.49109 0.393474 8.37345L0.468739 8.12988H24.1135L24.1887 8.37345C24.2247 8.49109 24.1447 8.61288 24.0316 8.61288Z" fill="#F8EFF2"/>
<path d="M24.0316 9.08749H0.550635C0.437498 9.08749 0.357497 8.9657 0.393474 8.84806L0.468739 8.60449H24.1135L24.1887 8.84806C24.2247 8.9657 24.1447 9.08749 24.0316 9.08749Z" fill="#F8EFF2"/>
<path d="M24.0316 9.5621H0.550635C0.437498 9.5621 0.357497 9.44031 0.393474 9.32267L0.468739 9.0791H24.1135L24.1887 9.32267C24.2247 9.44031 24.1447 9.5621 24.0316 9.5621Z" fill="#F8EFF2"/>
<path d="M17.3371 4.13855C17.3371 4.29143 17.224 4.41529 17.0843 4.41529C16.9447 4.41529 16.8315 4.29143 16.8315 4.13855C16.8315 3.98567 16.9447 3.86182 17.0843 3.86182C17.224 3.86182 17.3371 3.98567 17.3371 4.13855Z" fill="#B5C1E9"/>
<path d="M18.3654 4.13855C18.3654 4.29143 18.2523 4.41529 18.1127 4.41529C17.973 4.41529 17.8599 4.29143 17.8599 4.13855C17.8599 3.98567 17.973 3.86182 18.1127 3.86182C18.2523 3.86182 18.3654 3.98567 18.3654 4.13855Z" fill="#EDC489"/>
<path d="M24.0317 8.63155H0.550731C0.541263 8.63155 0.533691 8.62326 0.533691 8.61289C0.533691 8.60253 0.541263 8.59424 0.550731 8.59424H24.0317C24.0411 8.59424 24.0487 8.60253 24.0487 8.61289C24.0487 8.62326 24.0411 8.63155 24.0317 8.63155Z" fill="#C8B5BB"/>
<path d="M24.0317 9.10616H0.550731C0.541263 9.10616 0.533691 9.09787 0.533691 9.0875C0.533691 9.07714 0.541263 9.06885 0.550731 9.06885H24.0317C24.0411 9.06885 24.0487 9.07714 24.0487 9.0875C24.0487 9.09787 24.0411 9.10616 24.0317 9.10616Z" fill="#C8B5BB"/>
<path d="M16.7808 11.9462L15.5339 10.2837C15.5022 10.2365 15.5074 10.1707 15.5462 10.1298C15.5897 10.0842 15.6589 10.0868 15.6996 10.1355L16.4655 11.06L15.718 9.85407C15.6873 9.80432 15.6967 9.73643 15.7408 9.69964C15.7834 9.66388 15.8435 9.66906 15.8804 9.71104L16.7353 10.6952L15.9443 9.51722C15.9116 9.4685 15.9159 9.40165 15.9542 9.35864C15.9992 9.30837 16.0735 9.30889 16.1171 9.36019L17.088 10.4962L16.2998 9.34879C16.269 9.30371 16.278 9.23944 16.3206 9.20731L16.3225 9.20576C16.358 9.17829 16.4058 9.1814 16.438 9.2125C16.7183 9.48353 17.9751 10.6957 17.9751 10.6957L17.3162 11.3481L16.7808 11.9462Z" fill="#EF8D72"/>
<path d="M18.5255 11.9585C18.5255 11.9585 18.3826 11.4382 18.2605 11.1247C18.2477 11.092 18.2339 11.0604 18.2197 11.0299C17.9778 10.5158 17.4453 10.3282 17.0169 10.6671L16.8275 10.8169C16.473 11.0977 16.5369 11.6611 16.8318 12.015C16.8436 12.0295 16.8564 12.0435 16.8687 12.056C17.122 12.313 17.2806 12.4317 17.2806 12.4317L18.5255 11.9585Z" fill="#FBA284"/>
<path d="M25.9775 9.7789L23.9671 9.18604C23.9671 9.18604 23.4061 9.73744 25.9851 10.4567L25.9775 9.7789Z" fill="#E68759"/>
<path d="M26.5047 14.0438C26.7423 14.0749 27.0832 14.0972 27.4657 13.822L27.0316 12.302L27.0477 11.6646L27.5816 11.3578L28.6879 12.1118L28.9961 13.3027C29.5585 12.8519 30.0148 12.1994 30.2188 11.3334C30.6202 9.63258 29.7525 8.06752 28.3845 7.88613C27.0159 7.70423 25.8491 9.00189 25.7123 10.8556C25.2592 12.6751 26.0124 13.7919 26.5047 14.0438Z" fill="#FBA284"/>
<path d="M30.7679 10.8733C30.7262 11.3351 30.5724 11.7921 30.1993 12.341C29.9347 12.7296 29.8448 13.2183 29.9196 13.6956C29.921 13.706 29.9224 13.7158 29.9234 13.7262C29.9518 14.0677 29.2753 14.1854 28.7617 14.0299C27.5385 13.6583 27.7141 12.67 27.4987 12.0575C27.4751 11.988 27.4452 11.9238 27.4083 11.8657C27.3373 11.7528 27.2374 11.6636 27.0902 11.6087C26.8876 11.5325 26.6362 11.9471 26.5075 12.0041L26.4313 11.9559C26.3181 11.8839 26.2627 11.7398 26.294 11.6009C26.3726 11.2521 26.4242 10.5194 25.8608 9.57151C26.4346 8.64802 26.6869 7.8717 27.9172 7.70638C29.1011 7.54729 29.6384 8.31064 29.6384 8.31064C29.6384 8.31064 29.6971 8.35314 29.7875 8.43088C30.4696 9.0113 30.8531 9.93117 30.7679 10.8733Z" fill="#4E254F"/>
<path d="M27.3976 12.0283C27.3493 12.3507 27.1576 12.5947 26.9432 12.63C26.9072 12.6362 26.8698 12.6362 26.8324 12.6295C26.5772 12.5833 26.4158 12.2398 26.4722 11.862C26.528 11.4857 26.7789 11.2178 27.0331 11.2603C27.0345 11.2603 27.0359 11.2603 27.0369 11.2608C27.2925 11.3069 27.4539 11.6505 27.3976 12.0283Z" fill="#FBA284"/>
<path d="M27.4991 12.057C27.4352 12.4171 27.1909 12.6705 26.9434 12.6296C27.1578 12.5944 27.3495 12.3503 27.3978 12.0279C27.4063 11.9725 27.4096 11.9181 27.4092 11.8657C27.4456 11.9232 27.4754 11.9875 27.4991 12.057Z" fill="#EF8D72"/>
<path d="M30.5267 11.9095C30.4818 12.0075 30.3592 12.0225 30.2948 11.9385C30.2351 11.8613 30.1693 11.7877 30.0979 11.7167C29.7135 11.3364 29.1677 11.0441 28.5916 10.8228C27.589 10.4367 26.4945 10.2621 26.0013 10.1978C26.0013 10.1978 26.0008 10.1978 25.9998 10.1978C25.8318 10.176 25.7338 10.1667 25.7338 10.1667C25.7021 10.0366 25.7073 9.88063 25.7437 9.70961C25.9643 8.68144 27.3206 7.11948 28.5968 7.54702C31.2136 8.36169 31.3026 10.2149 30.5267 11.9095Z" fill="#FFCC59"/>
<path d="M26.0005 10.1981C25.9545 10.1981 24.5926 10.1867 23.9678 9.18604L25.7444 9.70997C25.7079 9.88099 25.7027 10.037 25.7344 10.1671C25.7344 10.1671 25.8319 10.1759 26.0005 10.1981Z" fill="#FFCC59"/>
<path d="M30.1506 11.6083C30.1317 11.6757 30.1156 11.7161 30.1156 11.7161L30.0976 11.7172C29.5845 11.7721 29.112 11.5664 28.5913 10.8232C28.5913 10.8232 28.6543 10.745 28.7617 10.6532C28.845 10.5817 28.9549 10.5019 29.0822 10.4439C29.2933 10.348 29.5532 10.3122 29.8207 10.4739C30.1269 10.6595 30.2069 10.9543 30.2074 11.2103C30.2074 11.37 30.1766 11.5145 30.1506 11.6083Z" fill="#4E254F"/>
<path d="M30.1506 11.6084C29.7123 11.0119 28.9714 10.7248 28.7617 10.6527C28.845 10.5812 28.9549 10.5014 29.0822 10.4434C29.3804 10.5703 29.8415 10.8123 30.2069 11.2098C30.2074 11.37 30.1766 11.5146 30.1506 11.6084Z" fill="#FFCC59"/>
</svg>
