<svg width="52" height="55" viewBox="0 0 52 55" fill="none" xmlns="http://www.w3.org/2000/svg">
<path d="M26.7422 53.4481V54.8872L51.214 39.4195V37.9805L26.7422 53.4481Z" fill="#DEBE97"/>
<path d="M0 36.5454V37.9845L26.7423 54.8871V53.448L0 36.5454Z" fill="#CAA58B"/>
<path d="M0 36.5458L26.7423 53.4484L51.2141 37.9808L24.4718 21.0781L0 36.5458Z" fill="#EFE1BC"/>
<path opacity="0.5" d="M24.4718 21.0781L0 36.5458L12.4537 41.7896L32.7683 28.9494V26.322L24.4718 21.0781Z" fill="black"/>
<path d="M12.4536 13.7769L11.208 12.9892L31.5226 0.149414L32.7682 0.936628L12.4536 13.7769Z" fill="#EFE1BC"/>
<path d="M12.4536 41.7896L11.208 41.0024V12.9893L12.4536 13.7769V41.7896Z" fill="#CAA58B"/>
<path d="M12.4536 41.7895V13.7768L32.7682 0.936523V28.9492L12.4536 41.7895Z" fill="#DEBE97"/>
<path d="M12.4536 13.7768V41.7895L19.2278 37.5078V9.49463L12.4536 13.7768Z" fill="#FFBB00"/>
<path opacity="0.5" d="M19.4912 10.6196V34.0412C19.4912 35.2609 20.697 36.0231 21.6617 35.4131L26.0089 32.6653C26.1674 32.5649 26.265 32.3796 26.2645 32.1788L26.2035 6.33789C26.2035 6.33789 23.1347 8.83944 19.4912 10.6196Z" fill="black"/>
<path d="M27.4735 30.3354C27.2254 21.3053 26.3159 15.3342 26.3159 6.3042C24.1217 9.14508 19.6085 10.586 19.6035 10.586C19.8251 18.6516 20.5745 23.6579 20.7317 31.7236C20.7317 33.9567 22.3844 34.5276 23.4835 33.8526C23.4296 33.8835 27.498 31.5269 27.498 31.5269L27.4735 30.3354Z" fill="url(#paint0_linear_456_13147)"/>
<path d="M30.0746 28.2788C27.8124 30.054 24.5514 31.2387 23.6535 31.2914C23.8842 31.544 24.4767 32.7759 23.8037 33.5963C23.7182 33.7003 23.6037 33.7793 23.4834 33.8529C24.09 33.5059 28.1414 31.1674 29.1177 30.5682C30.1808 29.9155 30.0746 28.6427 30.0746 28.2788Z" fill="#E8E1D2"/>
<path opacity="0.5" d="M35.9611 31.2681L31.4271 32.356C31.0549 32.4409 30.7943 32.8102 30.8076 33.2263C30.8628 34.9466 32.2175 35.9564 33.5196 35.6588L36.8706 34.8839L35.9611 31.2681Z" fill="black"/>
<path d="M37.0911 38.3796C37.311 38.5014 37.5483 38.7585 37.5766 38.8693C37.6085 38.9942 37.5151 39.1587 37.6458 39.2368C37.7666 39.309 37.9185 39.2918 38.0454 39.3476C38.2687 39.4462 38.1637 39.6529 38.4156 39.7424C38.5093 39.776 38.616 39.791 38.7176 39.8132C38.9284 39.8596 38.9682 39.9609 39.0645 40.0726C39.25 40.2879 39.6931 40.1403 39.8894 40.3642C40.0645 40.5637 40.4205 41.3154 40.886 41.3436C41.1557 41.36 41.3873 41.3695 41.7412 41.5784C42.0827 41.7801 42.047 41.9995 42.4093 42.1985C42.6586 42.3352 42.82 42.2421 43.0661 42.3757L48.617 38.867C48.7689 38.7739 48.9108 38.5114 48.9664 38.3328C48.9896 38.2588 42.4678 34.9805 42.4678 34.9805L37.0898 38.262V38.3796H37.0911Z" fill="#DEBE97"/>
<path d="M37.0913 38.2619C37.3112 38.3836 37.5486 38.6408 37.5768 38.7516C37.6087 38.8765 37.5154 39.0409 37.6461 39.1191C37.7668 39.1913 37.9187 39.174 38.0457 39.2299C38.2689 39.3285 38.1639 39.5352 38.4158 39.6247C38.5095 39.6578 38.6162 39.6733 38.7178 39.6955C38.9286 39.7419 38.9685 39.8432 39.0647 39.9549C39.2502 40.1702 39.6933 40.0226 39.8896 40.2465C40.0647 40.4459 40.4207 41.1977 40.8863 41.2254C41.156 41.2418 41.3875 41.2513 41.7414 41.4603C42.0829 41.662 42.0472 41.8814 42.4095 42.0803C42.6589 42.2171 42.8203 42.1239 43.0663 42.2575L48.6173 38.7489L42.468 34.8623C42.4692 34.8628 37.0942 38.2601 37.0913 38.2619Z" fill="white"/>
<path opacity="0.1" d="M42.4688 34.8628L48.6176 38.7498L48.2035 39.0115L42.0547 35.1244L42.4688 34.8628Z" fill="black"/>
<path d="M42.225 34.1234C42.4071 33.7781 42.7022 33.5919 42.8843 33.7068C43.0665 33.8217 48.9477 37.5393 48.9477 37.5393L48.2884 38.7894C48.2884 38.7894 42.4071 35.0723 42.225 34.9569C42.0428 34.842 42.0428 34.4686 42.225 34.1234Z" fill="white"/>
<path d="M48.2885 38.7895C48.4706 38.9044 48.7656 38.7181 48.9478 38.3729C49.1299 38.0277 49.1299 37.6547 48.9478 37.5398C48.7656 37.4249 48.4706 37.6111 48.2885 37.9564C48.1063 38.3011 48.1063 38.6741 48.2885 38.7895Z" fill="#E6E4DC"/>
<path d="M48.3993 38.5791C48.5201 38.6555 48.7159 38.5319 48.8362 38.303C48.957 38.074 48.957 37.8264 48.8362 37.7506C48.7155 37.6743 48.5197 37.7978 48.3993 38.0268C48.279 38.2557 48.279 38.5028 48.3993 38.5791Z" fill="#E6DBC8"/>
<path d="M48.5103 38.3688C48.5697 38.4065 48.6659 38.3456 48.7253 38.233C48.7846 38.1203 48.7846 37.9986 48.7253 37.9609C48.6659 37.9232 48.5697 37.984 48.5103 38.0967C48.451 38.2094 48.451 38.3311 48.5103 38.3688Z" fill="#E6D2B3"/>
<path opacity="0.5" d="M25.74 34.8776C27.4391 33.8037 29.7042 33.4944 30.7992 34.1867C31.8946 34.879 31.405 36.3108 29.7059 37.3846C28.0072 38.4584 25.742 38.7678 24.6466 38.0755C23.5516 37.3832 24.0408 35.9514 25.74 34.8776Z" fill="black"/>
<path d="M26.7029 9.01281L26.7087 9.66875L26.5829 10.1652L26.3742 9.69691C26.3742 9.69691 26.6161 9.37621 26.4423 9.03144C26.263 8.67531 26.283 8.60989 26.3452 8.36914L26.3996 8.3914L26.7029 9.01281Z" fill="#EBB381"/>
<path d="M26.3353 10.8947C26.3979 11.1886 26.7884 11.0569 26.817 10.7162C26.8469 10.361 26.9564 9.91356 27.039 9.59331C27.0764 9.44886 26.9473 8.96554 26.739 8.67981C26.5307 8.39409 26.4245 8.25918 26.3494 8.36184C26.2743 8.46405 26.7029 9.01278 26.6386 9.29532C26.5842 9.53471 26.4345 9.73322 26.3768 9.9717C26.3452 10.1012 26.3452 10.237 26.3349 10.3705C26.3208 10.5509 26.2979 10.7189 26.3353 10.8947Z" fill="#FFCEA1"/>
<path d="M26.098 9.45901C26.1184 9.24415 26.103 8.96343 26.13 8.88711C26.1569 8.8108 26.254 8.78082 26.3038 8.84941C26.3536 8.918 26.3644 9.01339 26.3623 9.10243C26.3603 9.19146 26.3478 9.2814 26.3582 9.36953C26.3814 9.56576 26.513 9.7202 26.576 9.90463C26.6362 10.0795 26.632 10.2739 26.6275 10.462C26.6246 10.5756 26.6217 10.6905 26.5918 10.7986C26.5619 10.9067 26.425 10.8467 26.3354 10.8949C26.2437 10.5642 26.2117 10.402 26.1196 10.0713C26.093 9.97549 26.0827 9.87238 26.0769 9.77244C26.0711 9.66751 26.0881 9.56349 26.098 9.45901Z" fill="#FFCEA1"/>
<path d="M29.1889 14.6322C27.8175 13.4734 27.5183 11.5315 27.3549 10.5658C27.337 10.4599 27.2648 10.3736 27.169 10.3486C26.9652 10.295 26.6287 10.2387 26.2345 10.5113C25.952 10.7066 25.8976 10.9224 25.915 11.1468C26.0773 13.215 26.2997 14.4174 27.8548 15.7724C29.4772 17.186 30.1162 17.2846 30.1162 17.2846C30.0619 15.955 30.2386 15.5189 29.1889 14.6322Z" fill="#D9B9AE"/>
<path d="M25.6754 18.5905C25.6468 18.4238 25.6605 18.2466 25.7235 18.0781C25.7966 17.8846 25.9227 17.7333 26.0766 17.637C26.1472 17.5921 26.2239 17.5594 26.3036 17.5394C26.4646 17.4985 26.6393 17.5103 26.804 17.5843L29.7463 18.908C29.9878 19.0166 30.1575 19.2364 30.2251 19.4904C30.2334 19.519 30.2401 19.5485 30.245 19.578C30.2546 19.6326 30.2591 19.6875 30.2595 19.7438C30.2595 19.7707 30.2587 19.7979 30.2566 19.8247C30.255 19.8465 30.2525 19.8679 30.2488 19.8892C30.2392 19.9569 30.2222 20.0246 30.1973 20.0914C30.0235 20.5542 29.5405 20.7754 29.1164 20.5851L27.9405 20.0555L27.4617 19.8401L26.1746 19.261C25.9057 19.1397 25.7264 18.8817 25.6754 18.5905Z" fill="#CBBBA0"/>
<path d="M28.6587 19.8464C28.7102 20.3438 29.1201 20.7013 29.5744 20.645C30.0288 20.5886 30.3433 19.9672 30.2919 19.4698L29.9064 16.3791C29.8549 15.8817 29.445 15.5242 28.9906 15.5805C28.5363 15.6369 28.2097 16.0857 28.2612 16.5831L28.6587 19.8464Z" fill="#CBBBA0"/>
<path d="M28.0459 35.0255C28.0459 34.5213 28.5882 34.2433 29.3932 34.4763L30.2118 34.2705C30.4824 34.2024 30.7405 34.4277 30.7405 34.7316V35.9126L30.733 35.9099C30.7438 36.0217 30.6882 36.1348 30.5533 36.2202C30.3035 36.3778 29.8986 36.3778 29.6492 36.2202L28.233 35.3253C28.1027 35.2431 28.0442 35.1341 28.0496 35.0264L28.0459 35.0255Z" fill="black"/>
<path d="M30.1631 29.2303L27.9407 29.2626L27.9399 29.209L27.9059 26.4076L27.8623 22.8549L30.0843 22.8218C30.0843 22.8218 30.3299 23.7325 30.3324 24.8718C30.3353 26.0111 30.1282 26.6874 30.1569 28.7111L30.1631 29.2303Z" fill="#0258BF"/>
<path d="M27.9412 29.2098C27.9881 28.7719 28.2798 28.0255 28.6707 27.9188C28.9943 27.8307 29.3288 27.9924 29.6167 28.1763C29.8213 28.3072 30.0375 29.0103 30.1628 29.2298C30.1831 30.2891 30.4761 32.3791 30.8466 34.6517C30.864 34.8279 30.7748 35.0169 30.5752 35.1763C30.1761 35.4952 29.486 35.5765 29.0342 35.3576C28.808 35.2481 28.6844 35.0841 28.6674 34.9079C28.584 34.6644 27.8944 29.6477 27.9412 29.2098Z" fill="#0258BF"/>
<path d="M30.6141 33.176L30.5431 32.7026C30.5626 32.8802 30.4917 33.0656 30.2921 33.2296C29.8925 33.5566 29.1967 33.647 28.7382 33.4317C28.5166 33.3277 28.3988 33.1705 28.373 33.0002L28.4369 33.4567C28.4627 33.6379 28.571 33.7974 28.8004 33.9055C29.2589 34.1208 29.9548 34.0304 30.3543 33.7033C30.5539 33.5389 30.6419 33.3586 30.6141 33.176Z" fill="#FFC50C"/>
<path opacity="0.2" d="M28.975 25.9907C28.3626 26.8347 28.1522 28.0226 27.9398 29.2091L27.9058 26.4077C28.2908 26.4073 28.6767 26.2601 28.975 25.9907Z" fill="#1D1D1B"/>
<path d="M25.1621 36.8646C25.1621 36.3608 25.7044 36.0823 26.5094 36.3154L27.1816 36.1464C27.5272 36.0596 27.8567 36.3472 27.8567 36.7351V37.7522L27.8492 37.7494C27.86 37.8612 27.8044 37.9743 27.6695 38.0597C27.4197 38.2173 27.0152 38.2173 26.7654 38.0597L25.3492 37.1648C25.219 37.0826 25.1604 36.9736 25.1658 36.8659L25.1621 36.8646Z" fill="black"/>
<path d="M26.175 23.96L25.5322 30.3301L27.7413 30.5972L28.384 24.2271L26.175 23.96Z" fill="#0258BF"/>
<path d="M25.525 30.386C25.6038 29.9535 25.9312 29.6242 26.3287 29.5529C26.6577 29.4938 26.9793 29.6846 27.2527 29.8936C27.4469 30.0417 27.6295 30.371 27.7382 30.6013C27.6581 31.845 27.8573 34.5578 27.9739 36.5615C27.9635 36.7382 27.8461 36.9076 27.6245 37.0276C27.1814 37.2669 26.4888 37.2174 26.0781 36.9167C25.8727 36.7664 25.7764 36.5819 25.7868 36.4052C25.7208 36.154 25.4457 30.818 25.525 30.386Z" fill="#0258BF"/>
<path d="M27.8516 34.5553C27.85 34.7397 27.7595 34.9214 27.5421 35.06C27.1068 35.3366 26.4056 35.3284 25.9757 35.0422C25.7679 34.9037 25.667 34.7447 25.6562 34.5503L25.6832 35.0318C25.6944 35.223 25.7679 35.392 25.984 35.5351C26.4172 35.8217 27.1234 35.8299 27.5616 35.5533C27.7807 35.4147 27.8894 35.2403 27.8815 35.055L27.8516 34.5553Z" fill="#FFC50C"/>
<path d="M30.1894 23.5014C30.3321 24.6711 26.2534 25.913 26.1098 24.5321C26.0571 24.0238 25.5459 17.6402 25.5459 17.6402C25.7368 17.076 26.099 16.6095 27.4255 15.9645C28.1629 15.6061 28.5073 15.5479 29.0471 15.5729C30.0267 15.6179 30.1321 16.8235 30.1558 18.1889C30.157 18.2566 30.1612 18.327 30.1637 18.3993C30.1662 18.4688 30.1686 18.5405 30.1711 18.6137C30.2085 19.6657 30.1894 21.9592 30.1894 23.5014Z" fill="#0258BF"/>
<path d="M26.697 17.0914C27.4053 17.5057 27.2854 18.4673 27.2912 19.3281C27.297 20.1889 26.7451 20.1771 26.1136 19.955C25.9792 19.9091 25.8281 19.8255 25.7119 19.7238C25.5995 18.5246 25.5464 17.6401 25.5464 17.6401C25.6049 17.4675 25.6837 17.3044 25.797 17.1423C26.0335 16.9665 26.336 16.8802 26.697 17.0914Z" fill="#E4C6BB"/>
<path opacity="0.5" d="M26.6251 18.6751L25.6035 18.4575L25.7064 19.6695C25.7836 19.4446 26.3653 18.8886 26.6251 18.6751Z" fill="#1D1D1B"/>
<path d="M26.1831 16.7222C26.4607 16.4855 26.8072 16.2356 27.3868 15.954C27.8183 15.7442 28.1524 15.6547 28.4324 15.6074C28.4885 15.6397 28.5445 15.6733 28.603 15.6992C29.1739 15.9522 29.4212 16.48 29.5196 17.007C29.5677 17.2645 29.4465 17.5248 29.2391 17.6561L28.8329 17.9127C28.432 18.1662 27.8943 18.0281 27.6379 17.6066L27.4976 17.3758C27.2088 16.9034 26.8084 16.6404 26.2914 16.7003C26.2532 16.7049 26.2204 16.7126 26.1831 16.7222Z" fill="#E4C6BB"/>
<path d="M28.3219 13.8949C28.3086 14.1629 28.2949 14.4323 28.2397 14.694C28.1845 14.9551 28.085 15.2109 27.919 15.408C27.7318 15.6297 27.463 15.7628 27.1883 15.7796C27.102 15.7855 27.0157 15.7796 26.9306 15.761C26.846 15.7424 26.7621 15.7124 26.6924 15.6565C26.5837 15.5698 26.5219 15.433 26.4775 15.2913V15.2904C26.4676 15.2586 26.4584 15.2272 26.4501 15.1954C26.3622 14.8643 26.2576 14.6358 26.229 14.2924C26.2128 14.0975 26.3045 13.8459 26.3032 13.6496C26.3016 13.4321 26.258 13.1581 26.2705 12.9415C26.2771 12.8297 26.2854 12.7157 26.3173 12.609C26.4124 12.2932 26.7082 12.0843 27.0099 12.0434C27.3115 12.0025 27.6157 12.1025 27.8908 12.2446C27.9663 12.2837 28.0418 12.3269 28.102 12.3905C28.1592 12.4509 28.2003 12.5272 28.2534 12.5926C28.319 12.673 28.3418 13.4925 28.3219 13.8949Z" fill="#FFCEA1"/>
<path opacity="0.5" d="M27.2402 15.1478C27.2407 15.3095 27.2369 15.4707 27.2332 15.6324C27.2324 15.6674 27.2315 15.7033 27.2183 15.7351C27.2112 15.7524 27.2004 15.7674 27.188 15.7792C27.1017 15.7851 27.0154 15.7792 26.9303 15.7605C26.8456 15.7419 26.7618 15.7119 26.6921 15.6561C26.6174 15.5966 26.5647 15.5134 26.5249 15.4208C26.8075 15.607 27.0104 15.3599 27.01 14.4805C27.0589 14.8807 27.2398 14.7444 27.2402 15.1478Z" fill="#1D1D1B"/>
<path d="M28.7227 13.7573H27.0107V16.183H28.7227V13.7573Z" fill="#FFCEA1"/>
<path d="M28.4759 15.732C28.8111 15.9437 28.8111 16.2871 28.4759 16.4992C28.1406 16.7109 27.5975 16.7109 27.2622 16.4992C26.9269 16.2875 26.9269 15.9437 27.2622 15.732C27.5975 15.5203 28.1406 15.5203 28.4759 15.732Z" fill="#FFCEA1"/>
<path d="M26.6247 13.1869C26.877 13.3468 26.9903 13.6476 27.0172 13.9651C27.0438 14.2826 27.001 14.6037 27.0268 14.9213C27.0525 15.2388 27.1662 15.5749 27.4172 15.7371C27.5927 15.8507 27.8068 15.8616 28.011 15.8588C28.2782 15.8552 28.8184 15.7158 28.8869 15.4296C29.0496 14.7496 29.4682 13.9078 29.2392 12.8994C29.0114 11.8969 28.0811 11.7452 27.7674 11.7224C26.9089 11.6602 25.8641 12.228 26.2699 12.9671C26.3318 13.0806 26.538 13.132 26.6247 13.1869Z" fill="#2F2F2F"/>
<path d="M27.412 13.5238L26.9693 12.916L26.4722 13.1154C26.5929 13.1704 26.7344 13.4775 26.7041 14.0071C26.6738 14.5368 27.4663 14.252 27.4663 14.252L27.412 13.5238Z" fill="#2F2F2F"/>
<path d="M27.0804 13.6637C26.9825 13.6673 26.9103 13.7618 26.8804 13.8526C26.8431 13.9667 26.8447 14.087 26.8464 14.2051C26.8489 14.3555 26.853 14.5113 26.9223 14.643C26.941 14.6785 26.9663 14.713 27.0045 14.728C27.0617 14.7502 27.1314 14.7184 27.1709 14.6698C27.2099 14.6212 27.2248 14.5595 27.2368 14.4995C27.2709 14.3269 27.2866 14.1511 27.2841 13.9767C27.2833 13.9067 27.2788 13.8349 27.2476 13.7732C27.2165 13.7114 27.153 13.661 27.0804 13.6637Z" fill="#FFCEA1"/>
<path d="M25.9502 18.7264L25.4739 18.5343L22.9656 17.5213C22.8598 17.4786 22.7669 17.4146 22.6889 17.336C22.4864 17.1298 22.3872 16.8209 22.4362 16.5152C22.4449 16.4625 22.4578 16.4093 22.4756 16.3571C22.5598 16.1063 22.7353 15.9205 22.9461 15.8288C23.1295 15.7488 23.3395 15.7398 23.5386 15.8202L23.6648 15.871L23.8299 15.9378L25.7909 16.73L26.5237 17.0257C26.905 17.1797 27.1207 17.609 27.0527 18.0324C27.0444 18.085 27.0315 18.1373 27.0141 18.1895C26.8552 18.6597 26.3788 18.8995 25.9502 18.7264Z" fill="#E4C6BB"/>
<path d="M20.889 13.7432C20.7193 13.8709 20.4803 13.8286 20.3068 13.7069C20.1334 13.5847 20.0844 13.4947 19.9549 13.3189C19.8255 13.1432 19.6002 12.9696 19.5052 12.9015C19.4072 12.8311 19.3873 12.6912 19.3778 12.5731C19.3649 12.4182 19.3579 12.2923 19.3836 12.1384C19.3965 12.0625 19.4172 11.988 19.4487 11.9189C19.4732 11.8649 19.5139 11.7695 19.5757 11.7595C19.616 11.7527 19.6583 11.7677 19.696 11.7822C20.2193 11.9862 20.5359 12.2842 20.8342 12.6884C20.9479 12.8429 21.0466 13.0191 21.0728 13.2154C21.0985 13.4116 21.0383 13.631 20.889 13.7432Z" fill="#FFCEA1"/>
<path d="M20.6732 11.8661C20.6711 11.8093 20.6379 11.7498 20.5893 11.7293C20.5329 11.7057 20.4711 11.7534 20.4367 11.8079C20.3516 11.9419 20.4196 12.2081 20.4752 12.3589C20.5308 12.5102 20.5669 12.552 20.674 12.6656C20.7806 12.7791 20.9155 12.8477 21.0051 12.9776C20.8346 12.5606 20.6881 12.2817 20.6732 11.8661Z" fill="#FFCEA1"/>
<path d="M22.5974 17.2328L22.5692 17.1937C22.5692 17.1937 20.6547 14.4855 20.3942 14.1261C20.0203 13.6097 20.941 12.539 21.334 13.0505C21.7269 13.562 23.7294 16.1694 23.7294 16.1694L23.7705 16.2266C23.9493 16.4764 23.9742 16.8058 23.8593 17.0751C23.8111 17.1878 23.7385 17.29 23.6431 17.3722C23.3194 17.6502 22.851 17.588 22.5974 17.2328Z" fill="#E4C6BB"/>
<path d="M37.9878 29.0934L38.099 29.1833V29.0229L37.9878 29.0934Z" fill="#C9C9C9"/>
<path d="M33.4731 30.166C33.4731 30.166 33.4731 32.5781 33.4731 33.4416C33.4731 34.3047 34.5802 35.0047 35.9457 35.0047C37.3113 35.0047 38.4183 34.3051 38.4183 33.4416C38.4183 32.5781 38.4183 30.166 38.4183 30.166H33.4731Z" fill="#E3E3E3"/>
<path d="M35.9463 32.7857V34.5487C37.3118 34.5487 38.4189 33.8491 38.4189 32.9856V31.2227C38.4189 32.0862 37.3118 32.7857 35.9463 32.7857Z" fill="#FFBB00"/>
<path d="M36.6825 33.1039C35.9228 33.276 36.0535 33.8674 36.2667 34.0169C36.4634 34.1545 36.78 34.0737 36.9908 33.9401C36.99 33.7743 36.9891 33.6081 36.9883 33.4423C36.7501 33.5063 36.7501 33.5063 36.6219 33.5299L36.6227 33.6971L36.7763 33.6658C36.7767 33.7253 36.7771 33.8043 36.7771 33.8638C36.5692 33.9928 36.2647 33.857 36.3601 33.5327C36.4406 33.2592 36.8198 33.2551 36.9095 33.2692C36.9232 33.2138 36.9414 33.1402 36.9551 33.0848C36.858 33.0689 36.7111 33.0979 36.6825 33.1039Z" fill="#0258BF"/>
<path d="M37.3609 32.8999C37.299 32.9253 37.2165 32.9599 37.1538 32.983C37.1555 33.2983 37.1571 33.6135 37.1584 33.9292C37.3584 33.8502 37.4787 33.8029 37.7003 33.6658C37.7003 33.6117 37.6999 33.5399 37.6994 33.4859C37.5069 33.5994 37.4953 33.6063 37.3646 33.6658C37.3638 33.4972 37.3629 33.3283 37.3621 33.1597C37.3617 33.0816 37.3613 32.9776 37.3609 32.8999Z" fill="#0258BF"/>
<path d="M38.2328 32.207C38.2029 32.2484 38.1639 32.3047 38.132 32.3438C38.1345 32.9861 38.1345 32.9861 38.1212 33.0551C38.0855 33.2386 37.9901 33.2968 37.9556 33.2559C37.927 33.2218 37.9253 33.1419 37.9245 33.0987C37.9237 32.917 37.9229 32.7353 37.922 32.5541C37.8747 32.5909 37.8117 32.6413 37.7627 32.6758C37.7656 33.3395 37.7656 33.3395 37.7971 33.4153C37.844 33.5275 37.9494 33.5166 38.0598 33.3876C38.2299 33.1887 38.2332 32.8607 38.2345 32.7376C38.2341 32.5604 38.2332 32.3837 38.2328 32.207Z" fill="#0258BF"/>
<path d="M38.4157 31.6836C38.3966 31.8253 38.385 31.9112 38.3032 32.0842C38.3045 32.3995 38.3053 32.7143 38.3065 33.0295C38.3684 32.8855 38.4024 32.8065 38.4194 32.6153C38.4194 32.5626 38.419 32.4922 38.419 32.4395C38.4003 32.5935 38.3991 32.6062 38.3663 32.7084C38.3663 32.6412 38.3659 32.5517 38.3655 32.4844C38.4086 32.3254 38.4086 32.3254 38.4161 32.2441C38.4161 32.1919 38.4157 32.1229 38.4157 32.0706C38.3916 32.231 38.3916 32.231 38.365 32.3109C38.3646 32.2519 38.3646 32.1733 38.3646 32.1142C38.4074 31.9584 38.409 31.9521 38.4165 31.8594C38.4161 31.8062 38.4157 31.7363 38.4157 31.6836Z" fill="#0258BF"/>
<path opacity="0.8" d="M33.4731 30.1969C33.4731 30.3182 33.4731 30.7897 33.4731 31.3516C33.8599 31.9762 34.8208 32.4186 35.9457 32.4186C37.0706 32.4186 38.0316 31.9762 38.4183 31.3516C38.4183 30.8011 38.4183 30.3382 38.4183 30.2055C38.4046 30.1928 38.3905 30.1796 38.3756 30.166H33.5051C33.4939 30.1769 33.4839 30.1869 33.4731 30.1969Z" fill="black"/>
<path d="M38.6013 30.5222C38.6013 31.4494 37.4125 32.2007 35.9462 32.2007C34.4798 32.2007 33.291 31.4494 33.291 30.5222C33.291 30.4982 33.291 30.1661 33.291 30.1661C33.291 30.1661 34.518 28.7725 35.9462 28.7725C37.2968 28.7725 38.6013 30.1661 38.6013 30.1661C38.6013 30.1661 38.6013 30.4491 38.6013 30.5222Z" fill="#E3E3E3"/>
<path d="M37.6436 29.1607C37.7054 29.1934 37.766 29.2275 37.824 29.2643C37.8821 29.3011 37.9365 29.3393 37.9879 29.3783L38.0996 29.3079L37.7552 29.0903L37.6436 29.1607Z" fill="#B1B1B1"/>
<path d="M33.7935 31.3091L34.1378 31.5267V31.8115L33.7935 31.5939V31.3091Z" fill="#C9C9C9"/>
<path d="M38.6013 30.1658C38.6013 31.0924 37.4125 31.8442 35.9462 31.8442C34.4798 31.8442 33.291 31.0929 33.291 30.1658C33.291 29.2386 34.4798 28.4873 35.9462 28.4873C37.4125 28.4878 38.6013 29.2391 38.6013 30.1658Z" fill="#F7F7F7"/>
<path d="M37.6436 28.8761C37.7054 28.9088 37.766 28.9428 37.824 28.9796C37.8821 29.0164 37.9365 29.0546 37.9879 29.0937L38.0996 29.0232L37.7552 28.8057L37.6436 28.8761Z" fill="#F7F7F7"/>
<path d="M33.9051 31.2388C33.9565 31.2778 34.0109 31.316 34.069 31.3528C34.1271 31.3896 34.1872 31.4236 34.2495 31.4564L34.1378 31.5268L33.7935 31.3092L33.9051 31.2388Z" fill="#F7F7F7"/>
<path d="M35.9463 28.6382C34.6114 28.6382 33.5293 29.3223 33.5293 30.1658C33.5293 31.0094 34.6114 31.6935 35.9463 31.6935C37.2811 31.6935 38.3632 31.0094 38.3632 30.1658C38.3632 29.3223 37.2811 28.6382 35.9463 28.6382Z" fill="#C9C9C9"/>
<path d="M35.9463 29.5679C34.8675 29.5679 33.9543 30.0144 33.6431 30.6308C33.9543 31.2472 34.8675 31.6938 35.9463 31.6938C37.0252 31.6938 37.9384 31.2472 38.2496 30.6308C37.9384 30.0144 37.0248 29.5679 35.9463 29.5679Z" fill="#AFCD15"/>
<path d="M33.2792 32.7265C33.1966 32.7265 33.1393 32.6866 33.1078 32.6334C32.9759 32.409 33.2692 31.977 33.8734 31.5064L33.9207 31.476C33.963 31.4501 34.0182 31.4651 34.0422 31.5119C34.0671 31.5587 34.0522 31.6182 34.0095 31.645L33.9692 31.6704C33.2983 32.1937 33.2402 32.4944 33.2576 32.528C33.2759 32.558 33.3198 32.5544 33.4729 32.4767V32.6688C33.3978 32.7097 33.3331 32.7265 33.2792 32.7265Z" fill="#4F4F4F"/>
<path d="M34.1377 31.527V31.8118L34.2489 31.7414V31.4565L34.1377 31.527Z" fill="#E3E3E3"/>
<path opacity="0.7" d="M37.3953 33.6675C37.2571 33.638 37.2027 33.389 37.2027 33.1337C37.2027 32.8171 37.2617 32.1916 37.2617 31.9595C37.2617 31.7283 37.15 31.7224 37.092 31.741C37.0339 31.7614 36.9227 31.8428 36.9222 32.074C36.9218 32.3061 36.9812 32.8916 36.9812 33.2082C36.9812 33.4635 36.9268 33.7488 36.7886 33.8723C36.7193 33.9337 36.6758 34.03 36.6758 34.129C36.6758 34.5524 36.6758 34.5115 36.6758 34.9348C36.9625 34.8767 37.2326 34.7895 37.5081 34.6478C37.5081 34.2244 37.5081 34.2703 37.5081 33.8469C37.5085 33.7483 37.4641 33.682 37.3953 33.6675Z" fill="black"/>
<path d="M37.0955 35.3935L36.9395 35.2949V34.519L37.0955 34.6176V35.3935Z" fill="#CFBD80"/>
<path d="M37.8944 34.8882L37.0952 35.3933V34.6174L37.8944 34.1123V34.8882Z" fill="#DED8AD"/>
<path opacity="0.8" d="M37.4159 34.4146L37.4375 34.401V35.1768L37.4159 35.1905V34.4146ZM37.3475 35.2336L37.3691 35.22V34.4441L37.3475 34.4578V35.2336ZM37.4844 35.1473L37.506 35.1337V34.3578L37.4844 34.3715V35.1473ZM37.279 35.2768L37.3006 35.2631V34.4873L37.279 34.5009V35.2768ZM37.1421 35.3635L37.1637 35.3499V34.574L37.1421 34.5877V35.3635ZM37.2106 35.3204L37.2321 35.3068V34.5309L37.2106 34.5445V35.3204ZM37.8263 34.1552V34.9311L37.8479 34.9175V34.1416L37.8263 34.1552ZM37.7579 34.9742L37.7794 34.9606V34.1848L37.7579 34.1984V34.9742ZM37.6209 35.061L37.6425 35.0474V34.2715L37.6209 34.2851V35.061ZM37.6894 35.0174L37.711 35.0038V34.2279L37.6894 34.2415V35.0174ZM37.5525 35.1042L37.5744 35.0905V34.3147L37.5525 34.3283V35.1042Z" fill="black"/>
<path d="M37.9451 33.6735L37.08 34.2204L36.8887 34.0992L37.7538 33.5522L37.9451 33.6735Z" fill="#8C8C8B"/>
<path d="M37.08 34.2204L36.8887 34.0991V34.5288L37.08 34.6501V34.2204Z" fill="#C4C4C3"/>
<path d="M37.9452 34.1031L37.0801 34.65V34.2203L37.9452 33.6733V34.1031Z" fill="#ABABAA"/>
<path d="M37.9452 33.8647L37.0801 34.4117V34.5234L37.9452 33.9765V33.8647Z" fill="#8C8C8B"/>
<path d="M37.08 34.4114L36.8887 34.2905V34.4023L37.08 34.5231V34.4114Z" fill="#8C8C8B"/>
<path d="M37.6006 33.0123C37.6006 32.7079 37.657 32.0942 37.657 31.8716C37.657 31.6491 37.55 31.6686 37.4948 31.7036C37.4392 31.7385 37.3326 31.8539 37.3326 32.0765C37.3326 32.2991 37.389 32.8415 37.389 33.1458C37.389 33.3916 37.3371 33.68 37.2043 33.8535C37.138 33.9403 37.0952 34.0529 37.0952 34.1483V34.1874L37.8944 33.6823V33.6432C37.8944 33.5483 37.852 33.4888 37.7852 33.486C37.6525 33.481 37.6006 33.258 37.6006 33.0123ZM37.4948 31.8071C37.5326 31.7835 37.5628 31.8026 37.5628 31.8503C37.5628 31.898 37.5321 31.9557 37.4948 31.9797C37.457 32.0034 37.4267 31.9843 37.4267 31.9366C37.4263 31.8889 37.457 31.8312 37.4948 31.8071Z" fill="#DE4343"/>
<path d="M37.7856 33.4867C37.8275 33.4886 37.8599 33.5126 37.8781 33.554C37.8773 33.5494 37.8748 33.5431 37.8694 33.5344C37.8179 33.4518 37.7213 33.4095 37.6665 33.3945C37.6955 33.4504 37.7345 33.4845 37.7856 33.4867Z" fill="#C92C2C"/>
<path d="M37.0954 34.1486C37.0954 34.0532 37.1377 33.9405 37.2045 33.8538C37.3373 33.6807 37.3892 33.3918 37.3892 33.1461C37.3892 32.8417 37.3327 32.2993 37.3327 32.0768C37.3327 31.8542 37.4398 31.7388 37.495 31.7038C37.5327 31.6802 37.5941 31.6634 37.6294 31.7247C37.5817 31.6402 37.4709 31.5948 37.4219 31.5853C37.3929 31.5789 37.3614 31.5907 37.3385 31.6052C37.2829 31.6402 37.1763 31.7556 37.1763 31.9782C37.1763 32.2008 37.2327 32.7431 37.2327 33.0475C37.2327 33.2932 37.1809 33.5817 37.0481 33.7552C36.9817 33.842 36.939 33.9546 36.939 34.05V34.0891L37.095 34.1877V34.1486H37.0954Z" fill="#C92C2C"/>
<path d="M37.4948 31.8075C37.457 31.8311 37.4268 31.8892 37.4268 31.9369C37.4268 31.9846 37.4575 32.0037 37.4948 31.9801C37.5326 31.9565 37.5629 31.8983 37.5629 31.8506C37.5629 31.8029 37.5326 31.7839 37.4948 31.8075Z" fill="#C92C2C"/>
<path opacity="0.8" d="M37.9175 34.7145C37.9167 34.6841 37.903 34.6541 37.8793 34.6382C37.7669 34.5633 37.6416 34.5796 37.5121 34.6423C37.3685 34.7123 37.4001 34.8549 37.193 34.9785C37.1341 35.0139 37.0831 34.933 37.0507 34.9099C36.9549 34.849 36.9121 34.9203 36.9138 34.9816C36.9158 35.0702 36.9042 35.3287 36.908 35.4032C36.9113 35.4777 36.9578 35.5122 36.9715 35.5672C37.0017 35.6885 36.9972 35.8356 37.1088 35.9088C37.271 36.0151 37.3051 36.0741 37.6051 36.0728C37.9046 36.0709 37.9279 36.3344 38.3167 36.1064C38.7054 35.8783 38.9897 35.9687 39.02 35.4468C39.0407 35.0861 38.8482 34.9576 38.6229 34.8926C38.3884 34.8249 38.1826 34.9971 37.9967 34.9862C37.9615 34.9839 37.9233 34.9553 37.9204 34.9171C37.9129 34.8358 37.9192 34.7609 37.9175 34.7145Z" fill="#AFCD15"/>
<path opacity="0.5" d="M36.9139 34.9816C36.9131 34.9475 36.9276 34.9126 36.9559 34.8967L36.9393 34.873L36.6758 34.9303C36.6878 35.1869 36.8002 35.2528 36.9372 35.4945C36.9231 35.469 36.9102 35.4413 36.9081 35.4032C36.9048 35.3287 36.9164 35.0702 36.9139 34.9816Z" fill="black"/>
<path opacity="0.2" d="M36.9849 35.6308C37.001 35.709 37.0778 35.8425 37.1044 35.8643C37.1322 35.887 37.2454 35.9706 37.3309 35.9997C37.4164 36.0288 37.5097 36.0301 37.6479 36.0347C37.7861 36.0392 37.9405 36.1419 38.0421 36.1419C38.1438 36.1419 38.2218 36.1173 38.3479 36.0442C38.4873 35.9633 38.6263 35.9088 38.733 35.8666C38.8396 35.8243 38.9948 35.6994 39.0155 35.4937C38.9711 35.9633 38.6923 35.8857 38.316 36.1064C37.9272 36.3345 37.9043 36.071 37.6043 36.0728C37.3044 36.0746 37.2703 36.0156 37.1081 35.9088C37.0168 35.848 37.004 35.7362 36.9849 35.6308Z" fill="black"/>
<path opacity="0.3" d="M36.9834 35.6201L36.9838 35.6218C36.9834 35.6209 36.9834 35.6201 36.9834 35.6201Z" fill="black"/>
<path opacity="0.2" d="M37.9194 34.9112C37.9136 34.8327 37.919 34.76 37.9177 34.7145C37.9169 34.6841 37.9032 34.6541 37.8796 34.6382C37.7671 34.5633 37.6418 34.5796 37.5123 34.6423C37.3688 34.7123 37.4003 34.8549 37.1933 34.9785C37.1343 35.0139 37.0833 34.933 37.0509 34.9099C36.9551 34.849 36.9123 34.9203 36.914 34.9816C36.9157 35.0439 36.9103 35.1901 36.9082 35.2973C36.9082 35.3087 36.9277 35.3569 36.9796 35.3896C37.0738 35.4491 37.1397 35.43 37.209 35.3996C37.3028 35.3587 37.3534 35.3323 37.5356 35.2179C37.765 35.0748 37.887 34.9594 37.9194 34.9112Z" fill="black"/>
<defs>
<linearGradient id="paint0_linear_456_13147" x1="19.5525" y1="9.60083" x2="29.8626" y2="30.7532" gradientUnits="userSpaceOnUse">
<stop offset="0.8427" stop-color="#FFBB00"/>
<stop offset="0.9134" stop-color="#FBAF00"/>
<stop offset="1" stop-color="#F39B00"/>
</linearGradient>
</defs>
</svg>
