<svg width="31" height="56" viewBox="0 0 31 56" fill="none" xmlns="http://www.w3.org/2000/svg">
<path opacity="0.4" fill-rule="evenodd" clip-rule="evenodd" d="M15.8995 38.7646C22.6293 38.7646 28.0868 41.9325 28.0868 45.8391C28.0868 49.7458 22.629 52.914 15.8995 52.914C9.16976 52.914 3.71191 49.7458 3.71191 45.8391C3.71191 41.9325 9.16976 38.7646 15.8995 38.7646Z" fill="#D2D2E1"/>
<path fill-rule="evenodd" clip-rule="evenodd" d="M0.596371 53.1981V18.1006L0 17.7266L0.00129223 52.8212L0.596371 53.1981Z" fill="#AFAFAF"/>
<path fill-rule="evenodd" clip-rule="evenodd" d="M27.4015 1.19189L14.0305 9.6263V11.5743L20.3456 7.58307V28.5818L14.0305 32.5745V44.7231L27.4048 36.2866L27.4015 1.19189ZM14.0309 9.6263L0.596191 18.101V53.1982L14.0309 44.7235V32.5749L7.71579 36.5675V15.5659L14.0309 11.5747V9.6263Z" fill="#92452E"/>
<path fill-rule="evenodd" clip-rule="evenodd" d="M27.4017 1.19172L0.596046 18.1005L0 17.7265L26.7879 0.815918L27.4017 1.19172Z" fill="#E3E3E3"/>
<path fill-rule="evenodd" clip-rule="evenodd" d="M20.3463 7.58301L19.7447 7.96306V28.2017L7.71582 35.8067V36.5671L20.3463 28.5818V7.58301Z" fill="#E3E3E3"/>
<path fill-rule="evenodd" clip-rule="evenodd" d="M20.3462 7.58301L19.7446 7.96306V28.1901L20.3462 28.5634V7.58301Z" fill="#AFAFAF"/>
<path fill-rule="evenodd" clip-rule="evenodd" d="M22.792 29.8276C22.8819 29.662 22.2464 29.312 22.1013 29.5629C21.9513 30.0519 21.6678 30.065 21.5808 30.2964C21.5395 30.3976 21.6898 31.524 21.7467 31.7452C21.7867 31.6832 21.8769 31.6609 21.9687 31.616C22.0528 31.4794 22.1998 31.5424 22.2745 31.5095C22.4006 31.2391 22.4804 31.4147 22.5308 31.3598C22.6708 31.0392 22.6676 30.5555 22.6423 30.409C22.5816 30.0604 22.5877 30.2034 22.792 29.8276Z" fill="#D99E72"/>
<path fill-rule="evenodd" clip-rule="evenodd" d="M7.78107 25.9119C7.54123 25.1723 9.54335 22.4677 10.1478 21.679C10.5186 21.5201 10.9042 21.8088 10.7704 22.167C10.6892 22.5583 9.94675 24.942 9.26181 26.2159C8.86973 26.8921 8.22843 26.3751 7.78107 25.9119Z" fill="#CB6117"/>
<path fill-rule="evenodd" clip-rule="evenodd" d="M10.5768 22.4089C10.4708 22.5629 9.93422 22.0522 10.091 21.8098C10.4472 21.4723 10.3505 21.1803 10.5135 21.0044C10.5833 20.9241 11.2802 20.4291 11.489 20.4025C11.6167 20.3293 11.8921 21.2645 11.8329 21.4202C11.6755 21.6672 11.1451 22.0066 11.0119 22.0363C10.6938 22.1074 10.817 22.0593 10.5768 22.4089Z" fill="#D99E72"/>
<path fill-rule="evenodd" clip-rule="evenodd" d="M11.809 21.1875L12.3572 21.0512C12.4962 21.0166 12.5172 21.1981 12.3821 21.248L11.8617 21.4416C11.7317 21.49 11.6642 21.2236 11.809 21.1875Z" fill="#D99E72"/>
<path fill-rule="evenodd" clip-rule="evenodd" d="M11.6458 21.1145C11.6251 21.0413 11.6629 20.9627 11.7295 20.9401L12.3624 20.7256C12.5227 20.6711 12.5774 20.8707 12.4212 20.9383L11.8048 21.2062C11.7399 21.2345 11.6665 21.1878 11.6458 21.1145Z" fill="#D99E72"/>
<path fill-rule="evenodd" clip-rule="evenodd" d="M11.5526 20.8672C11.5348 20.7929 11.5736 20.7094 11.648 20.6889L12.3539 20.495C12.5317 20.4461 12.5909 20.6606 12.4157 20.72L11.7233 20.9546C11.6502 20.9801 11.5733 20.9405 11.5526 20.8672Z" fill="#D99E72"/>
<path fill-rule="evenodd" clip-rule="evenodd" d="M11.5251 20.3841L12.1732 20.2071C12.3357 20.1625 12.3936 20.3816 12.2333 20.4357L11.6004 20.6502C11.4359 20.7057 11.3673 20.4276 11.5251 20.3841Z" fill="#D99E72"/>
<path fill-rule="evenodd" clip-rule="evenodd" d="M4.85651 31.4259C4.46378 30.3059 4.43824 29.2992 5.86242 27.5175C6.09483 27.2266 6.63043 26.2506 8.16806 25.5882C8.69041 25.5503 9.36985 26.3508 8.80775 27.067C8.10277 27.9655 5.68399 33.7869 4.85651 31.4259Z" fill="#CB6117"/>
<path fill-rule="evenodd" clip-rule="evenodd" d="M24.1767 19.2072C25.918 18.7617 24.7498 25.3263 24.5168 25.9027C24.0788 26.723 23.0696 26.3192 23.0855 25.3744C23.132 24.2399 22.3818 19.2946 24.1767 19.2072Z" fill="#CB6117"/>
<path fill-rule="evenodd" clip-rule="evenodd" d="M24.5111 25.7156C24.6841 26.4775 23.3203 29.433 22.6322 30.0968C22.2491 30.2154 21.7342 30.0501 21.8994 29.7079C22.0148 29.3271 22.6386 26.4039 23.0853 25.3741C23.4176 25.0128 24.1071 25.2067 24.5111 25.7156Z" fill="#DE7E32"/>
<path fill-rule="evenodd" clip-rule="evenodd" d="M23.4076 10.6079L22.8419 10.9653V29.0139L17.4316 32.4344V13.3104H16.8659V32.7921L12.126 35.789V36.4968L23.4076 29.3642V10.6079Z" fill="#EEF1F4"/>
<path fill-rule="evenodd" clip-rule="evenodd" d="M10.8174 16.6453L11.4671 17.0483L24.0824 9.06052L23.4491 8.65039L10.8174 16.6453Z" fill="#EEF1F4"/>
<path fill-rule="evenodd" clip-rule="evenodd" d="M20.7555 11.1627L14.7776 14.941L11.4521 17.0426V38.0442L14.7776 35.9419L20.7555 32.1622L24.0826 30.0588V9.06006L20.7555 11.1627ZM17.4285 33.1445L14.7773 34.8208L12.1261 36.4971V17.7379L14.7773 16.0624L17.4285 14.3868V33.1445ZM23.408 29.3642L20.7555 31.0412L18.1031 32.7181V13.9604L20.7555 12.2841L23.408 10.6079V29.3642Z" fill="#C7CAD1"/>
<path fill-rule="evenodd" clip-rule="evenodd" d="M10.8169 16.645L11.4517 17.0424V38.044L10.8169 37.6466V16.645Z" fill="#A4AAB2"/>
<path fill-rule="evenodd" clip-rule="evenodd" d="M25.5238 40.6696C25.5238 40.6696 25.2788 41.7485 25.7579 41.5143C25.9615 41.4148 25.9431 41.9134 25.9166 42.078C25.881 42.2999 25.5979 42.4771 25.3102 42.6233C24.973 42.7549 24.5835 43.1753 24.4614 43.2723C24.1255 43.5384 23.3869 43.5189 23.0414 43.3845C22.84 43.3063 22.7104 43.169 22.7476 42.9959C22.7718 42.9361 22.756 42.9128 22.8355 42.8473C22.9163 42.7808 23.449 42.3331 23.672 42.2004C24.2425 41.8607 24.4727 41.1862 24.5221 41.032C24.5726 40.878 24.7364 40.4081 24.7364 40.4081C24.7364 40.4081 24.9947 40.3126 25.5238 40.6696Z" fill="#929292"/>
<path fill-rule="evenodd" clip-rule="evenodd" d="M25.6391 40.5307C25.5857 41.0346 25.9801 40.9436 25.8792 41.8301C25.8421 42.1578 25.2741 42.3442 25.0505 42.4823C24.733 42.6783 24.6742 42.8248 24.5336 43.007C24.4043 43.1751 24.2146 43.2509 23.9683 43.2877C23.3952 43.3729 22.7199 43.282 22.7936 42.7413C22.8221 42.5329 23.5675 42.1765 23.8244 42.0098C24.4292 41.6404 24.4347 40.7833 24.4838 40.6294C24.5343 40.4751 24.7366 40.4093 24.7366 40.4093C24.7366 40.4093 25.1099 40.1736 25.6391 40.5307Z" fill="#3E3E3D"/>
<path fill-rule="evenodd" clip-rule="evenodd" d="M30.1077 43.0758C30.1077 43.0758 29.9836 44.1792 30.4332 43.8833C30.6242 43.7574 30.6611 44.2553 30.6533 44.4219C30.6426 44.647 30.3811 44.8604 30.1119 45.0437C29.7919 45.2188 29.4518 45.6881 29.341 45.8006C29.0371 46.1092 28.3018 46.1877 27.9439 46.1C27.7354 46.049 27.5916 45.9301 27.6094 45.7532C27.6268 45.6905 27.6084 45.6697 27.6802 45.5939C27.7529 45.5171 28.2323 45.0026 28.4391 44.8409C28.968 44.4283 29.1218 43.728 29.1538 43.5688C29.1871 43.4092 29.2977 42.9212 29.2977 42.9212C29.2977 42.9212 29.5427 42.7913 30.1077 43.0758Z" fill="#929292"/>
<path fill-rule="evenodd" clip-rule="evenodd" d="M30.2064 42.9221C30.2093 43.4296 30.5904 43.2866 30.5885 44.1801C30.5878 44.5103 30.0448 44.7707 29.8379 44.9374C29.5444 45.1741 29.5021 45.3274 29.3831 45.5269C29.2732 45.711 29.0935 45.8115 28.853 45.8805C28.2935 46.0411 27.6131 46.0404 27.6267 45.4937C27.6318 45.2828 28.3323 44.8305 28.5689 44.631C29.1898 44.1759 28.9691 43.3146 29.0011 43.155C29.0344 42.9954 29.2971 42.9211 29.2971 42.9211C29.2971 42.9211 29.6417 42.6376 30.2064 42.9221Z" fill="#3E3E3D"/>
<path fill-rule="evenodd" clip-rule="evenodd" d="M28.5182 29.804C27.95 31.1402 26.1954 35.8823 26.3693 36.9383C25.7898 37.3236 24.6329 37.726 24.6222 36.8134C24.5818 33.7209 24.6516 30.4682 25.2205 27.6387C25.2205 27.6387 26.9376 27.8421 28.2328 28.3096C28.2085 28.603 28.566 29.6915 28.5182 29.804Z" fill="#314A8D"/>
<path fill-rule="evenodd" clip-rule="evenodd" d="M26.3274 35.9897C25.7863 34.0799 25.1269 34.9345 24.6133 35.8521C24.6391 37.3235 24.5939 40.4138 24.3359 41.3222C24.3372 41.9389 25.901 42.083 25.9324 41.8243C26.232 39.1629 26.5094 38.3985 26.3274 35.9897Z" fill="#314A8D"/>
<path fill-rule="evenodd" clip-rule="evenodd" d="M29.5293 38.1165C29.7126 39.7677 28.1191 40.1513 27.6332 38.7779C26.9115 36.7372 26.3487 31.4048 26.2207 28.5837C27.9022 28.2886 29.0332 28.2543 29.5387 27.9326C29.9282 30.2908 29.1043 35.3932 29.5293 38.1165Z" fill="#4165BD"/>
<path fill-rule="evenodd" clip-rule="evenodd" d="M29.1897 37.4674C28.0794 35.8799 27.8256 37.7229 27.6333 38.7781C28.167 40.1136 28.9757 42.9916 28.9776 43.9704C29.4631 44.545 30.5512 44.3313 30.577 43.9307C30.3404 41.9912 30.576 40.1546 29.1897 37.4674Z" fill="#4165BD"/>
<path fill-rule="evenodd" clip-rule="evenodd" d="M26.3512 19.5339C26.4666 19.53 27.9625 19.9168 28.6585 20.3548C29.1423 20.7239 28.8712 21.9221 28.8983 22.0697C28.9895 22.5481 29.1692 24.8429 29.2206 25.511C29.2723 26.1788 29.687 27.4594 29.2565 27.8653C27.8051 27.8674 25.4788 28.141 25.1139 27.2198C25.0754 25.8362 24.4309 25.2761 23.8691 23.0619C23.734 22.5293 22.9889 20.772 23.5646 19.864C23.711 19.6319 24.0633 19.4128 24.2941 19.3644C25.1158 19.191 26.2077 19.5392 26.3512 19.5339Z" fill="#CB6117"/>
<path fill-rule="evenodd" clip-rule="evenodd" d="M25.1297 19.6993C24.2712 19.6462 23.8921 21.2121 24.6381 23.8795C24.396 24.0586 24.4186 23.9298 24.0808 23.9262C23.4745 21.7163 23.1864 20.1986 24.2547 19.5581C24.7383 19.6122 24.6643 19.4841 25.1297 19.6993Z" fill="#4165BD"/>
<path fill-rule="evenodd" clip-rule="evenodd" d="M29.649 27.8733C28.0021 28.7806 25.477 29.1065 25.2013 27.7335C25.2113 27.5774 25.0956 27.1956 25.1056 27.0396C26.085 27.8347 28.4815 28.1372 29.5718 27.4483C29.5976 27.5898 29.6231 27.7317 29.649 27.8733Z" fill="#314A8D"/>
<path fill-rule="evenodd" clip-rule="evenodd" d="M28.1699 20.488C29.67 19.4221 30.7694 26.1353 30.7286 26.7642C30.5709 27.6984 29.5398 27.4652 29.2618 26.5706C28.6463 25.6307 26.5085 21.2368 28.1699 20.488Z" fill="#DE7E32"/>
<path fill-rule="evenodd" clip-rule="evenodd" d="M28.5875 20.3117C27.7991 20.2399 27.1154 21.3379 27.15 24.1954C26.8795 24.3822 26.5142 24.3719 26.1997 24.362C26.2508 22.3503 26.6661 20.0059 27.6982 19.9175C27.8919 19.9536 28.2064 20.0735 28.5875 20.3117Z" fill="#4165BD"/>
<path fill-rule="evenodd" clip-rule="evenodd" d="M28.5697 27.8054C27.5479 26.9024 27.3197 25.2785 27.1811 23.0275C25.8561 23.5084 24.6472 23.2936 23.6685 22.2349C24.0266 23.7625 24.3014 25.0785 25.0261 26.9416C25.5352 27.6182 26.5317 28.4583 28.5697 27.8054Z" fill="#314A8D"/>
<path fill-rule="evenodd" clip-rule="evenodd" d="M30.4089 27.4491C29.9295 28.0326 26.4489 28.1614 25.561 27.9098C25.2565 27.6288 25.2959 26.7424 25.6473 26.7003C26.0003 26.5913 28.8661 26.0566 29.895 25.8843C30.6248 25.9384 30.567 26.7973 30.4089 27.4491Z" fill="#DE7E32"/>
<path fill-rule="evenodd" clip-rule="evenodd" d="M26.3914 23.9249C25.6382 23.989 24.9333 23.8686 24.2861 23.5254L24.4484 24.341C25.1194 24.7314 25.7872 24.8184 26.5413 24.7537L26.3914 23.9249Z" fill="#4165BD"/>
<path fill-rule="evenodd" clip-rule="evenodd" d="M26.191 18.4629C26.2353 18.8833 26.2925 19.4527 26.5246 19.7902C26.5592 20.1179 26.3183 20.4166 25.9602 20.6388C25.188 21.1179 24.589 20.7266 24.7086 20.2032C24.718 20.0118 24.9401 19.8104 24.9805 19.6186C25.0241 19.4056 25.39 19.3936 25.3674 19.1791L26.191 18.4629Z" fill="#D99E72"/>
<path fill-rule="evenodd" clip-rule="evenodd" d="M23.7653 16.9874C23.7879 17.2348 23.7281 17.4751 23.6964 17.7203C23.6418 17.9234 23.7928 18.009 23.8063 18.1923C23.8115 18.2642 23.7381 18.3657 23.7381 18.4659C23.7378 18.7497 23.8206 19.1899 23.912 19.456C23.9628 19.6549 24.009 19.9486 24.3148 20.1283C24.7773 20.4143 25.2089 19.9029 25.6407 19.6963C26.069 19.4921 25.8337 18.9079 25.9436 18.497C26.4617 16.549 24.1147 15.6802 23.7653 16.9874Z" fill="#ECC19A"/>
<path fill-rule="evenodd" clip-rule="evenodd" d="M26.5904 18.0649L26.5811 18.1056C26.5843 18.0922 26.5875 18.0784 26.5904 18.0649Z" fill="#262424"/>
<path fill-rule="evenodd" clip-rule="evenodd" d="M25.3096 17.9494C25.4376 18.0046 25.4687 18.0166 25.5181 18.1893C25.5598 18.3354 25.6584 18.3383 25.6545 18.6422C25.6613 18.6879 26.2144 18.155 26.2034 18.5541C26.1911 18.9968 26.3585 19.4321 26.4313 19.6224C26.825 19.4777 26.633 18.386 26.6385 18.1079C26.7497 17.4504 26.5399 16.7101 26.2525 16.4766C25.4448 16.6078 25.2747 16.6199 24.9987 17.1394C24.9544 17.3959 25.1448 17.8782 25.3096 17.9494Z" fill="#643F42"/>
<path fill-rule="evenodd" clip-rule="evenodd" d="M26.2371 18.4357C26.1954 18.7121 26.0716 18.9188 25.9614 18.8983C25.8509 18.8784 25.8247 18.629 25.7846 18.3993C25.7032 18.0691 25.9605 17.8699 26.1124 17.9018C26.2229 17.9251 26.2785 18.1611 26.2371 18.4357Z" fill="#ECC19A"/>
<path fill-rule="evenodd" clip-rule="evenodd" d="M24.2435 19.0898C24.4397 19.1471 24.5964 19.2993 24.7729 19.5155C24.9785 19.7675 25.1366 19.3538 25.2998 19.0155C25.4007 18.806 25.6525 18.8531 25.6486 18.5151L25.7847 18.3994C25.9117 18.8488 25.9783 19.1641 25.9751 19.3991C25.9599 20.398 25.017 21.1511 24.2438 20.7052L24.2435 20.7049V19.6362C24.3799 19.7172 24.6058 19.7416 24.4781 19.604C24.428 19.5498 24.3501 19.483 24.2435 19.4433V19.0898ZM23.8339 19.214C23.8734 19.1255 23.8886 19.0502 24.1051 19.0661C24.1539 19.0689 24.1995 19.0771 24.2435 19.0898V19.4433C24.2134 19.4323 24.1811 19.4231 24.1462 19.4171C23.822 19.3612 24.0269 19.6907 24.1627 19.5622C24.1779 19.5895 24.2076 19.6146 24.2435 19.6362V20.7049C24.0052 20.5668 23.8171 19.8765 23.8042 19.4663V19.3807C23.8068 19.3106 23.8165 19.2529 23.8339 19.214Z" fill="#643F42"/>
<path fill-rule="evenodd" clip-rule="evenodd" d="M26.2522 16.4764C26.1627 15.9066 24.9392 15.8221 24.1392 16.2474C23.7836 16.3589 23.5823 16.3292 23.3621 16.1133C23.176 16.7839 23.2784 17.3271 24.0403 17.493C24.1725 17.0302 24.7175 17.3327 25.1086 17.0712C25.4467 16.89 25.9144 16.6575 26.2522 16.4764Z" fill="#643F42"/>
<path fill-rule="evenodd" clip-rule="evenodd" d="M25.6242 27.6714C25.8003 27.676 25.7677 26.8982 25.4968 26.8823C25.034 26.9782 24.8846 26.7142 24.6577 26.7446C24.5569 26.7546 23.7698 27.0451 23.6211 27.2079C23.4892 27.2723 23.988 28.089 24.1363 28.135C24.4111 28.1534 24.9832 27.9089 25.0873 27.813C25.3359 27.5847 25.2247 27.6605 25.6242 27.6714Z" fill="#ECC19A"/>
<path fill-rule="evenodd" clip-rule="evenodd" d="M23.9846 27.9705L23.5466 28.3562C23.4354 28.4542 23.5525 28.5848 23.6721 28.4999L24.1336 28.1732C24.249 28.0919 24.1003 27.8686 23.9846 27.9705Z" fill="#D99E72"/>
<path fill-rule="evenodd" clip-rule="evenodd" d="M24.0338 27.7846C23.9944 27.7213 23.9149 27.705 23.857 27.7485L23.3104 28.1583C23.1721 28.262 23.2807 28.4326 23.4261 28.3409L24.0009 27.9782C24.0616 27.94 24.0736 27.848 24.0338 27.7846Z" fill="#D99E72"/>
<path fill-rule="evenodd" clip-rule="evenodd" d="M23.9147 27.5511C23.8727 27.4898 23.7886 27.4711 23.7279 27.5224L23.1509 28.0079C23.0054 28.13 23.1228 28.314 23.2737 28.2007L23.8717 27.7524C23.9351 27.7046 23.9545 27.6144 23.9147 27.5511Z" fill="#D99E72"/>
<path fill-rule="evenodd" clip-rule="evenodd" d="M23.5857 27.228L23.0565 27.6742C22.9237 27.786 23.0443 27.9715 23.1829 27.8678L23.7295 27.458C23.8714 27.3511 23.715 27.1194 23.5857 27.228Z" fill="#D99E72"/>
<path fill-rule="evenodd" clip-rule="evenodd" d="M25.0094 26.9517C24.9554 26.8452 24.7967 26.7461 24.6102 26.7111C24.4237 26.6761 24.2107 26.6693 24.1328 26.6623C23.9314 26.6435 23.9499 26.6845 23.7482 26.6665C23.7317 26.7918 23.7504 26.9627 24.1102 26.9613C24.1797 26.9988 24.1852 27.0635 24.4538 27.0331C24.7285 27.5232 25.1209 27.1541 25.0094 26.9517Z" fill="#ECC19A"/>
<path fill-rule="evenodd" clip-rule="evenodd" d="M8.19187 51.9417C8.5442 52.2138 8.32989 53.0312 7.95817 53.1685C7.11485 53.4807 6.47968 53.8685 5.92307 54.0663C5.72589 54.1364 5.25656 54.2008 5.05809 53.8005C5.00863 53.6463 5.31797 53.078 5.31797 53.078C6.30966 53.1951 7.75324 51.677 8.19187 51.9417Z" fill="#9B9B9A"/>
<path fill-rule="evenodd" clip-rule="evenodd" d="M7.03649 52.0071C7.47254 52.1278 7.84361 51.7923 7.98939 51.8178C8.10543 51.8365 8.26673 51.9678 8.30035 52.1664C8.35691 52.4986 8.18916 52.8323 7.91829 52.9802C7.62738 53.1391 7.2954 53.0662 6.80247 53.2835C6.5316 53.4031 5.86832 53.826 5.61846 53.8299C5.36762 53.8341 5.15494 53.6551 5.13037 53.4512C5.14847 52.2194 6.2006 51.776 7.03649 52.0071Z" fill="#3E3E3D"/>
<path fill-rule="evenodd" clip-rule="evenodd" d="M7.85093 46.8255C7.92269 46.5952 8.21457 45.7048 8.25465 45.3814C9.13515 41.6612 9.32165 40.4888 9.04302 38.1799C8.3374 37.9191 6.65366 38.7121 6.01818 38.0171C4.70778 39.4524 6.3676 44.6355 5.97164 46.4377C6.25705 46.9625 7.22191 47.4285 7.85093 46.8255Z" fill="#314A8D"/>
<path fill-rule="evenodd" clip-rule="evenodd" d="M5.18311 53.0273C5.78497 53.6458 6.41658 53.4427 6.78086 52.5651C6.79509 51.1677 7.45384 48.4872 7.89215 46.6906C8.1488 45.5812 6.5213 45.002 5.95726 46.4376C5.25939 48.0335 5.25228 52.3801 5.18311 53.0273Z" fill="#314A8D"/>
<path fill-rule="evenodd" clip-rule="evenodd" d="M11.7304 53.3772C12.0828 53.6494 11.8685 54.4668 11.4967 54.6041C10.6534 54.9162 10.0183 55.304 9.46164 55.5018C9.26446 55.5719 8.79513 55.6363 8.59666 55.2361C8.5472 55.0818 8.85686 54.5135 8.85686 54.5135C9.84855 54.631 11.2918 53.1125 11.7304 53.3772Z" fill="#9B9B9A"/>
<path fill-rule="evenodd" clip-rule="evenodd" d="M10.5749 53.4427C11.0135 53.5531 11.382 53.2279 11.5278 53.2534C11.6442 53.2721 11.8051 53.4034 11.8388 53.6019C11.8953 53.9342 11.7276 54.2679 11.4567 54.4158C11.1658 54.5744 10.8338 54.5018 10.3409 54.7191C10.0697 54.8387 9.40673 55.2616 9.15655 55.2655C8.90572 55.2697 8.69302 55.0907 8.66846 54.8868C8.68688 53.655 9.60229 53.1978 10.5749 53.4427Z" fill="#3E3E3D"/>
<path fill-rule="evenodd" clip-rule="evenodd" d="M10.5159 47.7548C10.5596 47.5187 10.6672 46.983 10.6682 46.6592C11.0974 42.882 10.9866 40.8239 10.429 38.5794C9.69297 38.4074 7.58547 39.0981 6.86692 38.4888C5.37777 40.5543 8.81474 44.9603 8.45497 47.6015C8.80342 48.0853 9.96061 48.4257 10.5159 47.7548Z" fill="#4165BD"/>
<path fill-rule="evenodd" clip-rule="evenodd" d="M8.74388 54.2434C9.43238 54.7855 9.94923 54.3959 10.1755 53.4794C9.97703 52.0887 10.3934 49.3572 10.553 47.5189C10.6377 46.3855 8.79495 46.1066 8.4562 47.6017C8.2684 48.997 8.71382 53.5916 8.74388 54.2434Z" fill="#4165BD"/>
<path fill-rule="evenodd" clip-rule="evenodd" d="M8.45607 29.6649C8.57599 29.7014 9.32816 29.9303 9.85763 30.6787C10.2445 31.2304 10.197 32.6119 10.1815 32.7747C10.1333 33.2988 10.2494 35.8788 10.3693 38.2292C10.1421 39.0066 6.78041 38.8495 5.76093 37.9079C5.75155 36.8618 5.2069 34.6109 5.10508 34.0267C5.00391 33.4407 4.52972 30.2361 5.2334 29.1649C5.39534 28.9179 5.94484 28.6603 6.19535 28.6921C7.08975 28.8032 8.30738 29.62 8.45607 29.6649Z" fill="#CB6117"/>
<path fill-rule="evenodd" clip-rule="evenodd" d="M9.3268 30.1227C8.57657 29.8481 7.13978 31.5781 6.55408 34.363C6.25056 34.4741 6.17266 34.116 5.86914 34.0247C6.36499 31.7204 7.43425 29.4822 8.456 29.6648C8.86748 29.8428 9.00841 29.7925 9.3268 30.1227Z" fill="#4165BD"/>
<path fill-rule="evenodd" clip-rule="evenodd" d="M6.25237 28.7001C5.48436 28.6735 5.53899 29.7602 5.54287 30.4811C5.54933 31.6676 5.85965 33.0031 6.20874 34.1737C5.94951 34.2848 5.87968 33.8906 5.53996 33.7993C5.12589 32.7578 5.08872 31.6633 4.97139 30.6392C4.84856 29.5706 5.1802 28.6933 5.88679 28.5744C6.01738 28.5528 6.25237 28.7001 6.25237 28.7001Z" fill="#4165BD"/>
<path fill-rule="evenodd" clip-rule="evenodd" d="M7.53541 38.7346C7.06283 37.4476 6.53499 35.9437 6.55471 34.2642C6.20788 34.0806 5.86073 33.8965 5.51389 33.7129C5.44019 34.7426 5.5265 36.5406 5.76052 37.9076C6.27705 38.6115 6.87762 38.8365 7.53541 38.7346Z" fill="#314A8D"/>
<path fill-rule="evenodd" clip-rule="evenodd" d="M10.4479 38.6538C9.7908 39.2808 6.66317 39.8435 5.78138 38.5031C5.79172 38.347 5.75035 38.0643 5.76037 37.9082C6.75949 38.703 9.25617 38.9181 10.3687 38.2295C10.3953 38.3707 10.4214 38.5123 10.4479 38.6538Z" fill="#314A8D"/>
<path fill-rule="evenodd" clip-rule="evenodd" d="M9.4218 30.3481C6.59509 30.6252 8.47601 36.4459 8.84967 37.4477C9.16677 38.1381 10.0033 37.2821 10.0127 36.3373C9.97453 34.4041 10.4768 30.2448 9.4218 30.3481Z" fill="#DE7E32"/>
<path fill-rule="evenodd" clip-rule="evenodd" d="M13.679 35.3951C13.8354 35.3664 14.0151 35.3487 14.115 35.3756C14.3018 35.4262 14.424 35.4733 14.6218 35.486C14.5724 35.653 14.4466 35.7489 14.092 35.687C13.6153 35.7033 13.635 35.957 13.3396 35.7659C13.24 35.7015 13.0981 35.6895 13.2006 35.6053C13.3961 35.4492 13.4608 35.435 13.679 35.3951Z" fill="#D99E72"/>
<path fill-rule="evenodd" clip-rule="evenodd" d="M13.6978 36.9534C13.8439 37.0174 13.892 37.0181 13.9308 37.0139C13.9809 37.0086 14.0582 36.9753 14.0449 36.9159C14.1875 36.8989 14.3054 36.8037 14.2957 36.7287C14.385 36.7205 14.4903 36.6452 14.5107 36.5206C14.5954 36.5199 14.7305 36.4109 14.6293 36.2134C14.2718 36.1866 13.8526 36.6869 13.6978 36.9534Z" fill="#D99E72"/>
<path fill-rule="evenodd" clip-rule="evenodd" d="M13.1322 35.6388C13.31 35.4548 13.4729 35.4014 13.642 35.441C14.291 35.5695 14.5047 36.0115 14.5952 36.1332C14.6792 36.2719 14.6243 36.3827 14.4452 36.4839C14.3353 36.675 14.3091 36.6721 14.1779 36.6633C14.185 36.7535 14.0531 36.8784 13.8892 36.8307C13.8168 36.9527 13.7153 36.9807 13.5915 36.911C13.2622 36.6983 13.1519 36.5292 12.9887 36.3214C12.6487 35.8876 12.8219 35.7599 13.1322 35.6388Z" fill="#ECC19A"/>
<path fill-rule="evenodd" clip-rule="evenodd" d="M9.38225 38.1464C10.0455 38.4437 12.3699 37.0618 13.1037 36.4178C13.2572 36.0155 13.0888 35.4503 12.7588 35.5887C12.3997 35.6687 10.0837 36.2734 9.09651 36.6354C8.4704 37.0495 8.99889 37.9745 9.38225 38.1464Z" fill="#DE7E32"/>
<path fill-rule="evenodd" clip-rule="evenodd" d="M9.44447 26.4341L9.2515 27.288L8.54102 27.0746L8.76244 26.1963L9.44447 26.4341Z" fill="#C4C4C4"/>
<path d="M9.3615 26.5172C9.33531 26.7688 9.2907 27.0041 9.20634 27.2037L8.99009 27.1386V27.2805L9.2655 27.3633C9.35568 27.1283 9.45458 26.7787 9.51115 26.4255C9.31721 26.2978 9.14945 26.2295 8.99009 26.1813V26.3278C9.09353 26.359 9.20958 26.4096 9.3615 26.5172ZM8.98977 27.1382L8.61805 27.0267C8.68043 26.779 8.74315 26.5313 8.80553 26.2833C8.86598 26.2967 8.92544 26.3087 8.98977 26.3278V26.1813C8.89797 26.1534 8.80876 26.1322 8.71923 26.1099C8.63422 26.4475 8.54888 26.785 8.46387 27.1223L8.98977 27.2801V27.1382Z" fill="#222221"/>
<path fill-rule="evenodd" clip-rule="evenodd" d="M8.9859 27.4752C9.16368 27.5941 9.17176 27.7824 9.16304 27.8832C9.07576 28.9286 8.46678 29.6505 8.22533 28.609C8.12189 28.1628 7.84973 27.7714 8.25216 27.4813C8.55697 27.2619 8.94711 27.4738 8.9859 27.4752Z" fill="#4D4D4D"/>
<path fill-rule="evenodd" clip-rule="evenodd" d="M8.92915 25.3993C9.00769 25.6314 9.10176 25.8643 9.14927 26.1056C9.18224 26.2744 9.19775 26.3246 9.13763 26.475C9.04583 26.7061 8.99088 26.7546 9.14765 26.9407C9.30054 27.1223 9.10402 27.7115 9.03097 27.9839C8.97311 28.1987 8.94207 28.4503 8.76429 28.5788C8.32211 28.8994 7.82658 28.7065 7.38214 28.5331C6.94189 28.3633 6.07917 27.1368 5.94341 26.7358C5.84515 25.9142 6.03844 25.2036 7.29034 24.705C7.83337 24.4888 8.7323 24.8175 8.92915 25.3993Z" fill="#ECC19A"/>
<path fill-rule="evenodd" clip-rule="evenodd" d="M8.38137 27.6879C8.38137 27.6879 8.44472 28.6794 8.22363 29.5758C7.52382 29.3985 6.65658 29.8723 6.0127 29.2184C6.13456 28.9523 6.48462 28.2024 6.3912 27.0764C6.36179 26.7222 8.33289 26.6765 8.38137 27.6879Z" fill="#D99E72"/>
<path fill-rule="evenodd" clip-rule="evenodd" d="M8.68608 26.5977C8.65408 26.6971 8.51088 26.8457 8.74879 27.0676C9.08915 27.3684 8.72778 28.1335 8.51185 27.7856C8.40906 27.6196 8.46207 26.9965 8.3929 26.9434C8.18538 26.7835 7.96752 27.3493 7.73931 27.8107C7.38214 28.534 6.45703 28.2223 6.39303 28.1696C6.05816 27.8925 5.76499 27.5464 5.74301 26.9944C5.71747 26.3528 5.51642 25.6412 5.93437 25.0891C6.65454 24.138 8.17698 23.7774 9.15283 25.047C9.65579 25.7003 8.87097 26.0241 8.68608 26.5977Z" fill="#4D4D4D"/>
<path fill-rule="evenodd" clip-rule="evenodd" d="M8.05984 26.9289L9.47658 26.4268L9.41744 26.6883L8.07181 27.109L7.95382 27.6306L7.68359 27.7141L8.05984 26.9289Z" fill="#363636"/>
<path fill-rule="evenodd" clip-rule="evenodd" d="M7.95768 27.2344C7.99486 27.5267 8.17846 27.9354 8.29224 27.911C8.58185 27.7999 8.44222 27.5883 8.4057 27.2963C8.36788 27.0048 8.4364 26.8264 8.32424 26.8006C8.11316 26.7539 7.92084 26.9414 7.95768 27.2344Z" fill="#ECC19A"/>
<path fill-rule="evenodd" clip-rule="evenodd" d="M10.444 21.4347C10.4013 21.3222 10.4288 21.1247 10.5199 20.9428C10.6108 20.7609 10.7381 20.5737 10.7814 20.5026C10.8933 20.3183 10.911 20.3597 11.0232 20.1753C11.1231 20.239 11.2058 20.3547 10.9815 20.6626C10.9653 20.7454 10.9699 20.8154 10.8842 20.9464C11.0643 21.4864 10.5199 21.6559 10.444 21.4347Z" fill="#ECC19A"/>
<path fill-rule="evenodd" clip-rule="evenodd" d="M22.3025 31.2842L22.3952 30.6773C22.4188 30.5234 22.5801 30.5708 22.5711 30.7265L22.5371 31.327C22.5287 31.477 22.2779 31.4445 22.3025 31.2842Z" fill="#ECC19A"/>
<path fill-rule="evenodd" clip-rule="evenodd" d="M22.1603 31.5635C22.0905 31.5568 22.0388 31.4888 22.0449 31.4124L22.1038 30.6898C22.1186 30.5069 22.3077 30.5274 22.3058 30.711L22.2983 31.4372C22.2974 31.5136 22.2301 31.5702 22.1603 31.5635Z" fill="#ECC19A"/>
<path fill-rule="evenodd" clip-rule="evenodd" d="M21.8917 31.6382C21.8222 31.628 21.7663 31.5568 21.7773 31.474L21.8813 30.6853C21.9075 30.4867 22.1115 30.5083 22.095 30.7083L22.0307 31.4988C22.0239 31.5823 21.9615 31.6453 21.8917 31.6382Z" fill="#ECC19A"/>
<path fill-rule="evenodd" clip-rule="evenodd" d="M21.522 31.6407L21.6183 30.917C21.6422 30.7351 21.8491 30.7599 21.8342 30.9429L21.7754 31.6655C21.7602 31.8534 21.4987 31.8173 21.522 31.6407Z" fill="#ECC19A"/>
</svg>
