<svg width="70" height="56" viewBox="0 0 70 56" fill="none" xmlns="http://www.w3.org/2000/svg">
<path opacity="0.4" fill-rule="evenodd" clip-rule="evenodd" d="M35.0959 9.02588C54.295 9.02588 69.8663 18.0641 69.8663 29.2097C69.8663 40.3553 54.2959 49.3935 35.0959 49.3935C15.896 49.3935 0.324707 40.3553 0.324707 29.2097C0.325536 18.0641 15.896 9.02588 35.0959 9.02588Z" fill="#D2D2E1"/>
<path fill-rule="evenodd" clip-rule="evenodd" d="M50.5506 16.4874C55.5391 16.8575 59.0542 19.7215 58.4013 22.8821C57.7475 26.0436 53.1725 28.307 48.184 27.9369C43.1963 27.5668 39.6819 24.7037 40.3349 21.5422C40.9879 18.3807 45.5629 16.1173 50.5506 16.4874Z" fill="#979797"/>
<path fill-rule="evenodd" clip-rule="evenodd" d="M50.5506 16.0624C55.5391 16.4325 59.0542 19.2965 58.4013 22.4571C57.7475 25.6186 53.1725 27.8821 48.184 27.5119C43.1963 27.1418 39.6819 24.2787 40.3349 21.1172C40.9879 17.9557 45.5629 15.6932 50.5506 16.0624Z" fill="#E3E3E3"/>
<path fill-rule="evenodd" clip-rule="evenodd" d="M58.8204 6.95036C58.8204 3.73079 54.1857 2.44531 49.4508 2.44531C46.8563 2.44531 39.9047 5.13782 39.9014 7.00026C39.9751 8.24581 40.7416 21.2584 40.7839 22.0449C41.7708 28.8696 56.9973 28.68 57.9337 21.81L58.8204 6.95036Z" fill="#979797"/>
<path fill-rule="evenodd" clip-rule="evenodd" d="M40.6653 19.8974C41.6928 22.4656 45.3538 24.5041 49.3578 24.5041C52.1115 24.5041 56.8754 23.2585 58.0455 19.9382L58.6943 9.06934C55.3739 14.3818 43.4098 14.6485 40.0264 9.2036C40.1962 12.2209 40.5443 17.9243 40.6653 19.8974Z" fill="#668A22"/>
<path fill-rule="evenodd" clip-rule="evenodd" d="M58.3472 14.8818C57.129 21.292 42.785 22.2481 40.396 15.4661L40.6802 20.1516C42.7643 26.4456 55.8678 25.9712 58.0323 20.158L58.3472 14.8818Z" fill="#CACACA"/>
<path fill-rule="evenodd" clip-rule="evenodd" d="M50.6466 0.936369C56.0436 1.33644 59.8471 4.43536 59.1403 7.85452C58.4334 11.2746 53.4831 13.724 48.086 13.323C42.6906 12.9229 38.888 9.82491 39.5948 6.40394C40.3017 2.98478 45.2512 0.536303 50.6466 0.936369Z" fill="#979797"/>
<path fill-rule="evenodd" clip-rule="evenodd" d="M50.6466 0.477385C56.0436 0.878358 59.8471 3.97637 59.1403 7.39553C58.4334 10.8156 53.4831 13.265 48.086 12.864C42.6906 12.4639 38.888 9.36592 39.5948 5.94495C40.3017 2.52579 45.2512 0.0773191 50.6466 0.477385Z" fill="#E3E3E3"/>
<path fill-rule="evenodd" clip-rule="evenodd" d="M50.2529 2.38506C53.9876 2.66266 56.6194 4.80632 56.1297 7.17225C55.6399 9.53908 52.2151 11.2337 48.4804 10.9561C44.7464 10.6794 42.1155 8.53574 42.6044 6.16891C43.0941 3.80298 46.5189 2.10837 50.2529 2.38506Z" fill="#B5B5B5"/>
<path fill-rule="evenodd" clip-rule="evenodd" d="M50.2528 2.93602C53.5367 3.18006 55.968 4.8665 56.1727 6.88044C56.1627 6.97751 56.1495 7.07548 56.1287 7.17346C55.6398 9.54029 52.215 11.2349 48.4803 10.9573C45.1963 10.7142 42.7667 9.02592 42.562 7.01289C42.572 6.91582 42.5852 6.81784 42.6059 6.71987C43.0932 4.35304 46.5188 2.65843 50.2528 2.93602Z" fill="#848484"/>
<path fill-rule="evenodd" clip-rule="evenodd" d="M50.6475 5.33729C52.8037 5.49696 54.7038 6.08753 56.1656 6.95661C56.1564 7.02828 56.1448 7.10085 56.1299 7.17342C55.641 9.54025 52.2162 11.2349 48.4815 10.9573C45.2315 10.716 42.8184 9.06036 42.5698 7.07545C44.6514 5.80358 47.5765 5.10959 50.6475 5.33729Z" fill="#668A22"/>
<path fill-rule="evenodd" clip-rule="evenodd" d="M48.7648 5.30957C51.9237 5.87384 54.0251 7.82881 53.5826 9.9643L53.5669 10.0323C52.1764 10.7318 50.3683 11.0965 48.4815 10.9559C45.2315 10.7145 42.8184 9.05894 42.5698 7.07403C44.2205 6.06616 46.4015 5.42025 48.7648 5.30957Z" fill="#88BD2C"/>
<path fill-rule="evenodd" clip-rule="evenodd" d="M56.0139 11.9575C49.4377 13.8371 44.0241 19.7873 43.3521 25.625C47.9842 28.4318 57.2113 27.1101 57.9347 21.8094L58.4485 13.1994C58.2546 11.8894 56.8832 11.7089 56.0139 11.9575Z" fill="#CACACA"/>
<path fill-rule="evenodd" clip-rule="evenodd" d="M56.0138 11.958C50.3615 13.5737 45.5694 18.1957 43.9062 23.1698C45.4484 23.9971 47.3609 24.5052 49.358 24.5052C52.1116 24.5052 56.8756 23.2596 58.0456 19.9393L58.4475 13.2017C58.1914 11.8437 56.883 11.7094 56.0138 11.958Z" fill="#88BD2C"/>
<path fill-rule="evenodd" clip-rule="evenodd" d="M45.6089 19.6907C44.8076 20.9199 44.1886 22.2172 43.79 23.5344C48.4338 25.9067 56.3889 24.5732 58.033 20.157L58.3479 14.8809C57.5217 19.2208 50.6836 21.0597 45.6089 19.6907Z" fill="#E3E3E3"/>
<path fill-rule="evenodd" clip-rule="evenodd" d="M58.2745 25.7594C61.3679 25.989 63.5481 27.7652 63.1429 29.7247C62.7376 31.6851 59.9003 33.0885 56.807 32.859C53.7144 32.6295 51.5342 30.8542 51.9403 28.8938C52.3446 26.9333 55.182 25.5299 58.2745 25.7594Z" fill="#979797"/>
<path fill-rule="evenodd" clip-rule="evenodd" d="M58.2745 25.4963C61.3679 25.7258 63.5481 27.5011 63.1429 29.4615C62.7376 31.422 59.9003 32.8254 56.807 32.5958C53.7144 32.3663 51.5342 30.591 51.9403 28.6306C52.3446 26.6701 55.182 25.2667 58.2745 25.4963Z" fill="#E3E3E3"/>
<path fill-rule="evenodd" clip-rule="evenodd" d="M63.4827 19.5818C63.4827 17.5588 60.5699 16.7505 57.5942 16.7505C55.9643 16.7505 51.5948 18.4433 51.5923 19.6126C51.6387 20.3955 52.1201 28.5738 52.1466 29.0682C52.7673 33.3573 62.3366 33.2385 62.925 28.9203L63.4827 19.5818Z" fill="#979797"/>
<path fill-rule="evenodd" clip-rule="evenodd" d="M52.0718 27.7187C52.7182 29.3326 55.0185 30.6136 57.5351 30.6136C59.2662 30.6136 62.2601 29.8307 62.9951 27.7441L63.4029 20.9131C61.3163 24.2515 53.7963 24.4193 51.6699 20.9975C51.7768 22.8935 51.9956 26.4786 52.0718 27.7187Z" fill="#D39F25"/>
<path fill-rule="evenodd" clip-rule="evenodd" d="M63.185 24.5669C62.4193 28.5957 53.4044 29.1962 51.9028 24.9343L52.0818 27.879C53.3911 31.8352 61.6271 31.5367 62.9877 27.8826L63.185 24.5669Z" fill="#CACACA"/>
<path fill-rule="evenodd" clip-rule="evenodd" d="M58.3449 15.8013C61.7375 16.0535 64.1273 18.0003 63.6832 20.1494C63.239 22.2994 60.1274 23.838 56.7357 23.5867C53.3448 23.3354 50.9542 21.3877 51.3983 19.2386C51.8433 17.0886 54.9541 15.55 58.3449 15.8013Z" fill="#979797"/>
<path fill-rule="evenodd" clip-rule="evenodd" d="M58.3449 15.5132C61.7375 15.7654 64.1273 17.7122 63.6832 19.8613C63.239 22.0104 60.1274 23.5499 56.7357 23.2986C53.3448 23.0473 50.9542 21.0996 51.3983 18.9505C51.8433 16.8014 54.9541 15.2619 58.3449 15.5132Z" fill="#E3E3E3"/>
<path fill-rule="evenodd" clip-rule="evenodd" d="M58.1476 16.4705C60.7065 16.6601 62.5088 18.1288 62.1741 19.7499C61.8385 21.3711 59.4925 22.5322 56.9336 22.3426C54.3756 22.153 52.5733 20.6843 52.9089 19.0632C53.2436 17.4421 55.5896 16.2809 58.1476 16.4705Z" fill="#B7B7B7"/>
<path fill-rule="evenodd" clip-rule="evenodd" d="M61.7182 22.7286C57.5848 23.9098 54.1832 27.6492 53.7598 31.3187C56.6708 33.0823 62.4706 32.2522 62.9247 28.921L63.2479 23.5097C63.1269 22.686 62.2643 22.5726 61.7182 22.7286Z" fill="#CACACA"/>
<path fill-rule="evenodd" clip-rule="evenodd" d="M61.7184 22.7287C58.166 23.7439 55.1546 26.6487 54.1089 29.7757C55.0784 30.2955 56.28 30.6148 57.5354 30.6148C59.2664 30.6148 62.2604 29.832 62.9954 27.7454L63.2481 23.5107C63.0874 22.6571 62.2645 22.5727 61.7184 22.7287Z" fill="#F0CA30"/>
<path fill-rule="evenodd" clip-rule="evenodd" d="M55.1797 27.5896C54.6767 28.3616 54.2864 29.1772 54.0361 30.0054C56.9547 31.4959 61.9539 30.6577 62.9872 27.8826L63.1845 24.5669C62.6666 27.2939 58.3683 28.4487 55.1797 27.5896Z" fill="#E3E3E3"/>
<path fill-rule="evenodd" clip-rule="evenodd" d="M58.0799 16.8672C60.3521 17.0359 61.9531 18.3396 61.6556 19.7793C61.3581 21.2189 59.274 22.2504 57.001 22.0817C54.7297 21.9129 53.1287 20.6084 53.4262 19.1687C53.7245 17.729 55.8086 16.6985 58.0799 16.8672Z" fill="#E3E3E3"/>
<path fill-rule="evenodd" clip-rule="evenodd" d="M2.51514 21.9842L16.3089 13.21L17.5735 16.2381L3.73989 25.0078L2.51514 21.9842Z" fill="#A59828"/>
<path fill-rule="evenodd" clip-rule="evenodd" d="M42.5447 29.9457L27.0182 39.7595L14.948 32.1311L12.0643 27.9662L3.23907 22.4388L3.72881 25.0406L3.23161 24.7258L0.71582 20.8585L17.5989 14.5771C21.6651 17.1154 42.5447 28.2012 42.5447 29.9457Z" fill="#C5B945"/>
<path fill-rule="evenodd" clip-rule="evenodd" d="M42.5448 29.9456L27.0183 39.7594L27.0166 39.7585L27.2619 36.5308C26.8417 15.9514 32.5181 28.4342 43.7298 27.0317L42.5448 29.9456Z" fill="#A59828"/>
<path fill-rule="evenodd" clip-rule="evenodd" d="M44.3513 27.2295L27.5114 37.6412L0 20.4085V17.5454L44.3471 24.1469L44.3513 27.2295Z" fill="#DACF69"/>
<path fill-rule="evenodd" clip-rule="evenodd" d="M44.3515 27.2293L27.5124 37.641L27.5107 37.6401V20.7847C34.8568 20.7847 38.2899 24.2029 44.3482 24.1476L44.3515 27.2293Z" fill="#C5B945"/>
<path fill-rule="evenodd" clip-rule="evenodd" d="M44.3472 24.1468L27.5122 34.7771L0 17.5453L16.9518 6.83057L44.3472 24.1468Z" fill="#F6F0AB"/>
<path fill-rule="evenodd" clip-rule="evenodd" d="M42.9452 24.107L27.4684 33.8927L1.5 17.4728L16.9586 7.69336L42.9452 24.107Z" fill="#DACF69"/>
<path fill-rule="evenodd" clip-rule="evenodd" d="M19.2671 28.7071L30.4614 21.6157L38.67 26.8093L27.4683 33.8926L19.2671 28.7071Z" fill="#88BD2C"/>
<path fill-rule="evenodd" clip-rule="evenodd" d="M2.03369 17.9246L16.7929 8.58789L28.0386 16.9231L14.2945 25.6184L2.03369 17.9246Z" fill="#F6F0AB"/>
<path fill-rule="evenodd" clip-rule="evenodd" d="M28.0385 16.9229L14.2944 25.6182L19.2672 28.7071L30.4714 21.6356L28.0385 16.9229Z" fill="#E6DC80"/>
<path d="M10.9605 34.952L10.9697 34.9575L19.567 40.4214C20.452 40.9838 21.1049 38.2442 20.5166 37.8695L11.8265 32.3402C11.698 32.2513 11.5356 32.255 11.3583 32.372C10.9456 32.6432 10.6108 33.427 10.6108 34.121C10.6117 34.5674 10.7517 34.8667 10.9605 34.952Z" fill="#D39F25"/>
<path fill-rule="evenodd" clip-rule="evenodd" d="M20.8755 38.7043C20.8755 39.3983 20.5407 40.1821 20.1272 40.4534C19.7137 40.7246 19.3789 40.3826 19.3789 39.6886C19.3789 38.9946 19.7137 38.2108 20.1272 37.9396C20.5407 37.6674 20.8755 38.0104 20.8755 38.7043Z" fill="#C18B21"/>
<path d="M20.0699 37.7852L11.8355 32.5444C11.5215 32.3448 11.3383 32.538 11.572 32.6868L19.8362 37.9466C19.8784 37.9058 19.9232 37.8695 19.9671 37.8405C20.0027 37.8178 20.0359 37.7997 20.0699 37.7852Z" fill="#EDC52E"/>
<path fill-rule="evenodd" clip-rule="evenodd" d="M27.585 50.3933L27.5377 50.2953L40.7399 42.0155C41.1252 41.7741 42.6085 42.284 43.2466 43.5949C43.8846 44.9057 43.796 46.3255 43.0502 46.7645L29.8331 55.0435L29.7826 54.9382C29.084 54.9645 27.1789 51.0165 27.585 50.3933Z" fill="#88BD2C"/>
<path fill-rule="evenodd" clip-rule="evenodd" d="M27.3266 53.463C26.6886 52.1521 26.7772 50.7324 27.523 50.2933C28.2696 49.8542 29.3917 50.5618 30.0297 51.8727C30.6678 53.1845 30.5791 54.6033 29.8325 55.0424C29.0859 55.4814 27.9639 54.7738 27.3266 53.463Z" fill="#668A22"/>
<path fill-rule="evenodd" clip-rule="evenodd" d="M27.9147 53.1167C27.5543 52.3764 27.604 51.5754 28.0258 51.3268C28.4467 51.0792 29.0806 51.4783 29.4411 52.2186C29.8007 52.9589 29.7519 53.7599 29.3301 54.0076C28.9083 54.257 28.2744 53.857 27.9147 53.1167Z" fill="#979797"/>
<path d="M28.0707 53.3278C28.0284 53.3278 27.9853 53.316 27.948 53.2915L26.1739 52.1639C25.6253 51.8155 25.4057 51.078 25.6617 50.4475L27.8204 45.1487C27.9754 44.7695 27.8411 44.325 27.5096 44.1145L20.1015 39.4316C19.9846 39.3572 19.944 39.193 20.012 39.0651C20.0791 38.9372 20.2291 38.8919 20.3467 38.9672L27.7549 43.65C28.3051 43.9975 28.5264 44.7359 28.2695 45.3673L26.1109 50.6661C25.9568 51.0453 26.0902 51.489 26.4208 51.6994L28.0756 52.7508L28.4419 52.5331C28.5629 52.4624 28.7104 52.5113 28.7742 52.6411C28.8388 52.7717 28.7949 52.9341 28.6764 53.0048L28.1883 53.2951C28.1519 53.3169 28.1113 53.3278 28.0707 53.3278Z" fill="#666666"/>
</svg>
