<svg width="56" height="45" viewBox="0 0 56 45" fill="none" xmlns="http://www.w3.org/2000/svg">
<path opacity="0.4" fill-rule="evenodd" clip-rule="evenodd" d="M27.9482 4.51855C43.3805 4.51855 55.8958 11.7834 55.8958 20.7415C55.8958 29.7004 43.3805 36.9645 27.9482 36.9645C12.516 36.9645 0 29.6997 0 20.7415C0.000669018 11.7834 12.516 4.51855 27.9482 4.51855Z" fill="#D2D2E1"/>
<path fill-rule="evenodd" clip-rule="evenodd" d="M17.7486 19.3776L15.0912 21.0336C14.8878 21.1347 14.6309 21.1625 14.447 21.0475L10.0796 18.3259L10.0542 13.563L16.7611 13.6736L17.6542 14.1255C17.8168 14.2082 17.9158 14.376 17.9172 14.5715L17.9392 18.9294C17.9399 19.1088 17.8743 19.2634 17.7486 19.3776Z" fill="#585857"/>
<path fill-rule="evenodd" clip-rule="evenodd" d="M14.3129 20.9647L9.83513 18.1867C9.66186 18.079 9.56084 17.8915 9.56017 17.674L9.53809 13.3799C9.53742 13.199 9.61905 13.0444 9.76222 12.9565L11.7057 11.7642L14.4554 16.1272C14.5223 16.2312 14.5544 16.3395 14.5551 16.4655L14.5785 20.797C14.5791 20.8681 14.547 20.9296 14.4908 20.9647C14.434 20.9999 14.3697 21.0006 14.3129 20.9647Z" fill="#3E3E3D"/>
<path fill-rule="evenodd" clip-rule="evenodd" d="M9.54028 13.8994L9.5376 13.3809C9.53693 13.2 9.61855 13.0454 9.76172 12.9575L17.6535 14.1301C17.816 14.2099 17.915 14.3769 17.9164 14.5725L17.9197 15.1635L14.9473 16.9433C14.863 16.9938 14.768 17.0026 14.6783 16.9997L14.6777 17.0004L14.665 16.999H14.6583L14.6489 16.9982H14.6476L14.6395 16.9975H14.6382L14.6195 16.9946L14.6154 16.9938H14.6141C14.5352 16.9821 14.4582 16.955 14.3833 16.9096C12.7549 15.9194 11.1258 14.883 9.54028 13.8994Z" fill="#D39F25"/>
<path fill-rule="evenodd" clip-rule="evenodd" d="M9.54028 13.8994L9.5376 13.3809C9.53693 13.2 9.61855 13.0454 9.76172 12.9575L14.5445 13.668V16.9777C14.4897 16.9623 14.4368 16.9411 14.384 16.9089C12.7549 15.9194 11.1258 14.883 9.54028 13.8994Z" fill="#C18B21"/>
<path fill-rule="evenodd" clip-rule="evenodd" d="M9.80972 12.9346L12.823 11.0742L17.6921 14.1262C17.7449 14.1591 17.7771 14.2141 17.7824 14.2807C17.7878 14.3467 17.765 14.406 17.7182 14.4477L14.9076 16.1806C14.7611 16.2714 14.5899 16.2385 14.4413 16.1462L9.81239 13.2744C9.75486 13.2385 9.72141 13.1762 9.72074 13.1037C9.7194 13.032 9.75218 12.9704 9.80972 12.9346Z" fill="#EDC52E"/>
<path fill-rule="evenodd" clip-rule="evenodd" d="M12.2904 5.15518C14.7811 8.58141 9.9254 8.92199 13.8652 14.3961C14.2272 14.3616 14.9905 13.9551 15.0079 13.6834C15.1852 11.0182 16.2844 9.33214 16.2496 6.98622C16.2383 6.16152 11.5518 4.13786 12.2904 5.15518Z" fill="#585857"/>
<path fill-rule="evenodd" clip-rule="evenodd" d="M15.8097 9.40599C15.8793 9.35179 16.1034 9.20896 16.1355 9.12034L16.6667 7.64599L15.4043 6.95166C15.4558 7.03369 15.4839 7.10985 15.4812 7.17797C15.4565 7.89354 15.5649 8.85888 15.8097 9.40599Z" fill="#6F6F6F"/>
<path fill-rule="evenodd" clip-rule="evenodd" d="M15.1953 9.05173C15.2769 9.17258 15.7506 9.60983 15.8523 9.32639L16.3835 7.85204L15.4756 7.31299C15.4415 8.10546 15.3218 8.43577 15.1953 9.05173Z" fill="#3E3E3D"/>
<path fill-rule="evenodd" clip-rule="evenodd" d="M12.5661 5.58938C12.7286 6.70118 11.4816 8.87351 10.9551 12.7062C11.3799 13.2717 12.4671 14.0253 13.866 14.3952C13.6225 12.488 15.3191 9.15255 15.2689 7.24095C15.2475 6.41698 12.3948 4.41971 12.5661 5.58938Z" fill="#3E3E3D"/>
<path fill-rule="evenodd" clip-rule="evenodd" d="M20.5375 4.5069L13.8701 0.291848C13.1643 0.243509 12.0015 0.965665 11.5881 1.73397C11.479 2.58284 11.376 3.6104 11.4777 4.22343L11.8798 5.54032L16.413 8.40554L19.1219 8.93066C19.6651 7.51271 19.9943 5.92558 20.5375 4.5069Z" fill="#D39F25"/>
<path fill-rule="evenodd" clip-rule="evenodd" d="M11.481 4.23389L11.8797 5.54125L16.413 8.40644L18.8127 8.87153L11.481 4.23389Z" fill="#C18B21"/>
<path fill-rule="evenodd" clip-rule="evenodd" d="M20.5375 4.5069L13.8701 0.291848C13.1643 0.243509 12.0015 0.965665 11.5881 1.73397L11.5874 1.73982L19.1132 6.52323L20.1301 5.69852C20.2565 5.2935 20.3897 4.89434 20.5375 4.5069Z" fill="#EDC52E"/>
<path fill-rule="evenodd" clip-rule="evenodd" d="M12.3987 7.9544C12.1799 8.70512 11.7297 10.1553 11.1724 12.9531C11.6273 13.4109 12.4288 13.9287 13.4303 14.2649C13.4136 12.2485 14.0639 10.783 14.4559 9.34598C14.8707 7.82476 12.7706 6.68073 12.3987 7.9544Z" fill="#D39F25"/>
<path fill-rule="evenodd" clip-rule="evenodd" d="M12.7099 3.10295L12.7159 5.17862C12.7166 5.27823 12.5861 5.20351 12.5861 5.12294L12.5801 3.04729C12.5801 2.94695 12.7099 3.02165 12.7099 3.10295Z" fill="#222221"/>
<path fill-rule="evenodd" clip-rule="evenodd" d="M12.9901 3.27826L12.9962 5.35391C12.9962 5.45352 12.8664 5.37882 12.8664 5.29825L12.8604 3.22258C12.8604 3.12224 12.9895 3.19696 12.9901 3.27826Z" fill="#222221"/>
<path fill-rule="evenodd" clip-rule="evenodd" d="M13.2704 3.45213L13.2764 5.52704C13.2764 5.62665 13.1466 5.55195 13.1466 5.47139L13.1406 3.39571C13.1406 3.2961 13.2704 3.37156 13.2704 3.45213Z" fill="#222221"/>
<path fill-rule="evenodd" clip-rule="evenodd" d="M13.5507 3.62692L13.5567 5.70185C13.5567 5.80146 13.4269 5.72676 13.4269 5.6462L13.4209 3.57052C13.4209 3.47091 13.5507 3.54635 13.5507 3.62692Z" fill="#222221"/>
<path fill-rule="evenodd" clip-rule="evenodd" d="M13.831 3.80201L13.837 5.87766C13.837 5.97727 13.7072 5.90257 13.7072 5.82201L13.7012 3.74633C13.7012 3.64599 13.831 3.72145 13.831 3.80201Z" fill="#222221"/>
<path fill-rule="evenodd" clip-rule="evenodd" d="M14.1112 3.97718L14.1173 6.05212C14.1173 6.15173 13.9875 6.07703 13.9875 5.99646L13.9814 3.92079C13.9814 3.82118 14.1112 3.89588 14.1112 3.97718Z" fill="#222221"/>
<path fill-rule="evenodd" clip-rule="evenodd" d="M14.392 4.15248L14.398 6.22741C14.398 6.32702 14.2682 6.2523 14.2682 6.17173L14.2622 4.09608C14.2622 3.99647 14.392 4.07118 14.392 4.15248Z" fill="#222221"/>
<path fill-rule="evenodd" clip-rule="evenodd" d="M18.7859 8.84055C19.4844 9.06833 20.427 8.27073 20.8906 7.05931C21.3543 5.84717 21.1629 4.6797 20.4645 4.45192C19.766 4.22414 18.8234 5.02174 18.3597 6.23316C17.8961 7.4453 18.0868 8.61277 18.7859 8.84055Z" fill="#C18B21"/>
<path fill-rule="evenodd" clip-rule="evenodd" d="M21.1718 9.7388L22.9173 6.56598L20.9196 4.75987C19.3802 3.73669 17.2614 8.20586 19.1106 8.92729L21.1718 9.7388Z" fill="#858585"/>
<path fill-rule="evenodd" clip-rule="evenodd" d="M21.3516 9.83376C21.8975 10.0117 22.6341 9.38845 22.996 8.44144C23.358 7.49443 23.2088 6.58185 22.6629 6.40387C22.117 6.2259 21.3804 6.84918 21.0184 7.79619C20.6565 8.74321 20.8057 9.65578 21.3516 9.83376Z" fill="#3E3E3D"/>
<path fill-rule="evenodd" clip-rule="evenodd" d="M24.4036 7.75496L22.828 6.76034C22.82 6.75521 22.812 6.75009 22.8033 6.74496L22.8006 6.74275C22.7705 6.7237 22.7391 6.7098 22.7063 6.70028L22.7016 6.6988C21.6653 6.36043 20.5019 8.9041 21.4137 9.58085L23.0522 10.6355L24.4036 7.75496Z" fill="#585857"/>
<path fill-rule="evenodd" clip-rule="evenodd" d="M23.1568 10.6828C23.2197 10.7033 23.2846 10.7114 23.3522 10.7084V10.7092L24.4407 10.7011L25.1712 8.97774L24.6427 8.03147V8.03221C24.5651 7.87108 24.4487 7.75534 24.2961 7.70554C23.8225 7.551 23.1829 8.09227 22.8685 8.91404C22.5533 9.73581 22.6831 10.5275 23.1568 10.6828Z" fill="#858585"/>
<path fill-rule="evenodd" clip-rule="evenodd" d="M24.3825 10.6874C24.6649 10.7797 25.0449 10.4574 25.2322 9.96816C25.4195 9.47891 25.3419 9.00795 25.0603 8.91567C24.7779 8.82339 24.3979 9.14564 24.2106 9.6349C24.0233 10.1241 24.1009 10.5958 24.3825 10.6874Z" fill="#585857"/>
<path fill-rule="evenodd" clip-rule="evenodd" d="M24.2012 7.73962L24.8388 8.86902C24.713 8.89026 24.5792 8.97742 24.4608 9.11218L23.4473 8.09411C23.6895 7.84216 23.9624 7.7052 24.2012 7.73962Z" fill="#CACACA"/>
<path fill-rule="evenodd" clip-rule="evenodd" d="M24.4855 10.4173C24.6815 10.4811 24.9465 10.2577 25.0763 9.91784C25.2067 9.57727 25.1525 9.24986 24.9565 9.18614C24.7605 9.12242 24.4962 9.34582 24.3658 9.68639C24.236 10.0255 24.2895 10.3536 24.4855 10.4173Z" fill="#3E3E3D"/>
<path fill-rule="evenodd" clip-rule="evenodd" d="M19.1118 5.76756L21.3825 6.96799C21.6487 6.6157 21.9685 6.38572 22.2636 6.34617L20.5067 4.71143C20.0384 4.71069 19.5019 5.12377 19.1118 5.76756Z" fill="#C4C4C4"/>
<path fill-rule="evenodd" clip-rule="evenodd" d="M22.5644 6.70218L24.1205 7.66604C23.881 7.64407 23.6107 7.78395 23.3698 8.0337L21.811 7.10281C22.0365 6.84866 22.3008 6.6868 22.5644 6.70218Z" fill="#C4C4C4"/>
<path fill-rule="evenodd" clip-rule="evenodd" d="M13.2563 14.2039C13.2791 12.2813 13.902 10.8619 14.282 9.46887C14.6178 8.23915 13.3105 7.25699 12.6 7.59756C12.5131 7.68472 12.4435 7.8019 12.3987 7.95424C12.1799 8.70497 11.7297 10.1551 11.1724 12.953C11.6005 13.3844 12.3364 13.8685 13.2563 14.2039Z" fill="#C18B21"/>
<path fill-rule="evenodd" clip-rule="evenodd" d="M20.7669 8.65233C20.7528 8.88743 20.7769 9.10203 20.8365 9.28074L18.626 8.44066C18.515 8.23265 18.4668 7.97851 18.4668 7.70312L20.7669 8.65233Z" fill="#585857"/>
<path fill-rule="evenodd" clip-rule="evenodd" d="M24.1496 10.5662L23.0384 10.5581C22.9554 10.4856 22.8926 10.3831 22.8511 10.2578L24.0413 10.2659C24.052 10.3904 24.0888 10.4944 24.1496 10.5662Z" fill="#585857"/>
<path fill-rule="evenodd" clip-rule="evenodd" d="M25.0468 9.36461C25.1311 9.46788 25.1545 9.62314 25.0997 9.71103C25.0448 9.79966 24.9318 9.78793 24.8475 9.68466C24.7638 9.58212 24.7397 9.42686 24.7946 9.33823C24.8501 9.25034 24.9625 9.26207 25.0468 9.36461Z" fill="#585857"/>
<path fill-rule="evenodd" clip-rule="evenodd" d="M24.749 9.91494C24.6533 10.0182 24.5944 10.1728 24.6172 10.2614C24.6399 10.35 24.7356 10.3383 24.8306 10.235C24.9256 10.1325 24.9845 9.97721 24.9624 9.88859C24.9397 9.79997 24.844 9.81167 24.749 9.91494Z" fill="#585857"/>
<path fill-rule="evenodd" clip-rule="evenodd" d="M24.7381 9.58993L26.8462 10.8556C26.9727 10.931 27.1058 11.0877 27.1814 11.2576C27.0616 11.273 26.7974 11.2738 26.6047 11.1551L24.6264 9.97225C24.3581 9.81185 24.498 9.43759 24.7381 9.58993Z" fill="#858585"/>
<path fill-rule="evenodd" clip-rule="evenodd" d="M24.7909 9.68457L26.7512 10.8616C26.8227 10.9048 26.788 11.0073 26.6849 10.9443L24.7876 9.80688C24.805 9.79076 24.801 9.71094 24.7909 9.68457Z" fill="#C4C4C4"/>
<path fill-rule="evenodd" clip-rule="evenodd" d="M24.4473 9.7325C24.3918 9.88851 24.4051 10.0387 24.4781 10.068C24.551 10.0965 24.6553 9.99325 24.7109 9.83724C24.7664 9.68124 24.753 9.53109 24.6801 9.50253C24.6072 9.47323 24.5028 9.5765 24.4473 9.7325Z" fill="#585857"/>
<path fill-rule="evenodd" clip-rule="evenodd" d="M27.1784 11.2572C27.1543 11.2455 27.1295 11.2345 27.1034 11.2235C26.9114 11.1459 26.7388 11.1312 26.7174 11.1913C26.7161 11.1964 26.7161 11.2023 26.7167 11.2082C26.8887 11.2719 27.08 11.2689 27.1784 11.2572Z" fill="#3E3E3D"/>
<path fill-rule="evenodd" clip-rule="evenodd" d="M27.1803 11.2532L27.1141 11.2048C26.9475 11.0737 26.8384 10.9258 26.8739 10.873C26.9381 10.9163 27.0037 10.98 27.0605 11.054L27.0612 11.0554L27.0659 11.0606L27.0666 11.062L27.0699 11.0671L27.0719 11.0693L27.0846 11.0869L27.0873 11.0906C27.1121 11.1257 27.1328 11.1616 27.1502 11.1924L27.1515 11.1946L27.1535 11.1982L27.1555 11.2026L27.1562 11.2034L27.1596 11.2085L27.1602 11.21L27.1622 11.2136L27.1683 11.2246L27.1703 11.2297L27.1723 11.2334L27.1729 11.2341L27.1756 11.2393L27.1803 11.2532Z" fill="#C4C4C4"/>
<path fill-rule="evenodd" clip-rule="evenodd" d="M24.555 9.66812C24.5229 9.75894 24.5303 9.84609 24.5731 9.86294C24.6152 9.87978 24.6761 9.81972 24.7082 9.7289C24.7403 9.63808 24.7323 9.55093 24.6902 9.53408C24.648 9.51724 24.5871 9.5773 24.555 9.66812Z" fill="#858585"/>
<path fill-rule="evenodd" clip-rule="evenodd" d="M25.0146 9.34572C25.0654 9.40797 25.0795 9.50099 25.0467 9.55446C25.0132 9.60719 24.9457 9.6006 24.8948 9.53834C24.844 9.47682 24.8299 9.38307 24.8634 9.33034C24.8962 9.27614 24.9637 9.28346 25.0146 9.34572Z" fill="#858585"/>
<path fill-rule="evenodd" clip-rule="evenodd" d="M53.3 28.9768C51.7003 29.2968 50.3416 30.3523 48.8758 31.508C47.4347 32.6447 46.7617 32.9047 45.0269 33.9938C43.6487 34.8588 40.8636 36.6715 39.5296 37.8148C38.8251 38.2579 37.9199 36.6569 39.0479 35.8695C40.7438 35.0309 43.438 33.2035 44.7988 32.1254C46.484 30.791 46.9557 30.3786 48.6577 29.3591C49.9763 28.5688 51.5037 27.6247 52.6136 26.4082C52.7246 26.2866 53.1468 26.4888 53.3435 26.707C53.7281 27.4768 53.7997 28.8764 53.3 28.9768Z" fill="#F0CA30"/>
<path fill-rule="evenodd" clip-rule="evenodd" d="M53.3 28.977C51.7004 29.2971 50.3416 30.3525 48.8758 31.5083C47.4341 32.6442 46.7624 32.905 45.0269 33.9941C43.6909 34.8327 41.0342 36.5604 39.6574 37.7067C39.3048 37.2826 39.1984 36.4543 39.9156 35.9533C41.6116 35.1147 44.3057 33.2873 45.6672 32.2092C47.3524 30.8747 47.8241 30.4624 49.5261 29.4428C50.8454 28.6518 52.1319 27.9077 53.2652 26.7175C53.2806 26.7014 53.296 26.6875 53.3114 26.6743L53.3435 26.7073C53.7282 27.477 53.7998 28.8767 53.3 28.977Z" fill="#D39F25"/>
<path fill-rule="evenodd" clip-rule="evenodd" d="M37.7526 39.6459L37.5332 34.9548L38.3481 32.4844L39.7088 33.3406L38.9963 35.8791L39.1429 40.5314L37.7526 39.6459Z" fill="#3E3E3D"/>
<path fill-rule="evenodd" clip-rule="evenodd" d="M38.3481 32.4844L38.7649 32.228L40.115 33.0813L39.7089 33.3398L38.3481 32.4844Z" fill="#C4C4C4"/>
<path fill-rule="evenodd" clip-rule="evenodd" d="M40.1168 33.083L40.543 34.843L40.5611 39.6242L39.1428 40.5316L38.9849 35.9196L39.7087 33.3408L40.1168 33.083Z" fill="#585857"/>
<path fill-rule="evenodd" clip-rule="evenodd" d="M38.9985 35.8718L37.5347 34.9519L38.3482 32.4844L39.709 33.3398L38.9985 35.8718Z" fill="#858585"/>
<path fill-rule="evenodd" clip-rule="evenodd" d="M45.7656 31.3593C46.0205 31.4099 46.151 31.4743 46.2888 31.7167C46.3958 32.1928 46.4193 32.6842 46.3437 33.1955C47.2314 32.6718 47.8643 32.3063 48.8766 31.5087C50.3417 30.353 51.7012 29.2976 53.3008 28.9775C53.8005 28.8772 53.7289 27.4775 53.3449 26.7085C53.1482 26.4902 52.7261 26.2881 52.615 26.4097C51.5051 27.6255 49.9778 28.5695 48.6591 29.3606C47.3331 30.153 46.7538 30.5793 45.7656 31.3593Z" fill="#858585"/>
<path fill-rule="evenodd" clip-rule="evenodd" d="M46.2881 31.7163C46.3951 32.1931 46.4192 32.6845 46.3429 33.195L46.3516 33.1899C46.6808 32.9951 46.9752 32.8222 47.2669 32.6413L47.2709 32.6384L47.4134 32.5483L47.4281 32.5388L47.5131 32.4846L47.5987 32.4289L47.6362 32.4047L47.6395 32.4025L47.6455 32.3981L47.7111 32.3549L47.7459 32.3315L47.7486 32.3293L47.7867 32.3044L47.8549 32.259L47.863 32.2531L47.9399 32.2004L47.9647 32.1836L47.9787 32.1733L48.0182 32.1462L48.0202 32.1447L48.0576 32.1184L48.0764 32.1052L48.0971 32.0905L48.0985 32.0898L48.1513 32.0524L48.2095 32.0107L48.3072 31.9397L48.3413 31.9148L48.4256 31.8525L48.4269 31.8518L48.4684 31.8203L48.4885 31.8056L48.4925 31.8027L48.5326 31.7719L48.6631 31.6723L48.716 31.6313L48.734 31.6167L48.7407 31.6115L48.7802 31.5815L48.8069 31.5603L48.827 31.5449L48.8745 31.5083C50.3397 30.3525 51.6991 29.2971 53.2987 28.977C53.7985 28.8767 53.7269 27.477 53.3429 26.708L53.3328 26.6985L53.3235 26.6882L53.3134 26.678L53.3114 26.6758C53.2954 26.689 53.28 26.7029 53.2653 26.719C52.132 27.9092 50.8454 28.6533 49.5261 29.4443C48.0536 30.3247 47.5017 30.7524 46.2881 31.7163Z" fill="#585857"/>
<path fill-rule="evenodd" clip-rule="evenodd" d="M38.1476 36.3001L38.424 36.4649C38.5002 36.5103 38.5584 36.6158 38.5624 36.6985L38.6307 38.2593C38.634 38.3421 38.5685 38.3736 38.4929 38.3282L38.2165 38.1634C38.1409 38.118 38.0821 38.0132 38.0787 37.9297L38.0105 36.369C38.0058 36.2862 38.0714 36.2547 38.1476 36.3001Z" fill="#585857"/>
<path fill-rule="evenodd" clip-rule="evenodd" d="M33.5869 34.9166L33.4585 27.4276L52.0458 15.791L50.9299 24.0644L33.5869 34.9166Z" fill="#D39F25"/>
<path fill-rule="evenodd" clip-rule="evenodd" d="M25.6987 22.6064L33.458 27.4279L33.5878 34.9169L26.8782 30.7809L25.6987 22.6064Z" fill="#C18B21"/>
<path fill-rule="evenodd" clip-rule="evenodd" d="M26.4385 18.403L33.4578 22.7257L51.3855 11.5153L44.413 7.18018L26.4385 18.403Z" fill="#858585"/>
<path fill-rule="evenodd" clip-rule="evenodd" d="M33.458 27.4281L25.6987 22.6066L26.4387 18.4033L33.458 22.7253V27.4281Z" fill="#3E3E3D"/>
<path fill-rule="evenodd" clip-rule="evenodd" d="M33.4585 27.4281L52.0458 15.7915L51.3882 11.498L33.4585 22.7252V27.4281Z" fill="#585857"/>
<path fill-rule="evenodd" clip-rule="evenodd" d="M32.7671 17.9709L33.5799 16.9096V15.0236L42.4899 10.2571V12.8571L43.1416 13.2622L43.6339 8.66992L32.7671 15.1481V17.9709Z" fill="#C18B21"/>
<path fill-rule="evenodd" clip-rule="evenodd" d="M32.7661 15.1547L33.6298 15.6806L44.391 8.9519L43.5554 8.41797L32.7661 15.1547Z" fill="#EDC52E"/>
<path fill-rule="evenodd" clip-rule="evenodd" d="M32.825 19.6811L31.96 19.1523L32.7661 15.1548L33.6298 15.6806L32.825 19.6811Z" fill="#C18B21"/>
<path fill-rule="evenodd" clip-rule="evenodd" d="M32.8252 19.6808L34.8978 18.4189L34.8824 15.8334L43.1415 10.6618V13.2619L45.0087 12.1399L44.3925 8.94141L33.63 15.6803L32.8252 19.6808Z" fill="#D39F25"/>
<path fill-rule="evenodd" clip-rule="evenodd" d="M35.9316 25.0322L36.7545 25.5398L38.8686 24.2287L38.0765 23.7124L35.9316 25.0322Z" fill="#858585"/>
<path fill-rule="evenodd" clip-rule="evenodd" d="M36.3428 29.1652L35.9307 28.9096L35.9313 25.0322L36.7542 25.5398L36.3428 29.1652Z" fill="#3E3E3D"/>
<path fill-rule="evenodd" clip-rule="evenodd" d="M36.3428 29.1652L38.4589 27.8396L38.8696 24.2178L36.7542 25.5398L36.3428 29.1652Z" fill="#585857"/>
<path fill-rule="evenodd" clip-rule="evenodd" d="M47.2173 17.9263L48.0402 18.4346L50.1543 17.1235L49.3622 16.6064L47.2173 17.9263Z" fill="#858585"/>
<path fill-rule="evenodd" clip-rule="evenodd" d="M47.6287 22.0588L47.2173 21.8032V17.9258L48.0402 18.4341L47.6287 22.0588Z" fill="#3E3E3D"/>
<path fill-rule="evenodd" clip-rule="evenodd" d="M47.6289 22.0593L49.745 20.7336L50.1558 17.1118L48.0404 18.4346L47.6289 22.0593Z" fill="#585857"/>
<path d="M8.23072 29.7869C5.6831 29.7869 4.41263 28.2701 4.02861 27.1033C3.5797 25.7396 3.84463 24.3531 4.7177 23.486C5.67038 22.5389 7.10075 22.421 8.54516 23.1703L10.6358 24.4945C10.7676 24.578 10.8125 24.7633 10.7362 24.9076C10.6592 25.0518 10.4907 25.1002 10.3589 25.0174L8.28759 23.7042C7.07265 23.0751 5.86909 23.1549 5.08767 23.9327C4.3832 24.6329 4.1758 25.7689 4.54711 26.8975C4.99535 28.2598 6.89134 30.1502 11.1543 28.5975C11.3002 28.5447 11.4554 28.6304 11.5036 28.7886C11.5517 28.9468 11.4734 29.1182 11.3289 29.171C10.1347 29.6075 9.10713 29.7869 8.23072 29.7869Z" fill="#3E3E3D"/>
<path d="M11.272 25.6751C11.2051 25.6751 11.1375 25.6568 11.076 25.6179L9.5419 24.6534C9.35323 24.534 9.28767 24.2703 9.39605 24.0638C9.5051 23.8565 9.74594 23.7854 9.9346 23.9041L11.4687 24.8687C11.6573 24.9873 11.7229 25.2517 11.6145 25.4583C11.5409 25.5974 11.4085 25.6751 11.272 25.6751Z" fill="#585857"/>
<path fill-rule="evenodd" clip-rule="evenodd" d="M19.0576 37.2407L20.1073 36.5801L25.614 40.0232L25.8261 39.9191L25.8254 40.2304C25.8261 40.5066 25.0881 41.0017 24.7155 40.7775L19.0576 37.2407Z" fill="#858585"/>
<path fill-rule="evenodd" clip-rule="evenodd" d="M19.0575 36.9336L24.7154 40.4653V40.7773L19.0562 37.2449L19.0575 36.9336Z" fill="#585857"/>
<path fill-rule="evenodd" clip-rule="evenodd" d="M19.0576 36.9338L24.7155 40.4655C25.1497 40.7365 26.087 40.0129 25.7572 39.8064L20.1073 36.2739L19.0576 36.9338Z" fill="#C4C4C4"/>
<path fill-rule="evenodd" clip-rule="evenodd" d="M21.6826 36.6274V43.4242L22.1014 44.0797L22.1008 36.957L21.6826 36.6274Z" fill="#3E3E3D"/>
<path fill-rule="evenodd" clip-rule="evenodd" d="M17.3594 38.3149L18.4091 37.6543L23.9157 41.0974L24.1278 40.9934L24.1272 41.3046C24.1272 41.5808 23.3906 42.0759 23.0173 41.8518L17.3594 38.3149Z" fill="#858585"/>
<path fill-rule="evenodd" clip-rule="evenodd" d="M17.3594 38.0083L23.0166 41.54V41.852L17.3574 38.3196L17.3594 38.0083Z" fill="#585857"/>
<path fill-rule="evenodd" clip-rule="evenodd" d="M17.3594 38.0081L23.0173 41.5397C23.4515 41.8107 24.3887 41.0864 24.0589 40.8806L18.4091 37.3481L17.3594 38.0081Z" fill="#C4C4C4"/>
<path fill-rule="evenodd" clip-rule="evenodd" d="M18.3509 28.1088L16.1151 26.7092C15.9411 26.6001 15.8414 26.4104 15.8428 26.1914L15.8501 25.1016L18.3509 26.6675V28.1088Z" fill="#3E3E3D"/>
<path fill-rule="evenodd" clip-rule="evenodd" d="M19.8124 29.904L17.8114 31.1183L9.7417 26.0215L11.722 24.8013L19.8124 29.904Z" fill="#EDC52E"/>
<path fill-rule="evenodd" clip-rule="evenodd" d="M21.5192 27.0464C20.042 26.1324 16.3879 24.0933 14.4136 23.7095C13.5947 23.5499 13.1665 23.9322 12.9886 24.8213C12.9163 25.1832 12.9819 25.7574 13.1478 26.322L11.4472 25.2644C11.4164 24.357 11.9743 23.3221 11.4331 22.7281L12.4547 22.0828C13.1157 21.6646 13.7446 21.5291 14.5032 21.6485C16.7277 21.9986 19.9825 23.3184 23.0794 26.0862L21.5192 27.0464Z" fill="#EDC52E"/>
<path fill-rule="evenodd" clip-rule="evenodd" d="M21.2973 39.5454L21.3307 37.321L18.0659 35.2432L18.4707 37.7246L21.2973 39.5454Z" fill="#585857"/>
<path fill-rule="evenodd" clip-rule="evenodd" d="M23.3178 36.0864L21.3308 37.3213L21.2974 39.5456L23.0161 38.4858L23.3178 36.0864Z" fill="#858585"/>
<path fill-rule="evenodd" clip-rule="evenodd" d="M11.9889 27.06L13.1449 26.3415C12.8218 25.1645 12.9221 24.7551 13.3637 23.7678L11.9889 23.4111C11.6905 24.7493 11.4918 26.0464 11.9889 27.06Z" fill="#B2761C"/>
<path fill-rule="evenodd" clip-rule="evenodd" d="M10.2416 30.2674L9.74121 26.0135C12.066 27.4842 14.3902 28.9542 16.7151 30.4241C17.653 31.0174 17.8611 28.6649 17.9059 27.2271L15.6888 25.9088C15.4024 25.7381 15.0833 25.2555 14.797 25.079C14.33 24.7918 13.8236 24.5648 13.2536 24.4535C12.4347 24.2938 12.0072 24.6761 11.8286 25.5653C11.7556 25.9271 11.8219 26.5013 11.9878 27.066L10.2871 26.0084C10.1814 22.9161 11.7014 22.1346 13.3425 22.3925C15.567 22.7426 18.4224 24.277 21.5199 27.0447C22.6305 28.7557 22.1261 35.1797 21.5634 37.7863C20.3211 37.0158 19.353 36.4138 18.112 35.6396C18.0063 35.5737 17.079 34.5403 16.974 34.4751C14.7287 33.0769 12.4862 31.6729 10.2416 30.2674Z" fill="#D39F25"/>
<path fill-rule="evenodd" clip-rule="evenodd" d="M20.4165 26.1042L21.9432 25.1396C22.3225 25.4341 22.7019 25.7497 23.0785 26.0867L21.5184 27.0461C21.226 26.8652 20.8487 26.6404 20.4165 26.3928V26.1042Z" fill="#858585"/>
<path fill-rule="evenodd" clip-rule="evenodd" d="M20.4294 37.0836L20.416 26.104C20.7793 26.4006 21.1472 26.7141 21.5186 27.0459C22.5836 28.6865 22.415 34.8176 21.9039 37.6168C21.8885 37.6996 21.843 37.7626 21.7728 37.7977C21.7032 37.8329 21.6289 37.8292 21.562 37.7875L20.4294 37.0836Z" fill="#3E3E3D"/>
<path fill-rule="evenodd" clip-rule="evenodd" d="M21.8371 37.7518L23.7057 36.5807C23.8783 36.473 23.9773 36.2855 23.978 36.068L23.9874 29.5312C23.9894 27.8811 23.6268 26.5364 23.0795 26.0859C22.5597 26.406 22.0398 26.7261 21.52 27.0461C21.7589 27.6951 21.8418 29.1211 21.8405 30.8942L21.8371 37.7518Z" fill="#585857"/>
<path fill-rule="evenodd" clip-rule="evenodd" d="M16.8411 26.0233C16.6477 25.5956 16.6912 25.1803 16.9367 25.0953C17.1829 25.0104 17.5395 25.2887 17.7329 25.7164C17.9262 26.1442 17.8827 26.5594 17.6365 26.6444C17.3903 26.7294 17.0344 26.451 16.8411 26.0233Z" fill="#B2761C"/>
<path fill-rule="evenodd" clip-rule="evenodd" d="M16.9538 25.9855C16.812 25.6721 16.8441 25.3674 17.0241 25.3051C17.2047 25.2429 17.4656 25.4472 17.6075 25.7607C17.7486 26.0742 17.7172 26.3788 17.5372 26.4404C17.3566 26.5026 17.0957 26.299 16.9538 25.9855Z" fill="#585857"/>
<path fill-rule="evenodd" clip-rule="evenodd" d="M16.8347 26.0544C16.6928 25.7409 16.725 25.4362 16.9049 25.374C17.0856 25.3117 17.3465 25.516 17.4883 25.8295C17.6301 26.143 17.598 26.4477 17.4181 26.5092C17.2374 26.5714 16.9765 26.3671 16.8347 26.0544Z" fill="#3E3E3D"/>
<path fill-rule="evenodd" clip-rule="evenodd" d="M15.6446 32.8952L12.5912 30.9975L12.5825 28.3755L15.6446 30.3083V32.8952Z" fill="#E3E3E3"/>
</svg>
