<svg width="61" height="56" viewBox="0 0 61 56" fill="none" xmlns="http://www.w3.org/2000/svg">
<path fill-rule="evenodd" clip-rule="evenodd" d="M0 39.5301L23.8005 54.5975L59.8609 31.8084L36.0542 16.7417L0 39.5301Z" fill="#CACACA"/>
<path fill-rule="evenodd" clip-rule="evenodd" d="M59.8614 31.8081L23.7998 54.5978L23.8016 55.0302L59.8571 32.2398L59.8614 31.8081Z" fill="#AFAFAF"/>
<path fill-rule="evenodd" clip-rule="evenodd" d="M0 39.5303L23.8005 54.5977L23.8011 55.03L0.0153784 39.9949L0 39.5303Z" fill="#7E7E7E"/>
<path fill-rule="evenodd" clip-rule="evenodd" d="M49.5085 27.17L43.2488 31.1264C42.9363 31.3237 42.5789 31.3237 42.2671 31.1264L36.0098 27.17C35.9059 27.104 35.8462 26.9915 35.8462 26.8595C35.8462 26.7282 35.9059 26.615 36.0098 26.5491L42.2683 22.5933C42.5802 22.396 42.9382 22.396 43.2501 22.5933L49.5085 26.5491C49.6125 26.615 49.6722 26.7282 49.6722 26.8595C49.6722 26.9908 49.6131 27.104 49.5085 27.17Z" fill="#808080"/>
<path fill-rule="evenodd" clip-rule="evenodd" d="M24.5749 5.2639C21.2611 4.41605 23.4848 16.9089 23.9277 18.006C24.7607 19.567 26.6491 18.2639 26.619 16.4665C26.531 14.3068 27.9914 5.43024 24.5749 5.2639Z" fill="#CB6117"/>
<path fill-rule="evenodd" clip-rule="evenodd" d="M23.9287 18.0052C24.1268 19.4828 28.9913 23.1732 30.6405 23.7981C31.3935 23.7045 32.1839 22.2533 31.6672 21.7819C31.2126 21.2027 28.0852 17.9258 26.62 16.4658C25.4112 15.7109 24.3052 16.7904 23.9287 18.0052Z" fill="#DE7E32"/>
<path fill-rule="evenodd" clip-rule="evenodd" d="M30.4879 23.0681C30.2037 22.8728 31.0028 21.6767 31.4481 21.963C32.0897 22.6478 32.58 22.4014 32.9109 22.7111C33.061 22.8431 34.0305 24.2102 34.1099 24.6399C34.2575 24.8937 32.6815 25.615 32.4016 25.5167C31.9483 25.2298 31.2759 24.1833 31.2027 23.9112C31.0286 23.2634 31.132 23.5112 30.4879 23.0681Z" fill="#D99E72"/>
<path fill-rule="evenodd" clip-rule="evenodd" d="M32.8003 25.4308L33.1239 26.5467C33.2063 26.8302 32.8951 26.9022 32.7868 26.6302L32.3685 25.5809C32.2646 25.3183 32.7148 25.1358 32.8003 25.4308Z" fill="#D99E72"/>
<path fill-rule="evenodd" clip-rule="evenodd" d="M32.901 25.0802C33.0247 25.0256 33.1661 25.0917 33.2166 25.2263L33.6896 26.5059C33.8096 26.8298 33.4731 26.9752 33.3304 26.6621L32.7675 25.425C32.7085 25.2943 32.7774 25.1347 32.901 25.0802Z" fill="#D99E72"/>
<path fill-rule="evenodd" clip-rule="evenodd" d="M33.3143 24.8466C33.4404 24.7981 33.5911 24.8654 33.6379 25.0156L34.087 26.45C34.2001 26.811 33.8378 26.9679 33.7068 26.6144L33.1895 25.2143C33.1347 25.0675 33.1907 24.9011 33.3143 24.8466Z" fill="#D99E72"/>
<path fill-rule="evenodd" clip-rule="evenodd" d="M34.1465 24.713L34.5574 26.0303C34.6608 26.3609 34.2911 26.5158 34.1711 26.1919L33.6981 24.9124C33.575 24.579 34.0462 24.3918 34.1465 24.713Z" fill="#D99E72"/>
<path fill-rule="evenodd" clip-rule="evenodd" d="M32.1544 22.6355C32.342 22.5291 32.689 22.5547 33.0187 22.7136C33.3484 22.8733 33.6929 23.1076 33.8233 23.1857C34.1604 23.3878 34.0921 23.4322 34.4292 23.6356C34.3351 23.8531 34.1475 24.043 33.5785 23.6268C33.4321 23.6066 33.3115 23.6268 33.071 23.4706C32.1636 23.9319 31.7829 22.8281 32.1544 22.6355Z" fill="#ECC19A"/>
<path fill-rule="evenodd" clip-rule="evenodd" d="M20.7353 28.5142C27.0885 28.5142 32.2415 31.5049 32.2415 35.1933C32.2415 38.8817 27.0891 41.8724 20.7353 41.8724C14.3814 41.8724 9.229 38.8817 9.229 35.1933C9.229 31.5042 14.3814 28.5142 20.7353 28.5142Z" fill="#808080"/>
<path fill-rule="evenodd" clip-rule="evenodd" d="M15.3338 28.5389C15.3338 28.5389 13.4016 28.5173 14.0241 27.6634C14.2893 27.3004 13.441 27.0991 13.1519 27.0735C12.7613 27.0391 12.3282 27.5254 11.9443 28.0352C11.5617 28.6514 10.6685 29.2359 10.4465 29.4366C9.83871 29.9868 9.51822 31.4845 9.57912 32.2455C9.6148 32.6893 9.78335 33.0159 10.0921 33.024C10.2041 33.0038 10.2361 33.0469 10.3843 32.9176C10.5351 32.7862 11.542 31.9263 11.8724 31.5404C12.7164 30.5525 13.9614 30.4111 14.2444 30.3848C14.5279 30.3565 15.3959 30.2508 15.3959 30.2508C15.3959 30.2508 15.682 29.7767 15.3338 28.5389Z" fill="#979796"/>
<path fill-rule="evenodd" clip-rule="evenodd" d="M15.6225 28.3739C14.749 28.2406 15.0911 27.489 13.5514 27.2681C12.9823 27.1867 12.3973 28.2426 12.0584 28.6271C11.5767 29.1733 11.3018 29.2218 10.9284 29.4178C10.5839 29.5982 10.3655 29.9444 10.1865 30.4232C9.76945 31.5377 9.59906 32.9432 10.5439 33.0529C10.9087 33.0954 11.864 31.7627 12.2675 31.3249C13.178 30.2824 14.6223 30.6811 14.9053 30.6555C15.1889 30.6272 15.3962 30.2515 15.3962 30.2515C15.3962 30.2515 15.9707 29.611 15.6225 28.3739Z" fill="#3E3E3D"/>
<path fill-rule="evenodd" clip-rule="evenodd" d="M20.4369 5.88571C20.2173 5.8783 17.3704 6.61437 16.046 7.44808C15.1245 8.15047 15.6413 10.4307 15.589 10.7115C15.4155 11.622 15.0735 15.9892 14.9757 17.2607C14.8773 18.5315 14.088 20.9686 14.9074 21.7411C15.466 25.5756 21.5356 23.2421 22.7905 20.5127C22.8643 17.8803 24.0903 16.8135 25.16 12.5999C25.4171 11.5857 26.835 8.24204 25.7395 6.51401C25.4602 6.07224 24.7903 5.65539 24.3511 5.56313C22.788 5.23382 20.7101 5.89581 20.4369 5.88571Z" fill="#CB6117"/>
<path fill-rule="evenodd" clip-rule="evenodd" d="M20.8489 25.6635C20.0542 26.378 19.3671 27.5471 20.4227 29.7243C22.8076 31.6745 24.7526 34.4403 27.8973 36.4559C26.5507 33.6336 26.2714 32.5002 24.9249 29.6785C23.0702 26.483 21.8652 25.6426 20.8489 25.6635Z" fill="#314A8D"/>
<path fill-rule="evenodd" clip-rule="evenodd" d="M27.4501 36.1423C28.3273 37.0918 30.5031 36.5134 30.3087 35.1934C29.3331 28.5554 26.0131 24.1188 23.0285 19.7159C19.5547 21.9692 21.0778 20.227 20.2222 19.5771C19.0651 21.3644 19.3308 24.0326 19.7707 24.6724C20.5316 25.7802 20.63 25.8401 22.1143 28.1958C23.667 30.9851 25.7302 34.2809 27.4501 36.1423Z" fill="#4165BD"/>
<path fill-rule="evenodd" clip-rule="evenodd" d="M14.2585 27.4482C13.4637 28.0685 12.621 28.6611 13.6766 30.9622C16.2928 33.1213 18.4882 37.6232 20.9771 40.0704C19.6299 37.0898 19.8809 35.4944 18.5343 32.5138C16.6797 29.1002 15.3227 27.9769 14.2585 27.4482Z" fill="#314A8D"/>
<path fill-rule="evenodd" clip-rule="evenodd" d="M22.7622 6.20131C24.396 6.10029 25.1176 9.08023 23.6978 14.1566C24.1586 14.4973 24.1155 14.2522 24.7583 14.2455C25.9124 10.0399 26.4605 7.15153 24.4268 5.93262C23.5071 6.03498 23.648 5.79119 22.7622 6.20131Z" fill="#4165BD"/>
<path fill-rule="evenodd" clip-rule="evenodd" d="M20.852 39.8976C21.2328 40.703 23.9197 40.938 24.0341 39.4396C24.1283 34.7848 23.1194 31.6157 21.0937 26.1002C22.6765 25.6686 21.2998 23.2146 21.4192 20.2568C17.9454 22.797 15.6996 21.8758 14.3296 21.3646C13.2888 26.1076 18.7322 35.4098 20.852 39.8976Z" fill="#4165BD"/>
<path fill-rule="evenodd" clip-rule="evenodd" d="M14.3291 21.3644C17.5266 23.0911 22.5548 22.7692 23.09 20.1569C23.0703 19.86 23.1496 19.3219 23.13 19.0249C21.2292 20.5374 16.5965 21.8675 14.4792 20.557C14.4294 20.8257 14.3795 21.095 14.3291 21.3644Z" fill="#314A8D"/>
<path fill-rule="evenodd" clip-rule="evenodd" d="M16.7263 7.56947C13.565 6.18893 13.7865 19.166 14.0756 20.323C14.6865 22.0032 16.5325 21.1493 16.7478 19.3667C17.5789 17.3625 20.0813 8.29342 16.7263 7.56947Z" fill="#DE7E32"/>
<path fill-rule="evenodd" clip-rule="evenodd" d="M16.1812 7.36594C17.6809 7.22923 18.9825 9.31888 18.9167 14.7569C19.4316 15.1124 20.1267 15.0929 20.7252 15.0741C20.628 11.2456 19.8376 6.78408 17.8734 6.61572C17.5043 6.68441 16.9064 6.91272 16.1812 7.36594Z" fill="#4165BD"/>
<path fill-rule="evenodd" clip-rule="evenodd" d="M15.8413 21.0531C17.7858 19.3345 18.5947 16.8186 18.8586 12.5349C21.3807 13.4501 23.6807 13.0413 25.5434 11.0264C24.8624 13.9336 24.4755 16.269 23.0957 19.8147C22.1268 21.1016 19.7204 22.2949 15.8413 21.0531Z" fill="#314A8D"/>
<path fill-rule="evenodd" clip-rule="evenodd" d="M14.1177 20.4299C14.202 21.9209 19.2535 26.6182 20.8492 27.3926C21.6064 27.3684 22.5052 25.9952 22.0272 25.4773C21.6187 24.8585 18.2662 20.7323 16.9184 19.143C15.7706 18.279 14.5852 19.2535 14.1177 20.4299Z" fill="#DE7E32"/>
<path fill-rule="evenodd" clip-rule="evenodd" d="M36.2118 26.5634L29.0239 31.0795L21.7578 26.521V26.154L22.1484 26.1553L29.027 21.8804L35.8261 26.1951L36.2112 26.1964L36.2118 26.5634Z" fill="#7E7E7E"/>
<path fill-rule="evenodd" clip-rule="evenodd" d="M36.2118 26.1962L29.0239 30.717L21.7578 26.1585L29.027 21.6411L36.2118 26.1962Z" fill="#F2ECE0"/>
<path fill-rule="evenodd" clip-rule="evenodd" d="M35.0248 26.1937L29.0173 29.9709L22.9458 26.162L29.0197 22.3867L35.0248 26.1937Z" fill="#D7C792"/>
<path fill-rule="evenodd" clip-rule="evenodd" d="M34.607 26.1932L29.0153 29.7092L23.3628 26.1636L29.0178 22.6489L34.607 26.1932Z" fill="#E8DEC1"/>
<path fill-rule="evenodd" clip-rule="evenodd" d="M31.2918 24.412L28.9973 25.8551L26.6782 24.3998L28.9979 22.958L31.2918 24.412Z" fill="white"/>
<path fill-rule="evenodd" clip-rule="evenodd" d="M31.2918 27.8587L28.9973 29.3019L26.6782 27.8466L28.9979 26.4048L31.2918 27.8587Z" fill="white"/>
<path fill-rule="evenodd" clip-rule="evenodd" d="M33.9123 26.1351L31.6178 27.5776L29.2993 26.123L31.619 24.6812L33.9123 26.1351Z" fill="#D7C792"/>
<path fill-rule="evenodd" clip-rule="evenodd" d="M28.6419 26.1351L26.3474 27.5776L24.0283 26.123L26.3486 24.6812L28.6419 26.1351Z" fill="#D7C792"/>
<path fill-rule="evenodd" clip-rule="evenodd" d="M22.8161 26.2302C23.2836 26.2241 24.0906 26.5332 24.3699 26.6571C24.7291 26.8174 24.8743 26.9736 25.2336 27.1346C25.0133 27.3427 25.0023 27.5488 24.3877 27.204C23.8944 27.1326 22.0108 27.5346 22.0514 26.812C22.1658 26.4039 22.231 26.1911 22.8161 26.2302Z" fill="#D99E72"/>
<path fill-rule="evenodd" clip-rule="evenodd" d="M24.364 28.3014L25.4165 29.2806C25.6644 29.5109 25.9271 29.1856 25.7075 28.925L24.7479 27.7795C24.5276 27.5182 24.1247 28.0603 24.364 28.3014Z" fill="#D99E72"/>
<path fill-rule="evenodd" clip-rule="evenodd" d="M21.1793 27.0199C21.1823 26.7371 21.5047 25.7175 21.9377 25.9337C22.6255 26.1202 23.3169 26.5572 23.4036 26.6179C23.555 26.7216 24.3688 27.3849 24.6358 27.6354C24.9962 27.9735 24.9753 28.5183 24.5761 28.4779C24.5798 28.6456 24.4488 28.8617 24.2421 28.8503C24.1369 29.0092 24.1012 29.1574 23.8631 29.2193C23.7721 29.3163 23.8428 29.5608 23.5371 29.513C23.093 29.5433 22.1936 28.6496 21.7034 28.1587C21.2328 27.6873 21.1768 27.265 21.1793 27.0199Z" fill="#ECC19A"/>
<path fill-rule="evenodd" clip-rule="evenodd" d="M48.0556 35.6878L40.867 40.2813L33.6016 35.8003V35.4333L33.9922 35.4306L40.8707 31.0815L47.6699 35.3242L48.055 35.3215L48.0556 35.6878Z" fill="#7E7E7E"/>
<path fill-rule="evenodd" clip-rule="evenodd" d="M48.0556 35.3213L40.867 39.9182L33.6016 35.4378L40.8707 30.8423L48.0556 35.3213Z" fill="#F2ECE0"/>
<path fill-rule="evenodd" clip-rule="evenodd" d="M46.8679 35.3309L40.861 39.1728L34.7896 35.4285L40.8635 31.5879L46.8679 35.3309Z" fill="#D7C792"/>
<path fill-rule="evenodd" clip-rule="evenodd" d="M46.4508 35.3343L40.8585 38.9109L35.2065 35.4252L40.8616 31.8506L46.4508 35.3343Z" fill="#E8DEC1"/>
<path fill-rule="evenodd" clip-rule="evenodd" d="M43.1349 33.5894L40.8411 35.0561L38.522 33.6264L40.8417 32.1597L43.1349 33.5894Z" fill="white"/>
<path fill-rule="evenodd" clip-rule="evenodd" d="M43.1349 37.0361L40.8411 38.5036L38.522 37.0732L40.8417 35.6064L43.1349 37.0361Z" fill="white"/>
<path fill-rule="evenodd" clip-rule="evenodd" d="M45.7562 35.2842L43.4617 36.7516L41.1426 35.3212L43.4629 33.8545L45.7562 35.2842Z" fill="#D7C792"/>
<path fill-rule="evenodd" clip-rule="evenodd" d="M40.4856 35.3408L38.1912 36.8083L35.8721 35.3779L38.1924 33.9111L40.4856 35.3408Z" fill="#D7C792"/>
<path fill-rule="evenodd" clip-rule="evenodd" d="M40.6606 40.3451L33.472 44.9379L26.2065 40.4575V40.0905L26.5972 40.0878L33.4757 35.7388L40.2749 39.9814L40.66 39.9781L40.6606 40.3451Z" fill="#7E7E7E"/>
<path fill-rule="evenodd" clip-rule="evenodd" d="M40.6606 39.9778L33.472 44.5754L26.2065 40.095L33.4757 35.4995L40.6606 39.9778Z" fill="#F2ECE0"/>
<path fill-rule="evenodd" clip-rule="evenodd" d="M39.4729 39.9881L33.466 43.83L27.3945 40.0857L33.4685 36.2451L39.4729 39.9881Z" fill="#D7C792"/>
<path fill-rule="evenodd" clip-rule="evenodd" d="M39.0557 39.9915L33.4635 43.5681L27.8115 40.0824L33.4665 36.5078L39.0557 39.9915Z" fill="#E8DEC1"/>
<path fill-rule="evenodd" clip-rule="evenodd" d="M35.7399 38.2459L33.446 39.7133L31.127 38.2836L33.4467 36.8169L35.7399 38.2459Z" fill="white"/>
<path fill-rule="evenodd" clip-rule="evenodd" d="M35.7399 41.6934L33.446 43.1608L31.127 41.7304L33.4467 40.2637L35.7399 41.6934Z" fill="white"/>
<path fill-rule="evenodd" clip-rule="evenodd" d="M38.361 39.9414L36.0665 41.4088L33.748 39.9785L36.0678 38.5117L38.361 39.9414Z" fill="#D7C792"/>
<path fill-rule="evenodd" clip-rule="evenodd" d="M33.0906 39.9981L30.7961 41.4655L28.4771 40.0351L30.7974 38.5684L33.0906 39.9981Z" fill="#D7C792"/>
<path fill-rule="evenodd" clip-rule="evenodd" d="M33.2651 45.0028L26.0765 49.5956L18.811 45.1152V44.7482L19.2017 44.7455L26.0802 40.3965L32.8794 44.6391L33.2651 44.6357V45.0028Z" fill="#7E7E7E"/>
<path fill-rule="evenodd" clip-rule="evenodd" d="M33.2651 44.6356L26.0765 49.2331L18.811 44.7527L26.0802 40.1572L33.2651 44.6356Z" fill="#F2ECE0"/>
<path fill-rule="evenodd" clip-rule="evenodd" d="M32.0774 44.6458L26.0705 48.4877L19.999 44.7434L26.073 40.9028L32.0774 44.6458Z" fill="#D7C792"/>
<path fill-rule="evenodd" clip-rule="evenodd" d="M31.6602 44.6492L26.068 48.2258L20.416 44.7401L26.071 41.1655L31.6602 44.6492Z" fill="#E8DEC1"/>
<path fill-rule="evenodd" clip-rule="evenodd" d="M28.3444 42.9036L26.0499 44.371L23.7314 42.9414L26.0512 41.4746L28.3444 42.9036Z" fill="white"/>
<path fill-rule="evenodd" clip-rule="evenodd" d="M28.3444 46.3511L26.0499 47.8185L23.7314 46.3881L26.0512 44.9214L28.3444 46.3511Z" fill="white"/>
<path fill-rule="evenodd" clip-rule="evenodd" d="M30.9655 44.5991L28.671 46.0666L26.3525 44.6362L28.6722 43.1694L30.9655 44.5991Z" fill="#D7C792"/>
<path fill-rule="evenodd" clip-rule="evenodd" d="M25.6951 44.6558L23.4006 46.1225L21.0815 44.6928L23.4019 43.2261L25.6951 44.6558Z" fill="#D7C792"/>
<path fill-rule="evenodd" clip-rule="evenodd" d="M36.5303 20.3608L37.1731 26.7982C37.1731 26.9046 37.2217 26.9962 37.306 27.0487L42.3618 30.2455C42.614 30.4051 42.9032 30.4051 43.1554 30.2455L48.2137 27.0487C48.298 26.9955 48.3466 26.9046 48.3466 26.7982L48.9894 20.3608H36.5303Z" fill="#487AB1"/>
<path fill-rule="evenodd" clip-rule="evenodd" d="M36.5303 20.3608L37.1731 26.7982C37.1731 26.9046 37.2217 26.9962 37.306 27.0487L42.1619 30.1108C42.224 30.1499 42.296 30.1499 42.3581 30.1108C42.4203 30.0711 42.456 30.0037 42.456 29.925V20.3608H36.5303Z" fill="#345B88"/>
<path fill-rule="evenodd" clip-rule="evenodd" d="M49.5085 20.8409L43.2488 24.7973C42.9363 24.9946 42.5789 24.9946 42.2671 24.7973L36.0098 20.8409C35.9059 20.7749 35.8462 20.6617 35.8462 20.5304C35.8462 20.3984 35.9059 20.2859 36.0098 20.2199L42.2683 16.2642C42.5802 16.0669 42.9382 16.0669 43.2501 16.2642L49.5085 20.2199C49.6125 20.2859 49.6722 20.3991 49.6722 20.5304C49.6722 20.6624 49.6131 20.7749 49.5085 20.8409Z" fill="#639DD7"/>
<path fill-rule="evenodd" clip-rule="evenodd" d="M49.5085 20.6714L43.2488 24.6279C42.9363 24.8252 42.5789 24.8252 42.2671 24.6279L36.0098 20.6714C35.9059 20.6054 35.8462 20.4923 35.8462 20.361C35.8462 20.229 35.9059 20.1165 36.0098 20.0505L42.2683 16.0948C42.5802 15.8974 42.9382 15.8974 43.2501 16.0948L49.5085 20.0505C49.6125 20.1165 49.6722 20.2296 49.6722 20.361C49.6722 20.4923 49.6131 20.6054 49.5085 20.6714Z" fill="#77B3EC"/>
<path fill-rule="evenodd" clip-rule="evenodd" d="M48.8407 20.6406L43.2004 24.2051C42.9193 24.3829 42.5969 24.3829 42.3152 24.2051L36.6774 20.6406C36.5839 20.5813 36.5298 20.4796 36.5298 20.3611C36.5298 20.2426 36.5833 20.1409 36.6774 20.0816L42.3164 16.5171C42.5976 16.3393 42.9199 16.3393 43.201 16.5171L48.8394 20.0809C48.9329 20.1402 48.9871 20.2419 48.9871 20.3604C48.9883 20.4796 48.9342 20.5813 48.8407 20.6406Z" fill="#487AB1"/>
<path fill-rule="evenodd" clip-rule="evenodd" d="M42.8906 24.3264V17.1543C42.8906 16.7752 43.1435 16.4829 43.4486 16.6728L48.8403 20.0811C48.9344 20.1404 48.9885 20.242 48.9885 20.3606C48.9885 20.4791 48.9344 20.5808 48.8403 20.6407L43.2 24.2052C43.1016 24.2678 42.997 24.3076 42.8906 24.3264Z" fill="#345B88"/>
<path fill-rule="evenodd" clip-rule="evenodd" d="M38.8931 22.0409L42.317 19.8765C42.5981 19.6987 42.9204 19.6987 43.2015 19.8765L46.6248 22.0402L43.2003 24.2047C42.9192 24.3825 42.5968 24.3825 42.3157 24.2047L38.8931 22.0409Z" fill="#ADADAD"/>
<path d="M41.9018 28.7443C41.6841 28.7443 41.454 28.6547 41.2695 28.5382L35.0122 24.5818C34.8726 24.4929 34.792 24.3413 34.792 24.1642C34.792 24.008 34.8732 23.9083 34.9445 23.8208L34.9821 23.7743L36.5864 21.7035C36.6276 21.6516 36.6983 21.6456 36.7457 21.6893C36.7931 21.7331 36.7992 21.8112 36.7586 21.8631L35.1131 23.9858C35.0504 24.0625 35.0178 24.105 35.0178 24.1642C35.0178 24.2518 35.0559 24.3238 35.1248 24.3676L41.382 28.324C41.6693 28.5059 42.0408 28.5853 42.2217 28.351L46.3985 22.9581C46.4391 22.9062 46.5111 22.9002 46.5572 22.944C46.6046 22.9884 46.6107 23.0658 46.5701 23.1177L42.3933 28.5106C42.2635 28.6796 42.0876 28.7443 41.9018 28.7443Z" fill="#CACACA"/>
<path fill-rule="evenodd" clip-rule="evenodd" d="M20.3611 14.2427C21.7944 14.3646 23.136 14.1357 24.3675 13.4824L24.0587 15.0347C22.7817 15.7775 21.5108 15.9431 20.0757 15.8199L20.3611 14.2427Z" fill="#4165BD"/>
<path fill-rule="evenodd" clip-rule="evenodd" d="M21.9828 4.20947C21.6198 4.90984 21.1326 5.8614 20.4978 6.26412C20.2148 6.81027 20.4338 7.52951 20.9112 8.20968C21.9391 9.67709 23.2543 9.47842 23.4001 8.46423C23.5132 8.12145 23.2617 7.58809 23.3201 7.21905C23.3878 6.81095 22.7554 6.49174 22.9405 6.13415L21.9828 4.20947Z" fill="#D99E72"/>
<path fill-rule="evenodd" clip-rule="evenodd" d="M27.235 3.59729C27.0277 4.01212 26.9693 4.48217 26.8585 4.93742C26.8167 5.33744 26.4938 5.36505 26.3461 5.67551C26.2883 5.7974 26.348 6.03445 26.2803 6.21022C26.0884 6.70721 25.6443 7.41162 25.3035 7.80356C25.0795 8.11132 24.7997 8.58811 24.1415 8.65411C23.1369 8.7787 22.7279 7.53216 22.1115 6.819C21.4994 6.11324 22.3083 5.28088 22.3944 4.47141C22.8084 0.63687 27.51 1.02275 27.235 3.59729Z" fill="#ECC19A"/>
<path fill-rule="evenodd" clip-rule="evenodd" d="M21.5536 3.1875L21.5425 3.26629C21.5456 3.23936 21.5499 3.21309 21.5536 3.1875Z" fill="#262424"/>
<path fill-rule="evenodd" clip-rule="evenodd" d="M23.8762 4.02685C23.6147 4.01944 23.552 4.01473 23.3484 4.27737C23.1761 4.49961 23.0014 4.42419 22.8021 4.96024C22.7597 5.03432 22.1519 3.65106 21.9003 4.35952C21.6217 5.14542 21.033 5.77173 20.7758 6.04582C20.1841 5.47205 21.2618 3.71573 21.4402 3.22412C21.6918 1.98164 22.5616 0.855639 23.2235 0.679199C24.5497 1.56611 24.8395 1.72505 24.9705 2.85979C24.8739 3.34601 24.2133 4.03628 23.8762 4.02685Z" fill="#643F42"/>
<path fill-rule="evenodd" clip-rule="evenodd" d="M21.9204 4.12423C21.806 4.64211 21.8823 5.10544 22.0896 5.15932C22.2969 5.21454 22.5116 4.79836 22.7379 4.42864C23.1046 3.91616 22.789 3.35788 22.5011 3.29054C22.292 3.24138 22.0336 3.60906 21.9204 4.12423Z" fill="#ECC19A"/>
<path fill-rule="evenodd" clip-rule="evenodd" d="M25.6041 7.44263C25.5949 7.25609 25.6195 7.11132 25.2295 6.96317C25.0314 6.88505 24.8401 6.86484 24.6432 6.88774V7.5093C24.7294 7.50863 24.8216 7.51874 24.9188 7.545C25.5247 7.71067 24.9422 8.12146 24.7915 7.78609C24.7546 7.81505 24.7029 7.83391 24.6432 7.84469V9.19626C25.1513 8.63933 25.6219 7.79484 25.6041 7.44263ZM24.6432 6.88774C24.3664 6.92007 24.0804 7.03925 23.7537 7.20761C23.2229 7.48169 23.2259 6.62914 23.17 5.90318C23.1355 5.45399 22.6625 5.33141 22.8981 4.74283L22.7381 4.42969C22.211 5.11322 21.88 5.61224 21.7262 6.0264C21.6278 6.29241 21.5712 6.56651 21.5503 6.83858V7.31873C21.6543 8.66358 22.6145 9.83941 23.8731 9.72357C24.0964 9.7027 24.375 9.48988 24.6426 9.19694V7.84536C24.3486 7.89722 23.8768 7.74771 24.2102 7.60359C24.3172 7.55713 24.4673 7.51133 24.6426 7.51066L24.6432 6.88774Z" fill="#643F42"/>
<path fill-rule="evenodd" clip-rule="evenodd" d="M23.2241 0.679787C23.7673 -0.245512 25.9683 0.600991 27.0817 1.99702C27.6285 2.48122 28.0019 2.59302 28.534 2.39369C28.4049 3.71968 27.8574 4.58841 26.41 4.25977C26.4924 3.34121 25.3322 3.42808 24.8241 2.65161C24.3548 2.05899 23.6935 1.27174 23.2241 0.679787Z" fill="#643F42"/>
<path fill-rule="evenodd" clip-rule="evenodd" d="M44.4917 39.6965L45.2569 40.18V37.9583L44.4917 37.4741V39.6965Z" fill="#363636"/>
<path fill-rule="evenodd" clip-rule="evenodd" d="M45.2568 40.18L60.4367 30.5903V28.3687L45.2568 37.9584V40.18Z" fill="#D39F25"/>
<path fill-rule="evenodd" clip-rule="evenodd" d="M45.2568 40.1802L45.3977 40.0913V37.8696L45.2568 37.9585V40.1802Z" fill="#4D4D4D"/>
<path fill-rule="evenodd" clip-rule="evenodd" d="M44.4917 37.4744L45.2569 37.9586L60.4375 28.3689L59.6673 27.8921L44.4917 37.4744Z" fill="#EDC52E"/>
<path fill-rule="evenodd" clip-rule="evenodd" d="M44.4917 37.4744L45.2569 37.9587L45.3978 37.8697L44.6313 37.3862L44.4917 37.4744Z" fill="#666666"/>
<path fill-rule="evenodd" clip-rule="evenodd" d="M51.1138 33.2928L51.8852 33.7696L54.3427 32.2167L53.5405 31.7607L51.1138 33.2928Z" fill="#585857"/>
<path fill-rule="evenodd" clip-rule="evenodd" d="M51.8926 33.7652V34.4481C51.8926 34.4878 51.9104 34.5222 51.9424 34.5417C51.9738 34.5612 52.0101 34.5612 52.0414 34.541L54.1957 33.1584C54.2892 33.0985 54.3427 32.9968 54.3427 32.8783V32.2163L51.8926 33.7652Z" fill="#222221"/>
<path fill-rule="evenodd" clip-rule="evenodd" d="M52.0425 33.6716V34.1935C52.0425 34.2137 52.0517 34.2312 52.0671 34.2406C52.0831 34.2507 52.1009 34.2507 52.1169 34.2406L54.0964 32.9658C54.1586 32.9254 54.1942 32.8581 54.1942 32.7793V32.3105L52.0425 33.6716Z" fill="#7C9A3F"/>
<path fill-rule="evenodd" clip-rule="evenodd" d="M51.27 33.1947L52.0408 33.6715L54.1963 32.3132L53.391 31.856L51.27 33.1947Z" fill="#99BB57"/>
<path fill-rule="evenodd" clip-rule="evenodd" d="M60.2969 30.6792L60.4377 30.5903V28.3687L60.2969 28.4576V30.6792Z" fill="#4D4D4D"/>
<path fill-rule="evenodd" clip-rule="evenodd" d="M59.5312 27.9741L60.2965 28.4577L60.4374 28.3688L59.6709 27.8853L59.5312 27.9741Z" fill="#666666"/>
<path fill-rule="evenodd" clip-rule="evenodd" d="M51.7617 33.4985L53.3057 32.5045C53.3679 32.4648 53.4036 32.3967 53.4036 32.3179V31.862L53.3931 31.856L51.2739 33.1968L51.7617 33.4985Z" fill="#BDDE7B"/>
<path fill-rule="evenodd" clip-rule="evenodd" d="M53.4138 32.3751L51.6865 33.4519L52.0421 33.6715V33.8351L53.6507 32.833C53.9269 32.66 53.6913 32.2027 53.4138 32.3751Z" fill="#DBF6A5"/>
<path fill-rule="evenodd" clip-rule="evenodd" d="M52.7687 32.8521L52.3442 33.1168C52.0908 33.2744 52.2618 33.6151 52.5109 33.4602L52.9434 33.1908C53.1482 33.0629 52.9735 32.7242 52.7687 32.8521Z" fill="white"/>
<path fill-rule="evenodd" clip-rule="evenodd" d="M47.1352 38.0124C47.1057 38.5033 46.8799 38.9862 46.6308 39.0906C46.3817 39.195 46.2027 38.8811 46.2322 38.3902C46.2611 37.8993 46.4875 37.4164 46.7366 37.312C46.9857 37.2076 47.1641 37.5215 47.1352 38.0124Z" fill="#4D4D4D"/>
<path fill-rule="evenodd" clip-rule="evenodd" d="M47.0722 38.0387C47.047 38.4617 46.8526 38.8772 46.638 38.9674C46.4233 39.057 46.2695 38.7869 46.2941 38.364C46.3193 37.9411 46.5137 37.5256 46.7284 37.4354C46.9437 37.3451 47.0975 37.6152 47.0722 38.0387Z" fill="#7C9A3F"/>
<path fill-rule="evenodd" clip-rule="evenodd" d="M46.7806 38.6335L46.7843 37.4199C46.7664 37.4226 46.748 37.4273 46.7289 37.4354C46.5284 37.5189 46.3463 37.8866 46.302 38.2785L46.3008 38.6052C46.3094 38.6759 46.3248 38.7378 46.3451 38.791C46.4632 38.9675 46.78 38.9176 46.7806 38.6335Z" fill="#DBF6A5"/>
<path fill-rule="evenodd" clip-rule="evenodd" d="M59.7348 30.0456C59.7059 30.5366 59.4796 31.0194 59.2304 31.1238C58.9807 31.2282 58.8023 30.9144 58.8318 30.4234C58.8607 29.9325 59.0871 29.4503 59.3362 29.3459C59.5854 29.2409 59.7644 29.5547 59.7348 30.0456Z" fill="#4D4D4D"/>
<path fill-rule="evenodd" clip-rule="evenodd" d="M59.6723 30.0722C59.6471 30.4951 59.4527 30.9113 59.238 31.0009C59.0234 31.0905 58.8696 30.8204 58.8948 30.3975C58.92 29.9746 59.1144 29.5591 59.3291 29.4688C59.5438 29.3792 59.6976 29.6493 59.6723 30.0722Z" fill="#7C9A3F"/>
<path fill-rule="evenodd" clip-rule="evenodd" d="M59.0325 30.8522L59.604 29.603C59.5419 29.4757 59.4447 29.4198 59.3296 29.4676C59.1143 29.5579 58.9199 29.9734 58.8947 30.3963C58.8812 30.6266 58.9206 30.8118 58.9938 30.9182C59.0079 30.8987 59.0208 30.8771 59.0325 30.8522Z" fill="#DBF6A5"/>
<path fill-rule="evenodd" clip-rule="evenodd" d="M3.67972 37.1948C4.8731 37.8204 5.96744 38.4413 6.91906 39.3128L8.07184 38.6063C6.66132 37.9214 5.4704 36.9416 4.2844 35.9153C4.13615 35.7873 3.91224 35.7638 3.67972 35.8055V36.1624L3.70002 36.1618C3.94361 36.1611 4.13185 36.2749 4.12077 36.4163C4.1097 36.5544 3.91409 36.6668 3.6791 36.6736V37.1948H3.67972ZM2.99014 36.8359C3.22328 36.9571 3.45334 37.0763 3.67972 37.1948V36.6736H3.65942C3.41582 36.6742 3.22697 36.5604 3.23804 36.4183C3.24912 36.2803 3.44535 36.1685 3.67972 36.1611V35.8042C3.25773 35.8803 2.81052 36.1739 2.75146 36.4567V36.5779C2.77299 36.6729 2.84681 36.7611 2.99014 36.8359Z" fill="#C18B21"/>
<path fill-rule="evenodd" clip-rule="evenodd" d="M3.68887 37.0335C4.88225 37.6591 5.97659 38.28 6.92821 39.1514L8.08099 38.445C6.67047 37.7594 5.47955 36.7803 4.29355 35.754C4.1453 35.626 3.92078 35.6018 3.68887 35.6442V36.0011L3.70917 36.0004C3.95276 35.9998 4.14161 36.1136 4.12993 36.2557C4.11885 36.3937 3.92324 36.5062 3.68825 36.5129L3.68887 37.0335ZM2.99929 36.6745C3.23243 36.7958 3.46249 36.9143 3.68887 37.0335L3.68825 36.5129H3.66857C3.42497 36.5136 3.23612 36.3998 3.24719 36.2577C3.25827 36.1196 3.4545 36.0078 3.68887 36.0004V35.6435C3.26688 35.7196 2.82028 36.0132 2.76123 36.2961V36.4173C2.78276 36.5116 2.85596 36.6005 2.99929 36.6745Z" fill="#EDC52E"/>
<path fill-rule="evenodd" clip-rule="evenodd" d="M14.3913 35.8239V35.6441C13.508 35.1343 12.528 34.9411 11.6773 35.4879L2.36955 41.4363C1.47698 42.0101 1.47759 42.9428 2.35663 43.5307L14.3913 35.8239Z" fill="#C18B21"/>
<path fill-rule="evenodd" clip-rule="evenodd" d="M14.2716 35.8691L2.4473 43.3604L2.44238 43.4386L4.01408 44.8925L4.47051 44.5847L4.00423 44.2945L4.54987 43.951L5.01245 44.2426L5.55009 43.9032L5.08689 43.6143L5.63252 43.2709L6.09265 43.5605L6.62967 43.221L6.16892 42.9341L6.71456 42.5907L7.17222 42.8783L7.70986 42.5388L7.25096 42.2533L7.79721 41.9105L8.2518 42.1967L8.78882 41.8573L8.33361 41.5731L8.87925 41.2304L9.33138 41.5145L9.8684 41.1751L9.41627 40.893L9.96128 40.5502L10.411 40.833L10.9486 40.4936L10.4983 40.2128L11.0439 39.8693L11.4905 40.1508L12.0282 39.8114L11.5803 39.5326L12.126 39.1892L12.5701 39.4693L13.1077 39.1299L12.663 38.8525L13.2086 38.509L13.6503 38.7871L14.1873 38.4477L13.745 38.1723L14.2907 37.8288L14.7299 38.1049L15.2669 37.7655L14.8277 37.4921L15.3733 37.1487L15.8095 37.4234L16.3465 37.084L14.2716 35.8691Z" fill="#666666"/>
<path fill-rule="evenodd" clip-rule="evenodd" d="M14.2765 35.791L2.44727 43.3604L4.01834 44.8144L4.47539 44.5066L4.00912 44.2157L4.55475 43.8729L5.01734 44.1638L5.55497 43.8251L5.09177 43.5362L5.63679 43.1927L6.09753 43.4823L6.63455 43.1429L6.1738 42.856L6.71944 42.5119L7.1771 42.8001L7.71412 42.4607L7.25584 42.1752L7.80209 41.8324L8.25607 42.1186L8.7937 41.7792L8.3385 41.495L8.88413 41.1522L9.33626 41.4364L9.87328 41.097L9.42053 40.8148L9.96617 40.4714L10.4158 40.7542L10.9535 40.4148L10.5032 40.1347L11.0488 39.7912L11.4954 40.0727L12.033 39.7333L11.5852 39.4545L12.1309 39.111L12.575 39.3905L13.1126 39.0511L12.6679 38.7743L13.2129 38.4309L13.6546 38.709L14.1922 38.3696L13.7499 38.0935L14.2955 37.7507L14.7348 38.0268L15.2718 37.6874L14.832 37.414L15.3776 37.0705L15.8143 37.3453L16.3514 37.0059L14.2765 35.791Z" fill="url(#paint0_linear_455_4864)"/>
<path fill-rule="evenodd" clip-rule="evenodd" d="M14.3914 35.6228C13.4613 35.0679 12.57 34.713 11.6768 35.2867L2.36906 41.2352C1.47649 41.809 1.47711 42.7417 2.35615 43.3296L14.3914 35.6228Z" fill="#EDC52E"/>
<path fill-rule="evenodd" clip-rule="evenodd" d="M54.3005 27.5849C54.0673 27.7061 53.8372 27.8253 53.6109 27.9438V27.4226H53.6312C53.8748 27.4233 54.0636 27.3095 54.0525 27.1674C54.0415 27.0293 53.8459 26.9169 53.6109 26.9101V26.5532C54.0329 26.6293 54.4795 26.9229 54.5391 27.2051V27.3283C54.5176 27.4219 54.4432 27.5108 54.3005 27.5849ZM53.6109 27.9438C52.4181 28.5695 51.3232 29.1904 50.3715 30.0618L49.2188 29.3554C50.6293 28.6698 51.8202 27.6906 53.0062 26.6643C53.1544 26.5364 53.379 26.5128 53.6109 26.5545V26.9115L53.59 26.9108C53.3464 26.9101 53.1575 27.0239 53.1692 27.166C53.1803 27.3041 53.3759 27.4165 53.6109 27.4233V27.9438Z" fill="#C18B21"/>
<path fill-rule="evenodd" clip-rule="evenodd" d="M47.5024 28.9955V28.8157C48.3858 28.3059 49.3657 28.1133 50.2165 28.6595L51.0149 29.1585C52.2187 29.9242 51.9069 30.665 51.0278 31.2529L47.5024 28.9955Z" fill="#C18B21"/>
<path fill-rule="evenodd" clip-rule="evenodd" d="M47.6071 29.0444L50.9375 31.0822L50.9424 31.1604L49.3713 32.6143L45.5322 30.2593L47.6071 29.0444Z" fill="#666666"/>
<path fill-rule="evenodd" clip-rule="evenodd" d="M47.6021 28.9663L50.9374 31.0823L49.3663 32.5362L45.5278 30.1812L47.6021 28.9663Z" fill="url(#paint1_linear_455_4864)"/>
<path fill-rule="evenodd" clip-rule="evenodd" d="M47.5024 28.7937C48.4325 28.2388 49.3239 27.8839 50.2171 28.4576L51.0155 28.9567C52.1984 29.7419 51.9075 30.4631 51.0284 31.0517L47.5024 28.7937Z" fill="#EDC52E"/>
<path fill-rule="evenodd" clip-rule="evenodd" d="M54.2913 27.4233C54.0582 27.5445 53.8281 27.6637 53.6017 27.7823V27.261H53.622C53.8656 27.2617 54.0545 27.1479 54.0434 27.0058C54.0323 26.8677 53.8367 26.7559 53.6017 26.7485V26.3916C54.0237 26.4677 54.4703 26.7607 54.53 27.0435V27.1667C54.5078 27.261 54.434 27.3492 54.2913 27.4233ZM53.6017 27.7823C52.409 28.4079 51.314 29.0288 50.3618 29.9002L49.209 29.1938C50.6195 28.5089 51.811 27.529 52.9964 26.5027C53.1447 26.3748 53.3692 26.3505 53.6011 26.3923V26.7492L53.5802 26.7485C53.3366 26.7479 53.1484 26.8617 53.1594 27.0038C53.1705 27.1418 53.3667 27.2543 53.6017 27.261V27.7823Z" fill="#EDC52E"/>
<defs>
<linearGradient id="paint0_linear_455_4864" x1="4.50314" y1="46.3491" x2="15.3154" y2="34.9876" gradientUnits="userSpaceOnUse">
<stop stop-color="#848484"/>
<stop offset="1" stop-color="white"/>
</linearGradient>
<linearGradient id="paint1_linear_455_4864" x1="50.2174" y1="33.5152" x2="45.8561" y2="28.2284" gradientUnits="userSpaceOnUse">
<stop stop-color="#848484"/>
<stop offset="1" stop-color="white"/>
</linearGradient>
</defs>
</svg>
