<svg width="20" height="17" viewBox="0 0 20 17" fill="none" xmlns="http://www.w3.org/2000/svg">
<path d="M10 13.25C10.2833 13.25 10.5208 13.1542 10.7125 12.9625C10.9042 12.7708 11 12.5333 11 12.25C11 11.9667 10.9042 11.7292 10.7125 11.5375C10.5208 11.3458 10.2833 11.25 10 11.25C9.71667 11.25 9.47917 11.3458 9.2875 11.5375C9.09583 11.7292 9 11.9667 9 12.25C9 12.5333 9.09583 12.7708 9.2875 12.9625C9.47917 13.1542 9.71667 13.25 10 13.25ZM10 9.25C10.2833 9.25 10.5208 9.15417 10.7125 8.9625C10.9042 8.77083 11 8.53333 11 8.25C11 7.96667 10.9042 7.72917 10.7125 7.5375C10.5208 7.34583 10.2833 7.25 10 7.25C9.71667 7.25 9.47917 7.34583 9.2875 7.5375C9.09583 7.72917 9 7.96667 9 8.25C9 8.53333 9.09583 8.77083 9.2875 8.9625C9.47917 9.15417 9.71667 9.25 10 9.25ZM10 5.25C10.2833 5.25 10.5208 5.15417 10.7125 4.9625C10.9042 4.77083 11 4.53333 11 4.25C11 3.96667 10.9042 3.72917 10.7125 3.5375C10.5208 3.34583 10.2833 3.25 10 3.25C9.71667 3.25 9.47917 3.34583 9.2875 3.5375C9.09583 3.72917 9 3.96667 9 4.25C9 4.53333 9.09583 4.77083 9.2875 4.9625C9.47917 5.15417 9.71667 5.25 10 5.25ZM18 16.25H2C1.45 16.25 0.979167 16.0542 0.5875 15.6625C0.195833 15.2708 0 14.8 0 14.25V10.25C0.55 10.25 1.02083 10.0542 1.4125 9.6625C1.80417 9.27083 2 8.8 2 8.25C2 7.7 1.80417 7.22917 1.4125 6.8375C1.02083 6.44583 0.55 6.25 0 6.25V2.25C0 1.7 0.195833 1.22917 0.5875 0.8375C0.979167 0.445833 1.45 0.25 2 0.25H18C18.55 0.25 19.0208 0.445833 19.4125 0.8375C19.8042 1.22917 20 1.7 20 2.25V6.25C19.45 6.25 18.9792 6.44583 18.5875 6.8375C18.1958 7.22917 18 7.7 18 8.25C18 8.8 18.1958 9.27083 18.5875 9.6625C18.9792 10.0542 19.45 10.25 20 10.25V14.25C20 14.8 19.8042 15.2708 19.4125 15.6625C19.0208 16.0542 18.55 16.25 18 16.25ZM18 14.25V11.7C17.3833 11.3333 16.8958 10.8458 16.5375 10.2375C16.1792 9.62917 16 8.96667 16 8.25C16 7.53333 16.1792 6.87083 16.5375 6.2625C16.8958 5.65417 17.3833 5.16667 18 4.8V2.25H2V4.8C2.61667 5.16667 3.10417 5.65417 3.4625 6.2625C3.82083 6.87083 4 7.53333 4 8.25C4 8.96667 3.82083 9.62917 3.4625 10.2375C3.10417 10.8458 2.61667 11.3333 2 11.7V14.25H18Z" fill="#939393"/>
</svg>
