<svg width="22" height="23" viewBox="0 0 22 23" fill="none" xmlns="http://www.w3.org/2000/svg">
<path d="M20.1 22.25L17.025 19.2C16.725 19.3833 16.4042 19.5208 16.0625 19.6125C15.7208 19.7042 15.3667 19.75 15 19.75C13.9 19.75 12.9583 19.3583 12.175 18.575C11.3917 17.7917 11 16.85 11 15.75C11 14.65 11.3917 13.7083 12.175 12.925C12.9583 12.1417 13.9 11.75 15 11.75C16.1 11.75 17.0417 12.1417 17.825 12.925C18.6083 13.7083 19 14.65 19 15.75C19 16.1333 18.95 16.4958 18.85 16.8375C18.75 17.1792 18.6083 17.5 18.425 17.8L21.5 20.85L20.1 22.25ZM4 19.75C2.9 19.75 1.95833 19.3583 1.175 18.575C0.391667 17.7917 0 16.85 0 15.75C0 14.65 0.391667 13.7083 1.175 12.925C1.95833 12.1417 2.9 11.75 4 11.75C5.1 11.75 6.04167 12.1417 6.825 12.925C7.60833 13.7083 8 14.65 8 15.75C8 16.85 7.60833 17.7917 6.825 18.575C6.04167 19.3583 5.1 19.75 4 19.75ZM4 17.75C4.55 17.75 5.02083 17.5542 5.4125 17.1625C5.80417 16.7708 6 16.3 6 15.75C6 15.2 5.80417 14.7292 5.4125 14.3375C5.02083 13.9458 4.55 13.75 4 13.75C3.45 13.75 2.97917 13.9458 2.5875 14.3375C2.19583 14.7292 2 15.2 2 15.75C2 16.3 2.19583 16.7708 2.5875 17.1625C2.97917 17.5542 3.45 17.75 4 17.75ZM15 17.75C15.55 17.75 16.0208 17.5542 16.4125 17.1625C16.8042 16.7708 17 16.3 17 15.75C17 15.2 16.8042 14.7292 16.4125 14.3375C16.0208 13.9458 15.55 13.75 15 13.75C14.45 13.75 13.9792 13.9458 13.5875 14.3375C13.1958 14.7292 13 15.2 13 15.75C13 16.3 13.1958 16.7708 13.5875 17.1625C13.9792 17.5542 14.45 17.75 15 17.75ZM4 8.75C2.9 8.75 1.95833 8.35833 1.175 7.575C0.391667 6.79167 0 5.85 0 4.75C0 3.65 0.391667 2.70833 1.175 1.925C1.95833 1.14167 2.9 0.75 4 0.75C5.1 0.75 6.04167 1.14167 6.825 1.925C7.60833 2.70833 8 3.65 8 4.75C8 5.85 7.60833 6.79167 6.825 7.575C6.04167 8.35833 5.1 8.75 4 8.75ZM15 8.75C13.9 8.75 12.9583 8.35833 12.175 7.575C11.3917 6.79167 11 5.85 11 4.75C11 3.65 11.3917 2.70833 12.175 1.925C12.9583 1.14167 13.9 0.75 15 0.75C16.1 0.75 17.0417 1.14167 17.825 1.925C18.6083 2.70833 19 3.65 19 4.75C19 5.85 18.6083 6.79167 17.825 7.575C17.0417 8.35833 16.1 8.75 15 8.75ZM4 6.75C4.55 6.75 5.02083 6.55417 5.4125 6.1625C5.80417 5.77083 6 5.3 6 4.75C6 4.2 5.80417 3.72917 5.4125 3.3375C5.02083 2.94583 4.55 2.75 4 2.75C3.45 2.75 2.97917 2.94583 2.5875 3.3375C2.19583 3.72917 2 4.2 2 4.75C2 5.3 2.19583 5.77083 2.5875 6.1625C2.97917 6.55417 3.45 6.75 4 6.75ZM15 6.75C15.55 6.75 16.0208 6.55417 16.4125 6.1625C16.8042 5.77083 17 5.3 17 4.75C17 4.2 16.8042 3.72917 16.4125 3.3375C16.0208 2.94583 15.55 2.75 15 2.75C14.45 2.75 13.9792 2.94583 13.5875 3.3375C13.1958 3.72917 13 4.2 13 4.75C13 5.3 13.1958 5.77083 13.5875 6.1625C13.9792 6.55417 14.45 6.75 15 6.75Z" fill="#939393"/>
</svg>
