<svg width="65" height="64" viewBox="0 0 65 64" fill="none" xmlns="http://www.w3.org/2000/svg">
<rect x="0.5" width="64" height="64" rx="32" fill="white"/>
<g clip-path="url(#clip0_1119_17991)">
<path d="M32.5 20C33.9733 20 35.1667 18.8066 35.1667 17.3333C35.1667 15.86 33.9733 14.6666 32.5 14.6666C31.0267 14.6666 29.8333 15.86 29.8333 17.3333C29.8333 18.8066 31.0267 20 32.5 20ZM32.5 21.3333C30.72 21.3333 27.1667 22.2266 27.1667 24V25.3333H37.8333V24C37.8333 22.2266 34.28 21.3333 32.5 21.3333Z" fill="#2A282F"/>
</g>
<path d="M20.4545 39.5455V49H19.0233V40.9766H18.968L16.7059 42.4538V41.0874L19.0649 39.5455H20.4545ZM26.3035 49.157C25.5741 49.1539 24.9509 48.9615 24.4339 48.5799C23.9168 48.1983 23.5213 47.6428 23.2474 46.9134C22.9735 46.1839 22.8366 45.3053 22.8366 44.2773C22.8366 43.2525 22.9735 42.3769 23.2474 41.6506C23.5244 40.9242 23.9214 40.3703 24.4385 39.9886C24.9586 39.607 25.5803 39.4162 26.3035 39.4162C27.0268 39.4162 27.6469 39.6085 28.164 39.9933C28.681 40.3749 29.0765 40.9289 29.3504 41.6552C29.6274 42.3784 29.7659 43.2525 29.7659 44.2773C29.7659 45.3084 29.6289 46.1886 29.355 46.918C29.0811 47.6443 28.6856 48.1998 28.1686 48.5845C27.6515 48.9661 27.0299 49.157 26.3035 49.157ZM26.3035 47.9244C26.9437 47.9244 27.4438 47.612 27.8039 46.9872C28.1671 46.3625 28.3486 45.4592 28.3486 44.2773C28.3486 43.4925 28.2655 42.8293 28.0993 42.2876C27.9362 41.7429 27.7008 41.3305 27.393 41.0504C27.0883 40.7673 26.7252 40.6257 26.3035 40.6257C25.6665 40.6257 25.1663 40.9396 24.8032 41.5675C24.44 42.1953 24.2569 43.0986 24.2538 44.2773C24.2538 45.0652 24.3354 45.7315 24.4985 46.2763C24.6647 46.8179 24.9001 47.2288 25.2048 47.5089C25.5095 47.7859 25.8757 47.9244 26.3035 47.9244ZM31.9887 49.0877C31.7364 49.0877 31.5194 48.9985 31.3378 48.82C31.1562 48.6384 31.0654 48.4199 31.0654 48.1644C31.0654 47.9121 31.1562 47.6966 31.3378 47.5181C31.5194 47.3365 31.7364 47.2457 31.9887 47.2457C32.2411 47.2457 32.4581 47.3365 32.6396 47.5181C32.8212 47.6966 32.912 47.9121 32.912 48.1644C32.912 48.3337 32.8689 48.4891 32.7828 48.6307C32.6997 48.7692 32.5889 48.88 32.4504 48.9631C32.3119 49.0462 32.158 49.0877 31.9887 49.0877ZM34.7425 49V47.9659L37.9417 44.6513C38.2833 44.2912 38.5649 43.9757 38.7865 43.7049C39.0112 43.431 39.1789 43.1709 39.2897 42.9247C39.4005 42.6785 39.4559 42.4169 39.4559 42.1399C39.4559 41.826 39.382 41.5552 39.2343 41.3274C39.0866 41.0966 38.885 40.9196 38.6295 40.7965C38.3741 40.6703 38.0863 40.6072 37.7662 40.6072C37.4277 40.6072 37.1323 40.6765 36.8799 40.815C36.6275 40.9535 36.4336 41.1489 36.2982 41.4013C36.1628 41.6536 36.0951 41.9491 36.0951 42.2876H34.7332C34.7332 41.7121 34.8656 41.2089 35.1302 40.7781C35.3949 40.3472 35.7581 40.0133 36.2197 39.7763C36.6814 39.5362 37.2061 39.4162 37.7939 39.4162C38.3879 39.4162 38.9111 39.5347 39.3635 39.7717C39.819 40.0056 40.1745 40.3256 40.43 40.7319C40.6854 41.1351 40.8131 41.5906 40.8131 42.0984C40.8131 42.4492 40.747 42.7924 40.6146 43.1278C40.4854 43.4633 40.2591 43.8372 39.936 44.2496C39.6128 44.659 39.1635 45.156 38.588 45.7408L36.7091 47.7074V47.7766H40.9655V49H34.7425ZM44.0031 46.5948L43.9939 44.9098H44.2339L47.0592 41.9091H48.7119L45.4896 45.3253H45.2726L44.0031 46.5948ZM42.7336 49V39.5455H44.1139V49H42.7336ZM47.2116 49L44.6725 45.63L45.6235 44.6651L48.9058 49H47.2116Z" fill="#2A282F"/>
<defs>
<clipPath id="clip0_1119_17991">
<rect width="16" height="16" fill="white" transform="translate(24.5 12)"/>
</clipPath>
</defs>
</svg>
