<svg width="24" height="24" viewBox="0 0 24 24" fill="none" xmlns="http://www.w3.org/2000/svg">
<path d="M22.0291 7.5V16.75C22.0292 17.58 21.7185 18.3785 21.1608 18.9819C20.6031 19.5853 19.8406 19.9478 19.0298 19.995L18.8487 20H5.6377C4.82534 20.0001 4.04374 19.6824 3.45326 19.1123C2.86277 18.5422 2.50816 17.7628 2.46217 16.934L2.45728 16.75V7.5L11.9027 12.556C12.0077 12.6122 12.1246 12.6416 12.2432 12.6416C12.3618 12.6416 12.4787 12.6122 12.5838 12.556L22.0291 7.5Z" fill="#367AF2"/>
<path d="M22.0291 7.5V16.75C22.0292 17.58 21.7185 18.3785 21.1608 18.9819C20.6031 19.5853 19.8406 19.9478 19.0298 19.995L18.8487 20H5.6377C4.82534 20.0001 4.04374 19.6824 3.45326 19.1123C2.86277 18.5422 2.50816 17.7628 2.46217 16.934L2.45728 16.75V7.5L11.9027 12.556C12.0077 12.6122 12.1246 12.6416 12.2432 12.6416C12.3618 12.6416 12.4787 12.6122 12.5838 12.556L22.0291 7.5Z" fill="url(#paint0_linear_7278_11194)"/>
<path d="M22.0291 7.5V16.75C22.0292 17.58 21.7185 18.3785 21.1608 18.9819C20.6031 19.5853 19.8406 19.9478 19.0298 19.995L18.8487 20H5.6377C4.82534 20.0001 4.04374 19.6824 3.45326 19.1123C2.86277 18.5422 2.50816 17.7628 2.46217 16.934L2.45728 16.75V7.5L11.9027 12.556C12.0077 12.6122 12.1246 12.6416 12.2432 12.6416C12.3618 12.6416 12.4787 12.6122 12.5838 12.556L22.0291 7.5Z" fill="url(#paint1_linear_7278_11194)"/>
<path d="M22.0291 7.5V16.75C22.0292 17.58 21.7185 18.3785 21.1608 18.9819C20.6031 19.5853 19.8406 19.9478 19.0298 19.995L18.8487 20H5.6377C4.82534 20.0001 4.04374 19.6824 3.45326 19.1123C2.86277 18.5422 2.50816 17.7628 2.46217 16.934L2.45728 16.75V7.5L11.9027 12.556C12.0077 12.6122 12.1246 12.6416 12.2432 12.6416C12.3618 12.6416 12.4787 12.6122 12.5838 12.556L22.0291 7.5Z" fill="url(#paint2_linear_7278_11194)" fill-opacity="0.75"/>
<path d="M22.0291 7.5V16.75C22.0292 17.58 21.7185 18.3785 21.1608 18.9819C20.6031 19.5853 19.8406 19.9478 19.0298 19.995L18.8487 20H5.6377C4.82534 20.0001 4.04374 19.6824 3.45326 19.1123C2.86277 18.5422 2.50816 17.7628 2.46217 16.934L2.45728 16.75V7.5L11.9027 12.556C12.0077 12.6122 12.1246 12.6416 12.2432 12.6416C12.3618 12.6416 12.4787 12.6122 12.5838 12.556L22.0291 7.5Z" fill="url(#paint3_linear_7278_11194)" fill-opacity="0.7"/>
<path d="M2.45728 7.86L11.9027 12.916C12.0077 12.9722 12.1246 13.0016 12.2432 13.0016C12.3618 13.0016 12.4787 12.9722 12.5838 12.916L22.0291 7.86V7.25C22.0291 6.8232 21.9469 6.40059 21.7871 6.00628C21.6272 5.61197 21.393 5.25369 21.0976 4.9519C20.8023 4.65011 20.4517 4.41072 20.0658 4.24739C19.6799 4.08406 19.2664 4 18.8487 4H5.6377C4.7942 4 3.98525 4.34241 3.3888 4.9519C2.79236 5.5614 2.45728 6.38805 2.45728 7.25V7.86Z" fill="url(#paint4_linear_7278_11194)"/>
<defs>
<linearGradient id="paint0_linear_7278_11194" x1="14.7279" y1="9.95" x2="20.2617" y2="20.4172" gradientUnits="userSpaceOnUse">
<stop offset="0.199" stop-color="#0094F0" stop-opacity="0"/>
<stop offset="0.431" stop-color="#0094F0"/>
</linearGradient>
<linearGradient id="paint1_linear_7278_11194" x1="9.44737" y1="8.816" x2="4.05495" y2="20.7788" gradientUnits="userSpaceOnUse">
<stop offset="0.191" stop-color="#0094F0" stop-opacity="0"/>
<stop offset="0.431" stop-color="#0094F0"/>
</linearGradient>
<linearGradient id="paint2_linear_7278_11194" x1="17.4033" y1="14.957" x2="18.2916" y2="21.1457" gradientUnits="userSpaceOnUse">
<stop stop-color="#2764E7" stop-opacity="0"/>
<stop offset="1" stop-color="#2764E7"/>
</linearGradient>
<linearGradient id="paint3_linear_7278_11194" x1="15.272" y1="9.035" x2="16.8915" y2="21.6343" gradientUnits="userSpaceOnUse">
<stop offset="0.533" stop-color="#FF6CE8" stop-opacity="0"/>
<stop offset="1" stop-color="#FF6CE8"/>
</linearGradient>
<linearGradient id="paint4_linear_7278_11194" x1="8.27208" y1="1.151" x2="14.4081" y2="17.001" gradientUnits="userSpaceOnUse">
<stop stop-color="#6CE0FF"/>
<stop offset="0.462" stop-color="#29C3FF"/>
<stop offset="1" stop-color="#4894FE"/>
</linearGradient>
</defs>
</svg>
