<svg width="24" height="24" viewBox="0 0 24 24" fill="none" xmlns="http://www.w3.org/2000/svg">
<path d="M17.1849 20.28C16.2259 21.23 15.1788 21.08 14.1709 20.63C13.1042 20.17 12.1256 20.15 11.0002 20.63C9.59104 21.25 8.84731 21.07 8.00572 20.28C3.23018 15.25 3.93477 7.59 9.35617 7.31C10.6773 7.38 11.5972 8.05 12.3702 8.11C13.525 7.87 14.6308 7.18 15.8638 7.27C17.3415 7.39 18.4571 7.99 19.191 9.07C16.1378 10.94 16.862 15.05 19.6608 16.2C19.103 17.7 18.3788 19.19 17.1751 20.29L17.1849 20.28ZM12.2724 7.25C12.1256 5.02 13.8968 3.18 15.9323 3C16.2161 5.58 13.6424 7.5 12.2724 7.25Z" fill="black"/>
</svg>
