<svg width="24" height="24" viewBox="0 0 24 24" fill="none" xmlns="http://www.w3.org/2000/svg">
<path d="M22.5194 12.2331C22.5194 11.3698 22.4494 10.7398 22.298 10.0864H12.4539V13.983H18.2322C18.1157 14.9514 17.4866 16.4097 16.0886 17.3897L16.069 17.5202L19.1816 19.9349L19.3972 19.9564C21.3776 18.1247 22.5194 15.4297 22.5194 12.2331Z" fill="#4285F4"/>
<path d="M12.4534 22.5001C15.2843 22.5001 17.6609 21.5667 19.3968 19.9567L16.0882 17.39C15.2028 18.0083 14.0145 18.44 12.4534 18.44C9.68079 18.44 7.32753 16.6083 6.48866 14.0767L6.3657 14.0871L3.12924 16.5955L3.08691 16.7133C4.81108 20.1433 8.35265 22.5001 12.4534 22.5001Z" fill="#34A853"/>
<path d="M6.48911 14.0765C6.26777 13.4232 6.13967 12.7231 6.13967 11.9998C6.13967 11.2764 6.26777 10.5765 6.47747 9.92313L6.47161 9.78398L3.19458 7.23535L3.08736 7.28642C2.37675 8.70977 1.96899 10.3081 1.96899 11.9998C1.96899 13.6915 2.37675 15.2897 3.08736 16.7131L6.48911 14.0765Z" fill="#FBBC05"/>
<path d="M12.4535 5.55997C14.4223 5.55997 15.7504 6.41163 16.5076 7.12335L19.4667 4.23C17.6494 2.53834 15.2844 1.5 12.4535 1.5C8.35268 1.5 4.81109 3.85665 3.08691 7.28662L6.47703 9.92332C7.32756 7.39166 9.68083 5.55997 12.4535 5.55997Z" fill="#EB4335"/>
</svg>
