<svg width="20" height="24" viewBox="0 0 20 24" fill="none" xmlns="http://www.w3.org/2000/svg">
<path d="M0.799805 20.4V18H3.1998V9.6C3.1998 7.94 3.6998 6.465 4.6998 5.175C5.6998 3.885 6.9998 3.04 8.5998 2.64V1.8C8.5998 1.3 8.77481 0.875 9.12481 0.525C9.4748 0.175 9.89981 0 10.3998 0C10.8998 0 11.3248 0.175 11.6748 0.525C12.0248 0.875 12.1998 1.3 12.1998 1.8V2.64C13.7998 3.04 15.0998 3.885 16.0998 5.175C17.0998 6.465 17.5998 7.94 17.5998 9.6V18H19.9998V20.4H0.799805ZM10.3998 24C9.73981 24 9.1748 23.765 8.7048 23.295C8.23481 22.825 7.9998 22.26 7.9998 21.6H12.7998C12.7998 22.26 12.5648 22.825 12.0948 23.295C11.6248 23.765 11.0598 24 10.3998 24ZM5.5998 18H15.1998V9.6C15.1998 8.28 14.7298 7.15 13.7898 6.21C12.8498 5.27 11.7198 4.8 10.3998 4.8C9.07981 4.8 7.9498 5.27 7.0098 6.21C6.0698 7.15 5.5998 8.28 5.5998 9.6V18Z" fill="#1461F0"/>
</svg>
