<svg width="40" height="40" viewBox="0 0 40 40" fill="none" xmlns="http://www.w3.org/2000/svg">
<path d="M39.6337 15.8844L34.0087 21.5094C33.8926 21.6256 33.7548 21.7178 33.603 21.7807C33.4513 21.8436 33.2886 21.876 33.1244 21.876C32.9601 21.876 32.7974 21.8436 32.6457 21.7807C32.4939 21.7178 32.3561 21.6256 32.24 21.5094L26.615 15.8844L26.5619 15.825L26.5087 15.8844L21.1415 21.25L26.5087 26.6156C26.625 26.7317 26.7171 26.8696 26.7801 27.0213C26.843 27.1731 26.8753 27.3357 26.8753 27.5C26.8753 27.6643 26.843 27.8269 26.7801 27.9787C26.7171 28.1304 26.625 28.2683 26.5087 28.3844L20.8837 34.0094C20.7676 34.1256 20.6298 34.2178 20.478 34.2807C20.3263 34.3436 20.1636 34.376 19.9994 34.376C19.8351 34.376 19.6724 34.3436 19.5207 34.2807C19.3689 34.2178 19.2311 34.1256 19.115 34.0094L13.49 28.3844C13.3738 28.2683 13.2816 28.1304 13.2187 27.9787C13.1558 27.8269 13.1234 27.6643 13.1234 27.5C13.1234 27.3357 13.1558 27.1731 13.2187 27.0213C13.2816 26.8696 13.3738 26.7317 13.49 26.6156L18.8572 21.25L13.49 15.8844L13.4369 15.825L13.3837 15.8844L7.75873 21.5094C7.64264 21.6256 7.50478 21.7178 7.35303 21.7807C7.20128 21.8436 7.03863 21.876 6.87436 21.876C6.71009 21.876 6.54743 21.8436 6.39568 21.7807C6.24393 21.7178 6.10607 21.6256 5.98998 21.5094L0.364981 15.8844C0.248761 15.7683 0.156562 15.6304 0.0936567 15.4787C0.0307513 15.3269 -0.00162697 15.1643 -0.00162697 15C-0.00162697 14.8357 0.0307513 14.6731 0.0936567 14.5213C0.156562 14.3696 0.248761 14.2317 0.364981 14.1156L5.98998 8.49063C6.10607 8.37441 6.24393 8.28221 6.39568 8.21931C6.54743 8.1564 6.71009 8.12402 6.87436 8.12402C7.03863 8.12402 7.20128 8.1564 7.35303 8.21931C7.50478 8.28221 7.64264 8.37441 7.75873 8.49063L13.3837 14.1156L13.4369 14.175L13.49 14.1156L19.115 8.49063C19.2311 8.37441 19.3689 8.28221 19.5207 8.21931C19.6724 8.1564 19.8351 8.12402 19.9994 8.12402C20.1636 8.12402 20.3263 8.1564 20.478 8.21931C20.6298 8.28221 20.7676 8.37441 20.8837 8.49063L26.5087 14.1156L26.5619 14.175L26.615 14.1156L32.24 8.49063C32.3561 8.37441 32.4939 8.28221 32.6457 8.21931C32.7974 8.1564 32.9601 8.12402 33.1244 8.12402C33.2886 8.12402 33.4513 8.1564 33.603 8.21931C33.7548 8.28221 33.8926 8.37441 34.0087 8.49063L39.6337 14.1156C39.75 14.2317 39.8421 14.3696 39.9051 14.5213C39.968 14.6731 40.0003 14.8357 40.0003 15C40.0003 15.1643 39.968 15.3269 39.9051 15.4787C39.8421 15.6304 39.75 15.7683 39.6337 15.8844Z" fill="url(#paint0_linear_1119_17892)"/>
<defs>
<linearGradient id="paint0_linear_1119_17892" x1="3.33333" y1="8.33317" x2="43.3333" y2="33.3332" gradientUnits="userSpaceOnUse">
<stop stop-color="#FF8334"/>
<stop offset="1" stop-color="#BF4A00"/>
</linearGradient>
</defs>
</svg>
