<svg width="13" height="12" viewBox="0 0 13 12" fill="none" xmlns="http://www.w3.org/2000/svg">
<path d="M-0.666748 11.3334V4.66675C-0.666748 4.30008 -0.536193 3.98619 -0.275081 3.72508C-0.0139703 3.46397 0.299919 3.33341 0.666585 3.33341H2.66658V2.00008C2.66658 1.63341 2.79714 1.31953 3.05825 1.05841C3.31936 0.797304 3.63325 0.666748 3.99992 0.666748H7.99992C8.36658 0.666748 8.68047 0.797304 8.94158 1.05841C9.2027 1.31953 9.33325 1.63341 9.33325 2.00008V3.33341H11.3333C11.6999 3.33341 12.0138 3.46397 12.2749 3.72508C12.536 3.98619 12.6666 4.30008 12.6666 4.66675V11.3334H-0.666748ZM3.33325 8.00008V8.66675H1.99992V8.00008H0.666585V10.0001H11.3333V8.00008H9.99992V8.66675H8.66658V8.00008H3.33325ZM0.666585 4.66675V6.66675H1.99992V6.00008H3.33325V6.66675H8.66658V6.00008H9.99992V6.66675H11.3333V4.66675H0.666585ZM3.99992 3.33341H7.99992V2.00008H3.99992V3.33341Z" fill="#FA6100"/>
</svg>
